<?xml version="1.0" encoding="utf-8"?>
<!-- Generator: Adobe Illustrator 26.5.0, SVG Export Plug-In . SVG Version: 6.00 Build 0)  -->
<svg version="1.1" id="レイヤー_1" xmlns="http://www.w3.org/2000/svg" xmlns:xlink="http://www.w3.org/1999/xlink" x="0px"
	 y="0px" viewBox="0 0 2590 940" style="enable-background:new 0 0 2590 940;" xml:space="preserve">
<style type="text/css">
	.st0{fill:none;stroke:#FFFFFF;stroke-width:2.73;stroke-linejoin:bevel;}
	.st1{fill:#FFFFFF;}
	.st2{fill:none;stroke:#FFFFFF;stroke-width:4.46;stroke-linejoin:bevel;}
	.st3{fill:none;stroke:#FFFFFF;stroke-width:13.64;stroke-linejoin:bevel;}
	.st4{fill:none;stroke:#FFFFFF;stroke-width:3.97;stroke-linejoin:bevel;}
	.st5{fill:none;stroke:#FFFFFF;stroke-width:10.91;stroke-linejoin:bevel;}
</style>
<g>
	<g>
		
			<image style="overflow:visible;" width="2624" height="993" xlink:href="63D1D8D2785E650F.png"  transform="matrix(1 0 0 1 -17.191 -16.216)">
		</image>
	</g>
	<g>
		<line class="st0" x1="246.1" y1="127.6" x2="2570.6" y2="127.6"/>
		<line class="st0" x1="246.1" y1="152.5" x2="2570.6" y2="152.5"/>
		<line class="st0" x1="246.1" y1="177.3" x2="2570.6" y2="177.3"/>
		<line class="st0" x1="246.1" y1="202.1" x2="2570.6" y2="202.1"/>
		<line class="st0" x1="246.1" y1="226.9" x2="2570.6" y2="226.9"/>
		<line class="st0" x1="246.1" y1="565.1" x2="2570.6" y2="565.1"/>
		<line class="st0" x1="246.1" y1="589.9" x2="2570.6" y2="589.9"/>
		<line class="st0" x1="246.1" y1="614.7" x2="2570.6" y2="614.7"/>
		<line class="st0" x1="246.1" y1="639.5" x2="2570.6" y2="639.5"/>
		<line class="st0" x1="246.1" y1="664.3" x2="2570.6" y2="664.3"/>
		<line class="st0" x1="246.1" y1="800.7" x2="2570.6" y2="800.7"/>
		<line class="st0" x1="246.1" y1="825.5" x2="2570.6" y2="825.5"/>
		<line class="st0" x1="246.1" y1="850.3" x2="2570.6" y2="850.3"/>
		<line class="st0" x1="246.1" y1="875.1" x2="2570.6" y2="875.1"/>
		<line class="st0" x1="246.1" y1="899.9" x2="2570.6" y2="899.9"/>
		<path class="st1" d="M101.9,831.9H71.9l-0.8,13.9h2.1c0.4-2.5,0.8-4.4,1.4-6c1.3-3.7,3.7-5.5,7.1-5.5c1.7,0,2.4,0.5,2.4,1.8v25.8
			c0,2.5,0,2.7-0.3,3.1c-0.4,0.5-1.4,0.7-4.2,0.7h-1.3v2.4h17.1v-2.4h-1.3c-2.8,0-3.8-0.2-4.2-0.7c-0.3-0.4-0.3-0.6-0.3-3.1V836
			c0-1.2,0.7-1.8,2.4-1.8c3,0,5.5,1.7,6.8,4.7c0.8,1.8,1.2,4,1.6,6.8h2.1L101.9,831.9 M125.4,856.7c0-7.5-4.2-12.8-10.3-12.8
			c-6.4,0-11.2,5.6-11.2,13.1c0,7,4.5,11.8,11.3,11.8c4.8,0,8.1-2.4,10.2-7.1l-1.8-0.9c-2.1,3.8-4.2,5.3-7.5,5.3
			c-2.6,0-4.4-1-5.7-3.3c-0.9-1.5-1.3-3.2-1.2-6H125.4 M109.3,854.6c0-1.6,0.2-2.7,0.7-4.1c1-3,2.6-4.4,5.1-4.4c3,0,5,2.7,5,6.7
			c0,1.4-0.5,1.8-2.1,1.8H109.3 M137.2,844.7l-8.7,0.6v2.1h1.8c1.9,0.1,2.1,0.4,2.1,2.5v12v1.2v1.2c0,0.8-0.1,1.1-0.3,1.3
			c-0.4,0.4-1.3,0.6-3.5,0.7h-0.2v1.8h12.7v-1.8H141c-3.4-0.1-3.8-0.3-3.8-2.2v-2.2v-5.2c0-2.4,0.3-4.7,0.9-5.8
			c1-2.2,3.3-3.8,5.4-3.8c1.3,0,2.8,0.7,3.6,1.8c0.8,1.1,1.1,2.6,1.1,5v8.1v2.3c-0.1,0.8-0.1,1.1-0.3,1.3c-0.4,0.4-1.4,0.6-3.5,0.7
			h-0.2v1.8h12.6v-1.8h-0.2c-3.3-0.1-3.8-0.3-3.8-2.2v-2.2V854c0-3.6-0.1-4.5-1-6.2c-1.2-2.4-3.8-3.8-6.8-3.8
			c-3.2,0-5.7,1.5-7.9,4.8V844.7 M170.3,843.9c-6.1,0-10.9,5.4-10.9,12.4c0,6.9,4.8,12.4,10.8,12.4s10.8-5.5,10.8-12.4
			C181,849.5,176.2,843.9,170.3,843.9 M170.3,846.1c3.5,0,5.5,3.7,5.5,10.2c0,6.7-2,10.2-5.5,10.2c-3.6,0-5.6-3.6-5.6-10.2
			C164.7,849.6,166.6,846.1,170.3,846.1 M192.6,844.7l-8.9,0.6v2.1h2c1.9,0.1,2.2,0.4,2.2,2.5v12v2.3c-0.1,0.8-0.1,1.1-0.3,1.3
			c-0.4,0.4-1.4,0.6-3.5,0.7H184v1.8h13.3v-1.8h-0.9c-3.4-0.1-3.8-0.3-3.8-2.2v-2.2v-0.5c0-8.4,3-14.8,6.9-15
			c-0.7,0.8-0.9,1.3-0.9,2.2c0,1.6,1.1,2.8,2.8,2.8c1.9,0,3.1-1.3,3.1-3.3c0-2.5-1.7-4.1-4.4-4.1c-3.1,0-5.9,2.5-7.5,6.9V844.7"/>
		<path class="st1" d="M130.2,595.9h-2.1l-11.5,29.2c-1.4,3.9-2.6,5.1-5.5,5.3h-0.2v2.3h13.2v-2.3h-1c-2.7,0-4-1-4-2.8
			c0-0.7,0.1-1.2,0.5-2.1l1.6-4.4h13.3l2.7,6.7c0.3,0.8,0.4,1.1,0.4,1.4c0,0.8-1.2,1.3-3.1,1.3h-2.1v2.3h15.5v-2.3h-0.7
			c-2.6,0-3-0.3-4.2-3.2L130.2,595.9 M127.7,604.1l5.7,14.2h-11.2L127.7,604.1 M157.6,595.9l-9.2,0.5v2.2h2.5c1.9,0,2.1,0.3,2.1,2.5
			v25.5v2.3c-0.1,0.8-0.1,1-0.3,1.3c-0.3,0.5-1.3,0.7-3.4,0.7h-0.4v1.8h13v-1.8h-0.4c-3.4-0.1-3.8-0.3-3.8-2.1v-2.2V595.9
			 M172.8,609.4v-9.9h-2c-0.5,6.5-2.7,9.8-6.8,10.1v2h4.1v12.8c0,3.5,0.1,4.8,0.6,5.9c0.8,2.1,2.8,3.2,5.7,3.2
			c4.5,0,7.4-3.4,7.4-8.7c0-0.3,0-0.7,0-1.2h-2.1c-0.1,4.5-1.4,6.8-3.9,6.8c-1.1,0-2.1-0.6-2.5-1.5c-0.3-0.7-0.5-1.9-0.5-3.8v-13.6
			h7.4v-2.2H172.8 M195.5,608.7c-6.1,0-10.9,5.5-10.9,12.5c0,6.8,4.8,12.3,10.8,12.3s10.8-5.5,10.8-12.4
			C206.2,614.2,201.4,608.7,195.5,608.7 M195.5,610.8c3.5,0,5.5,3.6,5.5,10.2c0,6.6-2,10.2-5.6,10.2c-3.6,0-5.5-3.6-5.5-10.2
			C189.8,614.3,191.7,610.8,195.5,610.8"/>
		<path class="st1" d="M44.2,154.2h-1.9l-2,3c-2.4-2.2-5.6-3.5-9.1-3.5c-6.6,0-10.9,4.2-10.9,10.5c0,5.5,2.7,8.1,10.1,10l4.8,1.2
			c3.7,1,4.1,1,5.1,1.9c1.5,1.1,2.3,2.8,2.3,4.8c0,2-0.8,3.6-2.2,5c-1.6,1.4-3.3,2-6,2c-3.7,0-6.4-1.1-8.7-3.8
			c-2.1-2.3-3.1-4.7-3.9-8.6h-2.1l0.2,14.2h1.9l2.2-3.4c3.4,2.8,6.1,3.8,10.5,3.8c7.4,0,12.1-4.3,12.1-11c0-3.1-1-5.8-3-7.6
			c-1.4-1.3-3.3-2.1-7.3-3.1l-5.4-1.4c-4.4-1.1-6.5-3.1-6.5-6.1c0-3.5,2.8-5.9,7.1-5.9c3.5,0,6.4,1.5,8.4,4.3c1.4,2.1,2.4,4.2,3,6.7
			h2.1L44.2,154.2 M61.5,166.6c-6.1,0-10.9,5.4-10.9,12.4c0,6.9,4.8,12.4,10.8,12.4s10.8-5.5,10.8-12.4
			C72.2,172.1,67.4,166.6,61.5,166.6 M61.5,168.7c3.5,0,5.4,3.6,5.4,10.2c0,6.6-1.9,10.2-5.5,10.2s-5.6-3.6-5.6-10.2
			C55.8,172.2,57.7,168.7,61.5,168.7 M83.9,167.3l-8.6,0.5v2.1h1.8c1.9,0.1,2.1,0.4,2.1,2.5v22.1v2.4c-0.1,0.7-0.1,1-0.3,1.2
			c-0.3,0.5-1.3,0.6-3.4,0.7h-0.2v1.8h13v-1.8h-0.5c-3.4-0.1-3.8-0.4-3.8-2.2v-2.2v-7.2c1.7,2.9,3.5,4,6.6,4c3.1,0,5.6-1.3,7.4-3.8
			c1.8-2.4,2.8-5.5,2.8-8.8s-1-6.3-2.9-8.7c-1.9-2.4-4.1-3.6-6.9-3.6c-3.1,0-5.2,1.3-6.9,4.3V167.3 M89.9,169.3
			c3.5,0,5.5,3.5,5.5,9.3c0,6.4-2,10.1-5.6,10.1s-5.9-3.7-5.9-9.5C83.9,173,86.1,169.3,89.9,169.3 M112.4,167.3l-8.9,0.5v2.1h2
			c1.9,0.1,2.2,0.4,2.2,2.5v12v2.4c-0.1,0.8-0.1,1-0.3,1.3c-0.4,0.5-1.4,0.6-3.5,0.7h-0.2v1.8h13.3v-1.8h-0.9
			c-3.4-0.1-3.8-0.4-3.8-2.1v-2.2V184c0-8.4,3-14.8,6.9-15c-0.7,0.8-0.9,1.3-0.9,2.2c0,1.6,1.1,2.8,2.8,2.8c1.9,0,3.1-1.4,3.1-3.4
			c0-2.4-1.7-4-4.4-4c-3.1,0-5.9,2.5-7.5,6.9V167.3 M146.9,174.5c0-3.1-0.5-4.8-2-5.9c-1.6-1.4-4.1-2-7.3-2c-5.6,0-9.8,2.6-9.8,6.3
			c0,1.9,1.2,3.1,2.9,3.1c1.6,0,2.7-1.1,2.7-2.6c0-0.6-0.2-1.4-0.8-2c-0.3-0.4-0.4-0.5-0.4-0.7c0-1,2-1.9,4.4-1.9
			c1.6,0,3.4,0.5,4.1,1.2c1,0.8,1.3,2,1.3,4.2v2c-5.2,0.9-6.9,1.3-9.3,2.2c-4.4,1.6-6.4,3.9-6.4,7.1c0,3.6,2.8,5.9,7.3,5.9
			c3.5,0,6.5-1.4,8.7-3.9c0.8,2.5,2,3.5,4.4,3.5c2.2,0,4.6-1.5,4.6-2.9c0-0.4-0.2-0.6-0.5-0.6c-0.2,0-0.4,0-0.8,0.2
			c-0.7,0.3-1,0.3-1.4,0.3c-1.4,0-1.9-0.9-1.9-3.4V174.5 M142.2,180.6c0,3-0.2,3.7-1,5c-1.2,1.9-3.5,3.1-5.7,3.1c-2.3,0-4-1.6-4-3.9
			c0-2.1,1.1-3.6,3.2-4.6c1.6-0.7,3.5-1.2,7.4-1.9V180.6 M162.1,167.3l-8.6,0.5v2.1h1.8c1.9,0.1,2.1,0.4,2.1,2.5v12v1.2v1.1
			c-0.1,0.8-0.1,1-0.3,1.3c-0.3,0.5-1.3,0.6-3.4,0.7h-0.2v1.8h12.6v-1.8h-0.2c-3.4-0.1-3.8-0.4-3.8-2.1v-2.2v-5.2
			c0-2.4,0.4-4.7,0.9-5.8c1-2.2,3.3-3.8,5.4-3.8c1.3,0,2.8,0.7,3.6,1.8c0.8,1.1,1.1,2.6,1.1,5v8.1v2.4c0,0.8-0.1,1-0.3,1.3
			c-0.4,0.5-1.4,0.6-3.5,0.7h-0.2v1.8h12.7v-1.8h-0.2c-3.3-0.1-3.8-0.4-3.8-2.1v-2.2v-7.9c0-3.6-0.1-4.5-1-6.2
			c-1.2-2.4-3.8-3.9-6.8-3.9c-3.2,0-5.7,1.5-7.9,4.8V167.3 M195.3,166.6c-6.1,0-10.9,5.4-10.9,12.4c0,6.9,4.8,12.4,10.8,12.4
			S206,185.9,206,179C206,172.1,201.2,166.6,195.3,166.6 M195.3,168.7c3.5,0,5.5,3.6,5.5,10.2c0,6.6-2,10.2-5.5,10.2
			c-3.6,0-5.6-3.6-5.6-10.2C189.6,172.2,191.5,168.7,195.3,168.7"/>
		<line class="st2" x1="248.4" y1="799.3" x2="248.4" y2="901.3"/>
		<line class="st3" x1="426.3" y1="799.3" x2="426.3" y2="901.3"/>
		<line class="st2" x1="443.6" y1="799.3" x2="443.6" y2="901.3"/>
		<path class="st1" d="M466.2,837.9c0-2.9-2.3-5.3-5.2-5.3s-5.2,2.4-5.2,5.3c0,2.9,2.3,5.3,5.2,5.3S466.2,840.8,466.2,837.9"/>
		<path class="st1" d="M466.2,862.7c0-2.9-2.3-5.3-5.2-5.3s-5.2,2.4-5.2,5.3c0,2.9,2.3,5.3,5.2,5.3S466.2,865.6,466.2,862.7"/>
		<line class="st2" x1="1116.3" y1="799.3" x2="1116.3" y2="901.3"/>
		<line class="st2" x1="1628.9" y1="799.3" x2="1628.9" y2="901.3"/>
		<line class="st2" x1="2199.7" y1="799.3" x2="2199.7" y2="901.3"/>
		<line class="st2" x1="2568.4" y1="799.3" x2="2568.4" y2="901.3"/>
		<line class="st2" x1="248.4" y1="563.7" x2="248.4" y2="800.7"/>
		<line class="st3" x1="426.3" y1="563.7" x2="426.3" y2="665.7"/>
		<line class="st2" x1="443.6" y1="563.7" x2="443.6" y2="665.7"/>
		<path class="st1" d="M466.2,602.3c0-2.9-2.3-5.3-5.2-5.3s-5.2,2.4-5.2,5.3c0,2.9,2.3,5.3,5.2,5.3S466.2,605.2,466.2,602.3"/>
		<path class="st1" d="M466.2,627.1c0-2.9-2.3-5.3-5.2-5.3s-5.2,2.4-5.2,5.3c0,2.9,2.3,5.3,5.2,5.3S466.2,630,466.2,627.1"/>
		<line class="st2" x1="1116.3" y1="563.7" x2="1116.3" y2="665.7"/>
		<line class="st2" x1="1628.9" y1="563.7" x2="1628.9" y2="665.7"/>
		<line class="st2" x1="2199.7" y1="563.7" x2="2199.7" y2="665.7"/>
		<line class="st2" x1="2568.4" y1="563.7" x2="2568.4" y2="665.7"/>
		<line class="st2" x1="248.4" y1="126.3" x2="248.4" y2="565.1"/>
		<line class="st3" x1="426.3" y1="126.3" x2="426.3" y2="228.2"/>
		<line class="st2" x1="443.6" y1="126.3" x2="443.6" y2="228.2"/>
		<path class="st1" d="M466.2,164.9c0-2.9-2.3-5.3-5.2-5.3s-5.2,2.4-5.2,5.3s2.3,5.3,5.2,5.3S466.2,167.7,466.2,164.9"/>
		<path class="st1" d="M466.2,189.7c0-2.9-2.3-5.3-5.2-5.3s-5.2,2.4-5.2,5.3s2.3,5.3,5.2,5.3S466.2,192.5,466.2,189.7"/>
		<line class="st2" x1="1116.3" y1="126.3" x2="1116.3" y2="228.2"/>
		<line class="st2" x1="1628.9" y1="126.3" x2="1628.9" y2="228.2"/>
		<line class="st2" x1="2199.7" y1="126.3" x2="2199.7" y2="228.2"/>
		<line class="st2" x1="2568.4" y1="126.3" x2="2568.4" y2="228.2"/>
		<path class="st1" d="M2246.6,802.6c0.6-0.1,1.1-0.8,1.1-1.4v-5.9c0-0.8-0.6-1.4-1.4-1.4h-0.2l-3.3,0.7v-14.8h-2.8v15.4l-8.8,1.8
			v-14h-2.8v14.6l-3.9,0.8c-0.6,0.1-1.1,0.8-1.1,1.4v0.2v5.8v-0.2c0,0.8,0.6,1.4,1.4,1.4h0.3l3.3-0.7v16.4l-3.9,0.8
			c-0.6,0.1-1.1,0.8-1.1,1.4v5.8c0,0.8,0.6,1.4,1.4,1.4h0.3l3.3-0.7V846h2.8v-15.4l8.8-1.8v14h2.8v-14.6l3.8-0.7
			c0.6-0.1,1.1-0.8,1.1-1.4v-5.9c0-0.8-0.6-1.4-1.4-1.4h-0.2l-3.3,0.7v-16.4L2246.6,802.6 M2231.2,822.1v-16.5l8.8-1.8v16.4
			L2231.2,822.1"/>
		<line class="st4" x1="1168.1" y1="775.9" x2="1217.7" y2="775.9"/>
		<line class="st4" x1="1926.1" y1="689.1" x2="1975.7" y2="689.1"/>
		<line class="st4" x1="2057.5" y1="689.1" x2="2107.1" y2="689.1"/>
		<line class="st4" x1="2245.2" y1="689.1" x2="2294.8" y2="689.1"/>
		<line class="st0" x1="529.6" y1="841.2" x2="529.6" y2="918.5"/>
		<line class="st0" x1="676.1" y1="841.2" x2="676.1" y2="918.5"/>
		<line class="st0" x1="822.5" y1="804" x2="822.5" y2="887.5"/>
		<line class="st0" x1="969" y1="791.6" x2="969" y2="875.1"/>
		<line class="st0" x1="1178.1" y1="779.2" x2="1178.1" y2="862.7"/>
		<line class="st0" x1="1303.1" y1="791.6" x2="1303.1" y2="875.1"/>
		<line class="st0" x1="1428.1" y1="804" x2="1428.1" y2="887.5"/>
		<line class="st0" x1="1673.5" y1="828.8" x2="1673.5" y2="909.2"/>
		<line class="st0" x1="1804.8" y1="828.8" x2="1804.8" y2="909.2"/>
		<line class="st0" x1="1936.2" y1="804" x2="1936.2" y2="887.5"/>
		<line class="st0" x1="2067.5" y1="804" x2="2067.5" y2="887.5"/>
		<line class="st0" x1="2255.3" y1="816.4" x2="2255.3" y2="899.9"/>
		<line class="st0" x1="559.1" y1="661.1" x2="559.1" y2="577.5"/>
		<line class="st0" x1="705.6" y1="661.1" x2="705.6" y2="577.5"/>
		<line class="st0" x1="852" y1="661.1" x2="852" y2="577.5"/>
		<line class="st0" x1="998.5" y1="661.1" x2="998.5" y2="577.5"/>
		<line class="st0" x1="1207.6" y1="623.9" x2="1207.6" y2="546.5"/>
		<line class="st0" x1="1332.6" y1="636.3" x2="1332.6" y2="555.8"/>
		<line class="st0" x1="1457.6" y1="661.1" x2="1457.6" y2="577.5"/>
		<line class="st0" x1="1703" y1="673.5" x2="1703" y2="589.9"/>
		<line class="st0" x1="1834.4" y1="673.5" x2="1834.4" y2="589.9"/>
		<line class="st0" x1="1965.7" y1="698.3" x2="1965.7" y2="614.7"/>
		<line class="st0" x1="2097" y1="698.3" x2="2097" y2="614.7"/>
		<line class="st0" x1="2284.8" y1="698.3" x2="2284.8" y2="614.7"/>
		<line class="st0" x1="559.1" y1="223.7" x2="559.1" y2="140.1"/>
		<line class="st0" x1="705.6" y1="223.7" x2="705.6" y2="140.1"/>
		<line class="st0" x1="852" y1="186.5" x2="852" y2="109"/>
		<line class="st0" x1="969" y1="180.6" x2="969" y2="254.8"/>
		<line class="st0" x1="1178.1" y1="168.2" x2="1178.1" y2="245.5"/>
		<line class="st0" x1="1303.1" y1="180.6" x2="1303.1" y2="254.8"/>
		<line class="st0" x1="1457.6" y1="186.5" x2="1457.6" y2="109"/>
		<line class="st0" x1="1703" y1="211.3" x2="1703" y2="127.6"/>
		<line class="st0" x1="1834.4" y1="211.3" x2="1834.4" y2="127.6"/>
		<line class="st0" x1="1965.7" y1="223.7" x2="1965.7" y2="140.1"/>
		<line class="st0" x1="2097" y1="236.1" x2="2097" y2="152.5"/>
		<line class="st0" x1="2284.8" y1="223.7" x2="2284.8" y2="140.1"/>
		<path class="st1" d="M559.5,829.9c-1.8-3.3-5.6-5.1-10.1-5.1c-3.4,0-7,1-10.6,2.9c-6.5,3.5-10.5,9.3-10.5,14.4
			c0,1.4,0.3,2.8,1,4.1c1.8,3.3,5.6,5,10.1,5c3.4,0,7-0.9,10.6-2.8c6.5-3.5,10.5-9.3,10.5-14.4C560.5,832.6,560.2,831.2,559.5,829.9
			"/>
		<path class="st1" d="M705.9,829.9c-1.8-3.3-5.6-5.1-10.1-5.1c-3.4,0-7,1-10.6,2.9c-6.5,3.5-10.5,9.3-10.5,14.4
			c0,1.4,0.3,2.8,1,4.1c1.8,3.3,5.6,5,10.1,5c3.4,0,7-0.9,10.6-2.8c6.5-3.5,10.5-9.3,10.5-14.4C706.9,832.6,706.6,831.2,705.9,829.9
			"/>
		<path class="st1" d="M852.4,792.7c-1.8-3.3-5.6-5.1-10.1-5.1c-3.4,0-7,1-10.6,2.9c-6.5,3.5-10.5,9.3-10.5,14.4
			c0,1.4,0.3,2.8,1,4.1c1.8,3.3,5.6,5,10.1,5c3.4,0,7-0.9,10.6-2.8c6.5-3.5,10.5-9.3,10.5-14.4C853.4,795.4,853.1,794,852.4,792.7"
			/>
		<path class="st1" d="M998.9,780.3c-1.8-3.3-5.6-5.1-10.1-5.1c-3.4,0-7,1-10.6,2.9c-6.5,3.5-10.5,9.3-10.5,14.4
			c0,1.4,0.3,2.8,1,4.1c1.8,3.3,5.6,5,10.1,5c3.4,0,7-0.9,10.6-2.8c6.5-3.5,10.5-9.3,10.5-14.4C999.9,783,999.6,781.6,998.9,780.3"
			/>
		<path class="st1" d="M1208,767.9c-1.8-3.3-5.6-5.1-10.1-5.1c-3.4,0-7,1-10.6,2.9c-6.5,3.5-10.5,9.3-10.5,14.4c0,1.4,0.3,2.8,1,4.1
			c1.8,3.3,5.6,5,10.1,5c3.4,0,7-0.9,10.6-2.8c6.5-3.5,10.5-9.3,10.5-14.4C1209,770.6,1208.7,769.2,1208,767.9"/>
		<path class="st1" d="M1333,780.3c-1.8-3.3-5.6-5.1-10.1-5.1c-3.4,0-7,1-10.6,2.9c-6.5,3.5-10.5,9.3-10.5,14.4c0,1.4,0.3,2.8,1,4.1
			c1.8,3.3,5.6,5,10.1,5c3.4,0,7-0.9,10.6-2.8c6.5-3.5,10.5-9.3,10.5-14.4C1334,783,1333.7,781.6,1333,780.3"/>
		<path class="st1" d="M1458,792.7c-1.8-3.3-5.6-5.1-10.1-5.1c-3.4,0-7,1-10.6,2.9c-6.5,3.5-10.5,9.3-10.5,14.4c0,1.4,0.3,2.8,1,4.1
			c1.8,3.3,5.6,5,10.1,5c3.4,0,7-0.9,10.6-2.8c6.5-3.5,10.5-9.3,10.5-14.4C1459,795.4,1458.7,794,1458,792.7 M1453.7,799.4
			c-1.7,1.7-5.1,3.8-8.6,5.8s-7.1,3.5-9.5,4c-0.5,0.1-1,0.2-1.5,0.2c-1.6,0-2.8-0.6-3.5-1.9c-0.3-0.5-0.5-1.1-0.5-1.7
			c0-1.1,0.7-2.4,1.8-3.5c1.7-1.7,5-3.8,8.5-5.8s7.1-3.5,9.5-4c0.5-0.1,1-0.2,1.5-0.2c1.6,0,2.9,0.6,3.6,1.9
			c0.3,0.5,0.4,1.1,0.4,1.7C1455.4,797,1454.8,798.2,1453.7,799.4"/>
		<path class="st1" d="M1703.4,817.5c-1.8-3.3-5.6-5.1-10.1-5.1c-3.4,0-7,1-10.6,2.9c-6.5,3.5-10.5,9.3-10.5,14.4
			c0,1.4,0.3,2.8,1,4.1c1.8,3.3,5.6,5,10.1,5c3.4,0,7-0.9,10.6-2.8c6.5-3.5,10.5-9.3,10.5-14.4
			C1704.4,820.2,1704.1,818.8,1703.4,817.5"/>
		<path class="st1" d="M1834.7,817.5c-1.8-3.3-5.6-5.1-10.1-5.1c-3.4,0-7,1-10.6,2.9c-6.5,3.5-10.5,9.3-10.5,14.4
			c0,1.4,0.3,2.8,1,4.1c1.8,3.3,5.6,5,10.1,5c3.4,0,7-0.9,10.6-2.8c6.5-3.5,10.5-9.3,10.5-14.4
			C1835.7,820.2,1835.4,818.8,1834.7,817.5"/>
		<path class="st1" d="M1966.1,792.7c-1.8-3.3-5.6-5.1-10.1-5.1c-3.4,0-7,1-10.6,2.9c-6.5,3.5-10.5,9.3-10.5,14.4
			c0,1.4,0.3,2.8,1,4.1c1.8,3.3,5.6,5,10.1,5c3.4,0,7-0.9,10.6-2.8c6.5-3.5,10.5-9.3,10.5-14.4
			C1967.1,795.4,1966.8,794,1966.1,792.7"/>
		<path class="st1" d="M2097.4,792.7c-1.8-3.3-5.6-5.1-10.1-5.1c-3.4,0-7,1-10.6,2.9c-6.5,3.5-10.5,9.3-10.5,14.4
			c0,1.4,0.3,2.8,1,4.1c1.8,3.3,5.6,5,10.1,5c3.4,0,7-0.9,10.6-2.8c6.5-3.5,10.5-9.3,10.5-14.4
			C2098.4,795.4,2098.1,794,2097.4,792.7"/>
		<path class="st1" d="M2285.2,805.1c-1.8-3.3-5.6-5.1-10.1-5.1c-3.4,0-7,1-10.6,2.9c-6.5,3.5-10.5,9.3-10.5,14.4
			c0,1.4,0.3,2.8,1,4.1c1.8,3.3,5.6,5,10.1,5c3.4,0,7-0.9,10.6-2.8c6.5-3.5,10.5-9.3,10.5-14.4
			C2286.2,807.8,2285.9,806.4,2285.2,805.1 M2280.9,811.8c-1.7,1.7-5.1,3.8-8.6,5.8c-3.6,2-7.1,3.5-9.5,4c-0.5,0.1-1,0.2-1.5,0.2
			c-1.6,0-2.8-0.6-3.5-1.9c-0.3-0.5-0.5-1.1-0.5-1.7c0-1.1,0.7-2.4,1.8-3.5c1.7-1.7,5-3.8,8.5-5.8c3.6-2,7.1-3.5,9.5-4
			c0.5-0.1,1-0.2,1.5-0.2c1.6,0,2.9,0.6,3.6,1.9c0.3,0.5,0.4,1.1,0.4,1.7C2282.6,809.4,2282,810.6,2280.9,811.8"/>
		<path class="st1" d="M559.5,656.3c-1.8-3.3-5.6-5.1-10.1-5.1c-3.4,0-7,1-10.6,2.9c-6.5,3.5-10.5,9.3-10.5,14.4
			c0,1.4,0.3,2.8,1,4.1c1.8,3.3,5.6,5,10.1,5c3.4,0,7-0.9,10.6-2.8c6.5-3.5,10.5-9.3,10.5-14.4C560.5,658.9,560.2,657.5,559.5,656.3
			"/>
		<path class="st1" d="M705.9,656.3c-1.8-3.3-5.6-5.1-10.1-5.1c-3.4,0-7,1-10.6,2.9c-6.5,3.5-10.5,9.3-10.5,14.4
			c0,1.4,0.3,2.8,1,4.1c1.8,3.3,5.6,5,10.1,5c3.4,0,7-0.9,10.6-2.8c6.5-3.5,10.5-9.3,10.5-14.4C706.9,658.9,706.6,657.5,705.9,656.3
			"/>
		<path class="st1" d="M852.4,656.3c-1.8-3.3-5.6-5.1-10.1-5.1c-3.4,0-7,1-10.6,2.9c-6.5,3.5-10.5,9.3-10.5,14.4
			c0,1.4,0.3,2.8,1,4.1c1.8,3.3,5.6,5,10.1,5c3.4,0,7-0.9,10.6-2.8c6.5-3.5,10.5-9.3,10.5-14.4C853.4,658.9,853.1,657.5,852.4,656.3
			"/>
		<path class="st1" d="M998.9,656.3c-1.8-3.3-5.6-5.1-10.1-5.1c-3.4,0-7,1-10.6,2.9c-6.5,3.5-10.5,9.3-10.5,14.4
			c0,1.4,0.3,2.8,1,4.1c1.8,3.3,5.6,5,10.1,5c3.4,0,7-0.9,10.6-2.8c6.5-3.5,10.5-9.3,10.5-14.4C999.9,658.9,999.6,657.5,998.9,656.3
			"/>
		<path class="st1" d="M1208,619.1c-1.8-3.3-5.6-5.1-10.1-5.1c-3.4,0-7,1-10.6,2.9c-6.5,3.5-10.5,9.3-10.5,14.4c0,1.4,0.3,2.8,1,4.1
			c1.8,3.3,5.6,5,10.1,5c3.4,0,7-0.9,10.6-2.8c6.5-3.5,10.5-9.3,10.5-14.4C1209,621.7,1208.7,620.3,1208,619.1"/>
		<path class="st1" d="M1333,631.5c-1.8-3.3-5.6-5.1-10.1-5.1c-3.4,0-7,1-10.6,2.9c-6.5,3.5-10.5,9.3-10.5,14.4c0,1.4,0.3,2.8,1,4.1
			c1.8,3.3,5.6,5,10.1,5c3.4,0,7-0.9,10.6-2.8c6.5-3.5,10.5-9.3,10.5-14.4C1334,634.1,1333.7,632.7,1333,631.5"/>
		<path class="st1" d="M1458,656.3c-1.8-3.3-5.6-5.1-10.1-5.1c-3.4,0-7,1-10.6,2.9c-6.5,3.5-10.5,9.3-10.5,14.4c0,1.4,0.3,2.8,1,4.1
			c1.8,3.3,5.6,5,10.1,5c3.4,0,7-0.9,10.6-2.8c6.5-3.5,10.5-9.3,10.5-14.4C1459,658.9,1458.7,657.5,1458,656.3 M1453.7,663
			c-1.7,1.7-5.1,3.8-8.6,5.8s-7.1,3.5-9.5,4c-0.5,0.1-1,0.2-1.5,0.2c-1.6,0-2.8-0.6-3.5-1.9c-0.3-0.5-0.5-1.1-0.5-1.7
			c0-1.1,0.7-2.4,1.8-3.5c1.7-1.7,5-3.8,8.5-5.8s7.1-3.5,9.5-4c0.5-0.1,1-0.2,1.5-0.2c1.6,0,2.9,0.6,3.6,1.9
			c0.3,0.5,0.4,1.1,0.4,1.7C1455.4,660.6,1454.8,661.8,1453.7,663"/>
		<path class="st1" d="M1703.4,668.7c-1.8-3.3-5.6-5.1-10.1-5.1c-3.4,0-7,1-10.6,2.9c-6.5,3.5-10.5,9.3-10.5,14.4
			c0,1.4,0.3,2.8,1,4.1c1.8,3.3,5.6,5,10.1,5c3.4,0,7-0.9,10.6-2.8c6.5-3.5,10.5-9.3,10.5-14.4
			C1704.4,671.3,1704.1,669.9,1703.4,668.7"/>
		<path class="st1" d="M1834.7,668.7c-1.8-3.3-5.6-5.1-10.1-5.1c-3.4,0-7,1-10.6,2.9c-6.5,3.5-10.5,9.3-10.5,14.4
			c0,1.4,0.3,2.8,1,4.1c1.8,3.3,5.6,5,10.1,5c3.4,0,7-0.9,10.6-2.8c6.5-3.5,10.5-9.3,10.5-14.4
			C1835.7,671.3,1835.4,669.9,1834.7,668.7"/>
		<path class="st1" d="M1966.1,693.5c-1.8-3.3-5.6-5.1-10.1-5.1c-3.4,0-7,1-10.6,2.9c-6.5,3.5-10.5,9.3-10.5,14.4
			c0,1.4,0.3,2.8,1,4.1c1.8,3.3,5.6,5,10.1,5c3.4,0,7-0.9,10.6-2.8c6.5-3.5,10.5-9.3,10.5-14.4
			C1967.1,696.1,1966.8,694.8,1966.1,693.5"/>
		<path class="st1" d="M2097.4,693.5c-1.8-3.3-5.6-5.1-10.1-5.1c-3.4,0-7,1-10.6,2.9c-6.5,3.5-10.5,9.3-10.5,14.4
			c0,1.4,0.3,2.8,1,4.1c1.8,3.3,5.6,5,10.1,5c3.4,0,7-0.9,10.6-2.8c6.5-3.5,10.5-9.3,10.5-14.4
			C2098.4,696.1,2098.1,694.8,2097.4,693.5"/>
		<path class="st1" d="M2285.2,693.5c-1.8-3.3-5.6-5.1-10.1-5.1c-3.4,0-7,1-10.6,2.9c-6.5,3.5-10.5,9.3-10.5,14.4
			c0,1.4,0.3,2.8,1,4.1c1.8,3.3,5.6,5,10.1,5c3.4,0,7-0.9,10.6-2.8c6.5-3.5,10.5-9.3,10.5-14.4
			C2286.2,696.1,2285.9,694.8,2285.2,693.5 M2280.9,700.2c-1.7,1.7-5.1,3.8-8.6,5.8c-3.6,2-7.1,3.5-9.5,4c-0.5,0.1-1,0.2-1.5,0.2
			c-1.6,0-2.8-0.6-3.5-1.9c-0.3-0.5-0.5-1.1-0.5-1.7c0-1.1,0.7-2.4,1.8-3.5c1.7-1.7,5-3.8,8.5-5.8c3.6-2,7.1-3.5,9.5-4
			c0.5-0.1,1-0.2,1.5-0.2c1.6,0,2.9,0.6,3.6,1.9c0.3,0.5,0.4,1.1,0.4,1.7C2282.6,697.8,2282,699,2280.9,700.2"/>
		<path class="st1" d="M559.5,218.8c-1.8-3.3-5.6-5.1-10.1-5.1c-3.4,0-7,1-10.6,2.9c-6.5,3.5-10.5,9.3-10.5,14.4
			c0,1.4,0.3,2.8,1,4.1c1.8,3.3,5.6,5,10.1,5c3.4,0,7-0.9,10.6-2.8c6.5-3.5,10.5-9.3,10.5-14.4C560.5,221.5,560.2,220.1,559.5,218.8
			"/>
		<path class="st1" d="M705.9,218.8c-1.8-3.3-5.6-5.1-10.1-5.1c-3.4,0-7,1-10.6,2.9c-6.5,3.5-10.5,9.3-10.5,14.4
			c0,1.4,0.3,2.8,1,4.1c1.8,3.3,5.6,5,10.1,5c3.4,0,7-0.9,10.6-2.8c6.5-3.5,10.5-9.3,10.5-14.4C706.9,221.5,706.6,220.1,705.9,218.8
			"/>
		<path class="st1" d="M852.4,181.6c-1.8-3.3-5.6-5.1-10.1-5.1c-3.4,0-7,1-10.6,2.9c-6.5,3.5-10.5,9.3-10.5,14.4
			c0,1.4,0.3,2.8,1,4.1c1.8,3.3,5.6,5,10.1,5c3.4,0,7-0.9,10.6-2.8c6.5-3.5,10.5-9.3,10.5-14.4C853.4,184.3,853.1,182.9,852.4,181.6
			"/>
		<path class="st1" d="M998.9,169.2c-1.8-3.3-5.6-5.1-10.1-5.1c-3.4,0-7,1-10.6,2.9c-6.5,3.5-10.5,9.3-10.5,14.4
			c0,1.4,0.3,2.8,1,4.1c1.8,3.3,5.6,5,10.1,5c3.4,0,7-0.9,10.6-2.8c6.5-3.5,10.5-9.3,10.5-14.4C999.9,171.9,999.6,170.5,998.9,169.2
			"/>
		<path class="st1" d="M1208,156.8c-1.8-3.3-5.6-5.1-10.1-5.1c-3.4,0-7,1-10.6,2.9c-6.5,3.5-10.5,9.3-10.5,14.4c0,1.4,0.3,2.8,1,4.1
			c1.8,3.3,5.6,5,10.1,5c3.4,0,7-0.9,10.6-2.8c6.5-3.5,10.5-9.3,10.5-14.4C1209,159.5,1208.7,158.1,1208,156.8"/>
		<path class="st1" d="M1333,169.2c-1.8-3.3-5.6-5.1-10.1-5.1c-3.4,0-7,1-10.6,2.9c-6.5,3.5-10.5,9.3-10.5,14.4c0,1.4,0.3,2.8,1,4.1
			c1.8,3.3,5.6,5,10.1,5c3.4,0,7-0.9,10.6-2.8c6.5-3.5,10.5-9.3,10.5-14.4C1334,171.9,1333.7,170.5,1333,169.2"/>
		<path class="st1" d="M1458,181.6c-1.8-3.3-5.6-5.1-10.1-5.1c-3.4,0-7,1-10.6,2.9c-6.5,3.5-10.5,9.3-10.5,14.4c0,1.4,0.3,2.8,1,4.1
			c1.8,3.3,5.6,5,10.1,5c3.4,0,7-0.9,10.6-2.8c6.5-3.5,10.5-9.3,10.5-14.4C1459,184.3,1458.7,182.9,1458,181.6 M1453.7,188.4
			c-1.7,1.7-5.1,3.8-8.6,5.8s-7.1,3.5-9.5,4c-0.5,0.1-1,0.2-1.5,0.2c-1.6,0-2.8-0.6-3.5-1.9c-0.3-0.5-0.5-1.1-0.5-1.7
			c0-1.1,0.7-2.4,1.8-3.5c1.7-1.7,5-3.8,8.5-5.8s7.1-3.5,9.5-4c0.5-0.1,1-0.2,1.5-0.2c1.6,0,2.9,0.6,3.6,1.9
			c0.3,0.5,0.4,1.1,0.4,1.7C1455.4,186,1454.8,187.2,1453.7,188.4"/>
		<path class="st1" d="M1703.4,206.4c-1.8-3.3-5.6-5.1-10.1-5.1c-3.4,0-7,1-10.6,2.9c-6.5,3.5-10.5,9.3-10.5,14.4
			c0,1.4,0.3,2.8,1,4.1c1.8,3.3,5.6,5,10.1,5c3.4,0,7-0.9,10.6-2.8c6.5-3.5,10.5-9.3,10.5-14.4
			C1704.4,209.1,1704.1,207.7,1703.4,206.4"/>
		<path class="st1" d="M1834.7,206.4c-1.8-3.3-5.6-5.1-10.1-5.1c-3.4,0-7,1-10.6,2.9c-6.5,3.5-10.5,9.3-10.5,14.4
			c0,1.4,0.3,2.8,1,4.1c1.8,3.3,5.6,5,10.1,5c3.4,0,7-0.9,10.6-2.8c6.5-3.5,10.5-9.3,10.5-14.4
			C1835.7,209.1,1835.4,207.7,1834.7,206.4"/>
		<path class="st1" d="M1966.1,218.8c-1.8-3.3-5.6-5.1-10.1-5.1c-3.4,0-7,1-10.6,2.9c-6.5,3.5-10.5,9.3-10.5,14.4
			c0,1.4,0.3,2.8,1,4.1c1.8,3.3,5.6,5,10.1,5c3.4,0,7-0.9,10.6-2.8c6.5-3.5,10.5-9.3,10.5-14.4
			C1967.1,221.5,1966.8,220.1,1966.1,218.8"/>
		<path class="st1" d="M2097.4,231.2c-1.8-3.3-5.6-5.1-10.1-5.1c-3.4,0-7,1-10.6,2.9c-6.5,3.5-10.5,9.3-10.5,14.4
			c0,1.4,0.3,2.8,1,4.1c1.8,3.3,5.6,5,10.1,5c3.4,0,7-0.9,10.6-2.8c6.5-3.5,10.5-9.3,10.5-14.4
			C2098.4,233.9,2098.1,232.5,2097.4,231.2"/>
		<path class="st1" d="M2285.2,218.8c-1.8-3.3-5.6-5.1-10.1-5.1c-3.4,0-7,1-10.6,2.9c-6.5,3.5-10.5,9.3-10.5,14.4
			c0,1.4,0.3,2.8,1,4.1c1.8,3.3,5.6,5,10.1,5c3.4,0,7-0.9,10.6-2.8c6.5-3.5,10.5-9.3,10.5-14.4
			C2286.2,221.5,2285.9,220.1,2285.2,218.8 M2280.9,225.6c-1.7,1.7-5.1,3.8-8.6,5.8c-3.6,2-7.1,3.5-9.5,4c-0.5,0.1-1,0.2-1.5,0.2
			c-1.6,0-2.8-0.6-3.5-1.9c-0.3-0.5-0.5-1.1-0.5-1.7c0-1.1,0.7-2.4,1.8-3.5c1.7-1.7,5-3.8,8.5-5.8c3.6-2,7.1-3.5,9.5-4
			c0.5-0.1,1-0.2,1.5-0.2c1.6,0,2.9,0.6,3.6,1.9c0.3,0.5,0.4,1.1,0.4,1.7C2282.6,223.2,2282,224.4,2280.9,225.6"/>
		<path class="st1" d="M295.7,800.6c-7.5,0-13.6,4.4-13.7,4.4c-5.8,4.3-8,9.3-8.9,12.8c-0.5,1.8-0.7,3.6-0.7,5.3
			c0,2.4,0.4,4.6,1.3,6.4c1.2,2.7,3.5,4.6,6.4,5.6c1.2,0.4,2.5,0.6,3.8,0.6c2.2,0,4.5-0.6,6.3-1.7c3.1-1.7,5-5.3,5-9.1
			c0-3.5-1.8-6.6-4.8-8.5c-2.1-1.4-4.1-1.8-5.8-1.8c-1.2,0-2.3,0.2-3.2,0.5c-1,0.4-2.7,1.4-3.5,2.1c0.3-1.9,1.5-4.8,2.6-6.3
			s3.3-3.6,5-4.5c2.5-1.4,5.7-2,9.1-2c10.1,0,15.1,8.1,15.1,24.8c0,9.2-3.5,18.1-6.4,23.9c-3.3,6.5-7.6,12.8-11.5,16.3
			c-10.3,9.4-20,13.9-20.1,13.9c0,0-1.5,0.9-1.1,2.4c0.3,1,1.2,1.2,1.8,1.2c0.1,0,0.4-0.1,0.5-0.1s11.4-4.7,20.4-11.7
			c5.1-3.7,9.6-7.6,13.6-11.9c3.6-3.9,6.6-8,9.1-12.2c4.4-7.4,6.8-15.2,6.8-21.8c0-8.2-2.2-15.1-6.3-19.9
			C311.9,803.5,304.9,800.6,295.7,800.6 M326.8,813.2c0,2.8,2.2,5,4.8,5s4.8-2.2,4.8-5s-2.2-5.1-4.8-5.1S326.8,810.4,326.8,813.2
			 M326.8,837.7c0,2.8,2.2,5.1,4.8,5.1s4.8-2.3,4.8-5.1s-2.2-5.1-4.8-5.1S326.8,834.9,326.8,837.7"/>
		<path class="st1" d="M333.3,633.7c-1.2-5.4-3.8-9.2-4.6-10.2c-3.2-4.2-7.1-7.1-11.8-8.4c-3.1-0.9-6.1-1-8.5-0.8
			c-1-6-2-11.8-2.9-17.2c5.4-6.1,9-11.9,11.3-16.1c3.4-6.5,4.6-11.1,4.6-11.3c1.7-5.2,2.1-12.8,1-21c-1-7.5-3.1-14.1-5.4-17.4
			c-1-1.4-2.1-2.1-3.1-2.1c-1.2,0-3.7,1.2-6.6,4c-2.3,2.2-5.5,6-8.1,12c-3,7-3.2,16.4-2.8,23.1c0.4,7.2,1.5,12.9,1.5,12.9
			c0,0.1,0.3,1.6,0.7,4.1c-0.2,0.2-0.5,0.4-0.7,0.7c-1,1-2.2,2.1-3.6,3.5c-0.9,0.9-1.8,1.8-2.8,2.7c-8.4,8.1-21.1,20.3-21.1,39.3
			c0,4.7,0.9,9,2.7,13c1.6,3.6,3.9,6.8,6.8,9.7c7.7,7.5,18.2,10.7,25.2,10.5c2.9-0.1,5.5-0.3,7.9-0.8c1.8,9.5,2.9,16.5,3,21.8
			c0,6.5-1.6,10.4-5.5,13.1c-2.4,1.7-5.2,2.7-8.3,2.8c-2.6,0.1-4.8-0.3-6.2-0.8h0c0,0-0.3-0.1-0.3-0.3c0-0.2,0.3-0.2,0.3-0.2h0
			c1.9-0.4,5.4-1.7,7.8-4.9c1.8-2.5,2.6-7.1,0.8-11c-1.1-2.4-3.6-5.3-9.2-5.7c-2.5-0.2-4.7,0.3-6.7,1.5c-1.8,1.1-3.3,2.7-4.3,4.7
			c-2.4,4.7-2,10.3,1.1,14.2c2.9,3.6,7.5,5.9,12.9,6.5c0.8,0.1,1.7,0.1,2.5,0.1c4.4,0,8.8-1.2,12.3-3.4c3.6-2.5,5.7-6.5,6.4-12.1
			c0.6-4.6,0.2-10.5-1.2-18.5c-0.4-2.1-0.9-5.1-1.5-8.8c5.7-1.9,9.8-5.4,13.6-11.3C333.8,646,334.7,639.9,333.3,633.7 M299.4,659.6
			c-4.6-1.2-9-3.7-12.7-7.2c-1.3-1.2-3.2-3.4-4.6-6.7c-1.4-3.1-2-6.5-2-10.1c0.1-4.7,1.4-9.4,3.9-14.2c2.9-5.5,7.4-11,13.4-16.3
			c1.4-1.3,2.8-2.5,4.1-3.8c0.8,4.2,1.6,8.9,2.5,13.7c-3.8,1.3-8.5,4.4-11.6,10c-3.5,6.5-3.4,12-2.6,15.4c0.9,4.4,3.4,8.2,6.9,10.2
			c0.9,0.6,5,2.7,6.8,2.1c0.4-0.1,0.6-0.3,0.8-0.7c0.5-1.2-0.5-1.8-2.1-2.7c-0.6-0.4-1.3-0.8-2-1.3c-3.3-2.5-4.7-6.9-3.7-11.2
			c0.6-2.4,1.8-4.5,3.7-6.2c1.7-1.5,3.7-2.6,6-3.3c2,11.2,4.1,22.2,5.7,30.5c0.1,0.7,0.3,1.3,0.4,2
			C307.9,660.8,303.5,660.8,299.4,659.6 M310.6,626.7c10.3-0.5,14.5,6.9,15.4,11.7c0.5,2.5,0.5,6.9-1.1,11.1
			c-1.2,3.2-3.6,7.2-8.7,9.2c-0.1-0.4-0.1-0.8-0.2-1.3C314.5,648.8,312.5,637.9,310.6,626.7 M303.3,556.3c1.8-5.7,4.5-8.9,6.5-10.6
			c1.7-1.5,3.4-2.2,4.3-2.2c0.1,0,0.3,0,0.4,0c0.5,0.1,1,0.7,1.4,1.6c2.3,4.3,1.6,10.9,0.2,15.3c-1.6,5.4-4.5,10.9-13.2,20.5
			c-0.2-1.1-0.3-2.1-0.5-3.1C301.1,569.6,301.5,562.4,303.3,556.3"/>
		<path class="st1" d="M333.3,196.2c-1.2-5.4-3.8-9.2-4.6-10.2c-3.2-4.2-7.1-7.1-11.8-8.4c-3.1-0.9-6.1-1-8.5-0.8
			c-1-6-2-11.8-2.9-17.2c5.4-6.1,9-11.9,11.3-16.1c3.4-6.5,4.6-11.1,4.6-11.3c1.7-5.2,2.1-12.8,1-21c-1-7.5-3.1-14.1-5.4-17.4
			c-1-1.4-2.1-2.1-3.1-2.1c-1.2,0-3.7,1.2-6.6,4c-2.3,2.2-5.5,6-8.1,12c-3,7-3.2,16.4-2.8,23.1c0.4,7.2,1.5,12.9,1.5,12.9
			c0,0.1,0.3,1.6,0.7,4.1c-0.2,0.2-0.5,0.4-0.7,0.7c-1,1-2.2,2.1-3.6,3.5c-0.9,0.9-1.8,1.8-2.8,2.7c-8.4,8.1-21.1,20.3-21.1,39.3
			c0,4.7,0.9,9,2.7,13c1.6,3.6,3.9,6.8,6.8,9.7c7.7,7.5,18.2,10.7,25.2,10.5c2.9-0.1,5.5-0.3,7.9-0.8c1.8,9.5,2.9,16.5,3,21.8
			c0,6.5-1.6,10.4-5.5,13.1c-2.4,1.7-5.2,2.7-8.3,2.8c-2.6,0.1-4.8-0.3-6.2-0.8h0c0,0-0.3-0.1-0.3-0.3c0-0.2,0.3-0.2,0.3-0.2h0
			c1.9-0.4,5.4-1.7,7.8-4.9c1.8-2.5,2.6-7.1,0.8-11c-1.1-2.4-3.6-5.3-9.2-5.7c-2.5-0.2-4.7,0.3-6.7,1.5c-1.8,1.1-3.3,2.7-4.3,4.7
			c-2.4,4.7-2,10.3,1.1,14.2c2.9,3.6,7.5,5.9,12.9,6.5c0.8,0.1,1.7,0.1,2.5,0.1c4.4,0,8.8-1.2,12.3-3.4c3.6-2.5,5.7-6.5,6.4-12.1
			c0.6-4.6,0.2-10.5-1.2-18.5c-0.4-2.1-0.9-5.1-1.5-8.8c5.7-1.9,9.8-5.4,13.6-11.3C333.8,208.5,334.7,202.5,333.3,196.2
			 M299.4,222.2c-4.6-1.2-9-3.7-12.7-7.2c-1.3-1.2-3.2-3.4-4.6-6.7c-1.4-3.1-2-6.5-2-10.1c0.1-4.7,1.4-9.4,3.9-14.2
			c2.9-5.5,7.4-11,13.4-16.3c1.4-1.3,2.8-2.5,4.1-3.8c0.8,4.2,1.6,8.9,2.5,13.7c-3.8,1.3-8.5,4.4-11.6,10c-3.5,6.5-3.4,12-2.6,15.4
			c0.9,4.4,3.4,8.2,6.9,10.2c0.9,0.6,5,2.7,6.8,2.1c0.4-0.1,0.6-0.3,0.8-0.7c0.5-1.2-0.5-1.8-2.1-2.7c-0.6-0.4-1.3-0.8-2-1.3
			c-3.3-2.5-4.7-6.9-3.7-11.2c0.6-2.4,1.8-4.5,3.7-6.2c1.7-1.5,3.7-2.6,6-3.3c2,11.2,4.1,22.2,5.7,30.5c0.1,0.7,0.3,1.3,0.4,2
			C307.9,223.4,303.5,223.3,299.4,222.2 M310.6,189.3c10.3-0.5,14.5,6.9,15.4,11.7c0.5,2.5,0.5,6.9-1.1,11.1
			c-1.2,3.2-3.6,7.2-8.7,9.2c-0.1-0.4-0.1-0.8-0.2-1.3C314.5,211.4,312.5,200.5,310.6,189.3 M303.3,118.9c1.8-5.7,4.5-8.9,6.5-10.6
			c1.7-1.5,3.4-2.2,4.3-2.2c0.1,0,0.3,0,0.4,0c0.5,0.1,1,0.7,1.4,1.6c2.3,4.3,1.6,10.9,0.2,15.3c-1.6,5.4-4.5,10.9-13.2,20.5
			c-0.2-1.1-0.3-2.1-0.5-3.1C301.1,132.1,301.5,124.9,303.3,118.9"/>
		<path class="st1" d="M393.4,832.6c-2.5,1.6-4.3,4.5-4.3,7.6c0,0.4,0,0.8,0.1,1.2c0.5,4.1,3.8,7.2,7.8,7.7h1.1c5,0,8.9-4,8.9-8.9
			v-0.6c0-0.4-0.1-1.1-0.2-1.5c-0.9-4.3-4.8-13.4-21.6-13.4c-21.6,0-24.1,18-24.1,24.4c0,11.8,1.5,26.6,26.3,26.6
			c9.8,0,17.5-5.8,17.9-16.4c0-0.5-0.3-0.8-0.8-0.8h-1.3c-0.4,0-0.8,0.4-0.8,0.8c-0.4,8.2-6.3,13.2-15,13.2
			c-8.6,0-12.8-4.7-12.8-13.4v-18.9c0-5.6,2.2-11.9,11-11.9c4.7,0,6.7,1.7,7.8,3.4C393.7,832.1,393.7,832.4,393.4,832.6"/>
		<path class="st1" d="M393.4,596.9c-2.5,1.6-4.3,4.5-4.3,7.6c0,0.4,0,0.8,0.1,1.2c0.5,4.1,3.8,7.2,7.8,7.7h1.1c5,0,8.9-4,8.9-8.9
			V604c0-0.4-0.1-1.1-0.2-1.5c-0.9-4.3-4.8-13.4-21.6-13.4c-21.6,0-24.1,18-24.1,24.4c0,11.8,1.5,26.6,26.3,26.6
			c9.8,0,17.5-5.8,17.9-16.4c0-0.5-0.3-0.8-0.8-0.8h-1.3c-0.4,0-0.8,0.4-0.8,0.8c-0.4,8.2-6.3,13.2-15,13.2
			c-8.6,0-12.8-4.7-12.8-13.4v-18.9c0-5.6,2.2-11.9,11-11.9c4.7,0,6.7,1.7,7.8,3.4C393.7,596.4,393.7,596.7,393.4,596.9"/>
		<path class="st1" d="M393.4,159.5c-2.5,1.6-4.3,4.5-4.3,7.6c0,0.4,0,0.8,0.1,1.2c0.5,4.1,3.8,7.2,7.8,7.7h1.1c5,0,8.9-4,8.9-8.9
			v-0.6c0-0.4-0.1-1.1-0.2-1.5c-0.9-4.3-4.8-13.4-21.6-13.4c-21.6,0-24.1,18-24.1,24.4c0,11.8,1.5,26.6,26.3,26.6
			c9.8,0,17.5-5.8,17.9-16.4c0-0.5-0.3-0.8-0.8-0.8h-1.3c-0.4,0-0.8,0.4-0.8,0.8c-0.4,8.2-6.3,13.2-15,13.2
			c-8.6,0-12.8-4.7-12.8-13.4v-18.9c0-5.6,2.2-11.9,11-11.9c4.7,0,6.7,1.7,7.8,3.4C393.7,159,393.7,159.3,393.4,159.5"/>
		<path class="st1" d="M2483.3,867.1l-0.2-0.3c-0.1-0.1-0.3-0.3-0.6-0.7l-11.4-14.1c-0.3-0.3-0.2-1.1,0-1.5l10.1-15.3
			c0.1-0.2,0.2-0.5,0.2-0.7v-0.9c0-0.3-0.1-0.6-0.3-0.8l-16.1-21.7c0,0-0.8-1.2-1.8-0.3c-1,0.8-0.2,2.1-0.2,2.1l7.5,10.3
			c0.4,0.6,0.4,1.8,0,2.4l-10,15.3c-0.1,0.2-0.2,0.6-0.2,0.8v0.9c0,0.3,0.1,0.6,0.3,0.8l11.1,13.8c-0.4-0.1-1.3-0.3-2.5-0.3
			c-1.7,0-3.9,0.4-5.7,2c-2.2,2-3.4,4.8-3.4,7.2c0,1.4,0.3,2.8,1.1,3.9c2.1,3.2,9.5,12.6,9.5,12.6s0.9,1.1,1.8,0.4
			c0.9-0.7,0.7-1.6,0.4-2.1c-0.3-0.5-3.5-6.3-3.5-6.3s-0.7-1.4-0.7-3.2c0-1.3,0.4-2.9,1.7-4.2c1.2-1.2,2.6-1.6,3.9-1.6
			s2.4,0.4,3.2,0.9l3.9,2.5c0,0,1.2,0.6,1.8-0.3C2483.8,868,2483.6,867.6,2483.3,867.1"/>
		<path class="st1" d="M2483.3,631.5l-0.2-0.3c-0.1-0.1-0.3-0.3-0.6-0.7l-11.4-14.1c-0.3-0.3-0.2-1.1,0-1.5l10.1-15.3
			c0.1-0.2,0.2-0.5,0.2-0.7V598c0-0.3-0.1-0.6-0.3-0.8l-16.1-21.7c0,0-0.8-1.2-1.8-0.3c-1,0.8-0.2,2.1-0.2,2.1l7.5,10.3
			c0.4,0.6,0.4,1.8,0,2.4l-10,15.3c-0.1,0.2-0.2,0.6-0.2,0.8v0.9c0,0.3,0.1,0.6,0.3,0.8l11.1,13.8c-0.4-0.1-1.3-0.3-2.5-0.3
			c-1.7,0-3.9,0.4-5.7,2c-2.2,2-3.4,4.8-3.4,7.2c0,1.4,0.3,2.8,1.1,3.9c2.1,3.2,9.5,12.6,9.5,12.6s0.9,1.1,1.8,0.4
			c0.9-0.7,0.7-1.6,0.4-2.1c-0.3-0.5-3.5-6.3-3.5-6.3s-0.7-1.4-0.7-3.2c0-1.3,0.4-2.9,1.7-4.2c1.2-1.2,2.6-1.6,3.9-1.6
			s2.4,0.4,3.2,0.9l3.9,2.5c0,0,1.2,0.6,1.8-0.3C2483.8,632.3,2483.6,631.9,2483.3,631.5"/>
		<path class="st1" d="M2483.3,194l-0.2-0.3c-0.1-0.1-0.3-0.3-0.6-0.7l-11.4-14.1c-0.3-0.3-0.2-1.1,0-1.5l10.1-15.3
			c0.1-0.2,0.2-0.5,0.2-0.7v-0.9c0-0.3-0.1-0.6-0.3-0.8l-16.1-21.7c0,0-0.8-1.2-1.8-0.3c-1,0.8-0.2,2.1-0.2,2.1l7.5,10.3
			c0.4,0.6,0.4,1.8,0,2.4l-10,15.3c-0.1,0.2-0.2,0.6-0.2,0.8v0.9c0,0.3,0.1,0.6,0.3,0.8l11.1,13.8c-0.4-0.1-1.3-0.3-2.5-0.3
			c-1.7,0-3.9,0.4-5.7,2c-2.2,2-3.4,4.8-3.4,7.2c0,1.4,0.3,2.8,1.1,3.9c2.1,3.2,9.5,12.6,9.5,12.6s0.9,1.1,1.8,0.4
			c0.9-0.7,0.7-1.6,0.4-2.1s-3.5-6.3-3.5-6.3s-0.7-1.4-0.7-3.2c0-1.3,0.4-2.9,1.7-4.2c1.2-1.2,2.6-1.6,3.9-1.6s2.4,0.4,3.2,0.9
			l3.9,2.5c0,0,1.2,0.6,1.8-0.3C2483.8,194.9,2483.6,194.5,2483.3,194"/>
		<path class="st1" d="M536.4,294.5c0.1,0,0.2,0,0.2,0c0.1,0,0.2,0,0.5,0c0.1,0,0.4,0,0.8,0.1c0.2,0,0.8,0,1.6,0.1
			c1.8,0.1,3.6,0.2,5.6,0.2c1.9,0,3.5-0.1,5.7-0.2c0.2,7.3,0.4,12,0.5,13c-1.1-0.6-3.5-1-5.5-1c-5.5,0-9.5,3-9.5,7.1
			c0,4.3,3.7,7.1,9.5,7.1c4.1,0,7.1-1.5,8.3-4.2c0.4-0.9,0.6-2.1,0.6-3.4c0-0.5,0-0.6-0.1-1.3c0.2,0.2,0.2,0.2,0.5,0.3
			c0.3,0.2,0.3,0.2,0.5,0.3c3.5,2,5.5,3.5,7.1,5.2l1.6-3.5c-0.6-0.4-0.7-0.5-1.2-0.9c-3.3-2.5-4.7-3.2-8.4-4.9
			c-0.4-6.7-0.5-9.2-0.5-14.2c2.6-0.3,4-0.5,5.3-0.8c3.4-0.7,3.4-0.7,3.5-0.7l-0.1-3.4c-1.9,0.8-4.8,1.4-8.7,1.9c0-1.1,0-1.9,0-2.5
			c0-4.2,0.1-6.5,0.3-7.8h-3.8c0.1,0.5,0.2,1.2,0.2,2c0,3.8,0,3.8,0,8.5c-2,0.1-3.4,0.1-5.3,0.1c-4.4,0-6.6-0.2-9-0.8L536.4,294.5
			 M551.5,310.8c0,0,0.1,1.2,0.1,1.5c0,2-0.3,3.2-1,3.9c-1,1.1-2.9,1.8-5.1,1.8c-3.5,0-5.8-1.6-5.8-4c0-2.5,2.5-4.2,6.5-4.2
			C548.1,309.8,549.4,310,551.5,310.8 M527.6,281.1c0,0.7-0.1,1-0.5,3.2c-2,8.7-2.6,13.9-2.6,20.5c0,5,0.5,10.2,1.4,14.9
			c0.2,1.1,0.2,1.4,0.3,1.8l3.5-0.3c-0.1-0.7-0.1-0.8-0.1-1c0-3,2-9.3,4.3-14.2l-2.5-1.2c-0.1,0.4-0.2,0.5-0.4,1
			c-1.7,4.1-2.1,5-3,8.8l-0.2,0c0-0.5,0-0.5,0-1c0-0.9,0-1,0-1.4c-0.1-2.3-0.2-5.2-0.2-7c0-8.2,1.7-18.5,3.8-23.5L527.6,281.1"/>
		<path class="st1" d="M526.4,343.6c0.4,0,0.6,0,0.8,0c0.1,0,0.5,0,0.9,0c4,0.2,6.2,0.2,6.8,0.2h2c-0.2,3.7-0.2,3.9-0.3,7.5
			c-7.2,3.2-11.6,8.8-11.6,14.9c0,4.5,2.7,7.6,6.5,7.6c3.5,0,7.3-2,11.2-6c3.9-4,6.6-8.2,9.5-15c5.4,1.4,8.2,4.4,8.2,8.7
			c0,4.5-3.2,8.1-8.6,10c-2.4,0.8-4.5,1.2-7.5,1.3c0.9,1.4,1.2,1.9,1.6,3.4c4.5-0.6,7.3-1.4,10.2-2.9c5.1-2.7,7.8-6.6,7.8-11.5
			c0-5.8-3.8-10.1-10.8-11.7c0.8-2.3,1.4-3.7,1.5-4l-3.5-1c-0.2,1.5-0.6,3-1.2,4.5c-1.2-0.1-1.9-0.2-2.9-0.2c-2.7,0-4.8,0.3-7.4,1
			c0.1-2.4,0.1-2.4,0.4-6.7c4.6-0.2,12.2-1,17.7-2c0.9-0.2,1.1-0.2,1.8-0.2l-0.2-3.5c-3.8,1.3-10.9,2.4-19,2.8c0.3-3.9,0.6-5.6,1-7
			l-3.9-0.2c0,0.3,0,0.6,0,0.8c0,0.3-0.1,2.3-0.1,2.8c-0.2,2.5-0.2,2.5-0.2,3.8c-0.9,0-1.1,0-1.2,0c-4.6,0-7.2-0.2-9.4-0.8
			L526.4,343.6 M536.5,354.6c0,6,0.3,9.7,1,13.5c-2.2,1.8-3.9,2.5-5.8,2.5c-2.2,0-3.6-1.8-3.6-4.5c0-2.5,1.1-5.2,3.1-7.5
			C532.6,357.1,534.1,355.9,536.5,354.6 M540.2,366c0-0.2,0-0.5,0-0.6c0-0.3,0-0.4-0.1-0.7c-0.4-4.2-0.5-5-0.5-11.5
			c2.3-0.8,4.7-1.2,7-1.2c0.5,0,0.8,0,2.4,0.1c-2.3,5.2-4.4,8.8-7.7,12.5c-0.4,0.4-0.5,0.5-1,1.3L540.2,366"/>
		<path class="st1" d="M524.7,392.7c0.1,0.9,0.1,1,0.1,3c0.2,12.3,1,18.7,2.7,23.4c1.7,4.8,4.3,7.6,7.1,7.6c3.5,0,5.8-3.4,8.3-12.1
			c-1.4-1.1-1.9-1.5-3-2.8c-0.7,3.4-1.5,6-2.6,8.5c-0.8,1.7-1.6,2.5-2.5,2.5c-1.9,0-4-3.5-5.1-8.5c-0.8-3.2-1.3-10-1.3-15.5
			c0-2.8,0.1-4.4,0.4-6L524.7,392.7 M550,397c5.8,6.8,9.5,15.3,10.4,24.6l3.5-1.4c-0.9-5.6-1.9-9.2-3.8-13.4
			c-1.9-4.2-3.9-7.5-7.2-11.4L550,397"/>
		<path class="st1" d="M525,453c2.5-0.5,6.9-0.9,17.2-1.6c5.5-0.4,8-0.6,11-1.1c-1.9,0.9-3.2,1.6-4.8,2.7c-6,4-9.3,9.5-9.3,15.3
			c0,4.1,2,7.8,5.5,10.2c2.8,2,5.8,3,10.8,3.9c0.8,0.1,1,0.2,1.5,0.3l0.7-4c-0.2,0-0.4,0-0.5,0c-1.9,0-5-0.7-7.5-1.6
			c-4.5-1.7-7-5-7-9.2c0-4.1,2.2-8.2,6.2-11.5c2.8-2.3,6.2-4.2,9.6-5c1.9-0.5,3.6-0.7,5.6-0.7l-0.3-3.8c-0.8,0.2-3.1,0.5-6,0.5
			c-6.4,0.3-22.4,1.2-28.4,1.7c-1.5,0.1-2.2,0.2-2.9,0.2c-0.3,0-0.8,0-1.8,0L525,453"/>
		<path class="st1" d="M678.3,286.8c1.1-0.1,1.6-0.2,2.7-0.2c7.6-0.2,13.6-0.6,15.2-0.9c0.3,0,0.3,0,0.4,0l0.1,0.1l-0.2,0.2
			c-0.1,0.1-0.2,0.2-0.2,0.2c-0.4,0.4-0.4,0.4-0.7,0.7c-3.4,3.4-11.3,10.4-16.7,14.6c-3.4,2.8-5.2,4-7,5.1l2.2,3.2
			c5.8-5.3,13.7-8.5,21-8.5c6.8,0,10.8,2.8,10.8,7.6c0,4.2-2.8,7.3-8,8.8c-0.7-2.2-1.2-3.4-2.3-4.8c-2-2.6-4.9-4.1-8.2-4.1
			c-4.2,0-7.2,2.5-7.2,5.8c0,4.6,4,7.2,11.1,7.2c11.1,0,18.3-5.2,18.3-13c0-6.4-5.3-10.5-13.7-10.5c-4.4,0-8.5,1-12.2,3.1l-0.1-0.2
			c3.5-2.2,9.5-7.5,16.5-14.2c1.6-1.5,1.8-1.8,2.5-2.1l-2.1-2.8c-0.7,0.3-1.1,0.5-2.4,0.5c-4.5,0.3-11.1,0.7-15.3,0.7
			c-2.4,0-3.3-0.1-4.7-0.3L678.3,286.8 M694.7,318.5c-1.8,0.3-2.4,0.3-3.7,0.3c-2.2,0-4.3-0.4-5.6-1.1c-1.4-0.8-2-1.8-2-3
			c0-1.9,1.5-3.1,4-3.1C691.1,311.5,693.6,313.9,694.7,318.5"/>
		<path class="st1" d="M673.7,345.1c0.9-0.1,1-0.1,3.1-0.2c5.7-0.1,9.7-0.3,13.5-0.9c1.2,2.7,1.6,3.2,2.9,5.7
			c-4.1,0.8-10.5,1.2-15.8,1.2c-2,0-2.9-0.1-4-0.2l0.1,3.3c0.9-0.1,1.1-0.1,3.5-0.2c9.4-0.3,12.6-0.5,17.5-1.4c1.8,3,3.8,6,5.4,7.7
			c-3.3-1-6-1.4-10.1-1.4c-9.5,0-15.2,3.2-15.2,8.6c0,2.6,1.4,4.9,3.8,6.2c2.6,1.5,5.7,2.1,10.3,2.1c4.4,0,8.7-0.6,12.8-1.8
			c2.3-0.7,2.3-0.7,3-0.8l-0.7-3.9c-3,1.8-9.6,3.3-14.8,3.3c-6.9,0-10.7-1.8-10.7-5.1c0-3.5,4.7-5.7,11.9-5.7c2.2,0,4.8,0.2,6.5,0.5
			c2.5,0.4,3.6,0.8,5.5,1.9l3-2.1c-3.9-4.5-4.4-5.2-7.4-10c1.9-0.3,4.4-0.9,7.9-1.8c1.6-0.5,1.8-0.5,2.7-0.6l-0.4-3.4
			c-2,1-4.9,1.8-11.5,3.1c-0.8-1.4-2.1-4-2.8-5.7c2.8-0.5,8.1-1.6,12.6-2.8l-0.3-3.2c-2.8,1.2-7.5,2.3-13.4,3.3
			c-1.2-2.7-2.2-5.2-2.6-7l-3.8,0.6c0.5,0.7,1.5,3,3,6.9c-4.6,0.5-7.7,0.7-11.9,0.7c-1.7,0-2.5-0.1-3.8-0.2L673.7,345.1"/>
		<path class="st1" d="M709.1,424.2c-0.7-0.4-0.9-0.6-1.7-1.2c-5.2-3.8-9.6-6.1-14-7.3c-0.2-4.9-0.2-4.9-0.3-7.7
			c3.7-0.2,7.7-0.6,11.1-1.2c1.8-0.2,2.2-0.3,2.9-0.3l-0.2-3.5c-2.8,1-7,1.5-13.8,2c0-2.6,0-2.6-0.1-6.8c5.5-0.3,6.9-0.5,11.6-1.2
			c2.6-0.4,2.6-0.4,3.5-0.4l-0.2-3.4c-2.8,0.9-7.9,1.6-14.8,2.1c0-3.6,0.1-6,0.3-7.1h-3.8c0.2,1.1,0.2,1.1,0.2,7.2
			c-1.7,0-3.4,0-4.4,0c-5.5,0-10.6-0.4-12.8-1l0,3.4c0.3,0,0.5,0,0.7,0c0.2,0,0.5,0,0.9,0c4.5,0.3,8.5,0.5,12.2,0.5c1.2,0,2,0,3.4,0
			l0.1,6.8c-1.4,0-3.2,0-4.5,0c-5,0-9.2-0.3-11.5-0.8l0,3.3c0.2,0,0.4,0,0.4,0c0.3,0,0.7,0,1.2,0.1c3.1,0.2,5.5,0.3,8.5,0.3
			c1.6,0,4.1,0,5.9-0.1c0,1.3,0,2.2,0.1,2.9c0,1.5,0,2.5,0.1,3c0,0.3,0,0.5,0,0.5c0,0.5,0,0.5,0,0.6c-2.1-0.4-2.8-0.4-4.5-0.4
			c-2.2,0-3.7,0.2-5.2,0.5c-4.4,1-7,3.6-7,6.9c0,2,1,4,2.7,5.2c1.7,1.3,4.5,2,7.8,2c4,0,7-1.1,8.5-3.2c0.9-1.2,1.2-2.8,1.2-5.5
			c0-0.6,0-0.6-0.1-1.8c1.3,0.5,2.5,1,3.3,1.5c4.2,2.2,7.9,4.8,10.2,7.2L709.1,424.2 M690.3,420.1c0,2.4-0.3,3.8-1,4.5
			c-1,1.1-2.9,1.7-5.5,1.7c-4.4,0-6.9-1.5-6.9-4.2c0-2.6,3.2-4.4,8.2-4.4c2.2,0,3.2,0.1,5.1,0.5L690.3,420.1"/>
		<path class="st1" d="M684.6,442c-0.3,1.5-1.4,4.7-6.9,19.1c-7.2,19.2-7.2,19.2-7.8,20.6l3.8,1.2c0.7-3,3-8.7,4.6-11.5
			c2.8-4.8,6-7.4,8.9-7.4c1.5,0,2.4,0.6,2.9,1.9c0.3,0.8,0.4,1.8,0.4,3.8v2.8c0,2.8,0.2,4.4,0.5,5.4c1,2.8,3.6,4.5,7.3,4.5
			c4.1,0,7.7-2,10-5.5c1.5-2.3,2.5-4.8,3.5-8.8c-1.4-0.8-2-1.3-3.3-2.5c-0.3,2.7-0.8,4.8-1.9,7.1c-1.9,4.2-4.5,6.2-8,6.2
			c-1.7,0-3.2-0.6-3.8-1.5c-0.6-0.9-0.8-2.2-0.8-4.8v-3.4c0-2.8-0.2-4.4-0.8-5.6c-0.9-1.8-2.9-3-5-3c-3.5,0-6.1,1.8-9.4,6.5
			l-0.2-0.1c0.2-0.5,0.2-0.5,0.5-0.9c0.2-0.5,0.5-0.9,0.5-1.1c2-4.3,2-4.3,3.6-8.2c4.9-12.5,4.9-12.5,5.5-13.8L684.6,442"/>
		<path class="st1" d="M823.8,287.9c0.7,0,0.8,0,1.7,0.1c3.2,0.4,7.5,0.7,11,0.7c2.9,0,4.6-0.2,7.6-0.7c-0.5,0.3-0.6,0.3-0.9,0.5
			c-0.6,0.3-0.7,0.4-1.2,0.7c-2.2,1.2-3.5,2-6.7,4.2l2.5,2c4.9-3.5,9.5-6.3,12.6-7.6l-0.2-3.3c-2.8,0.7-6.8,1-12.7,1
			c-5.7,0-9.7-0.3-13.3-1.2L823.8,287.9 M826.8,300.7c-3.8,3.2-5.8,6.4-5.8,9.7c0,3.4,2,6,5.7,7.5c2.5,1,6.7,1.5,11.5,1.5
			c4.4,0,9.2-0.4,13.5-1.2c0.8-0.1,1.1-0.2,1.7-0.2L853,314c-2.8,1.2-8.8,1.9-15,1.9c-3.9,0-7.2-0.4-9.1-1c-2.8-1-4.2-2.6-4.2-4.9
			c0-2.3,1.5-4.7,4.8-7.3L826.8,300.7"/>
		<path class="st1" d="M821.7,335.6c0.1,1,0.2,1.6,0.2,2.6c0,0.9,0,1.8-0.1,3.2c-0.4,15.8-0.4,17-0.4,20.4c0,5.2,0.7,7.9,2.8,10.2
			c2,2.3,5.1,3.5,9.4,3.5c5.8,0,10.6-2,14.1-6.2c2.2-2.6,3.7-5.5,5.6-11.3c-1.5-0.8-2.2-1.3-3.6-2.5c-0.7,3.5-1.3,5.5-2.5,7.8
			c-2.8,5.7-7.4,8.7-13.4,8.7c-2.6,0-4.8-0.7-6.2-2c-1.5-1.3-2.2-3-2.3-6c-0.1-1.1-0.1-2.4-0.1-3c0-2.2,0.2-9,0.4-15
			c0.1-6.3,0.3-8.8,0.6-10.5L821.7,335.6 M837.5,338c1.5,1.6,3.9,5.3,5.1,8l2.5-1.5c-1.5-3-2.9-5-5.2-7.8L837.5,338 M843,335.1
			c1.9,2.3,4.1,5.5,5.1,7.8l2.6-1.4c-1.7-3.2-3-5-5.2-7.8L843,335.1"/>
		<path class="st1" d="M823.8,395.8c0.7,0,0.8,0,1.7,0.2c3.2,0.4,7.5,0.6,11,0.6c2.9,0,4.6-0.1,7.6-0.6c-0.5,0.3-0.6,0.3-0.9,0.5
			c-0.6,0.3-0.7,0.3-1.2,0.6c-2.2,1.2-3.5,2-6.7,4.2l2.5,2c4.9-3.5,9.5-6.3,12.6-7.6l-0.2-3.3c-2.8,0.7-6.8,1.1-12.7,1.1
			c-5.7,0-9.7-0.4-13.3-1.2L823.8,395.8 M826.8,408.6c-3.8,3.2-5.8,6.4-5.8,9.7c0,3.5,2,6,5.7,7.5c2.5,1,6.7,1.5,11.5,1.5
			c4.4,0,9.2-0.4,13.5-1.1c0.8-0.2,1.1-0.2,1.7-0.2l-0.4-4.1c-2.8,1.2-8.8,1.9-15,1.9c-3.9,0-7.2-0.4-9.1-1c-2.8-1-4.2-2.6-4.2-4.9
			c0-2.3,1.5-4.6,4.8-7.3L826.8,408.6"/>
		<path class="st1" d="M798.6,443.4c0.1,1,0.2,1.6,0.2,2.7c0,0.8,0,1.8,0,3.2c-0.4,15.8-0.5,17-0.5,20.3c0,5.2,0.7,7.9,2.8,10.2
			c2,2.3,5.2,3.5,9.4,3.5c5.8,0,10.5-2,14.1-6.2c2.2-2.6,3.7-5.5,5.6-11.3c-1.5-0.8-2.2-1.3-3.6-2.5c-0.7,3.5-1.3,5.5-2.5,7.8
			c-2.8,5.7-7.4,8.7-13.4,8.7c-2.6,0-4.9-0.7-6.2-2c-1.5-1.3-2.2-3-2.4-6c0-1.1-0.1-2.4-0.1-3c0-2.2,0.2-9,0.3-15
			c0.2-6.3,0.4-8.8,0.7-10.5L798.6,443.4 M814.4,445.8c1.5,1.5,3.8,5.3,5.1,7.9l2.5-1.5c-1.5-2.9-2.9-5-5.1-7.8L814.4,445.8
			 M820,443c2,2.3,4,5.5,5.1,7.9l2.6-1.5c-1.7-3.2-3-5-5.2-7.8L820,443 M859.8,450.3c0.1,0.6,0.1,0.9,0.2,1.6l0.1,5.5
			c0,5,0.1,6.5,0.3,9.9c0.2,4.2,0.2,4.2,0.2,4.4c0,0.3,0,0.3,0.1,0.6c-0.6-0.2-2.3-0.5-3.8-0.5c-2.1,0-4.3,0.4-6,1.1
			c-2.3,0.9-3.8,3-3.8,5.4c0,1.6,0.7,3,1.8,4.1c1.4,1.2,3.7,1.9,6.7,1.9c3.4,0,6-0.9,7.2-2.5c0.7-0.8,1.2-2.7,1.2-4
			c0-0.7-0.1-1.4-0.1-1.8c0.3,0.2,0.6,0.3,0.8,0.4c3.6,1.6,7.8,4.4,9.7,6.5l1.9-3.1c-0.5-0.3-0.8-0.4-1.2-0.8
			c-3.1-2.2-3.5-2.5-4.8-3.2c-2.2-1.2-4.2-2.2-6.4-2.9c-0.3-4.3-0.4-7-0.5-10.3c2.9,0,5.3-0.2,9.2-0.8c2.2-0.3,2.2-0.3,2.7-0.3
			l-0.3-3.2c-2.3,0.8-7.2,1.5-11.7,1.5c-0.1-2.2-0.1-3.3-0.1-3.5c0-3.5,0.1-4.8,0.3-5.8L859.8,450.3 M860.7,475c0.1,0,0.2,1.4,0.2,2
			c0,1.3-0.2,2.2-0.7,2.9c-0.8,1-2.3,1.5-4.8,1.5c-3.3,0-5.1-1.1-5.1-3.2c0-2.3,2.3-3.7,6.3-3.7C858.1,474.5,859.1,474.6,860.7,475"
			/>
		<path class="st1" d="M973.4,284.3c6.7,1.9,12.8,2.9,21,3.3l0.5-3.6c-8.2-0.1-15.4-1.2-20.3-3.1L973.4,284.3 M968.2,300.6
			c3.9-1.6,13.9-3.3,19.1-3.3c2.6,0,4.9,0.4,6.2,1.1c2,1.1,3.2,3.1,3.2,5.6c0,2.3-0.8,4.5-2.6,6.8c-1.2,1.5-2.3,2.5-4.3,3.5
			c-4.2,2.4-8.8,3.7-14.1,4c0.8,1.2,1,1.7,1.6,3.7c7.5-1.4,10.7-2.5,14.5-4.8c5.6-3.4,8.6-8.2,8.6-13.5c0-3.5-1.5-6.2-4.2-8
			c-2.1-1.3-4.9-1.9-8.6-1.9c-3.9,0-8.6,0.5-15.2,1.8c-3.9,0.8-3.9,0.8-5,0.8L968.2,300.6"/>
		<path class="st1" d="M977.5,334.2c-0.3,1.5-1.4,4.7-6.8,19.1c-7.2,19.2-7.2,19.2-7.8,20.6l3.8,1.2c0.7-3,3-8.7,4.6-11.5
			c2.8-4.8,6.1-7.4,9-7.4c1.5,0,2.4,0.6,2.8,1.9c0.3,0.8,0.4,1.8,0.4,3.8v2.8c0,2.8,0.2,4.4,0.4,5.4c1,2.8,3.6,4.5,7.3,4.5
			c4.1,0,7.7-2,9.9-5.5c1.6-2.3,2.6-4.8,3.6-8.8c-1.5-0.9-2-1.3-3.3-2.5c-0.3,2.7-0.8,4.8-1.9,7.1c-1.8,4.2-4.4,6.2-8,6.2
			c-1.6,0-3.1-0.6-3.8-1.5c-0.6-0.9-0.8-2.2-0.8-4.8v-3.4c0-2.8-0.2-4.5-0.8-5.6c-0.9-1.8-2.8-3-5-3c-3.6,0-6.1,1.8-9.4,6.5
			l-0.2-0.1c0.2-0.5,0.2-0.6,0.5-0.9c0.2-0.5,0.4-0.9,0.5-1.1c2.1-4.3,2.1-4.3,3.6-8.2c4.9-12.6,4.9-12.6,5.6-13.8L977.5,334.2"/>
		<path class="st1" d="M973.4,392.2c6.7,1.9,12.8,2.8,21,3.3l0.5-3.6c-8.2-0.1-15.4-1.2-20.3-3.1L973.4,392.2 M968.2,408.4
			c3.9-1.6,13.9-3.4,19.1-3.4c2.6,0,4.9,0.4,6.2,1.1c2,1.1,3.2,3.1,3.2,5.6c0,2.3-0.8,4.5-2.6,6.8c-1.2,1.5-2.3,2.5-4.3,3.5
			c-4.2,2.4-8.8,3.7-14.1,4.1c0.8,1.2,1,1.6,1.6,3.6c7.5-1.4,10.7-2.5,14.5-4.8c5.6-3.4,8.6-8.1,8.6-13.5c0-3.5-1.5-6.2-4.2-8
			c-2.1-1.3-4.9-1.9-8.6-1.9c-3.9,0-8.6,0.5-15.2,1.8c-3.9,0.8-3.9,0.8-5,0.8L968.2,408.4"/>
		<path class="st1" d="M973.4,446.1c6.7,1.9,12.8,2.8,21,3.3l0.5-3.6c-8.2-0.1-15.4-1.2-20.3-3.1L973.4,446.1 M968.2,462.3
			c3.9-1.6,13.9-3.4,19.1-3.4c2.6,0,4.9,0.4,6.2,1.1c2,1.1,3.2,3.1,3.2,5.6c0,2.3-0.8,4.5-2.6,6.8c-1.2,1.5-2.3,2.5-4.3,3.5
			c-4.2,2.4-8.8,3.7-14.1,4.1c0.8,1.2,1,1.6,1.6,3.6c7.5-1.4,10.7-2.5,14.5-4.8c5.6-3.4,8.6-8.1,8.6-13.5c0-3.5-1.5-6.2-4.2-8
			c-2.1-1.3-4.9-1.9-8.6-1.9c-3.9,0-8.6,0.5-15.2,1.8c-3.9,0.8-3.9,0.8-5,0.8L968.2,462.3"/>
		<path class="st1" d="M1180.2,287.1c0.8-0.2,2-0.2,3.6-0.2c5.6-0.2,12.1-0.6,14.2-0.9c0.2,0,0.4-0.1,0.7-0.1l0.1,0
			c-0.2,0.2-0.2,0.2-0.4,0.4c-0.2,0.2-0.2,0.2-0.4,0.5c-4.6,4.8-11.4,11.2-16.6,15.8c-3,2.5-4.7,3.8-6.5,4.9l2.5,3.1
			c1-1,2.2-2,3.9-3.2c5-3.5,10.9-5.5,16-5.5c6.2,0,10,2.7,10,7c0,5.2-5.3,8.7-13.1,8.7c-4.3,0-9.2-1.2-12.8-3.1
			c0.2,1.5,0.3,2.3,0.3,3.1c0,0.2,0,0.5,0,0.9c4.6,1.6,8.3,2.3,12,2.3c4.1,0,8-0.8,10.7-2.1c4.1-2,6.5-5.8,6.5-9.9
			c0-6.1-5.1-10-13-10c-4.6,0-7.7,1-12.7,4l-0.2-0.1c4-2.9,6.3-4.9,13.7-12.2c4.6-4.7,4.6-4.7,5.4-5.2l-2.1-2.9
			c-0.6,0.2-1,0.4-2,0.5c-3.5,0.4-9.8,0.7-14.5,0.7c-3,0-4,0-5.5-0.3L1180.2,287.1"/>
		<path class="st1" d="M1195.8,333.9c-1.6,2.6-8.2,8.8-14.7,13.7c-3.7,2.8-3.7,2.8-4.2,3.4c-1,1-1.5,2.1-1.5,3.3
			c0,1.7,0.8,2.8,3.6,5c9.5,7.3,16.2,13.3,19.1,17.3l3.2-3.1c-0.2-0.2-0.5-0.4-0.6-0.5c-0.2-0.1-0.4-0.4-0.8-0.8
			c-6.9-6.5-8.2-7.7-16-13.7c-4.1-3.1-4.5-3.5-4.5-4.4c0-0.7,0.4-1.1,2.2-2.5c5.3-4.1,8.9-7.1,11.5-9.5l3.9-3.8l0.4-0.4
			c0.4-0.3,0.8-0.8,1.3-1.2c0,0,0.2-0.2,0.5-0.4L1195.8,333.9 M1196.9,345.5c1.4,1.6,3.9,5.3,5.1,7.9l2.6-1.5
			c-1.5-2.9-2.9-5-5.2-7.8L1196.9,345.5 M1202.6,342.9c1.9,2.2,4,5.5,5.1,7.8l2.5-1.4c-1.6-3.2-2.9-5-5.2-7.8L1202.6,342.9"/>
		<path class="st1" d="M1154.2,389.5c0.1,1,0.2,1.6,0.2,2.7c0,0.8,0,1.8-0.1,3.2c-0.4,15.8-0.4,17-0.4,20.3c0,5.2,0.7,7.9,2.8,10.2
			c2,2.3,5.2,3.5,9.4,3.5c5.8,0,10.5-2,14.1-6.2c2.2-2.6,3.7-5.5,5.6-11.3c-1.5-0.8-2.2-1.3-3.6-2.5c-0.7,3.5-1.3,5.5-2.4,7.8
			c-2.8,5.7-7.4,8.7-13.4,8.7c-2.6,0-4.8-0.7-6.2-2c-1.5-1.3-2.2-3-2.3-6c-0.1-1.1-0.1-2.4-0.1-3c0-2.2,0.2-9,0.3-15
			c0.2-6.3,0.3-8.8,0.7-10.5L1154.2,389.5 M1170,391.9c1.5,1.5,3.8,5.3,5.1,7.9l2.6-1.5c-1.6-2.9-2.9-5-5.2-7.8L1170,391.9
			 M1175.6,389.1c1.9,2.3,4,5.5,5.1,7.9l2.6-1.5c-1.7-3.2-3-5-5.2-7.8L1175.6,389.1 M1215.4,396.4c0.2,0.6,0.2,0.9,0.2,1.6l0.1,5.5
			c0.1,5,0.1,6.5,0.3,9.9c0.2,4.2,0.2,4.2,0.2,4.4c0,0.3,0,0.3,0,0.6c-0.5-0.2-2.3-0.5-3.8-0.5c-2,0-4.3,0.4-6,1.1
			c-2.3,0.9-3.8,3-3.8,5.4c0,1.6,0.6,3,1.8,4.1c1.3,1.2,3.7,1.9,6.7,1.9c3.4,0,5.9-0.9,7.1-2.5c0.7-0.8,1.2-2.7,1.2-4
			c0-0.7,0-1.4-0.1-1.8c0.3,0.2,0.7,0.3,0.8,0.4c3.6,1.6,7.8,4.4,9.6,6.5l2-3.1c-0.5-0.3-0.8-0.4-1.2-0.8c-3-2.2-3.5-2.5-4.8-3.2
			c-2.2-1.2-4.2-2.2-6.5-2.9c-0.3-4.3-0.4-7-0.5-10.3c2.9,0,5.4-0.2,9.2-0.8c2.2-0.3,2.2-0.3,2.7-0.3l-0.3-3.2
			c-2.3,0.8-7.2,1.5-11.7,1.5c0-2.2,0-3.3,0-3.5c0-3.5,0-4.8,0.3-5.8L1215.4,396.4 M1216.3,421.1c0,0,0.2,1.4,0.2,2
			c0,1.3-0.2,2.2-0.7,2.9c-0.8,1-2.3,1.5-4.8,1.5c-3.3,0-5.2-1.1-5.2-3.2c0-2.3,2.3-3.7,6.3-3.7
			C1213.7,420.6,1214.7,420.7,1216.3,421.1"/>
		<path class="st1" d="M1171.8,458c1.4-0.3,1.8-0.4,2.9-0.6c0.5-0.1,2.8-0.5,7.2-1.2c-1.7,6.5-3.2,10.9-5.5,15.9
			c-1.8,3.8-3.7,7.1-5.2,9l3.4,2c1.6-2.8,2.6-4.8,3.2-6c3.4-6.9,5.7-13.3,7.6-21.2c1.8-0.2,2.5-0.2,3.6-0.2c4.7,0,6.2,1.7,6.2,7
			c0,5.6-0.8,10.7-2.1,13.9c-0.7,1.6-1.6,2.4-2.8,2.4c-1.8,0-4.6-0.8-7.5-2.3c0.2,0.9,0.2,1.2,0.2,2c0,0.7,0,1-0.1,1.8
			c3.3,1.4,5.4,2,7.5,2c2.4,0,3.7-0.7,4.9-2.4c2.1-2.9,3.3-9.5,3.3-17.2c0-4.1-0.7-6.4-2.4-8.1c-1.6-1.5-3.7-2.1-7.2-2.1
			c-1.2,0-1.8,0-3,0.2c0.5-2.4,0.8-4.2,1.1-5.7c0.4-2.9,0.6-3.7,0.9-4.8l-4-0.5c0,0.3,0,0.5,0,0.6c0,2.1-0.7,6.9-1.5,10.6
			c-4,0.6-9.2,1.2-11,1.3L1171.8,458 M1201.3,451.4c4.9,5,8.3,11,10.2,18l3.2-1.9c-2.3-7-5.3-12.2-10.4-17.7L1201.3,451.4"/>
		<path class="st1" d="M1307.4,284.3c6.7,1.9,12.8,2.9,21,3.3l0.5-3.6c-8.2-0.1-15.4-1.2-20.3-3.1L1307.4,284.3 M1302.2,300.6
			c3.9-1.6,13.9-3.3,19.1-3.3c2.6,0,4.9,0.4,6.2,1.1c2,1.1,3.2,3.1,3.2,5.6c0,2.3-0.8,4.5-2.5,6.8c-1.2,1.5-2.3,2.5-4.3,3.5
			c-4.2,2.4-8.8,3.7-14.1,4c0.8,1.2,1,1.7,1.6,3.7c7.4-1.4,10.7-2.5,14.5-4.8c5.5-3.4,8.6-8.2,8.6-13.5c0-3.5-1.5-6.2-4.2-8
			c-2.1-1.3-4.8-1.9-8.6-1.9c-4,0-8.6,0.5-15.2,1.8c-3.9,0.8-3.9,0.8-5.1,0.8L1302.2,300.6"/>
		<path class="st1" d="M1307.4,338.2c6.7,1.9,12.8,2.9,21,3.3l0.5-3.6c-8.2-0.1-15.4-1.2-20.3-3.1L1307.4,338.2 M1302.2,354.5
			c3.9-1.6,13.9-3.3,19.1-3.3c2.6,0,4.9,0.4,6.2,1.1c2,1.1,3.2,3.1,3.2,5.6c0,2.3-0.8,4.5-2.5,6.8c-1.2,1.5-2.3,2.5-4.3,3.5
			c-4.2,2.4-8.8,3.7-14.1,4c0.8,1.2,1,1.7,1.6,3.7c7.4-1.4,10.7-2.5,14.5-4.8c5.5-3.4,8.6-8.2,8.6-13.5c0-3.5-1.5-6.2-4.2-8
			c-2.1-1.3-4.8-1.9-8.6-1.9c-4,0-8.6,0.5-15.2,1.8c-3.9,0.8-3.9,0.8-5.1,0.8L1302.2,354.5"/>
		<path class="st1" d="M1307.4,392.2c6.7,1.9,12.8,2.8,21,3.3l0.5-3.6c-8.2-0.1-15.4-1.2-20.3-3.1L1307.4,392.2 M1302.2,408.4
			c3.9-1.6,13.9-3.4,19.1-3.4c2.6,0,4.9,0.4,6.2,1.1c2,1.1,3.2,3.1,3.2,5.6c0,2.3-0.8,4.5-2.5,6.8c-1.2,1.5-2.3,2.5-4.3,3.5
			c-4.2,2.4-8.8,3.7-14.1,4.1c0.8,1.2,1,1.6,1.6,3.6c7.4-1.4,10.7-2.5,14.5-4.8c5.5-3.4,8.6-8.1,8.6-13.5c0-3.5-1.5-6.2-4.2-8
			c-2.1-1.3-4.8-1.9-8.6-1.9c-4,0-8.6,0.5-15.2,1.8c-3.9,0.8-3.9,0.8-5.1,0.8L1302.2,408.4"/>
		<path class="st1" d="M1327.4,440.9c1.3,2.2,2.3,4.6,3.5,8.3l2.7-0.9c-1.1-3.6-1.9-5.3-3.5-8.2L1327.4,440.9 M1298.8,443.2
			c-0.1,0.7-0.1,0.9-0.1,1.2c-0.1,0.4-0.1,0.7-0.3,2.2c-1.6,9.3-2,13.4-2,19.2c0,5.3,0.6,10.1,1.8,14.8c0.3,1.1,0.3,1.2,0.4,1.8
			l3.4-0.2c0-0.1,0-0.2,0-0.3c0-2.5,2-8.4,5.1-14.9l-2.5-1.1c-2.7,5.6-3.2,7.1-4.2,10.5c0-0.8-0.2-1.8-0.3-2.7
			c-0.2-1.7-0.4-5.4-0.4-8.1c0-6.9,1.4-17,3-21.9L1298.8,443.2 M1333.2,439.3c1.2,1.9,2.6,5.1,3.5,8.2l2.6-0.9
			c-0.8-2.7-2.1-5.5-3.6-8.2L1333.2,439.3 M1307.8,457.4c0.3,0,0.6,0,0.8,0c0.2,0,0.4,0,0.9,0c1.8,0.1,4.7,0.2,6,0.2
			c2.2,0,5.1-0.1,7.3-0.3c0.1,1.4,0.1,2.5,0.1,3.9c0,8-0.8,11.6-3.3,14.9c-1.8,2.3-4.2,4-7.7,5.8c1.2,1,1.8,1.5,2.7,2.7
			c3.8-2.2,6-4,7.8-6.4c2.9-4,3.8-8.2,3.8-17.7c0-1.4,0-2.2-0.1-3.5c1.9-0.2,3.5-0.5,5.5-1c1.4-0.3,1.6-0.4,2.7-0.5l-0.2-3.6
			c-1.4,0.8-4.4,1.6-8,2.1l-0.1-3c-0.1-2.9-0.2-4.2-0.2-5.1c-0.1-0.9-0.1-1.2-0.1-1.5c0-0.6,0.1-0.9,0.2-1.8l-3.8,0.1
			c0.2,1,0.3,3,0.6,11.6c-2.5,0.2-4.3,0.3-6.3,0.3c-3.7,0-6.6-0.2-8.5-0.7L1307.8,457.4"/>
		<path class="st1" d="M1445.5,287.2c2.5,0.1,3.9,0.5,5.8,1.2c5.1,2.2,8,6.8,8,12.5c0,6.2-3.4,11.5-8.9,14c-2.3,1.1-4.7,1.8-8.3,2.3
			c1,1.2,1.2,1.7,1.8,3.4c3.5-0.8,5.3-1.4,7.6-2.3c7.2-3.1,11.5-9.5,11.5-17.2c0-4.8-1.7-9.2-4.8-12.2c-3.2-3.2-8.2-5-13.8-5
			c-6.7,0-12.2,2.2-16.2,6.7c-3.3,3.8-5.2,8.7-5.2,13.8c0,7,3.5,12.2,8.3,12.2c3.6,0,6.6-3,9.5-9.6
			C1442.8,301.8,1444.7,294.1,1445.5,287.2 M1441.9,287.2c-0.6,6.4-2.5,13.8-4.5,18.5c-2.2,4.9-4.2,7.2-6.2,7.2
			c-2.7,0-4.8-3.7-4.8-8.5c0-6.2,3.1-11.8,8.2-14.9C1436.7,288.2,1438.9,287.5,1441.9,287.2"/>
		<path class="st1" d="M1445.5,341.1c2.5,0.1,3.9,0.5,5.8,1.2c5.1,2.2,8,6.8,8,12.5c0,6.2-3.4,11.5-8.9,14c-2.3,1.1-4.7,1.8-8.3,2.3
			c1,1.2,1.2,1.7,1.8,3.4c3.5-0.8,5.3-1.4,7.6-2.3c7.2-3.1,11.5-9.5,11.5-17.2c0-4.8-1.7-9.2-4.8-12.2c-3.2-3.2-8.2-5-13.8-5
			c-6.7,0-12.2,2.2-16.2,6.7c-3.3,3.8-5.2,8.7-5.2,13.8c0,7,3.5,12.2,8.3,12.2c3.6,0,6.6-3,9.5-9.6
			C1442.8,355.7,1444.7,348,1445.5,341.1 M1441.9,341.1c-0.6,6.4-2.5,13.8-4.5,18.5c-2.2,4.9-4.2,7.2-6.2,7.2
			c-2.7,0-4.8-3.7-4.8-8.5c0-6.2,3.1-11.8,8.2-14.9C1436.7,342.1,1438.9,341.4,1441.9,341.1"/>
		<path class="st1" d="M1445.5,395c2.5,0.1,3.9,0.5,5.8,1.2c5.1,2.2,8,6.8,8,12.5c0,6.2-3.4,11.5-8.9,14c-2.3,1.1-4.7,1.8-8.3,2.4
			c1,1.2,1.2,1.7,1.8,3.3c3.5-0.8,5.3-1.3,7.6-2.3c7.2-3.1,11.5-9.5,11.5-17.2c0-4.8-1.7-9.2-4.8-12.2c-3.2-3.2-8.2-5-13.8-5
			c-6.7,0-12.2,2.2-16.2,6.7c-3.3,3.8-5.2,8.7-5.2,13.8c0,7,3.5,12.2,8.3,12.2c3.6,0,6.6-3,9.5-9.6
			C1442.8,409.6,1444.7,402,1445.5,395 M1441.9,395.1c-0.6,6.4-2.5,13.8-4.5,18.5c-2.2,4.9-4.2,7.2-6.2,7.2c-2.7,0-4.8-3.7-4.8-8.5
			c0-6.2,3.1-11.8,8.2-14.9C1436.7,396,1438.9,395.3,1441.9,395.1"/>
		<path class="st1" d="M1434.9,456.3c0.1,0,0.2,0,0.2,0c0.1,0,0.2,0,0.5,0.1c0.1,0,0.4,0,0.8,0c0.2,0,0.8,0,1.6,0.1
			c1.8,0.1,3.6,0.2,5.7,0.2c1.9,0,3.4,0,5.7-0.2c0.2,7.3,0.3,12,0.5,13c-1.2-0.6-3.5-1-5.5-1c-5.6,0-9.5,3-9.5,7.1
			c0,4.3,3.6,7.1,9.4,7.1c4.1,0,7.2-1.5,8.3-4.2c0.4-0.9,0.6-2.1,0.6-3.4c0-0.5,0-0.5-0.1-1.3c0.2,0.1,0.2,0.1,0.5,0.3
			c0.3,0.2,0.3,0.2,0.5,0.3c3.5,2,5.5,3.5,7.1,5.2l1.5-3.5c-0.5-0.4-0.6-0.5-1.2-0.9c-3.3-2.4-4.7-3.2-8.3-4.9
			c-0.4-6.7-0.5-9.2-0.5-14.2c2.6-0.3,4-0.5,5.3-0.8c3.4-0.7,3.4-0.7,3.5-0.7l-0.2-3.4c-1.9,0.8-4.8,1.4-8.6,1.8
			c-0.1-1.1-0.1-1.9-0.1-2.5c0-4.1,0.1-6.5,0.3-7.8h-3.8c0.1,0.5,0.2,1.2,0.2,2c0,3.8,0,3.8,0.1,8.5c-2.1,0.1-3.4,0.2-5.4,0.2
			c-4.4,0-6.5-0.2-9-0.8L1434.9,456.3 M1450,472.6c0,0,0,1.1,0,1.5c0,1.9-0.3,3.1-0.9,3.9c-0.9,1.1-2.9,1.8-5.1,1.8
			c-3.5,0-5.8-1.6-5.8-4c0-2.5,2.6-4.2,6.5-4.2C1446.6,471.5,1447.9,471.8,1450,472.6 M1426.1,442.8c-0.1,0.6-0.1,0.9-0.6,3.1
			c-1.9,8.7-2.6,13.9-2.6,20.5c0,5.1,0.5,10.2,1.4,14.9c0.2,1.1,0.2,1.4,0.3,1.8l3.5-0.3c-0.1-0.7-0.1-0.8-0.1-1
			c0-3,1.9-9.3,4.3-14.2l-2.5-1.2c-0.1,0.4-0.2,0.6-0.4,1c-1.7,4.1-2,5.1-2.9,8.8l-0.2-0.1c0-0.5,0-0.5,0-0.9
			c-0.1-0.9-0.1-1-0.1-1.4c-0.1-2.3-0.2-5.2-0.2-7c0-8.2,1.7-18.5,3.8-23.5L1426.1,442.8"/>
		<path class="st1" d="M1680.4,294.5c0.1,0,0.1,0,0.2,0c0.1,0,0.2,0,0.5,0c0.1,0,0.4,0,0.8,0.1c0.2,0,0.8,0,1.6,0.1
			c1.8,0.1,3.6,0.2,5.7,0.2c1.9,0,3.5-0.1,5.7-0.2c0.1,7.3,0.3,12,0.5,13c-1.2-0.6-3.5-1-5.6-1c-5.6,0-9.5,3-9.5,7.1
			c0,4.3,3.7,7.1,9.4,7.1c4.1,0,7.2-1.5,8.4-4.2c0.4-0.9,0.6-2.1,0.6-3.4c0-0.5,0-0.6-0.1-1.3c0.2,0.2,0.2,0.2,0.4,0.3
			c0.3,0.2,0.3,0.2,0.5,0.3c3.6,2,5.6,3.5,7.1,5.2l1.6-3.5c-0.6-0.4-0.7-0.5-1.2-0.9c-3.3-2.5-4.7-3.2-8.3-4.9
			c-0.4-6.7-0.5-9.2-0.6-14.2c2.6-0.3,4-0.5,5.3-0.8c3.4-0.7,3.4-0.7,3.5-0.7l-0.2-3.4c-1.9,0.8-4.8,1.4-8.7,1.9
			c-0.1-1.1-0.1-1.9-0.1-2.5c0-4.2,0.1-6.5,0.4-7.8h-3.8c0.1,0.5,0.1,1.2,0.1,2c0,3.8,0,3.8,0.1,8.5c-2.1,0.1-3.4,0.1-5.3,0.1
			c-4.4,0-6.6-0.2-9-0.8L1680.4,294.5 M1695.4,310.8c0,0,0.1,1.2,0.1,1.5c0,2-0.3,3.2-1,3.9c-0.9,1.1-2.9,1.8-5.1,1.8
			c-3.5,0-5.8-1.6-5.8-4c0-2.5,2.5-4.2,6.4-4.2C1692.1,309.8,1693.4,310,1695.4,310.8 M1671.5,281.1c0,0.7-0.1,1-0.5,3.2
			c-2,8.7-2.6,13.9-2.6,20.5c0,5,0.5,10.2,1.4,14.9c0.2,1.1,0.2,1.4,0.3,1.8l3.6-0.3c-0.1-0.7-0.1-0.8-0.1-1c0-3,2-9.3,4.3-14.2
			l-2.4-1.2c-0.1,0.4-0.2,0.5-0.4,1c-1.7,4.1-2.1,5-3,8.8l-0.2,0c0-0.5,0-0.5,0-1c-0.1-0.9-0.1-1-0.1-1.4c-0.1-2.3-0.2-5.2-0.2-7
			c0-8.2,1.7-18.5,3.8-23.5L1671.5,281.1"/>
		<path class="st1" d="M1672.7,335.2c0.2,1,0.2,1.6,0.2,2.7c0,0.8,0,1.8,0,3.2c-0.4,15.8-0.5,17-0.5,20.3c0,5.2,0.7,7.9,2.8,10.2
			c2,2.3,5.2,3.5,9.4,3.5c5.8,0,10.6-2,14.1-6.2c2.2-2.5,3.7-5.5,5.6-11.3c-1.6-0.8-2.2-1.2-3.6-2.4c-0.7,3.5-1.3,5.5-2.5,7.9
			c-2.8,5.7-7.4,8.7-13.4,8.7c-2.6,0-4.9-0.7-6.2-2c-1.5-1.4-2.2-3-2.4-6c0-1.2-0.1-2.4-0.1-3c0-2.2,0.2-9,0.3-15
			c0.2-6.3,0.4-8.9,0.7-10.6H1672.7"/>
		<path class="st1" d="M1686.1,387.9c0.2,1.2,0.2,1.6,0.2,4.1c0.1,7.1,0.4,16.8,0.8,22.5c0,0.1,0,0.2,0,0.3c0,0.2,0,0.2,0,0.5
			c-0.2-0.1-0.2-0.1-0.2-0.1c-0.2,0-0.2,0-0.4-0.1c-1.1-0.2-2.8-0.5-4.3-0.5c-7.1,0-11.8,3.1-11.8,7.9c0,4.6,3.9,7.4,10.4,7.4
			c4.2,0,7.4-1.2,8.9-3.4c0.8-1.1,1.2-3,1.2-5.1c0-0.6-0.1-1.6-0.2-2.1c0.4,0.2,0.5,0.2,1.2,0.5c1.7,0.8,4.5,2.3,6.8,3.8
			c2.7,1.8,4.2,3.1,5.2,4.4l2.3-3.5c-1.2-0.8-1.2-0.8-2.3-1.5c-5.2-3.8-9.3-6-13.3-7.1c-0.2-3.2-0.5-8-0.7-12.9
			c4.2-0.1,7.6-0.4,12.1-1.1c2.2-0.3,2.2-0.3,3-0.3l-0.5-3.7c-2.8,1.1-9.1,1.9-14.6,1.9c-0.1-3.6-0.1-4.1-0.1-5.2
			c0-3.9,0.1-5.4,0.3-6.6H1686.1 M1687.2,418.4c0,0,0.2,2,0.2,2.8c0,1.9-0.4,2.9-1.2,3.8c-1.2,1-3.2,1.6-5.5,1.6c-2.7,0-5-0.8-6-2
			c-0.5-0.5-0.8-1.3-0.8-2.1c0-2.9,3.1-4.7,8.2-4.7C1684,417.7,1685.2,417.9,1687.2,418.4"/>
		<path class="st1" d="M1667.2,458c1.3-0.3,1.8-0.4,2.9-0.6c0.4-0.1,2.8-0.5,7.2-1.2c-1.7,6.5-3.2,10.9-5.5,15.9
			c-1.8,3.8-3.7,7.1-5.2,9l3.4,2c1.6-2.8,2.6-4.8,3.2-6c3.4-6.9,5.7-13.3,7.6-21.2c1.8-0.2,2.5-0.2,3.6-0.2c4.7,0,6.2,1.7,6.2,7
			c0,5.6-0.8,10.7-2.1,13.9c-0.7,1.6-1.6,2.4-2.9,2.4c-1.8,0-4.6-0.8-7.4-2.3c0.2,0.9,0.2,1.2,0.2,2c0,0.7,0,1-0.1,1.8
			c3.3,1.4,5.4,2,7.5,2c2.3,0,3.7-0.7,4.9-2.4c2.1-2.9,3.3-9.5,3.3-17.2c0-4.1-0.7-6.4-2.4-8.1c-1.6-1.5-3.7-2.1-7.2-2.1
			c-1.1,0-1.8,0-2.9,0.2c0.4-2.4,0.8-4.2,1.1-5.7c0.4-2.9,0.6-3.7,0.9-4.8l-4-0.5c0,0.3,0,0.5,0,0.6c0,2.1-0.7,6.9-1.5,10.6
			c-4.1,0.6-9.2,1.2-11.1,1.3L1667.2,458 M1696.7,451.4c4.8,5,8.3,11,10.2,18l3.2-1.9c-2.3-7-5.3-12.2-10.4-17.7L1696.7,451.4"/>
		<path class="st1" d="M1811.1,279.8c-0.1,2.3-0.9,6.5-1.7,9.4c-0.9,0-2.6,0-3.6,0c-2.8,0-4.2-0.1-5.9-0.4l-0.1,3.5
			c0.3,0,0.6,0,0.7,0c0.2,0,0.5,0,1.1,0c0.8,0,2.4,0.1,3.3,0.1c0.8,0,2.4-0.1,3.7-0.1c-1.4,4.8-2.9,8.4-5.2,12.9
			c-1.9,3.6-3.2,5.8-4.8,7.8l3.4,2c0.2-0.4,0.5-1,1-1.7c1.9-3.3,2.3-4.1,3.5-6.5c2.2-4.6,4-9.2,5.6-14.6c3.1-0.2,6.2-0.6,8.2-1.1
			c1.2-0.2,1.2-0.2,1.8-0.3l-0.1-3.5c-2.3,0.8-5.5,1.4-9,1.7c0.7-2.5,1-3.8,1.3-5.5c0.4-2,0.5-2.2,0.8-3.2L1811.1,279.8
			 M1840.6,293.6c-4.1-2.6-7.4-4.3-13.2-6.6l-1.9,2.8c5.2,1.9,9.1,3.9,13.2,6.8L1840.6,293.6 M1840.7,315.7
			c-0.3-0.2-0.3-0.2-0.9-0.8c-2.7-2.4-5.8-4.3-9.8-6c-0.3-1.9-0.6-5.4-0.6-7.6c0-1.8,0.2-2.8,0.7-4.6l-3.4-0.4
			c-0.4,1.9-0.5,3-0.5,4.9c0,1.2,0.1,3.6,0.3,6.8c-1.9-0.5-3.2-0.8-5-0.8c-2.2,0-4.2,0.3-5.9,1.1c-2.8,1.2-4.7,3.7-4.7,6.4
			c0,4.5,3.8,7.2,9.8,7.2c6.1,0,9.5-2.9,9.5-8c0-0.5,0-0.8-0.1-1.6c3.7,1.9,6.8,4.4,8.8,6.8L1840.7,315.7 M1826.8,311.2
			c0,0,0.1,1.5,0.1,2.1c0,3.8-2,5.5-6.2,5.5c-4,0-6.4-1.5-6.4-4.1c0-2.8,2.7-4.5,7-4.5C1823.2,310.2,1824.7,310.4,1826.8,311.2"/>
		<path class="st1" d="M1801.5,357.5c0.6,0.1,0.8,0.1,1.6,0.3c2.2,0.5,4.6,0.9,7.6,1.2c-0.1,0.4-0.1,0.4-0.1,1.2
			c-0.1,1.2-0.2,2.2-0.2,3.3c0,2.8,0.6,5.2,1.6,6.9c1.9,3.2,5.9,5,11.2,5c8.8,0,14.7-4.8,14.7-11.8c0-3.7-1.2-6.1-4.7-10
			c-1.4,0.7-2,0.8-3.6,1c3.2,2.8,4.8,5.5,4.8,8.7c0,5.3-4.4,8.8-11.1,8.8c-3.1,0-5.4-0.8-7.1-2.2c-1.5-1.3-2.3-3.2-2.3-6
			c0-0.8,0.1-2.5,0.2-3.7c0.1-0.7,0.1-0.7,0.1-1c2.2,0.1,3,0.1,4.3,0.1c2.4,0,4.5-0.1,7.1-0.4c0.7,0,0.8,0,1.3-0.1l0.1-3.3
			c-1.9,0.5-5.6,0.8-9.2,0.8c-0.7,0-1.4,0-3.3,0c0.3-2.8,0.4-3.3,1.2-9.1c2.8,0.1,3.6,0.1,4.4,0.1c1.4,0,2.9,0,4.5-0.2
			c2.5-0.2,2.5-0.2,3.5-0.3l0.2-3.5c-2.2,0.5-5.4,0.8-9.2,0.8c-0.8,0-1.5,0-2.9,0c0.2-1.4,0.3-1.9,0.5-3c0.5-2.8,0.5-2.8,0.5-3.2
			c0.3-1.8,0.5-2.4,0.8-3.3l-4-0.5c0,0.2,0,0.3,0,0.4c0,1.3-0.4,4.6-1.2,9.4c-3.5-0.3-6.8-1-9-1.9l-0.4,3.3c0.7,0.1,0.9,0.2,1.6,0.3
			c2.9,0.7,5.1,1,7.4,1.4c-0.4,2.6-0.9,6.5-1.2,9c-3.8-0.5-6.9-1.1-8.9-2L1801.5,357.5"/>
		<path class="st1" d="M1800.8,420.6c0.6-0.8,2.6-3,4.5-4.8c1.8-1.7,2.2-2.1,2.6-2.8h0.1c-0.1,1.2-0.1,1.6-0.2,7.7
			c0,7.9,0,7.9-0.2,9.5h3.9c-0.2-2.3-0.3-4.8-0.3-19.8c6.5-5.9,11-8.2,15.9-8.2c5.7,0,9.6,3.9,9.6,9.8c0,2.2-0.5,4.1-1.4,6
			c-1.8,3.5-5.7,5.6-10,5.6c-3,0-6.1-0.7-8.8-1.9c0.3,1.4,0.4,2,0.4,2.9c0,0.2,0,0.5,0,0.9c3.1,1,5.7,1.5,8.5,1.5
			c9.1,0,15.1-6,15.1-15.1c0-7.6-5.5-13-13.4-13c-4.5,0-8.3,1.5-12.7,5c-1.5,1.2-2.4,2-2.9,2.5l-0.2,0.2h-0.1c0-0.1,0.1-1.8,0.2-5
			c1.9-2.7,1.9-2.7,2.7-3.2l-1.3-1.7c-0.4,0.2-0.5,0.2-1.2,0.3c0.1-1.1,0.1-1.1,0.1-2.8c0.1-3.6,0.2-4.3,0.5-5.8h-4
			c0.2,0.8,0.2,1.2,0.2,2c0,1.9-0.1,3.8-0.2,6.9c-4.1,0.3-6.2,0.4-7,0.4c-0.4,0-0.7,0-1.4,0l0.2,3.5c1.2-0.2,2.2-0.4,5.5-0.6
			c1.9-0.1,1.9-0.1,2.6-0.1c-0.2,4.2-0.2,4.7-0.2,8.8c-0.7,0.5-0.7,0.5-1.4,1.3c-1.7,1.5-1.7,1.5-3.4,3.2c-2.4,2.2-3.3,3-4.3,3.7
			L1800.8,420.6"/>
		<path class="st1" d="M1800.8,474.5c0.6-0.8,2.6-3,4.5-4.8c1.8-1.7,2.2-2.1,2.6-2.8h0.1c-0.1,1.2-0.1,1.6-0.2,7.7
			c0,7.9,0,7.9-0.2,9.5h3.9c-0.2-2.3-0.3-4.8-0.3-19.8c6.5-5.9,11-8.2,15.9-8.2c5.7,0,9.6,3.9,9.6,9.8c0,2.2-0.5,4.1-1.4,6
			c-1.8,3.5-5.7,5.6-10,5.6c-3,0-6.1-0.7-8.8-1.9c0.3,1.4,0.4,2,0.4,2.9c0,0.2,0,0.5,0,0.9c3.1,1,5.7,1.5,8.5,1.5
			c9.1,0,15.1-6,15.1-15.1c0-7.6-5.5-13-13.4-13c-4.5,0-8.3,1.5-12.7,5c-1.5,1.2-2.4,2-2.9,2.5l-0.2,0.2h-0.1c0-0.1,0.1-1.8,0.2-5
			c1.9-2.7,1.9-2.7,2.7-3.2l-1.3-1.7c-0.4,0.2-0.5,0.2-1.2,0.3c0.1-1.1,0.1-1.1,0.1-2.8c0.1-3.6,0.2-4.3,0.5-5.8h-4
			c0.2,0.8,0.2,1.2,0.2,2c0,1.9-0.1,3.8-0.2,6.9c-4.1,0.3-6.2,0.4-7,0.4c-0.4,0-0.7,0-1.4,0l0.2,3.5c1.2-0.2,2.2-0.4,5.5-0.6
			c1.9-0.1,1.9-0.1,2.6-0.1c-0.2,4.2-0.2,4.7-0.2,8.8c-0.7,0.5-0.7,0.5-1.4,1.3c-1.7,1.5-1.7,1.5-3.4,3.2c-2.4,2.2-3.3,3-4.3,3.7
			L1800.8,474.5"/>
		<path class="st1" d="M1953.6,287.2c2.5,0.1,3.9,0.5,5.8,1.2c5.1,2.2,7.9,6.8,7.9,12.5c0,6.2-3.4,11.5-8.9,14
			c-2.3,1.1-4.7,1.8-8.3,2.3c0.9,1.2,1.2,1.7,1.8,3.4c3.4-0.8,5.3-1.4,7.6-2.3c7.2-3.1,11.5-9.5,11.5-17.2c0-4.8-1.7-9.2-4.9-12.2
			c-3.2-3.2-8.1-5-13.8-5c-6.7,0-12.1,2.2-16.1,6.7c-3.4,3.8-5.2,8.7-5.2,13.8c0,7,3.5,12.2,8.3,12.2c3.6,0,6.6-3,9.5-9.6
			C1950.9,301.8,1952.8,294.1,1953.6,287.2 M1950,287.2c-0.6,6.4-2.5,13.8-4.5,18.5c-2.2,4.9-4.2,7.2-6.2,7.2
			c-2.7,0-4.8-3.7-4.8-8.5c0-6.2,3.1-11.8,8.1-14.9C1944.8,288.2,1947,287.5,1950,287.2"/>
		<path class="st1" d="M1953.6,341.1c2.5,0.1,3.9,0.5,5.8,1.2c5.1,2.2,7.9,6.8,7.9,12.5c0,6.2-3.4,11.5-8.9,14
			c-2.3,1.1-4.7,1.8-8.3,2.3c0.9,1.2,1.2,1.7,1.8,3.4c3.4-0.8,5.3-1.4,7.6-2.3c7.2-3.1,11.5-9.5,11.5-17.2c0-4.8-1.7-9.2-4.9-12.2
			c-3.2-3.2-8.1-5-13.8-5c-6.7,0-12.1,2.2-16.1,6.7c-3.4,3.8-5.2,8.7-5.2,13.8c0,7,3.5,12.2,8.3,12.2c3.6,0,6.6-3,9.5-9.6
			C1950.9,355.7,1952.8,348,1953.6,341.1 M1950,341.1c-0.6,6.4-2.5,13.8-4.5,18.5c-2.2,4.9-4.2,7.2-6.2,7.2c-2.7,0-4.8-3.7-4.8-8.5
			c0-6.2,3.1-11.8,8.1-14.9C1944.8,342.1,1947,341.4,1950,341.1"/>
		<path class="st1" d="M1953.6,395c2.5,0.1,3.9,0.5,5.8,1.2c5.1,2.2,7.9,6.8,7.9,12.5c0,6.2-3.4,11.5-8.9,14
			c-2.3,1.1-4.7,1.8-8.3,2.4c0.9,1.2,1.2,1.7,1.8,3.3c3.4-0.8,5.3-1.3,7.6-2.3c7.2-3.1,11.5-9.5,11.5-17.2c0-4.8-1.7-9.2-4.9-12.2
			c-3.2-3.2-8.1-5-13.8-5c-6.7,0-12.1,2.2-16.1,6.7c-3.4,3.8-5.2,8.7-5.2,13.8c0,7,3.5,12.2,8.3,12.2c3.6,0,6.6-3,9.5-9.6
			C1950.9,409.6,1952.8,402,1953.6,395 M1950,395.1c-0.6,6.4-2.5,13.8-4.5,18.5c-2.2,4.9-4.2,7.2-6.2,7.2c-2.7,0-4.8-3.7-4.8-8.5
			c0-6.2,3.1-11.8,8.1-14.9C1944.8,396,1947,395.3,1950,395.1"/>
		<path class="st1" d="M1941.3,445.8c4.4,2,4.4,2,7.7,3.1c3.3,1.2,3.3,1.2,9.8,2.9l1.4-3.5c-5.4-0.9-13.1-3.4-16.9-5.6L1941.3,445.8
			 M1937.1,451.2c-0.1,0.9-0.1,1.3-0.4,2.7c-0.7,4.2-1.6,10-2.1,13.8c-0.2,1.6-0.2,2-0.4,3l3.9,0.1c0.8-1.1,1.2-1.5,2-2
			c3.8-2.8,8.9-4.3,14-4.3c6.1,0,9.7,2.4,9.7,6.5c0,5.1-5.2,8.4-13.5,8.4c-4.2,0-8.9-1-12.8-2.5c0.3,1.3,0.3,2,0.3,3.1
			c0,0.2,0,0.5,0,0.9c3,0.8,3,0.8,4,1c2.8,0.6,5.8,0.9,8.8,0.9c5.3,0,9.2-1,12.4-3.3c2.8-2,4.5-5.2,4.5-8.6c0-5.8-5.2-9.6-13.4-9.6
			c-5.5,0-11,1.6-14.4,4.3c-0.6,0.5-0.9,0.8-1.6,1.5l-0.1,0c0.1-0.5,0.1-0.5,0.2-1.2c0.1-1.1,0.2-1.5,1.4-8.8c0.4-2.8,0.7-4,1.2-5.5
			L1937.1,451.2"/>
		<path class="st1" d="M2071,283.7c6,2,9.6,2.6,18.6,3.4l0.7-3.4c-6.6-0.2-12.8-1.2-18.1-3.1L2071,283.7 M2066.7,296.6
			c1.3-0.2,2.4-0.2,4.8-0.4c8.5-0.5,11.8-0.9,14.9-1.6c-3.6,3.4-6.2,5.9-7.6,7.4c-4.1,4-8.2,8-11.8,11.4c-3,2.8-3.6,3.4-5.4,4.6
			l2.8,3.1c1.8-2,5-5.4,7.5-7.6c4.1-3.9,6.6-5.2,9.2-5.2c1.1,0,1.9,0.5,2.3,1.2c0.3,0.6,0.4,1.1,0.5,3.4c0.2,3.3,0.5,4.4,1.1,5.5
			c1.1,2,3.2,2.9,7,2.9c2.2,0,4.1-0.2,6.9-0.7c3.5-0.5,3.5-0.5,4-0.6l-0.5-3.9c-2.7,1.2-6.5,1.9-10.1,1.9c-2.3,0-3.4-0.4-4.1-1.4
			c-0.6-0.8-0.7-1.5-0.9-4.7c-0.2-2.9-0.6-4-1.6-5c-0.8-0.9-2-1.3-3.4-1.3c-1.4,0-2.2,0.3-5,1.7c2.4-1.9,5.7-4.8,9.9-9
			c2.9-2.8,3.4-3.3,4.5-4.2l-2.2-2.8c-0.6,0.2-1.2,0.4-2.4,0.6c-4.3,0.6-13.1,1.2-17.6,1.2c-1.1,0-1.8,0-3-0.1L2066.7,296.6"/>
		<path class="st1" d="M2062.6,338.8c0.1,0.9,0.1,1,0.1,2.9c0.2,12.3,0.9,18.7,2.7,23.5c1.7,4.8,4.3,7.6,7.1,7.6
			c3.6,0,5.8-3.4,8.3-12.1c-1.4-1.1-1.9-1.5-3-2.8c-0.6,3.4-1.4,6-2.6,8.5c-0.8,1.7-1.6,2.5-2.5,2.5c-1.9,0-3.9-3.5-5.1-8.5
			c-0.8-3.2-1.3-10-1.3-15.5c0-2.8,0.1-4.4,0.4-6L2062.6,338.8 M2087.9,343c5.9,6.8,9.5,15.3,10.4,24.6l3.6-1.5
			c-0.9-5.6-1.9-9.1-3.8-13.3c-1.9-4.2-3.9-7.5-7.2-11.4L2087.9,343"/>
		<path class="st1" d="M2063.3,403.6c0.8-0.4,1.5-0.6,3.6-1.2c8.7-2.4,15.2-3.6,20.4-3.6c6.8,0,10.9,3.4,10.9,9
			c0,5.6-3.9,10.1-10.7,12.6c-3.8,1.4-8.3,2.1-13.9,2.3c0.9,1.3,1.2,2,1.6,3.7c7.8-0.7,11.9-1.6,16.6-3.8
			c6.7-3.2,10.4-8.5,10.4-14.8c0-7.7-5.8-12.5-14.9-12.5c-4.1,0-8.9,0.6-14.5,1.8c-8.9,2-8.9,2-10.4,2.1L2063.3,403.6"/>
		<path class="st1" d="M2061.2,454.9c1.3-0.2,1.3-0.2,7.8-0.8c-0.1,4.8-0.1,4.8-0.2,8.8c-8.2,8.2-8.2,8.2-9.4,9l2.1,3.3
			c0.9-1.2,1-1.3,4.2-4.8c1.4-1.5,2.6-2.8,3.1-3.5c-0.1,1.7-0.1,2.9-0.1,5.9c0,9.4,0,9.4-0.2,11.5h3.8c-0.2-2.1-0.3-5.4-0.3-13.1v-7
			c4.1-3.9,5.8-5.3,7.7-6.8c3.6-2.7,6.6-4,9.2-4c4.9,0,7.6,4.7,7.6,13c0,2-0.1,3.2-0.4,5.4c-2.8-1.6-5.1-2.2-7.8-2.2
			c-4.9,0-8.3,2.8-8.3,6.8c0,3.8,3.5,6.5,8.4,6.5c2.9,0,5.7-1,7.4-2.7c1.1-1,1.6-1.8,2.2-3.4c2.2,1.8,4.1,3.4,5.1,4.6l1.6-3.5
			c-0.5-0.4-0.6-0.4-1.2-1c-0.4-0.4-0.9-0.8-1.3-1c-2.4-1.9-2.4-1.9-3.1-2.4c0.6-2.8,0.8-4.6,0.8-7.2c0-10.2-4-16-10.9-16
			c-3.8,0-7.4,1.7-12.1,5.3c-2.3,1.8-4,3.3-5.1,4.6l0.1-5.1c1.2-1.5,2.2-2.5,2.7-2.9l-1.3-1.8c-0.3,0.2-0.4,0.2-0.9,0.3
			c0,0-0.1,0-0.2,0c0.3-7.6,0.3-7.6,0.5-8.9l-3.8-0.1c0.1,1.1,0.1,1.6,0.1,2.5c0,0.8-0.1,3.6-0.1,6.9c-4.4,0.3-5.8,0.4-7,0.4
			c-0.2,0-0.6,0-1.2,0L2061.2,454.9 M2095.5,474.9c0,0-0.1,0.3-0.4,0.8c-0.5,1.2-1.4,2.3-2.6,3c-1.2,0.8-2.5,1.2-4.1,1.2
			c-2.9,0-5.1-1.5-5.1-3.5c0-2.2,2.1-3.8,5.2-3.8C2091,472.6,2092.8,473.2,2095.5,474.9"/>
		<path class="st1" d="M2263.8,280.3c-0.3,1.5-1.4,4.7-6.9,19.1c-7.2,19.2-7.2,19.2-7.8,20.6l3.8,1.2c0.7-3,3-8.7,4.6-11.5
			c2.8-4.8,6.1-7.4,8.9-7.4c1.5,0,2.4,0.6,2.9,1.9c0.3,0.8,0.4,1.8,0.4,3.8v2.8c0,2.8,0.2,4.4,0.4,5.4c1,2.8,3.6,4.5,7.3,4.5
			c4.1,0,7.7-2,9.9-5.5c1.6-2.3,2.6-4.8,3.6-8.8c-1.4-0.9-2-1.3-3.3-2.5c-0.3,2.7-0.8,4.8-1.9,7.1c-1.9,4.2-4.4,6.2-8,6.2
			c-1.6,0-3.1-0.6-3.8-1.5c-0.6-0.9-0.8-2.2-0.8-4.8v-3.4c0-2.8-0.2-4.5-0.8-5.6c-0.9-1.8-2.9-3-5-3c-3.6,0-6.1,1.8-9.4,6.5
			l-0.2-0.1c0.2-0.5,0.2-0.6,0.5-0.9c0.2-0.5,0.4-0.9,0.5-1.1c2.1-4.3,2.1-4.3,3.6-8.2c4.9-12.6,4.9-12.6,5.6-13.8L2263.8,280.3"/>
		<path class="st1" d="M2257.3,341c0.8-0.2,2-0.2,3.6-0.2c5.6-0.2,12.1-0.6,14.2-0.9c0.2,0,0.4-0.1,0.7-0.1l0.1,0
			c-0.2,0.2-0.2,0.2-0.4,0.4c-0.2,0.2-0.2,0.2-0.4,0.5c-4.6,4.8-11.4,11.2-16.6,15.8c-3,2.5-4.6,3.8-6.5,4.9l2.5,3.1
			c1.1-1,2.2-2,3.9-3.2c5-3.5,10.9-5.5,16-5.5c6.2,0,10,2.7,10,7c0,5.2-5.3,8.7-13.1,8.7c-4.3,0-9.2-1.2-12.8-3.1
			c0.2,1.5,0.3,2.3,0.3,3.1c0,0.2,0,0.5,0,0.9c4.6,1.6,8.3,2.3,12,2.3c4.1,0,8-0.8,10.7-2.1c4.1-2,6.5-5.8,6.5-9.9
			c0-6.1-5.1-10-13-10c-4.6,0-7.7,1-12.7,4l-0.2-0.1c4.1-2.9,6.4-4.9,13.7-12.2c4.6-4.7,4.6-4.7,5.4-5.2l-2.1-2.9
			c-0.6,0.2-1,0.4-2,0.5c-3.5,0.4-9.8,0.7-14.5,0.7c-3,0-4,0-5.5-0.3L2257.3,341"/>
		<path class="st1" d="M2252.9,399.1c0.9-0.1,1-0.1,3.1-0.1c5.7-0.1,9.7-0.4,13.5-0.9c1.2,2.7,1.6,3.2,2.9,5.7
			c-4.1,0.8-10.6,1.2-15.8,1.2c-2,0-2.9,0-4-0.2l0.1,3.3c0.9-0.1,1.1-0.1,3.5-0.2c9.4-0.3,12.6-0.6,17.6-1.5c1.8,3,3.8,6,5.4,7.7
			c-3.3-1.1-5.9-1.5-10.1-1.5c-9.5,0-15.2,3.2-15.2,8.6c0,2.6,1.4,4.9,3.8,6.2c2.6,1.5,5.7,2.1,10.3,2.1c4.4,0,8.7-0.6,12.8-1.9
			c2.3-0.7,2.3-0.7,3-0.8l-0.7-3.9c-3,1.9-9.6,3.4-14.8,3.4c-6.9,0-10.7-1.8-10.7-5.1c0-3.5,4.7-5.7,11.9-5.7c2.2,0,4.8,0.2,6.6,0.5
			c2.4,0.4,3.6,0.8,5.5,1.9l2.9-2.1c-3.9-4.5-4.4-5.2-7.4-9.9c1.9-0.4,4.4-0.9,7.9-1.8c1.6-0.4,1.9-0.4,2.7-0.6l-0.4-3.4
			c-2.1,1-4.9,1.8-11.4,3.1c-0.8-1.4-2.1-4-2.9-5.7c2.8-0.5,8.1-1.6,12.6-2.8l-0.3-3.2c-2.8,1.2-7.5,2.3-13.4,3.3
			c-1.2-2.6-2.2-5.2-2.6-7l-3.8,0.7c0.4,0.7,1.4,3,3,6.8c-4.6,0.5-7.7,0.7-11.9,0.7c-1.7,0-2.6,0-3.8-0.2L2252.9,399.1"/>
		<path class="st1" d="M2257.5,443.1c0.3,0.8,0.4,1,0.9,3.2c1.4,6.5,2.4,10.3,3.6,13.9c-3.1,1.6-4.6,2.6-6.5,4.1
			c-3,2.4-4.5,5.3-4.5,8.5c0,4,2.1,6.7,6.2,8.2c2.4,0.9,6.1,1.3,11.1,1.3c3.5,0,5.9-0.2,11.1-0.7l1.7-0.2l0.5-0.1c0.6,0,0.8,0,1.5,0
			l-0.4-4.1c-2.9,1-8.6,1.7-14.3,1.7c-9.8,0-13.6-1.8-13.6-6.3c0-4.1,3.7-7.5,12.2-10.9c4.4-1.8,11.5-4.1,15-4.9l-1.5-3.8
			c-0.9,0.5-1.4,0.7-3.2,1.3c-7.7,2.7-9.3,3.3-12.1,4.5c-1.4-3.6-3.8-14.1-3.8-16.5L2257.5,443.1 M2275.8,443c1.4,1.5,3.9,5.3,5.1,8
			l2.5-1.5c-1.5-3-2.9-5-5.1-7.8L2275.8,443 M2281.5,440.3c1.9,2.3,4,5.5,5.1,7.9l2.5-1.4c-1.7-3.1-2.9-5-5.2-7.8L2281.5,440.3"/>
		<path class="st1" d="M387.1,20.2h-3.3v45c-1.1-0.7-2.5-1.1-4.1-1.3c-0.4,0-0.9-0.1-1.3-0.1c-2.7,0-5.7,0.8-8.4,2.3
			c-3.2,1.7-5.7,4.2-7.2,6.9c-1.4,2.8-1.6,5.5-0.4,7.6c1.4,2.6,4.4,3.9,8,3.9c2.6,0,5.6-0.7,8.4-2.2c5.1-2.8,8.4-7.4,8.4-11.4V20.2"
			/>
		<path class="st1" d="M409.3,72.5h30.2v-6.9h-30.2V72.5 M409.3,60.2h30.2v-6.9h-30.2V60.2 M492.6,35.6c-4,0.7-7.4,0.8-13.6,0.8
			c-5.7,0-7.9-0.1-14.4-0.8l-2,17.9l3.3,0.4l0.6-2.7c1.1-5.3,1.6-6.1,3.7-6.1c0.2,0,0.6,0,1,0.1c1.7,0.1,5.4,0.2,6.8,0.2
			c0.6,0,2.6-0.1,5.6-0.1l2.3-0.1l-4.1,6.1l-3,4.7c-4.7,7.3-4.7,7.3-6.1,10.6c-1.2,2.6-1.7,4.6-1.7,6.5c0,3.6,2.2,5.9,5.5,5.9
			c3.8,0,5.9-2.3,5.9-6.6c-0.1-11.1,1.1-15.2,10.1-34.2V35.6 M522.9,62.1l-0.7,3c-0.5,2.4-0.9,3.2-1.4,3.5c-0.6,0.4-0.7,0.4-4.5,0.5
			h-11.6c2.1-1.8,3.7-2.9,6-4.5c8.5-5.5,10.2-6.8,11.9-9c2-2.7,3.2-5.9,3.2-8.7c0-6.4-6.3-11.3-14.8-11.3c-8.2,0-14.5,5.3-14.5,12.1
			c0,4.2,2.3,6.9,5.9,6.9c3.1,0,5.1-2,5.1-5.1c0-2.6-1.1-4.1-3.9-5.4c-0.7-0.3-1-0.7-1-1.1c0-1.9,3.2-4,6.2-4c4.2,0,6.6,2.6,6.6,7
			c0,5-1.9,8.5-8.3,15.3c-6.7,7.1-9.1,9.8-12.1,14.2v2.8c1.6-0.2,2.2-0.2,3.1-0.2h22.6c1.1,0,1.9,0.1,3.7,0.2l1.4-16.2H522.9"/>
		<path class="st1" d="M2298.6,813.1c0,2.7,2.2,5,5,5c2.7,0,5-2.2,5-5s-2.2-5-5-5C2300.8,808.1,2298.6,810.4,2298.6,813.1"/>
		<path class="st1" d="M2298.6,701.5c0,2.7,2.2,5,5,5c2.7,0,5-2.2,5-5s-2.2-5-5-5C2300.8,696.5,2298.6,698.8,2298.6,701.5"/>
		<path class="st1" d="M2298.6,214.5c0,2.7,2.2,5,5,5c2.7,0,5-2.2,5-5s-2.2-5-5-5C2300.8,209.5,2298.6,211.7,2298.6,214.5"/>
		<line class="st5" x1="232.8" y1="109.8" x2="232.8" y2="917.8"/>
		<path class="st1" d="M275.3,87.8c-0.2-0.1-0.5-0.2-0.7-0.2c-0.4,0-0.9,0.1-1.1,0.5c-0.2,0.3-10.1,15.6-29.1,15.6h-15.8
			c-0.8,0-1.4,0.5-1.4,1.3v8.9v1.4h12.1c30.6,0,36.4-25.5,36.5-25.8c0-0.1,0.1-0.3,0.1-0.5C276,88.5,275.7,88.1,275.3,87.8"/>
		<path class="st1" d="M275.3,939.8c0.4-0.3,0.7-0.7,0.7-1.2c0-0.2-0.1-0.4-0.1-0.5c-0.1-0.3-6-25.8-36.5-25.8h-12.1v1.4v8.9
			c0,0.8,0.6,1.3,1.4,1.3h15.8c18.9,0,28.9,15.3,29.1,15.6c0.2,0.4,0.7,0.5,1.1,0.5C274.8,940,275.1,939.9,275.3,939.8"/>
	</g>
</g>
</svg>
