<?xml version="1.0" encoding="UTF-8"?><svg id="_レイヤー_1" xmlns="http://www.w3.org/2000/svg" xmlns:xlink="http://www.w3.org/1999/xlink" viewBox="0 0 2650.39 1303.94"><defs><style>.cls-1{stroke-width:13.64px;}.cls-1,.cls-2,.cls-3,.cls-4,.cls-5{fill:none;stroke:#fff;stroke-linejoin:bevel;}.cls-2{stroke-width:4.46px;}.cls-6,.cls-7{fill:#fff;}.cls-7{fill-rule:evenodd;}.cls-8{isolation:isolate;}.cls-3{stroke-width:3.97px;}.cls-4{stroke-width:10.91px;}.cls-5{stroke-width:2.73px;}</style></defs><g id="_レイヤー_1-2"><image class="cls-8" width="2537" height="76" transform="translate(100.2 258.94)" xlink:href="../Documents/2年_アーカイブ/_卒制/イラスト保存用/五線譜/hurusato/404DA0B52249401C.png"/><image class="cls-8" width="2537" height="75" transform="translate(100.2 283.94)" xlink:href="../Documents/2年_アーカイブ/_卒制/イラスト保存用/五線譜/hurusato/404DA0B52249401E.png"/><image class="cls-8" width="2537" height="75" transform="translate(100.2 308.94)" xlink:href="../Documents/2年_アーカイブ/_卒制/イラスト保存用/五線譜/hurusato/404DA0B52249401A.png"/><image class="cls-8" width="2537" height="76" transform="translate(100.2 332.94)" xlink:href="../Documents/2年_アーカイブ/_卒制/イラスト保存用/五線譜/hurusato/404DA0B52249401B.png"/><image class="cls-8" width="2537" height="76" transform="translate(100.2 357.94)" xlink:href="../Documents/2年_アーカイブ/_卒制/イラスト保存用/五線譜/hurusato/404DA0B522494014.png"/><image class="cls-8" width="2537" height="76" transform="translate(100.2 643.94)" xlink:href="../Documents/2年_アーカイブ/_卒制/イラスト保存用/五線譜/hurusato/404DA0B522494009.png"/><image class="cls-8" width="2537" height="75" transform="translate(100.2 668.94)" xlink:href="../Documents/2年_アーカイブ/_卒制/イラスト保存用/五線譜/hurusato/404DA0B52249400A.png"/><image class="cls-8" width="2537" height="76" transform="translate(100.2 692.94)" xlink:href="../Documents/2年_アーカイブ/_卒制/イラスト保存用/五線譜/hurusato/404DA0B52249400B.png"/><image class="cls-8" width="2537" height="76" transform="translate(100.2 717.94)" xlink:href="../Documents/2年_アーカイブ/_卒制/イラスト保存用/五線譜/hurusato/404DA0B52249400C.png"/><image class="cls-8" width="2537" height="76" transform="translate(100.2 742.94)" xlink:href="../Documents/2年_アーカイブ/_卒制/イラスト保存用/五線譜/hurusato/4B383A2DF496431F.png"/><image class="cls-8" width="2537" height="76" transform="translate(100.2 866.94)" xlink:href="../Documents/2年_アーカイブ/_卒制/イラスト保存用/五線譜/hurusato/4B383A2DF496431B.png"/><image class="cls-8" width="2537" height="76" transform="translate(100.2 891.94)" xlink:href="../Documents/2年_アーカイブ/_卒制/イラスト保存用/五線譜/hurusato/4B383A2DF4964306.png"/><image class="cls-8" width="2537" height="75" transform="translate(100.2 916.94)" xlink:href="../Documents/2年_アーカイブ/_卒制/イラスト保存用/五線譜/hurusato/4B383A2DF4964307.png"/><image class="cls-8" width="2537" height="76" transform="translate(100.2 940.94)" xlink:href="../Documents/2年_アーカイブ/_卒制/イラスト保存用/五線譜/hurusato/4B383A2DF4964317.png"/><image class="cls-8" width="2537" height="76" transform="translate(100.2 965.94)" xlink:href="../Documents/2年_アーカイブ/_卒制/イラスト保存用/五線譜/hurusato/4B383A2DF496430D.png"/><image class="cls-8" width="2537" height="76" transform="translate(100.2 1089.94)" xlink:href="../Documents/2年_アーカイブ/_卒制/イラスト保存用/五線譜/hurusato/4B383A2DF496430F.png"/><image class="cls-8" width="2537" height="76" transform="translate(100.2 1114.94)" xlink:href="../Documents/2年_アーカイブ/_卒制/イラスト保存用/五線譜/hurusato/4B383A2DF496430C.png"/><image class="cls-8" width="2537" height="76" transform="translate(100.2 1139.94)" xlink:href="../Documents/2年_アーカイブ/_卒制/イラスト保存用/五線譜/hurusato/4B383A2DF4964304.png"/><image class="cls-8" width="2537" height="75" transform="translate(100.2 1164.94)" xlink:href="../Documents/2年_アーカイブ/_卒制/イラスト保存用/五線譜/hurusato/4B383A2DF4964305.png"/><image class="cls-8" width="2537" height="76" transform="translate(100.2 1188.94)" xlink:href="../Documents/2年_アーカイブ/_卒制/イラスト保存用/五線譜/hurusato/4B383A2DF496432E.png"/><image class="cls-8" width="118" height="110" transform="translate(15.2 1122.94)" xlink:href="../Documents/2年_アーカイブ/_卒制/イラスト保存用/五線譜/hurusato/4B383A2DF4964322.png"/><image class="cls-8" width="112" height="109" transform="translate(17.2 899.94)" xlink:href="../Documents/2年_アーカイブ/_卒制/イラスト保存用/五線譜/hurusato/4B383A2DF4964323.png"/><image class="cls-8" width="120" height="111" transform="translate(13.2 675.94)" xlink:href="../Documents/2年_アーカイブ/_卒制/イラスト保存用/五線譜/hurusato/4B383A2DF4964326.png"/><image class="cls-8" width="112" height="111" transform="translate(21.2 290.94)" xlink:href="../Documents/2年_アーカイブ/_卒制/イラスト保存用/五線譜/hurusato/4B383A2DF4964321.png"/><image class="cls-8" width="77" height="175" transform="translate(100.2 1089.94)" xlink:href="../Documents/2年_アーカイブ/_卒制/イラスト保存用/五線譜/hurusato/4B383A2DF4964320.png"/><image class="cls-8" width="77" height="175" transform="translate(888.2 1089.94)" xlink:href="../Documents/2年_アーカイブ/_卒制/イラスト保存用/五線譜/hurusato/4B383A2DF496431D.png"/><image class="cls-8" width="77" height="175" transform="translate(1542.2 1089.94)" xlink:href="../Documents/2年_アーカイブ/_卒制/イラスト保存用/五線譜/hurusato/4B383A2DF496435C.png"/><image class="cls-8" width="77" height="175" transform="translate(2182.2 1089.94)" xlink:href="../Documents/2年_アーカイブ/_卒制/イラスト保存用/五線譜/hurusato/4B383A2DF496435E.png"/><image class="cls-8" width="77" height="175" transform="translate(2538.2 1089.94)" xlink:href="../Documents/2年_アーカイブ/_卒制/イラスト保存用/五線譜/hurusato/4B383A2DF4964362.png"/><image class="cls-8" width="86" height="175" transform="translate(2551.2 1089.94)" xlink:href="../Documents/2年_アーカイブ/_卒制/イラスト保存用/五線譜/hurusato/4B383A2DF496437E.png"/><image class="cls-8" width="77" height="298" transform="translate(100.2 866.94)" xlink:href="../Documents/2年_アーカイブ/_卒制/イラスト保存用/五線譜/hurusato/4B383A2DF496437D.png"/><image class="cls-8" width="77" height="175" transform="translate(888.2 866.94)" xlink:href="../Documents/2年_アーカイブ/_卒制/イラスト保存用/五線譜/hurusato/4B383A2DF4964344.png"/><image class="cls-8" width="77" height="175" transform="translate(1542.2 866.94)" xlink:href="../Documents/2年_アーカイブ/_卒制/イラスト保存用/五線譜/hurusato/4B383A2DF4964345.png"/><image class="cls-8" width="77" height="175" transform="translate(2182.2 866.94)" xlink:href="../Documents/2年_アーカイブ/_卒制/イラスト保存用/五線譜/hurusato/4B383A2DF496434A.png"/><image class="cls-8" width="77" height="175" transform="translate(2538.2 866.94)" xlink:href="../Documents/2年_アーカイブ/_卒制/イラスト保存用/五線譜/hurusato/4B383A2DF496434B.png"/><image class="cls-8" width="86" height="175" transform="translate(2551.2 866.94)" xlink:href="../Documents/2年_アーカイブ/_卒制/イラスト保存用/五線譜/hurusato/4B383A2DF496434C.png"/><image class="cls-8" width="77" height="297" transform="translate(100.2 643.94)" xlink:href="../Documents/2年_アーカイブ/_卒制/イラスト保存用/五線譜/hurusato/4B383A2DF4964349.png"/><image class="cls-8" width="77" height="175" transform="translate(888.2 643.94)" xlink:href="../Documents/2年_アーカイブ/_卒制/イラスト保存用/五線譜/hurusato/4B383A2DF4964348.png"/><image class="cls-8" width="77" height="175" transform="translate(1542.2 643.94)" xlink:href="../Documents/2年_アーカイブ/_卒制/イラスト保存用/五線譜/hurusato/4B383A2DF4964357.png"/><image class="cls-8" width="77" height="175" transform="translate(2182.2 643.94)" xlink:href="../Documents/2年_アーカイブ/_卒制/イラスト保存用/五線譜/hurusato/4B383A2DF49643AC.png"/><image class="cls-8" width="77" height="175" transform="translate(2538.2 643.94)" xlink:href="../Documents/2年_アーカイブ/_卒制/イラスト保存用/五線譜/hurusato/4B383A2DF49643B6.png"/><image class="cls-8" width="86" height="175" transform="translate(2551.2 643.94)" xlink:href="../Documents/2年_アーカイブ/_卒制/イラスト保存用/五線譜/hurusato/4B383A2DF49643B1.png"/><image class="cls-8" width="77" height="459" transform="translate(100.2 258.94)" xlink:href="../Documents/2年_アーカイブ/_卒制/イラスト保存用/五線譜/hurusato/4B383A2DF49643B2.png"/><image class="cls-8" width="77" height="175" transform="translate(888.2 258.94)" xlink:href="../Documents/2年_アーカイブ/_卒制/イラスト保存用/五線譜/hurusato/4B383A2DF49643B3.png"/><image class="cls-8" width="77" height="175" transform="translate(1542.2 258.94)" xlink:href="../Documents/2年_アーカイブ/_卒制/イラスト保存用/五線譜/hurusato/4B383A2DF49643BE.png"/><image class="cls-8" width="77" height="175" transform="translate(2182.2 258.94)" xlink:href="../Documents/2年_アーカイブ/_卒制/イラスト保存用/五線譜/hurusato/4B383A2DF49643B0.png"/><image class="cls-8" width="77" height="175" transform="translate(2538.2 258.94)" xlink:href="../Documents/2年_アーカイブ/_卒制/イラスト保存用/五線譜/hurusato/4B383A2DF49643CA.png"/><image class="cls-8" width="86" height="175" transform="translate(2551.2 258.94)" xlink:href="../Documents/2年_アーカイブ/_卒制/イラスト保存用/五線譜/hurusato/4B383A2DF49643CB.png"/><image class="cls-8" width="123" height="77" transform="translate(1944.2 841.94)" xlink:href="../Documents/2年_アーカイブ/_卒制/イラスト保存用/五線譜/hurusato/4B383A2DF49643CC.png"/><image class="cls-8" width="76" height="150" transform="translate(297.2 1131.94)" xlink:href="../Documents/2年_アーカイブ/_卒制/イラスト保存用/五線譜/hurusato/4B383A2DF49643E8.png"/><image class="cls-8" width="76" height="150" transform="translate(494.2 1131.94)" xlink:href="../Documents/2年_アーカイブ/_卒制/イラスト保存用/五線譜/hurusato/4B383A2DF49643E9.png"/><image class="cls-8" width="76" height="150" transform="translate(691.2 1131.94)" xlink:href="../Documents/2年_アーカイブ/_卒制/イラスト保存用/五線譜/hurusato/4B383A2DF49643EA.png"/><image class="cls-8" width="75" height="153" transform="translate(935.2 1119.94)" xlink:href="../Documents/2年_アーカイブ/_卒制/イラスト保存用/五線譜/hurusato/4B383A2DF49643EB.png"/><image class="cls-8" width="76" height="157" transform="translate(1195.2 1131.94)" xlink:href="../Documents/2年_アーカイブ/_卒制/イラスト保存用/五線譜/hurusato/4B383A2DF49643EC.png"/><image class="cls-8" width="76" height="153" transform="translate(1328.2 1119.94)" xlink:href="../Documents/2年_アーカイブ/_卒制/イラスト保存用/五線譜/hurusato/4B383A2DF49643ED.png"/><image class="cls-8" width="76" height="147" transform="translate(1587.2 1144.94)" xlink:href="../Documents/2年_アーカイブ/_卒制/イラスト保存用/五線譜/hurusato/4B383A2DF49643EE.png"/><image class="cls-8" width="76" height="147" transform="translate(1770.2 1144.94)" xlink:href="../Documents/2年_アーカイブ/_卒制/イラスト保存用/五線譜/hurusato/4B383A2DF49643E7.png"/><image class="cls-8" width="76" height="150" transform="translate(1953.2 1131.94)" xlink:href="../Documents/2年_アーカイブ/_卒制/イラスト保存用/五線譜/hurusato/4B383A2DF496438B.png"/><image class="cls-8" width="76" height="153" transform="translate(2221.2 1119.94)" xlink:href="../Documents/2年_アーカイブ/_卒制/イラスト保存用/五線譜/hurusato/4B383A2DF496438C.png"/><image class="cls-8" width="76" height="156" transform="translate(297.2 871.94)" xlink:href="../Documents/2年_アーカイブ/_卒制/イラスト保存用/五線譜/hurusato/4B383A2DF49643F2.png"/><image class="cls-8" width="76" height="156" transform="translate(494.2 871.94)" xlink:href="../Documents/2年_アーカイブ/_卒制/イラスト保存用/五線譜/hurusato/4B383A2DF496438E.png"/><image class="cls-8" width="76" height="156" transform="translate(691.2 871.94)" xlink:href="../Documents/2年_アーカイブ/_卒制/イラスト保存用/五線譜/hurusato/4B383A2DF496438F.png"/><image class="cls-8" width="75" height="153" transform="translate(935.2 896.94)" xlink:href="../Documents/2年_アーカイブ/_卒制/イラスト保存用/五線譜/hurusato/4B383A2DF4964398.png"/><image class="cls-8" width="76" height="157" transform="translate(1195.2 883.94)" xlink:href="../Documents/2年_アーカイブ/_卒制/イラスト保存用/五線譜/hurusato/4B383A2DF4964399.png"/><image class="cls-8" width="76" height="156" transform="translate(1328.2 871.94)" xlink:href="../Documents/2年_アーカイブ/_卒制/イラスト保存用/五線譜/hurusato/4B383A2DF4964382.png"/><image class="cls-8" width="76" height="157" transform="translate(1587.2 883.94)" xlink:href="../Documents/2年_アーカイブ/_卒制/イラスト保存用/五線譜/hurusato/4B383A2DF4964383.png"/><image class="cls-8" width="76" height="157" transform="translate(1770.2 883.94)" xlink:href="../Documents/2年_アーカイブ/_卒制/イラスト保存用/五線譜/hurusato/4B383A2DF4964384.png"/><image class="cls-8" width="76" height="144" transform="translate(1953.2 846.94)" xlink:href="../Documents/2年_アーカイブ/_卒制/イラスト保存用/五線譜/hurusato/4B383A2DF4964385.png"/><image class="cls-8" width="76" height="138" transform="translate(2067.2 858.94)" xlink:href="../Documents/2年_アーカイブ/_卒制/イラスト保存用/五線譜/hurusato/4B383A2DF4964386.png"/><image class="cls-8" width="76" height="156" transform="translate(2221.2 871.94)" xlink:href="../Documents/2年_アーカイブ/_卒制/イラスト保存用/五線譜/hurusato/4B383A2DF49643A2.png"/><image class="cls-8" width="76" height="150" transform="translate(326.2 626.94)" xlink:href="../Documents/2年_アーカイブ/_卒制/イラスト保存用/五線譜/hurusato/4B383A2DF49643A3.png"/><image class="cls-8" width="76" height="150" transform="translate(523.2 626.94)" xlink:href="../Documents/2年_アーカイブ/_卒制/イラスト保存用/五線譜/hurusato/4B383A2DF49643A4.png"/><image class="cls-8" width="76" height="150" transform="translate(720.2 626.94)" xlink:href="../Documents/2年_アーカイブ/_卒制/イラスト保存用/五線譜/hurusato/4B383A2DF49643A1.png"/><image class="cls-8" width="76" height="157" transform="translate(964.2 669.94)" xlink:href="../Documents/2年_アーカイブ/_卒制/イラスト保存用/五線譜/hurusato/4B383A2DF49643A0.png"/><image class="cls-8" width="76" height="157" transform="translate(1224.2 669.94)" xlink:href="../Documents/2年_アーカイブ/_卒制/イラスト保存用/五線譜/hurusato/4B383A2DF4964387.png"/><image class="cls-8" width="75" height="157" transform="translate(1358.2 669.94)" xlink:href="../Documents/2年_アーカイブ/_卒制/イラスト保存用/五線譜/hurusato/4B383A2DF4964388.png"/><image class="cls-8" width="75" height="157" transform="translate(1617.2 669.94)" xlink:href="../Documents/2年_アーカイブ/_卒制/イラスト保存用/五線譜/hurusato/4B383A2DF4964389.png"/><image class="cls-8" width="75" height="157" transform="translate(1800.2 669.94)" xlink:href="../Documents/2年_アーカイブ/_卒制/イラスト保存用/五線譜/hurusato/4B383A2DF4964380.png"/><image class="cls-8" width="75" height="156" transform="translate(1983.2 657.94)" xlink:href="../Documents/2年_アーカイブ/_卒制/イラスト保存用/五線譜/hurusato/4B383A2DF4964381.png"/><image class="cls-8" width="76" height="157" transform="translate(2251.2 644.94)" xlink:href="../Documents/2年_アーカイブ/_卒制/イラスト保存用/五線譜/hurusato/4B383A2DF4964443.png"/><image class="cls-8" width="76" height="150" transform="translate(297.2 300.94)" xlink:href="../Documents/2年_アーカイブ/_卒制/イラスト保存用/五線譜/hurusato/4B383A2DF496444C.png"/><image class="cls-8" width="76" height="150" transform="translate(494.2 300.94)" xlink:href="../Documents/2年_アーカイブ/_卒制/イラスト保存用/五線譜/hurusato/4B383A2DF496444D.png"/><image class="cls-8" width="76" height="150" transform="translate(691.2 300.94)" xlink:href="../Documents/2年_アーカイブ/_卒制/イラスト保存用/五線譜/hurusato/4B383A2DF4964442.png"/><image class="cls-8" width="76" height="157" transform="translate(964.2 259.94)" xlink:href="../Documents/2年_アーカイブ/_卒制/イラスト保存用/五線譜/hurusato/4B383A2DF4964441.png"/><image class="cls-8" width="76" height="154" transform="translate(1224.2 250.94)" xlink:href="../Documents/2年_アーカイブ/_卒制/イラスト保存用/五線譜/hurusato/4B383A2DF4964440.png"/><image class="cls-8" width="75" height="150" transform="translate(1358.2 241.94)" xlink:href="../Documents/2年_アーカイブ/_卒制/イラスト保存用/五線譜/hurusato/4B383A2DF496447D.png"/><image class="cls-8" width="76" height="147" transform="translate(1587.2 312.94)" xlink:href="../Documents/2年_アーカイブ/_卒制/イラスト保存用/五線譜/hurusato/4B383A2DF496447E.png"/><image class="cls-8" width="76" height="147" transform="translate(1770.2 312.94)" xlink:href="../Documents/2年_アーカイブ/_卒制/イラスト保存用/五線譜/hurusato/4B383A2DF496447F.png"/><image class="cls-8" width="75" height="154" transform="translate(1983.2 250.94)" xlink:href="../Documents/2年_アーカイブ/_卒制/イラスト保存用/五線譜/hurusato/4B383A2DF496447A.png"/><image class="cls-8" width="76" height="157" transform="translate(2251.2 259.94)" xlink:href="../Documents/2年_アーカイブ/_卒制/イラスト保存用/五線譜/hurusato/4B383A2DF4964467.png"/><image class="cls-8" width="105" height="99" transform="translate(297.2 1115.94)" xlink:href="../Documents/2年_アーカイブ/_卒制/イラスト保存用/五線譜/hurusato/4B383A2DF4964463.png"/><image class="cls-8" width="105" height="99" transform="translate(494.2 1115.94)" xlink:href="../Documents/2年_アーカイブ/_卒制/イラスト保存用/五線譜/hurusato/4B383A2DF496445E.png"/><image class="cls-8" width="105" height="99" transform="translate(691.2 1115.94)" xlink:href="../Documents/2年_アーカイブ/_卒制/イラスト保存用/五線譜/hurusato/4B383A2DF496445F.png"/><image class="cls-8" width="105" height="100" transform="translate(935.2 1102.94)" xlink:href="../Documents/2年_アーカイブ/_卒制/イラスト保存用/五線譜/hurusato/4B383A2DF496441F.png"/><image class="cls-8" width="105" height="99" transform="translate(1195.2 1115.94)" xlink:href="../Documents/2年_アーカイブ/_卒制/イラスト保存用/五線譜/hurusato/4B383A2DF4964425.png"/><image class="cls-8" width="105" height="100" transform="translate(1328.2 1102.94)" xlink:href="../Documents/2年_アーカイブ/_卒制/イラスト保存用/五線譜/hurusato/4B383A2DF4964427.png"/><image class="cls-8" width="105" height="99" transform="translate(1587.2 1127.94)" xlink:href="../Documents/2年_アーカイブ/_卒制/イラスト保存用/五線譜/hurusato/4B383A2DF4964424.png"/><image class="cls-8" width="105" height="99" transform="translate(1770.2 1127.94)" xlink:href="../Documents/2年_アーカイブ/_卒制/イラスト保存用/五線譜/hurusato/4B383A2DF496442C.png"/><image class="cls-8" width="105" height="99" transform="translate(1953.2 1115.94)" xlink:href="../Documents/2年_アーカイブ/_卒制/イラスト保存用/五線譜/hurusato/4B383A2DF496442D.png"/><image class="cls-8" width="105" height="100" transform="translate(2222.2 1102.94)" xlink:href="../Documents/2年_アーカイブ/_卒制/イラスト保存用/五線譜/hurusato/DF2068A459B7B278.png"/><image class="cls-8" width="105" height="100" transform="translate(297.2 854.94)" xlink:href="../Documents/2年_アーカイブ/_卒制/イラスト保存用/五線譜/hurusato/DF2068A459B7B279.png"/><image class="cls-8" width="105" height="100" transform="translate(494.2 854.94)" xlink:href="../Documents/2年_アーカイブ/_卒制/イラスト保存用/五線譜/hurusato/DF2068A459B7B27A.png"/><image class="cls-8" width="105" height="100" transform="translate(691.2 854.94)" xlink:href="../Documents/2年_アーカイブ/_卒制/イラスト保存用/五線譜/hurusato/DF2068A459B7B267.png"/><image class="cls-8" width="105" height="99" transform="translate(935.2 879.94)" xlink:href="../Documents/2年_アーカイブ/_卒制/イラスト保存用/五線譜/hurusato/DF2068A459B7B268.png"/><image class="cls-8" width="105" height="99" transform="translate(1195.2 867.94)" xlink:href="../Documents/2年_アーカイブ/_卒制/イラスト保存用/五線譜/hurusato/DF2068A459B7B269.png"/><image class="cls-8" width="105" height="100" transform="translate(1328.2 854.94)" xlink:href="../Documents/2年_アーカイブ/_卒制/イラスト保存用/五線譜/hurusato/DF2068A459B7B26A.png"/><image class="cls-8" width="105" height="99" transform="translate(1587.2 867.94)" xlink:href="../Documents/2年_アーカイブ/_卒制/イラスト保存用/五線譜/hurusato/DF2068A459B7B26B.png"/><image class="cls-8" width="105" height="99" transform="translate(1770.2 867.94)" xlink:href="../Documents/2年_アーカイブ/_卒制/イラスト保存用/五線譜/hurusato/DF2068A459B7B26E.png"/><image class="cls-8" width="105" height="99" transform="translate(1953.2 830.94)" xlink:href="../Documents/2年_アーカイブ/_卒制/イラスト保存用/五線譜/hurusato/DF2068A459B7B26F.png"/><image class="cls-8" width="106" height="99" transform="translate(2067.2 842.94)" xlink:href="../Documents/2年_アーカイブ/_卒制/イラスト保存用/五線譜/hurusato/DF2068A459B7B241.png"/><image class="cls-8" width="105" height="100" transform="translate(2222.2 854.94)" xlink:href="../Documents/2年_アーカイブ/_卒制/イラスト保存用/五線譜/hurusato/DF2068A459B7B240.png"/><image class="cls-8" width="105" height="99" transform="translate(297.2 693.94)" xlink:href="../Documents/2年_アーカイブ/_卒制/イラスト保存用/五線譜/hurusato/DF2068A459B7B247.png"/><image class="cls-8" width="105" height="99" transform="translate(494.2 693.94)" xlink:href="../Documents/2年_アーカイブ/_卒制/イラスト保存用/五線譜/hurusato/DF2068A459B7B244.png"/><image class="cls-8" width="105" height="99" transform="translate(691.2 693.94)" xlink:href="../Documents/2年_アーカイブ/_卒制/イラスト保存用/五線譜/hurusato/DF2068A459B7B245.png"/><image class="cls-8" width="105" height="99" transform="translate(935.2 743.94)" xlink:href="../Documents/2年_アーカイブ/_卒制/イラスト保存用/五線譜/hurusato/DF2068A459B7B246.png"/><image class="cls-8" width="105" height="99" transform="translate(1195.2 743.94)" xlink:href="../Documents/2年_アーカイブ/_卒制/イラスト保存用/五線譜/hurusato/DF2068A459B7B2BF.png"/><image class="cls-8" width="105" height="99" transform="translate(1328.2 743.94)" xlink:href="../Documents/2年_アーカイブ/_卒制/イラスト保存用/五線譜/hurusato/DF2068A459B7B236.png"/><image class="cls-8" width="105" height="99" transform="translate(1587.2 743.94)" xlink:href="../Documents/2年_アーカイブ/_卒制/イラスト保存用/五線譜/hurusato/DF2068A459B7B23E.png"/><image class="cls-8" width="105" height="99" transform="translate(1770.2 743.94)" xlink:href="../Documents/2年_アーカイブ/_卒制/イラスト保存用/五線譜/hurusato/DF2068A459B7B2C2.png"/><image class="cls-8" width="105" height="100" transform="translate(1953.2 730.94)" xlink:href="../Documents/2年_アーカイブ/_卒制/イラスト保存用/五線譜/hurusato/DF2068A459B7B222.png"/><image class="cls-8" width="105" height="99" transform="translate(2222.2 718.94)" xlink:href="../Documents/2年_アーカイブ/_卒制/イラスト保存用/五線譜/hurusato/DF2068A459B7B223.png"/><image class="cls-8" width="105" height="100" transform="translate(297.2 283.94)" xlink:href="../Documents/2年_アーカイブ/_卒制/イラスト保存用/五線譜/hurusato/DF2068A459B7B2E0.png"/><image class="cls-8" width="105" height="100" transform="translate(494.2 283.94)" xlink:href="../Documents/2年_アーカイブ/_卒制/イラスト保存用/五線譜/hurusato/DF2068A459B7B2E1.png"/><image class="cls-8" width="105" height="100" transform="translate(691.2 283.94)" xlink:href="../Documents/2年_アーカイブ/_卒制/イラスト保存用/五線譜/hurusato/DF2068A459B7B2E2.png"/><image class="cls-8" width="105" height="99" transform="translate(935.2 333.94)" xlink:href="../Documents/2年_アーカイブ/_卒制/イラスト保存用/五線譜/hurusato/DF2068A459B7B2E3.png"/><image class="cls-8" width="105" height="99" transform="translate(1195.2 321.94)" xlink:href="../Documents/2年_アーカイブ/_卒制/イラスト保存用/五線譜/hurusato/DF2068A459B7B2E7.png"/><image class="cls-8" width="105" height="99" transform="translate(1328.2 308.94)" xlink:href="../Documents/2年_アーカイブ/_卒制/イラスト保存用/五線譜/hurusato/DF2068A459B7B2ED.png"/><image class="cls-8" width="105" height="99" transform="translate(1587.2 296.94)" xlink:href="../Documents/2年_アーカイブ/_卒制/イラスト保存用/五線譜/hurusato/DF2068A459B7B2EE.png"/><image class="cls-8" width="105" height="99" transform="translate(1770.2 296.94)" xlink:href="../Documents/2年_アーカイブ/_卒制/イラスト保存用/五線譜/hurusato/DF2068A459B7B2EF.png"/><image class="cls-8" width="105" height="99" transform="translate(1953.2 321.94)" xlink:href="../Documents/2年_アーカイブ/_卒制/イラスト保存用/五線譜/hurusato/DF2068A459B7B20B.png"/><image class="cls-8" width="105" height="99" transform="translate(2222.2 333.94)" xlink:href="../Documents/2年_アーカイブ/_卒制/イラスト保存用/五線譜/hurusato/DF2068A459B7B20C.png"/><image class="cls-8" width="139" height="159" transform="translate(124.2 1091.94)" xlink:href="../Documents/2年_アーカイブ/_卒制/イラスト保存用/五線譜/hurusato/DF2068A459B7B20D.png"/><image class="cls-8" width="139" height="159" transform="translate(124.2 867.94)" xlink:href="../Documents/2年_アーカイブ/_卒制/イラスト保存用/五線譜/hurusato/DF2068A459B7B20E.png"/><image class="cls-8" width="137" height="250" transform="translate(124.2 608.94)" xlink:href="../Documents/2年_アーカイブ/_卒制/イラスト保存用/五線譜/hurusato/DF2068A459B7B20A.png"/><image class="cls-8" width="137" height="250" transform="translate(124.2 223.94)" xlink:href="../Documents/2年_アーカイブ/_卒制/イラスト保存用/五線譜/hurusato/DF2068A459B7B218.png"/><image class="cls-8" width="93" height="136" transform="translate(215.2 1120.94)" xlink:href="../Documents/2年_アーカイブ/_卒制/イラスト保存用/五線譜/hurusato/DF2068A459B7B219.png"/><image class="cls-8" width="93" height="135" transform="translate(215.2 897.94)" xlink:href="../Documents/2年_アーカイブ/_卒制/イラスト保存用/五線譜/hurusato/DF2068A459B7B212.png"/><image class="cls-8" width="93" height="135" transform="translate(215.2 649.94)" xlink:href="../Documents/2年_アーカイブ/_卒制/イラスト保存用/五線譜/hurusato/DF2068A459B7B213.png"/><image class="cls-8" width="93" height="135" transform="translate(215.2 264.94)" xlink:href="../Documents/2年_アーカイブ/_卒制/イラスト保存用/五線譜/hurusato/DF2068A459B7B214.png"/><image class="cls-8" width="97" height="146" transform="translate(2416.2 1100.94)" xlink:href="../Documents/2年_アーカイブ/_卒制/イラスト保存用/五線譜/hurusato/DF2068A459B7B230.png"/><image class="cls-8" width="97" height="146" transform="translate(2416.2 877.94)" xlink:href="../Documents/2年_アーカイブ/_卒制/イラスト保存用/五線譜/hurusato/DF2068A459B7B231.png"/><image class="cls-8" width="97" height="146" transform="translate(2416.2 654.94)" xlink:href="../Documents/2年_アーカイブ/_卒制/イラスト保存用/五線譜/hurusato/DF2068A459B7B232.png"/><image class="cls-8" width="97" height="146" transform="translate(2416.2 269.94)" xlink:href="../Documents/2年_アーカイブ/_卒制/イラスト保存用/五線譜/hurusato/DF2068A459B7B233.png"/><image class="cls-8" width="190" height="92" transform="translate(1953.2 911.94)" xlink:href="../Documents/2年_アーカイブ/_卒制/イラスト保存用/五線譜/hurusato/DF2068A459B7B234.png"/><image class="cls-8" width="101" height="155" transform="translate(1195.2 1134.94)" xlink:href="../Documents/2年_アーカイブ/_卒制/イラスト保存用/五線譜/hurusato/DF2068A459B7B209.png"/><image class="cls-8" width="101" height="155" transform="translate(1195.2 886.94)" xlink:href="../Documents/2年_アーカイブ/_卒制/イラスト保存用/五線譜/hurusato/DF2068A459B7B208.png"/><image class="cls-8" width="102" height="155" transform="translate(1224.2 668.94)" xlink:href="../Documents/2年_アーカイブ/_卒制/イラスト保存用/五線譜/hurusato/DF2068A459B7B217.png"/><image class="cls-8" width="102" height="155" transform="translate(1224.2 249.94)" xlink:href="../Documents/2年_アーカイブ/_卒制/イラスト保存用/五線譜/hurusato/DF2068A459B7B22A.png"/><image class="cls-8" width="115" height="115" transform="translate(292.2 412.94)" xlink:href="../Documents/2年_アーカイブ/_卒制/イラスト保存用/五線譜/hurusato/DF2068A459B7B22B.png"/><image class="cls-8" width="114" height="114" transform="translate(293.2 465.94)" xlink:href="../Documents/2年_アーカイブ/_卒制/イラスト保存用/五線譜/hurusato/DF2068A459B7B25A.png"/><image class="cls-8" width="117" height="114" transform="translate(291.2 521.94)" xlink:href="../Documents/2年_アーカイブ/_卒制/イラスト保存用/五線譜/hurusato/DF2068A459B7B266.png"/><image class="cls-8" width="115" height="116" transform="translate(489.2 411.94)" xlink:href="../Documents/2年_アーカイブ/_卒制/イラスト保存用/五線譜/hurusato/DF2068A459B7B265.png"/><image class="cls-8" width="109" height="114" transform="translate(492.2 466.94)" xlink:href="../Documents/2年_アーカイブ/_卒制/イラスト保存用/五線譜/hurusato/DF2068A459B7B260.png"/><image class="cls-8" width="119" height="119" transform="translate(487.2 516.94)" xlink:href="../Documents/2年_アーカイブ/_卒制/イラスト保存用/五線譜/hurusato/DF2068A459B7B261.png"/><image class="cls-8" width="117" height="115" transform="translate(685.2 412.94)" xlink:href="../Documents/2年_アーカイブ/_卒制/イラスト保存用/五線譜/hurusato/DF2068A459B7B262.png"/><image class="cls-8" width="113" height="107" transform="translate(687.2 470.94)" xlink:href="../Documents/2年_アーカイブ/_卒制/イラスト保存用/五線譜/hurusato/DF2068A459B7B263.png"/><image class="cls-8" width="113" height="114" transform="translate(687.2 520.94)" xlink:href="../Documents/2年_アーカイブ/_卒制/イラスト保存用/五線譜/hurusato/DF2068A459B7B264.png"/><image class="cls-8" width="119" height="118" transform="translate(928.2 408.94)" xlink:href="../Documents/2年_アーカイブ/_卒制/イラスト保存用/五線譜/hurusato/DF2068A459B7B215.png"/><image class="cls-8" width="112" height="107" transform="translate(931.2 470.94)" xlink:href="../Documents/2年_アーカイブ/_卒制/イラスト保存用/五線譜/hurusato/DF2068A459B7B216.png"/><image class="cls-8" width="108" height="115" transform="translate(933.2 519.94)" xlink:href="../Documents/2年_アーカイブ/_卒制/イラスト保存用/五線譜/hurusato/DF2068A459B7B258.png"/><image class="cls-8" width="113" height="115" transform="translate(1191.2 411.94)" xlink:href="../Documents/2年_アーカイブ/_卒制/イラスト保存用/五線譜/hurusato/DF2068A459B7B25D.png"/><image class="cls-8" width="119" height="119" transform="translate(1188.2 462.94)" xlink:href="../Documents/2年_アーカイブ/_卒制/イラスト保存用/五線譜/hurusato/DF2068A459B7B25C.png"/><image class="cls-8" width="109" height="115" transform="translate(1193.2 519.94)" xlink:href="../Documents/2年_アーカイブ/_卒制/イラスト保存用/五線譜/hurusato/DF2068A459B7B221.png"/><image class="cls-8" width="108" height="115" transform="translate(1327.2 411.94)" xlink:href="../Documents/2年_アーカイブ/_卒制/イラスト保存用/五線譜/hurusato/DF2068A459B7B220.png"/><image class="cls-8" width="111" height="113" transform="translate(1325.2 467.94)" xlink:href="../Documents/2年_アーカイブ/_卒制/イラスト保存用/五線譜/hurusato/DF2068A459B7B22F.png"/><image class="cls-8" width="108" height="115" transform="translate(1327.2 519.94)" xlink:href="../Documents/2年_アーカイブ/_卒制/イラスト保存用/五線譜/hurusato/DF2068A459B7B22C.png"/><image class="cls-8" width="117" height="112" transform="translate(1581.2 413.94)" xlink:href="../Documents/2年_アーカイブ/_卒制/イラスト保存用/五線譜/hurusato/DF2068A459B7B22D.png"/><image class="cls-8" width="117" height="113" transform="translate(1581.2 466.94)" xlink:href="../Documents/2年_アーカイブ/_卒制/イラスト保存用/五線譜/hurusato/DF2068A459B7B22E.png"/><image class="cls-8" width="117" height="113" transform="translate(1581.2 520.94)" xlink:href="../Documents/2年_アーカイブ/_卒制/イラスト保存用/五線譜/hurusato/DF2068A459B7B211.png"/><image class="cls-8" width="111" height="113" transform="translate(1767.2 413.94)" xlink:href="../Documents/2年_アーカイブ/_卒制/イラスト保存用/五線譜/hurusato/DF2068A459B7B3BC.png"/><image class="cls-8" width="111" height="113" transform="translate(1767.2 467.94)" xlink:href="../Documents/2年_アーカイブ/_卒制/イラスト保存用/五線譜/hurusato/DF2068A459B7B3B6.png"/><image class="cls-8" width="111" height="113" transform="translate(1767.2 521.94)" xlink:href="../Documents/2年_アーカイブ/_卒制/イラスト保存用/五線譜/hurusato/DF2068A459B7B3A9.png"/><image class="cls-8" width="108" height="115" transform="translate(1952.2 411.94)" xlink:href="../Documents/2年_アーカイブ/_卒制/イラスト保存用/五線譜/hurusato/DF2068A459B7B3AA.png"/><image class="cls-8" width="108" height="115" transform="translate(1952.2 465.94)" xlink:href="../Documents/2年_アーカイブ/_卒制/イラスト保存用/五線譜/hurusato/DF2068A459B7B3A8.png"/><image class="cls-8" width="108" height="114" transform="translate(1952.2 519.94)" xlink:href="../Documents/2年_アーカイブ/_卒制/イラスト保存用/五線譜/hurusato/DF2068A459B7B3AE.png"/><image class="cls-8" width="105" height="113" transform="translate(2222.2 412.94)" xlink:href="../Documents/2年_アーカイブ/_卒制/イラスト保存用/五線譜/hurusato/DF2068A459B7B3A5.png"/><image class="cls-8" width="105" height="113" transform="translate(2222.2 466.94)" xlink:href="../Documents/2年_アーカイブ/_卒制/イラスト保存用/五線譜/hurusato/DF2068A459B7B3A6.png"/><image class="cls-8" width="105" height="113" transform="translate(2222.2 519.94)" xlink:href="../Documents/2年_アーカイブ/_卒制/イラスト保存用/五線譜/hurusato/DF2068A459B7B3A7.png"/><image class="cls-8" width="83" height="83" transform="translate(979.2 1098.94)" xlink:href="../Documents/2年_アーカイブ/_卒制/イラスト保存用/五線譜/hurusato/DF2068A459B7B394.png"/><image class="cls-8" width="83" height="83" transform="translate(979.2 875.94)" xlink:href="../Documents/2年_アーカイブ/_卒制/イラスト保存用/五線譜/hurusato/DF2068A459B7B38A.png"/><image class="cls-8" width="83" height="83" transform="translate(979.2 751.94)" xlink:href="../Documents/2年_アーカイブ/_卒制/イラスト保存用/五線譜/hurusato/DF2068A459B7B385.png"/><image class="cls-8" width="83" height="83" transform="translate(979.2 341.94)" xlink:href="../Documents/2年_アーカイブ/_卒制/イラスト保存用/五線譜/hurusato/DF2068A459B7B386.png"/><image class="cls-8" width="84" height="1040" transform="translate(81.2 241.94)" xlink:href="../Documents/2年_アーカイブ/_卒制/イラスト保存用/五線譜/hurusato/DF2068A459B7B384.png"/><image class="cls-8" width="122" height="101" transform="translate(81.2 219.94)" xlink:href="../Documents/2年_アーカイブ/_卒制/イラスト保存用/五線譜/hurusato/DF2068A459B7B3F9.png"/><image class="cls-8" width="122" height="101" transform="translate(81.2 1202.94)" xlink:href="../Documents/2年_アーカイブ/_卒制/イラスト保存用/五線譜/hurusato/DF2068A459B7B3FA.png"/></g><g id="_レイヤー_2"><g><line class="cls-5" x1="136.5" y1="296.74" x2="2601" y2="296.74"/><line class="cls-5" x1="136.5" y1="321.54" x2="2601" y2="321.54"/><line class="cls-5" x1="136.5" y1="346.34" x2="2601" y2="346.34"/><line class="cls-5" x1="136.5" y1="371.14" x2="2601" y2="371.14"/><line class="cls-5" x1="136.5" y1="395.94" x2="2601" y2="395.94"/><line class="cls-5" x1="136.5" y1="681.64" x2="2601" y2="681.64"/><line class="cls-5" x1="136.5" y1="706.44" x2="2601" y2="706.44"/><line class="cls-5" x1="136.5" y1="731.24" x2="2601" y2="731.24"/><line class="cls-5" x1="136.5" y1="756.04" x2="2601" y2="756.04"/><line class="cls-5" x1="136.5" y1="780.84" x2="2601" y2="780.84"/><line class="cls-5" x1="136.5" y1="904.84" x2="2601" y2="904.84"/><line class="cls-5" x1="136.5" y1="929.64" x2="2601" y2="929.64"/><line class="cls-5" x1="136.5" y1="954.44" x2="2601" y2="954.44"/><line class="cls-5" x1="136.5" y1="979.24" x2="2601" y2="979.24"/><line class="cls-5" x1="136.5" y1="1004.04" x2="2601" y2="1004.04"/><line class="cls-5" x1="136.5" y1="1128.04" x2="2601" y2="1128.04"/><line class="cls-5" x1="136.5" y1="1152.84" x2="2601" y2="1152.84"/><line class="cls-5" x1="136.5" y1="1177.64" x2="2601" y2="1177.64"/><line class="cls-5" x1="136.5" y1="1202.44" x2="2601" y2="1202.44"/><line class="cls-5" x1="136.5" y1="1227.24" x2="2601" y2="1227.24"/><path class="cls-6" d="M51.7,1159.24v2.3h.9c2.8,0,3.8,.2,4.2,.7,.3,.5,.3,.6,.3,3.1v23.8c0,2.6,0,2.7-.3,3.1-.4,.5-1.4,.7-4.2,.7h-.9v2.3h18.2c8.6,0,13.8-3.7,13.8-9.8,0-5-3.1-7.8-10-9,2.4-.5,3.5-1,4.8-1.9,2.1-1.6,3.3-4,3.3-6.5,0-3.2-2-6.4-4.9-7.7-1.8-.8-4.3-1.2-7.2-1.2h-18m11,16.4v-11.4c0-2,.7-2.5,3.3-2.5h2c2.3,0,4.2,.4,5.2,1,1.8,1.1,2.8,3.2,2.8,6,0,5-2.4,6.9-8.9,6.9h-4.4m0,2.3h4.4c7.6,0,10.4,2,10.4,7.5,0,3.2-1.1,5.5-3.1,6.5-1.6,.8-3.6,1.2-6.8,1.2h-2.1c-2.5,0-3-.5-2.9-3.2v-12m30.5,12c-1.8,0-3.1,1.4-3.1,3.1,0,1.8,1.4,3.2,3.1,3.2,1.8,0,3.1-1.4,3.1-3.2,0-1.7-1.4-3.1-3.1-3.1"/><path class="cls-6" d="M84.6,936.04h-30l-.7,13.9h2.2c.3-2.5,.8-4.4,1.3-6,1.3-3.7,3.7-5.5,7.1-5.5,1.6,0,2.4,.5,2.4,1.8v25.8c0,2.5,0,2.7-.3,3.1-.4,.5-1.4,.7-4.2,.7h-1.3v2.4h17.1v-2.4h-1.3c-2.8,0-3.8-.2-4.1-.7-.3-.4-.3-.6-.3-3.1v-25.8c0-1.2,.7-1.8,2.4-1.8,3.1,0,5.5,1.7,6.8,4.7,.8,1.8,1.2,4,1.6,6.8h2.2l-.9-13.9m4.9,30.6c-1.8,0-3.1,1.4-3.1,3.1,0,1.8,1.4,3.2,3.1,3.2,1.8,0,3.1-1.4,3.1-3.2,0-1.7-1.4-3.1-3.1-3.1"/><path class="cls-6" d="M69.1,712.44h-2.1l-11.5,29.2c-1.4,3.9-2.6,5.1-5.5,5.3h-.2v2.4h13.2v-2.4h-1c-2.7,0-4.1-1-4.1-2.8,0-.7,.1-1.2,.4-2.1l1.7-4.4h13.2l2.7,6.7c.3,.8,.4,1.1,.4,1.3,0,.8-1.2,1.3-3.1,1.3h-2v2.4h15.5v-2.4h-.7c-2.6,0-3.1-.3-4.2-3.2l-12.7-31.3m-2.5,8.2l5.7,14.2h-11.2l5.5-14.2m27.1,23.1c-1.8,0-3.2,1.4-3.2,3.1,0,1.8,1.4,3.1,3.1,3.1,1.8,0,3.2-1.4,3.2-3.1s-1.4-3.1-3.1-3.1"/><path class="cls-6" d="M82.1,327.94h-1.9l-2,3c-2.4-2.2-5.6-3.5-9.1-3.5-6.6,0-10.9,4.2-10.9,10.5,0,5.5,2.7,8.1,10.1,10l4.8,1.2c3.7,1,4,1,5.1,1.9,1.5,1.1,2.3,2.8,2.3,4.8s-.8,3.6-2.2,5c-1.6,1.4-3.3,2-6.1,2-3.7,0-6.3-1.1-8.7-3.8-2.1-2.3-3.1-4.7-3.9-8.6h-2.2l.2,14.2h2l2.2-3.4c3.3,2.8,6.1,3.8,10.5,3.8,7.3,0,12-4.3,12-11,0-3.1-1-5.8-3-7.6-1.3-1.3-3.3-2.1-7.3-3.1l-5.4-1.4c-4.4-1.1-6.6-3.1-6.6-6.1,0-3.5,2.9-5.9,7.1-5.9,3.5,0,6.3,1.5,8.3,4.3,1.5,2.1,2.4,4.2,3,6.7h2.2l-.5-13m11,30.9c-1.8,0-3.1,1.4-3.1,3.1,0,1.8,1.4,3.1,3.1,3.1,1.8,0,3.1-1.4,3.1-3.1s-1.4-3.1-3.1-3.1"/><line class="cls-2" x1="138.7" y1="1126.74" x2="138.7" y2="1228.64"/><line class="cls-2" x1="926.8" y1="1126.74" x2="926.8" y2="1228.64"/><line class="cls-2" x1="1580.4" y1="1126.74" x2="1580.4" y2="1228.64"/><line class="cls-2" x1="2220.7" y1="1126.74" x2="2220.7" y2="1228.64"/><line class="cls-2" x1="2576.8" y1="1126.74" x2="2576.8" y2="1228.64"/><line class="cls-1" x1="2594.2" y1="1126.74" x2="2594.2" y2="1228.64"/><line class="cls-2" x1="138.7" y1="903.44" x2="138.7" y2="1128.04"/><line class="cls-2" x1="926.8" y1="903.44" x2="926.8" y2="1005.44"/><line class="cls-2" x1="1580.4" y1="903.44" x2="1580.4" y2="1005.44"/><line class="cls-2" x1="2220.7" y1="903.44" x2="2220.7" y2="1005.44"/><line class="cls-2" x1="2576.8" y1="903.44" x2="2576.8" y2="1005.44"/><line class="cls-1" x1="2594.2" y1="903.44" x2="2594.2" y2="1005.44"/><line class="cls-2" x1="138.7" y1="680.24" x2="138.7" y2="904.84"/><line class="cls-2" x1="926.8" y1="680.24" x2="926.8" y2="782.24"/><line class="cls-2" x1="1580.4" y1="680.24" x2="1580.4" y2="782.24"/><line class="cls-2" x1="2220.7" y1="680.24" x2="2220.7" y2="782.24"/><line class="cls-2" x1="2576.8" y1="680.24" x2="2576.8" y2="782.24"/><line class="cls-1" x1="2594.2" y1="680.24" x2="2594.2" y2="782.24"/><line class="cls-2" x1="138.7" y1="295.34" x2="138.7" y2="681.64"/><line class="cls-2" x1="926.8" y1="295.34" x2="926.8" y2="397.24"/><line class="cls-2" x1="1580.4" y1="295.34" x2="1580.4" y2="397.24"/><line class="cls-2" x1="2220.7" y1="295.34" x2="2220.7" y2="397.24"/><line class="cls-2" x1="2576.8" y1="295.34" x2="2576.8" y2="397.24"/><line class="cls-1" x1="2594.2" y1="295.34" x2="2594.2" y2="397.24"/><line class="cls-3" x1="1981.1" y1="880.04" x2="2030.7" y2="880.04"/><line class="cls-5" x1="335" y1="1168.64" x2="335" y2="1245.94"/><line class="cls-5" x1="532" y1="1168.64" x2="532" y2="1245.94"/><line class="cls-5" x1="728.9" y1="1168.64" x2="728.9" y2="1245.94"/><line class="cls-5" x1="972.7" y1="1156.24" x2="972.7" y2="1236.64"/><line class="cls-5" x1="1232.9" y1="1168.64" x2="1232.9" y2="1252.14"/><line class="cls-5" x1="1366.2" y1="1156.24" x2="1366.2" y2="1236.64"/><line class="cls-5" x1="1625.3" y1="1181.04" x2="1625.3" y2="1255.24"/><line class="cls-5" x1="1808.2" y1="1181.04" x2="1808.2" y2="1255.24"/><line class="cls-5" x1="1991.2" y1="1168.64" x2="1991.2" y2="1245.94"/><line class="cls-5" x1="2259.6" y1="1156.24" x2="2259.6" y2="1236.64"/><line class="cls-5" x1="335" y1="908.14" x2="335" y2="991.64"/><line class="cls-5" x1="532" y1="908.14" x2="532" y2="991.64"/><line class="cls-5" x1="728.9" y1="908.14" x2="728.9" y2="991.64"/><line class="cls-5" x1="972.7" y1="932.94" x2="972.7" y2="1013.34"/><line class="cls-5" x1="1232.9" y1="920.54" x2="1232.9" y2="1004.04"/><line class="cls-5" x1="1366.2" y1="908.14" x2="1366.2" y2="991.64"/><line class="cls-5" x1="1625.3" y1="920.54" x2="1625.3" y2="1004.04"/><line class="cls-5" x1="1808.2" y1="920.54" x2="1808.2" y2="1004.04"/><line class="cls-5" x1="1991.2" y1="883.34" x2="1991.2" y2="954.44"/><line class="cls-5" x1="2105.5" y1="895.74" x2="2105.5" y2="960.64"/><line class="cls-5" x1="2259.6" y1="908.14" x2="2259.6" y2="991.64"/><line class="cls-5" x1="364.5" y1="740.44" x2="364.5" y2="663.04"/><line class="cls-5" x1="561.5" y1="740.44" x2="561.5" y2="663.04"/><line class="cls-5" x1="758.4" y1="740.44" x2="758.4" y2="663.04"/><line class="cls-5" x1="1002.2" y1="790.04" x2="1002.2" y2="706.44"/><line class="cls-5" x1="1262.4" y1="790.04" x2="1262.4" y2="706.44"/><line class="cls-5" x1="1395.7" y1="790.04" x2="1395.7" y2="706.44"/><line class="cls-5" x1="1654.8" y1="790.04" x2="1654.8" y2="706.44"/><line class="cls-5" x1="1837.7" y1="790.04" x2="1837.7" y2="706.44"/><line class="cls-5" x1="2020.7" y1="777.64" x2="2020.7" y2="694.04"/><line class="cls-5" x1="2289.1" y1="765.24" x2="2289.1" y2="681.64"/><line class="cls-5" x1="335" y1="337.24" x2="335" y2="414.54"/><line class="cls-5" x1="532" y1="337.24" x2="532" y2="414.54"/><line class="cls-5" x1="728.9" y1="337.24" x2="728.9" y2="414.54"/><line class="cls-5" x1="1002.2" y1="380.34" x2="1002.2" y2="296.74"/><line class="cls-5" x1="1262.4" y1="367.94" x2="1262.4" y2="287.44"/><line class="cls-5" x1="1395.7" y1="355.54" x2="1395.7" y2="278.14"/><line class="cls-5" x1="1625.3" y1="349.64" x2="1625.3" y2="423.84"/><line class="cls-5" x1="1808.2" y1="349.64" x2="1808.2" y2="423.84"/><line class="cls-5" x1="2020.7" y1="367.94" x2="2020.7" y2="287.44"/><line class="cls-5" x1="2289.1" y1="380.34" x2="2289.1" y2="296.74"/><path class="cls-6" d="M364.9,1157.24c-1.8-3.3-5.6-5.1-10.1-5.1-3.4,0-7,1-10.6,2.9-6.5,3.5-10.5,9.3-10.5,14.4,0,1.4,.3,2.8,1,4.1,1.8,3.3,5.6,5,10.1,5,3.4,0,7-.9,10.6-2.8,6.5-3.5,10.5-9.3,10.5-14.4,0-1.4-.3-2.8-1-4.1"/><path class="cls-6" d="M561.9,1157.24c-1.8-3.3-5.6-5.1-10.1-5.1-3.4,0-7,1-10.6,2.9-6.5,3.5-10.5,9.3-10.5,14.4,0,1.4,.3,2.8,1,4.1,1.8,3.3,5.6,5,10.1,5,3.4,0,7-.9,10.6-2.8,6.5-3.5,10.5-9.3,10.5-14.4-.1-1.4-.4-2.8-1-4.1"/><path class="cls-6" d="M758.8,1157.24c-1.8-3.3-5.6-5.1-10.1-5.1-3.4,0-7,1-10.6,2.9-6.5,3.5-10.5,9.3-10.5,14.4,0,1.4,.3,2.8,1,4.1,1.8,3.3,5.6,5,10.1,5,3.4,0,7-.9,10.6-2.8,6.5-3.5,10.5-9.3,10.5-14.4,0-1.4-.3-2.8-1-4.1"/><path class="cls-6" d="M1002.6,1144.84c-1.8-3.3-5.6-5.1-10.1-5.1-3.4,0-7,1-10.6,2.9-6.5,3.5-10.5,9.3-10.5,14.4,0,1.4,.3,2.8,1,4.1,1.8,3.3,5.6,5,10.1,5,3.4,0,7-.9,10.6-2.8,6.5-3.5,10.5-9.3,10.5-14.4-.1-1.4-.4-2.8-1-4.1"/><path class="cls-6" d="M1262.7,1157.24c-1.8-3.3-5.6-5.1-10.1-5.1-3.4,0-7,1-10.6,2.9-6.5,3.5-10.5,9.3-10.5,14.4,0,1.4,.3,2.8,1,4.1,1.8,3.3,5.6,5,10.1,5,3.4,0,7-.9,10.6-2.8,6.5-3.5,10.5-9.3,10.5-14.4,0-1.4-.3-2.8-1-4.1"/><path class="cls-6" d="M1396.1,1144.84c-1.8-3.3-5.6-5.1-10.1-5.1-3.4,0-7,1-10.6,2.9-6.5,3.5-10.5,9.3-10.5,14.4,0,1.4,.3,2.8,1,4.1,1.8,3.3,5.6,5,10.1,5,3.4,0,7-.9,10.6-2.8,6.5-3.5,10.5-9.3,10.5-14.4,0-1.4-.3-2.8-1-4.1"/><path class="cls-6" d="M1655.1,1169.64c-1.8-3.3-5.6-5.1-10.1-5.1-3.4,0-7,1-10.6,2.9-6.5,3.5-10.5,9.3-10.5,14.4,0,1.4,.3,2.8,1,4.1,1.8,3.3,5.6,5,10.1,5,3.4,0,7-.9,10.6-2.8,6.5-3.5,10.5-9.3,10.5-14.4,0-1.4-.3-2.8-1-4.1"/><path class="cls-6" d="M1838.1,1169.64c-1.8-3.3-5.6-5.1-10.1-5.1-3.4,0-7,1-10.6,2.9-6.5,3.5-10.5,9.3-10.5,14.4,0,1.4,.3,2.8,1,4.1,1.8,3.3,5.6,5,10.1,5,3.4,0,7-.9,10.6-2.8,6.5-3.5,10.5-9.3,10.5-14.4,0-1.4-.3-2.8-1-4.1"/><path class="cls-6" d="M2021,1157.24c-1.8-3.3-5.6-5.1-10.1-5.1-3.4,0-7,1-10.6,2.9-6.5,3.5-10.5,9.3-10.5,14.4,0,1.4,.3,2.8,1,4.1,1.8,3.3,5.6,5,10.1,5,3.4,0,7-.9,10.6-2.8,6.5-3.5,10.5-9.3,10.5-14.4,0-1.4-.3-2.8-1-4.1"/><path class="cls-6" d="M2289.5,1144.84c-1.8-3.3-5.6-5.1-10.1-5.1-3.4,0-7,1-10.6,2.9-6.5,3.5-10.5,9.3-10.5,14.4,0,1.4,.3,2.8,1,4.1,1.8,3.3,5.6,5,10.1,5,3.4,0,7-.9,10.6-2.8,6.5-3.5,10.5-9.3,10.5-14.4-.1-1.4-.4-2.8-1-4.1m-4.3,6.8c-1.7,1.7-5.1,3.8-8.6,5.8-3.6,2-7.1,3.5-9.5,4-.5,.1-1,.2-1.5,.2-1.6,0-2.8-.6-3.5-1.9-.3-.5-.5-1.1-.5-1.7,0-1.1,.7-2.4,1.8-3.5,1.7-1.7,5-3.8,8.5-5.8,3.6-2,7.1-3.5,9.5-4,.5-.1,1-.2,1.5-.2,1.6,0,2.9,.6,3.6,1.9,.3,.5,.4,1.1,.4,1.7,0,1.1-.6,2.3-1.7,3.5"/><path class="cls-6" d="M364.9,896.84c-1.8-3.3-5.6-5.1-10.1-5.1-3.4,0-7,1-10.6,2.9-6.5,3.5-10.5,9.3-10.5,14.4,0,1.4,.3,2.8,1,4.1,1.8,3.3,5.6,5,10.1,5,3.4,0,7-.9,10.6-2.8,6.5-3.5,10.5-9.3,10.5-14.4,0-1.4-.3-2.8-1-4.1"/><path class="cls-6" d="M561.9,896.84c-1.8-3.3-5.6-5.1-10.1-5.1-3.4,0-7,1-10.6,2.9-6.5,3.5-10.5,9.3-10.5,14.4,0,1.4,.3,2.8,1,4.1,1.8,3.3,5.6,5,10.1,5,3.4,0,7-.9,10.6-2.8,6.5-3.5,10.5-9.3,10.5-14.4-.1-1.4-.4-2.8-1-4.1"/><path class="cls-6" d="M758.8,896.84c-1.8-3.3-5.6-5.1-10.1-5.1-3.4,0-7,1-10.6,2.9-6.5,3.5-10.5,9.3-10.5,14.4,0,1.4,.3,2.8,1,4.1,1.8,3.3,5.6,5,10.1,5,3.4,0,7-.9,10.6-2.8,6.5-3.5,10.5-9.3,10.5-14.4,0-1.4-.3-2.8-1-4.1"/><path class="cls-6" d="M1002.6,921.64c-1.8-3.3-5.6-5.1-10.1-5.1-3.4,0-7,1-10.6,2.9-6.5,3.5-10.5,9.3-10.5,14.4,0,1.4,.3,2.8,1,4.1,1.8,3.3,5.6,5,10.1,5,3.4,0,7-.9,10.6-2.8,6.5-3.5,10.5-9.3,10.5-14.4-.1-1.4-.4-2.8-1-4.1"/><path class="cls-6" d="M1262.7,909.24c-1.8-3.3-5.6-5.1-10.1-5.1-3.4,0-7,1-10.6,2.9-6.5,3.5-10.5,9.3-10.5,14.4,0,1.4,.3,2.8,1,4.1,1.8,3.3,5.6,5,10.1,5,3.4,0,7-.9,10.6-2.8,6.5-3.5,10.5-9.3,10.5-14.4,0-1.4-.3-2.8-1-4.1"/><path class="cls-6" d="M1396.1,896.84c-1.8-3.3-5.6-5.1-10.1-5.1-3.4,0-7,1-10.6,2.9-6.5,3.5-10.5,9.3-10.5,14.4,0,1.4,.3,2.8,1,4.1,1.8,3.3,5.6,5,10.1,5,3.4,0,7-.9,10.6-2.8,6.5-3.5,10.5-9.3,10.5-14.4,0-1.4-.3-2.8-1-4.1"/><path class="cls-6" d="M1655.1,909.24c-1.8-3.3-5.6-5.1-10.1-5.1-3.4,0-7,1-10.6,2.9-6.5,3.5-10.5,9.3-10.5,14.4,0,1.4,.3,2.8,1,4.1,1.8,3.3,5.6,5,10.1,5,3.4,0,7-.9,10.6-2.8,6.5-3.5,10.5-9.3,10.5-14.4,0-1.4-.3-2.8-1-4.1"/><path class="cls-6" d="M1838.1,909.24c-1.8-3.3-5.6-5.1-10.1-5.1-3.4,0-7,1-10.6,2.9-6.5,3.5-10.5,9.3-10.5,14.4,0,1.4,.3,2.8,1,4.1,1.8,3.3,5.6,5,10.1,5,3.4,0,7-.9,10.6-2.8,6.5-3.5,10.5-9.3,10.5-14.4,0-1.4-.3-2.8-1-4.1"/><path class="cls-6" d="M2021,872.04c-1.8-3.3-5.6-5.1-10.1-5.1-3.4,0-7,1-10.6,2.9-6.5,3.5-10.5,9.3-10.5,14.4,0,1.4,.3,2.8,1,4.1,1.8,3.3,5.6,5,10.1,5,3.4,0,7-.9,10.6-2.8,6.5-3.5,10.5-9.3,10.5-14.4,0-1.4-.3-2.8-1-4.1"/><path class="cls-6" d="M2135.4,884.44c-1.8-3.3-5.6-5.1-10.1-5.1-3.4,0-7,1-10.6,2.9-6.5,3.5-10.5,9.3-10.5,14.4,0,1.4,.3,2.8,1,4.1,1.8,3.3,5.6,5,10.1,5,3.4,0,7-.9,10.6-2.8,6.5-3.5,10.5-9.3,10.5-14.4,0-1.4-.3-2.8-1-4.1"/><path class="cls-6" d="M2289.5,896.84c-1.8-3.3-5.6-5.1-10.1-5.1-3.4,0-7,1-10.6,2.9-6.5,3.5-10.5,9.3-10.5,14.4,0,1.4,.3,2.8,1,4.1,1.8,3.3,5.6,5,10.1,5,3.4,0,7-.9,10.6-2.8,6.5-3.5,10.5-9.3,10.5-14.4-.1-1.4-.4-2.8-1-4.1m-4.3,6.7c-1.7,1.7-5.1,3.8-8.6,5.8-3.6,2-7.1,3.5-9.5,4-.5,.1-1,.2-1.5,.2-1.6,0-2.8-.6-3.5-1.9-.3-.5-.5-1.1-.5-1.7,0-1.1,.7-2.4,1.8-3.5,1.7-1.7,5-3.8,8.5-5.8,3.6-2,7.1-3.5,9.5-4,.5-.1,1-.2,1.5-.2,1.6,0,2.9,.6,3.6,1.9,.3,.5,.4,1.1,.4,1.7,0,1.1-.6,2.3-1.7,3.5"/><path class="cls-6" d="M364.9,735.64c-1.8-3.3-5.6-5.1-10.1-5.1-3.4,0-7,1-10.6,2.9-6.5,3.5-10.5,9.3-10.5,14.4,0,1.4,.3,2.8,1,4.1,1.8,3.3,5.6,5,10.1,5,3.4,0,7-.9,10.6-2.8,6.5-3.5,10.5-9.3,10.5-14.4,0-1.5-.3-2.9-1-4.1"/><path class="cls-6" d="M561.9,735.64c-1.8-3.3-5.6-5.1-10.1-5.1-3.4,0-7,1-10.6,2.9-6.5,3.5-10.5,9.3-10.5,14.4,0,1.4,.3,2.8,1,4.1,1.8,3.3,5.6,5,10.1,5,3.4,0,7-.9,10.6-2.8,6.5-3.5,10.5-9.3,10.5-14.4-.1-1.5-.4-2.9-1-4.1"/><path class="cls-6" d="M758.8,735.64c-1.8-3.3-5.6-5.1-10.1-5.1-3.4,0-7,1-10.6,2.9-6.5,3.5-10.5,9.3-10.5,14.4,0,1.4,.3,2.8,1,4.1,1.8,3.3,5.6,5,10.1,5,3.4,0,7-.9,10.6-2.8,6.5-3.5,10.5-9.3,10.5-14.4,0-1.5-.3-2.9-1-4.1"/><path class="cls-6" d="M1002.6,785.24c-1.8-3.3-5.6-5.1-10.1-5.1-3.4,0-7,1-10.6,2.9-6.5,3.5-10.5,9.3-10.5,14.4,0,1.4,.3,2.8,1,4.1,1.8,3.3,5.6,5,10.1,5,3.4,0,7-.9,10.6-2.8,6.5-3.5,10.5-9.3,10.5-14.4-.1-1.5-.4-2.8-1-4.1"/><path class="cls-6" d="M1262.7,785.24c-1.8-3.3-5.6-5.1-10.1-5.1-3.4,0-7,1-10.6,2.9-6.5,3.5-10.5,9.3-10.5,14.4,0,1.4,.3,2.8,1,4.1,1.8,3.3,5.6,5,10.1,5,3.4,0,7-.9,10.6-2.8,6.5-3.5,10.5-9.3,10.5-14.4,0-1.5-.3-2.8-1-4.1"/><path class="cls-6" d="M1396.1,785.24c-1.8-3.3-5.6-5.1-10.1-5.1-3.4,0-7,1-10.6,2.9-6.5,3.5-10.5,9.3-10.5,14.4,0,1.4,.3,2.8,1,4.1,1.8,3.3,5.6,5,10.1,5,3.4,0,7-.9,10.6-2.8,6.5-3.5,10.5-9.3,10.5-14.4,0-1.5-.3-2.8-1-4.1"/><path class="cls-6" d="M1655.1,785.24c-1.8-3.3-5.6-5.1-10.1-5.1-3.4,0-7,1-10.6,2.9-6.5,3.5-10.5,9.3-10.5,14.4,0,1.4,.3,2.8,1,4.1,1.8,3.3,5.6,5,10.1,5,3.4,0,7-.9,10.6-2.8,6.5-3.5,10.5-9.3,10.5-14.4,0-1.5-.3-2.8-1-4.1"/><path class="cls-6" d="M1838.1,785.24c-1.8-3.3-5.6-5.1-10.1-5.1-3.4,0-7,1-10.6,2.9-6.5,3.5-10.5,9.3-10.5,14.4,0,1.4,.3,2.8,1,4.1,1.8,3.3,5.6,5,10.1,5,3.4,0,7-.9,10.6-2.8,6.5-3.5,10.5-9.3,10.5-14.4,0-1.5-.3-2.8-1-4.1"/><path class="cls-6" d="M2021,772.84c-1.8-3.3-5.6-5.1-10.1-5.1-3.4,0-7,1-10.6,2.9-6.5,3.5-10.5,9.3-10.5,14.4,0,1.4,.3,2.8,1,4.1,1.8,3.3,5.6,5,10.1,5,3.4,0,7-.9,10.6-2.8,6.5-3.5,10.5-9.3,10.5-14.4,0-1.5-.3-2.8-1-4.1"/><path class="cls-6" d="M2289.5,760.44c-1.8-3.3-5.6-5.1-10.1-5.1-3.4,0-7,1-10.6,2.9-6.5,3.5-10.5,9.3-10.5,14.4,0,1.4,.3,2.8,1,4.1,1.8,3.3,5.6,5,10.1,5,3.4,0,7-.9,10.6-2.8,6.5-3.5,10.5-9.3,10.5-14.4-.1-1.5-.4-2.9-1-4.1m-4.3,6.7c-1.7,1.7-5.1,3.8-8.6,5.8-3.6,2-7.1,3.5-9.5,4-.5,.1-1,.2-1.5,.2-1.6,0-2.8-.6-3.5-1.9-.3-.5-.5-1.1-.5-1.7,0-1.1,.7-2.4,1.8-3.5,1.7-1.7,5-3.8,8.5-5.8,3.6-2,7.1-3.5,9.5-4,.5-.1,1-.2,1.5-.2,1.6,0,2.9,.6,3.6,1.9,.3,.5,.4,1.1,.4,1.7,0,1.1-.6,2.3-1.7,3.5"/><path class="cls-6" d="M364.9,325.84c-1.8-3.3-5.6-5.1-10.1-5.1-3.4,0-7,1-10.6,2.9-6.5,3.5-10.5,9.3-10.5,14.4,0,1.4,.3,2.8,1,4.1,1.8,3.3,5.6,5,10.1,5,3.4,0,7-.9,10.6-2.8,6.5-3.5,10.5-9.3,10.5-14.4,0-1.4-.3-2.8-1-4.1"/><path class="cls-6" d="M561.9,325.84c-1.8-3.3-5.6-5.1-10.1-5.1-3.4,0-7,1-10.6,2.9-6.5,3.5-10.5,9.3-10.5,14.4,0,1.4,.3,2.8,1,4.1,1.8,3.3,5.6,5,10.1,5,3.4,0,7-.9,10.6-2.8,6.5-3.5,10.5-9.3,10.5-14.4-.1-1.4-.4-2.8-1-4.1"/><path class="cls-6" d="M758.8,325.84c-1.8-3.3-5.6-5.1-10.1-5.1-3.4,0-7,1-10.6,2.9-6.5,3.5-10.5,9.3-10.5,14.4,0,1.4,.3,2.8,1,4.1,1.8,3.3,5.6,5,10.1,5,3.4,0,7-.9,10.6-2.8,6.5-3.5,10.5-9.3,10.5-14.4,0-1.4-.3-2.8-1-4.1"/><path class="cls-6" d="M1002.6,375.44c-1.8-3.3-5.6-5.1-10.1-5.1-3.4,0-7,1-10.6,2.9-6.5,3.5-10.5,9.3-10.5,14.4,0,1.4,.3,2.8,1,4.1,1.8,3.3,5.6,5,10.1,5,3.4,0,7-.9,10.6-2.8,6.5-3.5,10.5-9.3,10.5-14.4-.1-1.4-.4-2.8-1-4.1"/><path class="cls-6" d="M1262.7,363.04c-1.8-3.3-5.6-5.1-10.1-5.1-3.4,0-7,1-10.6,2.9-6.5,3.5-10.5,9.3-10.5,14.4,0,1.4,.3,2.8,1,4.1,1.8,3.3,5.6,5,10.1,5,3.4,0,7-.9,10.6-2.8,6.5-3.5,10.5-9.3,10.5-14.4,0-1.4-.3-2.8-1-4.1"/><path class="cls-6" d="M1396.1,350.64c-1.8-3.3-5.6-5.1-10.1-5.1-3.4,0-7,1-10.6,2.9-6.5,3.5-10.5,9.3-10.5,14.4,0,1.4,.3,2.8,1,4.1,1.8,3.3,5.6,5,10.1,5,3.4,0,7-.9,10.6-2.8,6.5-3.5,10.5-9.3,10.5-14.4,0-1.4-.3-2.8-1-4.1"/><path class="cls-6" d="M1655.1,338.24c-1.8-3.3-5.6-5.1-10.1-5.1-3.4,0-7,1-10.6,2.9-6.5,3.5-10.5,9.3-10.5,14.4,0,1.4,.3,2.8,1,4.1,1.8,3.3,5.6,5,10.1,5,3.4,0,7-.9,10.6-2.8,6.5-3.5,10.5-9.3,10.5-14.4,0-1.4-.3-2.8-1-4.1"/><path class="cls-6" d="M1838.1,338.24c-1.8-3.3-5.6-5.1-10.1-5.1-3.4,0-7,1-10.6,2.9-6.5,3.5-10.5,9.3-10.5,14.4,0,1.4,.3,2.8,1,4.1,1.8,3.3,5.6,5,10.1,5,3.4,0,7-.9,10.6-2.8,6.5-3.5,10.5-9.3,10.5-14.4,0-1.4-.3-2.8-1-4.1"/><path class="cls-6" d="M2021,363.04c-1.8-3.3-5.6-5.1-10.1-5.1-3.4,0-7,1-10.6,2.9-6.5,3.5-10.5,9.3-10.5,14.4,0,1.4,.3,2.8,1,4.1,1.8,3.3,5.6,5,10.1,5,3.4,0,7-.9,10.6-2.8,6.5-3.5,10.5-9.3,10.5-14.4,0-1.4-.3-2.8-1-4.1"/><path class="cls-6" d="M2289.5,375.44c-1.8-3.3-5.6-5.1-10.1-5.1-3.4,0-7,1-10.6,2.9-6.5,3.5-10.5,9.3-10.5,14.4,0,1.4,.3,2.8,1,4.1,1.8,3.3,5.6,5,10.1,5,3.4,0,7-.9,10.6-2.8,6.5-3.5,10.5-9.3,10.5-14.4-.1-1.4-.4-2.8-1-4.1m-4.3,6.8c-1.7,1.7-5.1,3.8-8.6,5.8-3.6,2-7.1,3.5-9.5,4-.5,.1-1,.2-1.5,.2-1.6,0-2.8-.6-3.5-1.9-.3-.5-.5-1.1-.5-1.7,0-1.1,.7-2.4,1.8-3.5,1.7-1.7,5-3.8,8.5-5.8,3.6-2,7.1-3.5,9.5-4,.5-.1,1-.2,1.5-.2,1.6,0,2.9,.6,3.6,1.9,.3,.5,.4,1.1,.4,1.7,0,1.1-.6,2.3-1.7,3.5"/><path class="cls-6" d="M186,1127.94c-7.5,0-13.6,4.4-13.7,4.4-5.8,4.3-8,9.3-8.9,12.8-.5,1.8-.7,3.6-.7,5.3,0,2.4,.4,4.6,1.3,6.4,1.2,2.7,3.5,4.6,6.4,5.6,1.2,.4,2.5,.6,3.8,.6,2.2,0,4.5-.6,6.3-1.7,3.1-1.7,5-5.3,5-9.1,0-3.5-1.8-6.6-4.8-8.5-2.1-1.4-4.1-1.8-5.8-1.8-1.2,0-2.3,.2-3.2,.5-1,.4-2.7,1.4-3.5,2.1,.3-1.9,1.5-4.8,2.6-6.3s3.3-3.6,5-4.5c2.5-1.4,5.7-2,9.1-2,10.1,0,15.1,8.1,15.1,24.8,0,9.2-3.5,18.1-6.4,23.9-3.3,6.5-7.6,12.8-11.5,16.3-10.3,9.4-20,13.9-20.1,13.9,0,0-1.5,.9-1.1,2.4,.3,1,1.2,1.2,1.8,1.2,.1,0,.4-.1,.5-.1s11.4-4.7,20.4-11.7c5.1-3.7,9.6-7.6,13.6-11.9,3.6-3.9,6.6-8,9.1-12.2,4.4-7.4,6.8-15.2,6.8-21.8,0-8.2-2.2-15.1-6.3-19.9-4.5-5.8-11.6-8.7-20.8-8.7m31.2,12.6c0,2.8,2.2,5,4.8,5s4.8-2.2,4.8-5-2.2-5.1-4.8-5.1-4.8,2.4-4.8,5.1m0,24.5c0,2.8,2.2,5.1,4.8,5.1s4.8-2.3,4.8-5.1-2.2-5.1-4.8-5.1-4.8,2.4-4.8,5.1"/><path class="cls-6" d="M186,904.74c-7.5,0-13.6,4.4-13.7,4.4-5.8,4.3-8,9.3-8.9,12.8-.5,1.8-.7,3.6-.7,5.3,0,2.4,.4,4.6,1.3,6.4,1.2,2.7,3.5,4.6,6.4,5.6,1.2,.4,2.5,.6,3.8,.6,2.2,0,4.5-.6,6.3-1.7,3.1-1.7,5-5.3,5-9.1,0-3.5-1.8-6.6-4.8-8.5-2.1-1.4-4.1-1.8-5.8-1.8-1.2,0-2.3,.2-3.2,.5-1,.4-2.7,1.4-3.5,2.1,.3-1.9,1.5-4.8,2.6-6.3s3.3-3.6,5-4.5c2.5-1.4,5.7-2,9.1-2,10.1,0,15.1,8.1,15.1,24.8,0,9.2-3.5,18.1-6.4,23.9-3.3,6.5-7.6,12.8-11.5,16.3-10.3,9.4-20,13.9-20.1,13.9,0,0-1.5,.9-1.1,2.4,.3,1,1.2,1.2,1.8,1.2,.1,0,.4-.1,.5-.1s11.4-4.7,20.4-11.7c5.1-3.7,9.6-7.6,13.6-11.9,3.6-3.9,6.6-8,9.1-12.2,4.4-7.4,6.8-15.2,6.8-21.8,0-8.2-2.2-15.1-6.3-19.9-4.5-5.8-11.6-8.7-20.8-8.7m31.2,12.6c0,2.8,2.2,5,4.8,5s4.8-2.2,4.8-5-2.2-5.1-4.8-5.1-4.8,2.3-4.8,5.1m0,24.5c0,2.8,2.2,5.1,4.8,5.1s4.8-2.3,4.8-5.1-2.2-5.1-4.8-5.1-4.8,2.3-4.8,5.1"/><path class="cls-6" d="M223.7,750.24c-1.2-5.4-3.8-9.2-4.6-10.2-3.2-4.2-7.1-7.1-11.8-8.4-3.1-.9-6.1-1-8.5-.8-1-6-2-11.8-2.9-17.2,5.4-6.1,9-11.9,11.3-16.1,3.4-6.5,4.6-11.1,4.6-11.3,1.7-5.2,2.1-12.8,1-21-1-7.5-3.1-14.1-5.4-17.4-1-1.4-2.1-2.1-3.1-2.1-1.2,0-3.7,1.2-6.6,4-2.3,2.2-5.5,6-8.1,12-3,7-3.2,16.4-2.8,23.1,.4,7.2,1.5,12.9,1.5,12.9,0,.1,.3,1.6,.7,4.1-.2,.2-.5,.4-.7,.7-1,1-2.2,2.1-3.6,3.5-.9,.9-1.8,1.8-2.8,2.7-8.4,8.1-21.1,20.3-21.1,39.3,0,4.7,.9,9,2.7,13,1.6,3.6,3.9,6.8,6.8,9.7,7.7,7.5,18.2,10.7,25.2,10.5,2.9-.1,5.5-.3,7.9-.8,1.8,9.5,2.9,16.5,3,21.8,0,6.5-1.6,10.4-5.5,13.1-2.4,1.7-5.2,2.7-8.3,2.8-2.6,.1-4.8-.3-6.2-.8h0s-.3-.1-.3-.3,.3-.2,.3-.2h0c1.9-.4,5.4-1.7,7.8-4.9,1.8-2.5,2.6-7.1,.8-11-1.1-2.4-3.6-5.3-9.2-5.7-2.5-.2-4.7,.3-6.7,1.5-1.8,1.1-3.3,2.7-4.3,4.7-2.4,4.7-2,10.3,1.1,14.2,2.9,3.6,7.5,5.9,12.9,6.5,.8,.1,1.7,.1,2.5,.1,4.4,0,8.8-1.2,12.3-3.4,3.6-2.5,5.7-6.5,6.4-12.1,.6-4.6,.2-10.5-1.2-18.5-.4-2.1-.9-5.1-1.5-8.8,5.7-1.9,9.8-5.4,13.6-11.3,3.2-5.6,4.2-11.7,2.8-17.9m-34,26c-4.6-1.2-9-3.7-12.7-7.2-1.3-1.2-3.2-3.4-4.6-6.7-1.4-3.1-2-6.5-2-10.1,.1-4.7,1.4-9.4,3.9-14.2,2.9-5.5,7.4-11,13.4-16.3,1.4-1.3,2.8-2.5,4.1-3.8,.8,4.2,1.6,8.9,2.5,13.7-3.8,1.3-8.5,4.4-11.6,10-3.5,6.5-3.4,12-2.6,15.4,.9,4.4,3.4,8.2,6.9,10.2,.9,.6,5,2.7,6.8,2.1,.4-.1,.6-.3,.8-.7,.5-1.2-.5-1.8-2.1-2.7-.6-.4-1.3-.8-2-1.3-3.3-2.5-4.7-6.9-3.7-11.2,.6-2.4,1.8-4.5,3.7-6.2,1.7-1.5,3.7-2.6,6-3.3,2,11.2,4.1,22.2,5.7,30.5,.1,.7,.3,1.3,.4,2-4.4,.9-8.7,.9-12.9-.2m11.3-33c10.3-.5,14.5,6.9,15.4,11.7,.5,2.5,.5,6.9-1.1,11.1-1.2,3.2-3.6,7.2-8.7,9.2-.1-.4-.1-.8-.2-1.3-1.6-8.6-3.5-19.5-5.4-30.7m-7.3-70.3c1.8-5.7,4.5-8.9,6.5-10.6,1.7-1.5,3.4-2.2,4.3-2.2h.4c.5,.1,1,.7,1.4,1.6,2.3,4.3,1.6,10.9,.2,15.3-1.6,5.4-4.5,10.9-13.2,20.5-.2-1.1-.3-2.1-.5-3.1-1.3-8.3-1-15.5,.9-21.5"/><path class="cls-6" d="M223.7,365.34c-1.2-5.4-3.8-9.2-4.6-10.2-3.2-4.2-7.1-7.1-11.8-8.4-3.1-.9-6.1-1-8.5-.8-1-6-2-11.8-2.9-17.2,5.4-6.1,9-11.9,11.3-16.1,3.4-6.5,4.6-11.1,4.6-11.3,1.7-5.2,2.1-12.8,1-21-1-7.5-3.1-14.1-5.4-17.4-1-1.4-2.1-2.1-3.1-2.1-1.2,0-3.7,1.2-6.6,4-2.3,2.2-5.5,6-8.1,12-3,7-3.2,16.4-2.8,23.1,.4,7.2,1.5,12.9,1.5,12.9,0,.1,.3,1.6,.7,4.1-.2,.2-.5,.4-.7,.7-1,1-2.2,2.1-3.6,3.5-.9,.9-1.8,1.8-2.8,2.7-8.4,8.1-21.1,20.3-21.1,39.3,0,4.7,.9,9,2.7,13,1.6,3.6,3.9,6.8,6.8,9.7,7.7,7.5,18.2,10.7,25.2,10.5,2.9-.1,5.5-.3,7.9-.8,1.8,9.5,2.9,16.5,3,21.8,0,6.5-1.6,10.4-5.5,13.1-2.4,1.7-5.2,2.7-8.3,2.8-2.6,.1-4.8-.3-6.2-.8h0s-.3-.1-.3-.3,.3-.2,.3-.2h0c1.9-.4,5.4-1.7,7.8-4.9,1.8-2.5,2.6-7.1,.8-11-1.1-2.4-3.6-5.3-9.2-5.7-2.5-.2-4.7,.3-6.7,1.5-1.8,1.1-3.3,2.7-4.3,4.7-2.4,4.7-2,10.3,1.1,14.2,2.9,3.6,7.5,5.9,12.9,6.5,.8,.1,1.7,.1,2.5,.1,4.4,0,8.8-1.2,12.3-3.4,3.6-2.5,5.7-6.5,6.4-12.1,.6-4.6,.2-10.5-1.2-18.5-.4-2.1-.9-5.1-1.5-8.8,5.7-1.9,9.8-5.4,13.6-11.3,3.2-5.6,4.2-11.7,2.8-17.9m-34,25.9c-4.6-1.2-9-3.7-12.7-7.2-1.3-1.2-3.2-3.4-4.6-6.7-1.4-3.1-2-6.5-2-10.1,.1-4.7,1.4-9.4,3.9-14.2,2.9-5.5,7.4-11,13.4-16.3,1.4-1.3,2.8-2.5,4.1-3.8,.8,4.2,1.6,8.9,2.5,13.7-3.8,1.3-8.5,4.4-11.6,10-3.5,6.5-3.4,12-2.6,15.4,.9,4.4,3.4,8.2,6.9,10.2,.9,.6,5,2.7,6.8,2.1,.4-.1,.6-.3,.8-.7,.5-1.2-.5-1.8-2.1-2.7-.6-.4-1.3-.8-2-1.3-3.3-2.5-4.7-6.9-3.7-11.2,.6-2.4,1.8-4.5,3.7-6.2,1.7-1.5,3.7-2.6,6-3.3,2,11.2,4.1,22.2,5.7,30.5,.1,.7,.3,1.3,.4,2-4.4,1-8.7,.9-12.9-.2m11.3-32.9c10.3-.5,14.5,6.9,15.4,11.7,.5,2.5,.5,6.9-1.1,11.1-1.2,3.2-3.6,7.2-8.7,9.2-.1-.4-.1-.8-.2-1.3-1.6-8.6-3.5-19.5-5.4-30.7m-7.3-70.4c1.8-5.7,4.5-8.9,6.5-10.6,1.7-1.5,3.4-2.2,4.3-2.2h.4c.5,.1,1,.7,1.4,1.6,2.3,4.3,1.6,10.9,.2,15.3-1.6,5.4-4.5,10.9-13.2,20.5-.2-1.1-.3-2.1-.5-3.1-1.3-8.2-1-15.5,.9-21.5"/><path class="cls-6" d="M271.4,1194.64c-.6-3.9-3-7.5-8-7.5s-7.8,3.1-8.3,3.7l.4-31.8c0-.8-.6-1.4-1.4-1.4h-1.2c-.8,0-1.4,.6-1.4,1.4l.5,59.6c0,.8,.6,1.4,1.4,1.4,.2,0,.6-.1,.8-.2,.4-.2,6.8-3.4,12.2-9.4,3.8-4.3,5.3-9.1,5.3-13.2-.1-1-.2-1.8-.3-2.6m-6.8,3.9c0,1.5-.4,6.1-2.9,9.8-1.7,2.6-5.1,5.3-6.9,6.7l.3-19.3c.2-.9,1.7-3.8,5.7-3.8,3.6,0,3.9,3.4,3.9,5.5v1.1"/><path class="cls-6" d="M271.4,971.44c-.6-3.9-3-7.5-8-7.5s-7.8,3.1-8.3,3.7l.4-31.8c0-.8-.6-1.4-1.4-1.4h-1.2c-.8,0-1.4,.6-1.4,1.4l.5,59.6c0,.8,.6,1.4,1.4,1.4,.2,0,.6-.1,.8-.2,.4-.2,6.8-3.4,12.2-9.4,3.8-4.3,5.3-9.1,5.3-13.2-.1-1-.2-1.8-.3-2.6m-6.8,3.9c0,1.5-.4,6.1-2.9,9.8-1.7,2.6-5.1,5.3-6.9,6.7l.3-19.3c.2-.9,1.7-3.8,5.7-3.8,3.6,0,3.9,3.4,3.9,5.5v1.1"/><path class="cls-6" d="M271.4,723.44c-.6-3.9-3-7.5-8-7.5s-7.8,3.1-8.3,3.7l.4-31.8c0-.8-.6-1.4-1.4-1.4h-1.2c-.8,0-1.4,.6-1.4,1.4l.5,59.6c0,.8,.6,1.4,1.4,1.4,.2,0,.6-.1,.8-.2,.4-.2,6.8-3.4,12.2-9.4,3.8-4.3,5.3-9.1,5.3-13.2-.1-1.1-.2-1.9-.3-2.6m-6.8,3.8c0,1.5-.4,6.1-2.9,9.8-1.7,2.6-5.1,5.3-6.9,6.7l.3-19.3c.2-.9,1.7-3.8,5.7-3.8,3.6,0,3.9,3.4,3.9,5.5v1.1"/><path class="cls-6" d="M271.4,338.44c-.6-3.9-3-7.5-8-7.5s-7.8,3.1-8.3,3.7l.4-31.8c0-.8-.6-1.4-1.4-1.4h-1.2c-.8,0-1.4,.6-1.4,1.4l.5,59.6c0,.8,.6,1.4,1.4,1.4,.2,0,.6-.1,.8-.2,.4-.2,6.8-3.4,12.2-9.4,3.8-4.3,5.3-9.1,5.3-13.2-.1-1-.2-1.8-.3-2.6m-6.8,3.9c0,1.5-.4,6.1-2.9,9.8-1.7,2.6-5.1,5.3-6.9,6.7l.3-19.3c.2-.9,1.7-3.8,5.7-3.8,3.6,0,3.9,3.4,3.9,5.5v1.1"/><path class="cls-6" d="M2475.9,1194.44l-.2-.3c-.1-.1-.3-.3-.6-.7l-11.4-14.1c-.3-.3-.2-1.1,0-1.5l10.1-15.3c.1-.2,.2-.5,.2-.7v-.9c0-.3-.1-.6-.3-.8l-16.1-21.7s-.8-1.2-1.8-.3c-1,.8-.2,2.1-.2,2.1l7.5,10.3c.4,.6,.4,1.8,0,2.4l-10,15.3c-.1,.2-.2,.6-.2,.8v.9c0,.3,.1,.6,.3,.8l11.1,13.8c-.4-.1-1.3-.3-2.5-.3-1.7,0-3.9,.4-5.7,2-2.2,2-3.4,4.8-3.4,7.2,0,1.4,.3,2.8,1.1,3.9,2.1,3.2,9.5,12.6,9.5,12.6,0,0,.9,1.1,1.8,.4,.9-.7,.7-1.6,.4-2.1s-3.5-6.3-3.5-6.3c0,0-.7-1.4-.7-3.2,0-1.3,.4-2.9,1.7-4.2,1.2-1.2,2.6-1.6,3.9-1.6s2.4,.4,3.2,.9l3.9,2.5s1.2,.6,1.8-.3c.6-.7,.4-1.1,.1-1.6"/><path class="cls-6" d="M2475.9,971.24l-.2-.3c-.1-.1-.3-.3-.6-.7l-11.4-14.1c-.3-.3-.2-1.1,0-1.5l10.1-15.3c.1-.2,.2-.5,.2-.7v-.9c0-.3-.1-.6-.3-.8l-16.1-21.7s-.8-1.2-1.8-.3c-1,.8-.2,2.1-.2,2.1l7.5,10.3c.4,.6,.4,1.8,0,2.4l-10,15.3c-.1,.2-.2,.6-.2,.8v.9c0,.3,.1,.6,.3,.8l11.1,13.8c-.4-.1-1.3-.3-2.5-.3-1.7,0-3.9,.4-5.7,2-2.2,2-3.4,4.8-3.4,7.2,0,1.4,.3,2.8,1.1,3.9,2.1,3.2,9.5,12.6,9.5,12.6,0,0,.9,1.1,1.8,.4,.9-.7,.7-1.6,.4-2.1s-3.5-6.3-3.5-6.3c0,0-.7-1.4-.7-3.2,0-1.3,.4-2.9,1.7-4.2,1.2-1.2,2.6-1.6,3.9-1.6s2.4,.4,3.2,.9l3.9,2.5s1.2,.6,1.8-.3c.6-.7,.4-1.1,.1-1.6"/><path class="cls-6" d="M2475.9,748.04l-.2-.3c-.1-.1-.3-.3-.6-.7l-11.4-14.1c-.3-.3-.2-1.1,0-1.5l10.1-15.3c.1-.2,.2-.5,.2-.7v-.9c0-.3-.1-.6-.3-.8l-16.1-21.7s-.8-1.2-1.8-.3c-1,.8-.2,2.1-.2,2.1l7.5,10.3c.4,.6,.4,1.8,0,2.4l-10,15.3c-.1,.2-.2,.6-.2,.8v.9c0,.3,.1,.6,.3,.8l11.1,13.8c-.4-.1-1.3-.3-2.5-.3-1.7,0-3.9,.4-5.7,2-2.2,2-3.4,4.8-3.4,7.2,0,1.4,.3,2.8,1.1,3.9,2.1,3.2,9.5,12.6,9.5,12.6,0,0,.9,1.1,1.8,.4,.9-.7,.7-1.6,.4-2.1s-3.5-6.3-3.5-6.3c0,0-.7-1.4-.7-3.2,0-1.3,.4-2.9,1.7-4.2,1.2-1.2,2.6-1.6,3.9-1.6s2.4,.4,3.2,.9l3.9,2.5s1.2,.6,1.8-.3c.6-.7,.4-1.1,.1-1.6"/><path class="cls-6" d="M2475.9,363.04l-.2-.3c-.1-.1-.3-.3-.6-.7l-11.4-14.1c-.3-.3-.2-1.1,0-1.5l10.1-15.3c.1-.2,.2-.5,.2-.7v-.9c0-.3-.1-.6-.3-.8l-16.1-21.7s-.8-1.2-1.8-.3c-1,.8-.2,2.1-.2,2.1l7.5,10.3c.4,.6,.4,1.8,0,2.4l-10,15.3c-.1,.2-.2,.6-.2,.8v.9c0,.3,.1,.6,.3,.8l11.1,13.8c-.4-.1-1.3-.3-2.5-.3-1.7,0-3.9,.4-5.7,2-2.2,2-3.4,4.8-3.4,7.2,0,1.4,.3,2.8,1.1,3.9,2.1,3.2,9.5,12.6,9.5,12.6,0,0,.9,1.1,1.8,.4,.9-.7,.7-1.6,.4-2.1s-3.5-6.3-3.5-6.3c0,0-.7-1.4-.7-3.2,0-1.3,.4-2.9,1.7-4.2,1.2-1.2,2.6-1.6,3.9-1.6s2.4,.4,3.2,.9l3.9,2.5s1.2,.6,1.8-.3c.6-.7,.4-1.1,.1-1.6"/><path class="cls-7" d="M1989.8,948.24l117.1,6.3v12.4l-117.1-6.3v-12.4"/><path class="cls-6" d="M1234,1252.54c0-.2,.9-3.6,1-3.9,.1-.4,1.9-6.1,5.6-11.7,2.7-4.2,12.1-16.4,11.8-16.4,0,0,7.3-9.4,7.8-22.2v-2.3c0-6.1-.8-14.6-4.3-23.2-.4-1-.8-2-1.9-1.6s-.8,1.6-.5,2.7c1.8,6.9,2.8,14.1,2.8,21.2,0,8.3-3,12.5-4.8,15.6-6.5,11-15.1,16.4-19.2,17.8-.5,.2-.8,.6-.8,1.1v22.5c0,.7,.6,1.3,1.3,1.3,.5-.1,1.1-.5,1.2-.9"/><path class="cls-6" d="M1234,1004.44c0-.2,.9-3.6,1-3.9,.1-.4,1.9-6.1,5.6-11.7,2.7-4.2,12.1-16.4,11.8-16.4,0,0,7.3-9.4,7.8-22.2v-2.3c0-6.1-.8-14.6-4.3-23.2-.4-1-.8-2-1.9-1.6s-.8,1.6-.5,2.7c1.8,6.9,2.8,14.1,2.8,21.2,0,8.3-3,12.5-4.8,15.6-6.5,11-15.1,16.4-19.2,17.8-.5,.2-.8,.6-.8,1.1v22.4c0,.7,.6,1.3,1.3,1.3,.5,0,1.1-.4,1.2-.8"/><path class="cls-6" d="M1264.5,709.94c-.1-.3-1-3.8-1-4-.1-.4-.7-.7-1.2-.7-.7,0-1.3,.6-1.3,1.3v22.5c0,.5,.4,.9,.8,1.1,4.2,1.3,12.8,6.7,19.2,17.8,1.8,3.1,4.7,7.2,4.7,15.6,0,7.1-1.1,14.7-2.9,21.6-.3,1.1-.6,2.1,.5,2.5s1.5-.4,1.9-1.4c3.6-8.7,4.5-17.9,4.5-24v-1.9c-.5-12.8-7.8-22.2-7.8-22.2,.3,0-9.1-12.2-11.8-16.4-3.8-5.8-5.5-11.4-5.6-11.8"/><path class="cls-6" d="M1264.5,290.84c-.1-.3-1-3.8-1-4-.1-.4-.7-.7-1.2-.7-.7,0-1.3,.6-1.3,1.3v22.5c0,.5,.4,.9,.8,1.1,4.2,1.3,12.8,6.7,19.2,17.8,1.8,3.1,4.7,7.2,4.7,15.6,0,7.1-1.1,14.7-2.9,21.6-.3,1.1-.6,2.1,.5,2.5s1.5-.4,1.9-1.4c3.6-8.7,4.5-17.9,4.5-24v-1.9c-.5-12.8-7.8-22.2-7.8-22.2,.3,0-9.1-12.2-11.8-16.4-3.8-5.7-5.5-11.4-5.6-11.8"/><path class="cls-6" d="M330.9,481.54c.6-.8,2.6-3,4.5-4.8,1.8-1.7,2.2-2.1,2.6-2.8h.1c-.1,1.2-.1,1.6-.1,7.7q0,7.9-.2,9.5h4c-.2-2.3-.3-4.8-.3-19.8,6.6-5.9,11-8.2,16-8.2,5.7,0,9.5,3.9,9.5,9.8,0,2.2-.5,4.1-1.4,6-1.9,3.5-5.7,5.6-10,5.6-3,0-6.1-.7-8.9-1.9,.3,1.4,.4,2,.4,2.9v.9c3.1,1,5.6,1.5,8.5,1.5,9.1,0,15.1-6,15.1-15.1,0-7.6-5.5-13-13.5-13-4.5,0-8.3,1.5-12.6,5-1.5,1.2-2.4,2-2.9,2.5l-.1,.2h-.1c0-.1,.1-1.8,.2-5q1.9-2.7,2.6-3.2l-1.3-1.7c-.4,.2-.5,.2-1.2,.3q.1-1.1,.1-2.8c.1-3.6,.2-4.3,.5-5.8h-3.9c.1,.8,.1,1.2,.1,2,0,1.9-.1,3.8-.2,6.9-4.1,.3-6.2,.4-6.9,.4h-1.4l.2,3.5c1.2-.2,2.2-.4,5.5-.6q1.9-.1,2.6-.1c-.1,4.2-.1,4.7-.2,8.8q-.6,.5-1.5,1.3-1.7,1.5-3.4,3.2c-2.4,2.3-3.4,3.1-4.3,3.7l1.9,3.1"/><path class="cls-6" d="M353.7,510.04c-2.8,1-5.9,1.6-10.2,2.1v-4.8c0-2.3,0-3.2,.2-4.6h-3.7c.2,1.5,.2,2.8,.2,4.8v4.9c-1.5,.1-3.4,.2-4.8,.2-2.2,0-3.6-.1-5.1-.3v3.3h7.9q1.6-.1,2-.2v9.5c-3.1,1.3-5.2,2.5-7,4.1-2.7,2.3-4,4.5-4,6.7,0,1.8,.8,3.3,2.3,4.7,2.2,2,5.4,3.2,8.2,3.2,2.4,0,3.6-1.3,3.6-4v-12.5c4.2-1.4,7.4-2,10.6-2,6.6,0,10.7,3,10.7,8,0,4.1-2.8,7-6.7,7-3.6,0-5.1-2.2-5.1-7.4,0-.6,0-1,.1-1.9-1.2,.7-1.8,.9-3.3,1.3,0,2.5,.2,4,.6,5.6,1,3.6,3.8,5.7,7.7,5.7,5.8,0,10.2-4.5,10.2-10.3,0-3.7-1.8-6.9-5.2-8.9-2.3-1.4-5.3-2.1-8.8-2.1-3.3,0-6.4,.5-10.8,1.8v-8.7c2.4-.2,4.8-.6,8.8-1.5,.7-.1,.9-.2,1.5-.3l.1-3.4m-13.5,27.6c0,2.2-.1,2.5-1.1,2.5-1.3,0-3.1-.6-4.4-1.5-1.5-1-2.2-2-2.2-3,0-2.4,2.8-5.1,7.8-7.5v9.5m30-21.1c-3-3.9-5.5-6.2-10.1-9.5l-2.6,1.9c3.9,2.7,7.4,6.1,10.1,9.8l2.6-2.2"/><path class="cls-6" d="M333.9,563.14c1.2-.1,1.7-.2,3.7-.2,4.8-.1,5.5-.2,9.4-.5-1.8,5.8-2.4,7.7-4,12.6-3.9,0-6.4,.6-9,2.1-3.8,2.2-5.9,5.8-5.9,9.9,0,4.6,2.8,8.2,6.6,8.2,2.4,0,4.2-1.5,6.1-5,1.2-2.4,3.1-7.2,4.7-12,5.1,.5,9.3,1.8,13.8,4.1-.7,3-2.3,5.9-4.6,8.4-2.2,2.5-4.3,4-8.1,5.8,1.1,.8,1.5,1.2,2.6,2.6,3-1.5,5.7-3.5,8-6.1,2.5-2.8,4-5.5,5.2-9,3.7,2,6.2,3.7,7.8,4.9l1.3-3.8c-.7-.3-1-.5-1.5-.8-2.4-1.5-4.1-2.3-6.8-3.8,.5-3,.8-5.8,.9-10.8,0-1.9,0-2.2,.2-3.1h-3.8c.2,.9,.2,1.3,.2,2.5,0,5.2-.1,7.3-.6,10.1-5.2-2.4-8.9-3.4-13.7-3.9,.9-2.7,1.2-3.6,2.4-7,2-6.1,2.1-6.4,2.8-7.2l-2.7-2.1c-.5,.4-1,.5-1.9,.6-1.6,.2-5.6,.3-8.4,.3-2.5,0-3.5,0-4.9-.3l.2,3.5m8.1,14.8c-3.6,10.6-5.4,13.8-7.4,13.8-1.8,0-3.2-2.1-3.2-4.8,0-2.2,.9-4.2,2.4-5.8,2-1.9,4.5-2.9,8.2-3.2"/><path class="cls-6" d="M549.4,455.74c-3.4,.1-7.3,.2-12.1,.4q-8,.3-9.5,.3h-2l.2,3.7c3.3-.6,13.5-1.1,23.5-1.2v6.7c-1.3-1.5-3.4-2.2-5.8-2.2-5.1,0-8.8,3.5-8.8,8.2s3.4,7.9,8.2,7.9c2.7,0,4.8-.9,6.3-2.7,.6-.7,.9-1.3,1.3-2.5-.2,4.6-2,7.8-5.6,10.6-2,1.5-4.2,2.5-8.1,3.8,1,1.1,1.4,1.6,2.2,3.2,3.7-1.4,5.8-2.5,7.9-4,4.3-3.2,6.7-7.9,6.7-13.1,0-2.2-.3-3.8-1.2-5.9v-9.9c4-.1,4.6-.1,5.3-.1,6,0,7.7,0,9.5,.2v-3.5c-1.6,.2-5.5,.3-15,.3v-.5c0-3.9,.1-4.7,.2-6.2h-3.8c.2,1,.2,1.6,.2,2.9l.4,3.6m-.1,14.6c0,3.5-2.4,5.9-5.8,5.9-3.1,0-5.2-2.1-5.2-4.9,0-3,2.4-5.2,5.5-5.2,1.4,0,2.4,.2,3.4,.8,1.4,.7,2.1,1.8,2.1,3.4"/><path class="cls-6" d="M528.6,526.24c.6,0,.8,0,1.5,.3,2.2,.5,4.5,1,7.5,1.2q0,.5-.1,1.2c-.2,1.2-.2,2.2-.2,3.3,0,2.8,.5,5.2,1.5,6.9,2,3.2,6,5,11.2,5,8.8,0,14.7-4.8,14.7-11.8,0-3.6-1.2-6.1-4.7-10-1.5,.7-2,.8-3.7,1,3.2,2.8,4.8,5.6,4.8,8.7,0,5.3-4.3,8.8-11,8.8-3,0-5.5-.8-7-2.1-1.5-1.4-2.3-3.2-2.3-6,0-.9,.1-2.5,.2-3.7v-1c2.2,.1,3,.1,4.3,.1,2.3,0,4.5-.1,7-.4,.7-.1,.9-.1,1.4-.1l.1-3.3c-2,.5-5.6,.8-9.2,.8h-3.3c.3-2.8,.3-3.3,1.2-9,2.8,.1,3.6,.1,4.4,.1,1.5,0,3,0,4.5-.2q2.5-.2,3.5-.3l.2-3.5c-2.2,.5-5.4,.9-9.2,.9-.8,0-1.5,0-2.9-.1,.2-1.4,.3-1.9,.5-3q.4-2.8,.5-3.2c.3-1.8,.5-2.4,.8-3.4l-4-.5v.4c0,1.3-.4,4.6-1.2,9.4-3.5-.3-6.8-1.1-9-2l-.5,3.3c.7,.2,.9,.2,1.5,.3,3,.7,5.1,1.1,7.5,1.4-.4,2.6-.9,6.5-1.1,9-3.8-.5-7-1.1-9-2l-.4,3.5"/><path class="cls-6" d="M547.3,563.74c-2.6,0-7,.2-12.1,.4q-8.1,.3-9.5,.3c-.8,0-1.1,0-2-.1l.1,3.7c1.6-.4,15.6-1.2,23.5-1.2v3.8c0,1.8,0,1.9,.1,2.8-1.3-1.5-3.4-2.2-5.8-2.2-5.1,0-8.9,3.5-8.9,8.2s3.5,7.9,8.2,7.9c2.6,0,4.8-.9,6.3-2.7,.6-.7,.9-1.2,1.3-2.4-.2,7-4.6,11.5-13.7,14.3,1,1,1.4,1.6,2.2,3.1,3.7-1.4,5.9-2.5,7.9-4,4.3-3.2,6.7-7.8,6.7-13,0-2.2-.4-3.8-1.2-5.9v-9.9c4-.1,4.6-.1,5.3-.1,6,0,7.7,.1,9.6,.2v-3.5c-1.2,.2-1.8,.2-3.3,.2h-8.8c-.8,0-1,0-2.8,.1v-.6c0-3.9,0-4.6,.2-6.2h-3.8c.1,1,.2,1.5,.2,2.9l.1,3.5v.4m-5.4,10.3c1.2,0,2.5,.3,3.3,.8,1.5,.8,2.1,1.9,2.1,3.5,0,3.5-2.4,5.9-5.8,5.9-3,0-5.2-2-5.2-5,0-2.9,2.4-5.2,5.6-5.2m13.2-18.7c1.6,1.6,3.2,4,5,7l2.5-1.5c-1-1.9-2.8-4.2-5-6.8l-2.5,1.3m7.2-1c1.9,2.2,3.4,4.4,5.2,7.5l2.5-1.5c-1.1-2.1-3.2-5-5.2-7.4l-2.5,1.4"/><path class="cls-6" d="M723.3,482.84c.4-.5,.5-.7,1.3-1.6s1.5-1.8,2.1-2.3q1.7-1.9,2.5-2.8c.5-.7,.7-.8,.9-1.2h.1q-.2,2.3-.2,8.1,0,6.4-.3,8.2h3.9c-.1-1.5-.1-1.9-.1-8.3v-10.8c5.2-5,6.6-6.3,9.6-8.5,3.2-2.3,5.6-3.4,7.6-3.4,1.7,0,2.8,1,2.8,2.7,0,1.4-.2,3-1.2,7.5-1.8,8.6-1.9,9.1-1.9,11.7,0,2.8,.7,4.5,2.3,5.7,.9,.6,2.2,1,3.5,1,2.7,0,4.9-1.2,6.9-3.6,1.2-1.4,1.7-2.3,3.1-5-.9-1.1-1.2-1.5-2.3-3.4-.6,2-1.6,4-2.8,5.8-1.2,1.7-2.9,2.8-4.2,2.8-2,0-3-1.2-3-3.5,0-2,.3-3.8,2.1-11.8,.9-3.8,1.2-5.6,1.2-7.3,0-3.6-2.2-5.8-5.8-5.8-3,0-6.8,1.8-11.3,5.5-3.9,3.2-5.6,4.8-6.3,5.8h-.1v-1.3q0-2.3,.1-3.3c.1-.3,.1-.7,.1-1.2,1.3-1.8,1.9-2.5,2.5-3.1l-1.3-1.5c-.4,.2-.6,.2-1,.2,.2-6.1,.3-7.7,.6-8.9l-4-.1c.1,1,.2,1.5,.2,2.5,0,.7,0,2.9-.2,6.7-4.2,.2-6.4,.4-6.5,.4-.5,0-.8,0-1.5-.1l.2,3.5q1.2-.2,7.9-.7c-.2,4.4-.2,7.6-.3,9.6-3.8,4-7.4,7.6-8.8,8.4l1.6,3.4"/><path class="cls-6" d="M724.1,507.54c.1,.9,.1,1,.1,3,.2,12.3,1,18.7,2.7,23.4,1.7,4.8,4.3,7.6,7.1,7.6,3.6,0,5.9-3.4,8.3-12.1-1.4-1.1-1.9-1.5-3-2.8-.7,3.4-1.5,6-2.6,8.5-.8,1.7-1.6,2.5-2.5,2.5-1.9,0-3.9-3.5-5-8.5-.8-3.2-1.3-10-1.3-15.5,0-2.8,.1-4.4,.3-6l-4.1-.1m25.3,4.3c5.8,6.8,9.5,15.3,10.4,24.6l3.6-1.4c-.9-5.6-1.9-9.2-3.8-13.4-1.9-4.2-3.9-7.5-7.2-11.4l-3,1.6"/><path class="cls-6" d="M735.8,571.14h.7c.1,0,.4,0,.8,.1,.2,0,.8,0,1.6,.1,1.8,.1,3.6,.2,5.6,.2s3.5-.1,5.7-.2c.2,7.3,.3,12,.5,13-1.2-.6-3.5-1-5.5-1-5.5,0-9.5,3-9.5,7.1s3.6,7.1,9.5,7.1c4.1,0,7.1-1.5,8.3-4.2,.4-.9,.6-2.1,.6-3.4,0-.5,0-.6-.1-1.3q.2,.2,.5,.3t.5,.3c3.5,2,5.5,3.5,7.1,5.2l1.5-3.5c-.5-.4-.6-.5-1.2-.9-3.3-2.5-4.7-3.2-8.3-4.9-.4-6.7-.5-9.2-.5-14.2,2.6-.3,4-.5,5.3-.8q3.4-.7,3.5-.7l-.2-3.4c-1.9,.8-4.8,1.4-8.6,1.9v-2.5c0-4.2,.1-6.5,.3-7.8h-3.8c.1,.5,.2,1.2,.2,2v8.5c-2,.1-3.4,.1-5.4,.1-4.4,0-6.5-.2-9-.8l-.1,3.7m15,16.3v1.5c0,2-.3,3.2-.9,3.9-1,1.1-2.9,1.8-5.1,1.8-3.5,0-5.8-1.6-5.8-4s2.5-4.2,6.5-4.2c2-.1,3.3,.2,5.3,1m-23.9-29.8c-.1,.7-.1,1-.6,3.2-1.9,8.7-2.6,13.9-2.6,20.5,0,5,.5,10.2,1.4,14.9,.2,1.1,.2,1.4,.3,1.8l3.5-.3c-.1-.7-.1-.8-.1-1,0-3,1.9-9.3,4.3-14.2l-2.5-1.2c-.1,.4-.2,.5-.4,1-1.7,4.1-2,5-2.9,8.8h-.2v-2.4c-.1-2.3-.2-5.2-.2-7,0-8.2,1.7-18.5,3.8-23.5l-3.8-.6"/><path class="cls-6" d="M997.2,449.84c1.5,1.6,3.9,5.3,5.2,7.9l2.5-1.5c-1.5-2.9-2.9-5-5.2-7.8l-2.5,1.4m-32.2,15.4c2.2-.6,3.6-.9,10-1.8-2.2,9.5-6.5,19.5-10.7,24.9l3.4,2c5.2-9.2,8.7-17.9,10.8-27.2,1.8-.2,2.5-.2,3.6-.2,4.7,0,6.2,1.7,6.2,7,0,5.6-.8,10.7-2.1,13.9-.7,1.6-1.6,2.4-2.8,2.4-1.8,0-4.6-.8-7.5-2.3,.2,.9,.2,1.2,.2,2,0,.7,0,1-.1,1.8,3.3,1.4,5.4,2,7.6,2s3.7-.7,4.9-2.4c2.1-2.9,3.4-9.5,3.4-17.2,0-4.1-.7-6.4-2.5-8-1.5-1.5-3.7-2.1-7.2-2.1-1.2,0-1.8,0-3,.1,.4-2.1,.9-4.4,1.1-5.7,.4-2.7,.7-3.9,.9-4.8l-4-.4v.6c0,2.1-.6,6.9-1.5,10.6-7.3,1-9.2,1.2-11,1.3l.3,3.5m37.9-18.1c2,2.2,4.1,5.5,5.1,7.8l2.5-1.4c-1.7-3.2-2.9-5-5.2-7.8l-2.4,1.4m-8.4,11.4c4.5,4.4,8.5,11.6,10.2,17.9l3.2-1.8c-2.1-6.6-5.5-12.4-10.4-17.7l-3,1.6"/><path class="cls-6" d="M967.8,507.54c.1,.9,.1,1,.2,3,.2,12.3,.9,18.7,2.7,23.4,1.7,4.8,4.3,7.6,7.1,7.6,3.5,0,5.8-3.4,8.3-12.1-1.4-1.1-1.8-1.5-2.9-2.8-.7,3.4-1.5,6-2.6,8.5-.8,1.7-1.6,2.5-2.5,2.5-1.9,0-4-3.5-5.1-8.5-.8-3.2-1.3-10-1.3-15.5,0-2.8,.1-4.4,.4-6l-4.3-.1m25.3,4.3c5.8,6.8,9.5,15.3,10.4,24.6l3.5-1.4c-.9-5.6-1.8-9.2-3.8-13.4-1.8-4.2-3.9-7.5-7.2-11.4l-2.9,1.6"/><path class="cls-6" d="M970.3,567.84c.9-.1,1-.1,3.1-.2,5.7-.1,9.7-.3,13.5-.9,1.2,2.7,1.6,3.2,2.9,5.7-4.1,.8-10.6,1.2-15.8,1.2-2,0-2.9-.1-4-.2l.1,3.3c.9-.1,1.1-.1,3.5-.2,9.3-.3,12.6-.5,17.5-1.4,1.8,3,3.8,6,5.4,7.7-3.3-1-6-1.4-10.1-1.4-9.5,0-15.2,3.2-15.2,8.6,0,2.6,1.4,4.9,3.8,6.2,2.6,1.5,5.7,2.1,10.3,2.1s8.7-.6,12.8-1.8q2.3-.7,3-.8l-.7-3.9c-3,1.8-9.6,3.3-14.8,3.3-6.9,0-10.7-1.8-10.7-5.1,0-3.5,4.7-5.7,11.8-5.7,2.2,0,4.8,.2,6.6,.5,2.4,.4,3.6,.8,5.5,1.9l2.9-2.1c-3.8-4.5-4.4-5.2-7.3-10,1.8-.3,4.3-.9,7.8-1.8,1.7-.5,1.8-.5,2.7-.6l-.4-3.4c-2.1,1-4.9,1.8-11.5,3.1-.8-1.4-2.1-4-2.8-5.7,2.8-.5,8.2-1.6,12.6-2.8l-.3-3.2c-2.8,1.2-7.5,2.3-13.4,3.3-1.2-2.7-2.2-5.2-2.6-7l-3.8,.6c.4,.7,1.4,3,3,6.9-4.6,.5-7.7,.7-11.9,.7-1.7,0-2.5-.1-3.8-.2l.3,3.3"/><path class="cls-6" d="M1228.1,461.14h1c2,.1,2.4,.1,4.2,.1h3.5c-1.9,9.8-5.7,21.2-9.4,27.7l3.7,1.5c2.6-6.1,4.1-9.9,5.8-15.3,1.3-4.5,2.8-10.2,3.5-14.2,2.4-.2,5.9-.6,8.4-1.2q1-.2,1.4-.2l-.2-3.4c-2.4,.8-5.1,1.3-9,1.7,.2-1.5,.4-2.2,.7-3.8q.6-3.5,.9-4.8l-3.9-.4c0,2.2-.1,3-1.1,9.2-1.5,.1-2,.1-3,.1-2.7,0-4.7-.2-6.2-.5v3.5m37.5,2.5c-3.8-.2-4.5-.2-5.5-.2-4.2,0-7.4,.4-13.2,1.7l.4,3.4c4.5-1.2,8-1.7,12.5-1.7,2.1,0,3.5,.1,5.9,.3l-.1-3.5m-18.3,10.8c-2.6,3.4-3.3,5-3.3,7.2,0,5,4.2,7.5,12.5,7.5,2.6,0,5.5-.2,8.9-.9q1.7-.2,2.2-.3l-.3-3.8c-2.9,1-7.3,1.7-11.1,1.7-5.7,0-8.8-1.6-8.8-4.6,0-1.2,.4-2.5,1.2-3.5,.3-.5,.5-.7,1.5-1.9l-2.8-1.4"/><path class="cls-6" d="M1248.2,509.84c-2.6,0-7.1,.2-12.1,.4q-8.1,.3-9.5,.3h-2l.2,3.6c1.6-.4,15.6-1.1,23.5-1.2v3.9c0,1.8,0,2,.1,2.8-1.3-1.5-3.4-2.2-5.8-2.2-5.2,0-8.9,3.5-8.9,8.2s3.5,7.9,8.2,7.9c2.6,0,4.8-.9,6.3-2.7,.6-.7,.9-1.2,1.3-2.5-.2,7-4.6,11.5-13.7,14.3,1,1,1.4,1.6,2.2,3.2,3.7-1.4,5.8-2.6,7.9-4.1,4.3-3.2,6.7-7.8,6.7-13,0-2.2-.3-3.8-1.2-5.9v-9.9c4-.1,4.6-.1,5.3-.1,6,0,7.7,0,9.6,.2v-3.6c-1.2,.2-1.8,.2-3.3,.2l-8.8,.1h-2.9v-.5c0-3.9,.1-4.7,.2-6.2h-3.8c.2,1,.2,1.5,.2,2.9l.1,3.5v.4m-5.4,10.3c1.2,0,2.5,.3,3.3,.8,1.4,.9,2.1,1.9,2.1,3.5,0,3.5-2.4,5.9-5.8,5.9-3.1,0-5.2-2-5.2-5s2.4-5.2,5.6-5.2m13.2-18.7c1.6,1.6,3.2,4,5,7l2.5-1.5c-1-1.8-2.8-4.2-5-6.8l-2.5,1.3m7.2-1c1.9,2.2,3.4,4.4,5.2,7.5l2.5-1.5c-1.1-2.1-3.2-4.9-5.2-7.4l-2.5,1.4"/><path class="cls-6" d="M1245.4,556.64c.2,1.2,.2,1.6,.2,4,.1,7.2,.4,16.8,.8,22.6v.3q.1,.2,.1,.5l-.2-.1q-.2,0-.5-.1c-1-.2-2.8-.5-4.3-.5-7.1,0-11.8,3.1-11.8,7.9s3.9,7.4,10.4,7.4c4.2,0,7.3-1.2,8.9-3.5,.8-1.1,1.2-2.9,1.2-5,0-.6-.1-1.6-.2-2.1q.5,.2,1.2,.5c1.7,.8,4.4,2.3,6.8,3.8,2.7,1.8,4.1,3,5.2,4.4l2.3-3.5q-1.2-.8-2.3-1.6c-5.2-3.8-9.3-5.9-13.4-7.1-.2-3.2-.5-8-.6-12.9,4.1-.1,7.5-.4,12-1.1q2.2-.3,3-.3l-.4-3.7c-2.8,1.1-9.2,1.9-14.7,1.9-.1-3.5-.1-4.1-.1-5.2,0-3.9,0-5.4,.3-6.6h-3.9m1.1,30.5c.1,0,.2,2,.2,2.8,0,1.9-.3,3-1.2,3.8-1.2,1.1-3.2,1.7-5.6,1.7-2.7,0-4.9-.8-6-2-.4-.5-.8-1.3-.8-2.2,0-2.9,3.1-4.7,8.2-4.7,2-.1,3.2,.1,5.2,.6"/><path class="cls-6" d="M1363.8,459.94c.9-.1,1-.1,3.1-.1,5.7-.1,9.7-.4,13.5-.9,1.2,2.7,1.6,3.2,2.8,5.7-4.1,.8-10.5,1.2-15.8,1.2-2,0-2.9,0-4-.2l.1,3.3c.9-.1,1.1-.1,3.5-.2,9.4-.3,12.6-.6,17.6-1.5,1.8,3,3.8,6,5.3,7.7-3.3-1.1-5.9-1.5-10.1-1.5-9.5,0-15.2,3.3-15.2,8.6,0,2.6,1.3,4.9,3.8,6.2,2.6,1.5,5.7,2.1,10.3,2.1s8.7-.6,12.8-1.9q2.3-.7,3-.8l-.7-3.9c-3,1.9-9.6,3.4-14.8,3.4-6.8,0-10.7-1.8-10.7-5.1,0-3.5,4.7-5.7,11.9-5.7,2.2,0,4.8,.2,6.5,.5,2.5,.4,3.6,.8,5.5,1.9l3-2.1c-3.9-4.5-4.4-5.2-7.4-9.9,1.9-.4,4.4-.9,7.9-1.8,1.6-.4,1.8-.4,2.7-.6l-.4-3.4c-2,1-4.8,1.8-11.4,3.1-.8-1.4-2.1-4-2.8-5.7,2.8-.5,8.1-1.6,12.6-2.8l-.3-3.2c-2.8,1.2-7.5,2.3-13.3,3.3-1.2-2.6-2.2-5.2-2.7-7l-3.8,.7c.5,.7,1.5,3,3,6.8-4.6,.5-7.7,.7-11.8,.7-1.7,0-2.6,0-3.8-.2l.1,3.3"/><path class="cls-6" d="M1368.5,509.54c1.1-.2,1.6-.2,2.7-.2,7.6-.2,13.6-.6,15.2-.9h.4l.1,.1-.2,.2-.2,.2q-.4,.4-.7,.7c-3.4,3.4-11.3,10.3-16.7,14.6-3.4,2.8-5.2,4-7,5.1l2.2,3.2c5.8-5.3,13.7-8.5,21-8.5,6.8,0,10.8,2.8,10.8,7.7,0,4.2-2.8,7.3-8,8.8-.7-2.2-1.2-3.4-2.3-4.8-2-2.6-4.9-4.1-8.2-4.1-4.2,0-7.2,2.5-7.2,5.8,0,4.6,4,7.2,11.1,7.2,11.1,0,18.3-5.1,18.3-13,0-6.4-5.3-10.5-13.7-10.5-4.4,0-8.5,1.1-12.2,3.1l-.1-.2c3.5-2.2,9.6-7.5,16.5-14.2,1.6-1.5,1.8-1.8,2.5-2.1l-2.1-2.8c-.7,.3-1.1,.5-2.4,.5-4.5,.4-11.1,.7-15.3,.7-2.4,0-3.3,0-4.7-.3l.2,3.7m16.4,31.6c-1.8,.3-2.4,.4-3.7,.4-2.2,0-4.3-.5-5.6-1.2-1.4-.8-2-1.8-2-3,0-1.9,1.5-3.1,4-3.1,3.7,0,6.2,2.4,7.3,6.9"/><path class="cls-6" d="M1363.8,567.84c.9-.1,1-.1,3.1-.2,5.7-.1,9.7-.3,13.5-.9,1.2,2.7,1.6,3.2,2.8,5.7-4.1,.8-10.5,1.2-15.8,1.2-2,0-2.9-.1-4-.2l.1,3.3c.9-.1,1.1-.1,3.5-.2,9.4-.3,12.6-.5,17.6-1.4,1.8,3,3.8,6,5.3,7.7-3.3-1-5.9-1.4-10.1-1.4-9.5,0-15.2,3.2-15.2,8.6,0,2.6,1.3,4.9,3.8,6.2,2.6,1.5,5.7,2.1,10.3,2.1s8.7-.6,12.8-1.8q2.3-.7,3-.8l-.7-3.9c-3,1.8-9.6,3.3-14.8,3.3-6.8,0-10.7-1.8-10.7-5.1,0-3.5,4.7-5.7,11.9-5.7,2.2,0,4.8,.2,6.5,.5,2.5,.4,3.6,.8,5.5,1.9l3-2.1c-3.9-4.5-4.4-5.2-7.4-10,1.9-.3,4.4-.9,7.9-1.8,1.6-.5,1.8-.5,2.7-.6l-.4-3.4c-2,1-4.8,1.8-11.4,3.1-.8-1.4-2.1-4-2.8-5.7,2.8-.5,8.1-1.6,12.6-2.8l-.3-3.2c-2.8,1.2-7.5,2.3-13.3,3.3-1.2-2.7-2.2-5.2-2.7-7l-3.8,.6c.5,.7,1.5,3,3,6.9-4.6,.5-7.7,.7-11.8,.7-1.7,0-2.6-.1-3.8-.2l.1,3.3"/><path class="cls-6" d="M1629,453.24c.7,.2,.8,.2,1.7,.5,4.8,1.9,9,3,12.9,3.2-1.1,.5-2,1-3.2,1.9-3.2,2.4-4.9,5-4.9,7.6,0,2.1,.8,3.9,2.8,6q3.3,3.7,4.2,5c1.1,1.5,1.6,2.9,1.6,4.2,0,2.8-2.4,4.8-5.5,4.8-2.9,0-5.8-1.5-8.6-4.3-.4,2-.5,2.4-1,3.5,3.4,3,6.4,4.2,9.9,4.2,5.2,0,9-3.5,9-8.1,0-2.9-1.4-5.5-4.6-9q-3.3-3.5-3.9-4.5c-.3-.6-.6-1.4-.6-2,0-2.3,2.1-4.8,6-7,1.6-.9,2.6-1.3,3.8-1.5l.1-3.6c-.3,.1-.6,.1-.8,.1-2.7,0-8.3-1-11.6-2-2.5-.8-4.5-1.6-5.6-2.4l-1.7,3.4m-4.1,16.4c-1.1,5.8-3.8,12.1-6.9,16.1,1.5,.8,2,1.1,3.1,2.1q.3-.5,.5-.9,1.1-1.6,1.5-2.3c1.8-3.4,3.4-7.4,4.6-11.6,.4-1.3,.4-1.5,.7-2.2l-3.5-1.2m25.5,1c3.1,3.2,7.1,11.2,8.3,16.3l3.2-1.7c-1.2-3.5-2-5.3-3.4-8-1.6-3.1-2-3.8-5.1-8l-3,1.4"/><path class="cls-6" d="M1629,507.14c.7,.2,.8,.2,1.7,.5,4.8,1.9,9,3,12.9,3.2-1.1,.5-2,1-3.2,1.9-3.2,2.4-4.9,5-4.9,7.6,0,2.1,.8,3.9,2.8,6q3.3,3.7,4.2,5c1.1,1.5,1.6,2.9,1.6,4.2,0,2.8-2.4,4.8-5.5,4.8-2.9,0-5.8-1.5-8.6-4.3-.4,2-.5,2.4-1,3.5,3.4,3,6.4,4.2,9.9,4.2,5.2,0,9-3.5,9-8.1,0-2.9-1.4-5.5-4.6-9q-3.3-3.5-3.9-4.5c-.3-.6-.6-1.4-.6-2,0-2.3,2.1-4.8,6-7,1.6-.9,2.6-1.3,3.8-1.5l.1-3.6c-.3,.1-.6,.1-.8,.1-2.7,0-8.3-1-11.6-2-2.5-.8-4.5-1.6-5.6-2.4l-1.7,3.4m-4.1,16.4c-1.1,5.8-3.8,12-6.9,16,1.5,.8,2,1.1,3.1,2.1q.3-.5,.5-.9,1.1-1.6,1.5-2.3c1.8-3.4,3.4-7.4,4.6-11.6,.4-1.3,.4-1.5,.7-2.2l-3.5-1.1m25.5,1c3.1,3.2,7.1,11.2,8.3,16.3l3.2-1.7c-1.2-3.5-2-5.3-3.4-8-1.6-3-2-3.8-5.1-8l-3,1.4"/><path class="cls-6" d="M1629,561.04c.7,.2,.8,.2,1.7,.5,4.8,1.9,9,3,12.9,3.2-1.1,.5-2,1-3.2,1.8-3.2,2.5-4.9,5-4.9,7.7,0,2.1,.8,3.8,2.8,6q3.3,3.7,4.2,5c1.1,1.5,1.6,2.9,1.6,4.2,0,2.8-2.4,4.8-5.5,4.8-2.9,0-5.8-1.5-8.6-4.3-.4,2-.5,2.4-1,3.5,3.4,3,6.4,4.2,9.9,4.2,5.2,0,9-3.5,9-8.1,0-2.8-1.4-5.5-4.6-8.9q-3.3-3.6-3.9-4.6c-.3-.5-.6-1.4-.6-1.9,0-2.3,2.1-4.8,6-7.1,1.6-.9,2.6-1.3,3.8-1.5l.1-3.5h-.8c-2.7,0-8.3-.9-11.6-1.9-2.5-.8-4.5-1.6-5.6-2.4l-1.7,3.3m-4.1,16.4c-1.1,5.8-3.8,12-6.9,16,1.5,.8,2,1.1,3.1,2.1q.3-.5,.5-.9,1.1-1.6,1.5-2.3c1.8-3.3,3.4-7.4,4.6-11.6,.4-1.3,.4-1.5,.7-2.2l-3.5-1.1m25.5,1c3.1,3.2,7.1,11.2,8.3,16.3l3.2-1.7c-1.2-3.5-2-5.3-3.4-8-1.6-3-2-3.8-5.1-8l-3,1.4"/><path class="cls-6" d="M1810.5,455.54c1.1-.2,1.6-.2,2.7-.2,7.6-.2,13.6-.6,15.2-.9h.4l.1,.1-.2,.2c-.1,.1-.2,.2-.2,.2q-.4,.4-.7,.7c-3.4,3.4-11.3,10.3-16.7,14.6-3.4,2.8-5.2,4-7,5.1l2.2,3.2c5.8-5.3,13.7-8.6,21-8.6,6.8,0,10.8,2.8,10.8,7.7,0,4.2-2.8,7.3-8,8.8-.7-2.2-1.2-3.4-2.3-4.8-2-2.6-4.9-4.1-8.2-4.1-4.2,0-7.2,2.5-7.2,5.8,0,4.6,4,7.2,11.1,7.2,11.1,0,18.3-5.1,18.3-13,0-6.4-5.3-10.5-13.7-10.5-4.4,0-8.5,1.1-12.2,3.1l-.1-.2c3.5-2.2,9.6-7.5,16.5-14.2,1.6-1.5,1.8-1.8,2.5-2.1l-2.1-2.8c-.7,.3-1.1,.5-2.4,.5-4.5,.4-11.1,.7-15.3,.7-2.4,0-3.3,0-4.7-.3l.2,3.8m16.4,31.7c-1.8,.3-2.4,.4-3.7,.4-2.2,0-4.3-.5-5.6-1.2-1.4-.8-2-1.8-2-3,0-1.9,1.5-3.1,4-3.1,3.7-.1,6.2,2.3,7.3,6.9"/><path class="cls-6" d="M1810.5,509.54c1.1-.2,1.6-.2,2.7-.2,7.6-.2,13.6-.6,15.2-.9h.4l.1,.1-.2,.2-.2,.2q-.4,.4-.7,.7c-3.4,3.4-11.3,10.3-16.7,14.6-3.4,2.8-5.2,4-7,5.1l2.2,3.2c5.8-5.3,13.7-8.5,21-8.5,6.8,0,10.8,2.8,10.8,7.7,0,4.2-2.8,7.3-8,8.8-.7-2.2-1.2-3.4-2.3-4.8-2-2.6-4.9-4.1-8.2-4.1-4.2,0-7.2,2.5-7.2,5.8,0,4.6,4,7.2,11.1,7.2,11.1,0,18.3-5.1,18.3-13,0-6.4-5.3-10.5-13.7-10.5-4.4,0-8.5,1.1-12.2,3.1l-.1-.2c3.5-2.2,9.6-7.5,16.5-14.2,1.6-1.5,1.8-1.8,2.5-2.1l-2.1-2.8c-.7,.3-1.1,.5-2.4,.5-4.5,.4-11.1,.7-15.3,.7-2.4,0-3.3,0-4.7-.3l.2,3.7m16.4,31.6c-1.8,.3-2.4,.4-3.7,.4-2.2,0-4.3-.5-5.6-1.2-1.4-.8-2-1.8-2-3,0-1.9,1.5-3.1,4-3.1,3.7,0,6.2,2.4,7.3,6.9"/><path class="cls-6" d="M1810.5,563.44c1.1-.1,1.6-.2,2.7-.2,7.6-.2,13.6-.6,15.2-.9h.4l.1,.1-.2,.2-.2,.2q-.4,.4-.7,.7c-3.4,3.4-11.3,10.4-16.7,14.6-3.4,2.8-5.2,4-7,5.1l2.2,3.2c5.8-5.3,13.7-8.5,21-8.5,6.8,0,10.8,2.8,10.8,7.6,0,4.2-2.8,7.3-8,8.8-.7-2.2-1.2-3.4-2.3-4.8-2-2.6-4.9-4.1-8.2-4.1-4.2,0-7.2,2.5-7.2,5.8,0,4.6,4,7.2,11.1,7.2,11.1,0,18.3-5.2,18.3-13,0-6.4-5.3-10.5-13.7-10.5-4.4,0-8.5,1-12.2,3.1l-.1-.2c3.5-2.2,9.6-7.5,16.5-14.2,1.6-1.5,1.8-1.8,2.5-2.1l-2.1-2.8c-.7,.3-1.1,.5-2.4,.5-4.5,.3-11.1,.7-15.3,.7-2.4,0-3.3-.1-4.7-.3l.2,3.8m16.4,31.6c-1.8,.3-2.4,.3-3.7,.3-2.2,0-4.3-.4-5.6-1.1-1.4-.8-2-1.8-2-3,0-1.9,1.5-3.1,4-3.1,3.7,0,6.2,2.4,7.3,6.9"/><path class="cls-6" d="M1988.7,462.64c.8-.1,1-.2,1.9-.2,6.6-.1,12.9-.6,17.8-1.3,.3,.5,.3,.6,.8,1.7,2.2,4.2,3.4,6.2,6,9.8-2.1-1.1-6-1.8-10.3-1.8s-7.1,.5-9.7,1.8c-3.5,1.7-5.7,4.8-5.7,8.2,0,2,.8,3.9,2.2,5.5,2.3,2.4,6.9,3.8,13,3.8,4.9,0,9.7-.9,14.7-2.7l-.5-3.9c-3.8,2-9.2,3.2-14.2,3.2-4.3,0-7.9-.8-9.8-2.3-1.2-1-1.9-2.3-1.9-3.9,0-1.8,1.1-3.6,2.7-4.6,2.2-1.4,5.3-2.1,9.5-2.1,3.4,0,6.2,.5,8.8,1.3,1.4,.5,2.1,.9,3.4,2.1l3.4-1.9c-3.5-4.6-7.2-10.6-9-14.5q.5-.1,1.7-.3c3.2-.6,3.8-.8,6.8-1.6,1.5-.4,1.9-.5,2.9-.7l-.5-3.6c-2.7,1.2-7.2,2.4-12.1,3.2-.4-1-.6-1.2-1.8-4.4q-1.2-3.2-1.4-4.5l-3.9,.6c.4,.9,.8,1.6,1.3,2.9,.9,2.2,1.7,4.2,2.5,6-4.7,.7-10.4,1-14.9,1-1.7,0-2.6,0-3.8-.2l.1,3.4"/><path class="cls-6" d="M1988.7,516.54c.8-.1,1-.2,1.9-.2,6.6-.1,12.9-.6,17.8-1.3,.3,.5,.3,.6,.8,1.7,2.2,4.2,3.4,6.2,6,9.8-2.1-1.1-6-1.8-10.3-1.8s-7.1,.5-9.7,1.8c-3.5,1.7-5.7,4.8-5.7,8.2,0,2,.8,3.9,2.2,5.5,2.3,2.4,6.9,3.8,13,3.8,4.9,0,9.7-.9,14.7-2.7l-.5-3.9c-3.8,2-9.2,3.2-14.2,3.2-4.3,0-7.9-.8-9.8-2.3-1.2-1-1.9-2.3-1.9-3.9,0-1.8,1.1-3.6,2.7-4.6,2.2-1.4,5.3-2.1,9.5-2.1,3.4,0,6.2,.5,8.8,1.3,1.4,.5,2.1,.9,3.4,2l3.4-1.9c-3.5-4.6-7.2-10.6-9-14.5q.5-.1,1.7-.3c3.2-.6,3.8-.8,6.8-1.6,1.5-.4,1.9-.5,2.9-.7l-.5-3.6c-2.7,1.2-7.2,2.4-12.1,3.2-.4-1-.6-1.2-1.8-4.4q-1.2-3.2-1.4-4.5l-3.9,.6c.4,.9,.8,1.6,1.3,2.9,.9,2.2,1.7,4.2,2.5,6-4.7,.7-10.4,1-14.9,1-1.7,0-2.6,0-3.8-.2l.1,3.5"/><path class="cls-6" d="M1988.7,570.44c.8-.1,1-.2,1.9-.2,6.6-.1,12.9-.6,17.8-1.3,.3,.5,.3,.6,.8,1.6,2.2,4.2,3.4,6.2,6,9.8-2.1-1.1-6-1.8-10.3-1.8s-7.1,.6-9.7,1.9c-3.5,1.7-5.7,4.8-5.7,8.1,0,2,.8,4,2.2,5.5,2.3,2.4,6.9,3.8,13,3.8,4.9,0,9.7-.8,14.7-2.7l-.5-3.9c-3.8,2-9.2,3.2-14.2,3.2-4.3,0-7.9-.8-9.8-2.3-1.2-1-1.9-2.4-1.9-3.9,0-1.8,1.1-3.6,2.7-4.6,2.2-1.4,5.3-2.1,9.5-2.1,3.4,0,6.2,.5,8.8,1.3,1.4,.5,2.1,1,3.4,2.1l3.4-1.9c-3.5-4.7-7.2-10.7-9-14.5q.5-.1,1.7-.4c3.2-.6,3.8-.8,6.8-1.5,1.5-.4,1.9-.5,2.9-.7l-.5-3.5c-2.7,1.2-7.2,2.4-12.1,3.2-.4-1-.6-1.2-1.8-4.4q-1.2-3.2-1.4-4.5l-3.9,.5c.4,.9,.8,1.6,1.3,2.9,.9,2.2,1.7,4.2,2.5,6-4.7,.6-10.4,1-14.9,1-1.7,0-2.6,0-3.8-.2l.1,3.5"/><path class="cls-6" d="M2264.8,449.84c.3,.8,.4,1,.8,3.1,1.3,6.4,2.2,9.9,3.7,14-3.1,1.5-4.7,2.5-6.6,4-2.9,2.4-4.4,5.3-4.4,8.5,0,4,2.1,6.7,6.2,8.2,2.4,.9,6.1,1.4,11.1,1.4,3.5,0,5.9-.2,11.1-.7q2.8-.3,3.7-.3l-.4-4.2c-2.9,1-8.6,1.7-14.3,1.7-9.8,0-13.6-1.8-13.6-6.3,0-4.2,3.7-7.5,12.2-10.9,4.4-1.8,11.6-4.1,15.1-4.8l-1.5-3.8c-1,.5-1.5,.6-3.2,1.3-7.8,2.7-9.1,3.2-12.1,4.5-1.7-5-3.6-13.2-3.8-16.5l-4,.8"/><path class="cls-6" d="M2264.8,503.74c.3,.8,.4,1,.8,3.1,1.3,6.4,2.2,9.9,3.7,14-3.1,1.5-4.7,2.5-6.6,4-2.9,2.4-4.4,5.3-4.4,8.5,0,4,2.1,6.7,6.2,8.2,2.4,.9,6.1,1.4,11.1,1.4,3.5,0,5.9-.2,11.1-.7q2.8-.3,3.7-.3l-.4-4.2c-2.9,1-8.6,1.7-14.3,1.7-9.8,0-13.6-1.8-13.6-6.3,0-4.2,3.7-7.5,12.2-10.9,4.4-1.8,11.6-4.1,15.1-4.8l-1.5-3.8c-1,.5-1.5,.6-3.2,1.3-7.8,2.7-9.1,3.2-12.1,4.5-1.7-5-3.6-13.2-3.8-16.5l-4,.8"/><path class="cls-6" d="M2264.8,557.64c.3,.8,.4,1.1,.8,3.2,1.3,6.4,2.2,9.9,3.7,14-3.1,1.5-4.7,2.5-6.6,4-2.9,2.4-4.4,5.3-4.4,8.5,0,4,2.1,6.7,6.2,8.2,2.4,.9,6.1,1.3,11.1,1.3,3.5,0,5.9-.1,11.1-.6q2.8-.3,3.7-.3l-.4-4.2c-2.9,1-8.6,1.7-14.3,1.7-9.8,0-13.6-1.8-13.6-6.3,0-4.2,3.7-7.5,12.2-10.9,4.4-1.8,11.6-4.1,15.1-4.8l-1.5-3.8c-1,.5-1.5,.6-3.2,1.3-7.8,2.7-9.1,3.2-12.1,4.5-1.7-5-3.6-13.2-3.8-16.6l-4,.8"/><path class="cls-6" d="M1015.9,1140.44c0,2.7,2.2,5,5,5s5-2.2,5-5-2.2-5-5-5-5,2.3-5,5"/><path class="cls-6" d="M1015.9,917.24c0,2.7,2.2,5,5,5s5-2.2,5-5-2.2-5-5-5-5,2.3-5,5"/><path class="cls-6" d="M1015.9,793.24c0,2.7,2.2,5,5,5s5-2.2,5-5-2.2-5-5-5-5,2.3-5,5"/><path class="cls-6" d="M1015.9,383.54c0,2.7,2.2,5,5,5s5-2.2,5-5-2.2-5-5-5-5,2.2-5,5"/><line class="cls-4" x1="123.1" y1="278.84" x2="123.1" y2="1245.14"/><path class="cls-6" d="M165.7,256.84c-.2-.1-.5-.2-.7-.2-.4,0-.9,.1-1.1,.5-.2,.3-10.1,15.6-29.1,15.6h-15.8c-.8,0-1.4,.5-1.4,1.3v10.3h12.1c30.6,0,36.4-25.5,36.5-25.8,0-.1,.1-.3,.1-.5,.1-.5-.2-.9-.6-1.2"/><path class="cls-6" d="M165.7,1267.14c.4-.3,.7-.7,.7-1.2,0-.2-.1-.4-.1-.5-.1-.3-6-25.8-36.5-25.8h-12.1v10.3c0,.8,.6,1.3,1.4,1.3h15.8c18.9,0,28.9,15.3,29.1,15.6,.2,.4,.7,.5,1.1,.5,.1,0,.4-.1,.6-.2"/></g></g></svg>