<?xml version="1.0" encoding="UTF-8"?><svg id="_レイヤー_1" xmlns="http://www.w3.org/2000/svg" xmlns:xlink="http://www.w3.org/1999/xlink" viewBox="0 0 2650.39 1247.24"><defs><style>.cls-1{stroke-width:4.46px;}.cls-1,.cls-2,.cls-3,.cls-4{fill:none;stroke:#fff;stroke-linejoin:bevel;}.cls-5{fill:#fff;}.cls-6{isolation:isolate;}.cls-2{stroke-width:3.97px;}.cls-3{stroke-width:10.91px;}.cls-4{stroke-width:2.73px;}</style></defs><image class="cls-6" width="2624" height="1059" transform="translate(13.2 188.24)" xlink:href="../Documents/2年_アーカイブ/_卒制/イラスト保存用/五線譜/hurusato/404535A8683AEBCE.png"/><g><line class="cls-4" x1="136.5" y1="264.79" x2="2601" y2="264.79"/><line class="cls-4" x1="136.5" y1="289.59" x2="2601" y2="289.59"/><line class="cls-4" x1="136.5" y1="314.39" x2="2601" y2="314.39"/><line class="cls-4" x1="136.5" y1="339.19" x2="2601" y2="339.19"/><line class="cls-4" x1="136.5" y1="363.99" x2="2601" y2="363.99"/><line class="cls-4" x1="136.5" y1="657.59" x2="2601" y2="657.59"/><line class="cls-4" x1="136.5" y1="682.49" x2="2601" y2="682.49"/><line class="cls-4" x1="136.5" y1="707.29" x2="2601" y2="707.29"/><line class="cls-4" x1="136.5" y1="732.09" x2="2601" y2="732.09"/><line class="cls-4" x1="136.5" y1="756.89" x2="2601" y2="756.89"/><line class="cls-4" x1="136.5" y1="864.49" x2="2601" y2="864.49"/><line class="cls-4" x1="136.5" y1="889.29" x2="2601" y2="889.29"/><line class="cls-4" x1="136.5" y1="914.09" x2="2601" y2="914.09"/><line class="cls-4" x1="136.5" y1="938.89" x2="2601" y2="938.89"/><line class="cls-4" x1="136.5" y1="963.69" x2="2601" y2="963.69"/><line class="cls-4" x1="136.5" y1="1071.29" x2="2601" y2="1071.29"/><line class="cls-4" x1="136.5" y1="1096.09" x2="2601" y2="1096.09"/><line class="cls-4" x1="136.5" y1="1120.89" x2="2601" y2="1120.89"/><line class="cls-4" x1="136.5" y1="1145.69" x2="2601" y2="1145.69"/><line class="cls-4" x1="136.5" y1="1170.49" x2="2601" y2="1170.49"/><path class="cls-5" d="M51.7,1102.49v2.4h.9c2.8,0,3.8,.2,4.2,.7,.3,.4,.3,.6,.3,3.1v23.8c0,2.6,0,2.7-.3,3.1-.4,.5-1.4,.7-4.2,.7h-.9v2.4h18.2c8.6,0,13.8-3.7,13.8-9.8,0-5-3.1-7.9-10-9.1,2.4-.5,3.5-.9,4.8-1.9,2.1-1.6,3.3-4,3.3-6.5,0-3.2-2-6.4-4.9-7.7-1.8-.8-4.3-1.2-7.2-1.2h-18m11,16.3v-11.4c0-2,.7-2.5,3.3-2.5h2c2.3,0,4.2,.4,5.2,1,1.8,1.1,2.8,3.2,2.8,6,0,5-2.4,6.9-8.9,6.9h-4.4m0,2.3h4.4c7.6,0,10.4,2,10.4,7.5,0,3.2-1.1,5.5-3.1,6.5-1.6,.8-3.6,1.1-6.8,1.1h-2.1c-2.5,0-3-.5-2.9-3.1v-12m30.5,12c-1.8,0-3.1,1.4-3.1,3.1,0,1.8,1.4,3.2,3.1,3.2,1.8,0,3.1-1.4,3.1-3.2,0-1.7-1.4-3.1-3.1-3.1"/><path class="cls-5" d="M84.6,895.69h-30l-.8,13.9h2.2c.3-2.5,.8-4.4,1.3-6,1.3-3.7,3.7-5.6,7.1-5.6,1.6,0,2.4,.6,2.4,1.8v25.8c0,2.5,0,2.6-.3,3.1-.4,.5-1.4,.7-4.2,.7h-1.3v2.4h17.2v-2.4h-1.3c-2.8,0-3.8-.2-4.1-.7-.3-.4-.3-.6-.3-3.1v-25.8c0-1.2,.7-1.8,2.4-1.8,3.1,0,5.5,1.7,6.8,4.7,.8,1.9,1.2,4,1.6,6.9h2.2l-.9-13.9m4.9,30.5c-1.8,0-3.1,1.4-3.1,3.1,0,1.8,1.4,3.1,3.1,3.1,1.8,0,3.1-1.4,3.1-3.1,0-1.6-1.4-3.1-3.1-3.1"/><path class="cls-5" d="M69.1,688.49h-2.1l-11.5,29.2c-1.4,3.9-2.6,5.1-5.5,5.3h-.2v2.3h13.2v-2.3h-1c-2.7,0-4.1-1-4.1-2.8,0-.7,.1-1.2,.4-2.1l1.7-4.4h13.2l2.7,6.7c.3,.8,.4,1.1,.4,1.3,0,.8-1.2,1.3-3.1,1.3h-2v2.3h15.5v-2.3h-.7c-2.6-.1-3.1-.3-4.2-3.2l-12.7-31.3m-2.5,8.2l5.7,14.2h-11.2l5.5-14.2m27.1,23.1c-1.8,0-3.2,1.4-3.2,3.1,0,1.8,1.4,3.1,3.1,3.1,1.8,0,3.2-1.4,3.2-3.1s-1.4-3.1-3.1-3.1"/><path class="cls-5" d="M82.1,295.99h-1.9l-2,3c-2.4-2.2-5.6-3.4-9.1-3.4-6.6,0-10.9,4.2-10.9,10.4,0,5.5,2.7,8.2,10.1,10.1l4.8,1.2c3.7,1,4,1.1,5.1,1.8,1.5,1.2,2.3,2.8,2.3,4.8s-.8,3.7-2.2,5.1c-1.6,1.4-3.3,1.9-6.1,1.9-3.7,0-6.3-1.1-8.7-3.8-2.1-2.3-3.1-4.7-3.9-8.5h-2.2l.2,14.2h2l2.2-3.4c3.3,2.8,6.1,3.8,10.5,3.8,7.3,0,12-4.3,12-11,0-3.2-1-5.8-3-7.7-1.3-1.3-3.3-2.2-7.3-3.2l-5.4-1.3c-4.4-1.2-6.6-3.1-6.6-6.2,0-3.5,2.9-5.9,7.1-5.9,3.5,0,6.3,1.5,8.3,4.3,1.5,2,2.4,4.2,3,6.7h2.2l-.5-12.9m11,30.9c-1.8,0-3.1,1.4-3.1,3.1,0,1.8,1.4,3.1,3.1,3.1,1.8,0,3.1-1.4,3.1-3.1s-1.4-3.1-3.1-3.1"/><line class="cls-1" x1="138.7" y1="1069.99" x2="138.7" y2="1171.89"/><line class="cls-1" x1="913.8" y1="1069.99" x2="913.8" y2="1171.89"/><line class="cls-1" x1="1567.6" y1="1069.99" x2="1567.6" y2="1171.89"/><line class="cls-1" x1="2181.8" y1="1069.99" x2="2181.8" y2="1171.89"/><line class="cls-1" x1="2585.1" y1="1069.99" x2="2585.1" y2="1171.89"/><line class="cls-1" x1="2598.8" y1="1069.99" x2="2598.8" y2="1171.89"/><line class="cls-1" x1="138.7" y1="863.09" x2="138.7" y2="1071.29"/><line class="cls-1" x1="913.8" y1="863.09" x2="913.8" y2="965.09"/><line class="cls-1" x1="1567.6" y1="863.09" x2="1567.6" y2="965.09"/><line class="cls-1" x1="2181.8" y1="863.09" x2="2181.8" y2="965.09"/><line class="cls-1" x1="2585.1" y1="863.09" x2="2585.1" y2="965.09"/><line class="cls-1" x1="2598.8" y1="863.09" x2="2598.8" y2="965.09"/><line class="cls-1" x1="138.7" y1="656.29" x2="138.7" y2="864.49"/><line class="cls-1" x1="913.8" y1="656.29" x2="913.8" y2="758.19"/><line class="cls-1" x1="1567.6" y1="656.29" x2="1567.6" y2="758.19"/><line class="cls-1" x1="2181.8" y1="656.29" x2="2181.8" y2="758.19"/><line class="cls-1" x1="2585.1" y1="656.29" x2="2585.1" y2="758.19"/><line class="cls-1" x1="2598.8" y1="656.29" x2="2598.8" y2="758.19"/><line class="cls-1" x1="138.7" y1="263.39" x2="138.7" y2="657.59"/><line class="cls-1" x1="913.8" y1="263.39" x2="913.8" y2="365.39"/><line class="cls-1" x1="1567.6" y1="263.39" x2="1567.6" y2="365.39"/><line class="cls-1" x1="2181.8" y1="263.39" x2="2181.8" y2="365.39"/><line class="cls-1" x1="2585.1" y1="263.39" x2="2585.1" y2="365.39"/><line class="cls-1" x1="2598.8" y1="263.39" x2="2598.8" y2="365.39"/><line class="cls-2" x1="325" y1="839.69" x2="374.6" y2="839.69"/><line class="cls-2" x1="517.6" y1="839.69" x2="567.2" y2="839.69"/><line class="cls-2" x1="1981.3" y1="781.69" x2="2030.9" y2="781.69"/><line class="cls-2" x1="2216.2" y1="781.69" x2="2265.8" y2="781.69"/><line class="cls-4" x1="335" y1="1062.29" x2="335" y2="1145.69"/><line class="cls-4" x1="527.7" y1="1074.69" x2="527.7" y2="1158.09"/><line class="cls-4" x1="720.3" y1="1062.29" x2="720.3" y2="1145.69"/><line class="cls-4" x1="957.7" y1="1099.49" x2="957.7" y2="1179.79"/><line class="cls-4" x1="1218.8" y1="1099.49" x2="1218.8" y2="1182.89"/><line class="cls-4" x1="1352.6" y1="1099.49" x2="1352.6" y2="1179.79"/><line class="cls-4" x1="1641.7" y1="1130.19" x2="1641.7" y2="1052.69"/><line class="cls-4" x1="1831.3" y1="1130.19" x2="1831.3" y2="1052.69"/><line class="cls-4" x1="2020.8" y1="1130.19" x2="2020.8" y2="1052.69"/><line class="cls-4" x1="2226.3" y1="1099.49" x2="2226.3" y2="1179.79"/><line class="cls-4" x1="335" y1="830.59" x2="335" y2="914.09"/><line class="cls-4" x1="527.7" y1="842.99" x2="527.7" y2="926.49"/><line class="cls-4" x1="720.3" y1="855.39" x2="720.3" y2="938.89"/><line class="cls-4" x1="957.7" y1="867.79" x2="957.7" y2="951.29"/><line class="cls-4" x1="1218.8" y1="880.19" x2="1218.8" y2="963.69"/><line class="cls-4" x1="1352.6" y1="892.59" x2="1352.6" y2="972.99"/><line class="cls-4" x1="1612.2" y1="904.99" x2="1612.2" y2="982.29"/><line class="cls-4" x1="1801.8" y1="904.99" x2="1801.8" y2="982.29"/><line class="cls-4" x1="1991.3" y1="904.99" x2="1991.3" y2="982.29"/><line class="cls-4" x1="2226.3" y1="892.59" x2="2226.3" y2="972.99"/><line class="cls-4" x1="335" y1="710.59" x2="335" y2="784.79"/><line class="cls-4" x1="557.2" y1="716.49" x2="557.2" y2="638.99"/><line class="cls-4" x1="749.8" y1="728.89" x2="749.8" y2="648.39"/><line class="cls-4" x1="987.2" y1="741.29" x2="987.2" y2="657.59"/><line class="cls-4" x1="1248.3" y1="728.89" x2="1248.3" y2="648.39"/><line class="cls-4" x1="1382.1" y1="741.29" x2="1382.1" y2="657.59"/><line class="cls-4" x1="1641.7" y1="753.69" x2="1641.7" y2="669.99"/><line class="cls-4" x1="1831.3" y1="753.69" x2="1831.3" y2="669.99"/><line class="cls-4" x1="2020.8" y1="778.49" x2="2020.8" y2="694.89"/><line class="cls-4" x1="2255.8" y1="778.49" x2="2255.8" y2="694.89"/><line class="cls-4" x1="335" y1="317.69" x2="335" y2="391.89"/><line class="cls-4" x1="527.7" y1="305.29" x2="527.7" y2="382.59"/><line class="cls-4" x1="720.3" y1="292.89" x2="720.3" y2="373.29"/><line class="cls-4" x1="987.2" y1="323.59" x2="987.2" y2="246.19"/><line class="cls-4" x1="1218.8" y1="317.69" x2="1218.8" y2="401.19"/><line class="cls-4" x1="1382.1" y1="323.59" x2="1382.1" y2="246.19"/><line class="cls-4" x1="1641.7" y1="335.99" x2="1641.7" y2="255.49"/><line class="cls-4" x1="1831.3" y1="335.99" x2="1831.3" y2="255.49"/><line class="cls-4" x1="2020.8" y1="360.79" x2="2020.8" y2="277.19"/><line class="cls-4" x1="2255.8" y1="348.39" x2="2255.8" y2="264.79"/><path class="cls-5" d="M364.9,1050.89c-1.8-3.3-5.6-5.1-10.1-5.1-3.4,0-7,1-10.6,2.9-6.5,3.5-10.5,9.3-10.5,14.4,0,1.4,.3,2.8,1,4.1,1.8,3.3,5.6,5,10.1,5,3.4,0,7-.9,10.6-2.8,6.5-3.5,10.5-9.3,10.5-14.4,0-1.4-.3-2.8-1-4.1"/><path class="cls-5" d="M557.5,1063.29c-1.8-3.3-5.6-5.1-10.1-5.1-3.4,0-7,1-10.6,2.9-6.5,3.5-10.5,9.3-10.5,14.4,0,1.4,.3,2.8,1,4.1,1.8,3.3,5.6,5,10.1,5,3.4,0,7-.9,10.6-2.8,6.5-3.5,10.5-9.3,10.5-14.4,0-1.4-.3-2.8-1-4.1"/><path class="cls-5" d="M750.2,1050.89c-1.8-3.3-5.6-5.1-10.1-5.1-3.4,0-7,1-10.6,2.9-6.5,3.5-10.5,9.3-10.5,14.4,0,1.4,.3,2.8,1,4.1,1.8,3.3,5.6,5,10.1,5,3.4,0,7-.9,10.6-2.8,6.5-3.5,10.5-9.3,10.5-14.4,0-1.4-.3-2.8-1-4.1"/><path class="cls-5" d="M987.6,1088.09c-1.8-3.3-5.6-5.1-10.1-5.1-3.4,0-7,1-10.6,2.9-6.5,3.5-10.5,9.3-10.5,14.4,0,1.4,.3,2.8,1,4.1,1.8,3.3,5.6,5,10.1,5,3.4,0,7-.9,10.6-2.8,6.5-3.5,10.5-9.3,10.5-14.4,0-1.4-.3-2.8-1-4.1"/><path class="cls-5" d="M1248.7,1088.09c-1.8-3.3-5.6-5.1-10.1-5.1-3.4,0-7,1-10.6,2.9-6.5,3.5-10.5,9.3-10.5,14.4,0,1.4,.3,2.8,1,4.1,1.8,3.3,5.6,5,10.1,5,3.4,0,7-.9,10.6-2.8,6.5-3.5,10.5-9.3,10.5-14.4,0-1.4-.3-2.8-1-4.1"/><path class="cls-5" d="M1382.5,1088.09c-1.8-3.3-5.6-5.1-10.1-5.1-3.4,0-7,1-10.6,2.9-6.5,3.5-10.5,9.3-10.5,14.4,0,1.4,.3,2.8,1,4.1,1.8,3.3,5.6,5,10.1,5,3.4,0,7-.9,10.6-2.8,6.5-3.5,10.5-9.3,10.5-14.4,0-1.4-.3-2.8-1-4.1"/><path class="cls-5" d="M1642.1,1125.29c-1.8-3.3-5.6-5.1-10.1-5.1-3.4,0-7,1-10.6,2.9-6.5,3.5-10.5,9.3-10.5,14.4,0,1.4,.3,2.8,1,4.1,1.8,3.3,5.6,5,10.1,5,3.4,0,7-.9,10.6-2.8,6.5-3.5,10.5-9.3,10.5-14.4,0-1.4-.3-2.8-1-4.1"/><path class="cls-5" d="M1831.6,1125.29c-1.8-3.3-5.6-5.1-10.1-5.1-3.4,0-7,1-10.6,2.9-6.5,3.5-10.5,9.3-10.5,14.4,0,1.4,.3,2.8,1,4.1,1.8,3.3,5.6,5,10.1,5,3.4,0,7-.9,10.6-2.8,6.5-3.5,10.5-9.3,10.5-14.4,0-1.4-.3-2.8-1-4.1"/><path class="cls-5" d="M2021.2,1125.29c-1.8-3.3-5.6-5.1-10.1-5.1-3.4,0-7,1-10.6,2.9-6.5,3.5-10.5,9.3-10.5,14.4,0,1.4,.3,2.8,1,4.1,1.8,3.3,5.6,5,10.1,5,3.4,0,7-.9,10.6-2.8,6.5-3.5,10.5-9.3,10.5-14.4,0-1.4-.3-2.8-1-4.1"/><path class="cls-5" d="M2256.2,1088.09c-1.8-3.3-5.6-5.1-10.1-5.1-3.4,0-7,1-10.6,2.9-6.5,3.5-10.5,9.3-10.5,14.4,0,1.4,.3,2.8,1,4.1,1.8,3.3,5.6,5,10.1,5,3.4,0,7-.9,10.6-2.8,6.5-3.5,10.5-9.3,10.5-14.4,0-1.4-.3-2.8-1-4.1m-4.3,6.7c-1.7,1.7-5.1,3.8-8.6,5.8-3.6,2-7.1,3.5-9.5,4-.5,.1-1,.2-1.5,.2-1.6,0-2.8-.6-3.5-1.9-.3-.5-.5-1.1-.5-1.7,0-1.1,.7-2.4,1.8-3.5,1.7-1.7,5-3.8,8.5-5.8,3.6-2,7.1-3.5,9.5-4,.5-.1,1-.2,1.5-.2,1.6,0,2.9,.6,3.6,1.9,.3,.5,.4,1.1,.4,1.7,0,1.2-.6,2.3-1.7,3.5"/><path class="cls-5" d="M364.9,819.29c-1.8-3.3-5.6-5.1-10.1-5.1-3.4,0-7,1-10.6,2.9-6.5,3.5-10.5,9.3-10.5,14.4,0,1.4,.3,2.8,1,4.1,1.8,3.3,5.6,5,10.1,5,3.4,0,7-.9,10.6-2.8,6.5-3.5,10.5-9.3,10.5-14.4,0-1.5-.3-2.9-1-4.1"/><path class="cls-5" d="M557.5,831.69c-1.8-3.3-5.6-5.1-10.1-5.1-3.4,0-7,1-10.6,2.9-6.5,3.5-10.5,9.3-10.5,14.4,0,1.4,.3,2.8,1,4.1,1.8,3.3,5.6,5,10.1,5,3.4,0,7-.9,10.6-2.8,6.5-3.5,10.5-9.3,10.5-14.4,0-1.5-.3-2.9-1-4.1"/><path class="cls-5" d="M750.2,844.09c-1.8-3.3-5.6-5.1-10.1-5.1-3.4,0-7,1-10.6,2.9-6.5,3.5-10.5,9.3-10.5,14.4,0,1.4,.3,2.8,1,4.1,1.8,3.3,5.6,5,10.1,5,3.4,0,7-.9,10.6-2.8,6.5-3.5,10.5-9.3,10.5-14.4,0-1.5-.3-2.9-1-4.1"/><path class="cls-5" d="M987.6,856.49c-1.8-3.3-5.6-5.1-10.1-5.1-3.4,0-7,1-10.6,2.9-6.5,3.5-10.5,9.3-10.5,14.4,0,1.4,.3,2.8,1,4.1,1.8,3.3,5.6,5,10.1,5,3.4,0,7-.9,10.6-2.8,6.5-3.5,10.5-9.3,10.5-14.4,0-1.5-.3-2.9-1-4.1"/><path class="cls-5" d="M1248.7,868.89c-1.8-3.3-5.6-5.1-10.1-5.1-3.4,0-7,1-10.6,2.9-6.5,3.5-10.5,9.3-10.5,14.4,0,1.4,.3,2.8,1,4.1,1.8,3.3,5.6,5,10.1,5,3.4,0,7-.9,10.6-2.8,6.5-3.5,10.5-9.3,10.5-14.4,0-1.5-.3-2.9-1-4.1"/><path class="cls-5" d="M1382.5,881.29c-1.8-3.3-5.6-5.1-10.1-5.1-3.4,0-7,1-10.6,2.9-6.5,3.5-10.5,9.3-10.5,14.4,0,1.4,.3,2.8,1,4.1,1.8,3.3,5.6,5,10.1,5,3.4,0,7-.9,10.6-2.8,6.5-3.5,10.5-9.3,10.5-14.4,0-1.5-.3-2.9-1-4.1"/><path class="cls-5" d="M1642.1,893.69c-1.8-3.3-5.6-5.1-10.1-5.1-3.4,0-7,1-10.6,2.9-6.5,3.5-10.5,9.3-10.5,14.4,0,1.4,.3,2.8,1,4.1,1.8,3.3,5.6,5,10.1,5,3.4,0,7-.9,10.6-2.8,6.5-3.5,10.5-9.3,10.5-14.4,0-1.5-.3-2.9-1-4.1"/><path class="cls-5" d="M1831.6,893.69c-1.8-3.3-5.6-5.1-10.1-5.1-3.4,0-7,1-10.6,2.9-6.5,3.5-10.5,9.3-10.5,14.4,0,1.4,.3,2.8,1,4.1,1.8,3.3,5.6,5,10.1,5,3.4,0,7-.9,10.6-2.8,6.5-3.5,10.5-9.3,10.5-14.4,0-1.5-.3-2.9-1-4.1"/><path class="cls-5" d="M2021.2,893.69c-1.8-3.3-5.6-5.1-10.1-5.1-3.4,0-7,1-10.6,2.9-6.5,3.5-10.5,9.3-10.5,14.4,0,1.4,.3,2.8,1,4.1,1.8,3.3,5.6,5,10.1,5,3.4,0,7-.9,10.6-2.8,6.5-3.5,10.5-9.3,10.5-14.4,0-1.5-.3-2.9-1-4.1"/><path class="cls-5" d="M2256.2,881.29c-1.8-3.3-5.6-5.1-10.1-5.1-3.4,0-7,1-10.6,2.9-6.5,3.5-10.5,9.3-10.5,14.4,0,1.4,.3,2.8,1,4.1,1.8,3.3,5.6,5,10.1,5,3.4,0,7-.9,10.6-2.8,6.5-3.5,10.5-9.3,10.5-14.4,0-1.5-.3-2.9-1-4.1m-4.3,6.7c-1.7,1.7-5.1,3.8-8.6,5.8-3.6,2-7.1,3.5-9.5,4-.5,.1-1,.2-1.5,.2-1.6,0-2.8-.6-3.5-1.9-.3-.5-.5-1.1-.5-1.7,0-1.1,.7-2.4,1.8-3.5,1.7-1.7,5-3.8,8.5-5.8,3.6-2,7.1-3.5,9.5-4,.5-.1,1-.2,1.5-.2,1.6,0,2.9,.6,3.6,1.9,.3,.5,.4,1.1,.4,1.7,0,1.1-.6,2.3-1.7,3.5"/><path class="cls-5" d="M364.9,699.19c-1.8-3.3-5.6-5.1-10.1-5.1-3.4,0-7,1-10.6,2.9-6.5,3.5-10.5,9.3-10.5,14.4,0,1.4,.3,2.8,1,4.1,1.8,3.3,5.6,5,10.1,5,3.4,0,7-.9,10.6-2.8,6.5-3.5,10.5-9.3,10.5-14.4,0-1.4-.3-2.8-1-4.1"/><path class="cls-5" d="M557.5,711.59c-1.8-3.3-5.6-5.1-10.1-5.1-3.4,0-7,1-10.6,2.9-6.5,3.5-10.5,9.3-10.5,14.4,0,1.4,.3,2.8,1,4.1,1.8,3.3,5.6,5,10.1,5,3.4,0,7-.9,10.6-2.8,6.5-3.5,10.5-9.3,10.5-14.4,0-1.4-.3-2.8-1-4.1"/><path class="cls-5" d="M750.2,723.99c-1.8-3.3-5.6-5.1-10.1-5.1-3.4,0-7,1-10.6,2.9-6.5,3.5-10.5,9.3-10.5,14.4,0,1.4,.3,2.8,1,4.1,1.8,3.3,5.6,5,10.1,5,3.4,0,7-.9,10.6-2.8,6.5-3.5,10.5-9.3,10.5-14.4,0-1.4-.3-2.8-1-4.1"/><path class="cls-5" d="M987.6,736.39c-1.8-3.3-5.6-5.1-10.1-5.1-3.4,0-7,1-10.6,2.9-6.5,3.5-10.5,9.3-10.5,14.4,0,1.4,.3,2.8,1,4.1,1.8,3.3,5.6,5,10.1,5,3.4,0,7-.9,10.6-2.8,6.5-3.5,10.5-9.3,10.5-14.4,0-1.4-.3-2.8-1-4.1"/><path class="cls-5" d="M1248.7,723.99c-1.8-3.3-5.6-5.1-10.1-5.1-3.4,0-7,1-10.6,2.9-6.5,3.5-10.5,9.3-10.5,14.4,0,1.4,.3,2.8,1,4.1,1.8,3.3,5.6,5,10.1,5,3.4,0,7-.9,10.6-2.8,6.5-3.5,10.5-9.3,10.5-14.4,0-1.4-.3-2.8-1-4.1"/><path class="cls-5" d="M1382.5,736.39c-1.8-3.3-5.6-5.1-10.1-5.1-3.4,0-7,1-10.6,2.9-6.5,3.5-10.5,9.3-10.5,14.4,0,1.4,.3,2.8,1,4.1,1.8,3.3,5.6,5,10.1,5,3.4,0,7-.9,10.6-2.8,6.5-3.5,10.5-9.3,10.5-14.4,0-1.4-.3-2.8-1-4.1"/><path class="cls-5" d="M1642.1,748.79c-1.8-3.3-5.6-5.1-10.1-5.1-3.4,0-7,1-10.6,2.9-6.5,3.5-10.5,9.3-10.5,14.4,0,1.4,.3,2.8,1,4.1,1.8,3.3,5.6,5,10.1,5,3.4,0,7-.9,10.6-2.8,6.5-3.5,10.5-9.3,10.5-14.4,0-1.4-.3-2.8-1-4.1"/><path class="cls-5" d="M1831.6,748.79c-1.8-3.3-5.6-5.1-10.1-5.1-3.4,0-7,1-10.6,2.9-6.5,3.5-10.5,9.3-10.5,14.4,0,1.4,.3,2.8,1,4.1,1.8,3.3,5.6,5,10.1,5,3.4,0,7-.9,10.6-2.8,6.5-3.5,10.5-9.3,10.5-14.4,0-1.4-.3-2.8-1-4.1"/><path class="cls-5" d="M2021.2,773.59c-1.8-3.3-5.6-5.1-10.1-5.1-3.4,0-7,1-10.6,2.9-6.5,3.5-10.5,9.3-10.5,14.4,0,1.4,.3,2.8,1,4.1,1.8,3.3,5.6,5,10.1,5,3.4,0,7-.9,10.6-2.8,6.5-3.5,10.5-9.3,10.5-14.4,0-1.4-.3-2.8-1-4.1"/><path class="cls-5" d="M2256.2,773.59c-1.8-3.3-5.6-5.1-10.1-5.1-3.4,0-7,1-10.6,2.9-6.5,3.5-10.5,9.3-10.5,14.4,0,1.4,.3,2.8,1,4.1,1.8,3.3,5.6,5,10.1,5,3.4,0,7-.9,10.6-2.8,6.5-3.5,10.5-9.3,10.5-14.4,0-1.4-.3-2.8-1-4.1m-4.3,6.8c-1.7,1.7-5.1,3.8-8.6,5.8-3.6,2-7.1,3.5-9.5,4-.5,.1-1,.2-1.5,.2-1.6,0-2.8-.6-3.5-1.9-.3-.5-.5-1.1-.5-1.7,0-1.1,.7-2.4,1.8-3.5,1.7-1.7,5-3.8,8.5-5.8,3.6-2,7.1-3.5,9.5-4,.5-.1,1-.2,1.5-.2,1.6,0,2.9,.6,3.6,1.9,.3,.5,.4,1.1,.4,1.7,0,1.1-.6,2.3-1.7,3.5"/><path class="cls-5" d="M364.9,306.39c-1.8-3.3-5.6-5.1-10.1-5.1-3.4,0-7,1-10.6,2.9-6.5,3.5-10.5,9.3-10.5,14.4,0,1.4,.3,2.8,1,4.1,1.8,3.3,5.6,5,10.1,5,3.4,0,7-.9,10.6-2.8,6.5-3.5,10.5-9.3,10.5-14.4,0-1.5-.3-2.9-1-4.1"/><path class="cls-5" d="M557.5,293.89c-1.8-3.3-5.6-5.1-10.1-5.1-3.4,0-7,1-10.6,2.9-6.5,3.5-10.5,9.3-10.5,14.4,0,1.4,.3,2.8,1,4.1,1.8,3.3,5.6,5,10.1,5,3.4,0,7-.9,10.6-2.8,6.5-3.5,10.5-9.3,10.5-14.4,0-1.4-.3-2.8-1-4.1"/><path class="cls-5" d="M750.2,281.49c-1.8-3.3-5.6-5.1-10.1-5.1-3.4,0-7,1-10.6,2.9-6.5,3.5-10.5,9.3-10.5,14.4,0,1.4,.3,2.8,1,4.1,1.8,3.3,5.6,5,10.1,5,3.4,0,7-.9,10.6-2.8,6.5-3.5,10.5-9.3,10.5-14.4,0-1.4-.3-2.8-1-4.1"/><path class="cls-5" d="M987.6,318.79c-1.8-3.3-5.6-5.1-10.1-5.1-3.4,0-7,1-10.6,2.9-6.5,3.5-10.5,9.3-10.5,14.4,0,1.4,.3,2.8,1,4.1,1.8,3.3,5.6,5,10.1,5,3.4,0,7-.9,10.6-2.8,6.5-3.5,10.5-9.3,10.5-14.4,0-1.5-.3-2.9-1-4.1"/><path class="cls-5" d="M1248.7,306.39c-1.8-3.3-5.6-5.1-10.1-5.1-3.4,0-7,1-10.6,2.9-6.5,3.5-10.5,9.3-10.5,14.4,0,1.4,.3,2.8,1,4.1,1.8,3.3,5.6,5,10.1,5,3.4,0,7-.9,10.6-2.8,6.5-3.5,10.5-9.3,10.5-14.4,0-1.5-.3-2.9-1-4.1"/><path class="cls-5" d="M1382.5,318.79c-1.8-3.3-5.6-5.1-10.1-5.1-3.4,0-7,1-10.6,2.9-6.5,3.5-10.5,9.3-10.5,14.4,0,1.4,.3,2.8,1,4.1,1.8,3.3,5.6,5,10.1,5,3.4,0,7-.9,10.6-2.8,6.5-3.5,10.5-9.3,10.5-14.4,0-1.5-.3-2.9-1-4.1"/><path class="cls-5" d="M1642.1,331.19c-1.8-3.3-5.6-5.1-10.1-5.1-3.4,0-7,1-10.6,2.9-6.5,3.5-10.5,9.3-10.5,14.4,0,1.4,.3,2.8,1,4.1,1.8,3.3,5.6,5,10.1,5,3.4,0,7-.9,10.6-2.8,6.5-3.5,10.5-9.3,10.5-14.4,0-1.5-.3-2.9-1-4.1"/><path class="cls-5" d="M1831.6,331.19c-1.8-3.3-5.6-5.1-10.1-5.1-3.4,0-7,1-10.6,2.9-6.5,3.5-10.5,9.3-10.5,14.4,0,1.4,.3,2.8,1,4.1,1.8,3.3,5.6,5,10.1,5,3.4,0,7-.9,10.6-2.8,6.5-3.5,10.5-9.3,10.5-14.4,0-1.5-.3-2.9-1-4.1"/><path class="cls-5" d="M2021.2,355.99c-1.8-3.3-5.6-5.1-10.1-5.1-3.4,0-7,1-10.6,2.9-6.5,3.5-10.5,9.3-10.5,14.4,0,1.4,.3,2.8,1,4.1,1.8,3.3,5.6,5,10.1,5,3.4,0,7-.9,10.6-2.8,6.5-3.5,10.5-9.3,10.5-14.4,0-1.5-.3-2.9-1-4.1"/><path class="cls-5" d="M2256.2,343.59c-1.8-3.3-5.6-5.1-10.1-5.1-3.4,0-7,1-10.6,2.9-6.5,3.5-10.5,9.3-10.5,14.4,0,1.4,.3,2.8,1,4.1,1.8,3.3,5.6,5,10.1,5,3.4,0,7-.9,10.6-2.8,6.5-3.5,10.5-9.3,10.5-14.4,0-1.5-.3-2.9-1-4.1m-4.3,6.7c-1.7,1.7-5.1,3.8-8.6,5.8-3.6,2-7.1,3.5-9.5,4-.5,.1-1,.2-1.5,.2-1.6,0-2.8-.6-3.5-1.9-.3-.5-.5-1.1-.5-1.7,0-1.1,.7-2.4,1.8-3.5,1.7-1.7,5-3.8,8.5-5.8,3.6-2,7.1-3.5,9.5-4,.5-.1,1-.2,1.5-.2,1.6,0,2.9,.6,3.6,1.9,.3,.5,.4,1.1,.4,1.7,0,1.1-.6,2.3-1.7,3.5"/><path class="cls-5" d="M186,1071.19c-7.5,0-13.6,4.4-13.7,4.4-5.8,4.3-8,9.3-8.9,12.8-.5,1.8-.7,3.6-.7,5.3,0,2.4,.4,4.6,1.3,6.4,1.2,2.7,3.5,4.6,6.4,5.6,1.2,.4,2.5,.6,3.8,.6,2.2,0,4.5-.6,6.3-1.7,3.1-1.7,5-5.3,5-9.1,0-3.5-1.8-6.6-4.8-8.5-2.1-1.4-4.1-1.8-5.8-1.8-1.2,0-2.3,.2-3.2,.5-1,.4-2.7,1.4-3.5,2.1,.3-1.9,1.5-4.8,2.6-6.3s3.3-3.6,5-4.5c2.5-1.4,5.7-2,9.1-2,10.1,0,15.1,8.1,15.1,24.8,0,9.2-3.5,18.1-6.4,23.9-3.3,6.5-7.6,12.8-11.5,16.3-10.3,9.4-20,13.9-20.1,13.9,0,0-1.5,.9-1.1,2.4,.3,1,1.2,1.2,1.8,1.2,.1,0,.4-.1,.5-.1s11.4-4.7,20.4-11.7c5.1-3.7,9.6-7.6,13.6-11.9,3.6-3.9,6.6-8,9.1-12.2,4.4-7.4,6.8-15.2,6.8-21.8,0-8.2-2.2-15.1-6.3-19.9-4.5-5.8-11.6-8.7-20.8-8.7m31.2,12.6c0,2.8,2.2,5,4.8,5s4.8-2.2,4.8-5-2.2-5.1-4.8-5.1-4.8,2.3-4.8,5.1m0,24.5c0,2.8,2.2,5.1,4.8,5.1s4.8-2.3,4.8-5.1-2.2-5.1-4.8-5.1-4.8,2.4-4.8,5.1"/><path class="cls-5" d="M186,864.39c-7.5,0-13.6,4.4-13.7,4.4-5.8,4.3-8,9.3-8.9,12.8-.5,1.8-.7,3.6-.7,5.3,0,2.4,.4,4.6,1.3,6.4,1.2,2.7,3.5,4.6,6.4,5.6,1.2,.4,2.5,.6,3.8,.6,2.2,0,4.5-.6,6.3-1.7,3.1-1.7,5-5.3,5-9.1,0-3.5-1.8-6.6-4.8-8.5-2.1-1.4-4.1-1.8-5.8-1.8-1.2,0-2.3,.2-3.2,.5-1,.4-2.7,1.4-3.5,2.1,.3-1.9,1.5-4.8,2.6-6.3s3.3-3.6,5-4.5c2.5-1.4,5.7-2,9.1-2,10.1,0,15.1,8.1,15.1,24.8,0,9.2-3.5,18.1-6.4,23.9-3.3,6.5-7.6,12.8-11.5,16.3-10.3,9.4-20,13.9-20.1,13.9,0,0-1.5,.9-1.1,2.4,.3,1,1.2,1.2,1.8,1.2,.1,0,.4-.1,.5-.1s11.4-4.7,20.4-11.7c5.1-3.7,9.6-7.6,13.6-11.9,3.6-3.9,6.6-8,9.1-12.2,4.4-7.4,6.8-15.2,6.8-21.8,0-8.2-2.2-15.1-6.3-19.9-4.5-5.8-11.6-8.7-20.8-8.7m31.2,12.6c0,2.8,2.2,5,4.8,5s4.8-2.2,4.8-5-2.2-5.1-4.8-5.1-4.8,2.3-4.8,5.1m0,24.5c0,2.8,2.2,5.1,4.8,5.1s4.8-2.3,4.8-5.1-2.2-5.1-4.8-5.1-4.8,2.3-4.8,5.1"/><path class="cls-5" d="M223.7,726.19c-1.2-5.4-3.8-9.2-4.6-10.2-3.2-4.2-7.1-7.1-11.8-8.4-3.1-.9-6.1-1-8.5-.8-1-6-2-11.8-2.9-17.2,5.4-6.1,9-11.9,11.3-16.1,3.4-6.5,4.6-11.1,4.6-11.3,1.7-5.2,2.1-12.8,1-21-1-7.5-3.1-14.1-5.4-17.4-1-1.4-2.1-2.1-3.1-2.1-1.2,0-3.7,1.2-6.6,4-2.3,2.2-5.5,6-8.1,12-3,7-3.2,16.4-2.8,23.1,.4,7.2,1.5,12.9,1.5,12.9,0,.1,.3,1.6,.7,4.1-.2,.2-.5,.4-.7,.7-1,1-2.2,2.1-3.6,3.5-.9,.9-1.8,1.8-2.8,2.7-8.4,8.1-21.1,20.3-21.1,39.3,0,4.7,.9,9,2.7,13,1.6,3.6,3.9,6.8,6.8,9.7,7.7,7.5,18.2,10.7,25.2,10.5,2.9-.1,5.5-.3,7.9-.8,1.8,9.5,2.9,16.5,3,21.8,0,6.5-1.6,10.4-5.5,13.1-2.4,1.7-5.2,2.7-8.3,2.8-2.6,.1-4.8-.3-6.2-.8h0s-.3-.1-.3-.3,.3-.2,.3-.2h0c1.9-.4,5.4-1.7,7.8-4.9,1.8-2.5,2.6-7.1,.8-11-1.1-2.4-3.6-5.3-9.2-5.7-2.5-.2-4.7,.3-6.7,1.5-1.8,1.1-3.3,2.7-4.3,4.7-2.4,4.7-2,10.3,1.1,14.2,2.9,3.6,7.5,5.9,12.9,6.5,.8,.1,1.7,.1,2.5,.1,4.4,0,8.8-1.2,12.3-3.4,3.6-2.5,5.7-6.5,6.4-12.1,.6-4.6,.2-10.5-1.2-18.5-.4-2.1-.9-5.1-1.5-8.8,5.7-1.9,9.8-5.4,13.6-11.3,3.2-5.6,4.2-11.6,2.8-17.9m-34,26c-4.6-1.2-9-3.7-12.7-7.2-1.3-1.2-3.2-3.4-4.6-6.7-1.4-3.1-2-6.5-2-10.1,.1-4.7,1.4-9.4,3.9-14.2,2.9-5.5,7.4-11,13.4-16.3,1.4-1.3,2.8-2.5,4.1-3.8,.8,4.2,1.6,8.9,2.5,13.7-3.8,1.3-8.5,4.4-11.6,10-3.5,6.5-3.4,12-2.6,15.4,.9,4.4,3.4,8.2,6.9,10.2,.9,.6,5,2.7,6.8,2.1,.4-.1,.6-.3,.8-.7,.5-1.2-.5-1.8-2.1-2.7-.6-.4-1.3-.8-2-1.3-3.3-2.5-4.7-6.9-3.7-11.2,.6-2.4,1.8-4.5,3.7-6.2,1.7-1.5,3.7-2.6,6-3.3,2,11.2,4.1,22.2,5.7,30.5,.1,.7,.3,1.3,.4,2-4.4,1-8.7,.9-12.9-.2m11.3-32.9c10.3-.5,14.5,6.9,15.4,11.7,.5,2.5,.5,6.9-1.1,11.1-1.2,3.2-3.6,7.2-8.7,9.2-.1-.4-.1-.8-.2-1.3-1.6-8.6-3.5-19.5-5.4-30.7m-7.3-70.4c1.8-5.7,4.5-8.9,6.5-10.6,1.7-1.5,3.4-2.2,4.3-2.2h.4c.5,.1,1,.7,1.4,1.6,2.3,4.3,1.6,10.9,.2,15.3-1.6,5.4-4.5,10.9-13.2,20.5-.2-1.1-.3-2.1-.5-3.1-1.3-8.3-1-15.5,.9-21.5"/><path class="cls-5" d="M223.7,333.39c-1.2-5.4-3.8-9.2-4.6-10.2-3.2-4.2-7.1-7.1-11.8-8.4-3.1-.9-6.1-1-8.5-.8-1-6-2-11.8-2.9-17.2,5.4-6.1,9-11.9,11.3-16.1,3.4-6.5,4.6-11.1,4.6-11.3,1.7-5.2,2.1-12.8,1-21-1-7.5-3.1-14.1-5.4-17.4-1-1.4-2.1-2.1-3.1-2.1-1.2,0-3.7,1.2-6.6,4-2.3,2.2-5.5,6-8.1,12-3,7-3.2,16.4-2.8,23.1,.4,7.2,1.5,12.9,1.5,12.9,0,.1,.3,1.6,.7,4.1-.2,.2-.5,.4-.7,.7-1,1-2.2,2.1-3.6,3.5-.9,.9-1.8,1.8-2.8,2.7-8.4,8.1-21.1,20.3-21.1,39.3,0,4.7,.9,9,2.7,13,1.6,3.6,3.9,6.8,6.8,9.7,7.7,7.5,18.2,10.7,25.2,10.5,2.9-.1,5.5-.3,7.9-.8,1.8,9.5,2.9,16.5,3,21.8,0,6.5-1.6,10.4-5.5,13.1-2.4,1.7-5.2,2.7-8.3,2.8-2.6,.1-4.8-.3-6.2-.8h0s-.3-.1-.3-.3,.3-.2,.3-.2h0c1.9-.4,5.4-1.7,7.8-4.9,1.8-2.5,2.6-7.1,.8-11-1.1-2.4-3.6-5.3-9.2-5.7-2.5-.2-4.7,.3-6.7,1.5-1.8,1.1-3.3,2.7-4.3,4.7-2.4,4.7-2,10.3,1.1,14.2,2.9,3.6,7.5,5.9,12.9,6.5,.8,.1,1.7,.1,2.5,.1,4.4,0,8.8-1.2,12.3-3.4,3.6-2.5,5.7-6.5,6.4-12.1,.6-4.6,.2-10.5-1.2-18.5-.4-2.1-.9-5.1-1.5-8.8,5.7-1.9,9.8-5.4,13.6-11.3,3.2-5.6,4.2-11.7,2.8-17.9m-34,26c-4.6-1.2-9-3.7-12.7-7.2-1.3-1.2-3.2-3.4-4.6-6.7-1.4-3.1-2-6.5-2-10.1,.1-4.7,1.4-9.4,3.9-14.2,2.9-5.5,7.4-11,13.4-16.3,1.4-1.3,2.8-2.5,4.1-3.8,.8,4.2,1.6,8.9,2.5,13.7-3.8,1.3-8.5,4.4-11.6,10-3.5,6.5-3.4,12-2.6,15.4,.9,4.4,3.4,8.2,6.9,10.2,.9,.6,5,2.7,6.8,2.1,.4-.1,.6-.3,.8-.7,.5-1.2-.5-1.8-2.1-2.7-.6-.4-1.3-.8-2-1.3-3.3-2.5-4.7-6.9-3.7-11.2,.6-2.4,1.8-4.5,3.7-6.2,1.7-1.5,3.7-2.6,6-3.3,2,11.2,4.1,22.2,5.7,30.5,.1,.7,.3,1.3,.4,2-4.4,.9-8.7,.9-12.9-.2m11.3-33c10.3-.5,14.5,6.9,15.4,11.7,.5,2.5,.5,6.9-1.1,11.1-1.2,3.2-3.6,7.2-8.7,9.2-.1-.4-.1-.8-.2-1.3-1.6-8.6-3.5-19.5-5.4-30.7m-7.3-70.4c1.8-5.7,4.5-8.9,6.5-10.6,1.7-1.5,3.4-2.2,4.3-2.2h.4c.5,.1,1,.7,1.4,1.6,2.3,4.3,1.6,10.9,.2,15.3-1.6,5.4-4.5,10.9-13.2,20.5-.2-1.1-.3-2.1-.5-3.1-1.3-8.2-1-15.4,.9-21.5"/><path class="cls-5" d="M271.4,1137.89c-.6-3.9-3-7.5-8-7.5s-7.8,3.1-8.3,3.7l.4-31.8c0-.8-.6-1.4-1.4-1.4h-1.2c-.8,0-1.4,.6-1.4,1.4l.5,59.6c0,.8,.6,1.4,1.4,1.4,.2,0,.6-.1,.8-.2,.4-.2,6.8-3.4,12.2-9.4,3.8-4.3,5.3-9.1,5.3-13.2-.1-1-.2-1.8-.3-2.6m-6.8,3.9c0,1.5-.4,6.1-2.9,9.8-1.7,2.6-5.1,5.3-6.9,6.7l.3-19.3c.2-.9,1.7-3.8,5.7-3.8,3.6,0,3.9,3.4,3.9,5.5v1.1"/><path class="cls-5" d="M271.4,931.09c-.6-3.9-3-7.5-8-7.5s-7.8,3.1-8.3,3.7l.4-31.8c0-.8-.6-1.4-1.4-1.4h-1.2c-.8,0-1.4,.6-1.4,1.4l.5,59.6c0,.8,.6,1.4,1.4,1.4,.2,0,.6-.1,.8-.2,.4-.2,6.8-3.4,12.2-9.4,3.8-4.3,5.3-9.1,5.3-13.2-.1-1.1-.2-1.8-.3-2.6m-6.8,3.8c0,1.5-.4,6.1-2.9,9.8-1.7,2.6-5.1,5.3-6.9,6.7l.3-19.3c.2-.9,1.7-3.8,5.7-3.8,3.6,0,3.9,3.4,3.9,5.5v1.1"/><path class="cls-5" d="M271.4,699.39c-.6-3.9-3-7.5-8-7.5s-7.8,3.1-8.3,3.7l.4-31.8c0-.8-.6-1.4-1.4-1.4h-1.2c-.8,0-1.4,.6-1.4,1.4l.5,59.6c0,.8,.6,1.4,1.4,1.4,.2,0,.6-.1,.8-.2,.4-.2,6.8-3.4,12.2-9.4,3.8-4.3,5.3-9.1,5.3-13.2-.1-1-.2-1.8-.3-2.6m-6.8,3.9c0,1.5-.4,6.1-2.9,9.8-1.7,2.6-5.1,5.3-6.9,6.7l.3-19.3c.2-.9,1.7-3.8,5.7-3.8,3.6,0,3.9,3.4,3.9,5.5v1.1"/><path class="cls-5" d="M271.4,306.59c-.6-3.9-3-7.5-8-7.5s-7.8,3.1-8.3,3.7l.4-31.8c0-.8-.6-1.4-1.4-1.4h-1.2c-.8,0-1.4,.6-1.4,1.4l.5,59.6c0,.8,.6,1.4,1.4,1.4,.2,0,.6-.1,.8-.2,.4-.2,6.8-3.4,12.2-9.4,3.8-4.3,5.3-9.1,5.3-13.2-.1-1.1-.2-1.9-.3-2.6m-6.8,3.8c0,1.5-.4,6.1-2.9,9.8-1.7,2.6-5.1,5.3-6.9,6.7l.3-19.3c.2-.9,1.7-3.8,5.7-3.8,3.6,0,3.9,3.4,3.9,5.5v1.1"/><path class="cls-5" d="M2468.2,1137.69l-.2-.3c-.1-.1-.3-.3-.6-.7l-11.4-14.1c-.3-.3-.2-1.1,0-1.5l10.1-15.3c.1-.2,.2-.5,.2-.7v-.9c0-.3-.1-.6-.3-.8l-16.1-21.7s-.8-1.2-1.8-.3c-1,.8-.2,2.1-.2,2.1l7.5,10.3c.4,.6,.4,1.8,0,2.4l-10,15.3c-.1,.2-.2,.6-.2,.8v.9c0,.3,.1,.6,.3,.8l11.1,13.8c-.4-.1-1.3-.3-2.5-.3-1.7,0-3.9,.4-5.7,2-2.2,2-3.4,4.8-3.4,7.2,0,1.4,.3,2.8,1.1,3.9,2.1,3.2,9.5,12.6,9.5,12.6,0,0,.9,1.1,1.8,.4,.9-.7,.7-1.6,.4-2.1s-3.5-6.3-3.5-6.3c0,0-.7-1.4-.7-3.2,0-1.3,.4-2.9,1.7-4.2,1.2-1.2,2.6-1.6,3.9-1.6s2.4,.4,3.2,.9l3.9,2.5s1.2,.6,1.8-.3c.6-.7,.4-1.1,.1-1.6"/><path class="cls-5" d="M2468.2,930.89l-.2-.3c-.1-.1-.3-.3-.6-.7l-11.4-14.1c-.3-.3-.2-1.1,0-1.5l10.1-15.3c.1-.2,.2-.5,.2-.7v-.9c0-.3-.1-.6-.3-.8l-16.1-21.7s-.8-1.2-1.8-.3c-1,.8-.2,2.1-.2,2.1l7.5,10.3c.4,.6,.4,1.8,0,2.4l-10,15.3c-.1,.2-.2,.6-.2,.8v.9c0,.3,.1,.6,.3,.8l11.1,13.8c-.4-.1-1.3-.3-2.5-.3-1.7,0-3.9,.4-5.7,2-2.2,2-3.4,4.8-3.4,7.2,0,1.4,.3,2.8,1.1,3.9,2.1,3.2,9.5,12.6,9.5,12.6,0,0,.9,1.1,1.8,.4,.9-.7,.7-1.6,.4-2.1s-3.5-6.3-3.5-6.3c0,0-.7-1.4-.7-3.2,0-1.3,.4-2.9,1.7-4.2,1.2-1.2,2.6-1.6,3.9-1.6s2.4,.4,3.2,.9l3.9,2.5s1.2,.6,1.8-.3c.6-.7,.4-1.1,.1-1.6"/><path class="cls-5" d="M2468.2,723.99l-.2-.3c-.1-.1-.3-.3-.6-.7l-11.4-14.1c-.3-.3-.2-1.1,0-1.5l10.1-15.3c.1-.2,.2-.5,.2-.7v-.9c0-.3-.1-.6-.3-.8l-16.1-21.7s-.8-1.2-1.8-.3c-1,.8-.2,2.1-.2,2.1l7.5,10.3c.4,.6,.4,1.8,0,2.4l-10,15.3c-.1,.2-.2,.6-.2,.8v.9c0,.3,.1,.6,.3,.8l11.1,13.8c-.4-.1-1.3-.3-2.5-.3-1.7,0-3.9,.4-5.7,2-2.2,2-3.4,4.8-3.4,7.2,0,1.4,.3,2.8,1.1,3.9,2.1,3.2,9.5,12.6,9.5,12.6,0,0,.9,1.1,1.8,.4,.9-.7,.7-1.6,.4-2.1s-3.5-6.3-3.5-6.3c0,0-.7-1.4-.7-3.2,0-1.3,.4-2.9,1.7-4.2,1.2-1.2,2.6-1.6,3.9-1.6s2.4,.4,3.2,.9l3.9,2.5s1.2,.6,1.8-.3c.6-.7,.4-1.1,.1-1.6"/><path class="cls-5" d="M2468.2,331.19l-.2-.3c-.1-.1-.3-.3-.6-.7l-11.4-14.1c-.3-.3-.2-1.1,0-1.5l10.1-15.3c.1-.2,.2-.5,.2-.7v-.9c0-.3-.1-.6-.3-.8l-16.1-21.7s-.8-1.2-1.8-.3c-1,.8-.2,2.1-.2,2.1l7.5,10.3c.4,.6,.4,1.8,0,2.4l-10,15.3c-.1,.2-.2,.6-.2,.8v.9c0,.3,.1,.6,.3,.8l11.1,13.8c-.4-.1-1.3-.3-2.5-.3-1.7,0-3.9,.4-5.7,2-2.2,2-3.4,4.8-3.4,7.2,0,1.4,.3,2.8,1.1,3.9,2.1,3.2,9.5,12.6,9.5,12.6,0,0,.9,1.1,1.8,.4,.9-.7,.7-1.6,.4-2.1s-3.5-6.3-3.5-6.3c0,0-.7-1.4-.7-3.2,0-1.3,.4-2.9,1.7-4.2,1.2-1.2,2.6-1.6,3.9-1.6s2.4,.4,3.2,.9l3.9,2.5s1.2,.6,1.8-.3c.6-.8,.4-1.1,.1-1.6"/><path class="cls-5" d="M1219.9,1183.29c0-.2,.9-3.6,1-3.9,.1-.4,1.9-6.1,5.6-11.7,2.7-4.2,12.1-16.4,11.8-16.4,0,0,7.3-9.4,7.8-22.2v-2.3c0-6.1-.8-14.6-4.3-23.2-.4-1-.8-2-1.9-1.6s-.8,1.6-.5,2.7c1.8,6.9,2.8,14.1,2.8,21.2,0,8.3-3,12.5-4.8,15.6-6.5,11-15.1,16.4-19.2,17.8-.5,.2-.8,.6-.8,1.1v22.5c0,.7,.6,1.3,1.3,1.3,.5-.1,1.1-.5,1.2-.9"/><path class="cls-5" d="M1219.9,964.09c0-.2,.9-3.6,1-3.9,.1-.4,1.9-6.1,5.6-11.7,2.7-4.2,12.1-16.4,11.8-16.4,0,0,7.3-9.4,7.8-22.2v-2.3c0-6.1-.8-14.6-4.3-23.2-.4-1-.8-2-1.9-1.6s-.8,1.6-.5,2.7c1.8,6.9,2.8,14.1,2.8,21.2,0,8.3-3,12.5-4.8,15.6-6.5,11-15.1,16.4-19.2,17.8-.5,.2-.8,.6-.8,1.1v22.5c0,.7,.6,1.3,1.3,1.3,.5-.1,1.1-.5,1.2-.9"/><path class="cls-5" d="M1250.4,651.79c-.1-.3-1-3.8-1-4-.1-.4-.7-.7-1.2-.7-.7,0-1.3,.6-1.3,1.3v22.5c0,.5,.4,.9,.8,1.1,4.2,1.3,12.8,6.7,19.2,17.8,1.8,3.1,4.7,7.2,4.7,15.6,0,7.1-1.1,14.7-2.9,21.6-.3,1.1-.6,2.1,.5,2.5s1.5-.4,1.9-1.4c3.6-8.7,4.5-17.9,4.5-24v-1.9c-.5-12.8-7.8-22.2-7.8-22.2,.3,0-9.1-12.2-11.8-16.4-3.7-5.7-5.5-11.4-5.6-11.8"/><path class="cls-5" d="M1219.9,401.59c0-.2,.9-3.6,1-3.9,.1-.4,1.9-6.1,5.6-11.7,2.7-4.2,12.1-16.4,11.8-16.4,0,0,7.3-9.4,7.8-22.2v-2.3c0-6.1-.8-14.6-4.3-23.2-.4-1-.8-2-1.9-1.6s-.8,1.6-.5,2.7c1.8,6.9,2.8,14.1,2.8,21.2,0,8.3-3,12.5-4.8,15.6-6.5,11-15.1,16.4-19.2,17.8-.5,.2-.8,.6-.8,1.1v22.5c0,.7,.6,1.3,1.3,1.3,.5-.1,1.1-.5,1.2-.9"/><path class="cls-5" d="M336.3,435.49c.7,0,.8,0,1.7,.2,3.2,.4,7.5,.6,11,.6,2.8,0,4.5-.1,7.5-.6-.5,.3-.6,.3-1,.5-.6,.3-.7,.3-1.2,.6-2.2,1.2-3.5,2-6.6,4.2l2.6,2.1c4.9-3.6,9.5-6.3,12.6-7.6l-.2-3.3c-2.8,.7-6.8,1.1-12.6,1.1s-9.7-.4-13.3-1.2l-.5,3.4m3,12.8c-3.8,3.2-5.8,6.4-5.8,9.7,0,3.5,2,6,5.7,7.6,2.5,.9,6.7,1.5,11.5,1.5,4.4,0,9.2-.4,13.5-1.1,.8-.2,1-.2,1.7-.2l-.5-4.1c-2.8,1.2-8.8,1.9-15,1.9-4,0-7.2-.3-9.1-1-2.8-.9-4.2-2.6-4.2-4.9s1.5-4.6,4.8-7.3l-2.6-2.1"/><path class="cls-5" d="M330.8,497.19c.9-.4,1.5-.6,3.6-1.2,8.6-2.4,15.2-3.5,20.4-3.5,6.8,0,10.9,3.4,10.9,9s-3.8,10.1-10.7,12.6c-3.8,1.4-8.3,2.1-13.9,2.3,.9,1.4,1.1,2,1.5,3.7,7.8-.7,12-1.6,16.5-3.8,6.7-3.2,10.4-8.5,10.4-14.8,0-7.7-5.8-12.5-15-12.5-4.1,0-8.9,.6-14.5,1.8q-8.9,2-10.4,2.1l1.2,4.3"/><path class="cls-5" d="M330.1,540.19c.1,.9,.1,1,.1,2.9,.2,12.3,1,18.7,2.7,23.4,1.7,4.8,4.3,7.6,7.1,7.6,3.5,0,5.8-3.4,8.3-12.1-1.4-1.1-1.9-1.5-3-2.8-.6,3.4-1.4,6.1-2.6,8.6-.8,1.7-1.6,2.5-2.5,2.5-1.9,0-4-3.5-5.1-8.6-.8-3.2-1.3-10-1.3-15.5,0-2.8,.1-4.4,.4-6h-4.1m25.3,4.3c5.8,6.8,9.5,15.3,10.4,24.6l3.6-1.4c-.9-5.6-1.9-9.2-3.8-13.3-1.9-4.2-3.9-7.6-7.2-11.4l-3,1.5"/><path class="cls-5" d="M530.1,431.99c.7,.2,.8,.2,1.7,.6,4.8,1.9,9,2.9,12.9,3.2-1.1,.5-2,1-3.2,1.9-3.2,2.4-4.9,5-4.9,7.6,0,2.1,.8,3.9,2.8,6.1q3.3,3.7,4.2,4.9c1,1.5,1.5,2.9,1.5,4.2,0,2.8-2.4,4.8-5.5,4.8-2.9,0-5.8-1.4-8.6-4.3-.4,1.9-.5,2.4-1,3.5,3.5,3,6.5,4.2,10,4.2,5.2,0,9-3.5,9-8.1,0-2.9-1.4-5.5-4.6-9q-3.3-3.5-3.9-4.5c-.3-.6-.6-1.4-.6-2,0-2.3,2.1-4.8,6-7,1.6-.9,2.6-1.3,3.8-1.5l.1-3.6c-.4,.1-.6,.1-.8,.1-2.7,0-8.4-1-11.6-2-2.5-.8-4.5-1.6-5.6-2.4l-1.7,3.3m-4.1,16.4c-1.1,5.8-3.9,12.3-6.9,16.1,1.5,.8,2,1.2,3,2.1,3-4.7,4.8-8.5,6.6-14.8,.2-.8,.4-1.3,.4-1.5,.1-.1,.2-.4,.2-.7l-3.3-1.2m25.5,1c2.8,2.8,7.1,11.2,8.3,16.3l3.2-1.7c-2.2-6.5-4.7-11-8.5-16l-3,1.4m.9-15.3c1.5,1.6,3.9,5.3,5.1,7.9l2.5-1.5c-1.5-2.9-2.9-5-5.1-7.8l-2.5,1.4m5.7-2.7c2,2.2,4,5.5,5.1,7.8l2.5-1.4c-1.6-3.2-2.9-5-5.2-7.8l-2.4,1.4"/><path class="cls-5" d="M523.5,497.19c.8-.4,1.5-.6,3.6-1.2,8.7-2.4,15.2-3.5,20.4-3.5,6.8,0,11,3.4,11,9s-3.9,10.1-10.7,12.6c-3.8,1.4-8.3,2.1-13.9,2.3,.9,1.4,1.2,2,1.5,3.7,7.8-.7,12-1.6,16.6-3.8,6.7-3.2,10.4-8.5,10.4-14.8,0-7.7-5.8-12.5-15-12.5-4.1,0-8.9,.6-14.5,1.8q-8.9,2-10.4,2.1l1,4.3"/><path class="cls-5" d="M523.5,551.09c.8-.4,1.5-.6,3.6-1.2,8.7-2.4,15.2-3.6,20.4-3.6,6.8,0,11,3.4,11,9s-3.9,10.1-10.7,12.6c-3.8,1.4-8.3,2.1-13.9,2.3,.9,1.3,1.2,2,1.5,3.7,7.8-.7,12-1.6,16.6-3.8,6.7-3.2,10.4-8.5,10.4-14.8,0-7.7-5.8-12.5-15-12.5-4.1,0-8.9,.6-14.5,1.8q-8.9,2-10.4,2.1l1,4.4"/><path class="cls-5" d="M726.6,427.29c-.1,2.3-.9,6.6-1.7,9.4h-3.6c-2.8,0-4.2-.1-6-.4v3.4h.7c.1,0,.5,0,1.1,.1h3.3c.8,0,2.5,0,3.7-.1-1.5,4.8-2.9,8.3-5.2,12.9-1.8,3.6-3.2,5.8-4.8,7.8l3.4,2c.2-.4,.5-1,1-1.7,1.9-3.3,2.3-4.2,3.5-6.6,2.2-4.6,4-9.2,5.5-14.6,3-.2,6.2-.6,8.2-1q1.2-.2,1.8-.3l-.2-3.4c-2.3,.8-5.4,1.3-8.9,1.6,.7-2.5,1-3.8,1.3-5.4,.4-2.1,.5-2.2,.8-3.2l-3.9-.5m29.4,13.8c-4-2.6-7.4-4.3-13.2-6.6l-1.8,2.8c5.2,1.9,9,3.9,13.2,6.8l1.8-3m.1,22.2q-.4-.2-.9-.8c-2.7-2.4-5.8-4.3-9.8-6.1-.3-1.9-.5-5.3-.5-7.6,0-1.8,.1-2.8,.6-4.7l-3.4-.3c-.4,1.8-.5,3.1-.5,4.8,0,1.2,.1,3.6,.3,6.8-2-.5-3.2-.8-5-.8-2.2,0-4.2,.4-5.9,1.1-2.8,1.1-4.6,3.6-4.6,6.3,0,4.4,3.8,7.2,9.8,7.2s9.5-2.8,9.5-8c0-.5,0-.8-.1-1.6,3.7,1.9,6.8,4.4,8.8,6.8l1.7-3.1m-13.9-4.6s.1,1.5,.1,2.2c0,3.8-1.9,5.4-6.2,5.4-3.9,0-6.3-1.6-6.3-4.1,0-2.8,2.7-4.5,7-4.5,1.9,0,3.3,.3,5.4,1"/><path class="cls-5" d="M744.9,482.49c1.5,1.6,3.9,5.3,5.2,8l2.5-1.5c-1.5-3-2.9-5.1-5.2-7.8l-2.5,1.3m-32.2,15.4c2.2-.7,3.7-.9,10-1.8-2.2,9.5-6.5,19.5-10.7,24.9l3.4,2c5.2-9.2,8.7-17.8,10.8-27.2,1.9-.2,2.5-.2,3.6-.2,4.6,0,6.1,1.7,6.1,7,0,5.6-.8,10.7-2.1,13.9-.7,1.6-1.6,2.4-2.8,2.4-1.8,0-4.6-.8-7.5-2.3,.1,.9,.1,1.2,.1,1.9s0,1.1-.1,1.8c3.3,1.4,5.4,1.9,7.5,1.9,2.4,0,3.7-.7,4.9-2.3,2-2.9,3.3-9.6,3.3-17.2,0-4.1-.7-6.4-2.5-8.1-1.5-1.5-3.6-2.1-7.2-2.1-1.2,0-1.8,0-3,.2,.4-2.2,.8-4.5,1-5.7,.4-2.7,.7-3.8,1-4.8l-4-.5v.7c0,2.1-.7,6.8-1.5,10.6-7.4,1.1-9.2,1.2-11,1.3l.7,3.6m37.9-18c2,2.2,4,5.5,5.1,7.9l2.5-1.5c-1.6-3.2-2.9-5-5.1-7.8l-2.5,1.4m-8.4,11.4c4.5,4.5,8.5,11.6,10.2,18l3.2-1.8c-2.1-6.6-5.5-12.4-10.5-17.7l-2.9,1.5"/><path class="cls-5" d="M737.7,542.49c2.5,.1,4,.5,5.8,1.2,5,2.2,7.9,6.8,7.9,12.6,0,6.2-3.3,11.5-8.8,14-2.3,1.1-4.7,1.8-8.3,2.3,.9,1.2,1.2,1.7,1.8,3.3,3.4-.8,5.3-1.3,7.6-2.3,7.2-3.1,11.5-9.5,11.5-17.2,0-4.8-1.7-9.2-4.9-12.2-3.2-3.2-8.1-4.9-13.8-4.9-6.7,0-12.1,2.2-16.1,6.7-3.4,3.8-5.2,8.7-5.2,13.8,0,7,3.5,12.2,8.3,12.2,3.6,0,6.5-3,9.5-9.6,2.1-5.3,4-12.9,4.7-19.9m-3.6,.1c-.7,6.4-2.5,13.8-4.5,18.5-2.2,4.9-4.2,7.2-6.2,7.2-2.7,0-4.8-3.7-4.8-8.5,0-6.2,3.1-11.8,8.1-14.9,2.3-1.4,4.4-2.1,7.4-2.3"/><path class="cls-5" d="M953.5,443.29c.8-.4,1.5-.6,3.6-1.2,8.7-2.4,15.2-3.6,20.4-3.6,6.8,0,11,3.4,11,9s-3.9,10.1-10.7,12.6c-3.8,1.4-8.3,2.1-13.9,2.3,.9,1.3,1.2,1.9,1.6,3.7,7.8-.7,11.9-1.6,16.6-3.8,6.7-3.2,10.4-8.5,10.4-14.8,0-7.7-5.8-12.5-14.9-12.5-4.2,0-8.9,.6-14.5,1.8q-8.9,2-10.4,2.1l.8,4.4"/><path class="cls-5" d="M964,481.19c-.1,2.3-.9,6.5-1.7,9.4-.9,0-2.6,.1-3.6,.1-2.8,0-4.2-.1-5.9-.4l-.1,3.5h1.8c.8,0,2.5,.1,3.3,.1s2.4-.1,3.7-.1c-1.4,4.8-2.9,8.3-5.2,12.9-1.8,3.6-3.2,5.8-4.8,7.8l3.4,2c.2-.4,.6-1,1-1.7,1.9-3.3,2.3-4.2,3.6-6.6,2.2-4.6,4-9.2,5.5-14.6,3.1-.2,6.2-.6,8.2-1.1q1.2-.2,1.8-.3l-.2-3.5c-2.3,.8-5.5,1.3-9,1.7,.7-2.6,1-3.8,1.4-5.4,.4-2.1,.4-2.2,.8-3.2l-4-.6m29.4,13.8c-4-2.6-7.4-4.3-13.2-6.6l-1.8,2.8c5.2,1.9,9,3.9,13.2,6.8l1.8-3m.1,22.2q-.3-.2-.9-.8c-2.7-2.4-5.8-4.3-9.8-6-.3-1.9-.6-5.3-.6-7.6,0-1.8,.2-2.8,.7-4.7l-3.4-.3c-.4,1.8-.5,3-.5,4.8,0,1.2,.1,3.6,.4,6.8-2-.6-3.2-.8-5.1-.8-2.2,0-4.2,.3-5.9,1.1-2.8,1.2-4.7,3.7-4.7,6.3,0,4.5,3.8,7.2,9.8,7.2s9.5-2.8,9.5-8c0-.5,0-.8-.1-1.6,3.7,1.9,6.8,4.4,8.8,6.8l1.8-3.2m-13.9-4.6s.1,1.6,.1,2.2c0,3.8-2,5.5-6.2,5.5s-6.3-1.6-6.3-4.1c0-2.8,2.7-4.5,6.9-4.5,2-.1,3.4,.2,5.5,.9"/><path class="cls-5" d="M952,543.29q.5-.1,1.4-.2c7.2-.5,7.7-.6,11.2-1.5q-2.8,2.4-4.5,4.4c-4.3,5.4-6.7,11.1-6.7,16.7,0,8.2,5.5,13.9,13.3,13.9,5.9,0,11.2-3.4,13.4-8.7,1.3-3.1,1.9-6.5,1.9-10.2,0-4-.4-6.6-2-11.4q.4,.7,1,1.8c.5,1,.9,1.6,1.7,2.9,1.8,2.8,3.6,5,6.3,7.3q1.2,1,2,1.8l1.9-3.5c-.8-.3-1-.5-1.8-1.2-3.1-2.5-5.1-4.7-7.2-7.8-2-2.9-4-6.7-4.7-9.1l-3.6,1.2c1.8,3.8,3.1,10.4,3.1,16.1,0,4.3-.5,7.5-1.8,10.5-1.8,4.1-5.9,6.8-10.3,6.8-5.7,0-9.8-4.3-9.8-10.3,0-5.1,2.3-10.5,6.8-16,2.1-2.5,3.2-3.5,5.8-5.3l-2.1-3.2c-1.8,.9-7.7,1.6-13.2,1.6-1.1,0-1.5-.1-2.4-.2l.3,3.6"/><path class="cls-5" d="M1221.6,427.39c0,.6,0,.8-.1,1.6-1.2,8.8-1.7,13.5-1.7,18.4v1.2l.1,5.2,.1,.9v.6l3.6-.2v-1.2c0-3.7,.9-7.5,2.7-11.2,2.8-5.8,6.1-8.7,9.8-8.7,4.8,0,7.6,4.7,7.6,12.7s-2.8,13.2-8.6,16.6c-2.9,1.7-5.5,2.4-10.2,3.2,1.1,1.3,1.4,1.9,2,3.4,3.5-.8,6.5-1.8,8.9-3,7.5-3.8,11.6-10.6,11.6-19.7,0-5.3-.9-9-3-12.1-2-2.9-4.8-4.5-8-4.5-3.9,0-7.2,2.2-10,6.5-1.5,2.2-2.5,4.7-3.1,7.4q-.2,1.1-.3,1.4h-.2c.1-2.6,.8-8,1.6-13.1,.5-2.7,.8-4.1,1.2-5.2l-4-.2"/><path class="cls-5" d="M1218,482.79c.2,1,.2,1.6,.2,2.7v3.2c-.4,15.8-.5,17-.5,20.3,0,5.2,.7,7.9,2.8,10.2,2,2.3,5.2,3.5,9.4,3.5,5.8,0,10.6-2,14.1-6.2,2.2-2.5,3.7-5.5,5.6-11.3-1.6-.8-2.2-1.2-3.6-2.4-.7,3.5-1.3,5.5-2.5,7.8-2.8,5.7-7.4,8.7-13.4,8.7-2.6,0-4.9-.7-6.2-2-1.5-1.3-2.2-3-2.4-6,0-1.1-.1-2.4-.1-3,0-2.2,.2-9,.3-15,.2-6.3,.4-8.8,.7-10.6h-4.4"/><path class="cls-5" d="M1217.7,536.69c-.1,1.2-.2,1.7-.7,4-1.7,7.4-2.2,12.7-2.2,19.8,0,5.2,.3,8.8,1.3,14.1,.2,1,.2,1.2,.3,2l3.6-.3v-.8c0-2.8,1.8-8.8,4-13.8l-2.4-1.2c-1.6,3.7-2.5,6.4-3.2,9.8-.2-2.7-.3-5.6-.3-9.5,0-6,.4-10.4,1.5-15.7,.8-3.4,1.3-5.8,2.1-8l-4-.4m10.3,9.4c3.2,.4,5.2,.5,8,.5,3.8,0,7.8-.2,10.8-.6,2.2-.3,3.3-.5,3.5-.5l-.2-3.5c-3.4,.9-7.9,1.3-13.4,1.3-3.9,0-6.3-.2-8.5-.8l-.2,3.6m3.7,9.8c-3.1,3.6-4.3,6.2-4.3,9.3,0,1.8,.5,3.3,1.5,4.6,2.2,2.6,5.8,3.8,11.4,3.8,3.4,0,6.8-.3,10.2-1,1-.2,1.1-.2,1.8-.2l-.5-3.8c-2.7,1.1-6.9,1.8-11.5,1.8-6.4,0-9.6-1.8-9.6-5.5,0-2.2,1.2-4.6,3.8-7.4l-2.8-1.6"/><path class="cls-5" d="M1351.8,428.89c.2,1,.2,1.6,.2,2.6,0,.8,0,1.8-.1,3.2-.4,15.8-.4,17-.4,20.4,0,5.2,.7,7.9,2.8,10.2,2,2.3,5.2,3.5,9.4,3.5,5.8,0,10.5-2.1,14.1-6.2,2.2-2.6,3.7-5.5,5.5-11.4-1.6-.8-2.2-1.2-3.6-2.4-.7,3.5-1.3,5.4-2.4,7.8-2.8,5.7-7.5,8.7-13.4,8.7-2.6,0-4.8-.7-6.2-1.9-1.5-1.3-2.2-3-2.3-6-.1-1.2-.1-2.4-.1-3,0-2.2,.1-9.1,.3-15.1,.2-6.3,.3-8.8,.7-10.5h-4.5"/><path class="cls-5" d="M1352.6,484.69c1,1.6,2.1,4.5,3.6,9.5-.8,.2-1.3,.3-2.6,.8q-5.9,2.1-7.3,2.3l1.3,3.6c1.4-.8,4-1.8,6.9-2.8q2.2-.7,2.7-.9c3.2,10.8,6.1,22.9,6.3,27l4-.9c-.3-.8-.4-1.1-.7-2.1-2.1-9.4-3.9-16.5-6.4-25,7.2-2.3,12.7-3.5,16.3-3.5,5,0,8,2.2,8,6,0,2.2-.8,3.9-2.4,5.1-1.7,1.2-3.8,2-6,2-2.9,0-5.8-.8-8.4-2.3,.2,2,.3,2.2,.3,2.8,0,.2,0,.5-.1,.9,2.9,1.2,5.7,1.8,8.4,1.8,6.9,0,11.8-4.3,11.8-10.3,0-5.6-4.3-9.2-11-9.2-1.2,0-2.3,.1-3.8,.3v-1.6c0-3.9,0-5.5,.2-6.8h-3.8c.2,1.2,.2,1.7,.2,8.8q-3.8,.8-10.8,2.8c-.7-2.2-1.2-3.7-2.2-6.6-.6-1.5-.7-1.9-1-3l-3.5,1.3"/><path class="cls-5" d="M1346.3,551.59c1.3-.3,1.8-.4,2.9-.6,.5-.1,2.9-.5,7.2-1.2-1.7,6.4-3.2,10.8-5.5,15.8-1.8,3.8-3.7,7.1-5.2,9.1l3.4,2c1.5-2.8,2.6-4.8,3.2-6,3.4-6.9,5.7-13.3,7.5-21.2,1.8-.2,2.5-.2,3.6-.2,4.7,0,6.2,1.7,6.2,7,0,5.6-.8,10.7-2.1,13.9-.7,1.6-1.6,2.4-2.8,2.4-1.8,0-4.6-.8-7.5-2.3,.2,.9,.2,1.2,.2,2,0,.7,0,1-.1,1.8,3.3,1.4,5.4,2,7.6,2s3.7-.7,4.9-2.4c2.1-2.9,3.4-9.5,3.4-17.2,0-4.1-.7-6.4-2.5-8.1-1.5-1.5-3.7-2.1-7.2-2.1-1.2,0-1.8,.1-3,.2,.5-2.4,.8-4.2,1.1-5.7,.4-2.9,.6-3.7,.9-4.8l-4-.4v.6c0,2.1-.6,6.9-1.5,10.6-4,.6-9.2,1.2-11,1.3l.3,3.5m29.5-6.6c4.8,5,8.3,11.1,10.2,18l3.2-1.9c-2.3-7-5.3-12.2-10.4-17.7l-3,1.6"/><path class="cls-5" d="M1605.8,443.79c1.3-.3,1.8-.4,2.9-.7,.4-.1,2.8-.5,7.1-1.2-1.6,6.5-3.1,10.9-5.5,15.9-1.8,3.8-3.6,7.1-5.2,9l3.4,2c1.5-2.8,2.6-4.8,3.2-6,3.4-6.9,5.7-13.3,7.5-21.2,1.9-.2,2.5-.2,3.6-.2,4.6,0,6.1,1.7,6.1,7,0,5.6-.8,10.7-2.1,13.9-.7,1.6-1.6,2.4-2.8,2.4-1.8,0-4.6-.8-7.4-2.3,.1,.9,.1,1.2,.1,2,0,.7,0,1-.1,1.8,3.3,1.4,5.4,1.9,7.6,1.9s3.7-.7,4.9-2.3c2-2.9,3.3-9.6,3.3-17.2,0-4.1-.7-6.4-2.5-8.1-1.5-1.5-3.6-2.1-7.2-2.1-1.2,0-1.8,0-2.9,.2,.4-2.4,.8-4.2,1-5.7,.5-2.8,.6-3.7,1-4.8l-4-.5v.7c0,2.1-.7,6.9-1.5,10.6-4.1,.7-9.2,1.2-11.1,1.3l.6,3.6m29.5-6.6c4.8,4.9,8.3,11,10.2,17.9l3.2-1.8c-2.4-7.1-5.4-12.2-10.5-17.7l-2.9,1.6"/><path class="cls-5" d="M1617.4,482.49c.3,.8,.4,1.1,.8,3.2,1.3,6.4,2.2,9.9,3.7,14-3.1,1.6-4.7,2.5-6.5,4.1-3,2.4-4.5,5.3-4.5,8.5,0,3.9,2.1,6.7,6.2,8.2,2.4,.9,6.1,1.3,11.1,1.3,3.5,0,5.9-.2,11-.7q2.8-.3,3.7-.3l-.4-4.2c-2.9,1.1-8.6,1.7-14.3,1.7-9.8,0-13.6-1.8-13.6-6.3,0-4.2,3.7-7.5,12.2-10.8,4.4-1.8,11.5-4.1,15-4.9l-1.5-3.8c-1,.5-1.4,.7-3.2,1.3-7.8,2.7-9.2,3.2-12.1,4.5-1.7-5-3.6-13.2-3.8-16.6l-3.8,.8"/><path class="cls-5" d="M1605.8,551.59c1.3-.3,1.8-.4,2.9-.6,.4-.1,2.8-.5,7.1-1.2-1.6,6.4-3.1,10.8-5.5,15.8-1.8,3.8-3.6,7.1-5.2,9.1l3.4,2c1.5-2.8,2.6-4.8,3.2-6,3.4-6.9,5.7-13.3,7.5-21.2,1.9-.2,2.5-.2,3.6-.2,4.6,0,6.1,1.7,6.1,7,0,5.6-.8,10.7-2.1,13.9-.7,1.6-1.6,2.4-2.8,2.4-1.8,0-4.6-.8-7.4-2.3,.1,.9,.1,1.2,.1,2,0,.7,0,1-.1,1.8,3.3,1.4,5.4,2,7.6,2s3.7-.7,4.9-2.4c2-2.9,3.3-9.5,3.3-17.2,0-4.1-.7-6.4-2.5-8.1-1.5-1.5-3.6-2.1-7.2-2.1-1.2,0-1.8,.1-2.9,.2,.4-2.4,.8-4.2,1-5.7,.5-2.9,.6-3.7,1-4.8l-4-.4v.6c0,2.1-.7,6.9-1.5,10.6-4.1,.6-9.2,1.2-11.1,1.3l.6,3.5m29.5-6.6c4.8,5,8.3,11.1,10.2,18l3.2-1.9c-2.4-7-5.4-12.2-10.5-17.7l-2.9,1.6"/><path class="cls-5" d="M1819.2,434.69c2.5,.1,4,.4,5.8,1.2,5,2.2,7.9,6.8,7.9,12.5,0,6.2-3.3,11.5-8.8,14-2.3,1.1-4.7,1.8-8.3,2.4,.9,1.2,1.2,1.7,1.8,3.3,3.4-.8,5.3-1.3,7.6-2.3,7.2-3.1,11.4-9.5,11.4-17.2,0-4.8-1.7-9.2-4.8-12.2-3.2-3.2-8.2-5-13.8-5-6.7,0-12.2,2.2-16.2,6.7-3.3,3.8-5.2,8.7-5.2,13.8,0,7,3.6,12.2,8.3,12.2,3.6,0,6.6-3,9.4-9.6,2.2-5.2,4.1-12.8,4.9-19.8m-3.6,.1c-.7,6.4-2.5,13.8-4.6,18.5-2.1,4.9-4.1,7.2-6.2,7.2-2.7,0-4.8-3.7-4.8-8.5,0-6.2,3.1-11.8,8.2-14.9,2.2-1.4,4.4-2.1,7.4-2.3"/><path class="cls-5" d="M1798.4,504.99c.6,.1,.8,.1,1.6,.3,2.2,.5,4.5,.9,7.5,1.2q0,.4-.1,1.2c-.2,1.2-.2,2.2-.2,3.3,0,2.8,.5,5.2,1.5,6.9,2,3.2,6,5,11.2,5,8.8,0,14.7-4.8,14.7-11.8,0-3.7-1.2-6.1-4.7-9.9-1.4,.6-2,.8-3.7,1,3.2,2.8,4.8,5.5,4.8,8.7,0,5.3-4.3,8.8-11,8.8-3.1,0-5.5-.8-7.1-2.2-1.5-1.3-2.3-3.2-2.3-6,0-.8,.1-2.5,.2-3.7q.1-.7,.1-1c2.2,.1,3,.1,4.3,.1,2.3,0,4.5-.1,7.1-.4,.7,0,.8,0,1.3-.1l.1-3.3c-1.9,.5-5.6,.8-9.2,.8h-3.3c.3-2.8,.3-3.3,1.2-9.1,2.8,.1,3.6,.1,4.4,.1,1.4,0,2.9,0,4.5-.2q2.5-.2,3.5-.3l.2-3.4c-2.2,.6-5.4,.8-9.2,.8h-2.9c.2-1.4,.3-1.9,.5-3q.4-2.8,.5-3.2c.3-1.8,.5-2.4,.8-3.3l-4-.4v.4c0,1.3-.4,4.6-1.2,9.4-3.5-.3-6.8-1-9-1.9l-.4,3.3c.7,.2,.9,.2,1.5,.4,3,.7,5.1,1,7.5,1.3-.4,2.7-.9,6.5-1.2,9-3.8-.5-6.9-1.1-8.9-2l-.6,3.2"/><path class="cls-5" d="M1805.3,539.09c6,1.9,9.7,2.6,18.7,3.4l.7-3.4c-6.6-.2-12.8-1.2-18.1-3.1l-1.3,3.1m-4.3,12.9c1.3-.2,2.3-.2,4.8-.4,8.5-.6,11.8-.9,14.9-1.6-3.6,3.4-6.1,5.9-7.6,7.4-4,4-8.2,8-11.8,11.4-3,2.8-3.7,3.4-5.4,4.6l2.8,3.1c1.8-2,5.1-5.4,7.5-7.7,4.2-3.8,6.6-5.2,9.2-5.2,1,0,1.9,.5,2.3,1.2,.3,.6,.4,1.1,.6,3.4,.2,3.3,.5,4.4,1.1,5.5,1.1,1.9,3.2,2.8,7,2.8,2.2,0,4.1-.2,6.8-.7q3.6-.5,4.1-.6l-.6-3.8c-2.6,1.2-6.4,1.8-10.1,1.8-2.3,0-3.4-.4-4.2-1.3-.5-.8-.7-1.6-.9-4.7-.2-2.9-.6-4-1.6-5-.8-.9-2-1.3-3.4-1.3-1.3,0-2.2,.3-5,1.7,2.5-1.9,5.7-4.8,9.9-9,2.9-2.8,3.4-3.3,4.4-4.2l-2.2-2.8c-.7,.2-1.2,.4-2.4,.6-4.3,.6-13.2,1.2-17.5,1.2-1.1,0-1.8,0-3-.1l.3,3.7"/><path class="cls-5" d="M1985,443.79c1.4-.3,1.8-.4,2.9-.7,.5-.1,2.9-.5,7.2-1.2-1.7,6.5-3.2,10.9-5.5,15.9-1.8,3.8-3.7,7.1-5.2,9l3.4,2c1.6-2.8,2.6-4.8,3.2-6,3.4-6.9,5.7-13.3,7.6-21.2,1.8-.2,2.5-.2,3.6-.2,4.7,0,6.2,1.7,6.2,7,0,5.6-.8,10.7-2.1,13.9-.6,1.6-1.6,2.4-2.8,2.4-1.8,0-4.6-.8-7.5-2.3,.2,.9,.2,1.2,.2,2,0,.7,0,1-.1,1.8,3.3,1.4,5.4,1.9,7.6,1.9,2.4,0,3.7-.7,4.9-2.3,2.1-2.9,3.4-9.6,3.4-17.2,0-4.1-.7-6.4-2.4-8.1-1.6-1.5-3.7-2.1-7.2-2.1-1.2,0-1.8,0-3,.2,.5-2.4,.8-4.2,1.1-5.7,.4-2.8,.6-3.7,.9-4.8l-4-.5v.7c0,2.1-.6,6.9-1.5,10.6-4,.7-9.2,1.2-11,1.3l.1,3.6m29.5-6.6c4.9,4.9,8.3,11,10.2,17.9l3.2-1.8c-2.3-7.1-5.3-12.2-10.4-17.7l-3,1.6"/><path class="cls-5" d="M2015.9,482.49c1.5,1.6,3.9,5.3,5.2,8l2.5-1.5c-1.5-3-2.9-5.1-5.2-7.8l-2.5,1.3m-32.2,15.4c2.2-.7,3.7-.9,10.1-1.8-2.2,9.5-6.6,19.5-10.7,24.9l3.4,2c5.2-9.2,8.7-17.8,10.8-27.2,1.9-.2,2.5-.2,3.6-.2,4.6,0,6.1,1.7,6.1,7,0,5.6-.8,10.7-2.1,13.9-.6,1.6-1.6,2.4-2.8,2.4-1.8,0-4.6-.8-7.4-2.3,.1,.9,.1,1.2,.1,1.9s0,1.1-.1,1.8c3.3,1.4,5.4,1.9,7.6,1.9,2.4,0,3.7-.7,4.9-2.3,2-2.9,3.3-9.6,3.3-17.2,0-4.1-.7-6.4-2.4-8.1-1.6-1.5-3.6-2.1-7.2-2.1-1.2,0-1.8,0-2.9,.2,.4-2.2,.8-4.5,1-5.7,.4-2.7,.7-3.8,1-4.8l-4-.5v.7c0,2.1-.7,6.8-1.5,10.6-7.4,1.1-9.2,1.2-11.1,1.3l.3,3.6m37.9-18c1.9,2.2,4,5.5,5.1,7.9l2.5-1.5c-1.6-3.2-2.9-5-5.1-7.8l-2.5,1.4m-8.4,11.4c4.5,4.5,8.6,11.6,10.2,18l3.2-1.8c-2.1-6.6-5.5-12.4-10.5-17.7l-2.9,1.5"/><path class="cls-5" d="M1996.4,539.39q4.4,2.1,7.7,3.2t9.8,2.8l1.4-3.5c-5.4-.8-13.1-3.3-16.9-5.6l-2,3.1m-4.1,5.4c-.1,.9-.1,1.3-.4,2.7-.7,4.2-1.6,10-2.1,13.8-.2,1.6-.2,2.1-.4,3l3.9,.1c.8-1.1,1.2-1.5,2-2.1,3.8-2.8,8.9-4.3,14-4.3,6.1,0,9.7,2.4,9.7,6.5,0,5.1-5.2,8.4-13.5,8.4-4.2,0-8.9-1-12.8-2.5,.3,1.3,.3,1.9,.3,3.1v.9q3,.8,4,1c2.8,.6,5.8,.9,8.8,.9,5.3,0,9.2-1,12.4-3.3,2.8-2,4.5-5.2,4.5-8.6,0-5.8-5.2-9.6-13.4-9.6-5.5,0-11,1.6-14.4,4.3-.6,.5-.9,.8-1.6,1.5h-.1c.1-.5,.1-.6,.2-1.2,.1-1.2,.2-1.5,1.4-8.8,.4-2.8,.7-4,1.2-5.5l-3.7-.3"/><path class="cls-5" d="M2222.2,460.29c.6-.8,2.6-3,4.5-4.8,1.8-1.7,2.2-2.2,2.6-2.8h.1c-.1,1.2-.1,1.6-.1,7.7q0,7.9-.2,9.5h3.9c-.2-2.3-.3-4.8-.3-19.8,6.6-5.9,11.1-8.2,15.9-8.2,5.7,0,9.6,3.9,9.6,9.8,0,2.2-.4,4.2-1.4,6-1.9,3.5-5.7,5.7-10,5.7-3,0-6.1-.7-8.9-1.9,.3,1.4,.4,2,.4,2.9,0,.2,0,.5-.1,.9,3.1,1,5.6,1.5,8.5,1.5,9.1,0,15.1-6,15.1-15.1,0-7.7-5.5-13-13.4-13-4.4,0-8.3,1.5-12.6,4.9-1.5,1.2-2.4,2-2.9,2.6l-.1,.2h-.1c0-.1,.1-1.8,.2-5.1q2-2.7,2.7-3.2l-1.3-1.7c-.4,.2-.5,.2-1.1,.3q0-1.2,.1-2.8c.2-3.6,.2-4.3,.5-5.8h-3.9c.1,.8,.1,1.2,.1,2,0,1.9,0,3.8-.2,6.9-4.1,.3-6.2,.4-6.9,.4-.4,0-.7,0-1.4-.1l.2,3.5c1.2-.2,2.2-.4,5.5-.6q1.8-.1,2.5-.1c-.1,4.2-.1,4.7-.2,8.8q-.6,.5-1.4,1.3l-3.4,3.2c-2.4,2.2-3.4,3.1-4.3,3.7l1.8,3.2"/><path class="cls-5" d="M2223.9,492.69c.9-.1,1-.1,3.1-.2,5.6-.1,9.6-.3,13.5-.9,1.2,2.7,1.6,3.2,2.8,5.7-4.1,.8-10.5,1.2-15.8,1.2-2,0-2.9-.1-4-.2l.1,3.3c.9-.1,1.1-.1,3.5-.2,9.4-.3,12.6-.5,17.6-1.4,1.8,3,3.8,6,5.3,7.7-3.3-1-5.9-1.4-10.1-1.4-9.5,0-15.2,3.2-15.2,8.7,0,2.6,1.3,4.8,3.8,6.2,2.6,1.4,5.7,2.1,10.3,2.1s8.7-.6,12.8-1.8q2.3-.7,3-.8l-.7-3.9c-3,1.8-9.6,3.3-14.8,3.3-6.8,0-10.6-1.8-10.6-5.1s4.6-5.7,11.9-5.7c2.2,0,4.8,.2,6.5,.4,2.5,.4,3.6,.8,5.5,1.9l3-2.1c-3.9-4.5-4.4-5.2-7.4-10,1.9-.3,4.4-.9,7.9-1.8,1.6-.5,1.8-.5,2.7-.7l-.4-3.3c-2,1-4.8,1.8-11.4,3.1-.8-1.3-2.1-4-2.8-5.7,2.8-.4,8.1-1.6,12.6-2.8l-.3-3.2c-2.8,1.2-7.5,2.4-13.3,3.3-1.2-2.7-2.2-5.2-2.7-7.1l-3.8,.7c.5,.7,1.5,3,3,6.8-4.6,.5-7.6,.7-11.8,.7-1.7,0-2.6-.1-3.8-.2v3.4"/><path class="cls-5" d="M2234.8,535.59c-.3,1.5-1.4,4.7-6.9,19.1q-7.2,19.2-7.9,20.6l3.9,1.2c.6-3,2.9-8.7,4.6-11.5,2.8-4.8,6-7.4,8.9-7.4,1.5,0,2.4,.6,2.8,1.9,.3,.8,.4,1.8,.4,3.8v2.8c0,2.8,.1,4.4,.4,5.4,.9,2.8,3.6,4.5,7.3,4.5,4.1,0,7.6-1.9,9.9-5.4,1.6-2.3,2.6-4.8,3.6-8.8-1.4-.8-2-1.3-3.3-2.5-.3,2.7-.9,4.8-1.9,7.1-1.9,4.2-4.5,6.2-8,6.2-1.7,0-3.2-.6-3.8-1.6-.6-.9-.8-2.2-.8-4.8v-3.4c0-2.8-.2-4.4-.9-5.6-.9-1.8-2.8-3-5-3-3.5,0-6.1,1.8-9.4,6.6l-.2-.1c.2-.5,.2-.6,.4-.9,.2-.5,.4-.9,.6-1.1q2.1-4.3,3.6-8.2,4.9-12.6,5.5-13.8l-3.8-1.1"/><path class="cls-5" d="M1001,1083.69c0,2.7,2.2,5,5,5s5-2.2,5-5-2.2-5-5-5c-2.8,.1-5,2.3-5,5"/><path class="cls-5" d="M1001,852.09c0,2.7,2.2,5,5,5s5-2.2,5-5-2.2-5-5-5-5,2.2-5,5"/><path class="cls-5" d="M1001,744.49c0,2.7,2.2,5,5,5s5-2.2,5-5-2.2-5-5-5-5,2.2-5,5"/><path class="cls-5" d="M1001,326.79c0,2.7,2.2,5,5,5s5-2.2,5-5-2.2-5-5-5-5,2.2-5,5"/><line class="cls-3" x1="123.1" y1="246.89" x2="123.1" y2="1188.39"/><path class="cls-5" d="M165.7,224.89c-.2-.1-.5-.2-.7-.2-.4,0-.9,.1-1.1,.5-.2,.3-10.1,15.6-29.1,15.6h-15.8c-.8,0-1.4,.5-1.4,1.3v10.3h12.1c30.6,0,36.4-25.5,36.5-25.8,0-.1,.1-.3,.1-.5,.1-.5-.2-.9-.6-1.2"/><path class="cls-5" d="M165.7,1210.39c.4-.3,.7-.7,.7-1.2,0-.2-.1-.4-.1-.5-.1-.3-6-25.8-36.5-25.8h-12.1v10.3c0,.8,.6,1.3,1.4,1.3h15.8c18.9,0,28.9,15.3,29.1,15.6,.2,.4,.7,.5,1.1,.5,.1,0,.4-.1,.6-.2"/></g></svg>