<?xml version="1.0" encoding="UTF-8"?><svg id="_レイヤー_1" xmlns="http://www.w3.org/2000/svg" xmlns:xlink="http://www.w3.org/1999/xlink" viewBox="0 0 2650.39 1247.24"><defs><style>.cls-1{stroke-width:4.46px;}.cls-1,.cls-2,.cls-3,.cls-4,.cls-5{fill:none;stroke:#fff;stroke-linejoin:bevel;}.cls-6,.cls-7{fill:#fff;}.cls-2{stroke-width:3.72px;}.cls-7{fill-rule:evenodd;}.cls-8{isolation:isolate;}.cls-3{stroke-width:3.97px;}.cls-4{stroke-width:10.91px;}.cls-5{stroke-width:2.73px;}</style></defs><image class="cls-8" width="2624" height="1225" transform="translate(13.2 22.24)" xlink:href="../Documents/2年_アーカイブ/_卒制/イラスト保存用/五線譜/hurusato/404535A8683AEBC9.png"/><g><line class="cls-5" x1="136.5" y1="98.59" x2="2601" y2="98.59"/><line class="cls-5" x1="136.5" y1="123.39" x2="2601" y2="123.39"/><line class="cls-5" x1="136.5" y1="148.19" x2="2601" y2="148.19"/><line class="cls-5" x1="136.5" y1="172.99" x2="2601" y2="172.99"/><line class="cls-5" x1="136.5" y1="197.79" x2="2601" y2="197.79"/><line class="cls-5" x1="136.5" y1="492.49" x2="2601" y2="492.49"/><line class="cls-5" x1="136.5" y1="517.29" x2="2601" y2="517.29"/><line class="cls-5" x1="136.5" y1="542.09" x2="2601" y2="542.09"/><line class="cls-5" x1="136.5" y1="566.89" x2="2601" y2="566.89"/><line class="cls-5" x1="136.5" y1="591.69" x2="2601" y2="591.69"/><line class="cls-5" x1="136.5" y1="699.29" x2="2601" y2="699.29"/><line class="cls-5" x1="136.5" y1="724.09" x2="2601" y2="724.09"/><line class="cls-5" x1="136.5" y1="748.89" x2="2601" y2="748.89"/><line class="cls-5" x1="136.5" y1="773.69" x2="2601" y2="773.69"/><line class="cls-5" x1="136.5" y1="798.49" x2="2601" y2="798.49"/><line class="cls-5" x1="136.5" y1="1070.99" x2="2601" y2="1070.99"/><line class="cls-5" x1="136.5" y1="1095.79" x2="2601" y2="1095.79"/><line class="cls-5" x1="136.5" y1="1120.59" x2="2601" y2="1120.59"/><line class="cls-5" x1="136.5" y1="1145.39" x2="2601" y2="1145.39"/><line class="cls-5" x1="136.5" y1="1170.19" x2="2601" y2="1170.19"/><path class="cls-6" d="M51.7,1102.19v2.4h.9c2.8,.1,3.8,.2,4.2,.7,.3,.4,.3,.6,.3,3.1v23.8c0,2.5,0,2.6-.3,3.1-.4,.5-1.4,.7-4.2,.7h-.9v2.4h18.2c8.6,0,13.8-3.6,13.8-9.8,0-5-3.1-7.8-10-9.1,2.4-.5,3.5-.9,4.8-1.9,2.1-1.6,3.3-4,3.3-6.5,0-3.2-2-6.4-4.9-7.6-1.8-.8-4.3-1.2-7.2-1.2h-18m11,16.2v-11.4c0-1.9,.7-2.4,3.3-2.5h2c2.3,0,4.2,.4,5.2,1.1,1.8,1.1,2.8,3.2,2.8,6,0,4.9-2.4,6.8-8.9,6.8h-4.4m0,2.3h4.4c7.6,0,10.4,2.1,10.4,7.6,0,3.2-1.1,5.5-3.1,6.4-1.6,.8-3.6,1.1-6.8,1.1h-2.1c-2.5,0-3-.5-2.9-3.1v-12m30.5,12c-1.8,0-3.1,1.4-3.1,3.1,0,1.8,1.4,3.1,3.1,3.1,1.8,0,3.1-1.4,3.1-3.1s-1.4-3.1-3.1-3.1"/><path class="cls-6" d="M84.6,730.49h-30l-.8,13.9h2.2c.3-2.5,.8-4.4,1.3-6,1.3-3.7,3.7-5.6,7.1-5.6,1.6,0,2.4,.6,2.4,1.8v25.8c0,2.6,0,2.7-.3,3.1-.4,.5-1.4,.7-4.2,.7h-1.3v2.4h17.2v-2.4h-1.3c-2.8,0-3.8-.2-4.1-.7-.3-.4-.3-.6-.3-3.1v-25.8c0-1.2,.7-1.8,2.4-1.8,3.1,0,5.5,1.7,6.8,4.7,.8,1.9,1.2,4,1.6,6.9h2.2l-.9-13.9m4.9,30.5c-1.8,0-3.1,1.4-3.1,3.1,0,1.8,1.4,3.1,3.1,3.1,1.8,0,3.1-1.4,3.1-3.1,0-1.7-1.4-3.1-3.1-3.1"/><path class="cls-6" d="M69.1,523.29h-2.1l-11.5,29.1c-1.4,3.9-2.6,5.1-5.5,5.3h-.2v2.4h13.2v-2.4h-1c-2.7,0-4.1-.9-4.1-2.8,0-.7,.1-1.2,.4-2.1l1.7-4.4h13.2l2.7,6.7c.3,.8,.4,1.1,.4,1.3,0,.8-1.2,1.3-3.1,1.3h-2v2.4h15.5v-2.4h-.7c-2.6-.1-3.1-.3-4.2-3.2l-12.7-31.2m-2.5,8.2l5.7,14.2h-11.2l5.5-14.2m27.1,23.1c-1.8,0-3.2,1.4-3.2,3.1,0,1.8,1.4,3.1,3.1,3.1,1.8,0,3.2-1.4,3.2-3.1s-1.4-3.1-3.1-3.1"/><path class="cls-6" d="M82.1,129.89h-1.9l-2,3c-2.4-2.2-5.6-3.4-9.1-3.4-6.6,0-10.9,4.1-10.9,10.4,0,5.4,2.7,8.1,10.1,10.1l4.8,1.2c3.7,.9,4,1.1,5.1,1.8,1.5,1.2,2.3,2.8,2.3,4.8s-.8,3.7-2.2,5.1c-1.6,1.4-3.3,1.9-6.1,1.9-3.7,0-6.3-1.1-8.7-3.8-2.1-2.3-3.1-4.7-3.9-8.5h-2.2l.2,14.2h2l2.2-3.4c3.3,2.8,6.1,3.8,10.5,3.8,7.3,0,12-4.3,12-11,0-3.1-1-5.8-3-7.6-1.3-1.3-3.3-2.2-7.3-3.2l-5.4-1.3c-4.4-1.2-6.6-3.1-6.6-6.2,0-3.5,2.9-5.9,7.1-5.9,3.5,0,6.3,1.5,8.3,4.4,1.5,2,2.4,4.1,3,6.7h2.2l-.5-13.1m11,30.8c-1.8,0-3.1,1.4-3.1,3.1,0,1.8,1.4,3.1,3.1,3.1,1.8,0,3.1-1.4,3.1-3.1s-1.4-3.1-3.1-3.1"/><line class="cls-1" x1="138.7" y1="1069.69" x2="138.7" y2="1171.59"/><line class="cls-1" x1="805.7" y1="1069.69" x2="805.7" y2="1171.59"/><line class="cls-1" x1="1375.8" y1="1069.69" x2="1375.8" y2="1171.59"/><line class="cls-1" x1="2011.7" y1="1069.69" x2="2011.7" y2="1171.59"/><line class="cls-1" x1="2598.8" y1="1069.69" x2="2598.8" y2="1171.59"/><line class="cls-1" x1="138.7" y1="697.89" x2="138.7" y2="1070.99"/><line class="cls-1" x1="805.7" y1="697.89" x2="805.7" y2="799.89"/><line class="cls-1" x1="1375.8" y1="697.89" x2="1375.8" y2="799.89"/><line class="cls-1" x1="2011.7" y1="697.89" x2="2011.7" y2="799.89"/><line class="cls-1" x1="2598.8" y1="697.89" x2="2598.8" y2="799.89"/><line class="cls-1" x1="138.7" y1="491.09" x2="138.7" y2="699.29"/><line class="cls-1" x1="805.7" y1="491.09" x2="805.7" y2="592.99"/><line class="cls-1" x1="1375.8" y1="491.09" x2="1375.8" y2="592.99"/><line class="cls-1" x1="2011.7" y1="491.09" x2="2011.7" y2="592.99"/><line class="cls-1" x1="2598.8" y1="491.09" x2="2598.8" y2="592.99"/><line class="cls-1" x1="138.7" y1="97.19" x2="138.7" y2="492.49"/><line class="cls-1" x1="805.7" y1="97.19" x2="805.7" y2="199.19"/><line class="cls-1" x1="1375.8" y1="97.19" x2="1375.8" y2="199.19"/><line class="cls-1" x1="2011.7" y1="97.19" x2="2011.7" y2="199.19"/><line class="cls-1" x1="2598.8" y1="97.19" x2="2598.8" y2="199.19"/><line class="cls-3" x1="1895.2" y1="674.49" x2="1944.8" y2="674.49"/><line class="cls-3" x1="2046.2" y1="674.49" x2="2095.8" y2="674.49"/><line class="cls-5" x1="335" y1="1086.69" x2="335" y2="1163.99"/><line class="cls-5" x1="418.9" y1="1099.19" x2="418.9" y2="1170.19"/><line class="cls-5" x1="502.8" y1="1086.69" x2="502.8" y2="1170.19"/><line class="cls-5" x1="666.5" y1="1129.89" x2="666.5" y2="1052.39"/><line class="cls-5" x1="879" y1="1129.89" x2="879" y2="1052.39"/><line class="cls-5" x1="972.8" y1="1117.39" x2="972.8" y2="1046.19"/><line class="cls-5" x1="1037.1" y1="1099.19" x2="1037.1" y2="1179.49"/><line class="cls-5" x1="1187.3" y1="1099.19" x2="1187.3" y2="1179.49"/><line class="cls-5" x1="1419.6" y1="1086.69" x2="1419.6" y2="1163.99"/><line class="cls-5" x1="1525.2" y1="1099.19" x2="1525.2" y2="1170.19"/><line class="cls-5" x1="1630.8" y1="1086.69" x2="1630.8" y2="1170.19"/><line class="cls-5" x1="1905.3" y1="1086.69" x2="1905.3" y2="1170.19"/><line class="cls-5" x1="2056.2" y1="1074.39" x2="2056.2" y2="1145.39"/><line class="cls-5" x1="2146.5" y1="1086.69" x2="2146.5" y2="1151.59"/><line class="cls-5" x1="2236.8" y1="1099.19" x2="2236.8" y2="1179.49"/><line class="cls-5" x1="335" y1="714.99" x2="335" y2="792.29"/><line class="cls-5" x1="418.9" y1="727.39" x2="418.9" y2="798.49"/><line class="cls-5" x1="502.8" y1="714.99" x2="502.8" y2="798.49"/><line class="cls-5" x1="666.5" y1="758.09" x2="666.5" y2="680.69"/><line class="cls-5" x1="849.5" y1="727.39" x2="849.5" y2="798.49"/><line class="cls-5" x1="943.3" y1="714.99" x2="943.3" y2="792.29"/><line class="cls-5" x1="1037.1" y1="702.59" x2="1037.1" y2="786.09"/><line class="cls-5" x1="1187.3" y1="702.59" x2="1187.3" y2="786.09"/><line class="cls-5" x1="1419.6" y1="690.19" x2="1419.6" y2="767.49"/><line class="cls-5" x1="1525.2" y1="702.59" x2="1525.2" y2="773.69"/><line class="cls-5" x1="1630.8" y1="690.19" x2="1630.8" y2="773.69"/><line class="cls-5" x1="1905.3" y1="665.39" x2="1905.3" y2="748.89"/><line class="cls-5" x1="2056.2" y1="677.79" x2="2056.2" y2="748.89"/><line class="cls-5" x1="2146.5" y1="690.19" x2="2146.5" y2="755.09"/><line class="cls-5" x1="2236.8" y1="702.59" x2="2236.8" y2="786.09"/><line class="cls-5" x1="666.5" y1="551.29" x2="666.5" y2="486.29"/><line class="cls-5" x1="750.4" y1="563.69" x2="750.4" y2="492.49"/><line class="cls-5" x1="879" y1="576.09" x2="879" y2="492.49"/><line class="cls-5" x1="1216.8" y1="538.89" x2="1216.8" y2="467.69"/><line class="cls-5" x1="1310.6" y1="551.29" x2="1310.6" y2="473.89"/><line class="cls-5" x1="1449.1" y1="563.69" x2="1449.1" y2="483.19"/><line class="cls-5" x1="1829.2" y1="600.89" x2="1829.2" y2="523.49"/><line class="cls-5" x1="1934.8" y1="588.49" x2="1934.8" y2="517.29"/><line class="cls-5" x1="2085.7" y1="576.09" x2="2085.7" y2="492.49"/><line class="cls-5" x1="2356.6" y1="588.49" x2="2356.6" y2="504.89"/><line class="cls-5" x1="2446.8" y1="576.09" x2="2446.8" y2="498.69"/><line class="cls-5" x1="2537.1" y1="563.69" x2="2537.1" y2="492.49"/><line class="cls-5" x1="637" y1="139.09" x2="637" y2="216.39"/><line class="cls-5" x1="720.9" y1="151.59" x2="720.9" y2="222.59"/><line class="cls-5" x1="879" y1="157.39" x2="879" y2="79.99"/><line class="cls-5" x1="1187.3" y1="126.69" x2="1187.3" y2="197.79"/><line class="cls-5" x1="1281.1" y1="139.09" x2="1281.1" y2="203.99"/><line class="cls-5" x1="1419.6" y1="151.59" x2="1419.6" y2="225.69"/><line class="cls-5" x1="1799.7" y1="139.09" x2="1799.7" y2="216.39"/><line class="cls-5" x1="1905.3" y1="151.59" x2="1905.3" y2="222.59"/><line class="cls-5" x1="2085.7" y1="157.39" x2="2085.7" y2="79.99"/><line class="cls-5" x1="2356.6" y1="169.79" x2="2356.6" y2="89.29"/><line class="cls-5" x1="2446.8" y1="157.39" x2="2446.8" y2="79.99"/><line class="cls-5" x1="2537.1" y1="144.99" x2="2537.1" y2="73.79"/><path class="cls-6" d="M364.9,1075.39c-1.8-3.3-5.6-5.1-10.1-5.1-3.4,0-7,1-10.6,2.9-6.5,3.5-10.5,9.3-10.5,14.4,0,1.4,.3,2.8,1,4.1,1.8,3.3,5.6,5,10.1,5,3.4,0,7-.9,10.6-2.8,6.5-3.5,10.5-9.3,10.5-14.4,0-1.4-.3-2.8-1-4.1"/><path class="cls-6" d="M448.8,1087.79c-1.8-3.3-5.6-5.1-10.1-5.1-3.4,0-7,1-10.6,2.9-6.5,3.5-10.5,9.3-10.5,14.4,0,1.4,.3,2.8,1,4.1,1.8,3.3,5.6,5,10.1,5,3.4,0,7-.9,10.6-2.8,6.5-3.5,10.5-9.3,10.5-14.4,0-1.4-.3-2.8-1-4.1"/><path class="cls-6" d="M532.7,1075.39c-1.8-3.3-5.6-5.1-10.1-5.1-3.4,0-7,1-10.6,2.9-6.5,3.5-10.5,9.3-10.5,14.4,0,1.4,.3,2.8,1,4.1,1.8,3.3,5.6,5,10.1,5,3.4,0,7-.9,10.6-2.8,6.5-3.5,10.5-9.3,10.5-14.4,0-1.4-.3-2.8-1-4.1"/><path class="cls-6" d="M666.9,1124.99c-1.8-3.3-5.6-5.1-10.1-5.1-3.4,0-7,1-10.6,2.9-6.5,3.5-10.5,9.3-10.5,14.4,0,1.4,.3,2.8,1,4.1,1.8,3.3,5.6,5,10.1,5,3.4,0,7-.9,10.6-2.8,6.5-3.5,10.5-9.3,10.5-14.4,0-1.4-.3-2.8-1-4.1"/><path class="cls-6" d="M879.4,1124.99c-1.8-3.3-5.6-5.1-10.1-5.1-3.4,0-7,1-10.6,2.9-6.5,3.5-10.5,9.3-10.5,14.4,0,1.4,.3,2.8,1,4.1,1.8,3.3,5.6,5,10.1,5,3.4,0,7-.9,10.6-2.8,6.5-3.5,10.5-9.3,10.5-14.4,0-1.4-.3-2.8-1-4.1"/><path class="cls-6" d="M973.2,1112.59c-1.8-3.3-5.6-5.1-10.1-5.1-3.4,0-7,1-10.6,2.9-6.5,3.5-10.5,9.3-10.5,14.4,0,1.4,.3,2.8,1,4.1,1.8,3.3,5.6,5,10.1,5,3.4,0,7-.9,10.6-2.8,6.5-3.5,10.5-9.3,10.5-14.4,0-1.4-.3-2.8-1-4.1"/><path class="cls-6" d="M1067,1087.79c-1.8-3.3-5.6-5.1-10.1-5.1-3.4,0-7,1-10.6,2.9-6.5,3.5-10.5,9.3-10.5,14.4,0,1.4,.3,2.8,1,4.1,1.8,3.3,5.6,5,10.1,5,3.4,0,7-.9,10.6-2.8,6.5-3.5,10.5-9.3,10.5-14.4,0-1.4-.3-2.8-1-4.1"/><path class="cls-6" d="M1217.2,1087.79c-1.8-3.3-5.6-5.1-10.1-5.1-3.4,0-7,1-10.6,2.9-6.5,3.5-10.5,9.3-10.5,14.4,0,1.4,.3,2.8,1,4.1,1.8,3.3,5.6,5,10.1,5,3.4,0,7-.9,10.6-2.8,6.5-3.5,10.5-9.3,10.5-14.4,0-1.4-.3-2.8-1-4.1"/><path class="cls-6" d="M1449.5,1075.39c-1.8-3.3-5.6-5.1-10.1-5.1-3.4,0-7,1-10.6,2.9-6.5,3.5-10.5,9.3-10.5,14.4,0,1.4,.3,2.8,1,4.1,1.8,3.3,5.6,5,10.1,5,3.4,0,7-.9,10.6-2.8,6.5-3.5,10.5-9.3,10.5-14.4,0-1.4-.3-2.8-1-4.1"/><path class="cls-6" d="M1555.1,1087.79c-1.8-3.3-5.6-5.1-10.1-5.1-3.4,0-7,1-10.6,2.9-6.5,3.5-10.5,9.3-10.5,14.4,0,1.4,.3,2.8,1,4.1,1.8,3.3,5.6,5,10.1,5,3.4,0,7-.9,10.6-2.8,6.5-3.5,10.5-9.3,10.5-14.4-.1-1.4-.4-2.8-1-4.1"/><path class="cls-6" d="M1660.6,1075.39c-1.8-3.3-5.6-5.1-10.1-5.1-3.4,0-7,1-10.6,2.9-6.5,3.5-10.5,9.3-10.5,14.4,0,1.4,.3,2.8,1,4.1,1.8,3.3,5.6,5,10.1,5,3.4,0,7-.9,10.6-2.8,6.5-3.5,10.5-9.3,10.5-14.4,0-1.4-.3-2.8-1-4.1"/><path class="cls-6" d="M1935.1,1075.39c-1.8-3.3-5.6-5.1-10.1-5.1-3.4,0-7,1-10.6,2.9-6.5,3.5-10.5,9.3-10.5,14.4,0,1.4,.3,2.8,1,4.1,1.8,3.3,5.6,5,10.1,5,3.4,0,7-.9,10.6-2.8,6.5-3.5,10.5-9.3,10.5-14.4,0-1.4-.3-2.8-1-4.1"/><path class="cls-6" d="M2086.1,1062.99c-1.8-3.3-5.6-5.1-10.1-5.1-3.4,0-7,1-10.6,2.9-6.5,3.5-10.5,9.3-10.5,14.4,0,1.4,.3,2.8,1,4.1,1.8,3.3,5.6,5,10.1,5,3.4,0,7-.9,10.6-2.8,6.5-3.5,10.5-9.3,10.5-14.4,0-1.4-.3-2.8-1-4.1"/><path class="cls-6" d="M2176.4,1075.39c-1.8-3.3-5.6-5.1-10.1-5.1-3.4,0-7,1-10.6,2.9-6.5,3.5-10.5,9.3-10.5,14.4,0,1.4,.3,2.8,1,4.1,1.8,3.3,5.6,5,10.1,5,3.4,0,7-.9,10.6-2.8,6.5-3.5,10.5-9.3,10.5-14.4,0-1.4-.3-2.8-1-4.1"/><path class="cls-6" d="M2266.7,1087.79c-1.8-3.3-5.6-5.1-10.1-5.1-3.4,0-7,1-10.6,2.9-6.5,3.5-10.5,9.3-10.5,14.4,0,1.4,.3,2.8,1,4.1,1.8,3.3,5.6,5,10.1,5,3.4,0,7-.9,10.6-2.8,6.5-3.5,10.5-9.3,10.5-14.4,0-1.4-.3-2.8-1-4.1"/><path class="cls-6" d="M364.9,703.69c-1.8-3.3-5.6-5.1-10.1-5.1-3.4,0-7,1-10.6,2.9-6.5,3.5-10.5,9.3-10.5,14.4,0,1.4,.3,2.8,1,4.1,1.8,3.3,5.6,5,10.1,5,3.4,0,7-.9,10.6-2.8,6.5-3.5,10.5-9.3,10.5-14.4,0-1.5-.3-2.8-1-4.1"/><path class="cls-6" d="M448.8,716.09c-1.8-3.3-5.6-5.1-10.1-5.1-3.4,0-7,1-10.6,2.9-6.5,3.5-10.5,9.3-10.5,14.4,0,1.4,.3,2.8,1,4.1,1.8,3.3,5.6,5,10.1,5,3.4,0,7-.9,10.6-2.8,6.5-3.5,10.5-9.3,10.5-14.4,0-1.5-.3-2.8-1-4.1"/><path class="cls-6" d="M532.7,703.69c-1.8-3.3-5.6-5.1-10.1-5.1-3.4,0-7,1-10.6,2.9-6.5,3.5-10.5,9.3-10.5,14.4,0,1.4,.3,2.8,1,4.1,1.8,3.3,5.6,5,10.1,5,3.4,0,7-.9,10.6-2.8,6.5-3.5,10.5-9.3,10.5-14.4,0-1.5-.3-2.8-1-4.1"/><path class="cls-6" d="M666.9,753.29c-1.8-3.3-5.6-5.1-10.1-5.1-3.4,0-7,1-10.6,2.9-6.5,3.5-10.5,9.3-10.5,14.4,0,1.4,.3,2.8,1,4.1,1.8,3.3,5.6,5,10.1,5,3.4,0,7-.9,10.6-2.8,6.5-3.5,10.5-9.3,10.5-14.4,0-1.5-.3-2.8-1-4.1"/><path class="cls-6" d="M879.4,716.09c-1.8-3.3-5.6-5.1-10.1-5.1-3.4,0-7,1-10.6,2.9-6.5,3.5-10.5,9.3-10.5,14.4,0,1.4,.3,2.8,1,4.1,1.8,3.3,5.6,5,10.1,5,3.4,0,7-.9,10.6-2.8,6.5-3.5,10.5-9.3,10.5-14.4,0-1.5-.3-2.8-1-4.1"/><path class="cls-6" d="M973.2,703.69c-1.8-3.3-5.6-5.1-10.1-5.1-3.4,0-7,1-10.6,2.9-6.5,3.5-10.5,9.3-10.5,14.4,0,1.4,.3,2.8,1,4.1,1.8,3.3,5.6,5,10.1,5,3.4,0,7-.9,10.6-2.8,6.5-3.5,10.5-9.3,10.5-14.4,0-1.5-.3-2.8-1-4.1"/><path class="cls-6" d="M1067,691.29c-1.8-3.3-5.6-5.1-10.1-5.1-3.4,0-7,1-10.6,2.9-6.5,3.5-10.5,9.3-10.5,14.4,0,1.4,.3,2.8,1,4.1,1.8,3.3,5.6,5,10.1,5,3.4,0,7-.9,10.6-2.8,6.5-3.5,10.5-9.3,10.5-14.4,0-1.5-.3-2.9-1-4.1"/><path class="cls-6" d="M1217.2,691.29c-1.8-3.3-5.6-5.1-10.1-5.1-3.4,0-7,1-10.6,2.9-6.5,3.5-10.5,9.3-10.5,14.4,0,1.4,.3,2.8,1,4.1,1.8,3.3,5.6,5,10.1,5,3.4,0,7-.9,10.6-2.8,6.5-3.5,10.5-9.3,10.5-14.4,0-1.5-.3-2.9-1-4.1"/><path class="cls-6" d="M1449.5,678.89c-1.8-3.3-5.6-5.1-10.1-5.1-3.4,0-7,1-10.6,2.9-6.5,3.5-10.5,9.3-10.5,14.4,0,1.4,.3,2.8,1,4.1,1.8,3.3,5.6,5,10.1,5,3.4,0,7-.9,10.6-2.8,6.5-3.5,10.5-9.3,10.5-14.4,0-1.5-.3-2.9-1-4.1"/><path class="cls-6" d="M1555.1,691.29c-1.8-3.3-5.6-5.1-10.1-5.1-3.4,0-7,1-10.6,2.9-6.5,3.5-10.5,9.3-10.5,14.4,0,1.4,.3,2.8,1,4.1,1.8,3.3,5.6,5,10.1,5,3.4,0,7-.9,10.6-2.8,6.5-3.5,10.5-9.3,10.5-14.4-.1-1.5-.4-2.9-1-4.1"/><path class="cls-6" d="M1660.6,678.89c-1.8-3.3-5.6-5.1-10.1-5.1-3.4,0-7,1-10.6,2.9-6.5,3.5-10.5,9.3-10.5,14.4,0,1.4,.3,2.8,1,4.1,1.8,3.3,5.6,5,10.1,5,3.4,0,7-.9,10.6-2.8,6.5-3.5,10.5-9.3,10.5-14.4,0-1.5-.3-2.9-1-4.1"/><path class="cls-6" d="M1935.1,654.09c-1.8-3.3-5.6-5.1-10.1-5.1-3.4,0-7,1-10.6,2.9-6.5,3.5-10.5,9.3-10.5,14.4,0,1.4,.3,2.8,1,4.1,1.8,3.3,5.6,5,10.1,5,3.4,0,7-.9,10.6-2.8,6.5-3.5,10.5-9.3,10.5-14.4,0-1.5-.3-2.9-1-4.1"/><path class="cls-6" d="M2086.1,666.49c-1.8-3.3-5.6-5.1-10.1-5.1-3.4,0-7,1-10.6,2.9-6.5,3.5-10.5,9.3-10.5,14.4,0,1.4,.3,2.8,1,4.1,1.8,3.3,5.6,5,10.1,5,3.4,0,7-.9,10.6-2.8,6.5-3.5,10.5-9.3,10.5-14.4,0-1.5-.3-2.9-1-4.1"/><path class="cls-6" d="M2176.4,678.89c-1.8-3.3-5.6-5.1-10.1-5.1-3.4,0-7,1-10.6,2.9-6.5,3.5-10.5,9.3-10.5,14.4,0,1.4,.3,2.8,1,4.1,1.8,3.3,5.6,5,10.1,5,3.4,0,7-.9,10.6-2.8,6.5-3.5,10.5-9.3,10.5-14.4,0-1.5-.3-2.9-1-4.1"/><path class="cls-6" d="M2266.7,691.29c-1.8-3.3-5.6-5.1-10.1-5.1-3.4,0-7,1-10.6,2.9-6.5,3.5-10.5,9.3-10.5,14.4,0,1.4,.3,2.8,1,4.1,1.8,3.3,5.6,5,10.1,5,3.4,0,7-.9,10.6-2.8,6.5-3.5,10.5-9.3,10.5-14.4,0-1.5-.3-2.9-1-4.1"/><path class="cls-6" d="M666.9,546.39c-1.8-3.3-5.6-5.1-10.1-5.1-3.4,0-7,1-10.6,2.9-6.5,3.5-10.5,9.3-10.5,14.4,0,1.4,.3,2.8,1,4.1,1.8,3.3,5.6,5,10.1,5,3.4,0,7-.9,10.6-2.8,6.5-3.5,10.5-9.3,10.5-14.4,0-1.4-.3-2.8-1-4.1"/><path class="cls-6" d="M750.8,558.79c-1.8-3.3-5.6-5.1-10.1-5.1-3.4,0-7,1-10.6,2.9-6.5,3.5-10.5,9.3-10.5,14.4,0,1.4,.3,2.8,1,4.1,1.8,3.3,5.6,5,10.1,5,3.4,0,7-.9,10.6-2.8,6.5-3.5,10.5-9.3,10.5-14.4,0-1.4-.3-2.8-1-4.1"/><path class="cls-6" d="M879.4,571.19c-1.8-3.3-5.6-5.1-10.1-5.1-3.4,0-7,1-10.6,2.9-6.5,3.5-10.5,9.3-10.5,14.4,0,1.4,.3,2.8,1,4.1,1.8,3.3,5.6,5,10.1,5,3.4,0,7-.9,10.6-2.8,6.5-3.5,10.5-9.3,10.5-14.4,0-1.4-.3-2.8-1-4.1m-4.3,6.8c-1.7,1.7-5.1,3.8-8.6,5.8-3.6,2-7.1,3.5-9.5,4-.5,.1-1,.2-1.5,.2-1.6,0-2.8-.6-3.5-1.9-.3-.5-.5-1.1-.5-1.7,0-1.1,.7-2.4,1.8-3.5,1.7-1.7,5-3.8,8.5-5.8,3.6-2,7.1-3.5,9.5-4,.5-.1,1-.2,1.5-.2,1.6,0,2.9,.6,3.6,1.9,.3,.5,.4,1.1,.4,1.7,0,1.1-.6,2.3-1.7,3.5"/><path class="cls-6" d="M1217.2,533.99c-1.8-3.3-5.6-5.1-10.1-5.1-3.4,0-7,1-10.6,2.9-6.5,3.5-10.5,9.3-10.5,14.4,0,1.4,.3,2.8,1,4.1,1.8,3.3,5.6,5,10.1,5,3.4,0,7-.9,10.6-2.8,6.5-3.5,10.5-9.3,10.5-14.4,0-1.4-.3-2.8-1-4.1"/><path class="cls-6" d="M1311,546.39c-1.8-3.3-5.6-5.1-10.1-5.1-3.4,0-7,1-10.6,2.9-6.5,3.5-10.5,9.3-10.5,14.4,0,1.4,.3,2.8,1,4.1,1.8,3.3,5.6,5,10.1,5,3.4,0,7-.9,10.6-2.8,6.5-3.5,10.5-9.3,10.5-14.4,0-1.4-.3-2.8-1-4.1"/><path class="cls-6" d="M1449.5,558.79c-1.8-3.3-5.6-5.1-10.1-5.1-3.4,0-7,1-10.6,2.9-6.5,3.5-10.5,9.3-10.5,14.4,0,1.4,.3,2.8,1,4.1,1.8,3.3,5.6,5,10.1,5,3.4,0,7-.9,10.6-2.8,6.5-3.5,10.5-9.3,10.5-14.4,0-1.4-.3-2.8-1-4.1m-4.3,6.8c-1.7,1.7-5.1,3.8-8.6,5.8-3.6,2-7.1,3.5-9.5,4-.5,.1-1,.2-1.5,.2-1.6,0-2.8-.6-3.5-1.9-.3-.5-.5-1.1-.5-1.7,0-1.1,.7-2.4,1.8-3.5,1.7-1.7,5-3.8,8.5-5.8,3.6-2,7.1-3.5,9.5-4,.5-.1,1-.2,1.5-.2,1.6,0,2.9,.6,3.6,1.9,.3,.5,.4,1.1,.4,1.7,0,1.1-.6,2.3-1.7,3.5"/><path class="cls-6" d="M1829.6,595.99c-1.8-3.3-5.6-5.1-10.1-5.1-3.4,0-7,1-10.6,2.9-6.5,3.5-10.5,9.3-10.5,14.4,0,1.4,.3,2.8,1,4.1,1.8,3.3,5.6,5,10.1,5,3.4,0,7-.9,10.6-2.8,6.5-3.5,10.5-9.3,10.5-14.4,0-1.4-.3-2.8-1-4.1"/><path class="cls-6" d="M1935.1,583.59c-1.8-3.3-5.6-5.1-10.1-5.1-3.4,0-7,1-10.6,2.9-6.5,3.5-10.5,9.3-10.5,14.4,0,1.4,.3,2.8,1,4.1,1.8,3.3,5.6,5,10.1,5,3.4,0,7-.9,10.6-2.8,6.5-3.5,10.5-9.3,10.5-14.4,0-1.4-.3-2.8-1-4.1"/><path class="cls-6" d="M2086.1,571.19c-1.8-3.3-5.6-5.1-10.1-5.1-3.4,0-7,1-10.6,2.9-6.5,3.5-10.5,9.3-10.5,14.4,0,1.4,.3,2.8,1,4.1,1.8,3.3,5.6,5,10.1,5,3.4,0,7-.9,10.6-2.8,6.5-3.5,10.5-9.3,10.5-14.4,0-1.4-.3-2.8-1-4.1"/><path class="cls-6" d="M2356.9,583.59c-1.8-3.3-5.6-5.1-10.1-5.1-3.4,0-7,1-10.6,2.9-6.5,3.5-10.5,9.3-10.5,14.4,0,1.4,.3,2.8,1,4.1,1.8,3.3,5.6,5,10.1,5,3.4,0,7-.9,10.6-2.8,6.5-3.5,10.5-9.3,10.5-14.4,0-1.4-.3-2.8-1-4.1"/><path class="cls-6" d="M2447.2,571.19c-1.8-3.3-5.6-5.1-10.1-5.1-3.4,0-7,1-10.6,2.9-6.5,3.5-10.5,9.3-10.5,14.4,0,1.4,.3,2.8,1,4.1,1.8,3.3,5.6,5,10.1,5,3.4,0,7-.9,10.6-2.8,6.5-3.5,10.5-9.3,10.5-14.4,0-1.4-.3-2.8-1-4.1"/><path class="cls-6" d="M2537.5,558.79c-1.8-3.3-5.6-5.1-10.1-5.1-3.4,0-7,1-10.6,2.9-6.5,3.5-10.5,9.3-10.5,14.4,0,1.4,.3,2.8,1,4.1,1.8,3.3,5.6,5,10.1,5,3.4,0,7-.9,10.6-2.8,6.5-3.5,10.5-9.3,10.5-14.4,0-1.4-.3-2.8-1-4.1"/><path class="cls-6" d="M666.9,127.79c-1.8-3.3-5.6-5.1-10.1-5.1-3.4,0-7,1-10.6,2.9-6.5,3.5-10.5,9.3-10.5,14.4,0,1.4,.3,2.8,1,4.1,1.8,3.3,5.6,5,10.1,5,3.4,0,7-.9,10.6-2.8,6.5-3.5,10.5-9.3,10.5-14.4,0-1.4-.3-2.8-1-4.1"/><path class="cls-6" d="M750.8,140.19c-1.8-3.3-5.6-5.1-10.1-5.1-3.4,0-7,1-10.6,2.9-6.5,3.5-10.5,9.3-10.5,14.4,0,1.4,.3,2.8,1,4.1,1.8,3.3,5.6,5,10.1,5,3.4,0,7-.9,10.6-2.8,6.5-3.5,10.5-9.3,10.5-14.4,0-1.4-.3-2.8-1-4.1"/><path class="cls-6" d="M879.4,152.59c-1.8-3.3-5.6-5.1-10.1-5.1-3.4,0-7,1-10.6,2.9-6.5,3.5-10.5,9.3-10.5,14.4,0,1.4,.3,2.8,1,4.1,1.8,3.3,5.6,5,10.1,5,3.4,0,7-.9,10.6-2.8,6.5-3.5,10.5-9.3,10.5-14.4,0-1.4-.3-2.8-1-4.1m-4.3,6.7c-1.7,1.7-5.1,3.8-8.6,5.8-3.6,2-7.1,3.5-9.5,4-.5,.1-1,.2-1.5,.2-1.6,0-2.8-.6-3.5-1.9-.3-.5-.5-1.1-.5-1.7,0-1.1,.7-2.4,1.8-3.5,1.7-1.7,5-3.8,8.5-5.8,3.6-2,7.1-3.5,9.5-4,.5-.1,1-.2,1.5-.2,1.6,0,2.9,.6,3.6,1.9,.3,.5,.4,1.1,.4,1.7,0,1.1-.6,2.3-1.7,3.5"/><path class="cls-6" d="M1217.2,115.39c-1.8-3.3-5.6-5.1-10.1-5.1-3.4,0-7,1-10.6,2.9-6.5,3.5-10.5,9.3-10.5,14.4,0,1.4,.3,2.8,1,4.1,1.8,3.3,5.6,5,10.1,5,3.4,0,7-.9,10.6-2.8,6.5-3.5,10.5-9.3,10.5-14.4,0-1.4-.3-2.8-1-4.1"/><path class="cls-6" d="M1311,127.79c-1.8-3.3-5.6-5.1-10.1-5.1-3.4,0-7,1-10.6,2.9-6.5,3.5-10.5,9.3-10.5,14.4,0,1.4,.3,2.8,1,4.1,1.8,3.3,5.6,5,10.1,5,3.4,0,7-.9,10.6-2.8,6.5-3.5,10.5-9.3,10.5-14.4,0-1.4-.3-2.8-1-4.1"/><path class="cls-6" d="M1449.5,140.19c-1.8-3.3-5.6-5.1-10.1-5.1-3.4,0-7,1-10.6,2.9-6.5,3.5-10.5,9.3-10.5,14.4,0,1.4,.3,2.8,1,4.1,1.8,3.3,5.6,5,10.1,5,3.4,0,7-.9,10.6-2.8,6.5-3.5,10.5-9.3,10.5-14.4,0-1.4-.3-2.8-1-4.1m-4.3,6.7c-1.7,1.7-5.1,3.8-8.6,5.8-3.6,2-7.1,3.5-9.5,4-.5,.1-1,.2-1.5,.2-1.6,0-2.8-.6-3.5-1.9-.3-.5-.5-1.1-.5-1.7,0-1.1,.7-2.4,1.8-3.5,1.7-1.7,5-3.8,8.5-5.8,3.6-2,7.1-3.5,9.5-4,.5-.1,1-.2,1.5-.2,1.6,0,2.9,.6,3.6,1.9,.3,.5,.4,1.1,.4,1.7,0,1.1-.6,2.3-1.7,3.5"/><path class="cls-6" d="M1829.6,127.79c-1.8-3.3-5.6-5.1-10.1-5.1-3.4,0-7,1-10.6,2.9-6.5,3.5-10.5,9.3-10.5,14.4,0,1.4,.3,2.8,1,4.1,1.8,3.3,5.6,5,10.1,5,3.4,0,7-.9,10.6-2.8,6.5-3.5,10.5-9.3,10.5-14.4,0-1.4-.3-2.8-1-4.1"/><path class="cls-6" d="M1935.1,140.19c-1.8-3.3-5.6-5.1-10.1-5.1-3.4,0-7,1-10.6,2.9-6.5,3.5-10.5,9.3-10.5,14.4,0,1.4,.3,2.8,1,4.1,1.8,3.3,5.6,5,10.1,5,3.4,0,7-.9,10.6-2.8,6.5-3.5,10.5-9.3,10.5-14.4,0-1.4-.3-2.8-1-4.1"/><path class="cls-6" d="M2086.1,152.59c-1.8-3.3-5.6-5.1-10.1-5.1-3.4,0-7,1-10.6,2.9-6.5,3.5-10.5,9.3-10.5,14.4,0,1.4,.3,2.8,1,4.1,1.8,3.3,5.6,5,10.1,5,3.4,0,7-.9,10.6-2.8,6.5-3.5,10.5-9.3,10.5-14.4,0-1.4-.3-2.8-1-4.1"/><path class="cls-6" d="M2356.9,164.99c-1.8-3.3-5.6-5.1-10.1-5.1-3.4,0-7,1-10.6,2.9-6.5,3.5-10.5,9.3-10.5,14.4,0,1.4,.3,2.8,1,4.1,1.8,3.3,5.6,5,10.1,5,3.4,0,7-.9,10.6-2.8,6.5-3.5,10.5-9.3,10.5-14.4,0-1.4-.3-2.8-1-4.1"/><path class="cls-6" d="M2447.2,152.59c-1.8-3.3-5.6-5.1-10.1-5.1-3.4,0-7,1-10.6,2.9-6.5,3.5-10.5,9.3-10.5,14.4,0,1.4,.3,2.8,1,4.1,1.8,3.3,5.6,5,10.1,5,3.4,0,7-.9,10.6-2.8,6.5-3.5,10.5-9.3,10.5-14.4,0-1.4-.3-2.8-1-4.1"/><path class="cls-6" d="M2537.5,140.19c-1.8-3.3-5.6-5.1-10.1-5.1-3.4,0-7,1-10.6,2.9-6.5,3.5-10.5,9.3-10.5,14.4,0,1.4,.3,2.8,1,4.1,1.8,3.3,5.6,5,10.1,5,3.4,0,7-.9,10.6-2.8,6.5-3.5,10.5-9.3,10.5-14.4,0-1.4-.3-2.8-1-4.1"/><path class="cls-6" d="M186,1070.89c-7.5,0-13.6,4.4-13.7,4.4-5.8,4.3-8,9.3-8.9,12.8-.5,1.8-.7,3.6-.7,5.3,0,2.4,.4,4.6,1.3,6.4,1.2,2.7,3.5,4.6,6.4,5.6,1.2,.4,2.5,.6,3.8,.6,2.2,0,4.5-.6,6.3-1.7,3.1-1.7,5-5.3,5-9.1,0-3.5-1.8-6.6-4.8-8.5-2.1-1.4-4.1-1.8-5.8-1.8-1.2,0-2.3,.2-3.2,.5-1,.4-2.7,1.4-3.5,2.1,.3-1.9,1.5-4.8,2.6-6.3s3.3-3.6,5-4.5c2.5-1.4,5.7-2,9.1-2,10.1,0,15.1,8.1,15.1,24.8,0,9.2-3.5,18.1-6.4,23.9-3.3,6.5-7.6,12.8-11.5,16.3-10.3,9.4-20,13.9-20.1,13.9,0,0-1.5,.9-1.1,2.4,.3,1,1.2,1.2,1.8,1.2,.1,0,.4-.1,.5-.1s11.4-4.7,20.4-11.7c5.1-3.7,9.6-7.6,13.6-11.9,3.6-3.9,6.6-8,9.1-12.2,4.4-7.4,6.8-15.2,6.8-21.8,0-8.2-2.2-15.1-6.3-19.9-4.5-5.8-11.6-8.7-20.8-8.7m31.2,12.6c0,2.8,2.2,5,4.8,5s4.8-2.2,4.8-5-2.2-5.1-4.8-5.1-4.8,2.3-4.8,5.1m0,24.5c0,2.8,2.2,5.1,4.8,5.1s4.8-2.3,4.8-5.1-2.2-5.1-4.8-5.1-4.8,2.3-4.8,5.1"/><path class="cls-6" d="M186,699.19c-7.5,0-13.6,4.4-13.7,4.4-5.8,4.3-8,9.3-8.9,12.8-.5,1.8-.7,3.6-.7,5.3,0,2.4,.4,4.6,1.3,6.4,1.2,2.7,3.5,4.6,6.4,5.6,1.2,.4,2.5,.6,3.8,.6,2.2,0,4.5-.6,6.3-1.7,3.1-1.7,5-5.3,5-9.1,0-3.5-1.8-6.6-4.8-8.5-2.1-1.4-4.1-1.8-5.8-1.8-1.2,0-2.3,.2-3.2,.5-1,.4-2.7,1.4-3.5,2.1,.3-1.9,1.5-4.8,2.6-6.3s3.3-3.6,5-4.5c2.5-1.4,5.7-2,9.1-2,10.1,0,15.1,8.1,15.1,24.8,0,9.2-3.5,18.1-6.4,23.9-3.3,6.5-7.6,12.8-11.5,16.3-10.3,9.4-20,13.9-20.1,13.9,0,0-1.5,.9-1.1,2.4,.3,1,1.2,1.2,1.8,1.2,.1,0,.4-.1,.5-.1s11.4-4.7,20.4-11.7c5.1-3.7,9.6-7.6,13.6-11.9,3.6-3.9,6.6-8,9.1-12.2,4.4-7.4,6.8-15.2,6.8-21.8,0-8.2-2.2-15.1-6.3-19.9-4.5-5.8-11.6-8.7-20.8-8.7m31.2,12.6c0,2.8,2.2,5,4.8,5s4.8-2.2,4.8-5-2.2-5.1-4.8-5.1-4.8,2.3-4.8,5.1m0,24.5c0,2.8,2.2,5.1,4.8,5.1s4.8-2.3,4.8-5.1-2.2-5.1-4.8-5.1-4.8,2.3-4.8,5.1"/><path class="cls-6" d="M223.7,560.99c-1.2-5.4-3.8-9.2-4.6-10.2-3.2-4.2-7.1-7.1-11.8-8.4-3.1-.9-6.1-1-8.5-.8-1-6-2-11.8-2.9-17.2,5.4-6.1,9-11.9,11.3-16.1,3.4-6.5,4.6-11.1,4.6-11.3,1.7-5.2,2.1-12.8,1-21-1-7.5-3.1-14.1-5.4-17.4-1-1.4-2.1-2.1-3.1-2.1-1.2,0-3.7,1.2-6.6,4-2.3,2.2-5.5,6-8.1,12-3,7-3.2,16.4-2.8,23.1,.4,7.2,1.5,12.9,1.5,12.9,0,.1,.3,1.6,.7,4.1-.2,.2-.5,.4-.7,.7-1,1-2.2,2.1-3.6,3.5-.9,.9-1.8,1.8-2.8,2.7-8.4,8.1-21.1,20.3-21.1,39.3,0,4.7,.9,9,2.7,13,1.6,3.6,3.9,6.8,6.8,9.7,7.7,7.5,18.2,10.7,25.2,10.5,2.9-.1,5.5-.3,7.9-.8,1.8,9.5,2.9,16.5,3,21.8,0,6.5-1.6,10.4-5.5,13.1-2.4,1.7-5.2,2.7-8.3,2.8-2.6,.1-4.8-.3-6.2-.8h0s-.3-.1-.3-.3,.3-.2,.3-.2h0c1.9-.4,5.4-1.7,7.8-4.9,1.8-2.5,2.6-7.1,.8-11-1.1-2.4-3.6-5.3-9.2-5.7-2.5-.2-4.7,.3-6.7,1.5-1.8,1.1-3.3,2.7-4.3,4.7-2.4,4.7-2,10.3,1.1,14.2,2.9,3.6,7.5,5.9,12.9,6.5,.8,.1,1.7,.1,2.5,.1,4.4,0,8.8-1.2,12.3-3.4,3.6-2.5,5.7-6.5,6.4-12.1,.6-4.6,.2-10.5-1.2-18.5-.4-2.1-.9-5.1-1.5-8.8,5.7-1.9,9.8-5.4,13.6-11.3,3.2-5.6,4.2-11.6,2.8-17.9m-34,26c-4.6-1.2-9-3.7-12.7-7.2-1.3-1.2-3.2-3.4-4.6-6.7-1.4-3.1-2-6.5-2-10.1,.1-4.7,1.4-9.4,3.9-14.2,2.9-5.5,7.4-11,13.4-16.3,1.4-1.3,2.8-2.5,4.1-3.8,.8,4.2,1.6,8.9,2.5,13.7-3.8,1.3-8.5,4.4-11.6,10-3.5,6.5-3.4,12-2.6,15.4,.9,4.4,3.4,8.2,6.9,10.2,.9,.6,5,2.7,6.8,2.1,.4-.1,.6-.3,.8-.7,.5-1.2-.5-1.8-2.1-2.7-.6-.4-1.3-.8-2-1.3-3.3-2.5-4.7-6.9-3.7-11.2,.6-2.4,1.8-4.5,3.7-6.2,1.7-1.5,3.7-2.6,6-3.3,2,11.2,4.1,22.2,5.7,30.5,.1,.7,.3,1.3,.4,2-4.4,1-8.7,.9-12.9-.2m11.3-32.9c10.3-.5,14.5,6.9,15.4,11.7,.5,2.5,.5,6.9-1.1,11.1-1.2,3.2-3.6,7.2-8.7,9.2-.1-.4-.1-.8-.2-1.3-1.6-8.6-3.5-19.5-5.4-30.7m-7.3-70.4c1.8-5.7,4.5-8.9,6.5-10.6,1.7-1.5,3.4-2.2,4.3-2.2h.4c.5,.1,1,.7,1.4,1.6,2.3,4.3,1.6,10.9,.2,15.3-1.6,5.4-4.5,10.9-13.2,20.5-.2-1.1-.3-2.1-.5-3.1-1.3-8.3-1-15.5,.9-21.5"/><path class="cls-6" d="M223.7,167.19c-1.2-5.4-3.8-9.2-4.6-10.2-3.2-4.2-7.1-7.1-11.8-8.4-3.1-.9-6.1-1-8.5-.8-1-6-2-11.8-2.9-17.2,5.4-6.1,9-11.9,11.3-16.1,3.4-6.5,4.6-11.1,4.6-11.3,1.7-5.2,2.1-12.8,1-21-1-7.5-3.1-14.1-5.4-17.4-1-1.4-2.1-2.1-3.1-2.1-1.2,0-3.7,1.2-6.6,4-2.3,2.2-5.5,6-8.1,12-3,7-3.2,16.4-2.8,23.1,.4,7.2,1.5,12.9,1.5,12.9,0,.1,.3,1.6,.7,4.1-.2,.2-.5,.4-.7,.7-1,1-2.2,2.1-3.6,3.5-.9,.9-1.8,1.8-2.8,2.7-8.4,8.1-21.1,20.3-21.1,39.3,0,4.7,.9,9,2.7,13,1.6,3.6,3.9,6.8,6.8,9.7,7.7,7.5,18.2,10.7,25.2,10.5,2.9-.1,5.5-.3,7.9-.8,1.8,9.5,2.9,16.5,3,21.8,0,6.5-1.6,10.4-5.5,13.1-2.4,1.7-5.2,2.7-8.3,2.8-2.6,.1-4.8-.3-6.2-.8h0s-.3-.1-.3-.3,.3-.2,.3-.2h0c1.9-.4,5.4-1.7,7.8-4.9,1.8-2.5,2.6-7.1,.8-11-1.1-2.4-3.6-5.3-9.2-5.7-2.5-.2-4.7,.3-6.7,1.5-1.8,1.1-3.3,2.7-4.3,4.7-2.4,4.7-2,10.3,1.1,14.2,2.9,3.6,7.5,5.9,12.9,6.5,.8,.1,1.7,.1,2.5,.1,4.4,0,8.8-1.2,12.3-3.4,3.6-2.5,5.7-6.5,6.4-12.1,.6-4.6,.2-10.5-1.2-18.5-.4-2.1-.9-5.1-1.5-8.8,5.7-1.9,9.8-5.4,13.6-11.3,3.2-5.6,4.2-11.7,2.8-17.9m-34,26c-4.6-1.2-9-3.7-12.7-7.2-1.3-1.2-3.2-3.4-4.6-6.7-1.4-3.1-2-6.5-2-10.1,.1-4.7,1.4-9.4,3.9-14.2,2.9-5.5,7.4-11,13.4-16.3,1.4-1.3,2.8-2.5,4.1-3.8,.8,4.2,1.6,8.9,2.5,13.7-3.8,1.3-8.5,4.4-11.6,10-3.5,6.5-3.4,12-2.6,15.4,.9,4.4,3.4,8.2,6.9,10.2,.9,.6,5,2.7,6.8,2.1,.4-.1,.6-.3,.8-.7,.5-1.2-.5-1.8-2.1-2.7-.6-.4-1.3-.8-2-1.3-3.3-2.5-4.7-6.9-3.7-11.2,.6-2.4,1.8-4.5,3.7-6.2,1.7-1.5,3.7-2.6,6-3.3,2,11.2,4.1,22.2,5.7,30.5,.1,.7,.3,1.3,.4,2-4.4,1-8.7,.9-12.9-.2m11.3-32.9c10.3-.5,14.5,6.9,15.4,11.7,.5,2.5,.5,6.9-1.1,11.1-1.2,3.2-3.6,7.2-8.7,9.2-.1-.4-.1-.8-.2-1.3-1.6-8.7-3.5-19.6-5.4-30.7m-7.3-70.4c1.8-5.7,4.5-8.9,6.5-10.6,1.7-1.5,3.4-2.2,4.3-2.2h.4c.5,.1,1,.7,1.4,1.6,2.3,4.3,1.6,10.9,.2,15.3-1.6,5.4-4.5,10.9-13.2,20.5-.2-1.1-.3-2.1-.5-3.1-1.3-8.3-1-15.5,.9-21.5"/><path class="cls-6" d="M271.4,1137.59c-.6-3.9-3-7.5-8-7.5s-7.8,3.1-8.3,3.7l.4-31.8c0-.8-.6-1.4-1.4-1.4h-1.2c-.8,0-1.4,.6-1.4,1.4l.5,59.6c0,.8,.6,1.4,1.4,1.4,.2,0,.6-.1,.8-.2,.4-.2,6.8-3.4,12.2-9.4,3.8-4.3,5.3-9.1,5.3-13.2-.1-1-.2-1.8-.3-2.6m-6.8,3.9c0,1.5-.4,6.1-2.9,9.8-1.7,2.6-5.1,5.3-6.9,6.7l.3-19.3c.2-.9,1.7-3.8,5.7-3.8,3.6,0,3.9,3.4,3.9,5.5v1.1"/><path class="cls-6" d="M271.4,765.89c-.6-3.9-3-7.5-8-7.5s-7.8,3.1-8.3,3.7l.4-31.8c0-.8-.6-1.4-1.4-1.4h-1.2c-.8,0-1.4,.6-1.4,1.4l.5,59.6c0,.8,.6,1.4,1.4,1.4,.2,0,.6-.1,.8-.2,.4-.2,6.8-3.4,12.2-9.4,3.8-4.3,5.3-9.1,5.3-13.2-.1-1.1-.2-1.8-.3-2.6m-6.8,3.8c0,1.5-.4,6.1-2.9,9.8-1.7,2.6-5.1,5.3-6.9,6.7l.3-19.3c.2-.9,1.7-3.8,5.7-3.8,3.6,0,3.9,3.4,3.9,5.5v1.1"/><path class="cls-6" d="M271.4,534.19c-.6-3.9-3-7.5-8-7.5s-7.8,3.1-8.3,3.7l.4-31.8c0-.8-.6-1.4-1.4-1.4h-1.2c-.8,0-1.4,.6-1.4,1.4l.5,59.6c0,.8,.6,1.4,1.4,1.4,.2,0,.6-.1,.8-.2,.4-.2,6.8-3.4,12.2-9.4,3.8-4.3,5.3-9.1,5.3-13.2-.1-1-.2-1.8-.3-2.6m-6.8,3.9c0,1.5-.4,6.1-2.9,9.8-1.7,2.6-5.1,5.3-6.9,6.7l.3-19.3c.2-.9,1.7-3.8,5.7-3.8,3.6,0,3.9,3.4,3.9,5.5v1.1"/><path class="cls-6" d="M271.4,140.39c-.6-3.9-3-7.5-8-7.5s-7.8,3.1-8.3,3.7l.4-31.8c0-.8-.6-1.4-1.4-1.4h-1.2c-.8,0-1.4,.6-1.4,1.4l.5,59.6c0,.8,.6,1.4,1.4,1.4,.2,0,.6-.1,.8-.2,.4-.2,6.8-3.4,12.2-9.4,3.8-4.3,5.3-9.1,5.3-13.2-.1-1-.2-1.8-.3-2.6m-6.8,3.8c0,1.5-.4,6.1-2.9,9.8-1.7,2.6-5.1,5.3-6.9,6.7l.3-19.3c.2-.9,1.7-3.8,5.7-3.8,3.6,0,3.9,3.4,3.9,5.5v1.1"/><path class="cls-6" d="M2439,1137.39l-.2-.3c-.1-.1-.3-.3-.6-.7l-11.4-14.1c-.3-.3-.2-1.1,0-1.5l10.1-15.3c.1-.2,.2-.5,.2-.7v-.9c0-.3-.1-.6-.3-.8l-16.1-21.7s-.8-1.2-1.8-.3c-1,.8-.2,2.1-.2,2.1l7.5,10.3c.4,.6,.4,1.8,0,2.4l-10,15.3c-.1,.2-.2,.6-.2,.8v.9c0,.3,.1,.6,.3,.8l11.1,13.8c-.4-.1-1.3-.3-2.5-.3-1.7,0-3.9,.4-5.7,2-2.2,2-3.4,4.8-3.4,7.2,0,1.4,.3,2.8,1.1,3.9,2.1,3.2,9.5,12.6,9.5,12.6,0,0,.9,1.1,1.8,.4,.9-.7,.7-1.6,.4-2.1s-3.5-6.3-3.5-6.3c0,0-.7-1.4-.7-3.2,0-1.3,.4-2.9,1.7-4.2,1.2-1.2,2.6-1.6,3.9-1.6s2.4,.4,3.2,.9l3.9,2.5s1.2,.6,1.8-.3c.6-.7,.4-1.1,.1-1.6"/><path class="cls-6" d="M2439,765.69l-.2-.3c-.1-.1-.3-.3-.6-.7l-11.4-14.1c-.3-.3-.2-1.1,0-1.5l10.1-15.3c.1-.2,.2-.5,.2-.7v-.9c0-.3-.1-.6-.3-.8l-16.1-21.7s-.8-1.2-1.8-.3c-1,.8-.2,2.1-.2,2.1l7.5,10.3c.4,.6,.4,1.8,0,2.4l-10,15.3c-.1,.2-.2,.6-.2,.8v.9c0,.3,.1,.6,.3,.8l11.1,13.8c-.4-.1-1.3-.3-2.5-.3-1.7,0-3.9,.4-5.7,2-2.2,2-3.4,4.8-3.4,7.2,0,1.4,.3,2.8,1.1,3.9,2.1,3.2,9.5,12.6,9.5,12.6,0,0,.9,1.1,1.8,.4,.9-.7,.7-1.6,.4-2.1s-3.5-6.3-3.5-6.3c0,0-.7-1.4-.7-3.2,0-1.3,.4-2.9,1.7-4.2,1.2-1.2,2.6-1.6,3.9-1.6s2.4,.4,3.2,.9l3.9,2.5s1.2,.6,1.8-.3c.6-.7,.4-1.1,.1-1.6"/><path class="cls-6" d="M356.7,558.79l-.2-.3c-.1-.1-.3-.3-.6-.7l-11.4-14.1c-.3-.3-.2-1.1,0-1.5l10.1-15.3c.1-.2,.2-.5,.2-.7v-.9c0-.3-.1-.6-.3-.8l-16.1-21.7s-.8-1.2-1.8-.3c-1,.8-.2,2.1-.2,2.1l7.5,10.3c.4,.6,.4,1.8,0,2.4l-10,15.3c-.1,.2-.2,.6-.2,.8v.9c0,.3,.1,.6,.3,.8l11.1,13.8c-.4-.1-1.3-.3-2.5-.3-1.7,0-3.9,.4-5.7,2-2.2,2-3.4,4.8-3.4,7.2,0,1.4,.3,2.8,1.1,3.9,2.1,3.2,9.5,12.6,9.5,12.6,0,0,.9,1.1,1.8,.4,.9-.7,.7-1.6,.4-2.1-.3-.5-3.5-6.3-3.5-6.3,0,0-.7-1.4-.7-3.2,0-1.3,.4-2.9,1.7-4.2,1.2-1.2,2.6-1.6,3.9-1.6s2.4,.4,3.2,.9l3.9,2.5s1.2,.6,1.8-.3c.5-.7,.3-1.1,.1-1.6"/><path class="cls-6" d="M524.5,558.79l-.2-.3c-.1-.1-.3-.3-.6-.7l-11.4-14.1c-.3-.3-.2-1.1,0-1.5l10.1-15.3c.1-.2,.2-.5,.2-.7v-.9c0-.3-.1-.6-.3-.8l-16.1-21.7s-.8-1.2-1.8-.3c-1,.8-.2,2.1-.2,2.1l7.5,10.3c.4,.6,.4,1.8,0,2.4l-10,15.3c-.1,.2-.2,.6-.2,.8v.9c0,.3,.1,.6,.3,.8l11.1,13.8c-.4-.1-1.3-.3-2.5-.3-1.7,0-3.9,.4-5.7,2-2.2,2-3.4,4.8-3.4,7.2,0,1.4,.3,2.8,1.1,3.9,2.1,3.2,9.5,12.6,9.5,12.6,0,0,.9,1.1,1.8,.4,.9-.7,.7-1.6,.4-2.1s-3.5-6.3-3.5-6.3c0,0-.7-1.4-.7-3.2,0-1.3,.4-2.9,1.7-4.2,1.2-1.2,2.6-1.6,3.9-1.6s2.4,.4,3.2,.9l3.9,2.5s1.2,.6,1.8-.3c.5-.7,.3-1.1,.1-1.6"/><path class="cls-6" d="M2261.9,521.99c-.7-.3-1.4,0-1.7,.7-.3,.6-3.5,6.5-7.9,9.7-1.4,1-2.9,1.6-4.5,2,1.1-1.2,1.8-2.9,1.8-4.7,0-3.9-3.2-7.1-7.1-7.1s-7.1,3.2-7.1,7.1c0,3,1.9,5.5,4.5,6.6,1.5,.7,3.4,1.2,5.4,1.2,2.8,0,5.9-.8,8.6-2.8,1.2-.9,2.4-2.1,3.5-3.4l-11.3,35.3,2.6,.8,14-43.7c.3-.8,0-1.5-.8-1.7"/><path class="cls-6" d="M356.7,164.99l-.2-.3c-.1-.1-.3-.3-.6-.7l-11.4-14.1c-.3-.3-.2-1.1,0-1.5l10.1-15.3c.1-.2,.2-.5,.2-.7v-.9c0-.3-.1-.6-.3-.8l-16.1-21.7s-.8-1.2-1.8-.3c-1,.8-.2,2.1-.2,2.1l7.5,10.3c.4,.6,.4,1.8,0,2.4l-10,15.3c-.1,.2-.2,.6-.2,.8v.9c0,.3,.1,.6,.3,.8l11.1,13.8c-.4-.1-1.3-.3-2.5-.3-1.7,0-3.9,.4-5.7,2-2.2,2-3.4,4.8-3.4,7.2,0,1.4,.3,2.8,1.1,3.9,2.1,3.2,9.5,12.6,9.5,12.6,0,0,.9,1.1,1.8,.4,.9-.7,.7-1.6,.4-2.1-.3-.5-3.5-6.3-3.5-6.3,0,0-.7-1.4-.7-3.2,0-1.3,.4-2.9,1.7-4.2,1.2-1.2,2.6-1.6,3.9-1.6s2.4,.4,3.2,.9l3.9,2.5s1.2,.6,1.8-.3c.5-.7,.3-1.1,.1-1.6"/><path class="cls-6" d="M524.5,164.99l-.2-.3c-.1-.1-.3-.3-.6-.7l-11.4-14.1c-.3-.3-.2-1.1,0-1.5l10.1-15.3c.1-.2,.2-.5,.2-.7v-.9c0-.3-.1-.6-.3-.8l-16.1-21.7s-.8-1.2-1.8-.3c-1,.8-.2,2.1-.2,2.1l7.5,10.3c.4,.6,.4,1.8,0,2.4l-10,15.3c-.1,.2-.2,.6-.2,.8v.9c0,.3,.1,.6,.3,.8l11.1,13.8c-.4-.1-1.3-.3-2.5-.3-1.7,0-3.9,.4-5.7,2-2.2,2-3.4,4.8-3.4,7.2,0,1.4,.3,2.8,1.1,3.9,2.1,3.2,9.5,12.6,9.5,12.6,0,0,.9,1.1,1.8,.4,.9-.7,.7-1.6,.4-2.1s-3.5-6.3-3.5-6.3c0,0-.7-1.4-.7-3.2,0-1.3,.4-2.9,1.7-4.2,1.2-1.2,2.6-1.6,3.9-1.6s2.4,.4,3.2,.9l3.9,2.5s1.2,.6,1.8-.3c.5-.7,.3-1.1,.1-1.6"/><path class="cls-6" d="M2261.9,128.09c-.7-.3-1.4,0-1.7,.7-.3,.6-3.5,6.5-7.9,9.7-1.4,1-2.9,1.6-4.5,2,1.1-1.2,1.8-2.9,1.8-4.7,0-3.9-3.2-7.1-7.1-7.1s-7.1,3.2-7.1,7.1c0,3,1.9,5.5,4.5,6.6,1.5,.7,3.4,1.2,5.4,1.2,2.8,0,5.9-.8,8.6-2.8,1.2-.9,2.4-2.1,3.5-3.4l-11.3,35.3,2.6,.8,14-43.7c.3-.7,0-1.4-.8-1.7"/><path class="cls-7" d="M333.6,1157.79l86.6,6.4v12.4l-86.6-6.4v-12.4"/><path class="cls-7" d="M877.6,1046.39l96.6-6.4v12.4l-96.6,6.4v-12.4"/><path class="cls-7" d="M1418.2,1157.79l108.3,6.4v12.4l-108.3-6.4v-12.4"/><path class="cls-7" d="M2054.9,1139.19l93,6.4v12.4l-93-6.4v-12.4"/><path class="cls-7" d="M333.6,786.09l86.6,6.4v12.4l-86.6-6.4v-12.4"/><path class="cls-7" d="M848.1,792.29l96.6-6.4v12.4l-96.6,6.4v-12.4"/><path class="cls-7" d="M1418.2,761.29l108.3,6.4v12.4l-108.3-6.4v-12.4"/><path class="cls-7" d="M2054.9,742.69l93,6.4v12.4l-93-6.4v-12.4"/><path class="cls-7" d="M665.2,479.79l86.6,6.4v12.4l-86.6-6.4v-12.4"/><path class="cls-7" d="M1215.4,461.29l96.6,6.4v12.4l-96.6-6.4v-12.4"/><path class="cls-7" d="M1827.8,517.39l108.3-6.4v12.4l-108.3,6.4v-12.4"/><path class="cls-7" d="M2445.5,492.59l93-6.4v12.4l-93,6.4v-12.4"/><path class="cls-7" d="M635.7,210.19l86.6,6.4v12.4l-86.6-6.4v-12.4"/><path class="cls-7" d="M1185.9,191.59l96.6,6.4v12.4l-96.6-6.4v-12.4"/><path class="cls-7" d="M1798.3,210.19l108.3,6.4v12.4l-108.3-6.4v-12.4"/><path class="cls-7" d="M2445.5,73.99l93-6.4v12.4l-93,6.4v-12.4"/><path class="cls-6" d="M1906.4,1170.59c0-.2,.9-3.6,1-3.9,.1-.4,1.9-6.1,5.6-11.7,2.7-4.2,12.1-16.4,11.8-16.4,0,0,7.3-9.4,7.8-22.2v-2.3c0-6.1-.8-14.6-4.3-23.2-.4-1-.8-2-1.9-1.6-1.1,.4-.8,1.6-.5,2.7,1.8,6.9,2.8,14.1,2.8,21.2,0,8.3-3,12.5-4.8,15.6-6.5,11-15.1,16.4-19.2,17.8-.5,.2-.8,.6-.8,1.1v22.5c0,.7,.6,1.3,1.3,1.3,.5-.1,1.1-.5,1.2-.9"/><path class="cls-6" d="M1906.4,749.29c0-.2,.9-3.6,1-3.9,.1-.4,1.9-6.1,5.6-11.7,2.7-4.2,12.1-16.4,11.8-16.4,0,0,7.3-9.4,7.8-22.2v-2.3c0-6.1-.8-14.6-4.3-23.2-.4-1-.8-2-1.9-1.6-1.1,.4-.8,1.6-.5,2.7,1.8,6.9,2.8,14.1,2.8,21.2,0,8.3-3,12.5-4.8,15.6-6.5,11-15.1,16.4-19.2,17.8-.5,.2-.8,.6-.8,1.1v22.5c0,.7,.6,1.3,1.3,1.3,.5-.1,1.1-.5,1.2-.9"/><path class="cls-6" d="M2358.7,508.29c-.1-.3-1-3.8-1-4-.1-.4-.7-.7-1.2-.7-.7,0-1.3,.6-1.3,1.3v22.5c0,.5,.4,.9,.8,1.1,4.2,1.3,12.8,6.7,19.2,17.8,1.8,3.1,4.7,7.2,4.7,15.6,0,7.1-1.1,14.7-2.9,21.6-.3,1.1-.6,2.1,.5,2.5s1.5-.4,1.9-1.4c3.6-8.7,4.5-17.9,4.5-24v-1.9c-.5-12.8-7.8-22.2-7.8-22.2,.3,0-9.1-12.2-11.8-16.4-3.7-5.7-5.5-11.4-5.6-11.8"/><path class="cls-6" d="M2358.7,92.79c-.1-.3-1-3.8-1-4-.1-.4-.7-.7-1.2-.7-.7,0-1.3,.6-1.3,1.3v22.5c0,.5,.4,.9,.8,1.1,4.2,1.3,12.8,6.7,19.2,17.8,1.8,3.1,4.7,7.2,4.7,15.6,0,7.1-1.1,14.7-2.9,21.6-.3,1.1-.6,2.1,.5,2.5s1.5-.4,1.9-1.4c3.6-8.7,4.5-17.9,4.5-24v-1.9c-.5-12.8-7.8-22.2-7.8-22.2,.3,0-9.1-12.2-11.8-16.4-3.7-5.8-5.5-11.4-5.6-11.8"/><path class="cls-6" d="M335.4,836.89c0,1.1,0,1.2-.4,3.4-.9,4.9-1.4,10.4-1.4,15.4,0,2.6,.1,5.1,.4,8.4,0,.8,0,1.1,.1,1.7l3.5-.3c-.2-1-.2-1.5-.2-2.3,0-3.9,1.6-7.9,4.6-11.9,3.4-4.3,7.6-7,12.8-7.9,0,3.1,.1,4.4,.1,6.1,0,6.4-.7,11.1-2,14-3.9-1.4-6.2-3.8-8.4-8.5-.7,1.4-1.1,1.9-2,2.8,2,3.9,4.2,6.2,7.8,8,.5,.3,.8,.4,1.1,.5-.1,.1-.1,.2-.3,.4-2,2.8-5,5.1-8.4,6.6,1.5,1.1,1.9,1.4,2.7,2.5,4.4-2.6,6.8-4.8,9.3-8.5,1,.1,1.5,.2,2.3,.2,8.8,0,15.5-6.1,15.5-14s-5.8-13.4-14.7-13.5c0-1.4-.2-4.8-.3-5.5v-1.6l-3.8,.1c.4,1.4,.5,3.1,.7,7.2-5.2,.8-9,2.8-12.9,6.8-2.2,2.3-4,5.2-4.6,7.8q-.2,.9-.4,1.4h-.2c0-.6,.1-.9,.1-1.3q.1-1.1,.1-1.5c.6-7.1,.8-7.9,1.4-11.1,.5-2.9,.8-3.8,1.1-4.9l-3.6-.5m22.7,6.2c2.6,.1,4.1,.4,5.9,1.4,3.3,1.6,5.2,4.8,5.2,8.6,0,4.4-2.4,8.1-6.7,10-1.7,.8-3.3,1.1-5.2,1.1-.2,0-.7,0-.9-.1h-.4c1.5-2.5,2.2-8.1,2.2-15.4,0-2.2,0-3.4-.1-5.6"/><path class="cls-6" d="M335.1,896.19h1.7c4,.2,6.2,.2,6.8,.2h2c-.2,3.7-.2,3.9-.3,7.6-7.2,3.2-11.6,8.8-11.6,14.9,0,4.4,2.7,7.6,6.5,7.6,3.5,0,7.3-2.1,11.1-6.1,3.9-3.9,6.6-8.2,9.5-15,5.4,1.4,8.2,4.4,8.2,8.7s-3.2,8.1-8.6,10c-2.4,.8-4.6,1.2-7.5,1.3,.9,1.4,1.1,1.9,1.6,3.4,4.5-.6,7.3-1.4,10.2-2.9,5.1-2.7,7.8-6.6,7.8-11.6,0-5.8-3.8-10.1-10.8-11.7,.9-2.3,1.4-3.7,1.5-4l-3.4-1.1c-.2,1.5-.6,3-1.2,4.5-1.2-.1-1.9-.1-2.9-.1-2.6,0-4.8,.3-7.4,1q.1-2.4,.4-6.7c4.7-.2,12.2-1,17.7-2,1-.2,1.1-.2,1.8-.2l-.2-3.5c-3.8,1.3-10.9,2.4-19,2.8,.3-3.9,.6-5.6,1-7l-3.9-.2v.8c0,.3-.1,2.3-.1,2.8q-.2,2.6-.2,3.8c-.9,.1-1.1,.1-1.2,.1-4.6,0-7.2-.2-9.4-.8l-.1,3.4m10.1,11c0,6,.3,9.7,1,13.5-2.2,1.8-3.9,2.6-5.8,2.6-2.1,0-3.6-1.8-3.6-4.6,0-2.5,1.1-5.1,3.1-7.4,1.4-1.6,2.9-2.8,5.3-4.1m3.7,11.4v-.6c0-.3,0-.4-.1-.7-.4-4.2-.5-5-.5-11.4,2.3-.8,4.6-1.2,6.9-1.2,.5,0,.8,0,2.4,.1-2.3,5.2-4.4,8.8-7.7,12.5-.4,.4-.5,.5-.9,1.3h-.1"/><path class="cls-6" d="M339.9,943.69c1,1.6,2,4.5,3.6,9.5-.8,.2-1.3,.4-2.6,.8q-5.9,2.1-7.3,2.4l1.3,3.6c1.4-.8,4-1.8,6.9-2.8q2.2-.7,2.7-.9c3.2,10.9,6.1,22.9,6.3,27l4-.9c-.3-.9-.4-1.1-.6-2.2-2.1-9.4-3.9-16.4-6.5-24.9,7.3-2.3,12.6-3.6,16.3-3.6,5,0,8,2.2,8,6.1,0,2.2-.8,3.9-2.4,5.1-1.6,1.2-3.8,1.9-6,1.9-2.9,0-5.8-.8-8.4-2.3,.2,1.9,.3,2.2,.3,2.9v.9c3,1.2,5.6,1.9,8.5,1.9,6.8,0,11.8-4.3,11.8-10.3,0-5.6-4.3-9.2-11-9.2-1.2,0-2.4,.1-3.8,.3-.1-.6-.1-1.6-.1-1.6,0-3.9,.1-5.4,.2-6.8h-3.8c.2,1.2,.2,1.7,.2,8.9q-3.8,.8-10.8,2.8c-.7-2.2-1.2-3.6-2.2-6.6-.6-1.5-.7-1.9-1-3.1l-3.6,1.1"/><path class="cls-6" d="M503.5,889.89c.3,.8,.3,1,.6,2.6,.5,2.5,1,5.4,1.4,7.1-2.3,1.7-3.7,3.1-5,5.1-1.9,2.8-2.9,6.3-2.9,9.5,0,5.9,2.9,9.8,7.2,9.8,2.9,0,5.7-1.8,8.9-5.7,3.9-4.7,7.4-11.9,9.7-19.6,6.9,1.5,10.6,5.5,10.6,11.6,0,2.6-.8,5-2.2,7.1-1.5,2.2-4,4-7.5,5.4-2.7,1.1-4.6,1.6-7.5,1.9,1.3,1.6,1.5,2,2,3.3,2.1-.5,2.4-.6,3.1-.8,4-1.1,7.6-2.8,10.1-4.9,3.4-2.8,5.5-7.4,5.5-12,0-7.6-5-13-13.2-14.6,.2-.9,.3-1.5,.6-2.3q1-4.5,1.3-5.2l-3.8-.8c-.1,1.4-.7,4.8-1.5,8.1-.7-.1-1.3-.1-1.6-.1-3.8,0-7.2,.8-10.7,2.5-.7-2.9-1.3-7.1-1.4-8.7l-3.7,.7m2.9,13c1.1,4.6,2.7,9.2,4.7,13.4-2.2,2.8-4.4,4.2-6.2,4.2-2.4,0-4-2.6-4-6.6,0-2.1,.8-4.9,2-7,.9-1.4,1.8-2.5,3.5-4m6.9,10.7c-.1-.4-.2-.5-.4-1.2-1.8-4.2-2.8-7.5-3.8-11.6,2.9-1.7,6.1-2.6,9.7-2.6,.2,0,.7,.1,1.2,.1-1.5,5.3-3.8,10.4-6.1,14.1q-.3,.7-.6,1.2h0"/><path class="cls-6" d="M535.8,976.69c-.6-.4-.9-.6-1.7-1.1-5.2-3.8-9.6-6.1-13.9-7.3q-.2-4.9-.3-7.6c3.7-.2,7.7-.7,11.1-1.2,1.8-.2,2.2-.3,2.9-.3l-.2-3.4c-2.8,.9-7.1,1.5-13.9,2q0-2.6-.1-6.8c5.5-.3,6.9-.5,11.6-1.2q2.6-.3,3.5-.4l-.2-3.4c-2.8,.9-7.9,1.6-14.8,2.1,0-3.6,.1-6,.3-7.1h-3.9q.2,1.1,.2,7.2h-4.4c-5.4,0-10.6-.4-12.8-1v3.4c.3-.1,.5-.1,.7-.1s.5,0,.9,.1c4.5,.3,8.6,.5,12.2,.5,1.2,0,2,0,3.4-.1l.1,6.9h-4.5c-5,0-9.2-.3-11.4-.8l-.1,3.3h.4c.3,0,.7,0,1.2,.1,3.1,.2,5.5,.4,8.5,.4,1.6,0,4.1-.1,5.9-.1,.1,1.3,.1,2.2,.1,2.9,0,1.4,0,2.5,.1,2.9v.6q0,.4,.1,.6c-2.2-.3-2.9-.4-4.5-.4-2.2,0-3.7,.1-5.2,.5-4.4,1-7,3.6-7,6.9,0,2.1,1,4,2.7,5.2,1.7,1.3,4.4,2,7.8,2,3.9,0,7-1.1,8.4-3.1,.9-1.2,1.2-2.8,1.2-5.4q0-.7-.1-1.8c1.3,.6,2.5,1.1,3.3,1.5,4.2,2.2,7.9,4.8,10.2,7.1l2.2-3.6m-18.8-4c0,2.4-.3,3.8-1,4.5-1,1.1-2.9,1.7-5.5,1.7-4.4,0-6.9-1.5-6.9-4.2s3.2-4.4,8.2-4.4c2.2,0,3.2,.1,5.1,.6l.1,1.8"/><path class="cls-6" d="M503.5,835.99c.3,.8,.3,1,.6,2.7,.5,2.5,1,5.4,1.4,7.1-2.3,1.7-3.7,3.1-5,5.1-1.9,2.9-2.9,6.3-2.9,9.6,0,5.9,2.9,9.8,7.2,9.8,2.9,0,5.7-1.8,8.9-5.7,3.9-4.7,7.4-11.9,9.7-19.6,6.9,1.4,10.6,5.4,10.6,11.6,0,2.6-.8,5-2.2,7.1-1.5,2.2-4,4-7.5,5.5-2.7,1.1-4.6,1.6-7.5,1.8,1.3,1.7,1.5,2.1,2,3.4,2.1-.5,2.4-.6,3.1-.8,4-1.1,7.6-2.8,10.1-4.9,3.4-2.8,5.5-7.4,5.5-12,0-7.6-5-13-13.2-14.6,.2-.9,.3-1.5,.6-2.4q1-4.4,1.3-5.2l-3.8-.8c-.1,1.5-.7,4.8-1.5,8.1-.7-.1-1.3-.1-1.6-.1-3.8,0-7.2,.8-10.7,2.5-.7-2.9-1.3-7.1-1.4-8.7l-3.7,.5m2.9,13c1.1,4.6,2.7,9.2,4.7,13.4-2.2,2.8-4.4,4.2-6.2,4.2-2.4,0-4-2.6-4-6.5,0-2.2,.8-4.9,2-7,.9-1.5,1.8-2.6,3.5-4.1m6.9,10.7c-.1-.4-.2-.5-.4-1.1-1.8-4.2-2.8-7.6-3.8-11.6,2.9-1.7,6.1-2.5,9.7-2.5h1.2c-1.5,5.4-3.8,10.5-6.1,14.2q-.3,.5-.6,1h0"/><path class="cls-6" d="M643.9,847.09h.2c.1,0,.2,0,.5,.1h.8c.2,0,.8,0,1.6,.1,1.8,.1,3.6,.1,5.6,.1s3.5,0,5.7-.1c.2,7.3,.4,12,.5,13.1-1.1-.6-3.5-1-5.5-1-5.5,0-9.5,2.9-9.5,7.1s3.7,7.1,9.5,7.1c4.1,0,7.1-1.6,8.3-4.2,.4-.9,.6-2.1,.6-3.4,0-.4,0-.5-.1-1.3q.2,.1,.5,.3t.5,.3c3.5,2.1,5.5,3.4,7.1,5.2l1.6-3.5c-.6-.3-.7-.4-1.2-.8-3.3-2.4-4.7-3.2-8.4-4.9-.4-6.6-.5-9.2-.5-14.1,2.6-.3,4-.5,5.3-.8q3.4-.7,3.5-.7l-.1-3.4c-1.9,.8-4.8,1.4-8.7,1.8v-2.4c0-4.1,.1-6.5,.3-7.9h-3.8c.1,.5,.2,1.2,.2,2.1v8.5c-2,.1-3.4,.2-5.3,.2-4.4,0-6.6-.2-9-.8l-.2,3.3m15,16.3s.1,1.1,.1,1.5c0,1.9-.3,3.1-1,3.9-1,1.1-2.9,1.8-5.1,1.8-3.5,0-5.8-1.6-5.8-4.1s2.5-4.1,6.5-4.1c2,0,3.3,.2,5.3,1m-23.9-29.7c0,.6-.1,.9-.5,3.1-2,8.6-2.6,13.9-2.6,20.6,0,5.1,.5,10.2,1.4,14.8,.2,1.2,.2,1.4,.3,1.9l3.5-.4c-.1-.7-.1-.8-.1-1,0-2.9,2-9.3,4.3-14.2l-2.5-1.1c-.1,.3-.2,.6-.4,1-1.7,4.1-2.1,5.1-3,8.8l-.2-.1v-2.3c-.1-2.3-.2-5.2-.2-7,0-8.2,1.7-18.4,3.8-23.4l-3.8-.7"/><path class="cls-6" d="M636,887.79c-.1,1.1-.2,1.6-.7,4-1.7,7.4-2.2,12.7-2.2,19.8,0,5.2,.3,8.8,1.3,14.1,.2,.9,.2,1.2,.3,2l3.6-.3v-.8c0-2.8,1.8-8.8,4-13.8l-2.4-1.1c-1.6,3.6-2.5,6.4-3.2,9.8-.2-2.6-.3-5.6-.3-9.5,0-6,.5-10.4,1.5-15.6,.8-3.4,1.4-5.9,2.1-8l-4-.6m10.3,9.5c3.2,.4,5.2,.5,8,.5,3.8,0,7.8-.2,10.8-.6,2.2-.3,3.3-.4,3.5-.4l-.2-3.6c-3.4,.9-7.9,1.3-13.4,1.3-3.9,0-6.3-.2-8.5-.8l-.2,3.6m3.6,9.7c-3.1,3.6-4.4,6.2-4.4,9.3,0,1.9,.5,3.4,1.5,4.6,2.2,2.6,5.8,3.8,11.5,3.8,3.4,0,6.8-.3,10.2-1,1-.1,1.1-.2,1.8-.2l-.5-3.8c-2.7,1.1-7,1.8-11.5,1.8-6.5,0-9.6-1.8-9.6-5.5,0-2.2,1.2-4.6,3.8-7.4l-2.8-1.6"/><path class="cls-6" d="M643.9,954.89h.2c.1,0,.2,0,.5,.1,.1,0,.4,0,.8,.1,.2,0,.8,0,1.6,.1,1.8,.1,3.6,.1,5.6,.1s3.5-.1,5.7-.1c.2,7.3,.4,12,.5,13-1.1-.6-3.5-1-5.5-1-5.5,0-9.5,3-9.5,7.1,0,4.4,3.7,7.1,9.5,7.1,4.1,0,7.1-1.6,8.3-4.2,.4-.9,.6-2.1,.6-3.4,0-.4,0-.6-.1-1.3q.2,.2,.5,.3t.5,.3c3.5,2.1,5.5,3.4,7.1,5.2l1.6-3.5c-.6-.4-.7-.4-1.2-.9-3.3-2.4-4.7-3.2-8.4-4.9-.4-6.6-.5-9.2-.5-14.1,2.6-.3,4-.5,5.3-.8q3.4-.7,3.5-.7l-.1-3.4c-1.9,.8-4.8,1.4-8.7,1.9v-2.4c0-4.2,.1-6.5,.3-7.9h-3.8c.1,.5,.2,1.2,.2,2.1v8.5c-2,.1-3.4,.1-5.3,.1-4.4,0-6.6-.2-9-.8l-.2,3.4m15,16.3s.1,1.2,.1,1.5c0,1.9-.3,3.2-1,3.9-1,1.1-2.9,1.8-5.1,1.8-3.5,0-5.8-1.6-5.8-4.1s2.5-4.2,6.5-4.2c2,.1,3.3,.3,5.3,1.1m-23.9-29.7c0,.7-.1,.9-.5,3.2-2,8.6-2.6,13.9-2.6,20.5,0,5.1,.5,10.2,1.4,14.9,.2,1.1,.2,1.4,.3,1.9l3.5-.4c-.1-.7-.1-.8-.1-1,0-2.9,2-9.3,4.3-14.2l-2.5-1.2c-.1,.4-.2,.6-.4,1-1.7,4.1-2.1,5.1-3,8.8l-.2-.1v-2.3c-.1-2.3-.2-5.2-.2-7,0-8.2,1.7-18.4,3.8-23.4l-3.8-.7"/><path class="cls-6" d="M848.1,837.49c.1,.9,.1,1.1,.2,3,.2,12.3,1,18.7,2.7,23.4,1.7,4.8,4.3,7.6,7.1,7.6,3.6,0,5.8-3.3,8.3-12.1-1.4-1.1-1.9-1.6-3-2.9-.7,3.4-1.4,6.1-2.6,8.6-.8,1.6-1.6,2.5-2.5,2.5-1.9,0-4-3.4-5-8.6-.8-3.2-1.3-10.1-1.3-15.6,0-2.8,.1-4.4,.3-5.9h-4.2m25.3,4.2c5.8,6.8,9.5,15.4,10.4,24.7l3.6-1.4c-.9-5.6-1.9-9.2-3.8-13.4s-3.9-7.6-7.2-11.4l-3,1.5"/><path class="cls-6" d="M848.8,902.79c1.3-.3,1.8-.4,2.9-.6,.5-.1,2.9-.5,7.2-1.2-1.7,6.5-3.2,10.9-5.5,15.9-1.8,3.8-3.7,7.1-5.2,9.1l3.4,2c1.5-2.8,2.6-4.8,3.2-6,3.4-6.9,5.7-13.3,7.5-21.2,1.8-.2,2.5-.2,3.6-.2,4.7,0,6.2,1.7,6.2,7,0,5.6-.8,10.7-2.1,13.9-.7,1.6-1.6,2.4-2.9,2.4-1.8,0-4.6-.8-7.4-2.3,.2,.9,.2,1.2,.2,2,0,.6,0,1-.1,1.8,3.3,1.4,5.4,1.9,7.5,1.9,2.3,0,3.7-.7,4.9-2.4,2.1-2.9,3.3-9.6,3.3-17.2,0-4.1-.7-6.4-2.4-8.1-1.6-1.5-3.7-2.1-7.2-2.1-1.1,0-1.8,0-2.9,.1,.4-2.4,.8-4.2,1.1-5.7,.4-2.9,.6-3.7,.9-4.8l-4-.4v.6c0,2.1-.6,6.9-1.5,10.6-4,.6-9.2,1.2-11,1.3l.3,3.6m29.5-6.6c4.8,4.9,8.3,11,10.2,17.9l3.2-1.9c-2.3-7.1-5.3-12.2-10.4-17.7l-3,1.7"/><path class="cls-6" d="M849.6,950.09c.3-.1,.6-.1,.8-.1,.1,0,.5,0,.9,.1,4,.1,6.2,.2,6.8,.2h2c-.2,3.6-.2,3.9-.3,7.5-7.2,3.2-11.6,8.8-11.6,14.9,0,4.4,2.7,7.6,6.5,7.6,3.5,0,7.3-2,11.2-6s6.6-8.2,9.5-15c5.4,1.4,8.2,4.4,8.2,8.7s-3.2,8.1-8.6,10c-2.4,.8-4.5,1.2-7.5,1.3,.9,1.4,1.2,1.9,1.6,3.4,4.5-.6,7.3-1.4,10.2-2.9,5.2-2.7,7.8-6.6,7.8-11.5,0-5.9-3.8-10.1-10.8-11.7,.8-2.3,1.4-3.7,1.6-4l-3.5-1c-.2,1.5-.6,3-1.2,4.5-1.2-.1-1.8-.2-2.9-.2-2.7,0-4.8,.3-7.4,1q.1-2.4,.4-6.7c4.6-.1,12.2-1,17.7-2,.9-.1,1.1-.1,1.8-.2l-.2-3.5c-3.8,1.4-10.9,2.4-19.1,2.8,.3-3.9,.6-5.6,1.1-7l-3.9-.2v.8c0,.3-.1,2.3-.2,2.8q-.2,2.6-.2,3.8c-.9,.1-1.1,.1-1.2,.1-4.6,0-7.2-.2-9.3-.8l-.2,3.3m10.1,11c0,6.1,.3,9.7,1,13.6-2.2,1.8-3.9,2.5-5.8,2.5-2.1,0-3.6-1.8-3.6-4.5,0-2.5,1.1-5.2,3-7.5,1.5-1.6,3-2.8,5.4-4.1m3.7,11.4v-.6c0-.3,0-.4-.1-.7-.4-4.1-.5-5-.5-11.4,2.3-.8,4.7-1.2,6.9-1.2,.6,0,.8,0,2.4,.1-2.3,5.2-4.4,8.8-7.7,12.5-.4,.4-.4,.5-.9,1.3h-.1"/><path class="cls-6" d="M1070.2,868.89c-.7-.4-.9-.6-1.7-1.2-5.2-3.8-9.6-6.1-14-7.3q-.2-4.8-.3-7.6c3.7-.2,7.6-.6,11.1-1.2,1.8-.2,2.2-.3,2.9-.4l-.2-3.4c-2.8,.9-7,1.6-13.8,2.1q-.1-2.7-.1-6.8c5.5-.4,6.9-.5,11.6-1.2q2.6-.4,3.4-.4l-.2-3.4c-2.8,.9-7.9,1.6-14.8,2.1,0-3.6,.2-6,.3-7.1h-3.8q.2,1.1,.2,7.2c-1.7,0-3.3,.1-4.3,.1-5.5,0-10.7-.4-12.8-1l-.1,3.4c.3-.1,.6-.1,.7-.1,.2,0,.5,0,.9,.1,4.5,.4,8.5,.5,12.2,.5,1.2,0,1.9,0,3.4-.1l.1,6.9c-1.4,.1-3.2,.1-4.4,.1-5.1,0-9.2-.3-11.5-.8v3.3h.4c.3,0,.7,0,1.2,.1,3.1,.2,5.5,.3,8.5,.3,1.6,0,4.1-.1,5.9-.1,0,1.3,0,2.2,.1,2.9,0,1.4,0,2.5,.1,2.9,0,.3,.1,.5,.1,.6v.6c-2.2-.4-2.8-.4-4.5-.4-2.2,0-3.7,.2-5.2,.5-4.4,1-7,3.6-7,6.9,0,2,1,4,2.7,5.2,1.7,1.3,4.5,2,7.8,2,4,0,7-1.1,8.5-3.2,.9-1.2,1.2-2.8,1.2-5.4q0-.6-.1-1.8c1.4,.6,2.5,1.1,3.4,1.5,4.2,2.2,7.9,4.8,10.2,7.2l1.9-3.6m-18.8-4c0,2.4-.3,3.8-1,4.5-1,1.1-2.8,1.6-5.5,1.6-4.3,0-6.8-1.5-6.8-4.1s3.2-4.4,8.2-4.4c2.2,0,3.2,.1,5.1,.5v1.9"/><path class="cls-6" d="M1038.3,888.79c.2,1.4,.2,2.8,.2,7.4v3.2c-5.2,.5-8.3,.7-9.2,.7-.2,0-.6,0-1.1-.1l.3,3.5c1.6-.3,5.4-.7,10.1-1.1-.1,1.8-.1,5.9-.1,6.2,0,7.2,.2,10.1,.7,11.9,1.3,4.5,5.2,6.2,14.1,6.2,3.8,0,7.9-.4,12.6-1.1,.7-.1,1.2-.1,1.3-.2,.1,0,.3,0,.7-.1l-.4-3.8c-3.2,1.1-8.4,1.8-13.8,1.8-3.2,0-6.3-.3-7.8-.8-2-.6-2.9-1.6-3.3-3.2-.4-1.5-.5-4.4-.5-12.8v-4.3c6.1-.4,11-.7,16.3-.9-.1,3.9-.2,5.5-.7,7.7-.4,2.4-1,3.2-2.4,3.2-1.5,0-3.8-1-6.5-2.8,0,1,.1,1.5,.1,2s0,.8-.1,1.5c3,1.7,5,2.3,6.9,2.3,2.6,0,4.2-1.4,5-4.4,.6-2,.8-5.5,.9-9.8,6.5-.2,7-.2,7.6-.2,1.2,0,1.8,.1,3.1,.2l-.1-3.6c-2.5,.2-3,.2-10.4,.4v-2.2l.1-1.4v-6h-3.7c.2,1.3,.3,2.8,.3,4.7v5.1c-5.8,.2-9.2,.4-16.3,.8q.2-8.8,.4-10.4h-4.3m24.7-2.2c1.6,2.1,2.9,4.6,4.4,8l2.5-1.1c-1.4-3.4-2.4-5.1-4.3-7.9l-2.6,1m5.8-2.1c1.4,1.8,3.1,4.9,4.4,7.8l2.5-1.2c-1.1-2.6-2.7-5.3-4.4-7.7l-2.5,1.1"/><path class="cls-6" d="M1055.8,947.79c-2.8,.9-5.9,1.6-10.2,2.1v-4.8c0-2.3,0-3.2,.2-4.7h-3.7c.2,1.5,.2,2.8,.2,4.8v4.9c-1.5,.1-3.4,.2-4.8,.2-2.2,0-3.7-.1-5.1-.4v3.3h2.1c.6,.1,1.9,.1,2.7,.1,1.4,0,2.3,0,3.2-.1q1.6-.1,2-.1v9.4c-3.1,1.3-5.2,2.6-7,4.1-2.7,2.3-4,4.5-4,6.7,0,1.8,.8,3.3,2.3,4.7,2.2,1.9,5.4,3.2,8.2,3.2,2.4,0,3.7-1.3,3.7-4v-12.5c4.2-1.3,7.4-1.9,10.6-1.9,6.6,0,10.7,3.1,10.7,7.9,0,4.1-2.8,7.1-6.7,7.1s-5.2-2.1-5.2-7.4c0-.6,0-1,.1-1.9-1.2,.7-1.8,.9-3.3,1.3-.1,2.5,.2,4,.6,5.6,.9,3.6,3.8,5.7,7.7,5.7,5.8,0,10.2-4.5,10.2-10.4,0-3.7-1.8-6.9-5.2-8.8-2.3-1.4-5.3-2.1-8.8-2.1-3.3,0-6.4,.5-10.8,1.8v-8.7c2.3-.2,4.8-.6,8.8-1.5,.7-.1,.9-.2,1.5-.3v-3.3m-13.4,27.6c0,2.1-.1,2.4-1.1,2.4-1.3,0-3.1-.6-4.5-1.4-1.4-1-2.2-2-2.2-3,0-2.4,2.8-5.1,7.8-7.5v9.5m30-21.2c-3-3.8-5.5-6.2-10.1-9.5l-2.6,1.9c3.9,2.7,7.4,6.1,10.1,9.8l2.6-2.2"/><path class="cls-6" d="M1183.9,856.19c.6,0,.8,0,1.6,.3,2.2,.6,4.5,1,7.5,1.2q0,.5-.1,1.2c-.2,1.2-.2,2.2-.2,3.3,0,2.9,.5,5.2,1.5,6.9,2,3.2,6,5,11.2,5,8.8,0,14.6-4.8,14.6-11.8,0-3.6-1.1-6.1-4.7-9.9-1.4,.6-2,.8-3.7,1,3.2,2.8,4.8,5.6,4.8,8.7,0,5.3-4.3,8.8-11,8.8-3.1,0-5.5-.8-7.1-2.1-1.6-1.4-2.3-3.2-2.3-6,0-.9,.1-2.5,.2-3.7v-1c2.2,.1,3.1,.1,4.3,.1,2.3,0,4.5-.1,7.1-.4,.7-.1,.8-.1,1.3-.1l.1-3.4c-1.9,.5-5.6,.8-9.2,.8-.7,0-1.4,0-3.3-.1,.3-2.8,.3-3.3,1.2-9,2.8,.1,3.6,.1,4.4,.1,1.4,0,2.9-.1,4.5-.2q2.5-.2,3.5-.3l.1-3.4c-2.2,.6-5.4,.9-9.1,.9-.8,0-1.5,0-2.9-.1,.2-1.4,.3-1.9,.5-3q.4-2.8,.5-3.2c.3-1.8,.5-2.4,.8-3.4l-4-.4v.4c0,1.3-.4,4.6-1.2,9.4-3.5-.3-6.8-1.1-9-2l-.4,3.3c.7,.2,.9,.2,1.5,.4,3,.7,5.1,1.1,7.5,1.3-.4,2.7-.9,6.6-1.2,9-3.8-.4-7-1.1-9-2l-.3,3.4"/><path class="cls-6" d="M1186.2,887.79c-.1,1.1-.2,1.6-.7,4-1.6,7.4-2.2,12.7-2.2,19.8,0,5.2,.4,8.8,1.3,14.1,.2,.9,.2,1.2,.3,2l3.6-.3v-.8c0-2.8,1.8-8.8,4-13.8l-2.4-1.1c-1.6,3.6-2.6,6.4-3.2,9.8-.2-2.6-.3-5.6-.3-9.5,0-6,.4-10.4,1.5-15.6,.8-3.4,1.3-5.9,2.1-8l-4-.6m10.3,9.5c3.2,.4,5.2,.5,8,.5,3.9,0,7.9-.2,10.8-.6,2.2-.3,3.4-.4,3.5-.4l-.2-3.6c-3.3,.9-7.8,1.3-13.4,1.3-3.9,0-6.3-.2-8.5-.8l-.2,3.6m3.7,9.7c-3.1,3.6-4.3,6.2-4.3,9.3,0,1.9,.5,3.4,1.5,4.6,2.2,2.6,5.8,3.8,11.4,3.8,3.4,0,6.8-.3,10.2-1,1-.1,1.1-.2,1.8-.2l-.5-3.8c-2.7,1.1-6.9,1.8-11.5,1.8-6.4,0-9.6-1.8-9.6-5.5,0-2.2,1.2-4.6,3.8-7.4l-2.8-1.6"/><path class="cls-6" d="M1184.9,951.59c.9-.1,1-.1,3.1-.2,5.6-.1,9.6-.3,13.5-.9,1.2,2.7,1.5,3.2,2.8,5.7-4.1,.8-10.6,1.2-15.8,1.2-2,0-2.9-.1-4-.1l.1,3.3c.9-.1,1.1-.1,3.5-.2,9.3-.3,12.6-.6,17.6-1.4,1.8,3.1,3.8,6.1,5.3,7.7-3.3-1.1-6-1.4-10.1-1.4-9.5,0-15.2,3.2-15.2,8.6,0,2.6,1.3,4.9,3.8,6.2,2.5,1.4,5.7,2.1,10.3,2.1s8.7-.6,12.8-1.8q2.3-.7,3-.9l-.7-3.9c-3,1.8-9.6,3.3-14.8,3.3-6.8,0-10.7-1.8-10.7-5.1,0-3.5,4.7-5.7,11.8-5.7,2.2,0,4.8,.2,6.6,.5,2.4,.4,3.6,.8,5.5,1.9l2.9-2.1c-3.8-4.5-4.4-5.2-7.3-9.9,1.8-.3,4.3-.9,7.8-1.8,1.7-.4,1.8-.4,2.7-.6l-.4-3.4c-2.1,1-4.8,1.8-11.5,3.1-.8-1.4-2.1-4-2.8-5.6,2.8-.5,8.2-1.6,12.6-2.8l-.3-3.2c-2.8,1.2-7.5,2.3-13.3,3.3-1.2-2.7-2.2-5.2-2.7-7.1l-3.8,.6c.4,.7,1.4,3,3,6.9-4.6,.5-7.7,.7-11.8,.7-1.7,0-2.6-.1-3.8-.1l.3,3.1"/><path class="cls-6" d="M1424.1,835.99c.3,.8,.3,1,.7,2.7,.4,2.5,1,5.4,1.4,7.1-2.3,1.7-3.7,3.1-5,5.1-1.9,2.9-2.9,6.3-2.9,9.6,0,5.9,2.8,9.8,7.2,9.8,2.9,0,5.7-1.8,8.9-5.7,3.9-4.7,7.4-11.9,9.7-19.6,6.9,1.4,10.6,5.4,10.6,11.6,0,2.6-.8,5-2.2,7.1-1.5,2.2-4,4-7.5,5.5-2.7,1.1-4.6,1.6-7.5,1.8,1.3,1.7,1.6,2.1,2,3.4,2.1-.5,2.4-.6,3.1-.8,4-1.1,7.6-2.8,10.1-4.9,3.4-2.8,5.4-7.4,5.4-12,0-7.6-4.9-13-13.2-14.6,.2-.9,.3-1.5,.6-2.4q1.1-4.4,1.3-5.2l-3.8-.8c-.1,1.5-.7,4.8-1.5,8.1-.7-.1-1.3-.1-1.7-.1-3.8,0-7.2,.8-10.7,2.5-.7-2.9-1.3-7.1-1.4-8.7l-3.6,.5m2.9,13c1.1,4.6,2.7,9.2,4.7,13.4-2.2,2.8-4.4,4.2-6.2,4.2-2.4,0-4-2.6-4-6.5,0-2.2,.8-4.9,2-7,.9-1.5,1.8-2.6,3.5-4.1m6.9,10.7c-.1-.4-.2-.5-.4-1.1-1.8-4.2-2.8-7.6-3.8-11.6,2.9-1.7,6.1-2.5,9.7-2.5h1.2c-1.5,5.4-3.8,10.5-6.1,14.2q-.3,.5-.6,1h0"/><path class="cls-6" d="M1419.2,902.29c.8-.4,1.5-.6,3.6-1.2,8.7-2.4,15.2-3.6,20.4-3.6,6.8,0,10.9,3.4,10.9,9s-3.8,10.1-10.7,12.6c-3.8,1.4-8.3,2.1-13.9,2.3,.9,1.3,1.2,1.9,1.6,3.7,7.8-.7,11.9-1.6,16.5-3.8,6.7-3.2,10.4-8.5,10.4-14.8,0-7.6-5.8-12.5-14.9-12.5-4.2,0-9,.6-14.5,1.9q-8.9,2-10.4,2.1l1,4.3"/><path class="cls-6" d="M1429.2,944.89c.7,.1,.8,.2,1.7,.5,4.8,1.9,9,3,12.9,3.2-1.1,.4-1.9,.9-3.2,1.8-3.2,2.4-4.9,5-4.9,7.7,0,2.1,.8,3.8,2.8,6q3.3,3.7,4.2,5c1,1.4,1.5,2.9,1.5,4.2,0,2.8-2.4,4.8-5.5,4.8-2.9,0-5.8-1.5-8.6-4.3-.4,1.9-.6,2.4-1.1,3.6,3.5,2.9,6.5,4.2,10,4.2,5.2,0,8.9-3.4,8.9-8.1,0-2.8-1.3-5.5-4.6-8.9q-3.3-3.6-3.9-4.6c-.3-.6-.6-1.4-.6-1.9,0-2.3,2.1-4.8,6-7.1,1.6-.9,2.6-1.3,3.8-1.5l.1-3.6c-.4,.1-.6,.1-.8,.1-2.7,0-8.4-.9-11.6-1.9-2.5-.8-4.5-1.6-5.6-2.4l-1.5,3.2m-4.1,16.4c-1.1,5.9-3.8,12.1-6.9,16.1,1.5,.8,1.9,1.1,3,2.1,.3-.5,.4-.5,.6-.9q1.1-1.6,1.4-2.3c1.8-3.3,3.5-7.4,4.6-11.6,.4-1.4,.4-1.5,.7-2.2l-3.4-1.2m25.5,1c3,3.2,7.1,11.2,8.3,16.3l3.2-1.7c-1.2-3.6-1.9-5.3-3.3-8.1-1.6-3.1-2.1-3.8-5.2-8l-3,1.5"/><path class="cls-6" d="M1649.7,832.59c-1.6,2.6-8.2,8.8-14.7,13.7q-3.7,2.8-4.2,3.4c-1,1-1.5,2.2-1.5,3.4,0,1.7,.8,2.8,3.6,5,9.5,7.3,16.2,13.3,19.1,17.3l3.2-3.1c-.2-.2-.5-.4-.6-.4-.2-.1-.4-.4-.8-.8-6.9-6.6-8.2-7.7-16-13.6-4.1-3.2-4.5-3.5-4.5-4.4,0-.7,.4-1.1,2.2-2.5,5.3-4.1,8.9-7,11.5-9.4l3.9-3.8,.4-.4c.4-.4,.8-.8,1.3-1.2,0-.1,.2-.2,.5-.4l-3.4-2.8m1.1,11.6c1.4,1.6,3.9,5.3,5.1,8l2.6-1.5c-1.5-3-2.9-5.1-5.2-7.8l-2.5,1.3m5.7-2.6c1.9,2.2,4,5.5,5.1,7.9l2.5-1.5c-1.6-3.1-2.9-5-5.2-7.8l-2.4,1.4"/><path class="cls-6" d="M1640.8,901.89c.3-.1,.6-.1,.8-.1s.4,0,.9,.1c1.8,.1,4.7,.2,6,.2,2.2,0,5.1-.1,7.3-.3,.1,1.4,.1,2.6,.1,3.9,0,8-.8,11.7-3.3,14.9-1.8,2.3-4.2,4.1-7.7,5.8,1.3,1,1.7,1.4,2.7,2.7,3.8-2.2,6-4,7.8-6.4,2.9-4,3.8-8.1,3.8-17.6,0-1.4,0-2.2-.1-3.6,2-.2,3.6-.6,5.5-1,1.5-.4,1.6-.4,2.7-.6l-.2-3.6c-1.9,.9-4.2,1.6-8,2.1q-.2-6.9-.3-8.1c-.1-.9-.1-1.1-.1-1.5,0-.6,.1-.9,.2-1.7l-3.8,.1c.2,1.5,.3,2.9,.6,11.6-2.5,.2-4.3,.3-6.3,.3-3.7,0-6.6-.2-8.5-.6l-.1,3.4m-9-14.2c-.1,.9-.1,1.4-.4,3.4-1.6,9.2-2,13.3-2,19.2,0,5.2,.6,10.1,1.8,14.8,.2,.9,.3,1.1,.4,1.8l3.4-.3c0-1.7,.4-3.4,1.4-6.4,1-2.7,2.2-5.8,3.7-8.8l-2.5-1.2c-2.9,6.1-3.2,7.1-4.2,10.6,0-.6-.1-1.6-.3-2.7-.2-1.7-.4-5.4-.4-8.1,0-6.8,1.4-17.1,3-21.8l-3.9-.5"/><path class="cls-6" d="M1635.8,947.19c1.1-.1,1.6-.2,2.7-.2,7.6-.2,13.6-.6,15.2-.9q.3-.1,.5-.1l.1,.1-.2,.2c-.1,.1-.2,.2-.2,.2q-.4,.4-.7,.7c-3.5,3.4-11.3,10.4-16.7,14.6-3.4,2.8-5.2,4.1-7,5.1l2.2,3.2c5.8-5.4,13.7-8.6,21.1-8.6,6.8,0,10.8,2.8,10.8,7.6,0,4.2-2.8,7.3-8,8.8-.7-2.2-1.2-3.4-2.3-4.8-2-2.6-4.9-4.1-8.2-4.1-4.1,0-7.2,2.5-7.2,5.8,0,4.6,4.1,7.2,11.1,7.2,11.1,0,18.3-5.2,18.3-13,0-6.4-5.3-10.5-13.7-10.5-4.4,0-8.4,1.1-12.2,3.1l-.1-.1c3.5-2.2,9.6-7.5,16.5-14.2,1.6-1.5,1.8-1.8,2.5-2.1l-2.1-2.8c-.7,.3-1.1,.4-2.4,.6-4.5,.3-11.2,.6-15.3,.6-2.4,0-3.3-.1-4.7-.3v3.9m16.3,31.7c-1.8,.3-2.4,.3-3.6,.3-2.2,0-4.3-.4-5.6-1.1-1.3-.8-2-1.8-2-3.1,0-1.9,1.6-3.1,4.1-3.1,3.5,0,6,2.4,7.1,7"/><path class="cls-6" d="M2056.7,832.39c0,.6-.1,.8-.1,1.6-1.2,8.9-1.7,13.6-1.7,18.4v1.2l.1,5.2,.1,.9v.6l3.6-.1v-1.2c0-3.7,.9-7.5,2.7-11.2,2.8-5.8,6.1-8.7,9.8-8.7,4.8,0,7.6,4.6,7.6,12.7s-2.8,13.2-8.6,16.6c-2.9,1.6-5.5,2.4-10.1,3.1,1.1,1.4,1.4,1.9,2,3.4,3.5-.8,6.5-1.8,8.9-3,7.5-3.8,11.6-10.6,11.6-19.6,0-5.4-.9-9.1-3-12.1-1.9-2.9-4.8-4.5-8-4.5-3.9,0-7.2,2.2-10,6.5-1.4,2.2-2.4,4.7-3.1,7.4q-.2,1.1-.3,1.4l-.2-.1c.1-2.6,.8-8,1.6-13.1,.4-2.7,.8-4.1,1.1-5.1l-4-.3"/><path class="cls-6" d="M2055.1,897.79c2.5-.6,6.9-.9,17.2-1.6,5.6-.4,8.1-.6,11-1.1-1.9,.9-3.2,1.6-4.8,2.7-5.9,4-9.3,9.5-9.3,15.3,0,4.1,2,7.8,5.6,10.2,2.8,2,5.8,3,10.8,3.9,.8,.1,1,.2,1.6,.3l.7-4.1h-.5c-1.9,0-5.1-.7-7.5-1.6-4.5-1.7-7-5-7-9.2s2.1-8.2,6.1-11.5c2.8-2.4,6.2-4.2,9.6-5.1,1.9-.4,3.6-.7,5.6-.7l-.3-3.8c-.8,.2-3.1,.5-5.9,.6-6.4,.3-22.4,1.2-28.4,1.7-1.6,.1-2.2,.1-2.9,.1h-1.8l.2,3.9"/><path class="cls-6" d="M2055.1,954.29c.8-.1,1-.1,1.9-.1,6.6-.1,12.8-.6,17.8-1.3,.3,.5,.3,.6,.8,1.6,2.2,4.2,3.4,6.2,6,9.8-2.1-1.1-6.1-1.8-10.3-1.8s-7.1,.6-9.7,1.9c-3.5,1.7-5.6,4.8-5.6,8.1,0,2,.8,3.9,2.2,5.5,2.3,2.4,6.9,3.8,13,3.8,4.9,0,9.7-.8,14.7-2.7l-.6-3.9c-3.8,2-9.2,3.2-14.2,3.2-4.3,0-7.9-.9-9.8-2.3-1.2-1-1.9-2.4-1.9-3.9,0-1.8,1.1-3.6,2.7-4.6,2.2-1.4,5.3-2.1,9.5-2.1,3.4,0,6.2,.5,8.8,1.3,1.4,.5,2.1,.9,3.4,2.1l3.4-1.9c-3.5-4.7-7.2-10.7-9-14.6q.5-.1,1.7-.4c3.1-.6,3.8-.8,6.8-1.6,1.5-.4,1.9-.5,2.9-.7l-.5-3.6c-2.7,1.2-7.2,2.4-12.1,3.2-.5-.9-.6-1.2-1.8-4.4s-1.2-3.2-1.4-4.5l-4,.6c.5,.9,.8,1.6,1.3,2.9,.9,2.2,1.7,4.2,2.4,5.9-4.7,.6-10.3,1.1-14.9,1.1-1.7,0-2.6-.1-3.9-.2l.4,3.6"/><path class="cls-6" d="M2232.1,843.89c2.4-.6,6.9-.9,17.2-1.7,5.6-.3,8.1-.6,11-1.1-1.9,.9-3.2,1.6-4.8,2.6-5.9,4-9.3,9.6-9.3,15.4,0,4.1,2,7.8,5.5,10.2,2.9,1.9,5.9,3,10.8,3.9,.8,.1,1,.2,1.6,.3l.6-4h-.5c-1.9,0-5-.7-7.5-1.6-4.4-1.7-7-5.1-7-9.2s2.2-8.2,6.2-11.6c2.8-2.3,6.2-4.1,9.6-5.1,1.9-.4,3.6-.6,5.6-.6l-.3-3.8c-.8,.2-3.1,.4-5.9,.6-6.4,.3-22.4,1.2-28.4,1.6-1.6,.1-2.2,.2-2.9,.2h-1.8l.3,3.9"/><path class="cls-6" d="M2233.4,910.09c.6,.1,.8,.1,1.6,.3,2.2,.6,4.6,.9,7.6,1.2q-.1,.4-.1,1.2c-.1,1.2-.2,2.2-.2,3.3,0,2.8,.6,5.2,1.6,6.9,1.9,3.2,5.9,5,11.2,5,8.8,0,14.6-4.8,14.6-11.8,0-3.6-1.1-6.1-4.7-9.9-1.4,.7-2,.8-3.6,1,3.2,2.8,4.8,5.6,4.8,8.7,0,5.3-4.4,8.8-11.1,8.8-3.1,0-5.4-.8-7.1-2.1-1.6-1.4-2.3-3.2-2.3-6,0-.9,.1-2.5,.2-3.7q.1-.7,.1-1c2.2,.1,3.1,.1,4.3,.1,2.4,0,4.5-.1,7.1-.4,.7-.1,.8-.1,1.3-.1l.1-3.3c-1.9,.5-5.6,.8-9.2,.8-.7,0-1.4,0-3.3-.1,.3-2.8,.4-3.3,1.1-9.1,2.8,.1,3.6,.1,4.4,.1,1.4,0,2.9-.1,4.5-.2q2.5-.2,3.5-.3l.1-3.5c-2.2,.6-5.4,.9-9.1,.9-.8,0-1.5,0-2.9-.1,.2-1.4,.4-1.9,.5-3q.5-2.8,.5-3.2c.4-1.8,.5-2.4,.8-3.4l-4-.4v.4c0,1.3-.4,4.6-1.2,9.4-3.5-.3-6.9-1.1-9-1.9l-.4,3.3c.7,.1,.9,.2,1.6,.3,2.9,.7,5.1,1.1,7.4,1.4-.4,2.6-.9,6.6-1.2,9-3.8-.4-6.9-1.1-8.9-2l-.6,3.4"/><path class="cls-6" d="M2242,941.49c.3,.8,.4,1.1,.8,3.2,1.3,6.4,2.2,9.9,3.7,14-3.1,1.5-4.7,2.5-6.6,4-2.9,2.4-4.4,5.3-4.4,8.5,0,4,2.1,6.7,6.2,8.2,2.4,.9,6.1,1.3,11.1,1.3,3.5,0,5.9-.1,11-.6q2.8-.3,3.7-.3l-.4-4.1c-2.9,1-8.6,1.7-14.3,1.7-9.8,0-13.6-1.8-13.6-6.3,0-4.1,3.7-7.4,12.2-10.9,4.4-1.8,11.6-4.1,15.1-4.8l-1.5-3.8c-1,.5-1.4,.6-3.2,1.3-7.8,2.7-9.2,3.2-12.1,4.4-1.7-5-3.6-13.2-3.8-16.6l-3.9,.8"/><path class="cls-6" d="M640.1,253.79l-9.2,.6v2.1h2.5c1.8,.1,2.1,.4,2.1,2.5v27.9c0,.8-.1,1-.3,1.3-.4,.5-1.3,.7-3.5,.7h-.3v1.8h12.8v-1.8h-.3c-3.3-.1-3.8-.4-3.8-2.2v-32.9m28.1,20.8c0-3.2-.5-4.8-2-5.9-1.6-1.4-4.1-2-7.3-2-5.6,0-9.8,2.6-9.8,6.3,0,1.9,1.2,3.1,2.9,3.1,1.6,0,2.7-1.1,2.7-2.6,0-.6-.2-1.3-.8-2-.3-.4-.4-.5-.4-.7,0-1,2-1.9,4.4-1.9,1.6,0,3.3,.5,4.1,1.2,1,.8,1.3,2,1.3,4.2v1.9c-5.2,.9-6.9,1.3-9.3,2.2-4.3,1.6-6.4,3.9-6.4,7.1,0,3.6,2.8,5.8,7.2,5.8,3.5,0,6.5-1.4,8.7-3.9,.8,2.6,2,3.6,4.4,3.6,2.2,0,4.6-1.4,4.6-2.9,0-.4-.2-.6-.5-.6-.2,0-.4,.1-.8,.2-.7,.3-1,.4-1.4,.4-1.4,0-1.9-.9-1.9-3.4v-10.1m-4.4,6.1c0,3-.2,3.7-1,5-1.2,1.9-3.5,3.1-5.7,3.1s-4-1.6-4-3.9c0-2.1,1-3.6,3.2-4.7,1.5-.7,3.5-1.2,7.4-1.8v2.3"/><path class="cls-6" d="M640.1,307.69l-9.2,.6v2.1h2.5c1.8,.1,2.1,.4,2.1,2.5v27.9c0,.8-.1,1.1-.3,1.3-.4,.4-1.3,.6-3.5,.7h-.3v1.8h12.8v-1.8h-.3c-3.3-.1-3.8-.4-3.8-2.1v-33m28.1,20.8c0-3.1-.5-4.8-2-5.9-1.6-1.4-4.1-2-7.3-2-5.6,0-9.8,2.6-9.8,6.3,0,1.8,1.2,3.1,2.9,3.1,1.6,0,2.7-1.1,2.7-2.6,0-.7-.2-1.4-.8-2.1-.3-.4-.4-.4-.4-.7,0-1,2-1.9,4.4-1.9,1.6,0,3.3,.5,4.1,1.2,1,.8,1.3,2,1.3,4.2v2c-5.2,.9-6.9,1.3-9.3,2.2-4.3,1.6-6.4,3.9-6.4,7.1,0,3.6,2.8,5.9,7.2,5.9,3.5,0,6.5-1.4,8.7-3.9,.8,2.5,2,3.5,4.4,3.5,2.2,0,4.6-1.4,4.6-2.9,0-.4-.2-.6-.5-.6-.2,0-.4,.1-.8,.2-.7,.3-1,.3-1.4,.3-1.4,0-1.9-.9-1.9-3.4v-10m-4.4,6.1c0,3-.2,3.7-1,5-1.2,1.8-3.5,3.1-5.7,3.1s-4-1.6-4-3.9c0-2.1,1-3.6,3.2-4.6,1.5-.7,3.5-1.2,7.4-1.9v2.3"/><path class="cls-6" d="M640.1,361.69l-9.2,.5v2.2h2.5c1.8,.1,2.1,.3,2.1,2.5v27.8c0,.8-.1,1.1-.3,1.3-.4,.4-1.3,.7-3.5,.7h-.3v1.8h12.8v-1.8h-.3c-3.3-.1-3.8-.3-3.8-2.1v-32.9m28.1,20.7c0-3.2-.5-4.8-2-6-1.6-1.3-4.1-2-7.3-2-5.6,0-9.8,2.7-9.8,6.3,0,1.9,1.2,3.1,2.9,3.1,1.6,0,2.7-1.1,2.7-2.6,0-.6-.2-1.3-.8-2.1-.3-.3-.4-.4-.4-.7,0-1,2-1.9,4.4-1.9,1.6,0,3.3,.5,4.1,1.2,1,.8,1.3,2,1.3,4.2v1.9c-5.2,.9-6.9,1.3-9.3,2.2-4.3,1.6-6.4,3.9-6.4,7.1,0,3.6,2.8,5.8,7.2,5.8,3.5,0,6.5-1.4,8.7-3.9,.8,2.6,2,3.6,4.4,3.6,2.2,0,4.6-1.4,4.6-2.9,0-.3-.2-.6-.5-.6-.2,0-.4,.1-.8,.2-.7,.3-1,.4-1.4,.4-1.4,0-1.9-.9-1.9-3.5v-9.8m-4.4,6.1c0,3-.2,3.7-1,5-1.2,1.9-3.5,3.1-5.7,3.1s-4-1.7-4-3.9,1-3.6,3.2-4.6c1.5-.7,3.5-1.2,7.4-1.9v2.3"/><path class="cls-6" d="M724,253.79l-9.2,.6v2.1h2.5c1.8,.1,2.1,.4,2.1,2.5v27.9c0,.8-.1,1-.3,1.3-.3,.5-1.3,.7-3.5,.7h-.4v1.8h13v-1.8h-.4c-3.3-.1-3.8-.4-3.8-2.2v-32.9m28.1,20.8c0-3.2-.6-4.8-2-5.9-1.7-1.4-4.1-2-7.3-2-5.6,0-9.8,2.6-9.8,6.3,0,1.9,1.2,3.1,2.9,3.1,1.6,0,2.7-1.1,2.7-2.6,0-.6-.2-1.3-.8-2-.3-.4-.4-.5-.4-.7,0-1,2-1.9,4.4-1.9,1.6,0,3.3,.5,4.2,1.2,.9,.8,1.3,2,1.3,4.2v1.9c-5.2,.9-6.9,1.3-9.3,2.2-4.4,1.6-6.4,3.9-6.4,7.1,0,3.6,2.8,5.8,7.2,5.8,3.5,0,6.5-1.4,8.7-3.9,.8,2.6,2,3.6,4.4,3.6,2.2,0,4.6-1.4,4.6-2.9,0-.4-.2-.6-.5-.6-.2,0-.4,.1-.8,.2-.7,.3-1,.4-1.4,.4-1.4,0-1.9-.9-1.9-3.4v-10.1m-4.5,6.1c0,3-.2,3.7-1,5-1.2,1.9-3.5,3.1-5.7,3.1s-4-1.6-4-3.9c0-2.1,1-3.6,3.2-4.7,1.5-.7,3.5-1.2,7.4-1.8v2.3"/><path class="cls-6" d="M724,307.69l-9.2,.6v2.1h2.5c1.8,.1,2.1,.4,2.1,2.5v27.9c0,.8-.1,1.1-.3,1.3-.3,.4-1.3,.6-3.5,.7h-.4v1.8h13v-1.8h-.4c-3.3-.1-3.8-.4-3.8-2.1v-33m28.1,20.8c0-3.1-.6-4.8-2-5.9-1.7-1.4-4.1-2-7.3-2-5.6,0-9.8,2.6-9.8,6.3,0,1.8,1.2,3.1,2.9,3.1,1.6,0,2.7-1.1,2.7-2.6,0-.7-.2-1.4-.8-2.1-.3-.4-.4-.4-.4-.7,0-1,2-1.9,4.4-1.9,1.6,0,3.3,.5,4.2,1.2,.9,.8,1.3,2,1.3,4.2v2c-5.2,.9-6.9,1.3-9.3,2.2-4.4,1.6-6.4,3.9-6.4,7.1,0,3.6,2.8,5.9,7.2,5.9,3.5,0,6.5-1.4,8.7-3.9,.8,2.5,2,3.5,4.4,3.5,2.2,0,4.6-1.4,4.6-2.9,0-.4-.2-.6-.5-.6-.2,0-.4,.1-.8,.2-.7,.3-1,.3-1.4,.3-1.4,0-1.9-.9-1.9-3.4v-10m-4.5,6.1c0,3-.2,3.7-1,5-1.2,1.8-3.5,3.1-5.7,3.1s-4-1.6-4-3.9c0-2.1,1-3.6,3.2-4.6,1.5-.7,3.5-1.2,7.4-1.9v2.3"/><path class="cls-6" d="M724,361.69l-9.2,.5v2.2h2.5c1.8,.1,2.1,.3,2.1,2.5v27.8c0,.8-.1,1.1-.3,1.3-.3,.4-1.3,.7-3.5,.7h-.4v1.8h13v-1.8h-.4c-3.3-.1-3.8-.3-3.8-2.1v-32.9m28.1,20.7c0-3.2-.6-4.8-2-6-1.7-1.3-4.1-2-7.3-2-5.6,0-9.8,2.7-9.8,6.3,0,1.9,1.2,3.1,2.9,3.1,1.6,0,2.7-1.1,2.7-2.6,0-.6-.2-1.3-.8-2.1-.3-.3-.4-.4-.4-.7,0-1,2-1.9,4.4-1.9,1.6,0,3.3,.5,4.2,1.2,.9,.8,1.3,2,1.3,4.2v1.9c-5.2,.9-6.9,1.3-9.3,2.2-4.4,1.6-6.4,3.9-6.4,7.1,0,3.6,2.8,5.8,7.2,5.8,3.5,0,6.5-1.4,8.7-3.9,.8,2.6,2,3.6,4.4,3.6,2.2,0,4.6-1.4,4.6-2.9,0-.3-.2-.6-.5-.6-.2,0-.4,.1-.8,.2-.7,.3-1,.4-1.4,.4-1.4,0-1.9-.9-1.9-3.5v-9.8m-4.5,6.1c0,3-.2,3.7-1,5-1.2,1.9-3.5,3.1-5.7,3.1s-4-1.7-4-3.9,1-3.6,3.2-4.6c1.5-.7,3.5-1.2,7.4-1.9v2.3"/><path class="cls-6" d="M852.5,253.79l-9.2,.6v2.1h2.4c1.9,.1,2.1,.4,2.1,2.5v27.9c0,.8-.1,1-.3,1.3-.4,.5-1.3,.7-3.5,.7h-.4v1.8h13v-1.8h-.3c-3.4-.1-3.8-.4-3.8-2.2v-32.9m28.2,20.8c0-3.2-.6-4.8-2-5.9-1.7-1.4-4.1-2-7.3-2-5.6,0-9.8,2.6-9.8,6.3,0,1.9,1.2,3.1,2.9,3.1,1.6,0,2.7-1.1,2.7-2.6,0-.6-.2-1.3-.8-2-.3-.4-.4-.5-.4-.7,0-1,2-1.9,4.4-1.9,1.6,0,3.3,.5,4.2,1.2,.9,.8,1.3,2,1.3,4.2v1.9c-5.2,.9-6.9,1.3-9.3,2.2-4.3,1.6-6.4,3.9-6.4,7.1,0,3.6,2.8,5.8,7.2,5.8,3.5,0,6.6-1.4,8.7-3.9,.8,2.6,2,3.6,4.4,3.6,2.2,0,4.6-1.4,4.6-2.9,0-.4-.2-.6-.5-.6-.2,0-.4,.1-.8,.2-.7,.3-1,.4-1.4,.4-1.4,0-1.9-.9-1.9-3.4v-10.1m-4.5,6.1c0,3-.2,3.7-1,5-1.2,1.9-3.5,3.1-5.7,3.1s-3.9-1.6-3.9-3.9c0-2.1,1-3.6,3.2-4.7,1.5-.7,3.5-1.2,7.4-1.8v2.3"/><path class="cls-6" d="M852.5,307.69l-9.2,.6v2.1h2.4c1.9,.1,2.1,.4,2.1,2.5v27.9c0,.8-.1,1.1-.3,1.3-.4,.4-1.3,.6-3.5,.7h-.4v1.8h13v-1.8h-.3c-3.4-.1-3.8-.4-3.8-2.1v-33m28.2,20.8c0-3.1-.6-4.8-2-5.9-1.7-1.4-4.1-2-7.3-2-5.6,0-9.8,2.6-9.8,6.3,0,1.8,1.2,3.1,2.9,3.1,1.6,0,2.7-1.1,2.7-2.6,0-.7-.2-1.4-.8-2.1-.3-.4-.4-.4-.4-.7,0-1,2-1.9,4.4-1.9,1.6,0,3.3,.5,4.2,1.2,.9,.8,1.3,2,1.3,4.2v2c-5.2,.9-6.9,1.3-9.3,2.2-4.3,1.6-6.4,3.9-6.4,7.1,0,3.6,2.8,5.9,7.2,5.9,3.5,0,6.6-1.4,8.7-3.9,.8,2.5,2,3.5,4.4,3.5,2.2,0,4.6-1.4,4.6-2.9,0-.4-.2-.6-.5-.6-.2,0-.4,.1-.8,.2-.7,.3-1,.3-1.4,.3-1.4,0-1.9-.9-1.9-3.4v-10m-4.5,6.1c0,3-.2,3.7-1,5-1.2,1.8-3.5,3.1-5.7,3.1s-3.9-1.6-3.9-3.9c0-2.1,1-3.6,3.2-4.6,1.5-.7,3.5-1.2,7.4-1.9v2.3"/><path class="cls-6" d="M852.5,361.69l-9.2,.5v2.2h2.4c1.9,.1,2.1,.3,2.1,2.5v27.8c0,.8-.1,1.1-.3,1.3-.4,.4-1.3,.7-3.5,.7h-.4v1.8h13v-1.8h-.3c-3.4-.1-3.8-.3-3.8-2.1v-32.9m28.2,20.7c0-3.2-.6-4.8-2-6-1.7-1.3-4.1-2-7.3-2-5.6,0-9.8,2.7-9.8,6.3,0,1.9,1.2,3.1,2.9,3.1,1.6,0,2.7-1.1,2.7-2.6,0-.6-.2-1.3-.8-2.1-.3-.3-.4-.4-.4-.7,0-1,2-1.9,4.4-1.9,1.6,0,3.3,.5,4.2,1.2,.9,.8,1.3,2,1.3,4.2v1.9c-5.2,.9-6.9,1.3-9.3,2.2-4.3,1.6-6.4,3.9-6.4,7.1,0,3.6,2.8,5.8,7.2,5.8,3.5,0,6.6-1.4,8.7-3.9,.8,2.6,2,3.6,4.4,3.6,2.2,0,4.6-1.4,4.6-2.9,0-.3-.2-.6-.5-.6-.2,0-.4,.1-.8,.2-.7,.3-1,.4-1.4,.4-1.4,0-1.9-.9-1.9-3.5v-9.8m-4.5,6.1c0,3-.2,3.7-1,5-1.2,1.9-3.5,3.1-5.7,3.1s-3.9-1.7-3.9-3.9,1-3.6,3.2-4.6c1.5-.7,3.5-1.2,7.4-1.9v2.3"/><path class="cls-6" d="M1190.3,253.79l-9.2,.6v2.1h2.4c1.9,.1,2.1,.4,2.1,2.5v27.9c-.1,.8-.1,1-.3,1.3-.3,.5-1.3,.7-3.4,.7h-.4v1.8h13v-1.8h-.3c-3.4-.1-3.8-.4-3.8-2.2v-32.9m28.1,20.8c0-3.2-.6-4.8-2-5.9-1.7-1.4-4.1-2-7.3-2-5.7,0-9.8,2.6-9.8,6.3,0,1.9,1.2,3.1,2.9,3.1,1.6,0,2.7-1.1,2.7-2.6,0-.6-.2-1.3-.8-2-.3-.4-.3-.5-.3-.7,0-1,2-1.9,4.4-1.9,1.6,0,3.3,.5,4.2,1.2,.9,.8,1.3,2,1.3,4.2v1.9c-5.2,.9-6.8,1.3-9.3,2.2-4.3,1.6-6.4,3.9-6.4,7.1,0,3.6,2.8,5.8,7.2,5.8,3.4,0,6.6-1.4,8.7-3.9,.8,2.6,2.1,3.6,4.4,3.6s4.6-1.4,4.6-2.9c0-.4-.2-.6-.5-.6-.2,0-.4,.1-.8,.2-.7,.3-1,.4-1.4,.4-1.4,0-1.9-.9-1.9-3.4v-10.1m-4.6,6.1c0,3-.1,3.7-1,5-1.2,1.9-3.5,3.1-5.7,3.1s-3.9-1.6-3.9-3.9c0-2.1,1-3.6,3.2-4.7,1.5-.7,3.5-1.2,7.4-1.8v2.3"/><path class="cls-6" d="M1190.3,307.69l-9.2,.6v2.1h2.4c1.9,.1,2.1,.4,2.1,2.5v27.9c-.1,.8-.1,1.1-.3,1.3-.3,.4-1.3,.6-3.4,.7h-.4v1.8h13v-1.8h-.3c-3.4-.1-3.8-.4-3.8-2.1v-33m28.1,20.8c0-3.1-.6-4.8-2-5.9-1.7-1.4-4.1-2-7.3-2-5.7,0-9.8,2.6-9.8,6.3,0,1.8,1.2,3.1,2.9,3.1,1.6,0,2.7-1.1,2.7-2.6,0-.7-.2-1.4-.8-2.1q-.3-.4-.3-.7c0-1,2-1.9,4.4-1.9,1.6,0,3.3,.5,4.2,1.2,.9,.8,1.3,2,1.3,4.2v2c-5.2,.9-6.8,1.3-9.3,2.2-4.3,1.6-6.4,3.9-6.4,7.1,0,3.6,2.8,5.9,7.2,5.9,3.4,0,6.6-1.4,8.7-3.9,.8,2.5,2.1,3.5,4.4,3.5s4.6-1.4,4.6-2.9c0-.4-.2-.6-.5-.6-.2,0-.4,.1-.8,.2-.7,.3-1,.3-1.4,.3-1.4,0-1.9-.9-1.9-3.4v-10m-4.6,6.1c0,3-.1,3.7-1,5-1.2,1.8-3.5,3.1-5.7,3.1s-3.9-1.6-3.9-3.9c0-2.1,1-3.6,3.2-4.6,1.5-.7,3.5-1.2,7.4-1.9v2.3"/><path class="cls-6" d="M1190.3,361.69l-9.2,.5v2.2h2.4c1.9,.1,2.1,.3,2.1,2.5v27.8c-.1,.8-.1,1.1-.3,1.3-.3,.4-1.3,.7-3.4,.7h-.4v1.8h13v-1.8h-.3c-3.4-.1-3.8-.3-3.8-2.1v-32.9m28.1,20.7c0-3.2-.6-4.8-2-6-1.7-1.3-4.1-2-7.3-2-5.7,0-9.8,2.7-9.8,6.3,0,1.9,1.2,3.1,2.9,3.1,1.6,0,2.7-1.1,2.7-2.6,0-.6-.2-1.3-.8-2.1-.3-.3-.3-.4-.3-.7,0-1,2-1.9,4.4-1.9,1.6,0,3.3,.5,4.2,1.2,.9,.8,1.3,2,1.3,4.2v1.9c-5.2,.9-6.8,1.3-9.3,2.2-4.3,1.6-6.4,3.9-6.4,7.1,0,3.6,2.8,5.8,7.2,5.8,3.4,0,6.6-1.4,8.7-3.9,.8,2.6,2.1,3.6,4.4,3.6s4.6-1.4,4.6-2.9c0-.3-.2-.6-.5-.6-.2,0-.4,.1-.8,.2-.7,.3-1,.4-1.4,.4-1.4,0-1.9-.9-1.9-3.5v-9.8m-4.6,6.1c0,3-.1,3.7-1,5-1.2,1.9-3.5,3.1-5.7,3.1s-3.9-1.7-3.9-3.9,1-3.6,3.2-4.6c1.5-.7,3.5-1.2,7.4-1.9v2.3"/><path class="cls-6" d="M1284.1,253.79l-9.2,.6v2.1h2.5c1.8,.1,2.1,.4,2.1,2.5v27.9c-.1,.8-.1,1-.3,1.3-.3,.5-1.3,.7-3.4,.7h-.3v1.8h12.9v-1.8h-.3c-3.3-.1-3.8-.4-3.8-2.2v-32.9m28,20.8c0-3.2-.5-4.8-2-5.9-1.7-1.4-4.1-2-7.3-2-5.7,0-9.8,2.6-9.8,6.3,0,1.9,1.1,3.1,2.9,3.1,1.6,0,2.7-1.1,2.7-2.6,0-.6-.2-1.3-.8-2-.3-.4-.3-.5-.3-.7,0-1,2-1.9,4.4-1.9,1.6,0,3.4,.5,4.2,1.2,1,.8,1.3,2,1.3,4.2v1.9c-5.2,.9-6.8,1.3-9.3,2.2-4.3,1.6-6.4,3.9-6.4,7.1,0,3.6,2.8,5.8,7.2,5.8,3.5,0,6.6-1.4,8.7-3.9,.8,2.6,2,3.6,4.4,3.6,2.2,0,4.6-1.4,4.6-2.9,0-.4-.2-.6-.5-.6-.2,0-.4,.1-.8,.2-.7,.3-1,.4-1.4,.4-1.4,0-1.9-.9-1.9-3.4v-10.1m-4.6,6.1c0,3-.2,3.7-1,5-1.2,1.9-3.5,3.1-5.7,3.1s-3.9-1.6-3.9-3.9c0-2.1,1.1-3.6,3.2-4.7,1.6-.7,3.5-1.2,7.4-1.8v2.3"/><path class="cls-6" d="M1284.1,307.69l-9.2,.6v2.1h2.5c1.8,.1,2.1,.4,2.1,2.5v27.9c-.1,.8-.1,1.1-.3,1.3-.3,.4-1.3,.6-3.4,.7h-.3v1.8h12.9v-1.8h-.3c-3.3-.1-3.8-.4-3.8-2.1v-33m28,20.8c0-3.1-.5-4.8-2-5.9-1.7-1.4-4.1-2-7.3-2-5.7,0-9.8,2.6-9.8,6.3,0,1.8,1.1,3.1,2.9,3.1,1.6,0,2.7-1.1,2.7-2.6,0-.7-.2-1.4-.8-2.1q-.3-.4-.3-.7c0-1,2-1.9,4.4-1.9,1.6,0,3.4,.5,4.2,1.2,1,.8,1.3,2,1.3,4.2v2c-5.2,.9-6.8,1.3-9.3,2.2-4.3,1.6-6.4,3.9-6.4,7.1,0,3.6,2.8,5.9,7.2,5.9,3.5,0,6.6-1.4,8.7-3.9,.8,2.5,2,3.5,4.4,3.5,2.2,0,4.6-1.4,4.6-2.9,0-.4-.2-.6-.5-.6-.2,0-.4,.1-.8,.2-.7,.3-1,.3-1.4,.3-1.4,0-1.9-.9-1.9-3.4v-10m-4.6,6.1c0,3-.2,3.7-1,5-1.2,1.8-3.5,3.1-5.7,3.1s-3.9-1.6-3.9-3.9c0-2.1,1.1-3.6,3.2-4.6,1.6-.7,3.5-1.2,7.4-1.9v2.3"/><path class="cls-6" d="M1284.1,361.69l-9.2,.5v2.2h2.5c1.8,.1,2.1,.3,2.1,2.5v27.8c-.1,.8-.1,1.1-.3,1.3-.3,.4-1.3,.7-3.4,.7h-.3v1.8h12.9v-1.8h-.3c-3.3-.1-3.8-.3-3.8-2.1v-32.9m28,20.7c0-3.2-.5-4.8-2-6-1.7-1.3-4.1-2-7.3-2-5.7,0-9.8,2.7-9.8,6.3,0,1.9,1.1,3.1,2.9,3.1,1.6,0,2.7-1.1,2.7-2.6,0-.6-.2-1.3-.8-2.1-.3-.3-.3-.4-.3-.7,0-1,2-1.9,4.4-1.9,1.6,0,3.4,.5,4.2,1.2,1,.8,1.3,2,1.3,4.2v1.9c-5.2,.9-6.8,1.3-9.3,2.2-4.3,1.6-6.4,3.9-6.4,7.1,0,3.6,2.8,5.8,7.2,5.8,3.5,0,6.6-1.4,8.7-3.9,.8,2.6,2,3.6,4.4,3.6,2.2,0,4.6-1.4,4.6-2.9,0-.3-.2-.6-.5-.6-.2,0-.4,.1-.8,.2-.7,.3-1,.4-1.4,.4-1.4,0-1.9-.9-1.9-3.5v-9.8m-4.6,6.1c0,3-.2,3.7-1,5-1.2,1.9-3.5,3.1-5.7,3.1s-3.9-1.7-3.9-3.9,1.1-3.6,3.2-4.6c1.6-.7,3.5-1.2,7.4-1.9v2.3"/><path class="cls-6" d="M1422.6,253.79l-9.2,.6v2.1h2.5c1.8,.1,2.1,.4,2.1,2.5v27.9c-.1,.8-.1,1-.3,1.3-.3,.5-1.3,.7-3.4,.7h-.3v1.8h12.9v-1.8h-.3c-3.3-.1-3.8-.4-3.8-2.2v-32.9m28,20.8c0-3.2-.5-4.8-2-5.9-1.7-1.4-4.1-2-7.3-2-5.7,0-9.8,2.6-9.8,6.3,0,1.9,1.1,3.1,2.9,3.1,1.6,0,2.7-1.1,2.7-2.6,0-.6-.2-1.3-.8-2-.3-.4-.3-.5-.3-.7,0-1,2-1.9,4.4-1.9,1.6,0,3.4,.5,4.2,1.2,1,.8,1.3,2,1.3,4.2v1.9c-5.2,.9-6.8,1.3-9.3,2.2-4.3,1.6-6.4,3.9-6.4,7.1,0,3.6,2.8,5.8,7.2,5.8,3.5,0,6.6-1.4,8.7-3.9,.8,2.6,2,3.6,4.4,3.6,2.2,0,4.6-1.4,4.6-2.9,0-.4-.2-.6-.5-.6-.2,0-.4,.1-.8,.2-.7,.3-1,.4-1.4,.4-1.4,0-1.9-.9-1.9-3.4v-10.1m-4.6,6.1c0,3-.2,3.7-1,5-1.2,1.9-3.5,3.1-5.7,3.1s-3.9-1.6-3.9-3.9c0-2.1,1.1-3.6,3.2-4.7,1.6-.7,3.5-1.2,7.4-1.8v2.3"/><path class="cls-6" d="M1422.6,307.69l-9.2,.6v2.1h2.5c1.8,.1,2.1,.4,2.1,2.5v27.9c-.1,.8-.1,1.1-.3,1.3-.3,.4-1.3,.6-3.4,.7h-.3v1.8h12.9v-1.8h-.3c-3.3-.1-3.8-.4-3.8-2.1v-33m28,20.8c0-3.1-.5-4.8-2-5.9-1.7-1.4-4.1-2-7.3-2-5.7,0-9.8,2.6-9.8,6.3,0,1.8,1.1,3.1,2.9,3.1,1.6,0,2.7-1.1,2.7-2.6,0-.7-.2-1.4-.8-2.1q-.3-.4-.3-.7c0-1,2-1.9,4.4-1.9,1.6,0,3.4,.5,4.2,1.2,1,.8,1.3,2,1.3,4.2v2c-5.2,.9-6.8,1.3-9.3,2.2-4.3,1.6-6.4,3.9-6.4,7.1,0,3.6,2.8,5.9,7.2,5.9,3.5,0,6.6-1.4,8.7-3.9,.8,2.5,2,3.5,4.4,3.5,2.2,0,4.6-1.4,4.6-2.9,0-.4-.2-.6-.5-.6-.2,0-.4,.1-.8,.2-.7,.3-1,.3-1.4,.3-1.4,0-1.9-.9-1.9-3.4v-10m-4.6,6.1c0,3-.2,3.7-1,5-1.2,1.8-3.5,3.1-5.7,3.1s-3.9-1.6-3.9-3.9c0-2.1,1.1-3.6,3.2-4.6,1.6-.7,3.5-1.2,7.4-1.9v2.3"/><path class="cls-6" d="M1422.6,361.69l-9.2,.5v2.2h2.5c1.8,.1,2.1,.3,2.1,2.5v27.8c-.1,.8-.1,1.1-.3,1.3-.3,.4-1.3,.7-3.4,.7h-.3v1.8h12.9v-1.8h-.3c-3.3-.1-3.8-.3-3.8-2.1v-32.9m28,20.7c0-3.2-.5-4.8-2-6-1.7-1.3-4.1-2-7.3-2-5.7,0-9.8,2.7-9.8,6.3,0,1.9,1.1,3.1,2.9,3.1,1.6,0,2.7-1.1,2.7-2.6,0-.6-.2-1.3-.8-2.1-.3-.3-.3-.4-.3-.7,0-1,2-1.9,4.4-1.9,1.6,0,3.4,.5,4.2,1.2,1,.8,1.3,2,1.3,4.2v1.9c-5.2,.9-6.8,1.3-9.3,2.2-4.3,1.6-6.4,3.9-6.4,7.1,0,3.6,2.8,5.8,7.2,5.8,3.5,0,6.6-1.4,8.7-3.9,.8,2.6,2,3.6,4.4,3.6,2.2,0,4.6-1.4,4.6-2.9,0-.3-.2-.6-.5-.6-.2,0-.4,.1-.8,.2-.7,.3-1,.4-1.4,.4-1.4,0-1.9-.9-1.9-3.5v-9.8m-4.6,6.1c0,3-.2,3.7-1,5-1.2,1.9-3.5,3.1-5.7,3.1s-3.9-1.7-3.9-3.9,1.1-3.6,3.2-4.6c1.6-.7,3.5-1.2,7.4-1.9v2.3"/><path class="cls-6" d="M1802.7,253.79l-9.2,.6v2.1h2.4c1.8,.1,2.1,.4,2.1,2.5v27.9c0,.8-.1,1-.3,1.3-.3,.5-1.3,.7-3.5,.7h-.3v1.8h13v-1.8h-.4c-3.3-.1-3.8-.4-3.8-2.2v-32.9m28.2,20.8c0-3.2-.6-4.8-2-5.9-1.7-1.4-4.1-2-7.3-2-5.7,0-9.8,2.6-9.8,6.3,0,1.9,1.2,3.1,2.9,3.1,1.6,0,2.7-1.1,2.7-2.6,0-.6-.2-1.3-.8-2-.3-.4-.3-.5-.3-.7,0-1,2-1.9,4.4-1.9,1.6,0,3.3,.5,4.2,1.2,.9,.8,1.3,2,1.3,4.2v1.9c-5.2,.9-6.8,1.3-9.3,2.2-4.4,1.6-6.4,3.9-6.4,7.1,0,3.6,2.8,5.8,7.2,5.8,3.4,0,6.5-1.4,8.7-3.9,.8,2.6,2.1,3.6,4.4,3.6s4.6-1.4,4.6-2.9c0-.4-.2-.6-.5-.6-.2,0-.4,.1-.8,.2-.7,.3-1,.4-1.4,.4-1.4,0-1.9-.9-1.9-3.4v-10.1m-4.6,6.1c0,3-.2,3.7-1,5-1.2,1.9-3.5,3.1-5.7,3.1s-4-1.6-4-3.9c0-2.1,1.1-3.6,3.2-4.7,1.6-.7,3.5-1.2,7.4-1.8v2.3"/><path class="cls-6" d="M1802.7,307.69l-9.2,.6v2.1h2.4c1.8,.1,2.1,.4,2.1,2.5v27.9c0,.8-.1,1.1-.3,1.3-.3,.4-1.3,.6-3.5,.7h-.3v1.8h13v-1.8h-.4c-3.3-.1-3.8-.4-3.8-2.1v-33m28.2,20.8c0-3.1-.6-4.8-2-5.9-1.7-1.4-4.1-2-7.3-2-5.7,0-9.8,2.6-9.8,6.3,0,1.8,1.2,3.1,2.9,3.1,1.6,0,2.7-1.1,2.7-2.6,0-.7-.2-1.4-.8-2.1q-.3-.4-.3-.7c0-1,2-1.9,4.4-1.9,1.6,0,3.3,.5,4.2,1.2,.9,.8,1.3,2,1.3,4.2v2c-5.2,.9-6.8,1.3-9.3,2.2-4.4,1.6-6.4,3.9-6.4,7.1,0,3.6,2.8,5.9,7.2,5.9,3.4,0,6.5-1.4,8.7-3.9,.8,2.5,2.1,3.5,4.4,3.5s4.6-1.4,4.6-2.9c0-.4-.2-.6-.5-.6-.2,0-.4,.1-.8,.2-.7,.3-1,.3-1.4,.3-1.4,0-1.9-.9-1.9-3.4v-10m-4.6,6.1c0,3-.2,3.7-1,5-1.2,1.8-3.5,3.1-5.7,3.1s-4-1.6-4-3.9c0-2.1,1.1-3.6,3.2-4.6,1.6-.7,3.5-1.2,7.4-1.9v2.3"/><path class="cls-6" d="M1802.7,361.69l-9.2,.5v2.2h2.4c1.8,.1,2.1,.3,2.1,2.5v27.8c0,.8-.1,1.1-.3,1.3-.3,.4-1.3,.7-3.5,.7h-.3v1.8h13v-1.8h-.4c-3.3-.1-3.8-.3-3.8-2.1v-32.9m28.2,20.7c0-3.2-.6-4.8-2-6-1.7-1.3-4.1-2-7.3-2-5.7,0-9.8,2.7-9.8,6.3,0,1.9,1.2,3.1,2.9,3.1,1.6,0,2.7-1.1,2.7-2.6,0-.6-.2-1.3-.8-2.1-.3-.3-.3-.4-.3-.7,0-1,2-1.9,4.4-1.9,1.6,0,3.3,.5,4.2,1.2,.9,.8,1.3,2,1.3,4.2v1.9c-5.2,.9-6.8,1.3-9.3,2.2-4.4,1.6-6.4,3.9-6.4,7.1,0,3.6,2.8,5.8,7.2,5.8,3.4,0,6.5-1.4,8.7-3.9,.8,2.6,2.1,3.6,4.4,3.6s4.6-1.4,4.6-2.9c0-.3-.2-.6-.5-.6-.2,0-.4,.1-.8,.2-.7,.3-1,.4-1.4,.4-1.4,0-1.9-.9-1.9-3.5v-9.8m-4.6,6.1c0,3-.2,3.7-1,5-1.2,1.9-3.5,3.1-5.7,3.1s-4-1.7-4-3.9,1.1-3.6,3.2-4.6c1.6-.7,3.5-1.2,7.4-1.9v2.3"/><path class="cls-6" d="M1908.3,253.79l-9.2,.6v2.1h2.4c1.8,.1,2.1,.4,2.1,2.5v27.9c0,.8-.1,1-.3,1.3-.4,.5-1.3,.7-3.5,.7h-.3v1.8h12.9v-1.8h-.4c-3.3-.1-3.8-.4-3.8-2.2v-32.9m28.2,20.8c0-3.2-.6-4.8-2-5.9-1.6-1.4-4.1-2-7.3-2-5.6,0-9.8,2.6-9.8,6.3,0,1.9,1.2,3.1,2.9,3.1,1.6,0,2.7-1.1,2.7-2.6,0-.6-.2-1.3-.8-2-.3-.4-.4-.5-.4-.7,0-1,2-1.9,4.4-1.9,1.6,0,3.3,.5,4.1,1.2,.9,.8,1.3,2,1.3,4.2v1.9c-5.2,.9-6.9,1.3-9.3,2.2-4.4,1.6-6.4,3.9-6.4,7.1,0,3.6,2.8,5.8,7.2,5.8,3.4,0,6.5-1.4,8.7-3.9,.8,2.6,2.1,3.6,4.4,3.6s4.6-1.4,4.6-2.9c0-.4-.2-.6-.5-.6-.2,0-.4,.1-.8,.2-.7,.3-1,.4-1.4,.4-1.4,0-1.9-.9-1.9-3.4v-10.1m-4.3,6.1c0,3-.2,3.7-1,5-1.2,1.9-3.5,3.1-5.7,3.1s-4-1.6-4-3.9c0-2.1,1.1-3.6,3.2-4.7,1.6-.7,3.5-1.2,7.4-1.8v2.3"/><path class="cls-6" d="M1908.3,307.69l-9.2,.6v2.1h2.4c1.8,.1,2.1,.4,2.1,2.5v27.9c0,.8-.1,1.1-.3,1.3-.4,.4-1.3,.6-3.5,.7h-.3v1.8h12.9v-1.8h-.4c-3.3-.1-3.8-.4-3.8-2.1v-33m28.2,20.8c0-3.1-.6-4.8-2-5.9-1.6-1.4-4.1-2-7.3-2-5.6,0-9.8,2.6-9.8,6.3,0,1.8,1.2,3.1,2.9,3.1,1.6,0,2.7-1.1,2.7-2.6,0-.7-.2-1.4-.8-2.1-.3-.4-.4-.4-.4-.7,0-1,2-1.9,4.4-1.9,1.6,0,3.3,.5,4.1,1.2,.9,.8,1.3,2,1.3,4.2v2c-5.2,.9-6.9,1.3-9.3,2.2-4.4,1.6-6.4,3.9-6.4,7.1,0,3.6,2.8,5.9,7.2,5.9,3.4,0,6.5-1.4,8.7-3.9,.8,2.5,2.1,3.5,4.4,3.5s4.6-1.4,4.6-2.9c0-.4-.2-.6-.5-.6-.2,0-.4,.1-.8,.2-.7,.3-1,.3-1.4,.3-1.4,0-1.9-.9-1.9-3.4v-10m-4.3,6.1c0,3-.2,3.7-1,5-1.2,1.8-3.5,3.1-5.7,3.1s-4-1.6-4-3.9c0-2.1,1.1-3.6,3.2-4.6,1.6-.7,3.5-1.2,7.4-1.9v2.3"/><path class="cls-6" d="M1908.3,361.69l-9.2,.5v2.2h2.4c1.8,.1,2.1,.3,2.1,2.5v27.8c0,.8-.1,1.1-.3,1.3-.4,.4-1.3,.7-3.5,.7h-.3v1.8h12.9v-1.8h-.4c-3.3-.1-3.8-.3-3.8-2.1v-32.9m28.2,20.7c0-3.2-.6-4.8-2-6-1.6-1.3-4.1-2-7.3-2-5.6,0-9.8,2.7-9.8,6.3,0,1.9,1.2,3.1,2.9,3.1,1.6,0,2.7-1.1,2.7-2.6,0-.6-.2-1.3-.8-2.1-.3-.3-.4-.4-.4-.7,0-1,2-1.9,4.4-1.9,1.6,0,3.3,.5,4.1,1.2,.9,.8,1.3,2,1.3,4.2v1.9c-5.2,.9-6.9,1.3-9.3,2.2-4.4,1.6-6.4,3.9-6.4,7.1,0,3.6,2.8,5.8,7.2,5.8,3.4,0,6.5-1.4,8.7-3.9,.8,2.6,2.1,3.6,4.4,3.6s4.6-1.4,4.6-2.9c0-.3-.2-.6-.5-.6-.2,0-.4,.1-.8,.2-.7,.3-1,.4-1.4,.4-1.4,0-1.9-.9-1.9-3.5v-9.8m-4.3,6.1c0,3-.2,3.7-1,5-1.2,1.9-3.5,3.1-5.7,3.1s-4-1.7-4-3.9,1.1-3.6,3.2-4.6c1.6-.7,3.5-1.2,7.4-1.9v2.3"/><path class="cls-6" d="M2059.3,253.79l-9.2,.6v2.1h2.4c1.9,.1,2.1,.4,2.1,2.5v27.9c-.1,.8-.1,1-.3,1.3-.4,.5-1.3,.7-3.4,.7h-.4v1.8h12.9v-1.8h-.3c-3.4-.1-3.8-.4-3.8-2.2v-32.9m28.1,20.8c0-3.2-.6-4.8-2-5.9-1.6-1.4-4.1-2-7.3-2-5.6,0-9.8,2.6-9.8,6.3,0,1.9,1.2,3.1,2.9,3.1,1.6,0,2.7-1.1,2.7-2.6,0-.6-.2-1.3-.8-2-.3-.4-.4-.5-.4-.7,0-1,2-1.9,4.4-1.9,1.6,0,3.3,.5,4.1,1.2,.9,.8,1.3,2,1.3,4.2v1.9c-5.2,.9-6.9,1.3-9.3,2.2-4.3,1.6-6.4,3.9-6.4,7.1,0,3.6,2.8,5.8,7.2,5.8,3.4,0,6.6-1.4,8.7-3.9,.8,2.6,2.1,3.6,4.4,3.6s4.6-1.4,4.6-2.9c0-.4-.2-.6-.5-.6-.2,0-.4,.1-.8,.2-.7,.3-1,.4-1.4,.4-1.4,0-1.9-.9-1.9-3.4v-10.1m-4.4,6.1c0,3-.1,3.7-1,5-1.2,1.9-3.5,3.1-5.7,3.1s-3.9-1.6-3.9-3.9c0-2.1,1-3.6,3.2-4.7,1.5-.7,3.5-1.2,7.4-1.8v2.3"/><path class="cls-6" d="M2059.3,307.69l-9.2,.6v2.1h2.4c1.9,.1,2.1,.4,2.1,2.5v27.9c-.1,.8-.1,1.1-.3,1.3-.4,.4-1.3,.6-3.4,.7h-.4v1.8h12.9v-1.8h-.3c-3.4-.1-3.8-.4-3.8-2.1v-33m28.1,20.8c0-3.1-.6-4.8-2-5.9-1.6-1.4-4.1-2-7.3-2-5.6,0-9.8,2.6-9.8,6.3,0,1.8,1.2,3.1,2.9,3.1,1.6,0,2.7-1.1,2.7-2.6,0-.7-.2-1.4-.8-2.1-.3-.4-.4-.4-.4-.7,0-1,2-1.9,4.4-1.9,1.6,0,3.3,.5,4.1,1.2,.9,.8,1.3,2,1.3,4.2v2c-5.2,.9-6.9,1.3-9.3,2.2-4.3,1.6-6.4,3.9-6.4,7.1,0,3.6,2.8,5.9,7.2,5.9,3.4,0,6.6-1.4,8.7-3.9,.8,2.5,2.1,3.5,4.4,3.5s4.6-1.4,4.6-2.9c0-.4-.2-.6-.5-.6-.2,0-.4,.1-.8,.2-.7,.3-1,.3-1.4,.3-1.4,0-1.9-.9-1.9-3.4v-10m-4.4,6.1c0,3-.1,3.7-1,5-1.2,1.8-3.5,3.1-5.7,3.1s-3.9-1.6-3.9-3.9c0-2.1,1-3.6,3.2-4.6,1.5-.7,3.5-1.2,7.4-1.9v2.3"/><path class="cls-6" d="M2059.3,361.69l-9.2,.5v2.2h2.4c1.9,.1,2.1,.3,2.1,2.5v27.8c-.1,.8-.1,1.1-.3,1.3-.4,.4-1.3,.7-3.4,.7h-.4v1.8h12.9v-1.8h-.3c-3.4-.1-3.8-.3-3.8-2.1v-32.9m28.1,20.7c0-3.2-.6-4.8-2-6-1.6-1.3-4.1-2-7.3-2-5.6,0-9.8,2.7-9.8,6.3,0,1.9,1.2,3.1,2.9,3.1,1.6,0,2.7-1.1,2.7-2.6,0-.6-.2-1.3-.8-2.1-.3-.3-.4-.4-.4-.7,0-1,2-1.9,4.4-1.9,1.6,0,3.3,.5,4.1,1.2,.9,.8,1.3,2,1.3,4.2v1.9c-5.2,.9-6.9,1.3-9.3,2.2-4.3,1.6-6.4,3.9-6.4,7.1,0,3.6,2.8,5.8,7.2,5.8,3.4,0,6.6-1.4,8.7-3.9,.8,2.6,2.1,3.6,4.4,3.6s4.6-1.4,4.6-2.9c0-.3-.2-.6-.5-.6-.2,0-.4,.1-.8,.2-.7,.3-1,.4-1.4,.4-1.4,0-1.9-.9-1.9-3.5v-9.8m-4.4,6.1c0,3-.1,3.7-1,5-1.2,1.9-3.5,3.1-5.7,3.1s-3.9-1.7-3.9-3.9,1-3.6,3.2-4.6c1.5-.7,3.5-1.2,7.4-1.9v2.3"/><path class="cls-6" d="M2330.1,253.79l-9.2,.6v2.1h2.5c1.8,.1,2.1,.4,2.1,2.5v27.9c-.1,.8-.1,1-.3,1.3-.3,.5-1.3,.7-3.4,.7h-.3v1.8h12.9v-1.8h-.4c-3.3-.1-3.8-.4-3.8-2.2v-32.9m28.1,20.8c0-3.2-.6-4.8-2-5.9-1.7-1.4-4.1-2-7.3-2-5.6,0-9.8,2.6-9.8,6.3,0,1.9,1.1,3.1,2.9,3.1,1.6,0,2.7-1.1,2.7-2.6,0-.6-.2-1.3-.8-2-.3-.4-.4-.5-.4-.7,0-1,2-1.9,4.4-1.9,1.6,0,3.4,.5,4.2,1.2,.9,.8,1.3,2,1.3,4.2v1.9c-5.2,.9-6.9,1.3-9.3,2.2-4.4,1.6-6.4,3.9-6.4,7.1,0,3.6,2.8,5.8,7.2,5.8,3.5,0,6.6-1.4,8.7-3.9,.8,2.6,2,3.6,4.4,3.6,2.2,0,4.6-1.4,4.6-2.9,0-.4-.2-.6-.5-.6-.2,0-.4,.1-.8,.2-.7,.3-1,.4-1.4,.4-1.4,0-1.9-.9-1.9-3.4v-10.1m-4.5,6.1c0,3-.2,3.7-1,5-1.2,1.9-3.5,3.1-5.7,3.1s-3.9-1.6-3.9-3.9c0-2.1,1.1-3.6,3.2-4.7,1.6-.7,3.5-1.2,7.4-1.8v2.3"/><path class="cls-6" d="M2330.1,307.69l-9.2,.6v2.1h2.5c1.8,.1,2.1,.4,2.1,2.5v27.9c-.1,.8-.1,1.1-.3,1.3-.3,.4-1.3,.6-3.4,.7h-.3v1.8h12.9v-1.8h-.4c-3.3-.1-3.8-.4-3.8-2.1v-33m28.1,20.8c0-3.1-.6-4.8-2-5.9-1.7-1.4-4.1-2-7.3-2-5.6,0-9.8,2.6-9.8,6.3,0,1.8,1.1,3.1,2.9,3.1,1.6,0,2.7-1.1,2.7-2.6,0-.7-.2-1.4-.8-2.1-.3-.4-.4-.4-.4-.7,0-1,2-1.9,4.4-1.9,1.6,0,3.4,.5,4.2,1.2,.9,.8,1.3,2,1.3,4.2v2c-5.2,.9-6.9,1.3-9.3,2.2-4.4,1.6-6.4,3.9-6.4,7.1,0,3.6,2.8,5.9,7.2,5.9,3.5,0,6.6-1.4,8.7-3.9,.8,2.5,2,3.5,4.4,3.5,2.2,0,4.6-1.4,4.6-2.9,0-.4-.2-.6-.5-.6-.2,0-.4,.1-.8,.2-.7,.3-1,.3-1.4,.3-1.4,0-1.9-.9-1.9-3.4v-10m-4.5,6.1c0,3-.2,3.7-1,5-1.2,1.8-3.5,3.1-5.7,3.1s-3.9-1.6-3.9-3.9c0-2.1,1.1-3.6,3.2-4.6,1.6-.7,3.5-1.2,7.4-1.9v2.3"/><path class="cls-6" d="M2330.1,361.69l-9.2,.5v2.2h2.5c1.8,.1,2.1,.3,2.1,2.5v27.8c-.1,.8-.1,1.1-.3,1.3-.3,.4-1.3,.7-3.4,.7h-.3v1.8h12.9v-1.8h-.4c-3.3-.1-3.8-.3-3.8-2.1v-32.9m28.1,20.7c0-3.2-.6-4.8-2-6-1.7-1.3-4.1-2-7.3-2-5.6,0-9.8,2.7-9.8,6.3,0,1.9,1.1,3.1,2.9,3.1,1.6,0,2.7-1.1,2.7-2.6,0-.6-.2-1.3-.8-2.1-.3-.3-.4-.4-.4-.7,0-1,2-1.9,4.4-1.9,1.6,0,3.4,.5,4.2,1.2,.9,.8,1.3,2,1.3,4.2v1.9c-5.2,.9-6.9,1.3-9.3,2.2-4.4,1.6-6.4,3.9-6.4,7.1,0,3.6,2.8,5.8,7.2,5.8,3.5,0,6.6-1.4,8.7-3.9,.8,2.6,2,3.6,4.4,3.6,2.2,0,4.6-1.4,4.6-2.9,0-.3-.2-.6-.5-.6-.2,0-.4,.1-.8,.2-.7,.3-1,.4-1.4,.4-1.4,0-1.9-.9-1.9-3.5v-9.8m-4.5,6.1c0,3-.2,3.7-1,5-1.2,1.9-3.5,3.1-5.7,3.1s-3.9-1.7-3.9-3.9,1.1-3.6,3.2-4.6c1.6-.7,3.5-1.2,7.4-1.9v2.3"/><path class="cls-6" d="M2420.4,253.79l-9.2,.6v2.1h2.5c1.8,.1,2.1,.4,2.1,2.5v27.9c-.1,.8-.1,1-.3,1.3-.3,.5-1.3,.7-3.4,.7h-.3v1.8h12.9v-1.8h-.4c-3.3-.1-3.8-.4-3.8-2.2v-32.9m28,20.8c0-3.2-.6-4.8-2-5.9-1.7-1.4-4.1-2-7.3-2-5.6,0-9.8,2.6-9.8,6.3,0,1.9,1.1,3.1,2.9,3.1,1.6,0,2.7-1.1,2.7-2.6,0-.6-.2-1.3-.8-2-.3-.4-.4-.5-.4-.7,0-1,2-1.9,4.4-1.9,1.6,0,3.4,.5,4.2,1.2,.9,.8,1.3,2,1.3,4.2v1.9c-5.2,.9-6.9,1.3-9.3,2.2-4.4,1.6-6.4,3.9-6.4,7.1,0,3.6,2.8,5.8,7.2,5.8,3.5,0,6.6-1.4,8.7-3.9,.8,2.6,2,3.6,4.4,3.6,2.2,0,4.6-1.4,4.6-2.9,0-.4-.2-.6-.5-.6-.2,0-.4,.1-.8,.2-.7,.3-1,.4-1.4,.4-1.4,0-1.9-.9-1.9-3.4v-10.1m-4.5,6.1c0,3-.2,3.7-1,5-1.2,1.9-3.5,3.1-5.7,3.1s-3.9-1.6-3.9-3.9c0-2.1,1.1-3.6,3.2-4.7,1.6-.7,3.5-1.2,7.4-1.8v2.3"/><path class="cls-6" d="M2420.4,307.69l-9.2,.6v2.1h2.5c1.8,.1,2.1,.4,2.1,2.5v27.9c-.1,.8-.1,1.1-.3,1.3-.3,.4-1.3,.6-3.4,.7h-.3v1.8h12.9v-1.8h-.4c-3.3-.1-3.8-.4-3.8-2.1v-33m28,20.8c0-3.1-.6-4.8-2-5.9-1.7-1.4-4.1-2-7.3-2-5.6,0-9.8,2.6-9.8,6.3,0,1.8,1.1,3.1,2.9,3.1,1.6,0,2.7-1.1,2.7-2.6,0-.7-.2-1.4-.8-2.1-.3-.4-.4-.4-.4-.7,0-1,2-1.9,4.4-1.9,1.6,0,3.4,.5,4.2,1.2,.9,.8,1.3,2,1.3,4.2v2c-5.2,.9-6.9,1.3-9.3,2.2-4.4,1.6-6.4,3.9-6.4,7.1,0,3.6,2.8,5.9,7.2,5.9,3.5,0,6.6-1.4,8.7-3.9,.8,2.5,2,3.5,4.4,3.5,2.2,0,4.6-1.4,4.6-2.9,0-.4-.2-.6-.5-.6-.2,0-.4,.1-.8,.2-.7,.3-1,.3-1.4,.3-1.4,0-1.9-.9-1.9-3.4v-10m-4.5,6.1c0,3-.2,3.7-1,5-1.2,1.8-3.5,3.1-5.7,3.1s-3.9-1.6-3.9-3.9c0-2.1,1.1-3.6,3.2-4.6,1.6-.7,3.5-1.2,7.4-1.9v2.3"/><path class="cls-6" d="M2420.4,361.69l-9.2,.5v2.2h2.5c1.8,.1,2.1,.3,2.1,2.5v27.8c-.1,.8-.1,1.1-.3,1.3-.3,.4-1.3,.7-3.4,.7h-.3v1.8h12.9v-1.8h-.4c-3.3-.1-3.8-.3-3.8-2.1v-32.9m28,20.7c0-3.2-.6-4.8-2-6-1.7-1.3-4.1-2-7.3-2-5.6,0-9.8,2.7-9.8,6.3,0,1.9,1.1,3.1,2.9,3.1,1.6,0,2.7-1.1,2.7-2.6,0-.6-.2-1.3-.8-2.1-.3-.3-.4-.4-.4-.7,0-1,2-1.9,4.4-1.9,1.6,0,3.4,.5,4.2,1.2,.9,.8,1.3,2,1.3,4.2v1.9c-5.2,.9-6.9,1.3-9.3,2.2-4.4,1.6-6.4,3.9-6.4,7.1,0,3.6,2.8,5.8,7.2,5.8,3.5,0,6.6-1.4,8.7-3.9,.8,2.6,2,3.6,4.4,3.6,2.2,0,4.6-1.4,4.6-2.9,0-.3-.2-.6-.5-.6-.2,0-.4,.1-.8,.2-.7,.3-1,.4-1.4,.4-1.4,0-1.9-.9-1.9-3.5v-9.8m-4.5,6.1c0,3-.2,3.7-1,5-1.2,1.9-3.5,3.1-5.7,3.1s-3.9-1.7-3.9-3.9,1.1-3.6,3.2-4.6c1.6-.7,3.5-1.2,7.4-1.9v2.3"/><path class="cls-6" d="M2510.6,253.79l-9.2,.6v2.1h2.4c1.9,.1,2.1,.4,2.1,2.5v27.9c-.1,.8-.1,1-.3,1.3-.3,.5-1.3,.7-3.4,.7h-.4v1.8h13v-1.8h-.4c-3.4-.1-3.8-.4-3.8-2.2v-32.9m28.2,20.8c0-3.2-.6-4.8-2-5.9-1.7-1.4-4.1-2-7.3-2-5.7,0-9.8,2.6-9.8,6.3,0,1.9,1.1,3.1,2.9,3.1,1.6,0,2.7-1.1,2.7-2.6,0-.6-.2-1.3-.8-2-.3-.4-.3-.5-.3-.7,0-1,2-1.9,4.4-1.9,1.6,0,3.4,.5,4.2,1.2,.9,.8,1.3,2,1.3,4.2v1.9c-5.2,.9-6.8,1.3-9.3,2.2-4.4,1.6-6.4,3.9-6.4,7.1,0,3.6,2.8,5.8,7.2,5.8,3.4,0,6.6-1.4,8.7-3.9,.8,2.6,2.1,3.6,4.4,3.6s4.6-1.4,4.6-2.9c0-.4-.2-.6-.5-.6-.2,0-.4,.1-.8,.2-.7,.3-1,.4-1.4,.4-1.4,0-1.9-.9-1.9-3.4v-10.1m-4.6,6.1c0,3-.1,3.7-1,5-1.2,1.9-3.5,3.1-5.7,3.1s-3.9-1.6-3.9-3.9c0-2.1,1.1-3.6,3.2-4.7,1.6-.7,3.5-1.2,7.4-1.8v2.3"/><path class="cls-6" d="M2510.6,307.69l-9.2,.6v2.1h2.4c1.9,.1,2.1,.4,2.1,2.5v27.9c-.1,.8-.1,1.1-.3,1.3-.3,.4-1.3,.6-3.4,.7h-.4v1.8h13v-1.8h-.4c-3.4-.1-3.8-.4-3.8-2.1v-33m28.2,20.8c0-3.1-.6-4.8-2-5.9-1.7-1.4-4.1-2-7.3-2-5.7,0-9.8,2.6-9.8,6.3,0,1.8,1.1,3.1,2.9,3.1,1.6,0,2.7-1.1,2.7-2.6,0-.7-.2-1.4-.8-2.1q-.3-.4-.3-.7c0-1,2-1.9,4.4-1.9,1.6,0,3.4,.5,4.2,1.2,.9,.8,1.3,2,1.3,4.2v2c-5.2,.9-6.8,1.3-9.3,2.2-4.4,1.6-6.4,3.9-6.4,7.1,0,3.6,2.8,5.9,7.2,5.9,3.4,0,6.6-1.4,8.7-3.9,.8,2.5,2.1,3.5,4.4,3.5s4.6-1.4,4.6-2.9c0-.4-.2-.6-.5-.6-.2,0-.4,.1-.8,.2-.7,.3-1,.3-1.4,.3-1.4,0-1.9-.9-1.9-3.4v-10m-4.6,6.1c0,3-.1,3.7-1,5-1.2,1.8-3.5,3.1-5.7,3.1s-3.9-1.6-3.9-3.9c0-2.1,1.1-3.6,3.2-4.6,1.6-.7,3.5-1.2,7.4-1.9v2.3"/><path class="cls-6" d="M2510.6,361.69l-9.2,.5v2.2h2.4c1.9,.1,2.1,.3,2.1,2.5v27.8c-.1,.8-.1,1.1-.3,1.3-.3,.4-1.3,.7-3.4,.7h-.4v1.8h13v-1.8h-.4c-3.4-.1-3.8-.3-3.8-2.1v-32.9m28.2,20.7c0-3.2-.6-4.8-2-6-1.7-1.3-4.1-2-7.3-2-5.7,0-9.8,2.7-9.8,6.3,0,1.9,1.1,3.1,2.9,3.1,1.6,0,2.7-1.1,2.7-2.6,0-.6-.2-1.3-.8-2.1-.3-.3-.3-.4-.3-.7,0-1,2-1.9,4.4-1.9,1.6,0,3.4,.5,4.2,1.2,.9,.8,1.3,2,1.3,4.2v1.9c-5.2,.9-6.8,1.3-9.3,2.2-4.4,1.6-6.4,3.9-6.4,7.1,0,3.6,2.8,5.8,7.2,5.8,3.4,0,6.6-1.4,8.7-3.9,.8,2.6,2.1,3.6,4.4,3.6s4.6-1.4,4.6-2.9c0-.3-.2-.6-.5-.6-.2,0-.4,.1-.8,.2-.7,.3-1,.4-1.4,.4-1.4,0-1.9-.9-1.9-3.5v-9.8m-4.6,6.1c0,3-.1,3.7-1,5-1.2,1.9-3.5,3.1-5.7,3.1s-3.9-1.7-3.9-3.9,1.1-3.6,3.2-4.6c1.6-.7,3.5-1.2,7.4-1.9v2.3"/><line class="cls-2" x1="949.3" y1="968.19" x2="969.1" y2="968.19"/><line class="cls-2" x1="425.2" y1="860.39" x2="445.1" y2="860.39"/><line class="cls-2" x1="425.2" y1="914.29" x2="445" y2="914.29"/><line class="cls-2" x1="427.6" y1="968.19" x2="447.4" y2="968.19"/><line class="cls-2" x1="950.6" y1="860.39" x2="970.4" y2="860.39"/><line class="cls-2" x1="950" y1="914.29" x2="969.9" y2="914.29"/><line class="cls-2" x1="1533.8" y1="860.39" x2="1553.6" y2="860.39"/><line class="cls-2" x1="1533.8" y1="914.29" x2="1553.6" y2="914.29"/><line class="cls-2" x1="1535.9" y1="968.19" x2="1555.7" y2="968.19"/><line class="cls-2" x1="1849.6" y1="860.39" x2="1869.4" y2="860.39"/><line class="cls-2" x1="1851.2" y1="914.29" x2="1871" y2="914.29"/><line class="cls-2" x1="1851" y1="968.19" x2="1870.9" y2="968.19"/><line class="cls-2" x1="2147.2" y1="860.39" x2="2167.1" y2="860.39"/><line class="cls-2" x1="2153.9" y1="914.29" x2="2173.7" y2="914.29"/><line class="cls-2" x1="2152.7" y1="968.19" x2="2172.5" y2="968.19"/><line class="cls-2" x1="1023.2" y1="278.09" x2="1043.1" y2="278.09"/><line class="cls-2" x1="1023.2" y1="331.99" x2="1043.1" y2="331.99"/><line class="cls-2" x1="1023.2" y1="385.89" x2="1043.1" y2="385.89"/><line class="cls-2" x1="1614.5" y1="278.09" x2="1634.3" y2="278.09"/><line class="cls-2" x1="1614.5" y1="331.99" x2="1634.3" y2="331.99"/><line class="cls-2" x1="1614.5" y1="385.89" x2="1634.3" y2="385.89"/><path class="cls-6" d="M1674,1083.39c0,2.7,2.2,5,5,5s5-2.2,5-5-2.2-5-5-5c-2.8,.1-5,2.3-5,5"/><path class="cls-6" d="M1674,686.89c0,2.7,2.2,5,5,5s5-2.2,5-5-2.2-5-5-5-5,2.2-5,5"/><line class="cls-4" x1="123.1" y1="80.69" x2="123.1" y2="1188.09"/><path class="cls-6" d="M165.7,58.69c-.2-.1-.5-.2-.7-.2-.4,0-.9,.1-1.1,.5-.2,.3-10.1,15.6-29.1,15.6h-15.8c-.8,0-1.4,.5-1.4,1.3v10.3h12.1c30.6,0,36.4-25.5,36.5-25.8,0-.1,.1-.3,.1-.5,.1-.5-.2-.9-.6-1.2"/><path class="cls-6" d="M165.7,1210.09c.4-.3,.7-.7,.7-1.2,0-.2-.1-.4-.1-.5-.1-.3-6-25.8-36.5-25.8h-12.1v10.3c0,.8,.6,1.3,1.4,1.3h15.8c18.9,0,28.9,15.3,29.1,15.6,.2,.4,.7,.5,1.1,.5,.1,0,.4-.1,.6-.2"/></g></svg>