<?xml version="1.0" encoding="utf-8"?>
<!-- Generator: Adobe Illustrator 26.5.0, SVG Export Plug-In . SVG Version: 6.00 Build 0)  -->
<svg version="1.1" id="レイヤー_1" xmlns="http://www.w3.org/2000/svg" xmlns:xlink="http://www.w3.org/1999/xlink" x="0px"
	 y="0px" viewBox="0 0 2590 940" style="enable-background:new 0 0 2590 940;" xml:space="preserve">
<style type="text/css">
	.st0{fill:none;stroke:#FFFFFF;stroke-width:2.73;stroke-linejoin:bevel;}
	.st1{fill:#FFFFFF;}
	.st2{fill:none;stroke:#FFFFFF;stroke-width:4.46;stroke-linejoin:bevel;}
	.st3{fill:none;stroke:#FFFFFF;stroke-width:13.64;stroke-linejoin:bevel;}
	.st4{fill:none;stroke:#FFFFFF;stroke-width:3.97;stroke-linejoin:bevel;}
	.st5{fill:none;stroke:#FFFFFF;stroke-width:10.91;stroke-linejoin:bevel;}
</style>
<g>
	<g>
		
			<image style="overflow:visible;" width="2624" height="957" xlink:href="63EB19F8A68961E8.png"  transform="matrix(1 0 0 1 -17.1779 19.4539)">
		</image>
	</g>
	<g>
		<line class="st0" x1="106.1" y1="96.5" x2="2570.6" y2="96.5"/>
		<line class="st0" x1="106.1" y1="121.3" x2="2570.6" y2="121.3"/>
		<line class="st0" x1="106.1" y1="146.1" x2="2570.6" y2="146.1"/>
		<line class="st0" x1="106.1" y1="170.9" x2="2570.6" y2="170.9"/>
		<line class="st0" x1="106.1" y1="195.7" x2="2570.6" y2="195.7"/>
		<line class="st0" x1="106.1" y1="565.1" x2="2570.6" y2="565.1"/>
		<line class="st0" x1="106.1" y1="589.9" x2="2570.6" y2="589.9"/>
		<line class="st0" x1="106.1" y1="614.7" x2="2570.6" y2="614.7"/>
		<line class="st0" x1="106.1" y1="639.5" x2="2570.6" y2="639.5"/>
		<line class="st0" x1="106.1" y1="664.3" x2="2570.6" y2="664.3"/>
		<line class="st0" x1="106.1" y1="800.7" x2="2570.6" y2="800.7"/>
		<line class="st0" x1="106.1" y1="825.5" x2="2570.6" y2="825.5"/>
		<line class="st0" x1="106.1" y1="850.3" x2="2570.6" y2="850.3"/>
		<line class="st0" x1="106.1" y1="875.1" x2="2570.6" y2="875.1"/>
		<line class="st0" x1="106.1" y1="899.9" x2="2570.6" y2="899.9"/>
		<path class="st1" d="M54.2,831.9h-30l-0.8,13.9h2.2c0.3-2.5,0.8-4.4,1.3-6c1.3-3.7,3.7-5.6,7.1-5.6c1.6,0,2.4,0.6,2.4,1.8v25.8
			c0,2.5,0,2.6-0.3,3.1c-0.4,0.5-1.4,0.7-4.2,0.7h-1.3v2.3h17.1v-2.3h-1.3c-2.8,0-3.8-0.2-4.1-0.7c-0.3-0.5-0.3-0.6-0.3-3.1v-25.8
			c0-1.2,0.7-1.8,2.4-1.8c3.1,0,5.5,1.7,6.8,4.7c0.8,1.8,1.2,4,1.6,6.8H55L54.2,831.9 M59.1,862.5c-1.8,0-3.1,1.4-3.1,3.1
			c0,1.8,1.4,3.2,3.1,3.2c1.8,0,3.1-1.4,3.1-3.2C62.2,863.9,60.8,862.5,59.1,862.5"/>
		<path class="st1" d="M38.7,595.9h-2.1l-11.5,29.2c-1.4,3.9-2.6,5.1-5.5,5.3h-0.2v2.3h13.2v-2.3h-1c-2.7,0-4.1-1-4.1-2.8
			c0-0.7,0.1-1.2,0.4-2.1l1.7-4.4H43l2.7,6.7c0.3,0.8,0.4,1.1,0.4,1.4c0,0.8-1.2,1.3-3.1,1.3h-2.1v2.3h15.5v-2.3h-0.7
			c-2.6,0-3.1-0.3-4.2-3.2L38.7,595.9 M36.3,604.1l5.7,14.2H30.7L36.3,604.1 M63.3,627.2c-1.8,0-3.2,1.4-3.2,3.1
			c0,1.8,1.4,3.1,3.1,3.1c1.8,0,3.2-1.4,3.2-3.1C66.4,628.6,65,627.2,63.3,627.2"/>
		<path class="st1" d="M51.7,127.8h-1.8l-2,3c-2.4-2.2-5.6-3.5-9.1-3.5c-6.6,0-10.9,4.2-10.9,10.5c0,5.5,2.7,8.1,10.1,10l4.8,1.2
			c3.7,1,4,1,5.1,1.9c1.5,1.1,2.3,2.8,2.3,4.8c0,2-0.8,3.6-2.2,5c-1.6,1.4-3.3,2-6.1,2c-3.7,0-6.3-1.1-8.7-3.8
			c-2.1-2.3-3.1-4.7-3.9-8.6h-2.2l0.2,14.2h2l2.2-3.4c3.3,2.8,6.1,3.8,10.5,3.8c7.3,0,12-4.3,12-11c0-3.1-1-5.8-3-7.6
			c-1.3-1.3-3.3-2.1-7.3-3.1l-5.4-1.4c-4.4-1.1-6.6-3.1-6.6-6.1c0-3.5,2.9-5.9,7.1-5.9c3.5,0,6.3,1.5,8.3,4.3c1.5,2.1,2.4,4.2,3,6.7
			h2.2L51.7,127.8 M62.7,158.6c-1.8,0-3.1,1.4-3.1,3.1c0,1.8,1.4,3.1,3.1,3.1c1.8,0,3.1-1.4,3.1-3.1C65.8,160,64.4,158.6,62.7,158.6
			"/>
		<line class="st2" x1="108.4" y1="799.3" x2="108.4" y2="901.3"/>
		<line class="st2" x1="819.3" y1="799.3" x2="819.3" y2="901.3"/>
		<line class="st2" x1="1404.8" y1="799.3" x2="1404.8" y2="901.3"/>
		<line class="st2" x1="2044.6" y1="799.3" x2="2044.6" y2="901.3"/>
		<path class="st1" d="M2534.2,837.9c0-2.9-2.3-5.3-5.2-5.3s-5.2,2.4-5.2,5.3c0,2.9,2.3,5.3,5.2,5.3S2534.2,840.8,2534.2,837.9"/>
		<path class="st1" d="M2534.2,862.7c0-2.9-2.3-5.3-5.2-5.3s-5.2,2.4-5.2,5.3c0,2.9,2.3,5.3,5.2,5.3S2534.2,865.6,2534.2,862.7"/>
		<line class="st2" x1="2546.4" y1="799.3" x2="2546.4" y2="901.3"/>
		<line class="st3" x1="2563.7" y1="799.3" x2="2563.7" y2="901.3"/>
		<line class="st2" x1="108.4" y1="563.7" x2="108.4" y2="800.7"/>
		<line class="st2" x1="819.3" y1="563.7" x2="819.3" y2="665.7"/>
		<line class="st2" x1="1404.8" y1="563.7" x2="1404.8" y2="665.7"/>
		<line class="st2" x1="2044.6" y1="563.7" x2="2044.6" y2="665.7"/>
		<path class="st1" d="M2534.2,602.3c0-2.9-2.3-5.3-5.2-5.3s-5.2,2.4-5.2,5.3c0,2.9,2.3,5.3,5.2,5.3S2534.2,605.2,2534.2,602.3"/>
		<path class="st1" d="M2534.2,627.1c0-2.9-2.3-5.3-5.2-5.3s-5.2,2.4-5.2,5.3c0,2.9,2.3,5.3,5.2,5.3S2534.2,630,2534.2,627.1"/>
		<line class="st2" x1="2546.4" y1="563.7" x2="2546.4" y2="665.7"/>
		<line class="st3" x1="2563.7" y1="563.7" x2="2563.7" y2="665.7"/>
		<line class="st2" x1="108.4" y1="95.2" x2="108.4" y2="565.1"/>
		<line class="st2" x1="819.3" y1="95.2" x2="819.3" y2="197.1"/>
		<line class="st2" x1="1404.8" y1="95.2" x2="1404.8" y2="197.1"/>
		<line class="st2" x1="2044.6" y1="95.2" x2="2044.6" y2="197.1"/>
		<path class="st1" d="M2534.2,133.7c0-2.9-2.3-5.3-5.2-5.3s-5.2,2.4-5.2,5.3s2.3,5.3,5.2,5.3S2534.2,136.6,2534.2,133.7"/>
		<path class="st1" d="M2534.2,158.5c0-2.9-2.3-5.3-5.2-5.3s-5.2,2.4-5.2,5.3s2.3,5.3,5.2,5.3S2534.2,161.4,2534.2,158.5"/>
		<line class="st2" x1="2546.4" y1="95.2" x2="2546.4" y2="197.1"/>
		<line class="st3" x1="2563.7" y1="95.2" x2="2563.7" y2="197.1"/>
		<line class="st4" x1="871" y1="775.9" x2="920.6" y2="775.9"/>
		<line class="st4" x1="1747" y1="689.1" x2="1796.6" y2="689.1"/>
		<line class="st4" x1="1935.5" y1="689.1" x2="1985.1" y2="689.1"/>
		<line class="st4" x1="2079" y1="713.9" x2="2128.6" y2="713.9"/>
		<line class="st4" x1="2079" y1="689.1" x2="2128.6" y2="689.1"/>
		<line class="st4" x1="2079" y1="245.3" x2="2128.6" y2="245.3"/>
		<line class="st4" x1="2079" y1="220.5" x2="2128.6" y2="220.5"/>
		<line class="st0" x1="259.7" y1="841.2" x2="259.7" y2="918.5"/>
		<line class="st0" x1="399.4" y1="841.2" x2="399.4" y2="918.5"/>
		<line class="st0" x1="539.1" y1="804" x2="539.1" y2="887.5"/>
		<line class="st0" x1="678.7" y1="791.6" x2="678.7" y2="875.1"/>
		<line class="st0" x1="881.1" y1="779.2" x2="881.1" y2="862.7"/>
		<line class="st0" x1="1026.3" y1="791.6" x2="1026.3" y2="875.1"/>
		<line class="st0" x1="1171.5" y1="804" x2="1171.5" y2="887.5"/>
		<line class="st0" x1="1447.9" y1="828.8" x2="1447.9" y2="909.2"/>
		<line class="st0" x1="1602.5" y1="853.6" x2="1602.5" y2="927.8"/>
		<line class="st0" x1="1757.1" y1="841.2" x2="1757.1" y2="918.5"/>
		<line class="st0" x1="1945.6" y1="841.2" x2="1945.6" y2="924.7"/>
		<line class="st0" x1="2089.1" y1="841.2" x2="2089.1" y2="918.5"/>
		<line class="st0" x1="289.2" y1="661.1" x2="289.2" y2="577.5"/>
		<line class="st0" x1="428.9" y1="661.1" x2="428.9" y2="577.5"/>
		<line class="st0" x1="568.6" y1="661.1" x2="568.6" y2="577.5"/>
		<line class="st0" x1="708.3" y1="661.1" x2="708.3" y2="577.5"/>
		<line class="st0" x1="910.6" y1="623.9" x2="910.6" y2="546.5"/>
		<line class="st0" x1="1055.8" y1="636.3" x2="1055.8" y2="555.8"/>
		<line class="st0" x1="1201.1" y1="661.1" x2="1201.1" y2="577.5"/>
		<line class="st0" x1="1477.4" y1="673.5" x2="1477.4" y2="589.9"/>
		<line class="st0" x1="1632" y1="673.5" x2="1632" y2="589.9"/>
		<line class="st0" x1="1786.6" y1="698.3" x2="1786.6" y2="614.7"/>
		<line class="st0" x1="1975.1" y1="698.3" x2="1975.1" y2="614.7"/>
		<line class="st0" x1="2118.6" y1="710.7" x2="2118.6" y2="614.7"/>
		<line class="st0" x1="289.2" y1="192.6" x2="289.2" y2="108.9"/>
		<line class="st0" x1="428.9" y1="192.6" x2="428.9" y2="108.9"/>
		<line class="st0" x1="568.6" y1="155.4" x2="568.6" y2="77.9"/>
		<line class="st0" x1="678.7" y1="149.5" x2="678.7" y2="223.6"/>
		<line class="st0" x1="881.1" y1="137.1" x2="881.1" y2="214.3"/>
		<line class="st0" x1="1026.3" y1="149.5" x2="1026.3" y2="223.6"/>
		<line class="st0" x1="1201.1" y1="155.4" x2="1201.1" y2="77.9"/>
		<line class="st0" x1="1477.4" y1="180.2" x2="1477.4" y2="96.5"/>
		<line class="st0" x1="1632" y1="205" x2="1632" y2="121.3"/>
		<line class="st0" x1="1786.6" y1="192.6" x2="1786.6" y2="108.9"/>
		<line class="st0" x1="1975.1" y1="192.6" x2="1975.1" y2="108.9"/>
		<line class="st0" x1="2118.6" y1="242.2" x2="2118.6" y2="146.1"/>
		<path class="st1" d="M289.6,829.9c-1.8-3.3-5.6-5.1-10.1-5.1c-3.4,0-7,1-10.6,2.9c-6.5,3.5-10.5,9.3-10.5,14.4
			c0,1.4,0.3,2.8,1,4.1c1.8,3.3,5.6,5,10.1,5c3.4,0,7-0.9,10.6-2.8c6.5-3.5,10.5-9.3,10.5-14.4C290.6,832.6,290.3,831.2,289.6,829.9
			"/>
		<path class="st1" d="M429.3,829.9c-1.8-3.3-5.6-5.1-10.1-5.1c-3.4,0-7,1-10.6,2.9c-6.5,3.5-10.5,9.3-10.5,14.4
			c0,1.4,0.3,2.8,1,4.1c1.8,3.3,5.6,5,10.1,5c3.4,0,7-0.9,10.6-2.8c6.5-3.5,10.5-9.3,10.5-14.4C430.2,832.6,429.9,831.2,429.3,829.9
			"/>
		<path class="st1" d="M568.9,792.7c-1.8-3.3-5.6-5.1-10.1-5.1c-3.4,0-7,1-10.6,2.9c-6.5,3.5-10.5,9.3-10.5,14.4
			c0,1.4,0.3,2.8,1,4.1c1.8,3.3,5.6,5,10.1,5c3.4,0,7-0.9,10.6-2.8c6.5-3.5,10.5-9.3,10.5-14.4C569.9,795.3,569.6,794,568.9,792.7"
			/>
		<path class="st1" d="M708.6,780.3c-1.8-3.3-5.6-5.1-10.1-5.1c-3.4,0-7,1-10.6,2.9c-6.5,3.5-10.5,9.3-10.5,14.4
			c0,1.4,0.3,2.8,1,4.1c1.8,3.3,5.6,5,10.1,5c3.4,0,7-0.9,10.6-2.8c6.5-3.5,10.5-9.3,10.5-14.4C709.6,782.9,709.3,781.6,708.6,780.3
			"/>
		<path class="st1" d="M911,767.9c-1.8-3.3-5.6-5.1-10.1-5.1c-3.4,0-7,1-10.6,2.9c-6.5,3.5-10.5,9.3-10.5,14.4c0,1.4,0.3,2.8,1,4.1
			c1.8,3.3,5.6,5,10.1,5c3.4,0,7-0.9,10.6-2.8c6.5-3.5,10.5-9.3,10.5-14.4C911.9,770.5,911.7,769.2,911,767.9"/>
		<path class="st1" d="M1056.2,780.3c-1.8-3.3-5.6-5.1-10.1-5.1c-3.4,0-7,1-10.6,2.9c-6.5,3.5-10.5,9.3-10.5,14.4
			c0,1.4,0.3,2.8,1,4.1c1.8,3.3,5.6,5,10.1,5c3.4,0,7-0.9,10.6-2.8c6.5-3.5,10.5-9.3,10.5-14.4
			C1057.2,782.9,1056.9,781.6,1056.2,780.3"/>
		<path class="st1" d="M1201.4,792.7c-1.8-3.3-5.6-5.1-10.1-5.1c-3.4,0-7,1-10.6,2.9c-6.5,3.5-10.5,9.3-10.5,14.4
			c0,1.4,0.3,2.8,1,4.1c1.8,3.3,5.6,5,10.1,5c3.4,0,7-0.9,10.6-2.8c6.5-3.5,10.5-9.3,10.5-14.4
			C1202.4,795.3,1202.1,794,1201.4,792.7 M1197.2,799.4c-1.7,1.7-5.1,3.8-8.6,5.8s-7.1,3.5-9.5,4c-0.5,0.1-1,0.2-1.5,0.2
			c-1.6,0-2.8-0.6-3.5-1.9c-0.3-0.5-0.5-1.1-0.5-1.7c0-1.1,0.7-2.4,1.8-3.5c1.7-1.7,5-3.8,8.5-5.8s7.1-3.5,9.5-4
			c0.5-0.1,1-0.2,1.5-0.2c1.6,0,2.9,0.6,3.6,1.9c0.3,0.5,0.4,1.1,0.4,1.7C1198.9,797,1198.3,798.2,1197.2,799.4"/>
		<path class="st1" d="M1477.8,817.5c-1.8-3.3-5.6-5.1-10.1-5.1c-3.4,0-7,1-10.6,2.9c-6.5,3.5-10.5,9.3-10.5,14.4
			c0,1.4,0.3,2.8,1,4.1c1.8,3.3,5.6,5,10.1,5c3.4,0,7-0.9,10.6-2.8c6.5-3.5,10.5-9.3,10.5-14.4
			C1478.7,820.2,1478.5,818.8,1477.8,817.5"/>
		<path class="st1" d="M1632.4,842.3c-1.8-3.3-5.6-5.1-10.1-5.1c-3.4,0-7,1-10.6,2.9c-6.5,3.5-10.5,9.3-10.5,14.4
			c0,1.4,0.3,2.8,1,4.1c1.8,3.3,5.6,5,10.1,5c3.4,0,7-0.9,10.6-2.8c6.5-3.5,10.5-9.3,10.5-14.4
			C1633.4,845,1633.1,843.6,1632.4,842.3"/>
		<path class="st1" d="M1787,829.9c-1.8-3.3-5.6-5.1-10.1-5.1c-3.4,0-7,1-10.6,2.9c-6.5,3.5-10.5,9.3-10.5,14.4c0,1.4,0.3,2.8,1,4.1
			c1.8,3.3,5.6,5,10.1,5c3.4,0,7-0.9,10.6-2.8c6.5-3.5,10.5-9.3,10.5-14.4C1788,832.6,1787.7,831.2,1787,829.9"/>
		<path class="st1" d="M1975.5,829.9c-1.8-3.3-5.6-5.1-10.1-5.1c-3.4,0-7,1-10.6,2.9c-6.5,3.5-10.5,9.3-10.5,14.4
			c0,1.4,0.3,2.8,1,4.1c1.8,3.3,5.6,5,10.1,5c3.4,0,7-0.9,10.6-2.8c6.5-3.5,10.5-9.3,10.5-14.4
			C1976.5,832.6,1976.2,831.2,1975.5,829.9"/>
		<path class="st1" d="M2119,829.9c-1.8-3.3-5.6-5.1-10.1-5.1c-3.4,0-7,1-10.6,2.9c-6.5,3.5-10.5,9.3-10.5,14.4c0,1.4,0.3,2.8,1,4.1
			c1.8,3.3,5.6,5,10.1,5c3.4,0,7-0.9,10.6-2.8c6.5-3.5,10.5-9.3,10.5-14.4C2120,832.6,2119.7,831.2,2119,829.9 M2114.7,836.6
			c-1.7,1.7-5.1,3.8-8.6,5.8c-3.6,2-7.1,3.5-9.5,4c-0.5,0.1-1,0.2-1.5,0.2c-1.6,0-2.8-0.6-3.5-1.9c-0.3-0.5-0.5-1.1-0.5-1.7
			c0-1.1,0.7-2.4,1.8-3.5c1.7-1.7,5-3.8,8.5-5.8c3.6-2,7.1-3.5,9.5-4c0.5-0.1,1-0.2,1.5-0.2c1.6,0,2.9,0.6,3.6,1.9
			c0.3,0.5,0.4,1.1,0.4,1.7C2116.4,834.2,2115.8,835.4,2114.7,836.6"/>
		<path class="st1" d="M289.6,656.3c-1.8-3.3-5.6-5.1-10.1-5.1c-3.4,0-7,1-10.6,2.9c-6.5,3.5-10.5,9.3-10.5,14.4
			c0,1.4,0.3,2.8,1,4.1c1.8,3.3,5.6,5,10.1,5c3.4,0,7-0.9,10.6-2.8c6.5-3.5,10.5-9.3,10.5-14.4C290.6,658.9,290.3,657.5,289.6,656.3
			"/>
		<path class="st1" d="M429.3,656.3c-1.8-3.3-5.6-5.1-10.1-5.1c-3.4,0-7,1-10.6,2.9c-6.5,3.5-10.5,9.3-10.5,14.4
			c0,1.4,0.3,2.8,1,4.1c1.8,3.3,5.6,5,10.1,5c3.4,0,7-0.9,10.6-2.8c6.5-3.5,10.5-9.3,10.5-14.4C430.2,658.9,429.9,657.5,429.3,656.3
			"/>
		<path class="st1" d="M568.9,656.3c-1.8-3.3-5.6-5.1-10.1-5.1c-3.4,0-7,1-10.6,2.9c-6.5,3.5-10.5,9.3-10.5,14.4
			c0,1.4,0.3,2.8,1,4.1c1.8,3.3,5.6,5,10.1,5c3.4,0,7-0.9,10.6-2.8c6.5-3.5,10.5-9.3,10.5-14.4C569.9,658.9,569.6,657.5,568.9,656.3
			"/>
		<path class="st1" d="M708.6,656.3c-1.8-3.3-5.6-5.1-10.1-5.1c-3.4,0-7,1-10.6,2.9c-6.5,3.5-10.5,9.3-10.5,14.4
			c0,1.4,0.3,2.8,1,4.1c1.8,3.3,5.6,5,10.1,5c3.4,0,7-0.9,10.6-2.8c6.5-3.5,10.5-9.3,10.5-14.4C709.6,658.9,709.3,657.5,708.6,656.3
			"/>
		<path class="st1" d="M911,619c-1.8-3.3-5.6-5.1-10.1-5.1c-3.4,0-7,1-10.6,2.9c-6.5,3.5-10.5,9.3-10.5,14.4c0,1.4,0.3,2.8,1,4.1
			c1.8,3.3,5.6,5,10.1,5c3.4,0,7-0.9,10.6-2.8c6.5-3.5,10.5-9.3,10.5-14.4C911.9,621.7,911.7,620.3,911,619"/>
		<path class="st1" d="M1056.2,631.4c-1.8-3.3-5.6-5.1-10.1-5.1c-3.4,0-7,1-10.6,2.9c-6.5,3.5-10.5,9.3-10.5,14.4
			c0,1.4,0.3,2.8,1,4.1c1.8,3.3,5.6,5,10.1,5c3.4,0,7-0.9,10.6-2.8c6.5-3.5,10.5-9.3,10.5-14.4
			C1057.2,634.1,1056.9,632.7,1056.2,631.4"/>
		<path class="st1" d="M1201.4,656.3c-1.8-3.3-5.6-5.1-10.1-5.1c-3.4,0-7,1-10.6,2.9c-6.5,3.5-10.5,9.3-10.5,14.4
			c0,1.4,0.3,2.8,1,4.1c1.8,3.3,5.6,5,10.1,5c3.4,0,7-0.9,10.6-2.8c6.5-3.5,10.5-9.3,10.5-14.4
			C1202.4,658.9,1202.1,657.5,1201.4,656.3 M1197.2,663c-1.7,1.7-5.1,3.8-8.6,5.8s-7.1,3.5-9.5,4c-0.5,0.1-1,0.2-1.5,0.2
			c-1.6,0-2.8-0.6-3.5-1.9c-0.3-0.5-0.5-1.1-0.5-1.7c0-1.1,0.7-2.4,1.8-3.5c1.7-1.7,5-3.8,8.5-5.8s7.1-3.5,9.5-4
			c0.5-0.1,1-0.2,1.5-0.2c1.6,0,2.9,0.6,3.6,1.9c0.3,0.5,0.4,1.1,0.4,1.7C1198.9,660.6,1198.3,661.8,1197.2,663"/>
		<path class="st1" d="M1477.8,668.7c-1.8-3.3-5.6-5.1-10.1-5.1c-3.4,0-7,1-10.6,2.9c-6.5,3.5-10.5,9.3-10.5,14.4
			c0,1.4,0.3,2.8,1,4.1c1.8,3.3,5.6,5,10.1,5c3.4,0,7-0.9,10.6-2.8c6.5-3.5,10.5-9.3,10.5-14.4
			C1478.7,671.3,1478.5,669.9,1477.8,668.7"/>
		<path class="st1" d="M1632.4,668.7c-1.8-3.3-5.6-5.1-10.1-5.1c-3.4,0-7,1-10.6,2.9c-6.5,3.5-10.5,9.3-10.5,14.4
			c0,1.4,0.3,2.8,1,4.1c1.8,3.3,5.6,5,10.1,5c3.4,0,7-0.9,10.6-2.8c6.5-3.5,10.5-9.3,10.5-14.4
			C1633.4,671.3,1633.1,669.9,1632.4,668.7"/>
		<path class="st1" d="M1787,693.5c-1.8-3.3-5.6-5.1-10.1-5.1c-3.4,0-7,1-10.6,2.9c-6.5,3.5-10.5,9.3-10.5,14.4c0,1.4,0.3,2.8,1,4.1
			c1.8,3.3,5.6,5,10.1,5c3.4,0,7-0.9,10.6-2.8c6.5-3.5,10.5-9.3,10.5-14.4C1788,696.1,1787.7,694.7,1787,693.5"/>
		<path class="st1" d="M1975.5,693.5c-1.8-3.3-5.6-5.1-10.1-5.1c-3.4,0-7,1-10.6,2.9c-6.5,3.5-10.5,9.3-10.5,14.4
			c0,1.4,0.3,2.8,1,4.1c1.8,3.3,5.6,5,10.1,5c3.4,0,7-0.9,10.6-2.8c6.5-3.5,10.5-9.3,10.5-14.4
			C1976.5,696.1,1976.2,694.7,1975.5,693.5"/>
		<path class="st1" d="M2119,705.9c-1.8-3.3-5.6-5.1-10.1-5.1c-3.4,0-7,1-10.6,2.9c-6.5,3.5-10.5,9.3-10.5,14.4c0,1.4,0.3,2.8,1,4.1
			c1.8,3.3,5.6,5,10.1,5c3.4,0,7-0.9,10.6-2.8c6.5-3.5,10.5-9.3,10.5-14.4C2120,708.5,2119.7,707.1,2119,705.9 M2114.7,712.6
			c-1.7,1.7-5.1,3.8-8.6,5.8c-3.6,2-7.1,3.5-9.5,4c-0.5,0.1-1,0.2-1.5,0.2c-1.6,0-2.8-0.6-3.5-1.9c-0.3-0.5-0.5-1.1-0.5-1.7
			c0-1.1,0.7-2.4,1.8-3.5c1.7-1.7,5-3.8,8.5-5.8c3.6-2,7.1-3.5,9.5-4c0.5-0.1,1-0.2,1.5-0.2c1.6,0,2.9,0.6,3.6,1.9
			c0.3,0.5,0.4,1.1,0.4,1.7C2116.4,710.2,2115.8,711.4,2114.7,712.6"/>
		<path class="st1" d="M289.6,187.7c-1.8-3.3-5.6-5.1-10.1-5.1c-3.4,0-7,1-10.6,2.9c-6.5,3.5-10.5,9.3-10.5,14.4
			c0,1.4,0.3,2.8,1,4.1c1.8,3.3,5.6,5,10.1,5c3.4,0,7-0.9,10.6-2.8c6.5-3.5,10.5-9.3,10.5-14.4C290.6,190.4,290.3,189,289.6,187.7"
			/>
		<path class="st1" d="M429.3,187.7c-1.8-3.3-5.6-5.1-10.1-5.1c-3.4,0-7,1-10.6,2.9c-6.5,3.5-10.5,9.3-10.5,14.4
			c0,1.4,0.3,2.8,1,4.1c1.8,3.3,5.6,5,10.1,5c3.4,0,7-0.9,10.6-2.8c6.5-3.5,10.5-9.3,10.5-14.4C430.2,190.4,429.9,189,429.3,187.7"
			/>
		<path class="st1" d="M568.9,150.5c-1.8-3.3-5.6-5.1-10.1-5.1c-3.4,0-7,1-10.6,2.9c-6.5,3.5-10.5,9.3-10.5,14.4
			c0,1.4,0.3,2.8,1,4.1c1.8,3.3,5.6,5,10.1,5c3.4,0,7-0.9,10.6-2.8c6.5-3.5,10.5-9.3,10.5-14.4C569.9,153.2,569.6,151.8,568.9,150.5
			"/>
		<path class="st1" d="M708.6,138.1c-1.8-3.3-5.6-5.1-10.1-5.1c-3.4,0-7,1-10.6,2.9c-6.5,3.5-10.5,9.3-10.5,14.4
			c0,1.4,0.3,2.8,1,4.1c1.8,3.3,5.6,5,10.1,5c3.4,0,7-0.9,10.6-2.8c6.5-3.5,10.5-9.3,10.5-14.4C709.6,140.8,709.3,139.4,708.6,138.1
			"/>
		<path class="st1" d="M911,125.7c-1.8-3.3-5.6-5.1-10.1-5.1c-3.4,0-7,1-10.6,2.9c-6.5,3.5-10.5,9.3-10.5,14.4c0,1.4,0.3,2.8,1,4.1
			c1.8,3.3,5.6,5,10.1,5c3.4,0,7-0.9,10.6-2.8c6.5-3.5,10.5-9.3,10.5-14.4C911.9,128.4,911.7,127,911,125.7"/>
		<path class="st1" d="M1056.2,138.1c-1.8-3.3-5.6-5.1-10.1-5.1c-3.4,0-7,1-10.6,2.9c-6.5,3.5-10.5,9.3-10.5,14.4
			c0,1.4,0.3,2.8,1,4.1c1.8,3.3,5.6,5,10.1,5c3.4,0,7-0.9,10.6-2.8c6.5-3.5,10.5-9.3,10.5-14.4
			C1057.2,140.8,1056.9,139.4,1056.2,138.1"/>
		<path class="st1" d="M1201.4,150.5c-1.8-3.3-5.6-5.1-10.1-5.1c-3.4,0-7,1-10.6,2.9c-6.5,3.5-10.5,9.3-10.5,14.4
			c0,1.4,0.3,2.8,1,4.1c1.8,3.3,5.6,5,10.1,5c3.4,0,7-0.9,10.6-2.8c6.5-3.5,10.5-9.3,10.5-14.4
			C1202.4,153.2,1202.1,151.8,1201.4,150.5 M1197.2,157.2c-1.7,1.7-5.1,3.8-8.6,5.8s-7.1,3.5-9.5,4c-0.5,0.1-1,0.2-1.5,0.2
			c-1.6,0-2.8-0.6-3.5-1.9c-0.3-0.5-0.5-1.1-0.5-1.7c0-1.1,0.7-2.4,1.8-3.5c1.7-1.7,5-3.8,8.5-5.8s7.1-3.5,9.5-4
			c0.5-0.1,1-0.2,1.5-0.2c1.6,0,2.9,0.6,3.6,1.9c0.3,0.5,0.4,1.1,0.4,1.7C1198.9,154.9,1198.3,156,1197.2,157.2"/>
		<path class="st1" d="M1477.8,175.3c-1.8-3.3-5.6-5.1-10.1-5.1c-3.4,0-7,1-10.6,2.9c-6.5,3.5-10.5,9.3-10.5,14.4
			c0,1.4,0.3,2.8,1,4.1c1.8,3.3,5.6,5,10.1,5c3.4,0,7-0.9,10.6-2.8c6.5-3.5,10.5-9.3,10.5-14.4
			C1478.7,178,1478.5,176.6,1477.8,175.3"/>
		<path class="st1" d="M1632.4,200.1c-1.8-3.3-5.6-5.1-10.1-5.1c-3.4,0-7,1-10.6,2.9c-6.5,3.5-10.5,9.3-10.5,14.4
			c0,1.4,0.3,2.8,1,4.1c1.8,3.3,5.6,5,10.1,5c3.4,0,7-0.9,10.6-2.8c6.5-3.5,10.5-9.3,10.5-14.4
			C1633.4,202.8,1633.1,201.4,1632.4,200.1"/>
		<path class="st1" d="M1787,187.7c-1.8-3.3-5.6-5.1-10.1-5.1c-3.4,0-7,1-10.6,2.9c-6.5,3.5-10.5,9.3-10.5,14.4c0,1.4,0.3,2.8,1,4.1
			c1.8,3.3,5.6,5,10.1,5c3.4,0,7-0.9,10.6-2.8c6.5-3.5,10.5-9.3,10.5-14.4C1788,190.4,1787.7,189,1787,187.7"/>
		<path class="st1" d="M1975.5,187.7c-1.8-3.3-5.6-5.1-10.1-5.1c-3.4,0-7,1-10.6,2.9c-6.5,3.5-10.5,9.3-10.5,14.4
			c0,1.4,0.3,2.8,1,4.1c1.8,3.3,5.6,5,10.1,5c3.4,0,7-0.9,10.6-2.8c6.5-3.5,10.5-9.3,10.5-14.4
			C1976.5,190.4,1976.2,189,1975.5,187.7"/>
		<path class="st1" d="M2119,237.3c-1.8-3.3-5.6-5.1-10.1-5.1c-3.4,0-7,1-10.6,2.9c-6.5,3.5-10.5,9.3-10.5,14.4c0,1.4,0.3,2.8,1,4.1
			c1.8,3.3,5.6,5,10.1,5c3.4,0,7-0.9,10.6-2.8c6.5-3.5,10.5-9.3,10.5-14.4C2120,240,2119.7,238.6,2119,237.3 M2114.7,244
			c-1.7,1.7-5.1,3.8-8.6,5.8c-3.6,2-7.1,3.5-9.5,4c-0.5,0.1-1,0.2-1.5,0.2c-1.6,0-2.8-0.6-3.5-1.9c-0.3-0.5-0.5-1.1-0.5-1.7
			c0-1.1,0.7-2.4,1.8-3.5c1.7-1.7,5-3.8,8.5-5.8c3.6-2,7.1-3.5,9.5-4c0.5-0.1,1-0.2,1.5-0.2c1.6,0,2.9,0.6,3.6,1.9
			c0.3,0.5,0.4,1.1,0.4,1.7C2116.4,241.7,2115.8,242.9,2114.7,244"/>
		<path class="st1" d="M155.6,800.6c-7.5,0-13.6,4.4-13.7,4.4c-5.8,4.3-8,9.3-8.9,12.8c-0.5,1.8-0.7,3.6-0.7,5.3
			c0,2.4,0.4,4.6,1.3,6.4c1.2,2.7,3.5,4.6,6.4,5.6c1.2,0.4,2.5,0.6,3.8,0.6c2.2,0,4.5-0.6,6.3-1.7c3.1-1.7,5-5.3,5-9.1
			c0-3.5-1.8-6.6-4.8-8.5c-2.1-1.4-4.1-1.8-5.8-1.8c-1.2,0-2.3,0.2-3.2,0.5c-1,0.4-2.7,1.4-3.5,2.1c0.3-1.9,1.5-4.8,2.6-6.3
			s3.3-3.6,5-4.5c2.5-1.4,5.7-2,9.1-2c10.1,0,15.1,8.1,15.1,24.8c0,9.2-3.5,18.1-6.4,23.9c-3.3,6.5-7.6,12.8-11.5,16.3
			c-10.3,9.4-20,13.9-20.1,13.9c0,0-1.5,0.9-1.1,2.4c0.3,1,1.2,1.2,1.8,1.2c0.1,0,0.4-0.1,0.5-0.1s11.4-4.7,20.4-11.7
			c5.1-3.7,9.6-7.6,13.6-11.9c3.6-3.9,6.6-8,9.1-12.2c4.4-7.4,6.8-15.2,6.8-21.8c0-8.2-2.2-15.1-6.3-19.9
			C171.9,803.5,164.9,800.6,155.6,800.6 M186.8,813.2c0,2.8,2.2,5,4.8,5c2.6,0,4.8-2.2,4.8-5s-2.2-5.1-4.8-5.1
			C189,808.1,186.8,810.4,186.8,813.2 M186.8,837.7c0,2.8,2.2,5.1,4.8,5.1c2.6,0,4.8-2.3,4.8-5.1s-2.2-5.1-4.8-5.1
			C189,832.7,186.8,834.9,186.8,837.7"/>
		<path class="st1" d="M193.3,633.7c-1.2-5.4-3.8-9.2-4.6-10.2c-3.2-4.2-7.1-7.1-11.8-8.4c-3.1-0.9-6.1-1-8.5-0.8
			c-1-6-2-11.8-2.9-17.2c5.4-6.1,9-11.9,11.3-16.1c3.4-6.5,4.6-11.1,4.6-11.3c1.7-5.2,2.1-12.8,1-21c-1-7.5-3.1-14.1-5.4-17.4
			c-1-1.4-2.1-2.1-3.1-2.1c-1.2,0-3.7,1.2-6.6,4c-2.3,2.2-5.5,6-8.1,12c-3,7-3.2,16.4-2.8,23.1c0.4,7.2,1.5,12.9,1.5,12.9
			c0,0.1,0.3,1.6,0.7,4.1c-0.2,0.2-0.5,0.4-0.7,0.7c-1,1-2.2,2.1-3.6,3.5c-0.9,0.9-1.8,1.8-2.8,2.7c-8.4,8.1-21.1,20.3-21.1,39.3
			c0,4.7,0.9,9,2.7,13c1.6,3.6,3.9,6.8,6.8,9.7c7.7,7.5,18.2,10.7,25.2,10.5c2.9-0.1,5.5-0.3,7.9-0.8c1.8,9.5,2.9,16.5,3,21.8
			c0,6.5-1.6,10.4-5.5,13.1c-2.4,1.7-5.2,2.7-8.3,2.8c-2.6,0.1-4.8-0.3-6.2-0.8h0c0,0-0.3-0.1-0.3-0.3c0-0.2,0.3-0.2,0.3-0.2h0
			c1.9-0.4,5.4-1.7,7.8-4.9c1.8-2.5,2.6-7.1,0.8-11c-1.1-2.4-3.6-5.3-9.2-5.7c-2.5-0.2-4.7,0.3-6.7,1.5c-1.8,1.1-3.3,2.7-4.3,4.7
			c-2.4,4.7-2,10.3,1.1,14.2c2.9,3.6,7.5,5.9,12.9,6.5c0.8,0.1,1.7,0.1,2.5,0.1c4.4,0,8.8-1.2,12.3-3.4c3.6-2.5,5.7-6.5,6.4-12.1
			c0.6-4.6,0.2-10.5-1.2-18.5c-0.4-2.1-0.9-5.1-1.5-8.8c5.7-1.9,9.8-5.4,13.6-11.3C193.8,646,194.7,639.9,193.3,633.7 M159.3,659.6
			c-4.6-1.2-9-3.7-12.7-7.2c-1.3-1.2-3.2-3.4-4.6-6.7c-1.4-3.1-2-6.5-2-10.1c0.1-4.7,1.4-9.4,3.9-14.2c2.9-5.5,7.4-11,13.4-16.3
			c1.4-1.3,2.8-2.5,4.1-3.8c0.8,4.2,1.6,8.9,2.5,13.7c-3.8,1.3-8.5,4.4-11.6,10c-3.5,6.5-3.4,12-2.6,15.4c0.9,4.4,3.4,8.2,6.9,10.2
			c0.9,0.6,5,2.7,6.8,2.1c0.4-0.1,0.6-0.3,0.8-0.7c0.5-1.2-0.5-1.8-2.1-2.7c-0.6-0.4-1.3-0.8-2-1.3c-3.3-2.5-4.7-6.9-3.7-11.2
			c0.6-2.4,1.8-4.5,3.7-6.2c1.7-1.5,3.7-2.6,6-3.3c2,11.2,4.1,22.2,5.7,30.5c0.1,0.7,0.3,1.3,0.4,2
			C167.8,660.8,163.5,660.7,159.3,659.6 M170.6,626.7c10.3-0.5,14.5,6.9,15.4,11.7c0.5,2.5,0.5,6.9-1.1,11.1
			c-1.2,3.2-3.6,7.2-8.7,9.2c-0.1-0.4-0.1-0.8-0.2-1.3C174.4,648.8,172.5,637.9,170.6,626.7 M163.3,556.3c1.8-5.7,4.5-8.9,6.5-10.6
			c1.7-1.5,3.4-2.2,4.3-2.2c0.1,0,0.3,0,0.4,0c0.5,0.1,1,0.7,1.4,1.6c2.3,4.3,1.6,10.9,0.2,15.3c-1.6,5.4-4.5,10.9-13.2,20.5
			c-0.2-1.1-0.3-2.1-0.5-3.1C161.1,569.6,161.4,562.3,163.3,556.3"/>
		<path class="st1" d="M193.3,165.1c-1.2-5.4-3.8-9.2-4.6-10.2c-3.2-4.2-7.1-7.1-11.8-8.4c-3.1-0.9-6.1-1-8.5-0.8
			c-1-6-2-11.8-2.9-17.2c5.4-6.1,9-11.9,11.3-16.1c3.4-6.5,4.6-11.1,4.6-11.3c1.7-5.2,2.1-12.8,1-21c-1-7.5-3.1-14.1-5.4-17.4
			c-1-1.4-2.1-2.1-3.1-2.1c-1.2,0-3.7,1.2-6.6,4c-2.3,2.2-5.5,6-8.1,12c-3,7-3.2,16.4-2.8,23.1c0.4,7.2,1.5,12.9,1.5,12.9
			c0,0.1,0.3,1.6,0.7,4.1c-0.2,0.2-0.5,0.4-0.7,0.7c-1,1-2.2,2.1-3.6,3.5c-0.9,0.9-1.8,1.8-2.8,2.7c-8.4,8.1-21.1,20.3-21.1,39.3
			c0,4.7,0.9,9,2.7,13c1.6,3.6,3.9,6.8,6.8,9.7c7.7,7.5,18.2,10.7,25.2,10.5c2.9-0.1,5.5-0.3,7.9-0.8c1.8,9.5,2.9,16.5,3,21.8
			c0,6.5-1.6,10.4-5.5,13.1c-2.4,1.7-5.2,2.7-8.3,2.8c-2.6,0.1-4.8-0.3-6.2-0.8h0c0,0-0.3-0.1-0.3-0.3c0-0.2,0.3-0.2,0.3-0.2h0
			c1.9-0.4,5.4-1.7,7.8-4.9c1.8-2.5,2.6-7.1,0.8-11c-1.1-2.4-3.6-5.3-9.2-5.7c-2.5-0.2-4.7,0.3-6.7,1.5c-1.8,1.1-3.3,2.7-4.3,4.7
			c-2.4,4.7-2,10.3,1.1,14.2c2.9,3.6,7.5,5.9,12.9,6.5c0.8,0.1,1.7,0.1,2.5,0.1c4.4,0,8.8-1.2,12.3-3.4c3.6-2.5,5.7-6.5,6.4-12.1
			c0.6-4.6,0.2-10.5-1.2-18.5c-0.4-2.1-0.9-5.1-1.5-8.8c5.7-1.9,9.8-5.4,13.6-11.3C193.8,177.4,194.7,171.4,193.3,165.1
			 M159.3,191.1c-4.6-1.2-9-3.7-12.7-7.2c-1.3-1.2-3.2-3.4-4.6-6.7c-1.4-3.1-2-6.5-2-10.1c0.1-4.7,1.4-9.4,3.9-14.2
			c2.9-5.5,7.4-11,13.4-16.3c1.4-1.3,2.8-2.5,4.1-3.8c0.8,4.2,1.6,8.9,2.5,13.7c-3.8,1.3-8.5,4.4-11.6,10c-3.5,6.5-3.4,12-2.6,15.4
			c0.9,4.4,3.4,8.2,6.9,10.2c0.9,0.6,5,2.7,6.8,2.1c0.4-0.1,0.6-0.3,0.8-0.7c0.5-1.2-0.5-1.8-2.1-2.7c-0.6-0.4-1.3-0.8-2-1.3
			c-3.3-2.5-4.7-6.9-3.7-11.2c0.6-2.4,1.8-4.5,3.7-6.2c1.7-1.5,3.7-2.6,6-3.3c2,11.2,4.1,22.2,5.7,30.5c0.1,0.7,0.3,1.3,0.4,2
			C167.8,192.3,163.5,192.2,159.3,191.1 M170.6,158.2c10.3-0.5,14.5,6.9,15.4,11.7c0.5,2.5,0.5,6.9-1.1,11.1
			c-1.2,3.2-3.6,7.2-8.7,9.2c-0.1-0.4-0.1-0.8-0.2-1.3C174.4,180.2,172.5,169.3,170.6,158.2 M163.3,87.8c1.8-5.7,4.5-8.9,6.5-10.6
			c1.7-1.5,3.4-2.2,4.3-2.2c0.1,0,0.3,0,0.4,0c0.5,0.1,1,0.7,1.4,1.6c2.3,4.3,1.6,10.9,0.2,15.3c-1.6,5.4-4.5,10.9-13.2,20.5
			c-0.2-1.1-0.3-2.1-0.5-3.1C161.1,101,161.4,93.8,163.3,87.8"/>
		<path class="st1" d="M2399.1,867.1l-0.2-0.3c-0.1-0.1-0.3-0.3-0.6-0.7l-11.4-14.1c-0.3-0.3-0.2-1.1,0-1.5l10.1-15.3
			c0.1-0.2,0.2-0.5,0.2-0.7v-0.9c0-0.3-0.1-0.6-0.3-0.8l-16.1-21.7c0,0-0.8-1.2-1.8-0.3c-1,0.8-0.2,2.1-0.2,2.1l7.5,10.3
			c0.4,0.6,0.4,1.8,0,2.4l-10,15.3c-0.1,0.2-0.2,0.6-0.2,0.8v0.9c0,0.3,0.1,0.6,0.3,0.8l11.1,13.8c-0.4-0.1-1.3-0.3-2.5-0.3
			c-1.7,0-3.9,0.4-5.7,2c-2.2,2-3.4,4.8-3.4,7.2c0,1.4,0.3,2.8,1.1,3.9c2.1,3.2,9.5,12.6,9.5,12.6s0.9,1.1,1.8,0.4
			c0.9-0.7,0.7-1.6,0.4-2.1c-0.3-0.5-3.5-6.3-3.5-6.3s-0.7-1.4-0.7-3.2c0-1.3,0.4-2.9,1.7-4.2c1.2-1.2,2.6-1.6,3.9-1.6
			s2.4,0.4,3.2,0.9l3.9,2.5c0,0,1.2,0.6,1.8-0.3C2399.6,868,2399.4,867.6,2399.1,867.1"/>
		<path class="st1" d="M2399.1,631.4l-0.2-0.3c-0.1-0.1-0.3-0.3-0.6-0.7l-11.4-14.1c-0.3-0.3-0.2-1.1,0-1.5l10.1-15.3
			c0.1-0.2,0.2-0.5,0.2-0.7V598c0-0.3-0.1-0.6-0.3-0.8l-16.1-21.7c0,0-0.8-1.2-1.8-0.3c-1,0.8-0.2,2.1-0.2,2.1l7.5,10.3
			c0.4,0.6,0.4,1.8,0,2.4l-10,15.3c-0.1,0.2-0.2,0.6-0.2,0.8v0.9c0,0.3,0.1,0.6,0.3,0.8l11.1,13.8c-0.4-0.1-1.3-0.3-2.5-0.3
			c-1.7,0-3.9,0.4-5.7,2c-2.2,2-3.4,4.8-3.4,7.2c0,1.4,0.3,2.8,1.1,3.9c2.1,3.2,9.5,12.6,9.5,12.6s0.9,1.1,1.8,0.4
			c0.9-0.7,0.7-1.6,0.4-2.1c-0.3-0.5-3.5-6.3-3.5-6.3s-0.7-1.4-0.7-3.2c0-1.3,0.4-2.9,1.7-4.2c1.2-1.2,2.6-1.6,3.9-1.6
			s2.4,0.4,3.2,0.9l3.9,2.5c0,0,1.2,0.6,1.8-0.3C2399.6,632.3,2399.4,631.9,2399.1,631.4"/>
		<path class="st1" d="M2399.1,162.9l-0.2-0.3c-0.1-0.1-0.3-0.3-0.6-0.7l-11.4-14.1c-0.3-0.3-0.2-1.1,0-1.5L2397,131
			c0.1-0.2,0.2-0.5,0.2-0.7v-0.9c0-0.3-0.1-0.6-0.3-0.8l-16.1-21.7c0,0-0.8-1.2-1.8-0.3c-1,0.8-0.2,2.1-0.2,2.1l7.5,10.3
			c0.4,0.6,0.4,1.8,0,2.4l-10,15.3c-0.1,0.2-0.2,0.6-0.2,0.8v0.9c0,0.3,0.1,0.6,0.3,0.8l11.1,13.8c-0.4-0.1-1.3-0.3-2.5-0.3
			c-1.7,0-3.9,0.4-5.7,2c-2.2,2-3.4,4.8-3.4,7.2c0,1.4,0.3,2.8,1.1,3.9c2.1,3.2,9.5,12.6,9.5,12.6s0.9,1.1,1.8,0.4s0.7-1.6,0.4-2.1
			c-0.3-0.5-3.5-6.3-3.5-6.3s-0.7-1.4-0.7-3.2c0-1.3,0.4-2.9,1.7-4.2c1.2-1.2,2.6-1.6,3.9-1.6s2.4,0.4,3.2,0.9l3.9,2.5
			c0,0,1.2,0.6,1.8-0.3C2399.6,163.8,2399.4,163.4,2399.1,162.9"/>
		<path class="st1" d="M1946.7,925.1c0-0.2,0.9-3.6,1-3.9c0.1-0.4,1.9-6.1,5.6-11.7c2.7-4.2,12.1-16.4,11.8-16.4
			c0,0,7.3-9.4,7.8-22.2v-2.3c0-6.1-0.8-14.6-4.3-23.2c-0.4-1-0.8-2-1.9-1.6c-1.1,0.4-0.8,1.6-0.5,2.7c1.8,6.9,2.8,14.1,2.8,21.2
			c0,8.3-3,12.5-4.8,15.6c-6.5,11-15.1,16.4-19.2,17.8c-0.5,0.2-0.8,0.6-0.8,1.1v6.2v16.3c0,0.7,0.6,1.3,1.3,1.3
			C1946,925.9,1946.6,925.5,1946.7,925.1"/>
		<path class="st1" d="M1977.2,618.2c-0.1-0.3-1-3.8-1-4c-0.1-0.4-0.7-0.7-1.2-0.7c-0.7,0-1.3,0.6-1.3,1.3v16.3v6.2
			c0,0.5,0.4,0.9,0.8,1.1c4.2,1.3,12.8,6.7,19.2,17.8c1.8,3.1,4.7,7.2,4.7,15.6c0,7.1-1.1,14.7-2.9,21.6c-0.3,1.1-0.6,2.1,0.5,2.5
			s1.5-0.4,1.9-1.4c3.6-8.7,4.5-17.9,4.5-24v-1.9c-0.5-12.8-7.8-22.2-7.8-22.2c0.3,0-9.1-12.2-11.8-16.4
			C1979.1,624.2,1977.3,618.5,1977.2,618.2"/>
		<path class="st1" d="M1977.2,112.4c-0.1-0.3-1-3.8-1-4c-0.1-0.4-0.7-0.7-1.2-0.7c-0.7,0-1.3,0.6-1.3,1.3v16.3v6.2
			c0,0.5,0.4,0.9,0.8,1.1c4.2,1.3,12.8,6.7,19.2,17.8c1.8,3.1,4.7,7.2,4.7,15.6c0,7.1-1.1,14.7-2.9,21.6c-0.3,1.1-0.6,2.1,0.5,2.5
			c1.1,0.4,1.5-0.4,1.9-1.4c3.6-8.7,4.5-17.9,4.5-24v-1.9c-0.5-12.8-7.8-22.2-7.8-22.2c0.3,0-9.1-12.2-11.8-16.4
			C1979.1,118.4,1977.3,112.8,1977.2,112.4"/>
		<path class="st1" d="M254.2,289.6c0.3,0,0.5,0,0.7,0c0.1,0,0.4,0,0.8,0c1.4,0.1,2.4,0.2,3.8,0.2c0.9,0,2.2-0.1,4.1-0.1
			c0,0.5,0,0.5-0.1,2.1c0,1.6,0,2.8-0.1,3.2c-0.5-0.1-0.8-0.1-1.1-0.1c-4.6,0-8,3.4-8,8c0,3.8,2.4,6.6,5.6,6.6
			c1.2,0,1.8-0.2,2.7-0.9l0,0c-0.6,1-0.6,1-0.9,1.3c-0.8,1.3-1.2,2.9-1.2,4.3c0,4.5,3.9,6.3,12.9,6.3c6.5,0,11.2-0.8,13.9-2.5
			c2-1.2,3-3.2,3-5.8c0-2.5-0.9-6-2.5-9.3c-1.6-0.1-2.2-0.2-3.9-0.6c1.7,3,3,7,3,9.5c0,2-0.9,3.2-3,4c-2.1,0.9-6.4,1.5-10.5,1.5
			c-3.5,0-6-0.3-7.5-0.9c-1.4-0.6-2-1.4-2-2.7c0-1.5,0.6-3.2,2-5.5c2.3-3.8,2.7-4.9,2.7-7.3c0-2.3-0.6-3.8-2.1-4.9
			c0-1.8,0-2.2,0.1-6.5c2.5-0.2,5.4-0.5,8-1c0.8-0.2,1-0.2,1.6-0.2l-0.2-3.4c-1.7,0.7-5.3,1.4-9.2,1.7c0-0.7,0-0.9,0.1-1.5
			c0-1.3,0-1.3,0-1.9c0.1-2.4,0.1-2.6,0.4-3.6l-3.9,0c0.1,1,0.2,1.5,0.2,2.2c0,1.6,0,2.5-0.1,4.9c-1.4,0.1-2.1,0.1-3.1,0.1
			c-3.5,0-4.9-0.1-6.2-0.5V289.6 M262.2,297.6c2.4,0.2,3.4,1.2,3.4,3.7c0,3-2,5.5-4.7,5.5c-2.1,0-3.5-1.6-3.5-3.9
			c0-2.8,2-5.2,4.5-5.2C262,297.6,262.1,297.6,262.2,297.6 M280.8,286.4c4,2.5,8.3,6.6,11,10.5l2.8-2.4c-3.3-4.1-6.6-7.1-11.3-10.2
			L280.8,286.4"/>
		<path class="st1" d="M254.2,343.5c0.3,0,0.5,0,0.7,0c0.1,0,0.4,0,0.8,0c1.4,0.1,2.4,0.1,3.8,0.1c0.9,0,2.2,0,4.1-0.1
			c0,0.5,0,0.5-0.1,2.1c0,1.7,0,2.8-0.1,3.2c-0.5-0.1-0.8-0.1-1.1-0.1c-4.6,0-8,3.4-8,8c0,3.8,2.4,6.6,5.6,6.6
			c1.2,0,1.8-0.2,2.7-0.8l0,0c-0.6,1-0.6,1-0.9,1.3c-0.8,1.3-1.2,3-1.2,4.4c0,4.5,3.9,6.3,12.9,6.3c6.5,0,11.2-0.8,13.9-2.5
			c2-1.2,3-3.2,3-5.8c0-2.5-0.9-6-2.5-9.4c-1.6,0-2.2-0.1-3.9-0.6c1.7,3,3,7,3,9.5c0,2-0.9,3.2-3,4c-2.1,0.9-6.4,1.5-10.5,1.5
			c-3.5,0-6-0.3-7.5-0.9c-1.4-0.5-2-1.4-2-2.6c0-1.5,0.6-3.2,2-5.5c2.3-3.8,2.7-4.9,2.7-7.3c0-2.3-0.6-3.8-2.1-4.9
			c0-1.9,0-2.2,0.1-6.5c2.5-0.2,5.4-0.6,8-1.1c0.8-0.2,1-0.2,1.6-0.2l-0.2-3.3c-1.7,0.7-5.3,1.3-9.2,1.7c0-0.7,0-0.9,0.1-1.5
			c0-1.3,0-1.3,0-1.9c0.1-2.4,0.1-2.6,0.4-3.5l-3.9,0c0.1,1,0.2,1.5,0.2,2.2c0,1.6,0,2.5-0.1,4.8c-1.4,0.1-2.1,0.1-3.1,0.1
			c-3.5,0-4.9-0.1-6.2-0.5V343.5 M262.2,351.5c2.4,0.1,3.4,1.2,3.4,3.7c0,3-2,5.4-4.7,5.4c-2.1,0-3.5-1.5-3.5-3.9
			c0-2.9,2-5.2,4.5-5.2C262,351.5,262.1,351.5,262.2,351.5 M280.8,340.3c4,2.5,8.3,6.6,11,10.5l2.8-2.4c-3.3-4.1-6.6-7.1-11.3-10.2
			L280.8,340.3"/>
		<path class="st1" d="M292.7,423.1c-0.6-0.4-0.9-0.6-1.7-1.2c-5.2-3.8-9.6-6.1-14-7.3c-0.2-4.9-0.2-4.9-0.3-7.7
			c3.7-0.2,7.6-0.6,11.1-1.2c1.8-0.2,2.2-0.3,2.9-0.3l-0.2-3.5c-2.8,1-7,1.5-13.9,2c0-2.6,0-2.6-0.1-6.8c5.6-0.3,6.9-0.5,11.6-1.2
			c2.6-0.4,2.6-0.4,3.5-0.4l-0.2-3.4c-2.8,0.9-7.9,1.6-14.8,2.1c0.1-3.6,0.2-6,0.4-7.1h-3.9c0.2,1.1,0.2,1.1,0.2,7.2
			c-1.6,0-3.3,0-4.3,0c-5.5,0-10.7-0.4-12.8-1l0,3.4c0.3,0,0.5,0,0.7,0c0.2,0,0.6,0,0.9,0c4.5,0.3,8.5,0.5,12.2,0.5c1.1,0,2,0,3.4,0
			l0.1,6.8c-1.4,0-3.1,0-4.4,0c-5.1,0-9.2-0.3-11.5-0.8l0,3.3c0.1,0,0.3,0,0.4,0c0.3,0,0.7,0,1.2,0.1c3.1,0.2,5.4,0.3,8.4,0.3
			c1.6,0,4.1,0,5.9-0.1c0,1.3,0,2.2,0.1,2.9c0.1,1.5,0.1,2.5,0.1,3c0,0.3,0.1,0.5,0.1,0.5c0,0.5,0,0.5,0,0.6
			c-2.1-0.4-2.9-0.4-4.5-0.4c-2.2,0-3.7,0.2-5.2,0.5c-4.4,1-7,3.6-7,6.9c0,2,1,4,2.7,5.2c1.7,1.3,4.5,2,7.8,2c4,0,7-1.1,8.5-3.2
			c0.9-1.2,1.2-2.8,1.2-5.5c0-0.6,0-0.6-0.1-1.8c1.4,0.5,2.5,1,3.4,1.5c4.2,2.2,7.9,4.8,10.2,7.2L292.7,423.1 M273.9,419
			c0,2.4-0.3,3.8-1,4.5c-0.9,1.1-2.8,1.7-5.5,1.7c-4.3,0-6.8-1.5-6.8-4.2c0-2.6,3.2-4.4,8.2-4.4c2.2,0,3.2,0.1,5.1,0.5L273.9,419"/>
		<path class="st1" d="M256.5,450.4c0.4,0,0.6,0,0.8,0c0.1,0,0.5,0,0.9,0c4,0.2,6.2,0.2,6.8,0.2h2c-0.2,3.7-0.2,3.9-0.3,7.5
			c-7.2,3.2-11.6,8.8-11.6,14.9c0,4.5,2.7,7.6,6.5,7.6c3.5,0,7.3-2,11.1-6c3.9-4,6.6-8.2,9.5-15c5.4,1.4,8.2,4.4,8.2,8.7
			c0,4.5-3.1,8.1-8.6,10c-2.4,0.8-4.5,1.2-7.5,1.3c0.9,1.4,1.2,1.9,1.6,3.4c4.5-0.6,7.4-1.4,10.2-2.9c5.1-2.7,7.9-6.6,7.9-11.5
			c0-5.8-3.9-10.1-10.8-11.7c0.8-2.3,1.4-3.7,1.5-4l-3.5-1c-0.2,1.5-0.6,3-1.2,4.5c-1.2-0.1-1.9-0.2-2.9-0.2c-2.7,0-4.9,0.3-7.4,1
			c0.1-2.4,0.1-2.4,0.4-6.7c4.6-0.2,12.2-1,17.7-2c0.9-0.2,1.1-0.2,1.8-0.2l-0.2-3.5c-3.8,1.3-10.9,2.4-19,2.8c0.4-3.9,0.6-5.6,1-7
			l-3.9-0.2c0,0.3,0,0.6,0,0.8c0,0.3-0.1,2.3-0.1,2.8c-0.2,2.5-0.2,2.5-0.2,3.8c-0.9,0-1.1,0-1.2,0c-4.6,0-7.2-0.2-9.4-0.8
			L256.5,450.4 M266.6,461.3c0,6,0.3,9.7,1,13.5c-2.2,1.8-3.9,2.5-5.8,2.5c-2.1,0-3.6-1.8-3.6-4.5c0-2.5,1.1-5.2,3.1-7.5
			C262.7,463.8,264.2,462.7,266.6,461.3 M270.3,472.8c0-0.2,0-0.5,0-0.6c0-0.3,0-0.4-0.1-0.7c-0.4-4.2-0.5-5-0.5-11.5
			c2.3-0.8,4.6-1.2,7-1.2c0.5,0,0.8,0,2.4,0.1c-2.3,5.2-4.4,8.8-7.6,12.5c-0.4,0.4-0.5,0.5-1,1.3L270.3,472.8"/>
		<path class="st1" d="M393,295.2c1.4-0.3,1.8-0.5,2.9-0.6c0.5-0.1,2.8-0.5,7.2-1.2c-1.7,6.5-3.2,10.8-5.5,15.8
			c-1.8,3.8-3.7,7.1-5.2,9.1l3.4,2c1.6-2.8,2.6-4.8,3.2-6c3.4-6.9,5.7-13.3,7.6-21.2c1.8-0.2,2.5-0.2,3.6-0.2c4.7,0,6.2,1.7,6.2,7
			c0,5.6-0.8,10.7-2.1,13.9c-0.6,1.6-1.6,2.4-2.8,2.4c-1.8,0-4.6-0.8-7.5-2.3c0.2,0.9,0.2,1.2,0.2,2c0,0.6,0,1-0.1,1.8
			c3.3,1.4,5.4,2,7.5,2c2.4,0,3.7-0.7,4.9-2.4c2-2.9,3.3-9.5,3.3-17.2c0-4.1-0.7-6.4-2.4-8c-1.6-1.5-3.7-2.1-7.2-2.1
			c-1.2,0-1.8,0-3,0.1c0.5-2.4,0.8-4.2,1-5.7c0.5-2.9,0.6-3.7,1-4.8l-4-0.4c0,0.3,0,0.5,0,0.6c0,2.1-0.7,6.9-1.5,10.6
			c-4,0.6-9.2,1.2-11,1.3L393,295.2 M422.5,288.6c4.9,5,8.3,11,10.2,18l3.2-1.9c-2.3-7-5.3-12.2-10.5-17.7L422.5,288.6"/>
		<path class="st1" d="M393,349.1c1.4-0.3,1.8-0.5,2.9-0.7c0.5-0.1,2.8-0.5,7.2-1.1c-1.7,6.5-3.2,10.8-5.5,15.8
			c-1.8,3.8-3.7,7.1-5.2,9l3.4,2c1.6-2.8,2.6-4.8,3.2-6c3.4-6.9,5.7-13.3,7.6-21.2c1.8-0.2,2.5-0.2,3.6-0.2c4.7,0,6.2,1.7,6.2,7
			c0,5.6-0.8,10.7-2.1,13.9c-0.6,1.6-1.6,2.4-2.8,2.4c-1.8,0-4.6-0.9-7.5-2.3c0.2,0.9,0.2,1.2,0.2,2c0,0.6,0,1-0.1,1.8
			c3.3,1.4,5.4,1.9,7.5,1.9c2.4,0,3.7-0.6,4.9-2.3c2-2.9,3.3-9.5,3.3-17.2c0-4.1-0.7-6.4-2.4-8c-1.6-1.5-3.7-2.1-7.2-2.1
			c-1.2,0-1.8,0-3,0.1c0.5-2.4,0.8-4.2,1-5.7c0.5-2.8,0.6-3.7,1-4.8l-4-0.5c0,0.3,0,0.6,0,0.7c0,2.1-0.7,6.9-1.5,10.6
			c-4,0.7-9.2,1.2-11,1.3L393,349.1 M422.5,342.5c4.9,4.9,8.3,11,10.2,17.9l3.2-1.8c-2.3-7-5.3-12.2-10.5-17.7L422.5,342.5"/>
		<path class="st1" d="M395.2,402.5c0.8-0.4,1.5-0.6,3.6-1.2c8.7-2.4,15.2-3.6,20.4-3.6c6.8,0,10.9,3.4,10.9,9
			c0,5.6-3.8,10.1-10.7,12.6c-3.8,1.4-8.3,2.1-13.9,2.3c0.9,1.3,1.2,2,1.5,3.7c7.8-0.7,12-1.6,16.5-3.8c6.7-3.2,10.4-8.5,10.4-14.8
			c0-7.7-5.8-12.5-15-12.5c-4.1,0-9,0.6-14.5,1.8c-8.9,2-8.9,2-10.4,2.1L395.2,402.5"/>
		<path class="st1" d="M396.1,450.4c0.3,0,0.6,0,0.8,0c0.1,0,0.5,0,0.9,0c4,0.2,6.2,0.2,6.8,0.2h2c-0.2,3.7-0.2,3.9-0.3,7.5
			c-7.2,3.2-11.6,8.8-11.6,14.9c0,4.5,2.7,7.6,6.5,7.6c3.5,0,7.3-2,11.1-6c3.9-4,6.6-8.2,9.5-15c5.4,1.4,8.2,4.4,8.2,8.7
			c0,4.5-3.1,8.1-8.6,10c-2.4,0.8-4.5,1.2-7.5,1.3c0.9,1.4,1.1,1.9,1.6,3.4c4.5-0.6,7.4-1.4,10.2-2.9c5.2-2.7,7.8-6.6,7.8-11.5
			c0-5.8-3.8-10.1-10.8-11.7c0.9-2.3,1.4-3.7,1.6-4l-3.5-1c-0.2,1.5-0.6,3-1.2,4.5c-1.2-0.1-1.8-0.2-2.9-0.2c-2.6,0-4.8,0.3-7.4,1
			c0-2.4,0-2.4,0.3-6.7c4.7-0.2,12.2-1,17.7-2c1-0.2,1.1-0.2,1.8-0.2l-0.2-3.5c-3.8,1.3-10.9,2.4-19,2.8c0.3-3.9,0.6-5.6,1-7
			l-3.9-0.2c0,0.3,0,0.6,0,0.8c0,0.3-0.1,2.3-0.2,2.8c-0.2,2.5-0.2,2.5-0.2,3.8c-0.9,0-1.1,0-1.2,0c-4.6,0-7.2-0.2-9.3-0.8
			L396.1,450.4 M406.3,461.3c0,6,0.3,9.7,1,13.5c-2.2,1.8-3.9,2.5-5.8,2.5c-2.1,0-3.6-1.8-3.6-4.5c0-2.5,1.1-5.2,3-7.5
			C402.4,463.8,403.8,462.7,406.3,461.3 M410,472.8c0-0.2,0-0.5,0-0.6c0-0.3,0-0.4,0-0.7c-0.5-4.2-0.5-5-0.5-11.5
			c2.3-0.8,4.6-1.2,6.9-1.2c0.6,0,0.8,0,2.4,0.1c-2.3,5.2-4.4,8.8-7.7,12.5c-0.4,0.4-0.4,0.5-0.9,1.3L410,472.8"/>
		<path class="st1" d="M538.2,280.2c0.2,1,0.2,1.6,0.2,2.7c0,0.8,0,1.8,0,3.2c-0.4,15.8-0.5,17-0.5,20.3c0,5.2,0.7,7.9,2.8,10.2
			c2,2.3,5.2,3.5,9.4,3.5c5.8,0,10.5-2,14.1-6.2c2.2-2.5,3.7-5.5,5.5-11.3c-1.6-0.8-2.2-1.2-3.6-2.4c-0.7,3.5-1.3,5.5-2.5,7.9
			c-2.8,5.7-7.5,8.7-13.4,8.7c-2.6,0-4.8-0.7-6.2-2c-1.5-1.4-2.1-3-2.3-6c0-1.2-0.1-2.4-0.1-3c0-2.2,0.1-9,0.3-15
			c0.2-6.3,0.3-8.9,0.7-10.6H538.2"/>
		<path class="st1" d="M538.2,334.1c0.2,1,0.2,1.6,0.2,2.7c0,0.8,0,1.8,0,3.2c-0.4,15.8-0.5,17-0.5,20.3c0,5.2,0.7,7.9,2.8,10.2
			c2,2.3,5.2,3.5,9.4,3.5c5.8,0,10.5-2,14.1-6.2c2.2-2.5,3.7-5.5,5.5-11.3c-1.6-0.8-2.2-1.2-3.6-2.4c-0.7,3.5-1.3,5.5-2.5,7.9
			c-2.8,5.7-7.5,8.7-13.4,8.7c-2.6,0-4.8-0.7-6.2-1.9c-1.5-1.4-2.1-3-2.3-6c0-1.2-0.1-2.4-0.1-3c0-2.2,0.1-9.1,0.3-15.1
			c0.2-6.3,0.3-8.8,0.7-10.5H538.2"/>
		<path class="st1" d="M538,388.1c-0.1,1.1-0.2,1.6-0.7,4c-1.7,7.4-2.2,12.7-2.2,19.8c0,5.2,0.3,8.8,1.3,14.1c0.2,1,0.2,1.2,0.3,2
			l3.6-0.3c0-0.3,0-0.6,0-0.8c0-2.8,1.8-8.8,4-13.8l-2.4-1.1c-1.6,3.6-2.5,6.4-3.2,9.8c-0.2-2.7-0.3-5.6-0.3-9.5
			c0-6,0.5-10.4,1.5-15.7c0.8-3.4,1.4-5.8,2.1-8L538,388.1 M548.3,397.5c3.2,0.4,5.2,0.5,8,0.5c3.8,0,7.8-0.2,10.8-0.6
			c2.2-0.3,3.3-0.5,3.5-0.5l-0.2-3.5c-3.4,0.9-7.9,1.3-13.4,1.3c-3.9,0-6.3-0.2-8.5-0.8L548.3,397.5 M552,407.3
			c-3.1,3.6-4.4,6.2-4.4,9.3c0,1.8,0.5,3.3,1.5,4.6c2.2,2.6,5.8,3.8,11.5,3.8c3.4,0,6.8-0.3,10.2-1c1-0.1,1.1-0.2,1.8-0.2l-0.5-3.8
			c-2.7,1.1-7,1.8-11.5,1.8c-6.5,0-9.6-1.8-9.6-5.5c0-2.2,1.2-4.6,3.8-7.4L552,407.3"/>
		<path class="st1" d="M540.4,448.6c0.6,0,0.8,0,1.6,0.1c3.2,0.4,7.5,0.7,11,0.7c2.9,0,4.6-0.2,7.6-0.7c-0.5,0.3-0.6,0.3-1,0.5
			c-0.6,0.3-0.7,0.4-1.2,0.7c-2.2,1.2-3.5,2-6.7,4.2l2.5,2c4.9-3.5,9.5-6.3,12.6-7.6l-0.2-3.3c-2.8,0.7-6.8,1-12.7,1
			c-5.7,0-9.6-0.3-13.3-1.2L540.4,448.6 M543.4,461.4c-3.9,3.2-5.8,6.4-5.8,9.7c0,3.4,2,6,5.7,7.5c2.4,1,6.7,1.5,11.5,1.5
			c4.4,0,9.1-0.4,13.5-1.2c0.8-0.1,1-0.2,1.7-0.2l-0.4-4.1c-2.8,1.2-8.8,1.9-15,1.9c-4,0-7.2-0.4-9.2-1c-2.8-1-4.2-2.6-4.2-4.9
			c0-2.3,1.5-4.7,4.8-7.3L543.4,461.4"/>
		<path class="st1" d="M696.2,286.1c2.5,0.1,3.9,0.5,5.8,1.2c5,2.2,8,6.8,8,12.5c0,6.2-3.4,11.5-8.9,14c-2.3,1.1-4.7,1.8-8.3,2.3
			c1,1.2,1.2,1.7,1.8,3.4c3.5-0.8,5.3-1.4,7.6-2.3c7.2-3.1,11.5-9.5,11.5-17.2c0-4.8-1.7-9.2-4.8-12.2c-3.2-3.2-8.2-5-13.8-5
			c-6.7,0-12.2,2.2-16.2,6.7c-3.3,3.8-5.2,8.7-5.2,13.8c0,7,3.5,12.2,8.3,12.2c3.6,0,6.5-3,9.5-9.6
			C693.5,300.7,695.4,293,696.2,286.1 M692.6,286.1c-0.6,6.4-2.5,13.8-4.5,18.5c-2.2,4.9-4.2,7.2-6.2,7.2c-2.7,0-4.8-3.7-4.8-8.5
			c0-6.2,3.1-11.8,8.1-14.9C687.4,287.1,689.6,286.4,692.6,286.1"/>
		<path class="st1" d="M696.2,340c2.5,0.1,3.9,0.4,5.8,1.2c5,2.2,8,6.8,8,12.5c0,6.1-3.4,11.5-8.9,14c-2.3,1.1-4.7,1.8-8.3,2.3
			c1,1.2,1.2,1.7,1.8,3.4c3.5-0.8,5.3-1.4,7.6-2.3c7.2-3.1,11.5-9.5,11.5-17.2c0-4.8-1.7-9.1-4.8-12.2c-3.2-3.2-8.2-5-13.8-5
			c-6.7,0-12.2,2.2-16.2,6.6c-3.3,3.8-5.2,8.7-5.2,13.8c0,7,3.5,12.2,8.3,12.2c3.6,0,6.5-3,9.5-9.6
			C693.5,354.6,695.4,346.9,696.2,340 M692.6,340c-0.6,6.4-2.5,13.8-4.5,18.5c-2.2,4.9-4.2,7.2-6.2,7.2c-2.7,0-4.8-3.7-4.8-8.5
			c0-6.2,3.1-11.9,8.1-14.9C687.4,341,689.6,340.3,692.6,340"/>
		<path class="st1" d="M683.1,391.1c6.7,1.9,12.8,2.8,21,3.3l0.5-3.6c-8.2-0.1-15.5-1.2-20.3-3.1L683.1,391.1 M677.9,407.3
			c3.9-1.6,13.9-3.4,19-3.4c2.6,0,4.9,0.4,6.2,1.1c2,1.1,3.2,3.1,3.2,5.6c0,2.3-0.9,4.5-2.5,6.8c-1.2,1.5-2.3,2.5-4.3,3.5
			c-4.2,2.4-8.8,3.7-14,4.1c0.8,1.2,1,1.6,1.6,3.6c7.4-1.4,10.7-2.5,14.5-4.8c5.5-3.4,8.6-8.1,8.6-13.5c0-3.5-1.5-6.2-4.2-8
			c-2-1.3-4.8-1.9-8.6-1.9c-4,0-8.6,0.5-15.2,1.8c-3.9,0.8-3.9,0.8-5.1,0.8L677.9,407.3"/>
		<path class="st1" d="M683.1,445c6.7,1.9,12.8,2.9,21,3.3l0.5-3.6c-8.2-0.1-15.5-1.2-20.3-3.1L683.1,445 M677.9,461.2
			c3.9-1.6,13.9-3.3,19-3.3c2.6,0,4.9,0.4,6.2,1.1c2,1.1,3.2,3.1,3.2,5.6c0,2.3-0.9,4.5-2.5,6.8c-1.2,1.5-2.3,2.5-4.3,3.5
			c-4.2,2.4-8.8,3.7-14,4c0.8,1.2,1,1.7,1.6,3.7c7.4-1.4,10.7-2.5,14.5-4.8c5.5-3.4,8.6-8.2,8.6-13.5c0-3.5-1.5-6.2-4.2-8
			c-2-1.3-4.8-1.9-8.6-1.9c-4,0-8.6,0.5-15.2,1.8c-3.9,0.8-3.9,0.8-5.1,0.8L677.9,461.2"/>
		<path class="st1" d="M875.3,286.9c0.5,0,0.5,0,1.4-0.2c7.2-0.5,7.7-0.6,11.2-1.5c-2.8,2.4-2.8,2.4-4.5,4.5
			c-4.3,5.4-6.7,11.1-6.7,16.7c0,8.2,5.5,13.9,13.3,13.9c5.9,0,11.2-3.4,13.4-8.7c1.3-3.1,1.9-6.5,1.9-10.2c0-4-0.4-6.6-2-11.4
			c0.4,0.7,0.4,0.7,1,1.8c0.5,1,0.9,1.6,1.7,2.9c1.8,2.8,3.6,5,6.3,7.3c1.2,1,1.2,1,2,1.8l1.9-3.5c-0.8-0.3-1-0.5-1.8-1.2
			c-3.1-2.5-5.1-4.7-7.2-7.8c-2-2.9-4-6.6-4.7-9.1l-3.6,1.2c1.8,3.8,3.1,10.4,3.1,16.1c0,4.3-0.5,7.5-1.8,10.5
			c-1.8,4.1-5.9,6.8-10.3,6.8c-5.7,0-9.8-4.3-9.8-10.3c0-5.1,2.3-10.5,6.8-16c2.1-2.5,3.2-3.5,5.8-5.3l-2.1-3.2
			c-1.8,0.9-7.7,1.6-13.2,1.6c-1.1,0-1.5,0-2.4-0.2L875.3,286.9"/>
		<path class="st1" d="M875.3,340.8c0.5,0,0.5,0,1.4-0.2c7.2-0.5,7.7-0.6,11.2-1.5c-2.8,2.4-2.8,2.4-4.5,4.5
			c-4.3,5.3-6.7,11.1-6.7,16.7c0,8.2,5.5,13.9,13.3,13.9c5.9,0,11.2-3.4,13.4-8.7c1.3-3,1.9-6.5,1.9-10.2c0-3.9-0.4-6.6-2-11.3
			c0.4,0.7,0.4,0.7,1,1.8c0.5,1,0.9,1.6,1.7,2.9c1.8,2.8,3.6,4.9,6.3,7.3c1.2,1,1.2,1,2,1.8l1.9-3.5c-0.8-0.3-1-0.5-1.8-1.2
			c-3.1-2.4-5.1-4.6-7.2-7.8c-2-2.9-4-6.6-4.7-9.1l-3.6,1.2c1.8,3.8,3.1,10.4,3.1,16.1c0,4.3-0.5,7.5-1.8,10.5
			c-1.8,4.1-5.9,6.8-10.3,6.8c-5.7,0-9.8-4.3-9.8-10.3c0-5.1,2.3-10.5,6.8-16c2.1-2.5,3.2-3.5,5.8-5.4l-2.1-3.1
			c-1.8,0.9-7.7,1.6-13.2,1.6c-1.1,0-1.5,0-2.4-0.2L875.3,340.8"/>
		<path class="st1" d="M886.3,387.8c0.3,0.8,0.4,1,0.8,3.1c1.3,6.4,2.2,9.9,3.7,14c-3.1,1.5-4.7,2.5-6.6,4c-2.9,2.4-4.4,5.3-4.4,8.5
			c0,4,2.1,6.7,6.2,8.2c2.4,0.9,6.2,1.4,11.1,1.4c3.5,0,5.9-0.2,11-0.7c2.8-0.3,2.8-0.3,3.7-0.3l-0.4-4.2c-3,1-8.6,1.7-14.3,1.7
			c-9.8,0-13.7-1.8-13.7-6.3c0-4.2,3.7-7.5,12.2-10.9c4.4-1.8,11.6-4.1,15.1-4.8l-1.5-3.8c-1,0.5-1.4,0.6-3.2,1.3
			c-7.8,2.7-9.2,3.2-12.1,4.5c-1.7-5-3.5-13.2-3.8-16.5L886.3,387.8"/>
		<path class="st1" d="M857.2,442.3c0.2,1,0.2,1.6,0.2,2.6c0,0.9,0,1.8,0,3.2c-0.4,15.8-0.5,17-0.5,20.4c0,5.2,0.7,7.9,2.8,10.2
			c2,2.3,5.2,3.5,9.4,3.5c5.8,0,10.6-2,14.1-6.2c2.2-2.6,3.7-5.5,5.6-11.3c-1.5-0.8-2.2-1.3-3.6-2.5c-0.7,3.5-1.3,5.5-2.5,7.8
			c-2.8,5.7-7.4,8.7-13.4,8.7c-2.6,0-4.9-0.7-6.2-2c-1.5-1.3-2.2-3-2.4-6c0-1.1-0.1-2.4-0.1-3c0-2.2,0.2-9,0.3-15
			c0.2-6.3,0.4-8.8,0.7-10.5L857.2,442.3 M873,444.7c1.4,1.6,3.8,5.3,5.1,8l2.5-1.5c-1.5-3-2.9-5-5.1-7.8L873,444.7 M878.5,441.9
			c2,2.3,4.1,5.5,5.1,7.8l2.6-1.4c-1.7-3.2-2.9-5-5.2-7.8L878.5,441.9 M918.4,449.2c0.2,0.7,0.2,1,0.2,1.6l0,5.5
			c0.1,5,0.1,6.5,0.3,9.9c0.2,4.2,0.2,4.2,0.2,4.4c0,0.3,0,0.3,0.1,0.6c-0.6-0.2-2.4-0.5-3.8-0.5c-2.1,0-4.3,0.4-6,1.1
			c-2.4,1-3.8,3.1-3.8,5.4c0,1.6,0.7,3,1.8,4.1c1.3,1.2,3.7,1.9,6.7,1.9c3.4,0,5.9-0.9,7.2-2.5c0.7-0.9,1.2-2.7,1.2-4
			c0-0.7-0.1-1.4-0.1-1.8c0.4,0.2,0.7,0.4,0.8,0.4c3.6,1.6,7.8,4.3,9.7,6.5l1.9-3.1c-0.5-0.3-0.8-0.4-1.2-0.8
			c-3.1-2.2-3.5-2.5-4.8-3.2c-2.2-1.2-4.2-2.2-6.4-2.9c-0.3-4.3-0.4-7-0.5-10.3c2.9,0,5.3-0.2,9.2-0.8c2.2-0.3,2.2-0.3,2.7-0.3
			l-0.4-3.2c-2.3,0.8-7.2,1.5-11.6,1.5c-0.1-2.2-0.1-3.4-0.1-3.5c0-3.5,0.1-4.8,0.3-5.8L918.4,449.2 M919.3,473.9
			c0.1,0,0.2,1.3,0.2,2c0,1.3-0.2,2.2-0.7,2.9c-0.8,1-2.3,1.5-4.8,1.5c-3.3,0-5.2-1.1-5.2-3.1c0-2.3,2.4-3.7,6.3-3.7
			C916.6,473.4,917.7,473.5,919.3,473.9"/>
		<path class="st1" d="M1020,295.2c1.3-0.3,1.8-0.5,2.9-0.6c0.4-0.1,2.8-0.5,7.1-1.2c-1.6,6.5-3.1,10.8-5.5,15.8
			c-1.7,3.8-3.6,7.1-5.2,9.1l3.4,2c1.5-2.8,2.6-4.8,3.2-6c3.4-6.9,5.7-13.3,7.5-21.2c1.9-0.2,2.5-0.2,3.6-0.2c4.6,0,6.1,1.7,6.1,7
			c0,5.6-0.8,10.7-2.1,13.9c-0.7,1.6-1.6,2.4-2.8,2.4c-1.8,0-4.6-0.8-7.4-2.3c0.1,0.9,0.1,1.2,0.1,2c0,0.6,0,1-0.1,1.8
			c3.3,1.4,5.4,2,7.6,2c2.3,0,3.7-0.7,4.9-2.4c2-2.9,3.3-9.5,3.3-17.2c0-4.1-0.7-6.4-2.5-8c-1.5-1.5-3.6-2.1-7.2-2.1
			c-1.2,0-1.8,0-2.9,0.1c0.4-2.4,0.8-4.2,1-5.7c0.5-2.9,0.6-3.7,1-4.8l-4-0.4c0,0.3,0,0.5,0,0.6c0,2.1-0.7,6.9-1.5,10.6
			c-4.1,0.6-9.2,1.2-11,1.3L1020,295.2 M1049.5,288.6c4.8,5,8.3,11,10.2,18l3.2-1.9c-2.4-7-5.4-12.2-10.5-17.7L1049.5,288.6"/>
		<path class="st1" d="M1020,349.1c1.3-0.3,1.8-0.5,2.9-0.7c0.4-0.1,2.8-0.5,7.1-1.1c-1.6,6.5-3.1,10.8-5.5,15.8
			c-1.7,3.8-3.6,7.1-5.2,9l3.4,2c1.5-2.8,2.6-4.8,3.2-6c3.4-6.9,5.7-13.3,7.5-21.2c1.9-0.2,2.5-0.2,3.6-0.2c4.6,0,6.1,1.7,6.1,7
			c0,5.6-0.8,10.7-2.1,13.9c-0.7,1.6-1.6,2.4-2.8,2.4c-1.8,0-4.6-0.9-7.4-2.3c0.1,0.9,0.1,1.2,0.1,2c0,0.6,0,1-0.1,1.8
			c3.3,1.4,5.4,1.9,7.6,1.9c2.3,0,3.7-0.6,4.9-2.3c2-2.9,3.3-9.5,3.3-17.2c0-4.1-0.7-6.4-2.5-8c-1.5-1.5-3.6-2.1-7.2-2.1
			c-1.2,0-1.8,0-2.9,0.1c0.4-2.4,0.8-4.2,1-5.7c0.5-2.8,0.6-3.7,1-4.8l-4-0.5c0,0.3,0,0.6,0,0.7c0,2.1-0.7,6.9-1.5,10.6
			c-4.1,0.7-9.2,1.2-11,1.3L1020,349.1 M1049.5,342.5c4.8,4.9,8.3,11,10.2,17.9l3.2-1.8c-2.4-7-5.4-12.2-10.5-17.7L1049.5,342.5"/>
		<path class="st1" d="M1030.7,391.1c6.7,1.9,12.8,2.8,21,3.3l0.6-3.6c-8.2-0.1-15.5-1.2-20.3-3.1L1030.7,391.1 M1025.5,407.3
			c3.9-1.6,13.9-3.4,19-3.4c2.6,0,4.9,0.4,6.2,1.1c2.1,1.1,3.2,3.1,3.2,5.6c0,2.3-0.9,4.5-2.6,6.8c-1.2,1.5-2.3,2.5-4.3,3.5
			c-4.2,2.4-8.8,3.7-14,4.1c0.8,1.2,0.9,1.6,1.6,3.6c7.4-1.4,10.7-2.5,14.5-4.8c5.6-3.4,8.6-8.1,8.6-13.5c0-3.5-1.4-6.2-4.2-8
			c-2-1.3-4.8-1.9-8.6-1.9c-3.9,0-8.6,0.5-15.2,1.8c-3.9,0.8-3.9,0.8-5.1,0.8L1025.5,407.3"/>
		<path class="st1" d="M1030.7,445c6.7,1.9,12.8,2.9,21,3.3l0.6-3.6c-8.2-0.1-15.5-1.2-20.3-3.1L1030.7,445 M1025.5,461.2
			c3.9-1.6,13.9-3.3,19-3.3c2.6,0,4.9,0.4,6.2,1.1c2.1,1.1,3.2,3.1,3.2,5.6c0,2.3-0.9,4.5-2.6,6.8c-1.2,1.5-2.3,2.5-4.3,3.5
			c-4.2,2.4-8.8,3.7-14,4c0.8,1.2,0.9,1.7,1.6,3.7c7.4-1.4,10.7-2.5,14.5-4.8c5.6-3.4,8.6-8.2,8.6-13.5c0-3.5-1.4-6.2-4.2-8
			c-2-1.3-4.8-1.9-8.6-1.9c-3.9,0-8.6,0.5-15.2,1.8c-3.9,0.8-3.9,0.8-5.1,0.8L1025.5,461.2"/>
		<path class="st1" d="M1174.4,278.7c0,0.6,0,0.9-0.1,1.6c-1.2,8.8-1.7,13.5-1.7,18.5c0,0.2,0,0.7,0,1.1l0.1,5.2l0.1,0.9
			c0,0.1,0,0.3,0,0.5l3.6-0.2c0-0.8,0-1,0-1.2c0-3.6,0.9-7.5,2.7-11.1c2.8-5.9,6.1-8.7,9.8-8.7c4.8,0,7.6,4.7,7.6,12.7
			c0,8-2.8,13.2-8.6,16.6c-2.9,1.7-5.5,2.5-10.2,3.2c1.1,1.3,1.4,1.9,2,3.4c3.5-0.8,6.5-1.8,8.9-2.9c7.5-3.8,11.6-10.6,11.6-19.7
			c0-5.3-0.9-9-3-12.2c-2-2.9-4.8-4.4-8-4.4c-3.9,0-7.2,2.1-10,6.4c-1.5,2.2-2.5,4.7-3.1,7.5c-0.2,1-0.2,1-0.3,1.5l-0.2,0
			c0.1-2.5,0.8-8,1.6-13c0.5-2.7,0.8-4.1,1.2-5.2L1174.4,278.7"/>
		<path class="st1" d="M1174.4,332.6c0,0.6,0,0.9-0.1,1.6c-1.2,8.8-1.7,13.5-1.7,18.4c0,0.2,0,0.7,0,1.2l0.1,5.2l0.1,0.9
			c0,0.1,0,0.3,0,0.6l3.6-0.2c0-0.8,0-1,0-1.2c0-3.6,0.9-7.5,2.7-11.1c2.8-5.9,6.1-8.7,9.8-8.7c4.8,0,7.6,4.6,7.6,12.7
			c0,8-2.8,13.2-8.6,16.6c-2.9,1.7-5.5,2.5-10.2,3.2c1.1,1.3,1.4,1.9,2,3.4c3.5-0.8,6.5-1.8,8.9-3c7.5-3.8,11.6-10.6,11.6-19.6
			c0-5.4-0.9-9-3-12.2c-2-2.9-4.8-4.5-8-4.5c-3.9,0-7.2,2.2-10,6.5c-1.5,2.2-2.5,4.7-3.1,7.5c-0.2,1-0.2,1-0.3,1.5l-0.2,0
			c0.1-2.6,0.8-8,1.6-13.1c0.5-2.7,0.8-4.1,1.2-5.1L1174.4,332.6"/>
		<path class="st1" d="M1178.4,401.3c0.1,0,0.2,0,0.2,0c0.1,0,0.2,0,0.5,0.1c0.1,0,0.4,0,0.8,0c0.2,0,0.8,0,1.6,0.1
			c1.8,0.1,3.6,0.2,5.7,0.2c1.9,0,3.4,0,5.7-0.2c0.2,7.3,0.4,12,0.5,13c-1.1-0.6-3.5-1-5.5-1c-5.6,0-9.5,3-9.5,7.1
			c0,4.3,3.7,7.1,9.4,7.1c4.1,0,7.2-1.5,8.3-4.2c0.4-0.9,0.6-2.1,0.6-3.4c0-0.5,0-0.5-0.1-1.3c0.2,0.1,0.2,0.1,0.5,0.3
			c0.3,0.2,0.3,0.2,0.5,0.3c3.5,2,5.5,3.5,7.1,5.2l1.6-3.5c-0.6-0.4-0.7-0.5-1.2-0.9c-3.3-2.4-4.7-3.2-8.4-4.9
			c-0.4-6.7-0.5-9.2-0.5-14.2c2.6-0.3,4-0.5,5.3-0.8c3.4-0.7,3.4-0.7,3.5-0.7l-0.1-3.4c-1.9,0.8-4.8,1.4-8.7,1.8
			c-0.1-1.1-0.1-1.9-0.1-2.5c0-4.1,0.1-6.5,0.3-7.8h-3.8c0.1,0.5,0.2,1.2,0.2,2c0,3.8,0,3.8,0.1,8.5c-2.1,0.1-3.4,0.2-5.3,0.2
			c-4.4,0-6.6-0.2-9-0.8L1178.4,401.3 M1193.4,417.6c0,0,0.1,1.1,0.1,1.5c0,1.9-0.3,3.1-1,3.9c-0.9,1.1-2.9,1.8-5.1,1.8
			c-3.5,0-5.8-1.6-5.8-4c0-2.5,2.6-4.2,6.5-4.2C1190.1,416.5,1191.4,416.8,1193.4,417.6 M1169.5,387.8c0,0.6-0.1,0.9-0.5,3.1
			c-2,8.7-2.6,13.9-2.6,20.5c0,5.1,0.5,10.2,1.4,14.9c0.2,1.1,0.2,1.4,0.3,1.8l3.5-0.3c-0.1-0.7-0.1-0.8-0.1-1c0-3,2-9.3,4.3-14.2
			l-2.5-1.2c-0.1,0.4-0.2,0.6-0.4,1c-1.7,4.1-2.1,5.1-3,8.8l-0.2-0.1c0-0.5,0-0.5,0-0.9c-0.1-0.9-0.1-1-0.1-1.4
			c-0.1-2.3-0.2-5.2-0.2-7c0-8.2,1.7-18.5,3.8-23.5L1169.5,387.8"/>
		<path class="st1" d="M1189,447.8c2.5,0.1,3.9,0.5,5.8,1.2c5.1,2.2,8,6.8,8,12.5c0,6.2-3.3,11.5-8.8,14c-2.4,1.1-4.7,1.8-8.4,2.3
			c1,1.2,1.2,1.7,1.8,3.4c3.5-0.8,5.4-1.4,7.6-2.3c7.2-3.1,11.4-9.5,11.4-17.2c0-4.8-1.7-9.2-4.8-12.2c-3.2-3.2-8.2-5-13.8-5
			c-6.7,0-12.2,2.2-16.2,6.7c-3.3,3.8-5.2,8.7-5.2,13.8c0,7,3.6,12.2,8.3,12.2c3.6,0,6.5-3,9.4-9.6
			C1186.3,462.4,1188.2,454.8,1189,447.8 M1185.4,447.9c-0.7,6.4-2.5,13.8-4.6,18.5c-2.2,4.9-4.2,7.2-6.2,7.2
			c-2.7,0-4.8-3.7-4.8-8.5c0-6.2,3.1-11.8,8.2-14.9C1180.2,448.8,1182.4,448.1,1185.4,447.9"/>
		<path class="st1" d="M1443,283.8c0.1,0.9,0.1,1,0.2,2.9c0.2,12.3,1,18.7,2.7,23.5c1.7,4.8,4.3,7.6,7.1,7.6c3.5,0,5.8-3.4,8.3-12.1
			c-1.4-1.1-1.8-1.5-2.9-2.8c-0.7,3.4-1.4,6-2.6,8.5c-0.8,1.7-1.6,2.5-2.5,2.5c-1.9,0-4-3.5-5.1-8.5c-0.8-3.2-1.3-10-1.3-15.5
			c0-2.8,0.1-4.4,0.3-6L1443,283.8 M1468.3,288c5.8,6.8,9.5,15.3,10.4,24.6l3.5-1.5c-0.9-5.6-1.8-9.1-3.8-13.3
			c-1.8-4.2-3.9-7.5-7.1-11.4L1468.3,288"/>
		<path class="st1" d="M1443,337.7c0.1,0.9,0.1,1.1,0.2,3c0.2,12.3,1,18.7,2.7,23.5c1.7,4.8,4.3,7.6,7.1,7.6c3.5,0,5.8-3.3,8.3-12.1
			c-1.4-1.1-1.8-1.5-2.9-2.8c-0.7,3.4-1.4,6-2.6,8.5c-0.8,1.6-1.6,2.5-2.5,2.5c-1.9,0-4-3.5-5.1-8.5c-0.8-3.2-1.3-10.1-1.3-15.6
			c0-2.8,0.1-4.4,0.3-5.9L1443,337.7 M1468.3,341.9c5.8,6.8,9.5,15.4,10.4,24.7l3.5-1.5c-0.9-5.6-1.8-9.1-3.8-13.3
			c-1.8-4.2-3.9-7.5-7.1-11.4L1468.3,341.9"/>
		<path class="st1" d="M1443.1,399.2c0.5,0,0.8,0,0.9,0c0,0,0.1,0,0.2,0c1.9,0.1,2.4,0.1,4.2,0.1c1.8,0,2.4,0,3.4,0
			c-1.8,9.8-5.7,21.2-9.4,27.7l3.7,1.5c2.7-6.1,4.1-9.9,5.8-15.2c1.3-4.5,2.8-10.2,3.5-14.2c2.5-0.2,5.9-0.6,8.5-1.2
			c1-0.2,1-0.2,1.4-0.2l-0.2-3.4c-2.4,0.8-5.1,1.3-9,1.7c0.2-1.5,0.4-2.2,0.7-3.8c0.6-3.5,0.6-3.5,0.9-4.8l-3.9-0.4
			c0,2.2-0.1,3-1.1,9.2c-1.4,0.1-2,0.1-3,0.1c-2.6,0-4.6-0.2-6.2-0.5V399.2 M1480.9,401.6c-3.8-0.2-4.5-0.2-5.4-0.2
			c-4.2,0-7.4,0.4-13.2,1.7l0.3,3.4c4.6-1.2,8.1-1.7,12.5-1.7c2.1,0,3.5,0.1,5.9,0.3L1480.9,401.6 M1462.7,412.4
			c-2.7,3.4-3.3,5-3.3,7.2c0,5,4.2,7.5,12.4,7.5c2.7,0,5.6-0.2,8.9-0.9c1.7-0.2,1.7-0.2,2.2-0.3l-0.3-3.8c-2.8,1-7.3,1.7-11,1.7
			c-5.7,0-8.8-1.6-8.8-4.6c0-1.2,0.4-2.5,1.2-3.5c0.3-0.5,0.5-0.7,1.5-1.9L1462.7,412.4"/>
		<path class="st1" d="M1460.4,440.7c0.2,1.2,0.2,1.6,0.2,4c0.1,7.2,0.4,16.8,0.8,22.6c0,0.1,0,0.2,0,0.3c0,0.2,0,0.2,0,0.5
			c-0.1-0.1-0.1-0.1-0.2-0.1c-0.2,0-0.2,0-0.4-0.1c-1.1-0.2-2.8-0.5-4.3-0.5c-7.1,0-11.8,3.1-11.8,7.9c0,4.6,3.9,7.4,10.4,7.4
			c4.1,0,7.3-1.2,8.9-3.5c0.8-1.1,1.2-2.9,1.2-5c0-0.6-0.1-1.6-0.2-2.1c0.4,0.2,0.5,0.2,1.2,0.5c1.7,0.8,4.5,2.3,6.8,3.8
			c2.7,1.8,4.2,3,5.2,4.4l2.3-3.5c-1.2-0.8-1.2-0.8-2.3-1.6c-5.2-3.8-9.3-5.9-13.3-7.1c-0.2-3.2-0.5-8-0.7-12.9
			c4.2-0.1,7.6-0.4,12.1-1.1c2.2-0.3,2.2-0.3,3-0.3l-0.4-3.7c-2.8,1.1-9.2,1.9-14.7,1.9c-0.1-3.5-0.1-4.1-0.1-5.2
			c0-3.9,0-5.4,0.3-6.6H1460.4 M1461.6,471.2c0.1,0,0.2,2,0.2,2.8c0,1.9-0.3,3-1.2,3.8c-1.2,1.1-3.1,1.7-5.5,1.7c-2.7,0-5-0.8-6-2
			c-0.5-0.5-0.8-1.3-0.8-2.2c0-2.9,3.1-4.7,8.2-4.7C1458.4,470.5,1459.5,470.7,1461.6,471.2"/>
		<path class="st1" d="M1635.5,315.2c-0.6-0.4-0.9-0.5-1.7-1.1c-5.2-3.8-9.6-6.1-13.9-7.3c-0.2-4.9-0.2-4.9-0.3-7.7
			c3.7-0.2,7.7-0.7,11.1-1.2c1.8-0.2,2.2-0.3,2.9-0.3l-0.2-3.5c-2.8,1-7.1,1.5-13.9,2c0-2.6,0-2.6-0.1-6.8c5.6-0.3,6.9-0.5,11.6-1.2
			c2.6-0.3,2.6-0.3,3.5-0.4l-0.2-3.4c-2.8,0.9-7.9,1.6-14.8,2c0.1-3.6,0.2-6,0.3-7h-3.8c0.2,1.1,0.2,1.1,0.2,7.2c-1.7,0-3.3,0-4.3,0
			c-5.4,0-10.7-0.4-12.8-1l0,3.4c0.3,0,0.5,0,0.7,0c0.2,0,0.6,0,0.9,0c4.5,0.3,8.6,0.5,12.2,0.5c1.2,0,2,0,3.4,0l0.1,6.8
			c-1.4,0-3.1,0-4.4,0c-5.1,0-9.2-0.3-11.4-0.8l-0.1,3.3c0.2,0,0.3,0,0.4,0c0.3,0,0.7,0,1.2,0c3.1,0.2,5.4,0.4,8.4,0.4
			c1.6,0,4.1,0,5.9-0.1c0.1,1.3,0.1,2.2,0.1,2.9c0.1,1.5,0.1,2.5,0.1,3c0,0.3,0.1,0.5,0.1,0.5c0,0.5,0,0.5,0.1,0.6
			c-2.2-0.3-2.9-0.4-4.5-0.4c-2.2,0-3.7,0.1-5.2,0.5c-4.4,1-7,3.6-7,6.9c0,2.1,1,4,2.7,5.2c1.7,1.3,4.4,2,7.8,2c3.9,0,7-1.1,8.4-3.1
			c0.9-1.2,1.2-2.8,1.2-5.5c0-0.7,0-0.7-0.1-1.8c1.3,0.5,2.5,1,3.3,1.5c4.2,2.2,7.9,4.8,10.2,7.1L1635.5,315.2 M1616.7,311.2
			c0,2.4-0.3,3.8-1,4.5c-0.9,1.1-2.8,1.7-5.5,1.7c-4.3,0-6.8-1.5-6.8-4.2c0-2.6,3.2-4.5,8.2-4.5c2.2,0,3.2,0.1,5.1,0.6L1616.7,311.2
			"/>
		<path class="st1" d="M1635.5,369.1c-0.6-0.4-0.9-0.5-1.7-1.1c-5.2-3.8-9.6-6.1-13.9-7.3c-0.2-4.8-0.2-4.8-0.3-7.6
			c3.7-0.2,7.7-0.7,11.1-1.2c1.8-0.2,2.2-0.3,2.9-0.3l-0.2-3.5c-2.8,1-7.1,1.5-13.9,2c0-2.7,0-2.7-0.1-6.8c5.6-0.3,6.9-0.5,11.6-1.2
			c2.6-0.3,2.6-0.3,3.5-0.4l-0.2-3.4c-2.8,0.9-7.9,1.6-14.8,2c0.1-3.6,0.2-6,0.3-7h-3.8c0.2,1.1,0.2,1.1,0.2,7.2c-1.7,0-3.3,0-4.3,0
			c-5.4,0-10.7-0.4-12.8-1l0,3.4c0.3-0.1,0.5-0.1,0.7-0.1c0.2,0,0.6,0,0.9,0.1c4.5,0.3,8.6,0.5,12.2,0.5c1.2,0,2,0,3.4-0.1l0.1,6.9
			c-1.4,0-3.1,0-4.4,0c-5.1,0-9.2-0.3-11.4-0.8l-0.1,3.3c0.2,0,0.3,0,0.4,0c0.3,0,0.7,0,1.2,0c3.1,0.2,5.4,0.4,8.4,0.4
			c1.6,0,4.1-0.1,5.9-0.1c0.1,1.3,0.1,2.2,0.1,2.9c0.1,1.5,0.1,2.5,0.1,3c0,0.3,0.1,0.5,0.1,0.5c0,0.5,0,0.5,0.1,0.6
			c-2.2-0.3-2.9-0.4-4.5-0.4c-2.2,0-3.7,0.1-5.2,0.5c-4.4,1-7,3.6-7,6.9c0,2,1,4,2.7,5.2c1.7,1.3,4.4,2,7.8,2c3.9,0,7-1.1,8.4-3.1
			c0.9-1.2,1.2-2.8,1.2-5.5c0-0.7,0-0.7-0.1-1.8c1.3,0.5,2.5,1,3.3,1.5c4.2,2.2,7.9,4.8,10.2,7.1L1635.5,369.1 M1616.7,365.1
			c0,2.4-0.3,3.8-1,4.5c-0.9,1.1-2.8,1.7-5.5,1.7c-4.3,0-6.8-1.5-6.8-4.2s3.2-4.5,8.2-4.5c2.2,0,3.2,0.1,5.1,0.5L1616.7,365.1"/>
		<path class="st1" d="M1597.1,399.2c0.4,0,0.8,0,0.8,0c0,0,0.1,0,0.2,0c1.9,0.1,2.4,0.1,4.1,0.1c1.9,0,2.5,0,3.5,0
			c-2,10.2-5.8,21.5-9.4,27.7l3.7,1.5c4.2-9.2,7.2-18.8,9.2-29.4c2.3-0.1,5.2-0.5,8.4-1.2l0.9-0.2l0.5-0.1l-0.2-3.4
			c-2.2,0.8-5.6,1.4-9,1.7c0.2-1.3,0.3-2,0.7-3.8c0.3-1.7,0.4-2.7,0.5-3c0.2-0.7,0.2-1,0.4-1.8l-4-0.4c0,0.1,0,0.2,0,0.3
			c0,1.7-0.2,3.5-1.1,8.8c-1.4,0.1-2,0.1-3,0.1c-2.7,0-4.7-0.2-6.2-0.5V399.2 M1634.8,401.6c-3.8-0.2-4.5-0.2-5.4-0.2
			c-4.2,0-7.5,0.4-13.2,1.7l0.3,3.4c4.5-1.2,8-1.7,12.5-1.7c2.1,0,3.5,0.1,5.9,0.3L1634.8,401.6 M1616.6,412.4
			c-2.7,3.4-3.4,5-3.4,7.2c0,5,4.2,7.5,12.5,7.5c2.7,0,5.5-0.2,8.9-0.8l1.5-0.3l0.7-0.1l-0.3-3.8c-2.8,1-7.3,1.7-11.1,1.7
			c-5.7,0-8.8-1.6-8.8-4.6c0-1.2,0.5-2.5,1.2-3.5c0.3-0.5,0.5-0.7,1.5-1.9L1616.6,412.4 M1624.9,389c1.5,1.5,3.9,5.2,5.1,7.9
			l2.5-1.5c-1.5-3-2.9-5-5.1-7.8L1624.9,389 M1630.6,386.3c1.9,2.3,4.1,5.5,5.1,7.9l2.5-1.5c-1.7-3.2-2.9-5-5.2-7.8L1630.6,386.3"/>
		<path class="st1" d="M1598.4,473.4c0.6-0.8,2.6-3,4.5-4.8c1.8-1.7,2.2-2.1,2.6-2.8h0.1c-0.1,1.2-0.1,1.6-0.2,7.7
			c0,7.9,0,7.9-0.2,9.5h3.9c-0.2-2.3-0.3-4.8-0.3-19.9c6.5-5.9,11-8.2,15.9-8.2c5.7,0,9.6,4,9.6,9.8c0,2.2-0.5,4.1-1.4,6
			c-1.8,3.5-5.7,5.6-10,5.6c-3,0-6.1-0.7-8.8-2c0.3,1.4,0.4,2,0.4,2.9c0,0.2,0,0.5,0,0.8c3.1,1.1,5.7,1.5,8.5,1.5
			c9.1,0,15.1-6,15.1-15c0-7.6-5.5-13-13.4-13c-4.5,0-8.3,1.5-12.7,5c-1.5,1.2-2.4,2-2.9,2.5l-0.2,0.2h-0.1c0-0.1,0.1-1.8,0.2-5
			c1.9-2.7,1.9-2.7,2.7-3.2l-1.3-1.7c-0.4,0.2-0.5,0.2-1.2,0.3c0.1-1.1,0.1-1.1,0.1-2.8c0.1-3.6,0.2-4.4,0.5-5.8h-4
			c0.2,0.8,0.2,1.2,0.2,1.9c0,2-0.1,3.9-0.2,7c-4.1,0.3-6.2,0.4-7,0.4c-0.4,0-0.7,0-1.4,0l0.2,3.4c1.2-0.2,2.2-0.3,5.5-0.6
			c1.9-0.1,1.9-0.1,2.6-0.2c-0.2,4.2-0.2,4.7-0.2,8.9c-0.7,0.5-0.7,0.5-1.4,1.3c-1.7,1.5-1.7,1.5-3.4,3.2c-2.4,2.2-3.3,3-4.3,3.7
			L1598.4,473.4"/>
		<path class="st1" d="M1752.2,283.8c0.1,0.9,0.1,1,0.2,2.9c0.2,12.3,0.9,18.7,2.7,23.5c1.7,4.8,4.3,7.6,7.1,7.6
			c3.6,0,5.8-3.4,8.3-12.1c-1.4-1.1-1.8-1.5-3-2.8c-0.6,3.4-1.4,6-2.6,8.5c-0.8,1.7-1.6,2.5-2.5,2.5c-1.9,0-3.9-3.5-5-8.5
			c-0.8-3.2-1.3-10-1.3-15.5c0-2.8,0.1-4.4,0.3-6L1752.2,283.8 M1777.5,288c5.9,6.8,9.5,15.3,10.4,24.6l3.6-1.5
			c-0.9-5.6-1.8-9.1-3.8-13.3c-1.8-4.2-3.9-7.5-7.2-11.4L1777.5,288"/>
		<path class="st1" d="M1752.2,337.7c0.1,0.9,0.1,1.1,0.2,3c0.2,12.3,0.9,18.7,2.7,23.5c1.7,4.8,4.3,7.6,7.1,7.6
			c3.6,0,5.8-3.3,8.3-12.1c-1.4-1.1-1.8-1.5-3-2.8c-0.6,3.4-1.4,6-2.6,8.5c-0.8,1.6-1.6,2.5-2.5,2.5c-1.9,0-3.9-3.5-5-8.5
			c-0.8-3.2-1.3-10.1-1.3-15.6c0-2.8,0.1-4.4,0.3-5.9L1752.2,337.7 M1777.5,341.9c5.9,6.8,9.5,15.4,10.4,24.7l3.6-1.5
			c-0.9-5.6-1.8-9.1-3.8-13.3c-1.8-4.2-3.9-7.5-7.2-11.4L1777.5,341.9"/>
		<path class="st1" d="M1753.9,396.5c0.3,0,0.6,0,0.8,0c0.1,0,0.5,0,0.9,0c4,0.2,6.2,0.2,6.8,0.2h2c-0.2,3.7-0.2,3.9-0.3,7.5
			c-7.2,3.2-11.6,8.8-11.6,14.9c0,4.5,2.7,7.6,6.5,7.6c3.5,0,7.3-2,11.1-6c3.9-4,6.6-8.2,9.5-15c5.4,1.4,8.2,4.4,8.2,8.7
			c0,4.5-3.1,8.1-8.6,10c-2.4,0.8-4.5,1.2-7.5,1.3c0.9,1.4,1.2,1.9,1.6,3.4c4.5-0.5,7.4-1.4,10.2-2.9c5.2-2.7,7.8-6.6,7.8-11.5
			c0-5.8-3.8-10.1-10.8-11.7c0.8-2.3,1.4-3.7,1.6-4l-3.5-1c-0.2,1.5-0.6,3-1.2,4.5c-1.2-0.1-1.8-0.1-2.9-0.1c-2.7,0-4.8,0.3-7.4,1
			c0.1-2.5,0.1-2.5,0.3-6.7c4.7-0.2,12.2-1,17.7-2c0.9-0.2,1.1-0.2,1.8-0.2l-0.2-3.5c-3.8,1.3-10.9,2.4-19,2.8c0.3-3.9,0.6-5.6,1-7
			l-3.9-0.2c0,0.3,0,0.7,0,0.8c0,0.3-0.1,2.3-0.2,2.8c-0.2,2.6-0.2,2.6-0.2,3.8c-0.9,0.1-1.1,0.1-1.2,0.1c-4.6,0-7.2-0.2-9.3-0.8
			L1753.9,396.5 M1764,407.4c0,6,0.3,9.7,1,13.5c-2.2,1.8-3.9,2.5-5.8,2.5c-2.1,0-3.6-1.8-3.6-4.5c0-2.5,1.1-5.1,3.1-7.5
			C1760.1,409.9,1761.6,408.8,1764,407.4 M1767.7,418.9c0-0.2,0-0.5,0-0.5c0-0.3,0-0.4-0.1-0.7c-0.4-4.2-0.5-5-0.5-11.5
			c2.3-0.8,4.6-1.2,6.9-1.2c0.6,0,0.8,0,2.4,0.1c-2.3,5.2-4.4,8.8-7.7,12.5c-0.4,0.4-0.4,0.5-0.9,1.3L1767.7,418.9"/>
		<path class="st1" d="M1774.5,447.8c2.5,0.1,3.9,0.5,5.8,1.2c5.1,2.2,8,6.8,8,12.5c0,6.2-3.4,11.5-8.9,14c-2.3,1.1-4.7,1.8-8.3,2.3
			c1,1.2,1.2,1.7,1.8,3.4c3.5-0.8,5.3-1.4,7.6-2.3c7.2-3.1,11.5-9.5,11.5-17.2c0-4.8-1.7-9.2-4.8-12.2c-3.2-3.2-8.2-5-13.8-5
			c-6.7,0-12.2,2.2-16.2,6.7c-3.3,3.8-5.2,8.7-5.2,13.8c0,7,3.5,12.2,8.3,12.2c3.6,0,6.6-3,9.5-9.6
			C1771.8,462.4,1773.7,454.8,1774.5,447.8 M1770.9,447.9c-0.6,6.4-2.5,13.8-4.5,18.5c-2.2,4.9-4.2,7.2-6.2,7.2
			c-2.7,0-4.8-3.7-4.8-8.5c0-6.2,3.1-11.8,8.2-14.9C1765.7,448.8,1767.9,448.1,1770.9,447.9"/>
		<path class="st1" d="M1961,286.1c-2.6,0-7,0.2-12.1,0.4c-8.1,0.3-8.1,0.3-9.5,0.3c-0.8,0-1.1,0-2-0.1l0.1,3.7
			c1.6-0.4,15.6-1.2,23.5-1.2v1.3c0,0.4,0,0.8,0,1.2c0,0.7,0.1,1.1,0.1,1.3c0,1.8,0,1.9,0.1,2.8c-1.3-1.5-3.4-2.2-5.8-2.2
			c-5.1,0-8.9,3.5-8.9,8.2c0,4.6,3.4,7.9,8.2,7.9c2.6,0,4.8-0.9,6.3-2.7c0.6-0.7,0.9-1.2,1.4-2.4c-0.2,7-4.6,11.5-13.7,14.3
			c1,1,1.4,1.6,2.2,3.1c3.6-1.4,5.9-2.5,7.9-4c4.3-3.2,6.7-7.8,6.7-13c0-2.2-0.4-3.8-1.2-5.9v-9.9c4-0.1,4.6-0.1,5.4-0.1
			c5.9,0,7.7,0.1,9.6,0.2v-3.5c-1.2,0.2-1.8,0.2-3.3,0.2l-8.8,0c-0.8,0-0.9,0-2.8,0.1v-0.6c0-3.9,0-4.6,0.2-6.2h-3.8
			c0.1,1,0.2,1.5,0.2,2.9l0.1,3.5V286.1 M1955.4,296.4c1.2,0,2.5,0.3,3.3,0.8c1.5,0.8,2.1,1.9,2.1,3.5c0,3.5-2.4,5.9-5.9,5.9
			c-3,0-5.2-2-5.2-5C1949.8,298.6,1952.2,296.4,1955.4,296.4 M1968.6,277.7c1.6,1.6,3.2,4,5,7l2.4-1.5c-1-1.9-2.8-4.2-5-6.8
			L1968.6,277.7 M1975.7,276.7c1.9,2.2,3.4,4.4,5.2,7.5l2.5-1.5c-1.1-2.1-3.2-5-5.2-7.4L1975.7,276.7"/>
		<path class="st1" d="M1961,340c-2.6,0-7,0.2-12.1,0.4c-8.1,0.3-8.1,0.3-9.5,0.3c-0.8,0-1.1,0-2,0l0.1,3.7
			c1.6-0.4,15.6-1.2,23.5-1.2v1.3c0,0.4,0,0.8,0,1.2c0,0.7,0.1,1,0.1,1.3c0,1.8,0,2,0.1,2.8c-1.3-1.4-3.4-2.2-5.8-2.2
			c-5.1,0-8.9,3.5-8.9,8.2c0,4.6,3.4,7.9,8.2,7.9c2.6,0,4.8-0.9,6.3-2.7c0.6-0.7,0.9-1.2,1.4-2.5c-0.2,7-4.6,11.6-13.7,14.3
			c1,1,1.4,1.6,2.2,3.1c3.6-1.4,5.9-2.5,7.9-4c4.3-3.2,6.7-7.8,6.7-13c0-2.2-0.4-3.8-1.2-5.9V343c4-0.1,4.6-0.1,5.4-0.1
			c5.9,0,7.7,0,9.6,0.2v-3.5c-1.2,0.2-1.8,0.2-3.3,0.2l-8.8,0c-0.8,0-0.9,0-2.8,0v-0.5c0-3.9,0-4.6,0.2-6.2h-3.8
			c0.1,1,0.2,1.5,0.2,2.9l0.1,3.5V340 M1955.4,350.3c1.2,0,2.5,0.3,3.3,0.8c1.5,0.8,2.1,1.9,2.1,3.5c0,3.5-2.4,5.9-5.9,5.9
			c-3,0-5.2-2.1-5.2-5C1949.8,352.5,1952.2,350.3,1955.4,350.3 M1968.6,331.6c1.6,1.6,3.2,4,5,7l2.4-1.5c-1-1.9-2.8-4.2-5-6.8
			L1968.6,331.6 M1975.7,330.6c1.9,2.2,3.4,4.3,5.2,7.5l2.5-1.5c-1.1-2.1-3.2-5-5.2-7.4L1975.7,330.6"/>
		<path class="st1" d="M1950.7,390.8c4.4,2,4.4,2,7.6,3.1c3.4,1.2,3.4,1.2,9.8,2.9l1.4-3.5c-5.4-0.9-13-3.4-16.9-5.6L1950.7,390.8
			 M1946.5,396.2c-0.1,0.9-0.1,1.3-0.3,2.7c-0.7,4.2-1.6,10-2.1,13.8c-0.2,1.6-0.2,2-0.4,3l3.9,0.1c0.9-1.1,1.2-1.5,2-2
			c3.8-2.8,8.9-4.3,14-4.3c6.1,0,9.7,2.4,9.7,6.5c0,5.1-5.2,8.4-13.5,8.4c-4.2,0-8.9-1-12.8-2.5c0.3,1.3,0.4,2,0.4,3.1
			c0,0.2,0,0.5-0.1,0.9c3.1,0.8,3.1,0.8,4,1c2.8,0.6,5.8,0.9,8.8,0.9c5.3,0,9.2-1,12.4-3.3c2.8-2,4.5-5.2,4.5-8.6
			c0-5.8-5.2-9.6-13.4-9.6c-5.5,0-11,1.6-14.4,4.3c-0.6,0.5-0.9,0.8-1.6,1.5l-0.1,0c0.1-0.5,0.2-0.5,0.2-1.2
			c0.2-1.1,0.2-1.5,1.5-8.8c0.4-2.8,0.7-4,1.1-5.5L1946.5,396.2"/>
		<path class="st1" d="M1941.4,456.4c0.8-0.4,1.5-0.6,3.6-1.2c8.7-2.4,15.2-3.5,20.4-3.5c6.8,0,10.9,3.4,10.9,9
			c0,5.6-3.9,10.1-10.7,12.6c-3.8,1.4-8.3,2.1-13.9,2.3c0.9,1.3,1.2,2,1.6,3.7c7.8-0.7,11.9-1.6,16.6-3.8
			c6.7-3.2,10.4-8.5,10.4-14.8c0-7.6-5.8-12.5-14.9-12.5c-4.1,0-8.9,0.6-14.5,1.9c-8.9,2-8.9,2-10.4,2.1L1941.4,456.4"/>
		<path class="st1" d="M2090.4,286.8c0.6,0,0.8,0,1.6,0.1c3.2,0.4,7.5,0.7,11,0.7c2.9,0,4.6-0.2,7.6-0.7c-0.5,0.3-0.6,0.3-0.9,0.5
			c-0.6,0.3-0.7,0.4-1.2,0.7c-2.2,1.2-3.5,2-6.7,4.2l2.6,2c4.9-3.5,9.5-6.3,12.6-7.6l-0.2-3.3c-2.8,0.7-6.8,1-12.7,1
			c-5.7,0-9.6-0.3-13.3-1.2L2090.4,286.8 M2093.4,299.6c-3.9,3.2-5.8,6.4-5.8,9.7c0,3.4,1.9,6,5.7,7.5c2.4,1,6.7,1.5,11.5,1.5
			c4.4,0,9.1-0.4,13.5-1.2c0.8-0.1,1.1-0.2,1.7-0.2l-0.4-4.1c-2.8,1.2-8.8,1.9-15,1.9c-3.9,0-7.2-0.4-9.2-1c-2.8-1-4.2-2.6-4.2-4.9
			c0-2.3,1.5-4.7,4.8-7.3L2093.4,299.6"/>
		<path class="st1" d="M2090.4,340.7c0.6,0,0.8,0,1.6,0.1c3.2,0.4,7.5,0.7,11,0.7c2.9,0,4.6-0.2,7.6-0.7c-0.5,0.3-0.6,0.3-0.9,0.5
			c-0.6,0.3-0.7,0.4-1.2,0.7c-2.2,1.2-3.5,2-6.7,4.1l2.6,2.1c4.9-3.6,9.5-6.3,12.6-7.6l-0.2-3.3c-2.8,0.7-6.8,1-12.7,1
			c-5.7,0-9.6-0.3-13.3-1.2L2090.4,340.7 M2093.4,353.5c-3.9,3.2-5.8,6.4-5.8,9.6c0,3.5,1.9,6,5.7,7.6c2.4,0.9,6.7,1.5,11.5,1.5
			c4.4,0,9.1-0.4,13.5-1.2c0.8-0.1,1.1-0.2,1.7-0.2l-0.4-4.1c-2.8,1.1-8.8,1.9-15,1.9c-3.9,0-7.2-0.3-9.2-1
			c-2.8-0.9-4.2-2.6-4.2-4.9c0-2.4,1.5-4.7,4.8-7.4L2093.4,353.5"/>
		<path class="st1" d="M2088.3,388.1c0.2,1,0.2,1.6,0.2,2.6c0,0.8,0,1.8,0,3.2c-0.4,15.8-0.5,17-0.5,20.4c0,5.2,0.7,7.9,2.8,10.2
			c2,2.3,5.2,3.5,9.4,3.5c5.8,0,10.6-2.1,14.1-6.2c2.2-2.6,3.7-5.5,5.6-11.4c-1.6-0.8-2.2-1.2-3.6-2.4c-0.7,3.5-1.3,5.4-2.5,7.8
			c-2.8,5.7-7.4,8.7-13.4,8.7c-2.6,0-4.9-0.7-6.2-2c-1.5-1.3-2.1-3-2.4-6c0-1.2-0.1-2.4-0.1-3c0-2.2,0.1-9,0.3-15
			c0.2-6.3,0.4-8.9,0.7-10.5H2088.3"/>
		<path class="st1" d="M2086.7,451.9c0.9-0.1,1-0.1,3.1-0.2c5.6-0.1,9.6-0.3,13.5-0.9c1.2,2.7,1.6,3.2,2.9,5.7
			c-4.1,0.8-10.6,1.2-15.8,1.2c-2,0-2.9-0.1-4-0.2l0.1,3.3c0.9-0.1,1.1-0.1,3.5-0.2c9.4-0.3,12.6-0.5,17.6-1.4c1.8,3,3.8,6,5.4,7.7
			c-3.3-1-6-1.4-10.1-1.4c-9.5,0-15.2,3.2-15.2,8.6c0,2.6,1.4,4.9,3.8,6.2c2.6,1.5,5.7,2.1,10.3,2.1c4.4,0,8.7-0.6,12.8-1.8
			c2.3-0.7,2.3-0.7,3-0.8l-0.7-3.9c-3,1.8-9.6,3.3-14.8,3.3c-6.9,0-10.7-1.8-10.7-5.1c0-3.5,4.7-5.7,11.9-5.7c2.2,0,4.8,0.2,6.6,0.5
			c2.4,0.4,3.6,0.8,5.5,1.9l2.9-2.1c-3.9-4.5-4.4-5.2-7.4-10c1.9-0.3,4.4-0.9,7.9-1.8c1.6-0.5,1.8-0.5,2.7-0.6l-0.4-3.4
			c-2.1,1-4.9,1.8-11.5,3.1c-0.8-1.4-2.1-4-2.8-5.7c2.8-0.5,8.1-1.6,12.6-2.8l-0.3-3.2c-2.8,1.2-7.5,2.3-13.4,3.3
			c-1.2-2.7-2.2-5.2-2.6-7l-3.8,0.6c0.4,0.7,1.4,3,3,6.9c-4.6,0.5-7.7,0.7-11.9,0.7c-1.7,0-2.6-0.1-3.8-0.2L2086.7,451.9"/>
		<path class="st1" d="M1800.3,837.9c0,2.7,2.2,5,5,5c2.7,0,5-2.2,5-5s-2.2-5-5-5C1802.6,832.9,1800.3,835.2,1800.3,837.9"/>
		<path class="st1" d="M2132.4,837.9c0,2.7,2.2,5,5,5s5-2.2,5-5s-2.2-5-5-5S2132.4,835.2,2132.4,837.9"/>
		<path class="st1" d="M1800.3,701.5c0,2.7,2.2,5,5,5c2.7,0,5-2.2,5-5s-2.2-5-5-5C1802.6,696.5,1800.3,698.8,1800.3,701.5"/>
		<path class="st1" d="M2132.4,701.5c0,2.7,2.2,5,5,5s5-2.2,5-5s-2.2-5-5-5S2132.4,698.8,2132.4,701.5"/>
		<path class="st1" d="M1800.3,183.3c0,2.7,2.2,5,5,5c2.7,0,5-2.2,5-5s-2.2-5-5-5C1802.6,178.4,1800.3,180.6,1800.3,183.3"/>
		<path class="st1" d="M2132.4,232.9c0,2.7,2.2,5,5,5s5-2.2,5-5s-2.2-5-5-5S2132.4,230.2,2132.4,232.9"/>
		<line class="st5" x1="92.7" y1="78.7" x2="92.7" y2="917.8"/>
		<path class="st1" d="M135.3,56.6c-0.2-0.1-0.5-0.2-0.7-0.2c-0.4,0-0.9,0.1-1.1,0.5c-0.2,0.3-10.1,15.6-29.1,15.6H88.7
			c-0.8,0-1.4,0.5-1.4,1.3v8.9v1.4h12.1c30.6,0,36.4-25.5,36.5-25.8c0-0.1,0.1-0.3,0.1-0.5C136,57.3,135.7,56.9,135.3,56.6"/>
		<path class="st1" d="M135.3,939.8c0.4-0.3,0.7-0.7,0.7-1.2c0-0.2-0.1-0.4-0.1-0.5c-0.1-0.3-6-25.8-36.5-25.8H87.3v1.4v8.9
			c0,0.8,0.6,1.3,1.4,1.3h15.8c18.9,0,28.9,15.3,29.1,15.6c0.2,0.4,0.7,0.5,1.1,0.5C134.8,940,135.1,939.9,135.3,939.8"/>
	</g>
</g>
</svg>
