<?xml version="1.0" encoding="utf-8"?>
<!-- Generator: Adobe Illustrator 26.5.0, SVG Export Plug-In . SVG Version: 6.00 Build 0)  -->
<svg version="1.1" id="レイヤー_1" xmlns="http://www.w3.org/2000/svg" xmlns:xlink="http://www.w3.org/1999/xlink" x="0px"
	 y="0px" viewBox="0 0 2590 940" style="enable-background:new 0 0 2590 940;" xml:space="preserve">
<style type="text/css">
	.st0{fill:none;stroke:#FFFFFF;stroke-width:2.73;stroke-linejoin:bevel;}
	.st1{fill:#FFFFFF;}
	.st2{fill:none;stroke:#FFFFFF;stroke-width:4.46;stroke-linejoin:bevel;}
	.st3{fill:none;stroke:#FFFFFF;stroke-width:13.64;stroke-linejoin:bevel;}
	.st4{fill:none;stroke:#FFFFFF;stroke-width:3.97;stroke-linejoin:bevel;}
	.st5{fill:none;stroke:#FFFFFF;stroke-width:10.91;stroke-linejoin:bevel;}
</style>
<g>
	<g>
		
			<image style="overflow:visible;" width="2624" height="955" xlink:href="63DA43DF326CB956.png"  transform="matrix(1 0 0 1 -17.1779 21.0373)">
		</image>
	</g>
	<g>
		<line class="st0" x1="106.1" y1="97.6" x2="2570.6" y2="97.6"/>
		<line class="st0" x1="106.1" y1="122.4" x2="2570.6" y2="122.4"/>
		<line class="st0" x1="106.1" y1="147.2" x2="2570.6" y2="147.2"/>
		<line class="st0" x1="106.1" y1="172" x2="2570.6" y2="172"/>
		<line class="st0" x1="106.1" y1="196.8" x2="2570.6" y2="196.8"/>
		<line class="st0" x1="106.1" y1="565.1" x2="2570.6" y2="565.1"/>
		<line class="st0" x1="106.1" y1="589.9" x2="2570.6" y2="589.9"/>
		<line class="st0" x1="106.1" y1="614.7" x2="2570.6" y2="614.7"/>
		<line class="st0" x1="106.1" y1="639.5" x2="2570.6" y2="639.5"/>
		<line class="st0" x1="106.1" y1="664.3" x2="2570.6" y2="664.3"/>
		<line class="st0" x1="106.1" y1="800.7" x2="2570.6" y2="800.7"/>
		<line class="st0" x1="106.1" y1="825.5" x2="2570.6" y2="825.5"/>
		<line class="st0" x1="106.1" y1="850.3" x2="2570.6" y2="850.3"/>
		<line class="st0" x1="106.1" y1="875.1" x2="2570.6" y2="875.1"/>
		<line class="st0" x1="106.1" y1="899.9" x2="2570.6" y2="899.9"/>
		<path class="st1" d="M54.2,831.9h-30l-0.8,13.9h2.2c0.3-2.5,0.8-4.4,1.3-6c1.3-3.7,3.7-5.6,7.1-5.6c1.6,0,2.4,0.6,2.4,1.8v25.8
			c0,2.6,0,2.7-0.3,3.1c-0.4,0.5-1.4,0.7-4.2,0.7h-1.3v2.4h17.1v-2.4h-1.3c-2.8,0-3.8-0.2-4.1-0.7c-0.3-0.4-0.3-0.6-0.3-3.1v-25.8
			c0-1.2,0.7-1.8,2.4-1.8c3.1,0,5.5,1.7,6.8,4.7c0.8,1.9,1.2,4,1.6,6.9H55L54.2,831.9 M59.1,862.5c-1.8,0-3.1,1.4-3.1,3.1
			c0,1.8,1.4,3.1,3.1,3.1c1.8,0,3.1-1.4,3.1-3.1C62.2,863.9,60.8,862.5,59.1,862.5"/>
		<path class="st1" d="M38.7,595.9h-2.1l-11.5,29.2c-1.4,3.9-2.6,5.1-5.5,5.3h-0.2v2.4h13.2v-2.4h-1c-2.7,0-4.1-0.9-4.1-2.8
			c0-0.7,0.1-1.2,0.4-2.1l1.7-4.4H43l2.7,6.7c0.3,0.8,0.4,1.1,0.4,1.4c0,0.8-1.2,1.3-3.1,1.3h-2.1v2.4h15.5v-2.4h-0.7
			c-2.6,0-3.1-0.3-4.2-3.2L38.7,595.9 M36.3,604.1l5.7,14.2H30.7L36.3,604.1 M63.3,627.2c-1.8,0-3.2,1.4-3.2,3.1
			c0,1.8,1.4,3.1,3.1,3.1c1.8,0,3.2-1.4,3.2-3.1C66.4,628.6,65,627.2,63.3,627.2"/>
		<path class="st1" d="M51.7,128.9h-1.8l-2,3c-2.4-2.2-5.6-3.4-9.1-3.4c-6.6,0-10.9,4.1-10.9,10.4c0,5.4,2.7,8.2,10.1,10.1l4.8,1.2
			c3.7,0.9,4,1.1,5.1,1.8c1.5,1.2,2.3,2.8,2.3,4.8c0,2-0.8,3.7-2.2,5.1c-1.6,1.4-3.3,1.9-6.1,1.9c-3.7,0-6.3-1.2-8.7-3.8
			c-2.1-2.3-3.1-4.7-3.9-8.5h-2.2l0.2,14.2h2l2.2-3.4c3.3,2.8,6.1,3.8,10.5,3.8c7.3,0,12-4.3,12-11c0-3.2-1-5.8-3-7.7
			c-1.3-1.3-3.3-2.2-7.3-3.2l-5.4-1.3c-4.4-1.2-6.6-3.1-6.6-6.2c0-3.5,2.9-5.9,7.1-5.9c3.5,0,6.3,1.5,8.3,4.4c1.5,2,2.4,4.1,3,6.7
			h2.2L51.7,128.9 M62.7,159.7c-1.8,0-3.1,1.4-3.1,3.1c0,1.8,1.4,3.2,3.1,3.2c1.8,0,3.1-1.4,3.1-3.2
			C65.8,161.1,64.4,159.7,62.7,159.7"/>
		<line class="st2" x1="108.4" y1="799.3" x2="108.4" y2="901.3"/>
		<line class="st2" x1="873.3" y1="799.3" x2="873.3" y2="901.3"/>
		<line class="st2" x1="1418.3" y1="799.3" x2="1418.3" y2="901.3"/>
		<line class="st2" x1="2153" y1="799.3" x2="2153" y2="901.3"/>
		<line class="st2" x1="2568.4" y1="799.3" x2="2568.4" y2="901.3"/>
		<line class="st2" x1="108.4" y1="563.7" x2="108.4" y2="800.7"/>
		<line class="st2" x1="873.3" y1="563.7" x2="873.3" y2="665.6"/>
		<line class="st2" x1="1418.3" y1="563.7" x2="1418.3" y2="665.6"/>
		<line class="st2" x1="2153" y1="563.7" x2="2153" y2="665.6"/>
		<line class="st2" x1="2568.4" y1="563.7" x2="2568.4" y2="665.6"/>
		<line class="st2" x1="108.4" y1="96.2" x2="108.4" y2="565.1"/>
		<line class="st2" x1="873.3" y1="96.2" x2="873.3" y2="198.2"/>
		<line class="st2" x1="1418.3" y1="96.2" x2="1418.3" y2="198.2"/>
		<line class="st2" x1="2153" y1="96.2" x2="2153" y2="198.2"/>
		<line class="st2" x1="2568.4" y1="96.2" x2="2568.4" y2="198.2"/>
		<line class="st4" x1="1811.4" y1="689.1" x2="1861" y2="689.1"/>
		<line class="st4" x1="2030" y1="689.1" x2="2079.6" y2="689.1"/>
		<line class="st4" x1="2188.8" y1="713.9" x2="2238.4" y2="713.9"/>
		<line class="st4" x1="2188.8" y1="689.1" x2="2238.4" y2="689.1"/>
		<line class="st4" x1="2188.8" y1="246.4" x2="2238.4" y2="246.4"/>
		<line class="st4" x1="2188.8" y1="221.6" x2="2238.4" y2="221.6"/>
		<line class="st0" x1="259.7" y1="841.2" x2="259.7" y2="918.5"/>
		<line class="st0" x1="412.9" y1="841.2" x2="412.9" y2="918.5"/>
		<line class="st0" x1="566" y1="804" x2="566" y2="887.5"/>
		<line class="st0" x1="719.2" y1="791.6" x2="719.2" y2="875.1"/>
		<line class="st0" x1="917.9" y1="828.8" x2="917.9" y2="909.2"/>
		<line class="st0" x1="1056.7" y1="828.8" x2="1056.7" y2="909.2"/>
		<line class="st0" x1="1224.9" y1="859.5" x2="1224.9" y2="782.1"/>
		<line class="st0" x1="1462.9" y1="828.8" x2="1462.9" y2="909.2"/>
		<line class="st0" x1="1642.2" y1="853.6" x2="1642.2" y2="927.8"/>
		<line class="st0" x1="1821.5" y1="841.2" x2="1821.5" y2="918.5"/>
		<line class="st0" x1="2040" y1="841.2" x2="2040" y2="924.7"/>
		<line class="st0" x1="2198.8" y1="841.2" x2="2198.8" y2="918.5"/>
		<line class="st0" x1="289.2" y1="661.1" x2="289.2" y2="577.5"/>
		<line class="st0" x1="442.4" y1="661.1" x2="442.4" y2="577.5"/>
		<line class="st0" x1="595.6" y1="661.1" x2="595.6" y2="577.5"/>
		<line class="st0" x1="748.7" y1="661.1" x2="748.7" y2="577.5"/>
		<line class="st0" x1="947.4" y1="623.9" x2="947.4" y2="546.5"/>
		<line class="st0" x1="1086.2" y1="636.3" x2="1086.2" y2="555.8"/>
		<line class="st0" x1="1224.9" y1="661.1" x2="1224.9" y2="577.5"/>
		<line class="st0" x1="1492.4" y1="673.5" x2="1492.4" y2="589.9"/>
		<line class="st0" x1="1671.7" y1="673.5" x2="1671.7" y2="589.9"/>
		<line class="st0" x1="1851" y1="698.3" x2="1851" y2="614.7"/>
		<line class="st0" x1="2069.6" y1="698.3" x2="2069.6" y2="614.7"/>
		<line class="st0" x1="2228.3" y1="710.7" x2="2228.3" y2="614.7"/>
		<line class="st0" x1="289.2" y1="193.6" x2="289.2" y2="110"/>
		<line class="st0" x1="442.4" y1="193.6" x2="442.4" y2="110"/>
		<line class="st0" x1="595.6" y1="156.4" x2="595.6" y2="79"/>
		<line class="st0" x1="719.2" y1="150.6" x2="719.2" y2="224.7"/>
		<line class="st0" x1="917.9" y1="138.2" x2="917.9" y2="215.4"/>
		<line class="st0" x1="1056.7" y1="150.6" x2="1056.7" y2="224.7"/>
		<line class="st0" x1="1224.9" y1="156.4" x2="1224.9" y2="79"/>
		<line class="st0" x1="1492.4" y1="181.2" x2="1492.4" y2="97.6"/>
		<line class="st0" x1="1671.7" y1="206.1" x2="1671.7" y2="122.4"/>
		<line class="st0" x1="1851" y1="193.6" x2="1851" y2="110"/>
		<line class="st0" x1="2069.6" y1="193.6" x2="2069.6" y2="110"/>
		<line class="st0" x1="2228.3" y1="243.3" x2="2228.3" y2="147.2"/>
		<path class="st1" d="M289.6,829.9c-1.8-3.3-5.6-5.1-10.1-5.1c-3.4,0-7,1-10.6,2.9c-6.5,3.5-10.5,9.3-10.5,14.4
			c0,1.4,0.3,2.8,1,4.1c1.8,3.3,5.6,5,10.1,5c3.4,0,7-0.9,10.6-2.8c6.5-3.5,10.5-9.3,10.5-14.4C290.6,832.6,290.3,831.2,289.6,829.9
			"/>
		<path class="st1" d="M442.7,829.9c-1.8-3.3-5.6-5.1-10.1-5.1c-3.4,0-7,1-10.6,2.9c-6.5,3.5-10.5,9.3-10.5,14.4
			c0,1.4,0.3,2.8,1,4.1c1.8,3.3,5.6,5,10.1,5c3.4,0,7-0.9,10.6-2.8c6.5-3.5,10.5-9.3,10.5-14.4C443.7,832.6,443.4,831.2,442.7,829.9
			"/>
		<path class="st1" d="M595.9,792.7c-1.8-3.3-5.6-5.1-10.1-5.1c-3.4,0-7,1-10.6,2.9c-6.5,3.5-10.5,9.3-10.5,14.4
			c0,1.4,0.3,2.8,1,4.1c1.8,3.3,5.6,5,10.1,5c3.4,0,7-0.9,10.6-2.8c6.5-3.5,10.5-9.3,10.5-14.4C596.9,795.4,596.6,794,595.9,792.7"
			/>
		<path class="st1" d="M749.1,780.3c-1.8-3.3-5.6-5.1-10.1-5.1c-3.4,0-7,1-10.6,2.9c-6.5,3.5-10.5,9.3-10.5,14.4
			c0,1.4,0.3,2.8,1,4.1c1.8,3.3,5.6,5,10.1,5c3.4,0,7-0.9,10.6-2.8c6.5-3.5,10.5-9.3,10.5-14.4C750.1,783,749.8,781.6,749.1,780.3"
			/>
		<path class="st1" d="M947.8,817.5c-1.8-3.3-5.6-5.1-10.1-5.1c-3.4,0-7,1-10.6,2.9c-6.5,3.5-10.5,9.3-10.5,14.4
			c0,1.4,0.3,2.8,1,4.1c1.8,3.3,5.6,5,10.1,5c3.4,0,7-0.9,10.6-2.8c6.5-3.5,10.5-9.3,10.5-14.4C948.8,820.2,948.5,818.8,947.8,817.5
			"/>
		<path class="st1" d="M1086.5,817.5c-1.8-3.3-5.6-5.1-10.1-5.1c-3.4,0-7,1-10.6,2.9c-6.5,3.5-10.5,9.3-10.5,14.4
			c0,1.4,0.3,2.8,1,4.1c1.8,3.3,5.6,5,10.1,5c3.4,0,7-0.9,10.6-2.8c6.5-3.5,10.5-9.3,10.5-14.4
			C1087.5,820.2,1087.2,818.8,1086.5,817.5"/>
		<path class="st1" d="M1225.3,854.7c-1.8-3.3-5.6-5.1-10.1-5.1c-3.4,0-7,1-10.6,2.9c-6.5,3.5-10.5,9.3-10.5,14.4
			c0,1.4,0.3,2.8,1,4.1c1.8,3.3,5.6,5,10.1,5c3.4,0,7-0.9,10.6-2.8c6.5-3.5,10.5-9.3,10.5-14.4C1226.3,857.4,1226,856,1225.3,854.7
			 M1221,861.4c-1.7,1.7-5.1,3.8-8.6,5.8s-7.1,3.5-9.5,4c-0.5,0.1-1,0.2-1.5,0.2c-1.6,0-2.8-0.6-3.5-1.9c-0.3-0.5-0.5-1.1-0.5-1.7
			c0-1.1,0.7-2.4,1.8-3.5c1.7-1.7,5-3.8,8.5-5.8s7.1-3.5,9.5-4c0.5-0.1,1-0.2,1.5-0.2c1.6,0,2.9,0.6,3.6,1.9
			c0.3,0.5,0.4,1.1,0.4,1.7C1222.7,859,1222.1,860.2,1221,861.4"/>
		<path class="st1" d="M1492.8,817.5c-1.8-3.3-5.6-5.1-10.1-5.1c-3.4,0-7,1-10.6,2.9c-6.5,3.5-10.5,9.3-10.5,14.4
			c0,1.4,0.3,2.8,1,4.1c1.8,3.3,5.6,5,10.1,5c3.4,0,7-0.9,10.6-2.8c6.5-3.5,10.5-9.3,10.5-14.4
			C1493.8,820.2,1493.5,818.8,1492.8,817.5"/>
		<path class="st1" d="M1672.1,842.3c-1.8-3.3-5.6-5.1-10.1-5.1c-3.4,0-7,1-10.6,2.9c-6.5,3.5-10.5,9.3-10.5,14.4
			c0,1.4,0.3,2.8,1,4.1c1.8,3.3,5.6,5,10.1,5c3.4,0,7-0.9,10.6-2.8c6.5-3.5,10.5-9.3,10.5-14.4
			C1673.1,845,1672.8,843.6,1672.1,842.3"/>
		<path class="st1" d="M1851.3,829.9c-1.8-3.3-5.6-5.1-10.1-5.1c-3.4,0-7,1-10.6,2.9c-6.5,3.5-10.5,9.3-10.5,14.4
			c0,1.4,0.3,2.8,1,4.1c1.8,3.3,5.6,5,10.1,5c3.4,0,7-0.9,10.6-2.8c6.5-3.5,10.5-9.3,10.5-14.4
			C1852.3,832.6,1852,831.2,1851.3,829.9"/>
		<path class="st1" d="M2069.9,829.9c-1.8-3.3-5.6-5.1-10.1-5.1c-3.4,0-7,1-10.6,2.9c-6.5,3.5-10.5,9.3-10.5,14.4
			c0,1.4,0.3,2.8,1,4.1c1.8,3.3,5.6,5,10.1,5c3.4,0,7-0.9,10.6-2.8c6.5-3.5,10.5-9.3,10.5-14.4
			C2070.9,832.6,2070.6,831.2,2069.9,829.9"/>
		<path class="st1" d="M2228.7,829.9c-1.8-3.3-5.6-5.1-10.1-5.1c-3.4,0-7,1-10.6,2.9c-6.5,3.5-10.5,9.3-10.5,14.4
			c0,1.4,0.3,2.8,1,4.1c1.8,3.3,5.6,5,10.1,5c3.4,0,7-0.9,10.6-2.8c6.5-3.5,10.5-9.3,10.5-14.4
			C2229.7,832.6,2229.4,831.2,2228.7,829.9 M2224.5,836.6c-1.7,1.7-5.1,3.8-8.6,5.8c-3.6,2-7.1,3.5-9.5,4c-0.5,0.1-1,0.2-1.5,0.2
			c-1.6,0-2.8-0.6-3.5-1.9c-0.3-0.5-0.5-1.1-0.5-1.7c0-1.1,0.7-2.4,1.8-3.5c1.7-1.7,5-3.8,8.5-5.8c3.6-2,7.1-3.5,9.5-4
			c0.5-0.1,1-0.2,1.5-0.2c1.6,0,2.9,0.6,3.6,1.9c0.3,0.5,0.4,1.1,0.4,1.7C2226.1,834.2,2225.5,835.4,2224.5,836.6"/>
		<path class="st1" d="M289.6,656.3c-1.8-3.3-5.6-5.1-10.1-5.1c-3.4,0-7,1-10.6,2.9c-6.5,3.5-10.5,9.3-10.5,14.4
			c0,1.4,0.3,2.8,1,4.1c1.8,3.3,5.6,5,10.1,5c3.4,0,7-0.9,10.6-2.8c6.5-3.5,10.5-9.3,10.5-14.4C290.6,658.9,290.3,657.5,289.6,656.3
			"/>
		<path class="st1" d="M442.7,656.3c-1.8-3.3-5.6-5.1-10.1-5.1c-3.4,0-7,1-10.6,2.9c-6.5,3.5-10.5,9.3-10.5,14.4
			c0,1.4,0.3,2.8,1,4.1c1.8,3.3,5.6,5,10.1,5c3.4,0,7-0.9,10.6-2.8c6.5-3.5,10.5-9.3,10.5-14.4C443.7,658.9,443.4,657.5,442.7,656.3
			"/>
		<path class="st1" d="M595.9,656.3c-1.8-3.3-5.6-5.1-10.1-5.1c-3.4,0-7,1-10.6,2.9c-6.5,3.5-10.5,9.3-10.5,14.4
			c0,1.4,0.3,2.8,1,4.1c1.8,3.3,5.6,5,10.1,5c3.4,0,7-0.9,10.6-2.8c6.5-3.5,10.5-9.3,10.5-14.4C596.9,658.9,596.6,657.5,595.9,656.3
			"/>
		<path class="st1" d="M749.1,656.3c-1.8-3.3-5.6-5.1-10.1-5.1c-3.4,0-7,1-10.6,2.9c-6.5,3.5-10.5,9.3-10.5,14.4
			c0,1.4,0.3,2.8,1,4.1c1.8,3.3,5.6,5,10.1,5c3.4,0,7-0.9,10.6-2.8c6.5-3.5,10.5-9.3,10.5-14.4C750.1,658.9,749.8,657.5,749.1,656.3
			"/>
		<path class="st1" d="M947.8,619.1c-1.8-3.3-5.6-5.1-10.1-5.1c-3.4,0-7,1-10.6,2.9c-6.5,3.5-10.5,9.3-10.5,14.4
			c0,1.4,0.3,2.8,1,4.1c1.8,3.3,5.6,5,10.1,5c3.4,0,7-0.9,10.6-2.8c6.5-3.5,10.5-9.3,10.5-14.4C948.8,621.7,948.5,620.3,947.8,619.1
			"/>
		<path class="st1" d="M1086.5,631.5c-1.8-3.3-5.6-5.1-10.1-5.1c-3.4,0-7,1-10.6,2.9c-6.5,3.5-10.5,9.3-10.5,14.4
			c0,1.4,0.3,2.8,1,4.1c1.8,3.3,5.6,5,10.1,5c3.4,0,7-0.9,10.6-2.8c6.5-3.5,10.5-9.3,10.5-14.4
			C1087.5,634.1,1087.2,632.7,1086.5,631.5"/>
		<path class="st1" d="M1225.3,656.3c-1.8-3.3-5.6-5.1-10.1-5.1c-3.4,0-7,1-10.6,2.9c-6.5,3.5-10.5,9.3-10.5,14.4
			c0,1.4,0.3,2.8,1,4.1c1.8,3.3,5.6,5,10.1,5c3.4,0,7-0.9,10.6-2.8c6.5-3.5,10.5-9.3,10.5-14.4
			C1226.3,658.9,1226,657.5,1225.3,656.3 M1221,663c-1.7,1.7-5.1,3.8-8.6,5.8s-7.1,3.5-9.5,4c-0.5,0.1-1,0.2-1.5,0.2
			c-1.6,0-2.8-0.6-3.5-1.9c-0.3-0.5-0.5-1.1-0.5-1.7c0-1.1,0.7-2.4,1.8-3.5c1.7-1.7,5-3.8,8.5-5.8s7.1-3.5,9.5-4
			c0.5-0.1,1-0.2,1.5-0.2c1.6,0,2.9,0.6,3.6,1.9c0.3,0.5,0.4,1.1,0.4,1.7C1222.7,660.6,1222.1,661.8,1221,663"/>
		<path class="st1" d="M1492.8,668.7c-1.8-3.3-5.6-5.1-10.1-5.1c-3.4,0-7,1-10.6,2.9c-6.5,3.5-10.5,9.3-10.5,14.4
			c0,1.4,0.3,2.8,1,4.1c1.8,3.3,5.6,5,10.1,5c3.4,0,7-0.9,10.6-2.8c6.5-3.5,10.5-9.3,10.5-14.4
			C1493.8,671.3,1493.5,669.9,1492.8,668.7"/>
		<path class="st1" d="M1672.1,668.7c-1.8-3.3-5.6-5.1-10.1-5.1c-3.4,0-7,1-10.6,2.9c-6.5,3.5-10.5,9.3-10.5,14.4
			c0,1.4,0.3,2.8,1,4.1c1.8,3.3,5.6,5,10.1,5c3.4,0,7-0.9,10.6-2.8c6.5-3.5,10.5-9.3,10.5-14.4
			C1673.1,671.3,1672.8,669.9,1672.1,668.7"/>
		<path class="st1" d="M1851.3,693.5c-1.8-3.3-5.6-5.1-10.1-5.1c-3.4,0-7,1-10.6,2.9c-6.5,3.5-10.5,9.3-10.5,14.4
			c0,1.4,0.3,2.8,1,4.1c1.8,3.3,5.6,5,10.1,5c3.4,0,7-0.9,10.6-2.8c6.5-3.5,10.5-9.3,10.5-14.4
			C1852.3,696.1,1852,694.7,1851.3,693.5"/>
		<path class="st1" d="M2069.9,693.5c-1.8-3.3-5.6-5.1-10.1-5.1c-3.4,0-7,1-10.6,2.9c-6.5,3.5-10.5,9.3-10.5,14.4
			c0,1.4,0.3,2.8,1,4.1c1.8,3.3,5.6,5,10.1,5c3.4,0,7-0.9,10.6-2.8c6.5-3.5,10.5-9.3,10.5-14.4
			C2070.9,696.1,2070.6,694.7,2069.9,693.5"/>
		<path class="st1" d="M2228.7,705.9c-1.8-3.3-5.6-5.1-10.1-5.1c-3.4,0-7,1-10.6,2.9c-6.5,3.5-10.5,9.3-10.5,14.4
			c0,1.4,0.3,2.8,1,4.1c1.8,3.3,5.6,5,10.1,5c3.4,0,7-0.9,10.6-2.8c6.5-3.5,10.5-9.3,10.5-14.4
			C2229.7,708.5,2229.4,707.2,2228.7,705.9 M2224.5,712.6c-1.7,1.7-5.1,3.8-8.6,5.8c-3.6,2-7.1,3.5-9.5,4c-0.5,0.1-1,0.2-1.5,0.2
			c-1.6,0-2.8-0.6-3.5-1.9c-0.3-0.5-0.5-1.1-0.5-1.7c0-1.1,0.7-2.4,1.8-3.5c1.7-1.7,5-3.8,8.5-5.8c3.6-2,7.1-3.5,9.5-4
			c0.5-0.1,1-0.2,1.5-0.2c1.6,0,2.9,0.6,3.6,1.9c0.3,0.5,0.4,1.1,0.4,1.7C2226.1,710.2,2225.5,711.4,2224.5,712.6"/>
		<path class="st1" d="M289.6,188.8c-1.8-3.3-5.6-5.1-10.1-5.1c-3.4,0-7,1-10.6,2.9c-6.5,3.5-10.5,9.3-10.5,14.4
			c0,1.4,0.3,2.8,1,4.1c1.8,3.3,5.6,5,10.1,5c3.4,0,7-0.9,10.6-2.8c6.5-3.5,10.5-9.3,10.5-14.4C290.6,191.5,290.3,190.1,289.6,188.8
			"/>
		<path class="st1" d="M442.7,188.8c-1.8-3.3-5.6-5.1-10.1-5.1c-3.4,0-7,1-10.6,2.9c-6.5,3.5-10.5,9.3-10.5,14.4
			c0,1.4,0.3,2.8,1,4.1c1.8,3.3,5.6,5,10.1,5c3.4,0,7-0.9,10.6-2.8c6.5-3.5,10.5-9.3,10.5-14.4C443.7,191.5,443.4,190.1,442.7,188.8
			"/>
		<path class="st1" d="M595.9,151.6c-1.8-3.3-5.6-5.1-10.1-5.1c-3.4,0-7,1-10.6,2.9c-6.5,3.5-10.5,9.3-10.5,14.4
			c0,1.4,0.3,2.8,1,4.1c1.8,3.3,5.6,5,10.1,5c3.4,0,7-0.9,10.6-2.8c6.5-3.5,10.5-9.3,10.5-14.4C596.9,154.3,596.6,152.9,595.9,151.6
			"/>
		<path class="st1" d="M749.1,139.2c-1.8-3.3-5.6-5.1-10.1-5.1c-3.4,0-7,1-10.6,2.9c-6.5,3.5-10.5,9.3-10.5,14.4
			c0,1.4,0.3,2.8,1,4.1c1.8,3.3,5.6,5,10.1,5c3.4,0,7-0.9,10.6-2.8c6.5-3.5,10.5-9.3,10.5-14.4C750.1,141.9,749.8,140.5,749.1,139.2
			"/>
		<path class="st1" d="M947.8,126.8c-1.8-3.3-5.6-5.1-10.1-5.1c-3.4,0-7,1-10.6,2.9c-6.5,3.5-10.5,9.3-10.5,14.4
			c0,1.4,0.3,2.8,1,4.1c1.8,3.3,5.6,5,10.1,5c3.4,0,7-0.9,10.6-2.8c6.5-3.5,10.5-9.3,10.5-14.4C948.8,129.5,948.5,128.1,947.8,126.8
			"/>
		<path class="st1" d="M1086.5,139.2c-1.8-3.3-5.6-5.1-10.1-5.1c-3.4,0-7,1-10.6,2.9c-6.5,3.5-10.5,9.3-10.5,14.4
			c0,1.4,0.3,2.8,1,4.1c1.8,3.3,5.6,5,10.1,5c3.4,0,7-0.9,10.6-2.8c6.5-3.5,10.5-9.3,10.5-14.4
			C1087.5,141.9,1087.2,140.5,1086.5,139.2"/>
		<path class="st1" d="M1225.3,151.6c-1.8-3.3-5.6-5.1-10.1-5.1c-3.4,0-7,1-10.6,2.9c-6.5,3.5-10.5,9.3-10.5,14.4
			c0,1.4,0.3,2.8,1,4.1c1.8,3.3,5.6,5,10.1,5c3.4,0,7-0.9,10.6-2.8c6.5-3.5,10.5-9.3,10.5-14.4
			C1226.3,154.3,1226,152.9,1225.3,151.6 M1221,158.3c-1.7,1.7-5.1,3.8-8.6,5.8s-7.1,3.5-9.5,4c-0.5,0.1-1,0.2-1.5,0.2
			c-1.6,0-2.8-0.6-3.5-1.9c-0.3-0.5-0.5-1.1-0.5-1.7c0-1.1,0.7-2.4,1.8-3.5c1.7-1.7,5-3.8,8.5-5.8s7.1-3.5,9.5-4
			c0.5-0.1,1-0.2,1.5-0.2c1.6,0,2.9,0.6,3.6,1.9c0.3,0.5,0.4,1.1,0.4,1.7C1222.7,155.9,1222.1,157.1,1221,158.3"/>
		<path class="st1" d="M1492.8,176.4c-1.8-3.3-5.6-5.1-10.1-5.1c-3.4,0-7,1-10.6,2.9c-6.5,3.5-10.5,9.3-10.5,14.4
			c0,1.4,0.3,2.8,1,4.1c1.8,3.3,5.6,5,10.1,5c3.4,0,7-0.9,10.6-2.8c6.5-3.5,10.5-9.3,10.5-14.4
			C1493.8,179.1,1493.5,177.7,1492.8,176.4"/>
		<path class="st1" d="M1672.1,201.2c-1.8-3.3-5.6-5.1-10.1-5.1c-3.4,0-7,1-10.6,2.9c-6.5,3.5-10.5,9.3-10.5,14.4
			c0,1.4,0.3,2.8,1,4.1c1.8,3.3,5.6,5,10.1,5c3.4,0,7-0.9,10.6-2.8c6.5-3.5,10.5-9.3,10.5-14.4
			C1673.1,203.9,1672.8,202.5,1672.1,201.2"/>
		<path class="st1" d="M1851.3,188.8c-1.8-3.3-5.6-5.1-10.1-5.1c-3.4,0-7,1-10.6,2.9c-6.5,3.5-10.5,9.3-10.5,14.4
			c0,1.4,0.3,2.8,1,4.1c1.8,3.3,5.6,5,10.1,5c3.4,0,7-0.9,10.6-2.8c6.5-3.5,10.5-9.3,10.5-14.4
			C1852.3,191.5,1852,190.1,1851.3,188.8"/>
		<path class="st1" d="M2069.9,188.8c-1.8-3.3-5.6-5.1-10.1-5.1c-3.4,0-7,1-10.6,2.9c-6.5,3.5-10.5,9.3-10.5,14.4
			c0,1.4,0.3,2.8,1,4.1c1.8,3.3,5.6,5,10.1,5c3.4,0,7-0.9,10.6-2.8c6.5-3.5,10.5-9.3,10.5-14.4
			C2070.9,191.5,2070.6,190.1,2069.9,188.8"/>
		<path class="st1" d="M2228.7,238.4c-1.8-3.3-5.6-5.1-10.1-5.1c-3.4,0-7,1-10.6,2.9c-6.5,3.5-10.5,9.3-10.5,14.4
			c0,1.4,0.3,2.8,1,4.1c1.8,3.3,5.6,5,10.1,5c3.4,0,7-0.9,10.6-2.8c6.5-3.5,10.5-9.3,10.5-14.4
			C2229.7,241.1,2229.4,239.7,2228.7,238.4 M2224.5,245.1c-1.7,1.7-5.1,3.8-8.6,5.8c-3.6,2-7.1,3.5-9.5,4c-0.5,0.1-1,0.2-1.5,0.2
			c-1.6,0-2.8-0.6-3.5-1.9c-0.3-0.5-0.5-1.1-0.5-1.7c0-1.1,0.7-2.4,1.8-3.5c1.7-1.7,5-3.8,8.5-5.8c3.6-2,7.1-3.5,9.5-4
			c0.5-0.1,1-0.2,1.5-0.2c1.6,0,2.9,0.6,3.6,1.9c0.3,0.5,0.4,1.1,0.4,1.7C2226.1,242.8,2225.5,244,2224.5,245.1"/>
		<path class="st1" d="M155.6,800.6c-7.5,0-13.6,4.4-13.7,4.4c-5.8,4.3-8,9.3-8.9,12.8c-0.5,1.8-0.7,3.6-0.7,5.3
			c0,2.4,0.4,4.6,1.3,6.4c1.2,2.7,3.5,4.6,6.4,5.6c1.2,0.4,2.5,0.6,3.8,0.6c2.2,0,4.5-0.6,6.3-1.7c3.1-1.7,5-5.3,5-9.1
			c0-3.5-1.8-6.6-4.8-8.5c-2.1-1.4-4.1-1.8-5.8-1.8c-1.2,0-2.3,0.2-3.2,0.5c-1,0.4-2.7,1.4-3.5,2.1c0.3-1.9,1.5-4.8,2.6-6.3
			s3.3-3.6,5-4.5c2.5-1.4,5.7-2,9.1-2c10.1,0,15.1,8.1,15.1,24.8c0,9.2-3.5,18.1-6.4,23.9c-3.3,6.5-7.6,12.8-11.5,16.3
			c-10.3,9.4-20,13.9-20.1,13.9c0,0-1.5,0.9-1.1,2.4c0.3,1,1.2,1.2,1.8,1.2c0.1,0,0.4-0.1,0.5-0.1s11.4-4.7,20.4-11.7
			c5.1-3.7,9.6-7.6,13.6-11.9c3.6-3.9,6.6-8,9.1-12.2c4.4-7.4,6.8-15.2,6.8-21.8c0-8.2-2.2-15.1-6.3-19.9
			C171.9,803.5,164.9,800.6,155.6,800.6 M186.8,813.2c0,2.8,2.2,5,4.8,5c2.6,0,4.8-2.2,4.8-5s-2.2-5.1-4.8-5.1
			C189,808.1,186.8,810.4,186.8,813.2 M186.8,837.7c0,2.8,2.2,5.1,4.8,5.1c2.6,0,4.8-2.3,4.8-5.1s-2.2-5.1-4.8-5.1
			C189,832.7,186.8,834.9,186.8,837.7"/>
		<path class="st1" d="M193.3,633.7c-1.2-5.4-3.8-9.2-4.6-10.2c-3.2-4.2-7.1-7.1-11.8-8.4c-3.1-0.9-6.1-1-8.5-0.8
			c-1-6-2-11.8-2.9-17.2c5.4-6.1,9-11.9,11.3-16.1c3.4-6.5,4.6-11.1,4.6-11.3c1.7-5.2,2.1-12.8,1-21c-1-7.5-3.1-14.1-5.4-17.4
			c-1-1.4-2.1-2.1-3.1-2.1c-1.2,0-3.7,1.2-6.6,4c-2.3,2.2-5.5,6-8.1,12c-3,7-3.2,16.4-2.8,23.1c0.4,7.2,1.5,12.9,1.5,12.9
			c0,0.1,0.3,1.6,0.7,4.1c-0.2,0.2-0.5,0.4-0.7,0.7c-1,1-2.2,2.1-3.6,3.5c-0.9,0.9-1.8,1.8-2.8,2.7c-8.4,8.1-21.1,20.3-21.1,39.3
			c0,4.7,0.9,9,2.7,13c1.6,3.6,3.9,6.8,6.8,9.7c7.7,7.5,18.2,10.7,25.2,10.5c2.9-0.1,5.5-0.3,7.9-0.8c1.8,9.5,2.9,16.5,3,21.8
			c0,6.5-1.6,10.4-5.5,13.1c-2.4,1.7-5.2,2.7-8.3,2.8c-2.6,0.1-4.8-0.3-6.2-0.8h0c0,0-0.3-0.1-0.3-0.3c0-0.2,0.3-0.2,0.3-0.2h0
			c1.9-0.4,5.4-1.7,7.8-4.9c1.8-2.5,2.6-7.1,0.8-11c-1.1-2.4-3.6-5.3-9.2-5.7c-2.5-0.2-4.7,0.3-6.7,1.5c-1.8,1.1-3.3,2.7-4.3,4.7
			c-2.4,4.7-2,10.3,1.1,14.2c2.9,3.6,7.5,5.9,12.9,6.5c0.8,0.1,1.7,0.1,2.5,0.1c4.4,0,8.8-1.2,12.3-3.4c3.6-2.5,5.7-6.5,6.4-12.1
			c0.6-4.6,0.2-10.5-1.2-18.5c-0.4-2.1-0.9-5.1-1.5-8.8c5.7-1.9,9.8-5.4,13.6-11.3C193.8,646,194.7,639.9,193.3,633.7 M159.3,659.6
			c-4.6-1.2-9-3.7-12.7-7.2c-1.3-1.2-3.2-3.4-4.6-6.7c-1.4-3.1-2-6.5-2-10.1c0.1-4.7,1.4-9.4,3.9-14.2c2.9-5.5,7.4-11,13.4-16.3
			c1.4-1.3,2.8-2.5,4.1-3.8c0.8,4.2,1.6,8.9,2.5,13.7c-3.8,1.3-8.5,4.4-11.6,10c-3.5,6.5-3.4,12-2.6,15.4c0.9,4.4,3.4,8.2,6.9,10.2
			c0.9,0.6,5,2.7,6.8,2.1c0.4-0.1,0.6-0.3,0.8-0.7c0.5-1.2-0.5-1.8-2.1-2.7c-0.6-0.4-1.3-0.8-2-1.3c-3.3-2.5-4.7-6.9-3.7-11.2
			c0.6-2.4,1.8-4.5,3.7-6.2c1.7-1.5,3.7-2.6,6-3.3c2,11.2,4.1,22.2,5.7,30.5c0.1,0.7,0.3,1.3,0.4,2
			C167.8,660.8,163.5,660.8,159.3,659.6 M170.6,626.7c10.3-0.5,14.5,6.9,15.4,11.7c0.5,2.5,0.5,6.9-1.1,11.1
			c-1.2,3.2-3.6,7.2-8.7,9.2c-0.1-0.4-0.1-0.8-0.2-1.3C174.4,648.8,172.5,637.9,170.6,626.7 M163.3,556.3c1.8-5.7,4.5-8.9,6.5-10.6
			c1.7-1.5,3.4-2.2,4.3-2.2c0.1,0,0.3,0,0.4,0c0.5,0.1,1,0.7,1.4,1.6c2.3,4.3,1.6,10.9,0.2,15.3c-1.6,5.4-4.5,10.9-13.2,20.5
			c-0.2-1.1-0.3-2.1-0.5-3.1C161.1,569.6,161.4,562.4,163.3,556.3"/>
		<path class="st1" d="M193.3,166.2c-1.2-5.4-3.8-9.2-4.6-10.2c-3.2-4.2-7.1-7.1-11.8-8.4c-3.1-0.9-6.1-1-8.5-0.8
			c-1-6-2-11.8-2.9-17.2c5.4-6.1,9-11.9,11.3-16.1c3.4-6.5,4.6-11.1,4.6-11.3c1.7-5.2,2.1-12.8,1-21c-1-7.5-3.1-14.1-5.4-17.4
			c-1-1.4-2.1-2.1-3.1-2.1c-1.2,0-3.7,1.2-6.6,4c-2.3,2.2-5.5,6-8.1,12c-3,7-3.2,16.4-2.8,23.1c0.4,7.2,1.5,12.9,1.5,12.9
			c0,0.1,0.3,1.6,0.7,4.1c-0.2,0.2-0.5,0.4-0.7,0.7c-1,1-2.2,2.1-3.6,3.5c-0.9,0.9-1.8,1.8-2.8,2.7c-8.4,8.1-21.1,20.3-21.1,39.3
			c0,4.7,0.9,9,2.7,13c1.6,3.6,3.9,6.8,6.8,9.7c7.7,7.5,18.2,10.7,25.2,10.5c2.9-0.1,5.5-0.3,7.9-0.8c1.8,9.5,2.9,16.5,3,21.8
			c0,6.5-1.6,10.4-5.5,13.1c-2.4,1.7-5.2,2.7-8.3,2.8c-2.6,0.1-4.8-0.3-6.2-0.8h0c0,0-0.3-0.1-0.3-0.3c0-0.2,0.3-0.2,0.3-0.2h0
			c1.9-0.4,5.4-1.7,7.8-4.9c1.8-2.5,2.6-7.1,0.8-11c-1.1-2.4-3.6-5.3-9.2-5.7c-2.5-0.2-4.7,0.3-6.7,1.5c-1.8,1.1-3.3,2.7-4.3,4.7
			c-2.4,4.7-2,10.3,1.1,14.2c2.9,3.6,7.5,5.9,12.9,6.5c0.8,0.1,1.7,0.1,2.5,0.1c4.4,0,8.8-1.2,12.3-3.4c3.6-2.5,5.7-6.5,6.4-12.1
			c0.6-4.6,0.2-10.5-1.2-18.5c-0.4-2.1-0.9-5.1-1.5-8.8c5.7-1.9,9.8-5.4,13.6-11.3C193.8,178.5,194.7,172.5,193.3,166.2
			 M159.3,192.2c-4.6-1.2-9-3.7-12.7-7.2c-1.3-1.2-3.2-3.4-4.6-6.7c-1.4-3.1-2-6.5-2-10.1c0.1-4.7,1.4-9.4,3.9-14.2
			c2.9-5.5,7.4-11,13.4-16.3c1.4-1.3,2.8-2.5,4.1-3.8c0.8,4.2,1.6,8.9,2.5,13.7c-3.8,1.3-8.5,4.4-11.6,10c-3.5,6.5-3.4,12-2.6,15.4
			c0.9,4.4,3.4,8.2,6.9,10.2c0.9,0.6,5,2.7,6.8,2.1c0.4-0.1,0.6-0.3,0.8-0.7c0.5-1.2-0.5-1.8-2.1-2.7c-0.6-0.4-1.3-0.8-2-1.3
			c-3.3-2.5-4.7-6.9-3.7-11.2c0.6-2.4,1.8-4.5,3.7-6.2c1.7-1.5,3.7-2.6,6-3.3c2,11.2,4.1,22.2,5.7,30.5c0.1,0.7,0.3,1.3,0.4,2
			C167.8,193.4,163.5,193.3,159.3,192.2 M170.6,159.3c10.3-0.5,14.5,6.9,15.4,11.7c0.5,2.5,0.5,6.9-1.1,11.1
			c-1.2,3.2-3.6,7.2-8.7,9.2c-0.1-0.4-0.1-0.8-0.2-1.3C174.4,181.3,172.5,170.4,170.6,159.3 M163.3,88.9c1.8-5.7,4.5-8.9,6.5-10.6
			c1.7-1.5,3.4-2.2,4.3-2.2c0.1,0,0.3,0,0.4,0c0.5,0.1,1,0.7,1.4,1.6c2.3,4.3,1.6,10.9,0.2,15.3c-1.6,5.4-4.5,10.9-13.2,20.5
			c-0.2-1.1-0.3-2.1-0.5-3.1C161.1,102.1,161.4,94.9,163.3,88.9"/>
		<path class="st1" d="M2464.2,867.1l-0.2-0.3c-0.1-0.1-0.3-0.3-0.6-0.7L2452,852c-0.3-0.3-0.2-1.1,0-1.5l10.1-15.3
			c0.1-0.2,0.2-0.5,0.2-0.7v-0.9c0-0.3-0.1-0.6-0.3-0.8l-16.1-21.7c0,0-0.8-1.2-1.8-0.3c-1,0.8-0.2,2.1-0.2,2.1l7.5,10.3
			c0.4,0.6,0.4,1.8,0,2.4l-10,15.3c-0.1,0.2-0.2,0.6-0.2,0.8v0.9c0,0.3,0.1,0.6,0.3,0.8l11.1,13.8c-0.4-0.1-1.3-0.3-2.5-0.3
			c-1.7,0-3.9,0.4-5.7,2c-2.2,2-3.4,4.8-3.4,7.2c0,1.4,0.3,2.8,1.1,3.9c2.1,3.2,9.5,12.6,9.5,12.6s0.9,1.1,1.8,0.4
			c0.9-0.7,0.7-1.6,0.4-2.1c-0.3-0.5-3.5-6.3-3.5-6.3s-0.7-1.4-0.7-3.2c0-1.3,0.4-2.9,1.7-4.2c1.2-1.2,2.6-1.6,3.9-1.6
			s2.4,0.4,3.2,0.9l3.9,2.5c0,0,1.2,0.6,1.8-0.3C2464.7,868,2464.5,867.6,2464.2,867.1"/>
		<path class="st1" d="M2464.2,631.4l-0.2-0.3c-0.1-0.1-0.3-0.3-0.6-0.7l-11.4-14.1c-0.3-0.3-0.2-1.1,0-1.5l10.1-15.3
			c0.1-0.2,0.2-0.5,0.2-0.7V598c0-0.3-0.1-0.6-0.3-0.8l-16.1-21.7c0,0-0.8-1.2-1.8-0.3c-1,0.8-0.2,2.1-0.2,2.1l7.5,10.3
			c0.4,0.6,0.4,1.8,0,2.4l-10,15.3c-0.1,0.2-0.2,0.6-0.2,0.8v0.9c0,0.3,0.1,0.6,0.3,0.8l11.1,13.8c-0.4-0.1-1.3-0.3-2.5-0.3
			c-1.7,0-3.9,0.4-5.7,2c-2.2,2-3.4,4.8-3.4,7.2c0,1.4,0.3,2.8,1.1,3.9c2.1,3.2,9.5,12.6,9.5,12.6s0.9,1.1,1.8,0.4
			c0.9-0.7,0.7-1.6,0.4-2.1c-0.3-0.5-3.5-6.3-3.5-6.3s-0.7-1.4-0.7-3.2c0-1.3,0.4-2.9,1.7-4.2c1.2-1.2,2.6-1.6,3.9-1.6
			s2.4,0.4,3.2,0.9l3.9,2.5c0,0,1.2,0.6,1.8-0.3C2464.7,632.3,2464.5,631.9,2464.2,631.4"/>
		<path class="st1" d="M2464.2,164l-0.2-0.3c-0.1-0.1-0.3-0.3-0.6-0.7l-11.4-14.1c-0.3-0.3-0.2-1.1,0-1.5l10.1-15.3
			c0.1-0.2,0.2-0.5,0.2-0.7v-0.9c0-0.3-0.1-0.6-0.3-0.8L2446,108c0,0-0.8-1.2-1.8-0.3c-1,0.8-0.2,2.1-0.2,2.1l7.5,10.3
			c0.4,0.6,0.4,1.8,0,2.4l-10,15.3c-0.1,0.2-0.2,0.6-0.2,0.8v0.9c0,0.3,0.1,0.6,0.3,0.8l11.1,13.8c-0.4-0.1-1.3-0.3-2.5-0.3
			c-1.7,0-3.9,0.4-5.7,2c-2.2,2-3.4,4.8-3.4,7.2c0,1.4,0.3,2.8,1.1,3.9c2.1,3.2,9.5,12.6,9.5,12.6s0.9,1.1,1.8,0.4s0.7-1.6,0.4-2.1
			c-0.3-0.5-3.5-6.3-3.5-6.3s-0.7-1.4-0.7-3.2c0-1.3,0.4-2.9,1.7-4.2c1.2-1.2,2.6-1.6,3.9-1.6s2.4,0.4,3.2,0.9l3.9,2.5
			c0,0,1.2,0.6,1.8-0.3C2464.7,164.9,2464.5,164.5,2464.2,164"/>
		<path class="st1" d="M2041.2,925.1c0-0.2,0.9-3.6,1-3.9c0.1-0.4,1.9-6.1,5.6-11.7c2.7-4.2,12.1-16.4,11.8-16.4
			c0,0,7.3-9.4,7.8-22.2v-2.3c0-6.1-0.8-14.6-4.3-23.2c-0.4-1-0.8-2-1.9-1.6s-0.8,1.6-0.5,2.7c1.8,6.9,2.8,14.1,2.8,21.2
			c0,8.3-3,12.5-4.8,15.6c-6.5,11-15.1,16.4-19.2,17.8c-0.5,0.2-0.8,0.6-0.8,1.1v6.2v16.3c0,0.7,0.6,1.3,1.3,1.3
			C2040.5,925.9,2041.1,925.5,2041.2,925.1"/>
		<path class="st1" d="M2071.7,618.2c-0.1-0.3-1-3.8-1-4c-0.1-0.4-0.7-0.7-1.2-0.7c-0.7,0-1.3,0.6-1.3,1.3V631v6.2
			c0,0.5,0.4,0.9,0.8,1.1c4.2,1.3,12.8,6.7,19.2,17.8c1.8,3.1,4.7,7.2,4.7,15.6c0,7.1-1.1,14.7-2.9,21.6c-0.3,1.1-0.6,2.1,0.5,2.5
			c1.1,0.4,1.5-0.4,1.9-1.4c3.6-8.7,4.5-17.9,4.5-24v-1.9c-0.5-12.8-7.8-22.2-7.8-22.2c0.3,0-9.1-12.2-11.8-16.4
			C2073.6,624.2,2071.8,618.5,2071.7,618.2"/>
		<path class="st1" d="M2071.7,113.5c-0.1-0.3-1-3.8-1-4c-0.1-0.4-0.7-0.7-1.2-0.7c-0.7,0-1.3,0.6-1.3,1.3v16.3v6.2
			c0,0.5,0.4,0.9,0.8,1.1c4.2,1.3,12.8,6.7,19.2,17.8c1.8,3.1,4.7,7.2,4.7,15.6c0,7.1-1.1,14.7-2.9,21.6c-0.3,1.1-0.6,2.1,0.5,2.5
			c1.1,0.4,1.5-0.4,1.9-1.4c3.6-8.7,4.5-17.9,4.5-24v-1.9c-0.5-12.8-7.8-22.2-7.8-22.2c0.3,0-9.1-12.2-11.8-16.4
			C2073.6,119.5,2071.8,113.9,2071.7,113.5"/>
		<path class="st1" d="M260.4,282.8c0.3,0.8,0.4,1,0.7,2.6c0.4,2.5,1,5.5,1.4,7.1c-2.3,1.7-3.7,3.2-5,5.1c-1.9,2.8-2.9,6.3-2.9,9.6
			c0,5.9,2.8,9.8,7.2,9.8c2.9,0,5.7-1.8,8.9-5.7c3.9-4.7,7.5-11.8,9.7-19.6c6.9,1.4,10.5,5.4,10.5,11.5c0,2.6-0.8,5-2.2,7.1
			c-1.5,2.2-4,4-7.5,5.4c-2.6,1.1-4.6,1.6-7.5,1.8c1.3,1.7,1.6,2.1,2,3.3c2.1-0.5,2.4-0.5,3.1-0.8c4-1,7.5-2.8,10.1-4.9
			c3.4-2.8,5.4-7.3,5.4-12c0-7.6-4.9-13-13.2-14.6c0.2-0.9,0.4-1.5,0.6-2.3c1.1-4.4,1.1-4.4,1.4-5.2l-3.8-0.8
			c-0.1,1.4-0.7,4.8-1.5,8c-0.7,0-1.3,0-1.7,0c-3.8,0-7.2,0.8-10.7,2.5c-0.6-2.9-1.3-7.1-1.4-8.7L260.4,282.8 M263.3,295.8
			c1.1,4.6,2.7,9.2,4.7,13.5c-2.2,2.8-4.4,4.2-6.1,4.2c-2.5,0-4-2.6-4-6.6c0-2.2,0.8-4.8,2-7C260.7,298.4,261.6,297.3,263.3,295.8
			 M270.2,306.5c-0.1-0.4-0.1-0.5-0.4-1.2c-1.8-4.2-2.8-7.6-3.8-11.6c2.9-1.7,6.1-2.6,9.6-2.6c0.2,0,0.7,0.1,1.2,0.1
			c-1.5,5.3-3.8,10.4-6.1,14.1C270.5,306,270.5,306,270.2,306.5L270.2,306.5"/>
		<path class="st1" d="M265.9,333.1c-0.1,2.3-0.9,6.6-1.7,9.4c-1,0-2.6,0.1-3.6,0.1c-2.8,0-4.2-0.1-6-0.4l0,3.4c0.3,0,0.5,0,0.6,0
			c0.1,0,0.6,0,1.1,0.1c0.8,0,2.5,0,3.3,0c0.8,0,2.5,0,3.7-0.1c-1.5,4.8-2.9,8.3-5.2,12.9c-1.8,3.6-3.2,5.8-4.8,7.8l3.4,2
			c0.2-0.4,0.6-1,1-1.7c1.9-3.3,2.4-4.2,3.6-6.5c2.2-4.6,4-9.2,5.5-14.6c3-0.2,6.1-0.6,8.2-1c1.2-0.2,1.2-0.2,1.8-0.3l-0.2-3.4
			c-2.3,0.8-5.4,1.3-8.9,1.7c0.7-2.6,1-3.8,1.4-5.5c0.4-2,0.4-2.2,0.8-3.2L265.9,333.1 M295.4,346.9c-4-2.6-7.4-4.3-13.2-6.6
			l-1.8,2.8c5.2,1.9,9,3.9,13.2,6.8L295.4,346.9 M295.5,369c-0.4-0.2-0.4-0.2-0.9-0.8c-2.7-2.4-5.8-4.3-9.8-6.1
			c-0.3-1.9-0.5-5.3-0.5-7.6c0-1.8,0.1-2.8,0.6-4.7l-3.4-0.3c-0.4,1.8-0.5,3.1-0.5,4.8c0,1.2,0.1,3.6,0.4,6.9
			c-2-0.6-3.2-0.8-5.1-0.8c-2.2,0-4.1,0.3-5.9,1.1c-2.8,1.2-4.6,3.7-4.6,6.3c0,4.4,3.8,7.2,9.8,7.2c6.1,0,9.5-2.8,9.5-8
			c0-0.5,0-0.8-0.1-1.6c3.6,1.9,6.8,4.4,8.8,6.8L295.5,369 M281.6,364.5c0,0,0.1,1.6,0.1,2.2c0,3.8-1.9,5.4-6.2,5.4
			c-3.9,0-6.3-1.5-6.3-4.1c0-2.8,2.7-4.5,6.9-4.5C278,363.5,279.5,363.7,281.6,364.5"/>
		<path class="st1" d="M253.3,403.5c1.4-0.3,1.8-0.5,2.9-0.7c0.5-0.1,2.9-0.5,7.1-1.2c-1.6,6.5-3.1,10.8-5.5,15.8
			c-1.8,3.8-3.6,7.1-5.2,9.1l3.4,2c1.5-2.8,2.6-4.8,3.2-6c3.4-6.9,5.7-13.3,7.5-21.2c1.9-0.2,2.5-0.2,3.6-0.2c4.6,0,6.1,1.7,6.1,7
			c0,5.6-0.8,10.7-2.1,13.9c-0.7,1.6-1.6,2.4-2.9,2.4c-1.8,0-4.6-0.8-7.5-2.3c0.1,0.9,0.1,1.2,0.1,2c0,0.6,0,1-0.1,1.8
			c3.3,1.4,5.4,1.9,7.5,1.9c2.4,0,3.7-0.7,4.9-2.3c2.1-2.9,3.4-9.6,3.4-17.2c0-4.1-0.7-6.4-2.5-8c-1.5-1.5-3.6-2.1-7.2-2.1
			c-1.1,0-1.8,0-3,0.1c0.5-2.4,0.8-4.2,1.1-5.7c0.4-2.8,0.6-3.7,0.9-4.8l-4-0.4c0,0.3,0,0.6,0,0.7c0,2.1-0.6,6.9-1.5,10.6
			c-4,0.7-9.2,1.2-11,1.3L253.3,403.5 M282.8,396.9c4.9,4.9,8.3,11,10.2,17.9l3.2-1.8c-2.4-7.1-5.4-12.2-10.4-17.7L282.8,396.9"/>
		<path class="st1" d="M263.2,444.9c6,1.9,9.6,2.6,18.6,3.4l0.7-3.3c-6.6-0.2-12.8-1.2-18.1-3.1L263.2,444.9 M258.9,457.8
			c1.3-0.2,2.4-0.2,4.8-0.4c8.5-0.6,11.8-0.9,14.9-1.6c-3.6,3.4-6.1,5.9-7.6,7.4c-4,4-8.2,8-11.8,11.3c-3,2.9-3.6,3.4-5.4,4.6
			l2.8,3.1c1.8-2,5-5.4,7.5-7.6c4.1-3.9,6.6-5.2,9.2-5.2c1,0,1.9,0.4,2.3,1.2c0.3,0.6,0.4,1.1,0.5,3.4c0.2,3.3,0.5,4.4,1.1,5.5
			c1.1,1.9,3.2,2.9,7,2.9c2.2,0,4.1-0.2,6.9-0.7c3.5-0.5,3.5-0.5,4-0.6l-0.5-3.9c-2.6,1.2-6.5,1.9-10.1,1.9c-2.3,0-3.4-0.4-4.1-1.4
			c-0.5-0.8-0.7-1.6-0.9-4.7c-0.2-2.9-0.6-4-1.6-5c-0.8-0.9-2-1.3-3.4-1.3c-1.4,0-2.2,0.3-5,1.7c2.5-1.9,5.7-4.8,9.9-9
			c2.9-2.8,3.4-3.3,4.5-4.2l-2.2-2.8c-0.6,0.2-1.2,0.4-2.4,0.6c-4.3,0.6-13.1,1.2-17.5,1.2c-1.1,0-1.8,0-3-0.1L258.9,457.8"/>
		<path class="st1" d="M430.6,279.4c-1.6,2.6-8.2,8.8-14.7,13.7c-3.6,2.8-3.6,2.8-4.2,3.4c-0.9,1-1.4,2.1-1.4,3.3
			c0,1.7,0.8,2.8,3.6,5c9.5,7.3,16.2,13.3,19.1,17.3l3.2-3.1c-0.2-0.2-0.5-0.4-0.5-0.4c-0.2-0.1-0.4-0.4-0.9-0.8
			c-6.9-6.5-8.2-7.7-16-13.7c-4-3.1-4.4-3.5-4.4-4.4c0-0.7,0.3-1.1,2.2-2.5c5.4-4.1,8.9-7.1,11.5-9.5l4-3.8l0.4-0.4
			c0.4-0.3,0.8-0.8,1.3-1.2c0,0,0.2-0.2,0.5-0.4L430.6,279.4 M431.7,291c1.5,1.6,3.9,5.3,5.1,7.9l2.5-1.5c-1.5-2.9-2.9-5.1-5.2-7.8
			L431.7,291 M437.4,288.4c1.9,2.2,4,5.5,5.1,7.8l2.5-1.4c-1.7-3.2-2.9-5-5.2-7.8L437.4,288.4"/>
		<path class="st1" d="M410.5,344.5c0.9-0.1,1-0.1,3.1-0.2c5.6-0.1,9.6-0.3,13.5-0.9c1.2,2.7,1.5,3.2,2.8,5.7
			c-4.1,0.8-10.5,1.2-15.8,1.2c-2,0-2.9,0-4-0.1l0.1,3.3c0.9-0.1,1.1-0.1,3.5-0.2c9.4-0.3,12.6-0.6,17.6-1.5
			c1.8,3.1,3.8,6.1,5.3,7.7c-3.3-1.1-6-1.5-10.1-1.5c-9.5,0-15.2,3.2-15.2,8.7c0,2.6,1.3,4.8,3.8,6.2c2.5,1.4,5.7,2.1,10.3,2.1
			c4.5,0,8.7-0.6,12.8-1.8c2.3-0.7,2.3-0.7,3-0.9l-0.7-3.9c-3,1.8-9.6,3.3-14.8,3.3c-6.8,0-10.7-1.8-10.7-5.1
			c0-3.5,4.7-5.7,11.9-5.7c2.2,0,4.8,0.2,6.5,0.5c2.5,0.4,3.6,0.8,5.5,1.9l3-2.1c-3.9-4.5-4.4-5.2-7.4-9.9c1.9-0.3,4.4-0.9,7.9-1.8
			c1.6-0.4,1.8-0.4,2.7-0.7l-0.4-3.3c-2,1-4.8,1.8-11.5,3.1c-0.8-1.3-2.1-4-2.8-5.6c2.8-0.5,8.1-1.6,12.6-2.8l-0.3-3.2
			c-2.8,1.2-7.5,2.3-13.3,3.3c-1.2-2.7-2.2-5.2-2.7-7.1l-3.8,0.7c0.5,0.7,1.5,3,3,6.8c-4.6,0.5-7.7,0.7-11.8,0.7
			c-1.7,0-2.6,0-3.8-0.1L410.5,344.5"/>
		<path class="st1" d="M408.8,420c0.6-0.8,2.6-3,4.5-4.8c1.8-1.7,2.2-2.2,2.6-2.8h0.1c-0.1,1.2-0.1,1.6-0.1,7.7c0,7.9,0,7.9-0.2,9.5
			h4c-0.2-2.3-0.3-4.8-0.3-19.9c6.6-5.9,11.1-8.2,16-8.2c5.7,0,9.5,4,9.5,9.8c0,2.2-0.4,4.2-1.4,6c-1.9,3.5-5.7,5.7-10,5.7
			c-3,0-6-0.7-8.9-2c0.3,1.4,0.4,2,0.4,2.9c0,0.2,0,0.5,0,0.8c3.1,1.1,5.6,1.5,8.5,1.5c9.1,0,15.1-6,15.1-15c0-7.7-5.5-13-13.5-13
			c-4.4,0-8.3,1.5-12.6,4.9c-1.5,1.2-2.4,2-2.9,2.6l-0.1,0.2h-0.1c0-0.1,0.1-1.8,0.2-5.1c2-2.7,2-2.7,2.7-3.2l-1.3-1.7
			c-0.4,0.2-0.5,0.2-1.2,0.3c0-1.2,0-1.2,0.1-2.8c0.2-3.6,0.2-4.4,0.5-5.8h-3.9c0.1,0.8,0.1,1.2,0.1,1.9c0,2,0,3.9-0.2,7
			c-4.1,0.3-6.2,0.4-6.9,0.4c-0.4,0-0.7,0-1.4-0.1l0.2,3.4c1.2-0.2,2.2-0.3,5.5-0.6c1.8-0.1,1.8-0.1,2.5-0.2
			c-0.1,4.2-0.1,4.7-0.2,8.9c-0.6,0.5-0.6,0.5-1.5,1.3c-1.7,1.6-1.7,1.6-3.4,3.2c-2.4,2.2-3.4,3.1-4.3,3.7L408.8,420"/>
		<path class="st1" d="M408,446c0.1,0.9,0.1,1,0.2,2.9c0.2,12.3,1,18.7,2.7,23.4c1.7,4.8,4.3,7.6,7.1,7.6c3.5,0,5.9-3.4,8.3-12.1
			c-1.4-1.1-1.8-1.5-2.9-2.8c-0.7,3.4-1.5,6.1-2.6,8.6c-0.8,1.6-1.6,2.5-2.5,2.5c-1.9,0-4-3.5-5-8.6c-0.8-3.2-1.3-10.1-1.3-15.6
			c0-2.8,0.1-4.4,0.3-6L408,446 M433.3,450.3c5.8,6.8,9.5,15.4,10.4,24.6l3.5-1.4c-0.9-5.6-1.8-9.2-3.8-13.3
			c-1.8-4.2-3.9-7.6-7.1-11.4L433.3,450.3"/>
		<path class="st1" d="M568.3,286.2c1.1-0.2,1.6-0.2,2.7-0.2c7.6-0.2,13.6-0.6,15.2-0.9c0.3,0,0.3,0,0.5,0l0.1,0.1l-0.2,0.2
			c-0.1,0.1-0.2,0.2-0.2,0.2c-0.4,0.4-0.4,0.4-0.7,0.7c-3.5,3.4-11.4,10.3-16.7,14.6c-3.4,2.8-5.2,4.1-7,5.1l2.2,3.2
			c5.8-5.3,13.7-8.6,21-8.6c6.8,0,10.8,2.8,10.8,7.7c0,4.2-2.8,7.3-8,8.8c-0.7-2.2-1.2-3.4-2.3-4.8c-2-2.6-4.9-4.1-8.2-4.1
			c-4.2,0-7.2,2.5-7.2,5.8c0,4.6,4,7.2,11.1,7.2c11.1,0,18.4-5.2,18.4-13c0-6.4-5.4-10.5-13.7-10.5c-4.4,0-8.5,1.1-12.2,3.1
			l-0.1-0.2c3.5-2.2,9.5-7.5,16.4-14.2c1.6-1.5,1.9-1.8,2.6-2.1l-2.1-2.8c-0.6,0.3-1.1,0.5-2.4,0.6c-4.5,0.3-11.2,0.7-15.3,0.7
			c-2.4,0-3.3-0.1-4.7-0.3L568.3,286.2 M584.7,317.9c-1.8,0.3-2.4,0.3-3.7,0.3c-2.1,0-4.3-0.4-5.6-1.2c-1.3-0.8-2-1.8-2-3
			c0-1.9,1.5-3.1,4-3.1C581.1,310.9,583.6,313.3,584.7,317.9"/>
		<path class="st1" d="M563.1,337.6c0,1.1,0,1.2-0.4,3.4c-0.9,4.9-1.4,10.4-1.4,15.3c0,2.6,0.1,5.1,0.4,8.5c0,0.8,0,1,0.1,1.7
			l3.5-0.3c-0.2-1-0.2-1.5-0.2-2.3c0-3.8,1.6-7.9,4.6-11.8c3.3-4.3,7.6-7,12.8-7.9c0,3.1,0.1,4.4,0.1,6.1c0,6.4-0.7,11.2-2,14
			c-3.8-1.4-6.2-3.8-8.3-8.5c-0.7,1.4-1.1,1.9-2,2.8c2,3.9,4.2,6.2,7.8,8c0.5,0.3,0.8,0.4,1.1,0.5c-0.1,0.2-0.1,0.2-0.3,0.4
			c-2,2.8-5,5.1-8.3,6.6c1.5,1.1,1.8,1.4,2.7,2.5c4.4-2.6,6.8-4.8,9.3-8.5c1,0.2,1.5,0.2,2.3,0.2c8.9,0,15.5-6,15.5-14
			c0-8-5.8-13.3-14.7-13.5c-0.1-1.4-0.2-4.8-0.3-5.5c0-0.3,0-0.6,0-0.8c0-0.1,0-0.3,0-0.8l-3.8,0.1c0.4,1.4,0.5,3.1,0.7,7.2
			c-5.2,0.8-9,2.8-12.9,6.8c-2.2,2.3-4,5.2-4.7,7.8c-0.2,0.8-0.2,0.8-0.4,1.3h-0.2c0-0.5,0.1-0.8,0.1-1.3c0.1-1.1,0.1-1.1,0.2-1.5
			c0.6-7.2,0.8-8,1.3-11.1c0.5-2.9,0.8-3.8,1.2-4.9L563.1,337.6 M585.7,343.8c2.6,0.1,4.1,0.4,5.9,1.3c3.3,1.6,5.2,4.8,5.2,8.7
			c0,4.4-2.5,8.1-6.7,10c-1.7,0.8-3.3,1.1-5.2,1.1c-0.2,0-0.7,0-0.9-0.1c-0.2,0-0.2,0-0.4,0c1.4-2.5,2.2-8.1,2.2-15.4
			C585.9,347.2,585.8,346,585.7,343.8"/>
		<path class="st1" d="M571.1,391.3c4.5,2.1,4.5,2.1,7.6,3.2c3.4,1.2,3.4,1.2,9.8,2.8l1.4-3.5c-5.5-0.8-13-3.3-17-5.5L571.1,391.3
			 M567,396.7c0,0.9-0.1,1.3-0.3,2.7c-0.7,4.2-1.6,10-2.1,13.8c-0.2,1.6-0.2,2-0.4,2.9l3.9,0.1c0.9-1.1,1.2-1.4,2-2
			c3.8-2.8,8.9-4.4,14-4.4c6.1,0,9.7,2.4,9.7,6.5c0,5.1-5.2,8.4-13.5,8.4c-4.2,0-9-0.9-12.8-2.5c0.3,1.3,0.4,2,0.4,3.1
			c0,0.2,0,0.5-0.1,1c3.1,0.8,3.1,0.8,4,1c2.8,0.6,5.8,0.9,8.8,0.9c5.3,0,9.2-1.1,12.5-3.3c2.8-2,4.5-5.2,4.5-8.6
			c0-5.8-5.2-9.7-13.4-9.7c-5.5,0-11,1.7-14.5,4.3c-0.5,0.4-0.9,0.8-1.5,1.5l-0.1-0.1c0.1-0.4,0.2-0.6,0.2-1.2
			c0.2-1.2,0.2-1.5,1.5-8.8c0.5-2.8,0.7-3.9,1.1-5.5L567,396.7"/>
		<path class="st1" d="M567.4,449.1c0.7,0,0.8,0.1,1.7,0.2c3.2,0.4,7.5,0.7,11,0.7c2.8,0,4.5-0.2,7.5-0.7c-0.5,0.3-0.6,0.3-1,0.5
			c-0.6,0.3-0.7,0.3-1.2,0.7c-2.2,1.2-3.5,2-6.6,4.2l2.5,2c4.9-3.5,9.5-6.3,12.6-7.6l-0.2-3.3c-2.8,0.7-6.8,1-12.6,1
			c-5.7,0-9.7-0.3-13.3-1.2L567.4,449.1 M570.4,461.9c-3.8,3.3-5.8,6.4-5.8,9.7c0,3.4,2,6,5.7,7.6c2.5,0.9,6.7,1.6,11.5,1.6
			c4.4,0,9.2-0.4,13.5-1.2c0.8-0.1,1-0.2,1.7-0.2l-0.5-4.1c-2.8,1.1-8.8,1.9-15,1.9c-4,0-7.2-0.4-9.2-1c-2.8-0.9-4.2-2.6-4.2-4.9
			c0-2.4,1.5-4.7,4.8-7.4L570.4,461.9"/>
		<path class="st1" d="M716.8,293.3c0.8-0.1,1-0.2,1.9-0.2c6.6-0.1,12.9-0.6,17.8-1.3c0.3,0.5,0.3,0.6,0.8,1.7
			c2.2,4.2,3.4,6.2,6,9.8c-2.1-1.1-6-1.8-10.3-1.8c-4.1,0-7.1,0.6-9.7,1.8c-3.5,1.7-5.7,4.8-5.7,8.2c0,2,0.8,3.9,2.2,5.5
			c2.3,2.4,6.9,3.8,13,3.8c5,0,9.7-0.8,14.7-2.7l-0.5-3.9c-3.8,2-9.2,3.2-14.2,3.2c-4.3,0-7.9-0.8-9.8-2.3c-1.2-1-1.9-2.3-1.9-3.9
			c0-1.8,1.1-3.6,2.7-4.6c2.2-1.4,5.3-2.1,9.5-2.1c3.4,0,6.2,0.5,8.8,1.3c1.4,0.5,2.1,0.9,3.5,2.1l3.3-1.9c-3.5-4.7-7.2-10.7-9-14.6
			c0.5-0.1,0.5-0.1,1.7-0.3c3.2-0.6,3.8-0.8,6.8-1.6c1.5-0.4,1.9-0.5,3-0.7l-0.5-3.6c-2.7,1.2-7.2,2.4-12.1,3.2
			c-0.5-0.9-0.6-1.2-1.8-4.4c-1.2-3.2-1.2-3.2-1.4-4.5l-4,0.6c0.5,0.9,0.8,1.6,1.3,2.9c0.9,2.2,1.7,4.2,2.5,5.9
			c-4.7,0.7-10.4,1.1-14.9,1.1c-1.7,0-2.5-0.1-3.8-0.2L716.8,293.3"/>
		<path class="st1" d="M741.4,333.3c-1.8,2.8-8,8.6-14.7,13.7c-3.6,2.8-3.6,2.8-4.2,3.4c-1,1-1.5,2.2-1.5,3.4c0,1.7,0.8,2.8,3.6,5
			c7.3,5.7,9.3,7.3,12.6,10.4c3.3,3.1,5.2,5.2,6.5,6.8l3.2-3.1c-0.5-0.4-0.7-0.5-1.4-1.2c-7.3-6.9-8.8-8.1-16-13.7
			c-4-3.2-4.5-3.5-4.5-4.4c0-0.7,0.4-1.1,2.2-2.5c6.3-4.8,9-7.1,11.5-9.4c5.2-5,5.6-5.3,6.2-5.8L741.4,333.3"/>
		<path class="st1" d="M716.9,391.4c0.2,0.7,0.3,1,0.5,1.6c0.9,4,1.6,7.2,2,8.5c-4.6,3.9-7.1,8.9-7.1,14.2c0,5.8,2.8,9.7,6.9,9.7
			c2.6,0,5.4-1.8,8-5.1c4.1-5.2,7.5-12.3,10-21.2c3.2,0.3,5.3,1,7.2,2.4c3.2,2.3,5,6.1,5,10.4c0,2.4-0.2,3.5-0.8,5.5
			c-3.1-1.8-5.3-2.5-8.2-2.5c-2,0-3.8,0.4-5.1,1.2c-1.9,1.2-3,3.2-3,5.3c0,3.7,3.3,6.2,8.1,6.2c4.3,0,7.6-1.8,9.8-5.4
			c1.8,1.5,2.8,2.4,4.3,4.1l1.6-3.5c-2.2-1.8-3.7-3.1-4.5-3.7c1-2.5,1.2-4.1,1.2-6.7c0-6.9-2.8-11.9-8.3-14.6
			c-1.9-0.9-4.3-1.6-6.5-1.8c0.4-1.5,0.5-1.8,0.7-2.9c0.7-3.2,0.9-4,1.2-4.7l-3.8-0.7c0,1.2-0.4,2.9-0.8,4.9
			c-0.6,2.6-0.6,2.6-0.8,3.2c-5,0.2-8.8,1.3-12.4,3.5c-0.8-3.2-1.6-7.3-1.6-9L716.9,391.4 M720.3,404.9c1.5,5.4,2.8,9,4.8,12.7
			c-2,2.8-4.2,4.5-6,4.5c-2.1,0-3.7-2.6-3.7-6.1C715.4,411.7,716.9,408.3,720.3,404.9 M727.1,414.9c0-0.3,0-0.3-0.2-0.8
			c0-0.1,0-0.1-1-2.5c-1.7-4.3-1.8-4.5-3-9.1c3.5-2.2,6.6-3.2,10.9-3.6c-1.2,4.4-2.7,8.2-4.1,11.1c-1.8,3.6-2.1,4.2-2.3,4.8H727.1
			 M747.3,420.5c-1,1.6-1.3,2.1-2.5,2.8c-1.3,1-2.9,1.5-4.8,1.5c-2.9,0-5-1.3-5-3.3c0-2.1,2-3.5,4.9-3.5
			C742.6,417.9,744.8,418.7,747.3,420.5"/>
		<path class="st1" d="M726.1,455.7c0.1,0,0.2,0,0.2,0c0.1,0,0.2,0,0.5,0c0.1,0,0.4,0,0.9,0.1c0.2,0,0.8,0,1.6,0.1
			c1.8,0.1,3.6,0.2,5.7,0.2c1.9,0,3.4-0.1,5.7-0.2c0.2,7.3,0.4,12,0.5,13c-1.1-0.6-3.5-1-5.5-1c-5.5,0-9.5,3-9.5,7.1
			c0,4.4,3.7,7.1,9.5,7.1c4.1,0,7.2-1.6,8.3-4.2c0.4-0.9,0.6-2.1,0.6-3.4c0-0.4,0-0.6-0.1-1.3c0.2,0.2,0.2,0.2,0.5,0.3
			c0.3,0.2,0.3,0.2,0.5,0.3c3.5,2.1,5.5,3.4,7.1,5.2l1.5-3.5c-0.5-0.4-0.7-0.4-1.2-0.9c-3.3-2.4-4.7-3.2-8.4-4.9
			c-0.4-6.7-0.5-9.2-0.5-14.2c2.6-0.3,4-0.5,5.3-0.8c3.4-0.7,3.4-0.7,3.5-0.7l-0.1-3.4c-1.9,0.8-4.8,1.4-8.7,1.8c0-1.1,0-1.9,0-2.4
			c0-4.2,0.1-6.5,0.3-7.8h-3.8c0.1,0.5,0.2,1.2,0.2,2c0,3.8,0,3.8,0,8.5c-2,0.1-3.4,0.2-5.3,0.2c-4.4,0-6.5-0.2-9-0.8L726.1,455.7
			 M741.1,472c0,0,0,1.2,0,1.5c0,1.9-0.3,3.2-1,3.9c-1,1.1-2.9,1.8-5.1,1.8c-3.5,0-5.8-1.6-5.8-4.1c0-2.5,2.6-4.2,6.5-4.2
			C737.8,470.9,739.1,471.2,741.1,472 M717.2,442.2c0,0.7-0.1,1-0.5,3.2c-2,8.7-2.6,13.9-2.6,20.5c0,5.1,0.5,10.2,1.4,14.9
			c0.2,1.1,0.2,1.4,0.3,1.9l3.5-0.4c-0.1-0.7-0.1-0.8-0.1-1c0-2.9,2-9.3,4.3-14.2l-2.5-1.2c-0.1,0.4-0.2,0.6-0.4,1
			c-1.7,4.1-2,5.1-3,8.8l-0.2-0.1c0-0.5,0-0.5,0-0.9c0-0.9,0-1,0-1.4c-0.1-2.3-0.2-5.2-0.2-7c0-8.2,1.7-18.5,3.9-23.5L717.2,442.2"
			/>
		<path class="st1" d="M911.5,295.7c1.3-0.3,1.8-0.4,2.9-0.6c0.4-0.1,2.8-0.5,7.2-1.2c-1.7,6.4-3.2,10.8-5.5,15.8
			c-1.8,3.8-3.7,7.1-5.2,9.1l3.4,2c1.6-2.8,2.6-4.8,3.2-6c3.4-6.9,5.7-13.3,7.6-21.2c1.8-0.2,2.5-0.2,3.6-0.2c4.7,0,6.2,1.7,6.2,7
			c0,5.6-0.8,10.7-2.1,13.9c-0.7,1.6-1.6,2.4-2.9,2.4c-1.8,0-4.6-0.8-7.4-2.3c0.2,0.9,0.2,1.2,0.2,2c0,0.7,0,1-0.1,1.8
			c3.3,1.4,5.4,2,7.5,2c2.3,0,3.7-0.7,4.9-2.4c2.1-2.9,3.3-9.5,3.3-17.2c0-4.1-0.7-6.4-2.4-8.1c-1.6-1.5-3.7-2.1-7.2-2.1
			c-1.1,0-1.8,0.1-2.9,0.2c0.4-2.4,0.8-4.2,1.1-5.7c0.4-2.9,0.6-3.7,0.9-4.8l-4-0.4c0,0.3,0,0.5,0,0.6c0,2.1-0.7,6.9-1.5,10.6
			c-4.1,0.6-9.2,1.2-11.1,1.3L911.5,295.7 M941,289.1c4.8,5,8.3,11.1,10.2,18l3.2-1.9c-2.3-7-5.3-12.2-10.4-17.7L941,289.1"/>
		<path class="st1" d="M911.5,349.6c1.3-0.3,1.8-0.4,2.9-0.7c0.4-0.1,2.8-0.5,7.2-1.1c-1.7,6.4-3.2,10.8-5.5,15.8
			c-1.8,3.8-3.7,7.1-5.2,9l3.4,2c1.6-2.8,2.6-4.8,3.2-6c3.4-6.9,5.7-13.3,7.6-21.2c1.8-0.2,2.5-0.2,3.6-0.2c4.7,0,6.2,1.7,6.2,7
			c0,5.6-0.8,10.7-2.1,13.9c-0.7,1.6-1.6,2.4-2.9,2.4c-1.8,0-4.6-0.9-7.4-2.3c0.2,0.9,0.2,1.2,0.2,2c0,0.7,0,1-0.1,1.8
			c3.3,1.4,5.4,1.9,7.5,1.9c2.3,0,3.7-0.6,4.9-2.3c2.1-2.9,3.3-9.5,3.3-17.2c0-4.1-0.7-6.4-2.4-8.1c-1.6-1.5-3.7-2.1-7.2-2.1
			c-1.1,0-1.8,0.1-2.9,0.2c0.4-2.4,0.8-4.2,1.1-5.7c0.4-2.8,0.6-3.7,0.9-4.8l-4-0.5c0,0.3,0,0.6,0,0.7c0,2.1-0.7,6.9-1.5,10.6
			c-4.1,0.7-9.2,1.2-11.1,1.3L911.5,349.6 M941,343c4.8,4.9,8.3,11.1,10.2,17.9l3.2-1.8c-2.3-7-5.3-12.2-10.4-17.7L941,343"/>
		<path class="st1" d="M912.1,395.2c0.5,0,0.5,0,1.5-0.2c7.2-0.5,7.7-0.6,11.2-1.5c-2.9,2.4-2.9,2.4-4.5,4.5
			c-4.4,5.3-6.7,11.1-6.7,16.7c0,8.2,5.4,13.9,13.3,13.9c6,0,11.2-3.4,13.4-8.7c1.3-3.1,2-6.5,2-10.2c0-3.9-0.5-6.6-2-11.3
			c0.4,0.7,0.4,0.7,1,1.8c0.5,0.9,0.9,1.6,1.7,2.9c1.8,2.8,3.7,4.9,6.3,7.3c1.2,1,1.2,1,2.1,1.8l1.9-3.5c-0.8-0.3-1.1-0.5-1.9-1.2
			c-3-2.4-5-4.7-7.2-7.8c-2-2.9-3.9-6.6-4.7-9.1l-3.6,1.2c1.9,3.8,3.1,10.4,3.1,16.1c0,4.3-0.6,7.5-1.8,10.4
			c-1.8,4.1-5.9,6.8-10.3,6.8c-5.7,0-9.8-4.3-9.8-10.3c0-5.1,2.3-10.5,6.8-16c2.1-2.5,3.2-3.4,5.9-5.3l-2.1-3.2
			c-1.8,0.9-7.6,1.6-13.2,1.6c-1.1,0-1.5,0-2.3-0.2L912.1,395.2"/>
		<path class="st1" d="M922.2,445.5c6.7,1.9,12.8,2.8,21,3.3l0.5-3.6c-8.2-0.1-15.4-1.2-20.3-3.1L922.2,445.5 M917,461.7
			c3.9-1.6,13.9-3.3,19.1-3.3c2.6,0,4.9,0.4,6.2,1.1c2,1.1,3.2,3.1,3.2,5.6c0,2.3-0.8,4.6-2.6,6.8c-1.2,1.5-2.3,2.4-4.3,3.5
			c-4.2,2.4-8.8,3.7-14.1,4.1c0.8,1.2,1,1.7,1.6,3.7c7.5-1.4,10.7-2.5,14.5-4.8c5.6-3.4,8.6-8.2,8.6-13.5c0-3.5-1.5-6.2-4.2-8
			c-2.1-1.3-4.9-1.9-8.6-1.9c-3.9,0-8.6,0.5-15.2,1.8c-3.9,0.8-3.9,0.8-5,0.9L917,461.7"/>
		<path class="st1" d="M1049.5,295.5c0.8-0.4,1.5-0.6,3.6-1.2c8.7-2.4,15.2-3.5,20.4-3.5c6.8,0,10.9,3.4,10.9,9
			c0,5.6-3.8,10.1-10.7,12.6c-3.8,1.4-8.3,2.2-13.9,2.3c0.8,1.3,1.2,2,1.5,3.8c7.8-0.6,12-1.6,16.6-3.8c6.7-3.2,10.4-8.5,10.4-14.8
			c0-7.7-5.8-12.5-15-12.5c-4.1,0-8.9,0.6-14.5,1.8c-3.8,0.9-5.8,1.3-6.1,1.4c-1.2,0.2-2,0.4-2.4,0.5c-0.8,0.1-1,0.2-1.9,0.2
			L1049.5,295.5 M1081,280.5c1.5,1.6,3.9,5.3,5.1,7.9l2.6-1.5c-1.5-2.9-2.9-5-5.2-7.8L1081,280.5 M1086.7,277.8
			c1.9,2.2,4,5.5,5.1,7.8l2.5-1.4c-1.7-3.2-2.9-5-5.2-7.8L1086.7,277.8"/>
		<path class="st1" d="M1059.5,333.1c0,0.6,0,0.8-0.1,1.6c-1.2,8.8-1.7,13.6-1.7,18.4c0,0.2,0,0.7,0,1.2l0.1,5.2l0.1,0.9
			c0,0.1,0,0.3,0,0.6l3.6-0.2c0-0.8,0-1,0-1.2c0-3.7,0.9-7.5,2.7-11.2c2.8-5.8,6.1-8.7,9.8-8.7c4.8,0,7.6,4.6,7.6,12.7
			c0,8-2.8,13.2-8.6,16.6c-2.9,1.7-5.5,2.5-10.2,3.2c1.1,1.3,1.4,1.9,2,3.4c3.5-0.8,6.5-1.8,8.9-3c7.5-3.8,11.6-10.6,11.6-19.6
			c0-5.4-0.9-9.1-3-12.2c-2-2.9-4.8-4.5-8-4.5c-3.9,0-7.2,2.2-10,6.5c-1.5,2.2-2.5,4.7-3.1,7.4c-0.2,1.1-0.2,1.1-0.3,1.5l-0.2-0.1
			c0.1-2.6,0.8-8,1.6-13.1c0.5-2.7,0.8-4.1,1.2-5.1L1059.5,333.1"/>
		<path class="st1" d="M1050.3,403.5c1.3-0.3,1.8-0.5,2.9-0.7c0.4-0.1,2.8-0.5,7.2-1.2c-1.7,6.5-3.2,10.8-5.5,15.8
			c-1.8,3.8-3.7,7.1-5.2,9.1l3.4,2c1.6-2.8,2.6-4.8,3.2-6c3.4-6.9,5.7-13.3,7.6-21.2c1.8-0.2,2.5-0.2,3.6-0.2c4.7,0,6.2,1.7,6.2,7
			c0,5.6-0.8,10.7-2.1,13.9c-0.6,1.6-1.6,2.4-2.8,2.4c-1.8,0-4.6-0.8-7.4-2.3c0.2,0.9,0.2,1.2,0.2,2c0,0.6,0,1-0.1,1.8
			c3.3,1.4,5.4,1.9,7.6,1.9c2.3,0,3.7-0.7,4.9-2.3c2-2.9,3.3-9.6,3.3-17.2c0-4.1-0.7-6.4-2.4-8c-1.6-1.5-3.7-2.1-7.2-2.1
			c-1.2,0-1.8,0-2.9,0.1c0.4-2.4,0.8-4.2,1-5.7c0.5-2.8,0.6-3.7,1-4.8l-4-0.4c0,0.3,0,0.6,0,0.7c0,2.1-0.7,6.9-1.5,10.6
			c-4.1,0.7-9.2,1.2-11.1,1.3L1050.3,403.5 M1079.8,396.9c4.8,4.9,8.3,11,10.2,17.9l3.2-1.8c-2.3-7.1-5.3-12.2-10.5-17.7
			L1079.8,396.9"/>
		<path class="st1" d="M1052.5,456.9c0.8-0.4,1.5-0.6,3.6-1.2c8.7-2.4,15.2-3.5,20.4-3.5c6.8,0,10.9,3.4,10.9,9
			c0,5.6-3.8,10.1-10.7,12.6c-3.8,1.4-8.3,2.1-13.9,2.3c0.9,1.3,1.2,1.9,1.5,3.7c7.8-0.6,12-1.6,16.6-3.8
			c6.7-3.2,10.4-8.5,10.4-14.8c0-7.7-5.8-12.5-15-12.5c-4.1,0-8.9,0.6-14.5,1.8c-8.9,2-8.9,2-10.4,2.1L1052.5,456.9"/>
		<path class="st1" d="M1193,290.6c0.9-0.1,1-0.1,3.1-0.2c5.7-0.1,9.7-0.3,13.5-0.9c1.2,2.7,1.6,3.2,2.9,5.7
			c-4.1,0.8-10.6,1.2-15.8,1.2c-2,0-2.9-0.1-4-0.2l0.1,3.3c0.9-0.1,1.1-0.1,3.5-0.2c9.3-0.3,12.6-0.6,17.5-1.4c1.8,3,3.8,6,5.4,7.7
			c-3.3-1.1-6-1.4-10.1-1.4c-9.5,0-15.2,3.2-15.2,8.6c0,2.6,1.4,4.9,3.8,6.2c2.6,1.4,5.7,2.1,10.3,2.1c4.4,0,8.7-0.6,12.8-1.8
			c2.3-0.7,2.3-0.7,3-0.8l-0.7-3.9c-3,1.8-9.6,3.3-14.8,3.3c-6.9,0-10.7-1.8-10.7-5.1c0-3.5,4.7-5.7,11.8-5.7c2.2,0,4.8,0.2,6.6,0.5
			c2.4,0.4,3.6,0.8,5.5,1.9l2.9-2.1c-3.8-4.5-4.4-5.2-7.3-9.9c1.8-0.3,4.3-0.9,7.8-1.8c1.7-0.4,1.8-0.4,2.7-0.6l-0.4-3.4
			c-2.1,1-4.9,1.8-11.5,3.1c-0.8-1.4-2.1-4-2.8-5.7c2.8-0.5,8.2-1.6,12.6-2.8l-0.3-3.2c-2.8,1.2-7.5,2.3-13.4,3.3
			c-1.2-2.7-2.2-5.2-2.6-7.1l-3.8,0.7c0.4,0.7,1.4,3,3,6.8c-4.6,0.5-7.7,0.7-11.9,0.7c-1.7,0-2.5-0.1-3.8-0.2L1193,290.6"/>
		<path class="st1" d="M1212.8,340.5c2.5,0.1,3.9,0.4,5.8,1.2c5,2.2,7.9,6.8,7.9,12.6c0,6.1-3.3,11.5-8.8,14
			c-2.3,1.1-4.7,1.8-8.3,2.3c0.9,1.2,1.2,1.7,1.8,3.3c3.4-0.8,5.3-1.3,7.6-2.3c7.2-3.1,11.4-9.5,11.4-17.2c0-4.8-1.7-9.1-4.8-12.2
			c-3.2-3.2-8.2-4.9-13.8-4.9c-6.7,0-12.2,2.2-16.2,6.6c-3.3,3.8-5.2,8.7-5.2,13.8c0,7,3.6,12.2,8.3,12.2c3.6,0,6.5-3,9.4-9.6
			C1210.2,355.1,1212.1,347.4,1212.8,340.5 M1209.2,340.5c-0.7,6.4-2.5,13.8-4.6,18.5c-2.2,4.9-4.2,7.2-6.2,7.2
			c-2.7,0-4.8-3.7-4.8-8.5c0-6.2,3.1-11.9,8.1-14.9C1204.1,341.5,1206.2,340.8,1209.2,340.5"/>
		<path class="st1" d="M1198.3,387.1c0,0.6,0,0.9-0.1,1.6c-1.2,8.8-1.7,13.5-1.7,18.4c0,0.2,0,0.7,0,1.2l0.1,5.2l0.1,0.9
			c0,0.1,0,0.3,0,0.6l3.6-0.2c0-0.8,0-1,0-1.2c0-3.6,0.9-7.5,2.7-11.1c2.8-5.9,6.1-8.7,9.8-8.7c4.8,0,7.6,4.7,7.6,12.7
			c0,8-2.8,13.2-8.6,16.6c-2.9,1.7-5.5,2.4-10.2,3.2c1.1,1.3,1.4,1.9,2,3.4c3.5-0.8,6.5-1.8,8.9-2.9c7.5-3.8,11.6-10.6,11.6-19.7
			c0-5.3-0.9-9-3-12.2c-2-2.9-4.8-4.4-8-4.4c-3.9,0-7.2,2.2-10,6.4c-1.5,2.2-2.5,4.7-3.1,7.5c-0.2,1-0.2,1-0.3,1.4l-0.2,0
			c0.1-2.6,0.8-8,1.6-13.1c0.5-2.7,0.8-4.1,1.2-5.2L1198.3,387.1"/>
		<path class="st1" d="M1197.7,448c1.1-0.2,1.6-0.2,2.7-0.2c7.6-0.2,13.6-0.6,15.2-0.9c0.3,0,0.3,0,0.4,0l0.1,0.1l-0.2,0.2
			c-0.1,0.1-0.2,0.2-0.2,0.2c-0.4,0.4-0.4,0.4-0.7,0.7c-3.4,3.4-11.3,10.3-16.7,14.6c-3.4,2.8-5.2,4.1-7,5.1l2.2,3.2
			c5.8-5.4,13.7-8.6,21-8.6c6.8,0,10.8,2.8,10.8,7.7c0,4.2-2.8,7.3-8,8.8c-0.7-2.2-1.2-3.4-2.3-4.8c-2-2.6-4.9-4.1-8.2-4.1
			c-4.2,0-7.2,2.5-7.2,5.8c0,4.6,4,7.2,11.1,7.2c11.1,0,18.3-5.2,18.3-13c0-6.4-5.3-10.5-13.7-10.5c-4.4,0-8.5,1-12.2,3.1l-0.1-0.2
			c3.5-2.2,9.5-7.4,16.4-14.2c1.6-1.6,1.8-1.8,2.6-2.1l-2.1-2.8c-0.6,0.4-1.1,0.5-2.4,0.6c-4.5,0.3-11.2,0.7-15.3,0.7
			c-2.4,0-3.3-0.1-4.7-0.3L1197.7,448 M1214.1,479.6c-1.8,0.3-2.4,0.3-3.7,0.3c-2.2,0-4.3-0.4-5.6-1.1c-1.3-0.8-2-1.8-2-3.1
			c0-1.9,1.5-3.1,4-3.1C1210.5,472.7,1213,475.1,1214.1,479.6"/>
		<path class="st1" d="M1456.6,295.7c1.3-0.3,1.8-0.4,2.9-0.6c0.4-0.1,2.8-0.5,7.2-1.2c-1.7,6.4-3.2,10.8-5.5,15.8
			c-1.8,3.8-3.7,7.1-5.2,9.1l3.4,2c1.6-2.8,2.6-4.8,3.2-6c3.4-6.9,5.7-13.3,7.6-21.2c1.8-0.2,2.5-0.2,3.6-0.2c4.7,0,6.2,1.7,6.2,7
			c0,5.6-0.8,10.7-2.1,13.9c-0.6,1.6-1.6,2.4-2.8,2.4c-1.8,0-4.6-0.8-7.4-2.3c0.2,0.9,0.2,1.2,0.2,2c0,0.7,0,1-0.1,1.8
			c3.3,1.4,5.4,2,7.6,2c2.3,0,3.7-0.7,4.9-2.4c2-2.9,3.3-9.5,3.3-17.2c0-4.1-0.7-6.4-2.4-8.1c-1.6-1.5-3.7-2.1-7.2-2.1
			c-1.2,0-1.8,0.1-2.9,0.2c0.4-2.4,0.8-4.2,1-5.7c0.5-2.9,0.6-3.7,1-4.8l-4-0.4c0,0.3,0,0.5,0,0.6c0,2.1-0.7,6.9-1.5,10.6
			c-4.1,0.6-9.2,1.2-11.1,1.3L1456.6,295.7 M1486.1,289.1c4.8,5,8.3,11.1,10.2,18l3.2-1.9c-2.3-7-5.3-12.2-10.5-17.7L1486.1,289.1"
			/>
		<path class="st1" d="M1456.6,349.6c1.3-0.3,1.8-0.4,2.9-0.7c0.4-0.1,2.8-0.5,7.2-1.1c-1.7,6.4-3.2,10.8-5.5,15.8
			c-1.8,3.8-3.7,7.1-5.2,9l3.4,2c1.6-2.8,2.6-4.8,3.2-6c3.4-6.9,5.7-13.3,7.6-21.2c1.8-0.2,2.5-0.2,3.6-0.2c4.7,0,6.2,1.7,6.2,7
			c0,5.6-0.8,10.7-2.1,13.9c-0.6,1.6-1.6,2.4-2.8,2.4c-1.8,0-4.6-0.9-7.4-2.3c0.2,0.9,0.2,1.2,0.2,2c0,0.7,0,1-0.1,1.8
			c3.3,1.4,5.4,1.9,7.6,1.9c2.3,0,3.7-0.6,4.9-2.3c2-2.9,3.3-9.5,3.3-17.2c0-4.1-0.7-6.4-2.4-8.1c-1.6-1.5-3.7-2.1-7.2-2.1
			c-1.2,0-1.8,0.1-2.9,0.2c0.4-2.4,0.8-4.2,1-5.7c0.5-2.8,0.6-3.7,1-4.8l-4-0.5c0,0.3,0,0.6,0,0.7c0,2.1-0.7,6.9-1.5,10.6
			c-4.1,0.7-9.2,1.2-11.1,1.3L1456.6,349.6 M1486.1,343c4.8,4.9,8.3,11.1,10.2,17.9l3.2-1.8c-2.3-7-5.3-12.2-10.5-17.7L1486.1,343"
			/>
		<path class="st1" d="M1458.2,399.7c0.5-0.1,0.8-0.1,0.8-0.1c0,0,0.1,0,0.2,0c1.9,0.1,2.4,0.1,4.2,0.1c1.8,0,2.4,0,3.4,0
			c-1.8,9.8-5.7,21.2-9.4,27.6l3.7,1.6c2.7-6.1,4.1-9.9,5.8-15.2c1.3-4.6,2.8-10.2,3.5-14.2c2.4-0.2,5.9-0.7,8.4-1.2
			c1-0.2,1-0.2,1.4-0.2l-0.2-3.5c-2.4,0.8-5.1,1.3-9,1.7c0.2-1.5,0.4-2.2,0.7-3.8c0.6-3.5,0.6-3.5,0.9-4.8l-4-0.4
			c0,2.2-0.1,3.1-1.1,9.2c-1.4,0.1-2,0.1-3,0.1c-2.7,0-4.7-0.2-6.2-0.4V399.7 M1495.9,402.1c-3.8-0.2-4.5-0.2-5.4-0.2
			c-4.2,0-7.5,0.4-13.2,1.7l0.3,3.4c4.6-1.2,8.1-1.7,12.5-1.7c2.1,0,3.5,0.1,5.9,0.4L1495.9,402.1 M1477.7,412.9
			c-2.7,3.4-3.3,4.9-3.3,7.2c0,4.9,4.2,7.5,12.4,7.5c2.7,0,5.6-0.2,8.9-0.8c1.7-0.2,1.7-0.2,2.2-0.3l-0.3-3.8
			c-2.8,1-7.3,1.7-11.1,1.7c-5.7,0-8.8-1.6-8.8-4.6c0-1.2,0.5-2.5,1.2-3.6c0.4-0.5,0.5-0.7,1.5-1.9L1477.7,412.9"/>
		<path class="st1" d="M1475.5,441.2c0.2,1.2,0.2,1.6,0.2,4c0,7.2,0.4,16.8,0.8,22.6c0,0.1,0,0.2,0,0.3c0.1,0.2,0.1,0.2,0.1,0.4
			c-0.2-0.1-0.2-0.1-0.2-0.1c-0.2,0-0.2,0-0.4-0.1c-1.1-0.2-2.9-0.4-4.4-0.4c-7.1,0-11.8,3.1-11.8,7.9c0,4.6,4,7.4,10.4,7.4
			c4.2,0,7.3-1.2,8.9-3.4c0.8-1.1,1.2-2.9,1.2-5.1c0-0.6-0.1-1.6-0.2-2.1c0.4,0.2,0.5,0.2,1.2,0.6c1.7,0.8,4.4,2.3,6.8,3.8
			c2.7,1.8,4.2,3.1,5.2,4.4l2.4-3.5c-1.2-0.8-1.2-0.8-2.3-1.6c-5.2-3.8-9.3-5.9-13.3-7.1c-0.2-3.2-0.5-8.1-0.7-12.9
			c4.2-0.1,7.6-0.4,12.1-1.1c2.1-0.3,2.1-0.3,3-0.3l-0.5-3.7c-2.8,1.1-9.2,1.9-14.7,1.9c-0.1-3.5-0.1-4.1-0.1-5.2
			c0-3.9,0.1-5.3,0.3-6.6H1475.5 M1476.6,471.7c0,0,0.1,2,0.1,2.8c0,1.9-0.3,2.9-1.2,3.8c-1.2,1.1-3.2,1.7-5.6,1.7
			c-2.6,0-4.9-0.8-6-2c-0.4-0.5-0.8-1.4-0.8-2.2c0-2.9,3.1-4.7,8.2-4.7C1473.4,471,1474.6,471.2,1476.6,471.7"/>
		<path class="st1" d="M1666.5,278.5c1.3,2.2,2.3,4.6,3.5,8.3l2.6-0.9c-1.1-3.6-1.9-5.3-3.5-8.2L1666.5,278.5 M1637.9,280.9
			c0,0.7,0,0.8-0.1,1.2c0,0.4-0.1,0.7-0.3,2.2c-1.6,9.3-2,13.4-2,19.2c0,5.3,0.6,10.1,1.8,14.8c0.3,1.1,0.3,1.2,0.4,1.8l3.4-0.2
			c0-0.1,0-0.2,0-0.3c0-2.5,2-8.4,5.1-14.9l-2.6-1.1c-2.7,5.6-3.2,7.1-4.2,10.5c-0.1-0.8-0.2-1.8-0.3-2.7c-0.2-1.7-0.4-5.4-0.4-8.1
			c0-6.9,1.5-17.1,3.1-21.9L1637.9,280.9 M1672.3,277c1.2,1.9,2.6,5.2,3.6,8.2l2.6-0.9c-0.8-2.7-2.1-5.6-3.6-8.2L1672.3,277
			 M1646.9,295.1c0.4,0,0.6,0,0.8,0c0.2,0,0.5,0,0.9,0c1.8,0.1,4.7,0.2,6.1,0.2c2.2,0,5.1-0.1,7.3-0.3c0.1,1.4,0.1,2.6,0.1,3.9
			c0,8-0.8,11.6-3.4,14.9c-1.8,2.3-4.1,4-7.6,5.8c1.2,0.9,1.8,1.5,2.7,2.7c3.8-2.2,6-3.9,7.8-6.4c3-4,3.8-8.2,3.8-17.7
			c0-1.4,0-2.2,0-3.5c1.8-0.2,3.5-0.6,5.4-1.1c1.5-0.3,1.6-0.4,2.7-0.5l-0.2-3.6c-1.3,0.8-4.3,1.6-7.9,2.1l-0.1-3.1
			c-0.1-2.9-0.1-4.2-0.2-5.1c-0.1-0.9-0.1-1.2-0.1-1.5c0-0.6,0.1-0.9,0.2-1.8l-3.8,0.1c0.2,1,0.3,3,0.6,11.6
			c-2.5,0.2-4.3,0.3-6.3,0.3c-3.7,0-6.6-0.2-8.5-0.7L1646.9,295.1"/>
		<path class="st1" d="M1657.5,340.5c-2.6,0.1-7,0.2-12.1,0.4c-8.1,0.3-8.1,0.3-9.5,0.3c-0.8,0-1.1,0-2,0l0.2,3.7
			c1.6-0.4,15.6-1.2,23.5-1.2v1.3c0,0.3,0,0.8,0,1.2c0,0.7,0,1,0,1.3c0,1.8,0,2,0.1,2.8c-1.3-1.4-3.4-2.2-5.8-2.2
			c-5.1,0-8.9,3.5-8.9,8.2c0,4.6,3.4,7.9,8.2,7.9c2.6,0,4.8-0.9,6.3-2.7c0.6-0.7,0.9-1.2,1.3-2.5c-0.2,7-4.6,11.6-13.7,14.3
			c1,1.1,1.4,1.6,2.2,3.2c3.7-1.4,5.9-2.6,7.9-4.1c4.3-3.2,6.7-7.8,6.7-13c0-2.2-0.4-3.8-1.2-5.9v-9.9c4-0.1,4.6-0.1,5.3-0.1
			c6,0,7.7,0,9.6,0.2v-3.6c-1.2,0.2-1.8,0.2-3.3,0.2l-8.8,0.1c-0.8,0-1,0-2.8,0v-0.5c0-3.9,0-4.7,0.2-6.2h-3.8
			c0.1,1,0.2,1.5,0.2,2.9l0.1,3.5V340.5 M1651.9,350.8c1.2,0,2.5,0.3,3.3,0.8c1.5,0.8,2.1,1.9,2.1,3.5c0,3.5-2.4,5.9-5.8,5.9
			c-3,0-5.2-2.1-5.2-4.9C1646.3,353,1648.7,350.8,1651.9,350.8 M1665.1,332.1c1.6,1.6,3.2,4,5,7l2.5-1.6c-1-1.8-2.8-4.2-5-6.8
			L1665.1,332.1 M1672.3,331.1c1.9,2.2,3.4,4.3,5.2,7.5l2.5-1.5c-1.1-2.1-3.2-4.9-5.2-7.4L1672.3,331.1"/>
		<path class="st1" d="M1666.7,388.3c1.5,1.6,3.9,5.3,5.2,8l2.5-1.5c-1.5-3-2.9-5.1-5.2-7.8L1666.7,388.3 M1634.5,403.7
			c2.2-0.7,3.7-0.9,10.1-1.8c-2.2,9.4-6.6,19.4-10.7,24.9l3.4,2c5.2-9.1,8.7-17.8,10.8-27.2c1.8-0.2,2.5-0.2,3.6-0.2
			c4.7,0,6.2,1.7,6.2,7c0,5.6-0.8,10.7-2.1,13.9c-0.7,1.6-1.6,2.4-2.8,2.4c-1.8,0-4.6-0.9-7.5-2.3c0.2,0.9,0.2,1.2,0.2,1.9
			c0,0.7,0,1.1-0.1,1.8c3.3,1.4,5.4,1.9,7.5,1.9c2.4,0,3.7-0.6,4.9-2.3c2.1-2.9,3.3-9.5,3.3-17.2c0-4.1-0.7-6.4-2.4-8.1
			c-1.6-1.5-3.7-2.1-7.2-2.1c-1.2,0-1.8,0.1-3,0.2c0.4-2.2,0.8-4.5,1.1-5.7c0.4-2.7,0.7-3.8,0.9-4.8l-4-0.5c0,0.3,0,0.6,0,0.7
			c0,2.1-0.7,6.8-1.5,10.6c-7.3,1.1-9.2,1.2-11,1.3L1634.5,403.7 M1672.4,385.7c2,2.2,4.1,5.5,5.1,7.8l2.5-1.5
			c-1.6-3.1-2.9-5-5.1-7.8L1672.4,385.7 M1664,397.1c4.5,4.5,8.6,11.6,10.2,18l3.2-1.8c-2.1-6.6-5.5-12.4-10.4-17.7L1664,397.1"/>
		<path class="st1" d="M1659.6,448.3c2.5,0.1,3.9,0.5,5.8,1.2c5.1,2.2,8,6.9,8,12.6c0,6.2-3.3,11.5-8.8,14c-2.4,1.1-4.7,1.8-8.4,2.3
			c1,1.2,1.2,1.7,1.8,3.4c3.5-0.8,5.4-1.4,7.6-2.3c7.2-3.1,11.4-9.5,11.4-17.2c0-4.8-1.7-9.2-4.8-12.2c-3.2-3.2-8.2-4.9-13.8-4.9
			c-6.7,0-12.2,2.2-16.2,6.7c-3.3,3.8-5.2,8.7-5.2,13.8c0,7,3.6,12.2,8.3,12.2c3.6,0,6.5-3,9.4-9.6
			C1656.9,462.9,1658.8,455.3,1659.6,448.3 M1656,448.4c-0.7,6.4-2.5,13.8-4.6,18.5c-2.2,4.9-4.2,7.2-6.2,7.2
			c-2.7,0-4.8-3.7-4.8-8.5c0-6.2,3.1-11.9,8.2-14.9C1650.8,449.3,1653,448.6,1656,448.4"/>
		<path class="st1" d="M1819,293.3c0.8-0.1,1-0.2,2-0.2c6.6-0.1,12.8-0.6,17.8-1.3c0.3,0.5,0.3,0.6,0.9,1.7c2.1,4.2,3.4,6.2,6,9.8
			c-2.1-1.1-6.1-1.8-10.4-1.8c-4,0-7,0.6-9.7,1.8c-3.5,1.7-5.7,4.8-5.7,8.2c0,2,0.8,3.9,2.2,5.5c2.3,2.4,6.9,3.8,13,3.8
			c5,0,9.7-0.8,14.7-2.7l-0.6-3.9c-3.8,2-9.2,3.2-14.2,3.2c-4.3,0-7.9-0.8-9.8-2.3c-1.2-1-1.9-2.3-1.9-3.9c0-1.8,1-3.6,2.7-4.6
			c2.2-1.4,5.3-2.1,9.5-2.1c3.4,0,6.2,0.5,8.8,1.3c1.4,0.5,2.1,0.9,3.5,2.1l3.3-1.9c-3.5-4.7-7.2-10.7-9-14.6
			c0.5-0.1,0.5-0.1,1.7-0.3c3.2-0.6,3.8-0.8,6.8-1.6c1.5-0.4,1.9-0.5,3-0.7l-0.5-3.6c-2.7,1.2-7.2,2.4-12.1,3.2
			c-0.4-0.9-0.6-1.2-1.8-4.4c-1.2-3.2-1.2-3.2-1.5-4.5l-3.9,0.6c0.4,0.9,0.8,1.6,1.3,2.9c0.9,2.2,1.7,4.2,2.4,5.9
			c-4.7,0.7-10.3,1.1-14.9,1.1c-1.7,0-2.5-0.1-3.8-0.2L1819,293.3"/>
		<path class="st1" d="M1820.4,339.8c1.2-0.2,1.7-0.2,3.7-0.2c4.8-0.2,5.5-0.2,9.5-0.5c-1.8,5.8-2.4,7.7-4,12.6
			c-4,0.1-6.4,0.6-9,2.2c-3.8,2.2-6,5.8-6,9.9c0,4.7,2.8,8.2,6.6,8.2c2.4,0,4.2-1.5,6.1-4.9c1.2-2.4,3.1-7.2,4.7-12.1
			c5.1,0.6,9.3,1.8,13.8,4.2c-0.7,3-2.3,5.8-4.6,8.4c-2.2,2.5-4.3,4-8.1,5.8c1.1,0.8,1.5,1.2,2.6,2.6c3.1-1.5,5.7-3.5,8-6.1
			c2.4-2.8,4-5.4,5.2-9.1c3.7,2.1,6.2,3.7,7.8,5l1.4-3.8c-0.7-0.3-1.1-0.5-1.5-0.8c-2.4-1.5-4.1-2.4-6.8-3.8
			c0.5-3.1,0.8-5.8,0.9-10.9c0-1.8,0-2.2,0.2-3.1l-3.8,0c0.2,0.9,0.2,1.3,0.2,2.4c0,5.2-0.1,7.3-0.6,10.2c-5.2-2.4-8.8-3.5-13.7-4
			c0.9-2.6,1.2-3.6,2.4-7c2-6,2.1-6.3,2.8-7.2l-2.7-2.1c-0.6,0.3-1,0.5-1.8,0.6c-1.7,0.2-5.7,0.4-8.4,0.4c-2.5,0-3.6-0.1-4.8-0.3
			L1820.4,339.8 M1828.5,354.7c-3.7,10.7-5.4,13.8-7.4,13.8c-1.8,0-3.2-2.1-3.2-4.8c0-2.1,0.9-4.2,2.4-5.8
			C1822.2,355.9,1824.7,355,1828.5,354.7"/>
		<path class="st1" d="M1816.7,399.7c0.4-0.1,0.8-0.1,0.8-0.1c0,0,0.1,0,0.2,0c2,0.1,2.4,0.1,4.2,0.1c1.8,0,2.5,0,3.5,0
			c-1.9,9.8-5.7,21.2-9.4,27.6l3.7,1.6c2.6-6.1,4.1-9.9,5.8-15.2c1.3-4.6,2.8-10.2,3.5-14.2c2.4-0.2,5.9-0.7,8.4-1.2
			c1-0.2,1-0.2,1.4-0.2l-0.2-3.5c-2.4,0.8-5.1,1.3-9,1.7c0.2-1.5,0.4-2.2,0.7-3.8c0.6-3.5,0.6-3.5,0.9-4.8l-3.9-0.4
			c0,2.2-0.1,3.1-1.1,9.2c-1.5,0.1-2,0.1-3,0.1c-2.7,0-4.7-0.2-6.2-0.4V399.7 M1854.5,402.1c-3.8-0.2-4.5-0.2-5.5-0.2
			c-4.2,0-7.4,0.4-13.2,1.7l0.4,3.4c4.5-1.2,8-1.7,12.5-1.7c2.1,0,3.5,0.1,5.9,0.4L1854.5,402.1 M1836.3,412.9
			c-2.6,3.4-3.3,4.9-3.3,7.2c0,4.9,4.2,7.5,12.5,7.5c2.6,0,5.5-0.2,8.9-0.8c1.7-0.2,1.7-0.2,2.2-0.3l-0.3-3.8
			c-2.9,1-7.3,1.7-11.1,1.7c-5.7,0-8.8-1.6-8.8-4.6c0-1.2,0.4-2.5,1.2-3.6c0.3-0.5,0.5-0.7,1.5-1.9L1836.3,412.9"/>
		<path class="st1" d="M1838.9,448.2c-3.4,0.1-7.3,0.2-12.1,0.4c-8.1,0.3-8.1,0.3-9.5,0.3c-0.8,0-1.1,0-2-0.1l0.2,3.7
			c3.3-0.5,13.4-1,23.5-1.2c0,1.9,0,1.9,0,2.6c0,0.6,0,1.1,0,1.3c0,1.8,0,2.1,0.1,2.8c-1.3-1.4-3.4-2.2-5.8-2.2
			c-5.1,0-8.8,3.5-8.8,8.2c0,4.6,3.4,7.9,8.2,7.9c2.7,0,4.8-0.9,6.3-2.7c0.6-0.7,0.9-1.2,1.3-2.4c-0.2,4.5-1.9,7.8-5.6,10.5
			c-2,1.5-4.2,2.5-8.1,3.8c1,1.1,1.3,1.6,2.2,3.2c3.7-1.4,5.8-2.6,7.9-4.1c4.3-3.2,6.7-7.9,6.7-13.1c0-2.2-0.3-3.8-1.2-5.9v-9.9
			c4.1-0.1,4.6-0.1,5.3-0.1c6,0,7.7,0.1,9.6,0.2v-3.5c-1.6,0.2-5.5,0.3-15,0.3v-0.6c0-3.9,0.1-4.6,0.2-6.2h-3.8
			c0.2,1.1,0.2,1.6,0.2,2.9L1838.9,448.2 M1838.8,462.8c0,3.5-2.4,5.9-5.8,5.9c-3.1,0-5.2-2-5.2-4.9c0-3,2.4-5.2,5.6-5.2
			c1.3,0,2.4,0.2,3.3,0.8C1838.1,460.1,1838.8,461.1,1838.8,462.8"/>
		<path class="st1" d="M2039.2,280.7c0.2,1,0.2,1.6,0.2,2.7c0,0.8,0,1.8-0.1,3.2c-0.4,15.8-0.4,17-0.4,20.3c0,5.2,0.7,7.9,2.8,10.2
			c2,2.3,5.1,3.5,9.4,3.5c5.9,0,10.6-2.1,14.1-6.2c2.2-2.6,3.6-5.5,5.5-11.3c-1.6-0.8-2.2-1.2-3.6-2.4c-0.7,3.5-1.3,5.4-2.4,7.8
			c-2.9,5.7-7.5,8.7-13.4,8.7c-2.6,0-4.8-0.7-6.2-2c-1.5-1.3-2.1-3-2.3-6c-0.1-1.2-0.1-2.4-0.1-3c0-2.2,0.1-9,0.4-15
			c0.1-6.3,0.3-8.9,0.6-10.6H2039.2"/>
		<path class="st1" d="M2042.9,335.6c0.2,1.3,0.2,2.8,0.2,7.5c0,1.2,0,1.7,0,3.2c-5.2,0.4-8.3,0.6-9.2,0.6c-0.2,0-0.6,0-1.1,0
			l0.3,3.5c2.3-0.4,5.1-0.7,10-1.1c0,1.8,0,6,0,6.2c0,7.2,0.2,10.1,0.7,11.8c1.3,4.5,5.1,6.2,14,6.2c3.8,0,8-0.3,12.6-1.1
			c1.2-0.2,1.3-0.2,2-0.2l-0.4-3.8c-3.2,1.2-8.4,1.8-13.9,1.8c-3.2,0-6.2-0.3-7.8-0.8c-2-0.6-2.9-1.6-3.4-3.2
			c-0.4-1.4-0.5-4.9-0.5-12.6c0-0.7,0-1.6,0-2.4c0-0.7,0-1.2,0-1.4c0-0.2,0-0.4,0-0.7c6.6-0.5,10.2-0.7,16.3-0.8
			c-0.1,3.8-0.2,5.5-0.6,7.7c-0.4,2.4-1.1,3.2-2.4,3.2c-1.4,0-3.8-0.9-6.6-2.8c0.1,1,0.1,1.5,0.1,2.1c0,0.5-0.1,0.8-0.1,1.5
			c3,1.6,5,2.3,6.9,2.3c2.6,0,4.2-1.4,5.1-4.4c0.5-2,0.9-5.5,0.9-9.8c1.6,0,2.7,0,3.5,0c1.6-0.1,2.9-0.1,3.4-0.1
			c2.1,0,2.4,0,3.8,0.1l-0.1-3.5c-1.6,0.2-5.5,0.3-10.4,0.4v-1.3l0.1-3.2v-2.1c0-1.6,0.1-2.8,0.2-3.8h-3.8c0.2,1.5,0.3,3,0.3,7.6
			c0,0.6,0,1.2,0,1.7c0,0.3,0,0.6,0,0.8s0,0.3,0,0.7c-6.2,0.2-8.2,0.3-16.4,0.8c0.1-8.9,0.1-8.9,0.4-10.5H2042.9"/>
		<path class="st1" d="M2040.7,390.6c0.3,0.8,0.4,1,0.7,2.7c0.4,2.5,1.1,5.4,1.4,7c-2.3,1.7-3.7,3.2-5,5.1c-1.8,2.8-2.9,6.3-2.9,9.5
			c0,5.9,2.8,9.8,7.2,9.8c2.9,0,5.7-1.8,8.9-5.7c3.9-4.7,7.5-11.8,9.7-19.6c6.9,1.5,10.5,5.5,10.5,11.6c0,2.6-0.8,5-2.2,7.1
			c-1.5,2.2-4,4-7.5,5.4c-2.6,1.1-4.6,1.6-7.4,1.9c1.3,1.6,1.6,2,1.9,3.3c2.2-0.5,2.4-0.6,3.2-0.8c3.9-1.1,7.5-2.8,10.1-5
			c3.4-2.8,5.4-7.3,5.4-12c0-7.5-4.9-13-13.2-14.5c0.2-1,0.4-1.5,0.6-2.3c1.1-4.5,1.1-4.5,1.4-5.2l-3.8-0.8
			c-0.1,1.4-0.7,4.8-1.6,8.1c-0.7-0.1-1.3-0.1-1.7-0.1c-3.8,0-7.2,0.8-10.7,2.5c-0.6-2.9-1.3-7.1-1.3-8.7L2040.7,390.6
			 M2043.6,403.7c1.1,4.6,2.7,9.2,4.7,13.4c-2.2,2.8-4.4,4.2-6.1,4.2c-2.5,0-4.1-2.6-4.1-6.6c0-2.1,0.8-4.8,2-7
			C2041,406.2,2042,405.1,2043.6,403.7 M2050.6,414.4c-0.1-0.4-0.1-0.5-0.4-1.2c-1.8-4.2-2.8-7.5-3.8-11.6c2.9-1.7,6.1-2.6,9.6-2.6
			c0.2,0,0.7,0.1,1.2,0.1c-1.6,5.3-3.8,10.4-6.1,14.2C2050.9,413.8,2050.9,413.9,2050.6,414.4L2050.6,414.4"/>
		<path class="st1" d="M2064.6,442.2c1.5,1.6,3.9,5.3,5.1,8l2.5-1.5c-1.5-3-2.9-5.1-5.1-7.8L2064.6,442.2 M2032.4,457.6
			c2.2-0.7,3.6-0.9,10-1.8c-2.2,9.5-6.5,19.5-10.7,24.9l3.4,2c5.2-9.1,8.7-17.8,10.8-27.2c1.9-0.2,2.5-0.2,3.6-0.2
			c4.6,0,6.1,1.7,6.1,7c0,5.6-0.8,10.7-2.1,13.9c-0.7,1.6-1.6,2.4-2.9,2.4c-1.8,0-4.6-0.9-7.4-2.3c0.1,0.9,0.1,1.2,0.1,1.9
			c0,0.7,0,1.1-0.1,1.8c3.3,1.4,5.4,1.9,7.6,1.9c2.3,0,3.7-0.6,4.9-2.3c2.1-2.9,3.4-9.6,3.4-17.2c0-4.1-0.7-6.4-2.5-8.1
			c-1.5-1.5-3.6-2.1-7.2-2.1c-1.1,0-1.8,0-2.9,0.2c0.4-2.2,0.9-4.5,1.1-5.7c0.4-2.7,0.6-3.8,0.9-4.8l-4-0.5c0,0.3,0,0.6,0,0.7
			c0,2.1-0.6,6.8-1.5,10.6c-7.4,1.1-9.2,1.2-11.1,1.3L2032.4,457.6 M2070.3,439.6c1.9,2.2,4.1,5.5,5.1,7.9l2.5-1.5
			c-1.7-3.2-2.9-5-5.2-7.8L2070.3,439.6 M2061.9,451c4.5,4.5,8.5,11.6,10.2,17.9l3.2-1.8c-2.1-6.6-5.5-12.4-10.4-17.7L2061.9,451"/>
		<path class="st1" d="M2194.2,290.7c2.5-0.5,6.9-0.9,17.2-1.6c5.6-0.4,8.1-0.6,11-1.1c-1.9,0.9-3.2,1.6-4.8,2.7
			c-5.9,4-9.3,9.6-9.3,15.3c0,4.1,2,7.8,5.6,10.2c2.8,1.9,5.8,3,10.8,3.8c0.8,0.2,1,0.2,1.6,0.3l0.7-4.1c-0.2,0-0.4,0-0.5,0
			c-1.9,0-5.1-0.7-7.5-1.6c-4.5-1.7-7-5.1-7-9.2c0-4.2,2.1-8.2,6.1-11.6c2.8-2.3,6.2-4.2,9.6-5c1.9-0.5,3.6-0.7,5.6-0.7l-0.3-3.8
			c-0.8,0.2-3.1,0.4-5.9,0.5c-6.4,0.3-22.4,1.2-28.4,1.7c-1.6,0.1-2.2,0.2-2.9,0.2c-0.3,0-0.8,0-1.8,0L2194.2,290.7"/>
		<path class="st1" d="M2194.2,344.6c2.5-0.5,6.9-0.9,17.2-1.7c5.6-0.3,8.1-0.6,11-1.1c-1.9,0.9-3.2,1.6-4.8,2.7
			c-5.9,4-9.3,9.6-9.3,15.3c0,4.1,2,7.8,5.6,10.2c2.8,1.9,5.8,3,10.8,3.8c0.8,0.2,1,0.2,1.6,0.3l0.7-4c-0.2,0-0.4,0-0.5,0
			c-1.9,0-5.1-0.7-7.5-1.6c-4.5-1.7-7-5.1-7-9.2c0-4.2,2.1-8.2,6.1-11.6c2.8-2.3,6.2-4.2,9.6-5.1c1.9-0.4,3.6-0.6,5.6-0.6l-0.3-3.8
			c-0.8,0.2-3.1,0.4-5.9,0.5c-6.4,0.3-22.4,1.2-28.4,1.7c-1.6,0.1-2.2,0.2-2.9,0.2c-0.3,0-0.8,0-1.8,0L2194.2,344.6"/>
		<path class="st1" d="M2199.1,393.9c0.9-0.1,1.2-0.1,3.1-0.2c7.2-0.2,13.6-0.8,15.7-1.2c-0.7,0.5-0.8,0.6-1.7,1.4
			c-4.7,4.5-12.4,10.6-16.6,12.9c-3.5,0.6-7.2,1-8.8,1c-0.1,0-0.2,0-0.4,0l0.4,3.8c1.5-0.5,8.4-1.5,14.7-2.2
			c5.5-0.6,6.5-0.8,8.8-1.2c0.7-0.1,1.4-0.2,2.1-0.3c-7.2,3.2-10.9,7.1-10.9,11.6c0,2.4,1.1,4.7,3,6.3c2.4,2,6.8,3.1,12.6,3.2
			c1.2,0,2,0,2.2,0c0.4,0,0.6,0.1,1.2,0.1l-0.2-3.8c-1.1,0.2-2.1,0.3-3.4,0.3c-7.6,0-11.9-2.3-11.9-6.4c0-1.5,0.5-2.7,1.6-4.2
			c1.4-1.8,3.7-3.6,6.2-4.8c3.7-1.8,8.6-2.7,13.8-2.7c0.2,0,0.6,0,1.1,0l-0.4-3.5c-0.6,0.1-0.8,0.1-1.4,0.2
			c-0.6,0.1-2.6,0.2-4.6,0.4c-4,0.4-7.6,0.7-8.9,0.8c-7.5,0.7-9.8,0.9-12,1.4c4.9-2.9,11.4-7.9,16.4-12.8c1.2-1.2,1.6-1.6,2.4-2.1
			l-2.1-2.6c-0.7,0.3-1.7,0.5-2.8,0.6c-3.6,0.4-10.8,0.7-15.2,0.7c-2.1,0-2.9,0-4.5-0.2L2199.1,393.9 M2223.7,394.2
			c1.2,1.3,3.5,5,4.7,7.6l2.5-1.5c-1.7-3.2-3.1-5.4-4.8-7.3L2223.7,394.2 M2228.9,391.1c2,2.2,4.1,5.4,5.2,7.8l2.5-1.5
			c-1.7-3.2-3-5-5.2-7.8L2228.9,391.1"/>
		<path class="st1" d="M2194.1,453.6c0.4,0,0.8,0,0.9,0c0,0,0.1,0,0.2,0c1.9,0.1,2.4,0.1,4.1,0.1c1.9,0,2.4,0,3.4-0.1
			c-1.8,9.8-5.7,21.2-9.4,27.7l3.6,1.6c2.7-6.1,4.1-9.9,5.8-15.2c1.4-4.6,2.8-10.2,3.5-14.2c2.5-0.2,5.9-0.7,8.5-1.2
			c1-0.2,1-0.2,1.4-0.2l-0.2-3.5c-2.4,0.8-5.1,1.3-9,1.7c0.2-1.5,0.4-2.2,0.6-3.8c0.6-3.6,0.6-3.6,0.9-4.8l-3.9-0.4
			c0,2.2-0.1,3.1-1.1,9.2c-1.4,0.1-2,0.1-3,0.1c-2.6,0-4.6-0.2-6.2-0.5V453.6 M2231.8,456c-3.8-0.2-4.5-0.2-5.4-0.2
			c-4.2,0-7.4,0.4-13.2,1.7l0.3,3.4c4.6-1.2,8.1-1.7,12.5-1.7c2.1,0,3.5,0.1,5.9,0.3L2231.8,456 M2213.6,466.8
			c-2.7,3.4-3.4,4.9-3.4,7.2c0,4.9,4.2,7.5,12.4,7.5c2.7,0,5.6-0.2,8.9-0.9c1.6-0.2,1.6-0.2,2.2-0.3l-0.4-3.8c-2.8,1-7.3,1.7-11,1.7
			c-5.7,0-8.8-1.6-8.8-4.6c0-1.2,0.4-2.5,1.2-3.5c0.3-0.6,0.5-0.7,1.5-1.9L2213.6,466.8"/>
		<path class="st1" d="M1864.7,837.9c0,2.7,2.2,5,5,5c2.7,0,5-2.2,5-5s-2.2-5-5-5C1866.9,832.9,1864.7,835.2,1864.7,837.9"/>
		<path class="st1" d="M2242.1,837.9c0,2.7,2.2,5,5,5s5-2.2,5-5s-2.2-5-5-5S2242.1,835.2,2242.1,837.9"/>
		<path class="st1" d="M1864.7,701.5c0,2.7,2.2,5,5,5c2.7,0,5-2.2,5-5s-2.2-5-5-5C1866.9,696.5,1864.7,698.7,1864.7,701.5"/>
		<path class="st1" d="M2242.1,701.5c0,2.7,2.2,5,5,5s5-2.2,5-5s-2.2-5-5-5S2242.1,698.7,2242.1,701.5"/>
		<path class="st1" d="M1864.7,184.4c0,2.7,2.2,5,5,5c2.7,0,5-2.2,5-5s-2.2-5-5-5C1866.9,179.5,1864.7,181.7,1864.7,184.4"/>
		<path class="st1" d="M2242.1,234c0,2.7,2.2,5,5,5s5-2.2,5-5s-2.2-5-5-5S2242.1,231.3,2242.1,234"/>
		<line class="st5" x1="92.7" y1="79.8" x2="92.7" y2="917.8"/>
		<path class="st1" d="M135.3,57.7c-0.2-0.1-0.5-0.2-0.7-0.2c-0.4,0-0.9,0.1-1.1,0.5c-0.2,0.3-10.1,15.6-29.1,15.6H88.7
			c-0.8,0-1.4,0.5-1.4,1.3v8.9v1.4h12.1c30.6,0,36.4-25.5,36.5-25.8c0-0.1,0.1-0.3,0.1-0.5C136,58.4,135.7,58,135.3,57.7"/>
		<path class="st1" d="M135.3,939.8c0.4-0.3,0.7-0.7,0.7-1.2c0-0.2-0.1-0.4-0.1-0.5c-0.1-0.3-6-25.8-36.5-25.8H87.3v1.4v8.9
			c0,0.8,0.6,1.3,1.4,1.3h15.8c18.9,0,28.9,15.3,29.1,15.6c0.2,0.4,0.7,0.5,1.1,0.5C134.8,940,135.1,939.9,135.3,939.8"/>
	</g>
</g>
</svg>
