<?xml version="1.0" encoding="utf-8"?>
<!-- Generator: Adobe Illustrator 26.5.0, SVG Export Plug-In . SVG Version: 6.00 Build 0)  -->
<svg version="1.1" id="レイヤー_1" xmlns="http://www.w3.org/2000/svg" xmlns:xlink="http://www.w3.org/1999/xlink" x="0px"
	 y="0px" viewBox="0 0 2590 920" style="enable-background:new 0 0 2590 920;" xml:space="preserve">
<style type="text/css">
	.st0{fill:none;stroke:#FFFFFF;stroke-width:2.73;stroke-linejoin:bevel;}
	.st1{fill:#FFFFFF;}
	.st2{fill:none;stroke:#FFFFFF;stroke-width:4.46;stroke-linejoin:bevel;}
	.st3{fill:none;stroke:#FFFFFF;stroke-width:3.97;stroke-linejoin:bevel;}
	.st4{fill-rule:evenodd;clip-rule:evenodd;fill:#FFFFFF;}
	.st5{fill:none;stroke:#FFFFFF;stroke-width:3.72;stroke-linejoin:bevel;}
	.st6{fill:none;stroke:#FFFFFF;stroke-width:10.91;stroke-linejoin:bevel;}
	.st7{fill:none;stroke:#FFFFFF;stroke-width:13.64;stroke-linejoin:bevel;}
</style>
<g>
	<g>
		
			<image style="overflow:visible;" width="2624" height="784" xlink:href="80DA785FFC92FAAB.png"  transform="matrix(1 0 0 1 -17.0795 172.0956)">
		</image>
	</g>
	<g>
		<line class="st0" x1="106.1" y1="248.5" x2="2570.6" y2="248.5"/>
		<line class="st0" x1="106.1" y1="273.3" x2="2570.6" y2="273.3"/>
		<line class="st0" x1="106.1" y1="298.1" x2="2570.6" y2="298.1"/>
		<line class="st0" x1="106.1" y1="322.9" x2="2570.6" y2="322.9"/>
		<line class="st0" x1="106.1" y1="347.7" x2="2570.6" y2="347.7"/>
		<line class="st0" x1="106.1" y1="570.6" x2="2570.6" y2="570.6"/>
		<line class="st0" x1="106.1" y1="595.4" x2="2570.6" y2="595.4"/>
		<line class="st0" x1="106.1" y1="620.2" x2="2570.6" y2="620.2"/>
		<line class="st0" x1="106.1" y1="645" x2="2570.6" y2="645"/>
		<line class="st0" x1="106.1" y1="669.8" x2="2570.6" y2="669.8"/>
		<line class="st0" x1="106.1" y1="780.7" x2="2570.6" y2="780.7"/>
		<line class="st0" x1="106.1" y1="805.5" x2="2570.6" y2="805.5"/>
		<line class="st0" x1="106.1" y1="830.3" x2="2570.6" y2="830.3"/>
		<line class="st0" x1="106.1" y1="855.1" x2="2570.6" y2="855.1"/>
		<line class="st0" x1="106.1" y1="879.9" x2="2570.6" y2="879.9"/>
		<path class="st1" d="M54.2,811.9h-30l-0.8,13.9h2.2c0.3-2.5,0.8-4.4,1.3-6c1.3-3.7,3.7-5.5,7.1-5.5c1.6,0,2.4,0.5,2.4,1.8v25.8
			c0,2.6,0,2.7-0.3,3.1c-0.4,0.5-1.4,0.7-4.2,0.7h-1.3v2.3h17.1v-2.3h-1.3c-2.8,0-3.8-0.2-4.1-0.7c-0.3-0.4-0.3-0.5-0.3-3.1v-25.8
			c0-1.2,0.7-1.8,2.4-1.8c3.1,0,5.5,1.7,6.8,4.7c0.8,1.8,1.2,4,1.6,6.8H55L54.2,811.9 M59.1,842.5c-1.8,0-3.1,1.4-3.1,3.1
			c0,1.8,1.4,3.2,3.1,3.2c1.8,0,3.1-1.4,3.1-3.2C62.2,843.9,60.8,842.5,59.1,842.5"/>
		<path class="st1" d="M38.7,601.5h-2.1l-11.5,29.2c-1.4,3.9-2.6,5.1-5.5,5.3h-0.2v2.3h13.2v-2.3h-1c-2.7,0-4.1-1-4.1-2.9
			c0-0.6,0.1-1.2,0.4-2.1l1.7-4.4H43l2.7,6.7c0.3,0.8,0.4,1.1,0.4,1.3c0,0.8-1.2,1.3-3.1,1.3h-2.1v2.3h15.5v-2.3h-0.7
			c-2.6-0.1-3.1-0.4-4.2-3.2L38.7,601.5 M36.3,609.7l5.7,14.2H30.7L36.3,609.7 M63.3,632.7c-1.8,0-3.2,1.4-3.2,3.1
			c0,1.8,1.4,3.2,3.1,3.2c1.8,0,3.2-1.4,3.2-3.2C66.4,634.1,65,632.7,63.3,632.7"/>
		<path class="st1" d="M51.7,279.7h-1.8l-2,3c-2.4-2.2-5.6-3.4-9.1-3.4c-6.6,0-10.9,4.1-10.9,10.4c0,5.4,2.7,8.2,10.1,10.1l4.8,1.2
			c3.7,0.9,4,1.1,5.1,1.8c1.5,1.2,2.3,2.8,2.3,4.8c0,2-0.8,3.7-2.2,5.1c-1.6,1.4-3.3,1.9-6.1,1.9c-3.7,0-6.3-1.2-8.7-3.8
			c-2.1-2.3-3.1-4.7-3.9-8.5h-2.2l0.2,14.2h2l2.2-3.4c3.3,2.8,6.1,3.8,10.5,3.8c7.3,0,12-4.3,12-11c0-3.2-1-5.8-3-7.7
			c-1.3-1.3-3.3-2.2-7.3-3.2l-5.4-1.3c-4.4-1.2-6.6-3.1-6.6-6.2c0-3.5,2.9-5.9,7.1-5.9c3.5,0,6.3,1.5,8.3,4.4c1.5,2,2.4,4.1,3,6.7
			h2.2L51.7,279.7 M62.7,310.6c-1.8,0-3.1,1.4-3.1,3.1c0,1.8,1.4,3.2,3.1,3.2c1.8,0,3.1-1.4,3.1-3.2C65.8,312,64.4,310.6,62.7,310.6
			"/>
		<line class="st2" x1="108.4" y1="779.3" x2="108.4" y2="881.3"/>
		<line class="st2" x1="973.2" y1="779.3" x2="973.2" y2="881.3"/>
		<line class="st2" x1="1337.8" y1="779.3" x2="1337.8" y2="881.3"/>
		<line class="st2" x1="2003.1" y1="779.3" x2="2003.1" y2="881.3"/>
		<line class="st2" x1="2554.7" y1="779.3" x2="2554.7" y2="881.3"/>
		<line class="st2" x1="2568.4" y1="779.3" x2="2568.4" y2="881.3"/>
		<line class="st2" x1="108.4" y1="569.2" x2="108.4" y2="780.7"/>
		<line class="st2" x1="973.2" y1="569.2" x2="973.2" y2="671.2"/>
		<line class="st2" x1="1337.8" y1="569.2" x2="1337.8" y2="671.2"/>
		<line class="st2" x1="2003.1" y1="569.2" x2="2003.1" y2="671.2"/>
		<line class="st2" x1="2554.7" y1="569.2" x2="2554.7" y2="671.2"/>
		<line class="st2" x1="2568.4" y1="569.2" x2="2568.4" y2="671.2"/>
		<line class="st2" x1="108.4" y1="247.1" x2="108.4" y2="570.6"/>
		<line class="st2" x1="973.2" y1="247.1" x2="973.2" y2="349.1"/>
		<line class="st2" x1="1337.8" y1="247.1" x2="1337.8" y2="349.1"/>
		<line class="st2" x1="2003.1" y1="247.1" x2="2003.1" y2="349.1"/>
		<line class="st2" x1="2554.7" y1="247.1" x2="2554.7" y2="349.1"/>
		<line class="st2" x1="2568.4" y1="247.1" x2="2568.4" y2="349.1"/>
		<line class="st3" x1="294.6" y1="755.9" x2="344.2" y2="755.9"/>
		<line class="st3" x1="805.2" y1="755.9" x2="854.8" y2="755.9"/>
		<line class="st3" x1="1700.5" y1="755.9" x2="1750.1" y2="755.9"/>
		<line class="st3" x1="1846.4" y1="755.9" x2="1896" y2="755.9"/>
		<line class="st3" x1="549.9" y1="694.6" x2="599.5" y2="694.6"/>
		<line class="st3" x1="1008.3" y1="694.6" x2="1057.9" y2="694.6"/>
		<line class="st3" x1="1167.6" y1="694.6" x2="1217.2" y2="694.6"/>
		<line class="st3" x1="1167.6" y1="372.5" x2="1217.2" y2="372.5"/>
		<line class="st0" x1="304.6" y1="759.2" x2="304.6" y2="842.7"/>
		<line class="st0" x1="461.7" y1="771.6" x2="461.7" y2="848.9"/>
		<line class="st0" x1="559.9" y1="784" x2="559.9" y2="855.1"/>
		<line class="st0" x1="658.1" y1="771.6" x2="658.1" y2="855.1"/>
		<line class="st0" x1="815.2" y1="759.2" x2="815.2" y2="842.7"/>
		<line class="st0" x1="1018.4" y1="784" x2="1018.4" y2="867.5"/>
		<line class="st0" x1="1177.7" y1="808.8" x2="1177.7" y2="889.2"/>
		<line class="st0" x1="1382.4" y1="771.6" x2="1382.4" y2="855.1"/>
		<line class="st0" x1="1528.3" y1="771.6" x2="1528.3" y2="848.9"/>
		<line class="st0" x1="1619.4" y1="771.6" x2="1619.4" y2="848.9"/>
		<line class="st0" x1="1710.6" y1="759.2" x2="1710.6" y2="842.7"/>
		<line class="st0" x1="1856.4" y1="759.2" x2="1856.4" y2="842.7"/>
		<line class="st0" x1="2047" y1="808.8" x2="2047" y2="889.2"/>
		<line class="st0" x1="2203.2" y1="839.5" x2="2203.2" y2="762.1"/>
		<line class="st0" x1="2300.4" y1="808.8" x2="2300.4" y2="889.2"/>
		<line class="st0" x1="334.1" y1="654.2" x2="334.1" y2="570.6"/>
		<line class="st0" x1="491.2" y1="666.6" x2="491.2" y2="595.4"/>
		<line class="st0" x1="589.4" y1="691.5" x2="589.4" y2="620.2"/>
		<line class="st0" x1="687.6" y1="666.6" x2="687.6" y2="583"/>
		<line class="st0" x1="844.7" y1="654.2" x2="844.7" y2="570.6"/>
		<line class="st0" x1="1047.9" y1="691.5" x2="1047.9" y2="607.8"/>
		<line class="st0" x1="1207.2" y1="691.5" x2="1207.2" y2="607.8"/>
		<line class="st0" x1="1411.9" y1="679" x2="1411.9" y2="595.4"/>
		<line class="st0" x1="1557.8" y1="679" x2="1557.8" y2="601.6"/>
		<line class="st0" x1="1648.9" y1="679" x2="1648.9" y2="601.6"/>
		<line class="st0" x1="1740.1" y1="666.6" x2="1740.1" y2="583"/>
		<line class="st0" x1="1885.9" y1="666.6" x2="1885.9" y2="583"/>
		<line class="st0" x1="2076.5" y1="654.2" x2="2076.5" y2="570.6"/>
		<line class="st0" x1="2203.2" y1="666.6" x2="2203.2" y2="583"/>
		<line class="st0" x1="2329.9" y1="654.2" x2="2329.9" y2="570.6"/>
		<line class="st0" x1="334.1" y1="307.3" x2="334.1" y2="229.9"/>
		<line class="st0" x1="491.2" y1="319.7" x2="491.2" y2="248.5"/>
		<line class="st0" x1="589.4" y1="332.1" x2="589.4" y2="254.7"/>
		<line class="st0" x1="687.6" y1="319.7" x2="687.6" y2="239.2"/>
		<line class="st0" x1="844.7" y1="307.3" x2="844.7" y2="229.9"/>
		<line class="st0" x1="1047.9" y1="332.1" x2="1047.9" y2="248.5"/>
		<line class="st0" x1="1207.2" y1="369.3" x2="1207.2" y2="285.7"/>
		<line class="st0" x1="1411.9" y1="332.1" x2="1411.9" y2="248.5"/>
		<line class="st0" x1="1557.8" y1="344.5" x2="1557.8" y2="273.3"/>
		<line class="st0" x1="1648.9" y1="332.1" x2="1648.9" y2="267.1"/>
		<line class="st0" x1="1740.1" y1="319.7" x2="1740.1" y2="239.2"/>
		<line class="st0" x1="1856.4" y1="289" x2="1856.4" y2="366.3"/>
		<line class="st0" x1="2076.5" y1="307.3" x2="2076.5" y2="229.9"/>
		<line class="st0" x1="2203.2" y1="319.7" x2="2203.2" y2="239.2"/>
		<line class="st0" x1="2329.9" y1="332.1" x2="2329.9" y2="248.5"/>
		<path class="st1" d="M334.5,747.9c-1.8-3.3-5.6-5.1-10.1-5.1c-3.4,0-7,1-10.6,2.9c-6.5,3.5-10.5,9.3-10.5,14.4
			c0,1.4,0.3,2.8,1,4.1c1.8,3.3,5.6,5,10.1,5c3.4,0,7-0.9,10.6-2.8c6.5-3.5,10.5-9.3,10.5-14.4C335.5,750.5,335.2,749.2,334.5,747.9
			"/>
		<path class="st1" d="M491.6,760.3c-1.8-3.3-5.6-5.1-10.1-5.1c-3.4,0-7,1-10.6,2.9c-6.5,3.5-10.5,9.3-10.5,14.4
			c0,1.4,0.3,2.8,1,4.1c1.8,3.3,5.6,5,10.1,5c3.4,0,7-0.9,10.6-2.8c6.5-3.5,10.5-9.3,10.5-14.4C492.6,762.9,492.3,761.6,491.6,760.3
			"/>
		<path class="st1" d="M589.8,772.7c-1.8-3.3-5.6-5.1-10.1-5.1c-3.4,0-7,1-10.6,2.9c-6.5,3.5-10.5,9.3-10.5,14.4
			c0,1.4,0.3,2.8,1,4.1c1.8,3.3,5.6,5,10.1,5c3.4,0,7-0.9,10.6-2.8c6.5-3.5,10.5-9.3,10.5-14.4C590.8,775.4,590.5,774,589.8,772.7"
			/>
		<path class="st1" d="M688,760.3c-1.8-3.3-5.6-5.1-10.1-5.1c-3.4,0-7,1-10.6,2.9c-6.5,3.5-10.5,9.3-10.5,14.4c0,1.4,0.3,2.8,1,4.1
			c1.8,3.3,5.6,5,10.1,5c3.4,0,7-0.9,10.6-2.8c6.5-3.5,10.5-9.3,10.5-14.4C689,762.9,688.7,761.6,688,760.3"/>
		<path class="st1" d="M845.1,747.9c-1.8-3.3-5.6-5.1-10.1-5.1c-3.4,0-7,1-10.6,2.9c-6.5,3.5-10.5,9.3-10.5,14.4
			c0,1.4,0.3,2.8,1,4.1c1.8,3.3,5.6,5,10.1,5c3.4,0,7-0.9,10.6-2.8c6.5-3.5,10.5-9.3,10.5-14.4C846.1,750.5,845.8,749.2,845.1,747.9
			"/>
		<path class="st1" d="M1048.3,772.7c-1.8-3.3-5.6-5.1-10.1-5.1c-3.4,0-7,1-10.6,2.9c-6.5,3.5-10.5,9.3-10.5,14.4
			c0,1.4,0.3,2.8,1,4.1c1.8,3.3,5.6,5,10.1,5c3.4,0,7-0.9,10.6-2.8c6.5-3.5,10.5-9.3,10.5-14.4C1049.3,775.4,1049,774,1048.3,772.7
			 M1044,779.4c-1.7,1.7-5.1,3.8-8.6,5.8s-7.1,3.5-9.5,4c-0.5,0.1-1,0.2-1.5,0.2c-1.6,0-2.8-0.6-3.5-1.9c-0.3-0.5-0.5-1.1-0.5-1.7
			c0-1.1,0.7-2.4,1.8-3.5c1.7-1.7,5-3.8,8.5-5.8s7.1-3.5,9.5-4c0.5-0.1,1-0.2,1.5-0.2c1.6,0,2.9,0.6,3.6,1.9
			c0.3,0.5,0.4,1.1,0.4,1.7C1045.7,777,1045.1,778.2,1044,779.4"/>
		<path class="st1" d="M1207.6,797.5c-1.8-3.3-5.6-5.1-10.1-5.1c-3.4,0-7,1-10.6,2.9c-6.5,3.5-10.5,9.3-10.5,14.4
			c0,1.4,0.3,2.8,1,4.1c1.8,3.3,5.6,5,10.1,5c3.4,0,7-0.9,10.6-2.8c6.5-3.5,10.5-9.3,10.5-14.4
			C1208.6,800.2,1208.3,798.8,1207.6,797.5 M1203.3,804.2c-1.7,1.7-5.1,3.8-8.6,5.8s-7.1,3.5-9.5,4c-0.5,0.1-1,0.2-1.5,0.2
			c-1.6,0-2.8-0.6-3.5-1.9c-0.3-0.5-0.5-1.1-0.5-1.7c0-1.1,0.7-2.4,1.8-3.5c1.7-1.7,5-3.8,8.5-5.8s7.1-3.5,9.5-4
			c0.5-0.1,1-0.2,1.5-0.2c1.6,0,2.9,0.6,3.6,1.9c0.3,0.5,0.4,1.1,0.4,1.7C1205,801.8,1204.4,803,1203.3,804.2"/>
		<path class="st1" d="M1412.3,760.3c-1.8-3.3-5.6-5.1-10.1-5.1c-3.4,0-7,1-10.6,2.9c-6.5,3.5-10.5,9.3-10.5,14.4
			c0,1.4,0.3,2.8,1,4.1c1.8,3.3,5.6,5,10.1,5c3.4,0,7-0.9,10.6-2.8c6.5-3.5,10.5-9.3,10.5-14.4
			C1413.3,762.9,1413,761.6,1412.3,760.3"/>
		<path class="st1" d="M1558.2,760.3c-1.8-3.3-5.6-5.1-10.1-5.1c-3.4,0-7,1-10.6,2.9c-6.5,3.5-10.5,9.3-10.5,14.4
			c0,1.4,0.3,2.8,1,4.1c1.8,3.3,5.6,5,10.1,5c3.4,0,7-0.9,10.6-2.8c6.5-3.5,10.5-9.3,10.5-14.4
			C1559.2,762.9,1558.9,761.6,1558.2,760.3"/>
		<path class="st1" d="M1649.3,760.3c-1.8-3.3-5.6-5.1-10.1-5.1c-3.4,0-7,1-10.6,2.9c-6.5,3.5-10.5,9.3-10.5,14.4
			c0,1.4,0.3,2.8,1,4.1c1.8,3.3,5.6,5,10.1,5c3.4,0,7-0.9,10.6-2.8c6.5-3.5,10.5-9.3,10.5-14.4
			C1650.3,762.9,1650,761.6,1649.3,760.3"/>
		<path class="st1" d="M1740.5,747.9c-1.8-3.3-5.6-5.1-10.1-5.1c-3.4,0-7,1-10.6,2.9c-6.5,3.5-10.5,9.3-10.5,14.4
			c0,1.4,0.3,2.8,1,4.1c1.8,3.3,5.6,5,10.1,5c3.4,0,7-0.9,10.6-2.8c6.5-3.5,10.5-9.3,10.5-14.4
			C1741.5,750.5,1741.2,749.2,1740.5,747.9"/>
		<path class="st1" d="M1886.3,747.9c-1.8-3.3-5.6-5.1-10.1-5.1c-3.4,0-7,1-10.6,2.9c-6.5,3.5-10.5,9.3-10.5,14.4
			c0,1.4,0.3,2.8,1,4.1c1.8,3.3,5.6,5,10.1,5c3.4,0,7-0.9,10.6-2.8c6.5-3.5,10.5-9.3,10.5-14.4
			C1887.3,750.5,1887,749.2,1886.3,747.9"/>
		<path class="st1" d="M2076.9,797.5c-1.8-3.3-5.6-5.1-10.1-5.1c-3.4,0-7,1-10.6,2.9c-6.5,3.5-10.5,9.3-10.5,14.4
			c0,1.4,0.3,2.8,1,4.1c1.8,3.3,5.6,5,10.1,5c3.4,0,7-0.9,10.6-2.8c6.5-3.5,10.5-9.3,10.5-14.4
			C2077.9,800.2,2077.6,798.8,2076.9,797.5"/>
		<path class="st1" d="M2203.6,834.7c-1.8-3.3-5.6-5.1-10.1-5.1c-3.4,0-7,1-10.6,2.9c-6.5,3.5-10.5,9.3-10.5,14.4
			c0,1.4,0.3,2.8,1,4.1c1.8,3.3,5.6,5,10.1,5c3.4,0,7-0.9,10.6-2.8c6.5-3.5,10.5-9.3,10.5-14.4
			C2204.6,837.4,2204.3,836,2203.6,834.7"/>
		<path class="st1" d="M2330.3,797.5c-1.8-3.3-5.6-5.1-10.1-5.1c-3.4,0-7,1-10.6,2.9c-6.5,3.5-10.5,9.3-10.5,14.4
			c0,1.4,0.3,2.8,1,4.1c1.8,3.3,5.6,5,10.1,5c3.4,0,7-0.9,10.6-2.8c6.5-3.5,10.5-9.3,10.5-14.4
			C2331.3,800.2,2331,798.8,2330.3,797.5"/>
		<path class="st1" d="M334.5,649.4c-1.8-3.3-5.6-5.1-10.1-5.1c-3.4,0-7,1-10.6,2.9c-6.5,3.5-10.5,9.3-10.5,14.4
			c0,1.4,0.3,2.8,1,4.1c1.8,3.3,5.6,5,10.1,5c3.4,0,7-0.9,10.6-2.8c6.5-3.5,10.5-9.3,10.5-14.4C335.5,652.1,335.2,650.7,334.5,649.4
			"/>
		<path class="st1" d="M491.6,661.8c-1.8-3.3-5.6-5.1-10.1-5.1c-3.4,0-7,1-10.6,2.9c-6.5,3.5-10.5,9.3-10.5,14.4
			c0,1.4,0.3,2.8,1,4.1c1.8,3.3,5.6,5,10.1,5c3.4,0,7-0.9,10.6-2.8c6.5-3.5,10.5-9.3,10.5-14.4C492.6,664.5,492.3,663.1,491.6,661.8
			"/>
		<path class="st1" d="M589.8,686.6c-1.8-3.3-5.6-5.1-10.1-5.1c-3.4,0-7,1-10.6,2.9c-6.5,3.5-10.5,9.3-10.5,14.4
			c0,1.4,0.3,2.8,1,4.1c1.8,3.3,5.6,5,10.1,5c3.4,0,7-0.9,10.6-2.8c6.5-3.5,10.5-9.3,10.5-14.4C590.8,689.3,590.5,687.9,589.8,686.6
			"/>
		<path class="st1" d="M688,661.8c-1.8-3.3-5.6-5.1-10.1-5.1c-3.4,0-7,1-10.6,2.9c-6.5,3.5-10.5,9.3-10.5,14.4c0,1.4,0.3,2.8,1,4.1
			c1.8,3.3,5.6,5,10.1,5c3.4,0,7-0.9,10.6-2.8c6.5-3.5,10.5-9.3,10.5-14.4C689,664.5,688.7,663.1,688,661.8"/>
		<path class="st1" d="M845.1,649.4c-1.8-3.3-5.6-5.1-10.1-5.1c-3.4,0-7,1-10.6,2.9c-6.5,3.5-10.5,9.3-10.5,14.4
			c0,1.4,0.3,2.8,1,4.1c1.8,3.3,5.6,5,10.1,5c3.4,0,7-0.9,10.6-2.8c6.5-3.5,10.5-9.3,10.5-14.4C846.1,652.1,845.8,650.7,845.1,649.4
			"/>
		<path class="st1" d="M1048.3,686.6c-1.8-3.3-5.6-5.1-10.1-5.1c-3.4,0-7,1-10.6,2.9c-6.5,3.5-10.5,9.3-10.5,14.4
			c0,1.4,0.3,2.8,1,4.1c1.8,3.3,5.6,5,10.1,5c3.4,0,7-0.9,10.6-2.8c6.5-3.5,10.5-9.3,10.5-14.4
			C1049.3,689.3,1049,687.9,1048.3,686.6 M1044,693.3c-1.7,1.7-5.1,3.8-8.6,5.8s-7.1,3.5-9.5,4c-0.5,0.1-1,0.2-1.5,0.2
			c-1.6,0-2.8-0.6-3.5-1.9c-0.3-0.5-0.5-1.1-0.5-1.7c0-1.1,0.7-2.4,1.8-3.5c1.7-1.7,5-3.8,8.5-5.8s7.1-3.5,9.5-4
			c0.5-0.1,1-0.2,1.5-0.2c1.6,0,2.9,0.6,3.6,1.9c0.3,0.5,0.4,1.1,0.4,1.7C1045.7,691,1045.1,692.1,1044,693.3"/>
		<path class="st1" d="M1207.6,686.6c-1.8-3.3-5.6-5.1-10.1-5.1c-3.4,0-7,1-10.6,2.9c-6.5,3.5-10.5,9.3-10.5,14.4
			c0,1.4,0.3,2.8,1,4.1c1.8,3.3,5.6,5,10.1,5c3.4,0,7-0.9,10.6-2.8c6.5-3.5,10.5-9.3,10.5-14.4
			C1208.6,689.3,1208.3,687.9,1207.6,686.6 M1203.3,693.3c-1.7,1.7-5.1,3.8-8.6,5.8s-7.1,3.5-9.5,4c-0.5,0.1-1,0.2-1.5,0.2
			c-1.6,0-2.8-0.6-3.5-1.9c-0.3-0.5-0.5-1.1-0.5-1.7c0-1.1,0.7-2.4,1.8-3.5c1.7-1.7,5-3.8,8.5-5.8s7.1-3.5,9.5-4
			c0.5-0.1,1-0.2,1.5-0.2c1.6,0,2.9,0.6,3.6,1.9c0.3,0.5,0.4,1.1,0.4,1.7C1205,691,1204.4,692.1,1203.3,693.3"/>
		<path class="st1" d="M1412.3,674.2c-1.8-3.3-5.6-5.1-10.1-5.1c-3.4,0-7,1-10.6,2.9c-6.5,3.5-10.5,9.3-10.5,14.4
			c0,1.4,0.3,2.8,1,4.1c1.8,3.3,5.6,5,10.1,5c3.4,0,7-0.9,10.6-2.8c6.5-3.5,10.5-9.3,10.5-14.4
			C1413.3,676.9,1413,675.5,1412.3,674.2"/>
		<path class="st1" d="M1558.2,674.2c-1.8-3.3-5.6-5.1-10.1-5.1c-3.4,0-7,1-10.6,2.9c-6.5,3.5-10.5,9.3-10.5,14.4
			c0,1.4,0.3,2.8,1,4.1c1.8,3.3,5.6,5,10.1,5c3.4,0,7-0.9,10.6-2.8c6.5-3.5,10.5-9.3,10.5-14.4
			C1559.2,676.9,1558.9,675.5,1558.2,674.2"/>
		<path class="st1" d="M1649.3,674.2c-1.8-3.3-5.6-5.1-10.1-5.1c-3.4,0-7,1-10.6,2.9c-6.5,3.5-10.5,9.3-10.5,14.4
			c0,1.4,0.3,2.8,1,4.1c1.8,3.3,5.6,5,10.1,5c3.4,0,7-0.9,10.6-2.8c6.5-3.5,10.5-9.3,10.5-14.4
			C1650.3,676.9,1650,675.5,1649.3,674.2"/>
		<path class="st1" d="M1740.5,661.8c-1.8-3.3-5.6-5.1-10.1-5.1c-3.4,0-7,1-10.6,2.9c-6.5,3.5-10.5,9.3-10.5,14.4
			c0,1.4,0.3,2.8,1,4.1c1.8,3.3,5.6,5,10.1,5c3.4,0,7-0.9,10.6-2.8c6.5-3.5,10.5-9.3,10.5-14.4
			C1741.5,664.5,1741.2,663.1,1740.5,661.8"/>
		<path class="st1" d="M1886.3,661.8c-1.8-3.3-5.6-5.1-10.1-5.1c-3.4,0-7,1-10.6,2.9c-6.5,3.5-10.5,9.3-10.5,14.4
			c0,1.4,0.3,2.8,1,4.1c1.8,3.3,5.6,5,10.1,5c3.4,0,7-0.9,10.6-2.8c6.5-3.5,10.5-9.3,10.5-14.4
			C1887.3,664.5,1887,663.1,1886.3,661.8"/>
		<path class="st1" d="M2076.9,649.4c-1.8-3.3-5.6-5.1-10.1-5.1c-3.4,0-7,1-10.6,2.9c-6.5,3.5-10.5,9.3-10.5,14.4
			c0,1.4,0.3,2.8,1,4.1c1.8,3.3,5.6,5,10.1,5c3.4,0,7-0.9,10.6-2.8c6.5-3.5,10.5-9.3,10.5-14.4
			C2077.9,652.1,2077.6,650.7,2076.9,649.4"/>
		<path class="st1" d="M2203.6,661.8c-1.8-3.3-5.6-5.1-10.1-5.1c-3.4,0-7,1-10.6,2.9c-6.5,3.5-10.5,9.3-10.5,14.4
			c0,1.4,0.3,2.8,1,4.1c1.8,3.3,5.6,5,10.1,5c3.4,0,7-0.9,10.6-2.8c6.5-3.5,10.5-9.3,10.5-14.4
			C2204.6,664.5,2204.3,663.1,2203.6,661.8"/>
		<path class="st1" d="M2330.3,649.4c-1.8-3.3-5.6-5.1-10.1-5.1c-3.4,0-7,1-10.6,2.9c-6.5,3.5-10.5,9.3-10.5,14.4
			c0,1.4,0.3,2.8,1,4.1c1.8,3.3,5.6,5,10.1,5c3.4,0,7-0.9,10.6-2.8c6.5-3.5,10.5-9.3,10.5-14.4
			C2331.3,652.1,2331,650.7,2330.3,649.4"/>
		<path class="st1" d="M334.5,302.5c-1.8-3.3-5.6-5.1-10.1-5.1c-3.4,0-7,1-10.6,2.9c-6.5,3.5-10.5,9.3-10.5,14.4
			c0,1.4,0.3,2.8,1,4.1c1.8,3.3,5.6,5,10.1,5c3.4,0,7-0.9,10.6-2.8c6.5-3.5,10.5-9.3,10.5-14.4C335.5,305.2,335.2,303.8,334.5,302.5
			"/>
		<path class="st1" d="M491.6,314.9c-1.8-3.3-5.6-5.1-10.1-5.1c-3.4,0-7,1-10.6,2.9c-6.5,3.5-10.5,9.3-10.5,14.4
			c0,1.4,0.3,2.8,1,4.1c1.8,3.3,5.6,5,10.1,5c3.4,0,7-0.9,10.6-2.8c6.5-3.5,10.5-9.3,10.5-14.4C492.6,317.6,492.3,316.2,491.6,314.9
			"/>
		<path class="st1" d="M589.8,327.3c-1.8-3.3-5.6-5.1-10.1-5.1c-3.4,0-7,1-10.6,2.9c-6.5,3.5-10.5,9.3-10.5,14.4
			c0,1.4,0.3,2.8,1,4.1c1.8,3.3,5.6,5,10.1,5c3.4,0,7-0.9,10.6-2.8c6.5-3.5,10.5-9.3,10.5-14.4C590.8,330,590.5,328.6,589.8,327.3"
			/>
		<path class="st1" d="M688,314.9c-1.8-3.3-5.6-5.1-10.1-5.1c-3.4,0-7,1-10.6,2.9c-6.5,3.5-10.5,9.3-10.5,14.4c0,1.4,0.3,2.8,1,4.1
			c1.8,3.3,5.6,5,10.1,5c3.4,0,7-0.9,10.6-2.8c6.5-3.5,10.5-9.3,10.5-14.4C689,317.6,688.7,316.2,688,314.9"/>
		<path class="st1" d="M845.1,302.5c-1.8-3.3-5.6-5.1-10.1-5.1c-3.4,0-7,1-10.6,2.9c-6.5,3.5-10.5,9.3-10.5,14.4
			c0,1.4,0.3,2.8,1,4.1c1.8,3.3,5.6,5,10.1,5c3.4,0,7-0.9,10.6-2.8c6.5-3.5,10.5-9.3,10.5-14.4C846.1,305.2,845.8,303.8,845.1,302.5
			"/>
		<path class="st1" d="M1048.3,327.3c-1.8-3.3-5.6-5.1-10.1-5.1c-3.4,0-7,1-10.6,2.9c-6.5,3.5-10.5,9.3-10.5,14.4
			c0,1.4,0.3,2.8,1,4.1c1.8,3.3,5.6,5,10.1,5c3.4,0,7-0.9,10.6-2.8c6.5-3.5,10.5-9.3,10.5-14.4C1049.3,330,1049,328.6,1048.3,327.3
			 M1044,334c-1.7,1.7-5.1,3.8-8.6,5.8s-7.1,3.5-9.5,4c-0.5,0.1-1,0.2-1.5,0.2c-1.6,0-2.8-0.6-3.5-1.9c-0.3-0.5-0.5-1.1-0.5-1.7
			c0-1.1,0.7-2.4,1.8-3.5c1.7-1.7,5-3.8,8.5-5.8c3.6-2,7.1-3.5,9.5-4c0.5-0.1,1-0.2,1.5-0.2c1.6,0,2.9,0.6,3.6,1.9
			c0.3,0.5,0.4,1.1,0.4,1.7C1045.7,331.6,1045.1,332.8,1044,334"/>
		<path class="st1" d="M1207.6,364.5c-1.8-3.3-5.6-5.1-10.1-5.1c-3.4,0-7,1-10.6,2.9c-6.5,3.5-10.5,9.3-10.5,14.4
			c0,1.4,0.3,2.8,1,4.1c1.8,3.3,5.6,5,10.1,5c3.4,0,7-0.9,10.6-2.8c6.5-3.5,10.5-9.3,10.5-14.4
			C1208.6,367.2,1208.3,365.8,1207.6,364.5 M1203.3,371.2c-1.7,1.7-5.1,3.8-8.6,5.8s-7.1,3.5-9.5,4c-0.5,0.1-1,0.2-1.5,0.2
			c-1.6,0-2.8-0.6-3.5-1.9c-0.3-0.5-0.5-1.1-0.5-1.7c0-1.1,0.7-2.4,1.8-3.5c1.7-1.7,5-3.8,8.5-5.8c3.6-2,7.1-3.5,9.5-4
			c0.5-0.1,1-0.2,1.5-0.2c1.6,0,2.9,0.6,3.6,1.9c0.3,0.5,0.4,1.1,0.4,1.7C1205,368.8,1204.4,370,1203.3,371.2"/>
		<path class="st1" d="M1412.3,327.3c-1.8-3.3-5.6-5.1-10.1-5.1c-3.4,0-7,1-10.6,2.9c-6.5,3.5-10.5,9.3-10.5,14.4
			c0,1.4,0.3,2.8,1,4.1c1.8,3.3,5.6,5,10.1,5c3.4,0,7-0.9,10.6-2.8c6.5-3.5,10.5-9.3,10.5-14.4C1413.3,330,1413,328.6,1412.3,327.3"
			/>
		<path class="st1" d="M1558.2,339.7c-1.8-3.3-5.6-5.1-10.1-5.1c-3.4,0-7,1-10.6,2.9c-6.5,3.5-10.5,9.3-10.5,14.4
			c0,1.4,0.3,2.8,1,4.1c1.8,3.3,5.6,5,10.1,5c3.4,0,7-0.9,10.6-2.8c6.5-3.5,10.5-9.3,10.5-14.4
			C1559.2,342.4,1558.9,341,1558.2,339.7"/>
		<path class="st1" d="M1649.3,327.3c-1.8-3.3-5.6-5.1-10.1-5.1c-3.4,0-7,1-10.6,2.9c-6.5,3.5-10.5,9.3-10.5,14.4
			c0,1.4,0.3,2.8,1,4.1c1.8,3.3,5.6,5,10.1,5c3.4,0,7-0.9,10.6-2.8c6.5-3.5,10.5-9.3,10.5-14.4C1650.3,330,1650,328.6,1649.3,327.3"
			/>
		<path class="st1" d="M1740.5,314.9c-1.8-3.3-5.6-5.1-10.1-5.1c-3.4,0-7,1-10.6,2.9c-6.5,3.5-10.5,9.3-10.5,14.4
			c0,1.4,0.3,2.8,1,4.1c1.8,3.3,5.6,5,10.1,5c3.4,0,7-0.9,10.6-2.8c6.5-3.5,10.5-9.3,10.5-14.4
			C1741.5,317.6,1741.2,316.2,1740.5,314.9"/>
		<path class="st1" d="M1886.3,277.7c-1.8-3.3-5.6-5.1-10.1-5.1c-3.4,0-7,1-10.6,2.9c-6.5,3.5-10.5,9.3-10.5,14.4
			c0,1.4,0.3,2.8,1,4.1c1.8,3.3,5.6,5,10.1,5c3.4,0,7-0.9,10.6-2.8c6.5-3.5,10.5-9.3,10.5-14.4C1887.3,280.3,1887,279,1886.3,277.7"
			/>
		<path class="st1" d="M2076.9,302.5c-1.8-3.3-5.6-5.1-10.1-5.1c-3.4,0-7,1-10.6,2.9c-6.5,3.5-10.5,9.3-10.5,14.4
			c0,1.4,0.3,2.8,1,4.1c1.8,3.3,5.6,5,10.1,5c3.4,0,7-0.9,10.6-2.8c6.5-3.5,10.5-9.3,10.5-14.4
			C2077.9,305.2,2077.6,303.8,2076.9,302.5"/>
		<path class="st1" d="M2203.6,314.9c-1.8-3.3-5.6-5.1-10.1-5.1c-3.4,0-7,1-10.6,2.9c-6.5,3.5-10.5,9.3-10.5,14.4
			c0,1.4,0.3,2.8,1,4.1c1.8,3.3,5.6,5,10.1,5c3.4,0,7-0.9,10.6-2.8c6.5-3.5,10.5-9.3,10.5-14.4
			C2204.6,317.6,2204.3,316.2,2203.6,314.9"/>
		<path class="st1" d="M2330.3,327.3c-1.8-3.3-5.6-5.1-10.1-5.1c-3.4,0-7,1-10.6,2.9c-6.5,3.5-10.5,9.3-10.5,14.4
			c0,1.4,0.3,2.8,1,4.1c1.8,3.3,5.6,5,10.1,5c3.4,0,7-0.9,10.6-2.8c6.5-3.5,10.5-9.3,10.5-14.4C2331.3,330,2331,328.6,2330.3,327.3"
			/>
		<path class="st1" d="M155.6,780.6c-7.5,0-13.6,4.4-13.7,4.4c-5.8,4.3-8,9.3-8.9,12.8c-0.5,1.8-0.7,3.6-0.7,5.3
			c0,2.4,0.4,4.6,1.3,6.4c1.2,2.7,3.5,4.6,6.4,5.6c1.2,0.4,2.5,0.6,3.8,0.6c2.2,0,4.5-0.6,6.3-1.7c3.1-1.7,5-5.3,5-9.1
			c0-3.5-1.8-6.6-4.8-8.5c-2.1-1.4-4.1-1.8-5.8-1.8c-1.2,0-2.3,0.2-3.2,0.5c-1,0.4-2.7,1.4-3.5,2.1c0.3-1.9,1.5-4.8,2.6-6.3
			s3.3-3.6,5-4.5c2.5-1.4,5.7-2,9.1-2c10.1,0,15.1,8.1,15.1,24.8c0,9.2-3.5,18.1-6.4,23.9c-3.3,6.5-7.6,12.8-11.5,16.3
			c-10.3,9.4-20,13.9-20.1,13.9c0,0-1.5,0.9-1.1,2.4c0.3,1,1.2,1.2,1.8,1.2c0.1,0,0.4-0.1,0.5-0.1s11.4-4.7,20.4-11.7
			c5.1-3.7,9.6-7.6,13.6-11.9c3.6-3.9,6.6-8,9.1-12.2c4.4-7.4,6.8-15.2,6.8-21.8c0-8.2-2.2-15.1-6.3-19.9
			C171.9,783.5,164.9,780.6,155.6,780.6 M186.8,793.2c0,2.8,2.2,5,4.8,5c2.6,0,4.8-2.2,4.8-5s-2.2-5.1-4.8-5.1
			C189,788.1,186.8,790.4,186.8,793.2 M186.8,817.7c0,2.8,2.2,5.1,4.8,5.1c2.6,0,4.8-2.3,4.8-5.1s-2.2-5.1-4.8-5.1
			C189,812.7,186.8,814.9,186.8,817.7"/>
		<path class="st1" d="M193.3,639.2c-1.2-5.4-3.8-9.2-4.6-10.2c-3.2-4.2-7.1-7.1-11.8-8.4c-3.1-0.9-6.1-1-8.5-0.8
			c-1-6-2-11.8-2.9-17.2c5.4-6.1,9-11.9,11.3-16.1c3.4-6.5,4.6-11.1,4.6-11.3c1.7-5.2,2.1-12.8,1-21c-1-7.5-3.1-14.1-5.4-17.4
			c-1-1.4-2.1-2.1-3.1-2.1c-1.2,0-3.7,1.2-6.6,4c-2.3,2.2-5.5,6-8.1,12c-3,7-3.2,16.4-2.8,23.1c0.4,7.2,1.5,12.9,1.5,12.9
			c0,0.1,0.3,1.6,0.7,4.1c-0.2,0.2-0.5,0.4-0.7,0.7c-1,1-2.2,2.1-3.6,3.5c-0.9,0.9-1.8,1.8-2.8,2.7c-8.4,8.1-21.1,20.3-21.1,39.3
			c0,4.7,0.9,9,2.7,13c1.6,3.6,3.9,6.8,6.8,9.7c7.7,7.5,18.2,10.7,25.2,10.5c2.9-0.1,5.5-0.3,7.9-0.8c1.8,9.5,2.9,16.5,3,21.8
			c0,6.5-1.6,10.4-5.5,13.1c-2.4,1.7-5.2,2.7-8.3,2.8c-2.6,0.1-4.8-0.3-6.2-0.8h0c0,0-0.3-0.1-0.3-0.3c0-0.2,0.3-0.2,0.3-0.2h0
			c1.9-0.4,5.4-1.7,7.8-4.9c1.8-2.5,2.6-7.1,0.8-11c-1.1-2.4-3.6-5.3-9.2-5.7c-2.5-0.2-4.7,0.3-6.7,1.5c-1.8,1.1-3.3,2.7-4.3,4.7
			c-2.4,4.7-2,10.3,1.1,14.2c2.9,3.6,7.5,5.9,12.9,6.5c0.8,0.1,1.7,0.1,2.5,0.1c4.4,0,8.8-1.2,12.3-3.4c3.6-2.5,5.7-6.5,6.4-12.1
			c0.6-4.6,0.2-10.5-1.2-18.5c-0.4-2.1-0.9-5.1-1.5-8.8c5.7-1.9,9.8-5.4,13.6-11.3C193.8,651.5,194.7,645.4,193.3,639.2
			 M159.3,665.2c-4.6-1.2-9-3.7-12.7-7.2c-1.3-1.2-3.2-3.4-4.6-6.7c-1.4-3.1-2-6.5-2-10.1c0.1-4.7,1.4-9.4,3.9-14.2
			c2.9-5.5,7.4-11,13.4-16.3c1.4-1.3,2.8-2.5,4.1-3.8c0.8,4.2,1.6,8.9,2.5,13.7c-3.8,1.3-8.5,4.4-11.6,10c-3.5,6.5-3.4,12-2.6,15.4
			c0.9,4.4,3.4,8.2,6.9,10.2c0.9,0.6,5,2.7,6.8,2.1c0.4-0.1,0.6-0.3,0.8-0.7c0.5-1.2-0.5-1.8-2.1-2.7c-0.6-0.4-1.3-0.8-2-1.3
			c-3.3-2.5-4.7-6.9-3.7-11.2c0.6-2.4,1.8-4.5,3.7-6.2c1.7-1.5,3.7-2.6,6-3.3c2,11.2,4.1,22.2,5.7,30.5c0.1,0.7,0.3,1.3,0.4,2
			C167.8,666.4,163.5,666.3,159.3,665.2 M170.6,632.3c10.3-0.5,14.5,6.9,15.4,11.7c0.5,2.5,0.5,6.9-1.1,11.1
			c-1.2,3.2-3.6,7.2-8.7,9.2c-0.1-0.4-0.1-0.8-0.2-1.3C174.4,654.3,172.5,643.4,170.6,632.3 M163.3,561.9c1.8-5.7,4.5-8.9,6.5-10.6
			c1.7-1.5,3.4-2.2,4.3-2.2c0.1,0,0.3,0,0.4,0c0.5,0.1,1,0.7,1.4,1.6c2.3,4.3,1.6,10.9,0.2,15.3c-1.6,5.4-4.5,10.9-13.2,20.5
			c-0.2-1.1-0.3-2.1-0.5-3.1C161.1,575.1,161.4,567.9,163.3,561.9"/>
		<path class="st1" d="M193.3,317.1c-1.2-5.4-3.8-9.2-4.6-10.2c-3.2-4.2-7.1-7.1-11.8-8.4c-3.1-0.9-6.1-1-8.5-0.8
			c-1-6-2-11.8-2.9-17.2c5.4-6.1,9-11.9,11.3-16.1c3.4-6.5,4.6-11.1,4.6-11.3c1.7-5.2,2.1-12.8,1-21c-1-7.5-3.1-14.1-5.4-17.4
			c-1-1.4-2.1-2.1-3.1-2.1c-1.2,0-3.7,1.2-6.6,4c-2.3,2.2-5.5,6-8.1,12c-3,7-3.2,16.4-2.8,23.1c0.4,7.2,1.5,12.9,1.5,12.9
			c0,0.1,0.3,1.6,0.7,4.1c-0.2,0.2-0.5,0.4-0.7,0.7c-1,1-2.2,2.1-3.6,3.5c-0.9,0.9-1.8,1.8-2.8,2.7c-8.4,8.1-21.1,20.3-21.1,39.3
			c0,4.7,0.9,9,2.7,13c1.6,3.6,3.9,6.8,6.8,9.7c7.7,7.5,18.2,10.7,25.2,10.5c2.9-0.1,5.5-0.3,7.9-0.8c1.8,9.5,2.9,16.5,3,21.8
			c0,6.5-1.6,10.4-5.5,13.1c-2.4,1.7-5.2,2.7-8.3,2.8c-2.6,0.1-4.8-0.3-6.2-0.8h0c0,0-0.3-0.1-0.3-0.3c0-0.2,0.3-0.2,0.3-0.2h0
			c1.9-0.4,5.4-1.7,7.8-4.9c1.8-2.5,2.6-7.1,0.8-11c-1.1-2.4-3.6-5.3-9.2-5.7c-2.5-0.2-4.7,0.3-6.7,1.5c-1.8,1.1-3.3,2.7-4.3,4.7
			c-2.4,4.7-2,10.3,1.1,14.2c2.9,3.6,7.5,5.9,12.9,6.5c0.8,0.1,1.7,0.1,2.5,0.1c4.4,0,8.8-1.2,12.3-3.4c3.6-2.5,5.7-6.5,6.4-12.1
			c0.6-4.6,0.2-10.5-1.2-18.5c-0.4-2.1-0.9-5.1-1.5-8.8c5.7-1.9,9.8-5.4,13.6-11.3C193.8,329.4,194.7,323.3,193.3,317.1
			 M159.3,343.1c-4.6-1.2-9-3.7-12.7-7.2c-1.3-1.2-3.2-3.4-4.6-6.7c-1.4-3.1-2-6.5-2-10.1c0.1-4.7,1.4-9.4,3.9-14.2
			c2.9-5.5,7.4-11,13.4-16.3c1.4-1.3,2.8-2.5,4.1-3.8c0.8,4.2,1.6,8.9,2.5,13.7c-3.8,1.3-8.5,4.4-11.6,10c-3.5,6.5-3.4,12-2.6,15.4
			c0.9,4.4,3.4,8.2,6.9,10.2c0.9,0.6,5,2.7,6.8,2.1c0.4-0.1,0.6-0.3,0.8-0.7c0.5-1.2-0.5-1.8-2.1-2.7c-0.6-0.4-1.3-0.8-2-1.3
			c-3.3-2.5-4.7-6.9-3.7-11.2c0.6-2.4,1.8-4.5,3.7-6.2c1.7-1.5,3.7-2.6,6-3.3c2,11.2,4.1,22.2,5.7,30.5c0.1,0.7,0.3,1.3,0.4,2
			C167.8,344.3,163.5,344.2,159.3,343.1 M170.6,310.2c10.3-0.5,14.5,6.9,15.4,11.7c0.5,2.5,0.5,6.9-1.1,11.1
			c-1.2,3.2-3.6,7.2-8.7,9.2c-0.1-0.4-0.1-0.8-0.2-1.3C174.4,332.2,172.5,321.3,170.6,310.2 M163.3,239.8c1.8-5.7,4.5-8.9,6.5-10.6
			c1.7-1.5,3.4-2.2,4.3-2.2c0.1,0,0.3,0,0.4,0c0.5,0.1,1,0.7,1.4,1.6c2.3,4.3,1.6,10.9,0.2,15.3c-1.6,5.4-4.5,10.9-13.2,20.5
			c-0.2-1.1-0.3-2.1-0.5-3.1C161.1,253,161.4,245.8,163.3,239.8"/>
		<path class="st1" d="M241,847.3c-0.6-3.9-3-7.5-8-7.5c-5,0-7.8,3.1-8.3,3.7l0.4-31.8c0-0.8-0.6-1.4-1.4-1.4h-1.2
			c-0.8,0-1.4,0.6-1.4,1.4l0.5,59.6c0,0.8,0.6,1.4,1.4,1.4c0.2,0,0.6-0.1,0.8-0.2c0.4-0.2,6.8-3.4,12.2-9.4
			c3.8-4.3,5.3-9.1,5.3-13.2C241.2,848.9,241.1,848.1,241,847.3 M234.2,851.2c0,1.5-0.4,6.1-2.9,9.8c-1.7,2.6-5.1,5.3-6.9,6.7
			l0.3-19.3c0.2-0.9,1.7-3.8,5.7-3.8c3.6,0,3.9,3.4,3.9,5.5V851.2"/>
		<path class="st1" d="M241,612.4c-0.6-3.9-3-7.5-8-7.5c-5,0-7.8,3.1-8.3,3.7l0.4-31.8c0-0.8-0.6-1.4-1.4-1.4h-1.2
			c-0.8,0-1.4,0.6-1.4,1.4l0.5,59.6c0,0.8,0.6,1.4,1.4,1.4c0.2,0,0.6-0.1,0.8-0.2c0.4-0.2,6.8-3.4,12.2-9.4
			c3.8-4.3,5.3-9.1,5.3-13.2C241.2,614,241.1,613.2,241,612.4 M234.2,616.3c0,1.5-0.4,6.1-2.9,9.8c-1.7,2.6-5.1,5.3-6.9,6.7
			l0.3-19.3c0.2-0.9,1.7-3.8,5.7-3.8c3.6,0,3.9,3.4,3.9,5.5V616.3"/>
		<path class="st1" d="M241,290.3c-0.6-3.9-3-7.5-8-7.5c-5,0-7.8,3.1-8.3,3.7l0.4-31.8c0-0.8-0.6-1.4-1.4-1.4h-1.2
			c-0.8,0-1.4,0.6-1.4,1.4l0.5,59.6c0,0.8,0.6,1.4,1.4,1.4c0.2,0,0.6-0.1,0.8-0.2c0.4-0.2,6.8-3.4,12.2-9.4
			c3.8-4.3,5.3-9.1,5.3-13.2C241.2,291.8,241.1,291.1,241,290.3 M234.2,294.1c0,1.5-0.4,6.1-2.9,9.8c-1.7,2.6-5.1,5.3-6.9,6.7
			l0.3-19.3c0.2-0.9,1.7-3.8,5.7-3.8c3.6,0,3.9,3.4,3.9,5.5V294.1"/>
		<path class="st1" d="M2448.8,847.1l-0.2-0.3c-0.1-0.1-0.3-0.3-0.6-0.7l-11.4-14.1c-0.3-0.3-0.2-1.1,0-1.5l10.1-15.3
			c0.1-0.2,0.2-0.5,0.2-0.7v-0.9c0-0.3-0.1-0.6-0.3-0.8l-16.1-21.7c0,0-0.8-1.2-1.8-0.3c-1,0.8-0.2,2.1-0.2,2.1l7.5,10.3
			c0.4,0.6,0.4,1.8,0,2.4l-10,15.3c-0.1,0.2-0.2,0.6-0.2,0.8v0.9c0,0.3,0.1,0.6,0.3,0.8l11.1,13.8c-0.4-0.1-1.3-0.3-2.5-0.3
			c-1.7,0-3.9,0.4-5.7,2c-2.2,2-3.4,4.8-3.4,7.2c0,1.4,0.3,2.8,1.1,3.9c2.1,3.2,9.5,12.6,9.5,12.6s0.9,1.1,1.8,0.4
			c0.9-0.7,0.7-1.6,0.4-2.1c-0.3-0.5-3.5-6.3-3.5-6.3s-0.7-1.4-0.7-3.2c0-1.3,0.4-2.9,1.7-4.2c1.2-1.2,2.6-1.6,3.9-1.6
			s2.4,0.4,3.2,0.9l3.9,2.5c0,0,1.2,0.6,1.8-0.3C2449.3,848,2449.1,847.6,2448.8,847.1"/>
		<path class="st1" d="M2448.8,637l-0.2-0.3c-0.1-0.1-0.3-0.3-0.6-0.7l-11.4-14.1c-0.3-0.3-0.2-1.1,0-1.5l10.1-15.3
			c0.1-0.2,0.2-0.5,0.2-0.7v-0.9c0-0.3-0.1-0.6-0.3-0.8l-16.1-21.7c0,0-0.8-1.2-1.8-0.3c-1,0.8-0.2,2.1-0.2,2.1l7.5,10.3
			c0.4,0.6,0.4,1.8,0,2.4l-10,15.3c-0.1,0.2-0.2,0.6-0.2,0.8v0.9c0,0.3,0.1,0.6,0.3,0.8l11.1,13.8c-0.4-0.1-1.3-0.3-2.5-0.3
			c-1.7,0-3.9,0.4-5.7,2c-2.2,2-3.4,4.8-3.4,7.2c0,1.4,0.3,2.8,1.1,3.9c2.1,3.2,9.5,12.6,9.5,12.6s0.9,1.1,1.8,0.4
			c0.9-0.7,0.7-1.6,0.4-2.1c-0.3-0.5-3.5-6.3-3.5-6.3s-0.7-1.4-0.7-3.2c0-1.3,0.4-2.9,1.7-4.2c1.2-1.2,2.6-1.6,3.9-1.6
			s2.4,0.4,3.2,0.9l3.9,2.5c0,0,1.2,0.6,1.8-0.3C2449.3,637.9,2449.1,637.5,2448.8,637"/>
		<path class="st1" d="M2448.8,314.9l-0.2-0.3c-0.1-0.1-0.3-0.3-0.6-0.7l-11.4-14.1c-0.3-0.3-0.2-1.1,0-1.5l10.1-15.3
			c0.1-0.2,0.2-0.5,0.2-0.7v-0.9c0-0.3-0.1-0.6-0.3-0.8l-16.1-21.7c0,0-0.8-1.2-1.8-0.3c-1,0.8-0.2,2.1-0.2,2.1l7.5,10.3
			c0.4,0.6,0.4,1.8,0,2.4l-10,15.3c-0.1,0.2-0.2,0.6-0.2,0.8v0.9c0,0.3,0.1,0.6,0.3,0.8l11.1,13.8c-0.4-0.1-1.3-0.3-2.5-0.3
			c-1.7,0-3.9,0.4-5.7,2c-2.2,2-3.4,4.8-3.4,7.2c0,1.4,0.3,2.8,1.1,3.9c2.1,3.2,9.5,12.6,9.5,12.6s0.9,1.1,1.8,0.4s0.7-1.6,0.4-2.1
			c-0.3-0.5-3.5-6.3-3.5-6.3s-0.7-1.4-0.7-3.2c0-1.3,0.4-2.9,1.7-4.2c1.2-1.2,2.6-1.6,3.9-1.6s2.4,0.4,3.2,0.9l3.9,2.5
			c0,0,1.2,0.6,1.8-0.3C2449.3,315.8,2449.1,315.4,2448.8,314.9"/>
		<path class="st4" d="M460.4,842.7l100.9,6.4v12.4l-100.9-6.4V842.7"/>
		<path class="st4" d="M1526.9,842.7h93.9v12.4h-93.9V842.7"/>
		<path class="st4" d="M489.9,588.3l100.9,25.5v12.8l-100.9-25.5V588.3"/>
		<path class="st4" d="M1556.4,595.4h93.9v12.4h-93.9V595.4"/>
		<path class="st4" d="M489.9,242.1l100.9,6.4v12.4l-100.9-6.4V242.1"/>
		<path class="st4" d="M1556.4,267.3l93.9-6.4v12.4l-93.9,6.4V267.3"/>
		<path class="st1" d="M305.9,418.1c0.7,0,0.8,0,1.7,0.2c3.2,0.4,7.5,0.6,11,0.6c2.8,0,4.5-0.1,7.5-0.6c-0.5,0.3-0.6,0.3-1,0.5
			c-0.6,0.3-0.7,0.3-1.2,0.6c-2.2,1.2-3.5,2-6.6,4.2l2.6,2.1c4.9-3.6,9.5-6.3,12.6-7.6l-0.2-3.3c-2.8,0.7-6.8,1.1-12.6,1.1
			c-5.7,0-9.7-0.4-13.3-1.2L305.9,418.1 M308.9,430.9c-3.8,3.2-5.8,6.4-5.8,9.7c0,3.5,2,6,5.7,7.6c2.5,0.9,6.7,1.5,11.5,1.5
			c4.4,0,9.2-0.4,13.5-1.1c0.8-0.2,1-0.2,1.7-0.2l-0.5-4.1c-2.8,1.2-8.8,1.9-15,1.9c-4,0-7.2-0.3-9.1-1c-2.8-0.9-4.2-2.6-4.2-4.9
			c0-2.3,1.5-4.6,4.8-7.3L308.9,430.9"/>
		<path class="st1" d="M310.9,463.9c-0.1,2.3-0.9,6.5-1.7,9.4c-1,0-2.6,0-3.6,0c-2.8,0-4.2-0.1-6-0.4l0,3.5c0.3,0,0.5,0,0.6,0
			c0.1,0,0.5,0,1.1,0c0.8,0,2.4,0.1,3.3,0.1c0.8,0,2.5-0.1,3.7-0.1c-1.5,4.8-2.9,8.3-5.2,12.9c-1.9,3.6-3.2,5.8-4.8,7.8l3.4,2
			c0.2-0.4,0.5-1,1-1.7c1.9-3.3,2.4-4.2,3.5-6.6c2.2-4.6,4-9.2,5.6-14.6c3-0.2,6.1-0.6,8.2-1.1c1.2-0.2,1.2-0.2,1.8-0.3l-0.2-3.5
			c-2.3,0.8-5.4,1.4-8.9,1.7c0.7-2.5,1-3.8,1.3-5.4c0.4-2.1,0.5-2.2,0.8-3.2L310.9,463.9 M340.3,477.7c-4-2.6-7.4-4.3-13.2-6.6
			l-1.8,2.8c5.2,1.9,9,3.9,13.2,6.8L340.3,477.7 M340.4,499.8c-0.3-0.2-0.3-0.2-0.9-0.8c-2.7-2.4-5.8-4.3-9.8-6.1
			c-0.3-1.9-0.6-5.3-0.6-7.6c0-1.8,0.2-2.8,0.7-4.7l-3.4-0.3c-0.4,1.8-0.5,3-0.5,4.8c0,1.2,0.1,3.6,0.4,6.8c-2-0.5-3.2-0.8-5-0.8
			c-2.2,0-4.2,0.3-5.9,1.1c-2.8,1.2-4.6,3.7-4.6,6.4c0,4.4,3.8,7.2,9.7,7.2c6.1,0,9.5-2.9,9.5-8c0-0.5,0-0.8-0.1-1.6
			c3.7,1.9,6.8,4.4,8.8,6.8L340.4,499.8 M326.5,495.3c0,0,0.1,1.5,0.1,2.1c0,3.8-2,5.5-6.2,5.5c-3.9,0-6.4-1.6-6.4-4.1
			c0-2.8,2.7-4.5,7-4.5C323,494.3,324.4,494.5,326.5,495.3"/>
		<path class="st1" d="M456.9,415.1c0.1,0.9,0.1,1.1,0.2,3c0.2,12.3,0.9,18.7,2.7,23.4c1.7,4.8,4.3,7.6,7.1,7.6
			c3.5,0,5.8-3.3,8.3-12.1c-1.4-1.1-1.8-1.6-3-2.8c-0.6,3.4-1.5,6-2.6,8.5c-0.8,1.7-1.6,2.5-2.5,2.5c-1.9,0-4-3.4-5-8.5
			c-0.8-3.2-1.3-10.1-1.3-15.6c0-2.8,0.1-4.4,0.4-5.9L456.9,415.1 M482.2,419.3c5.9,6.8,9.5,15.3,10.4,24.7l3.5-1.4
			c-0.9-5.6-1.8-9.2-3.8-13.4c-1.8-4.2-3.9-7.5-7.2-11.4L482.2,419.3"/>
		<path class="st1" d="M460.7,470.6c1.1-0.2,1.6-0.2,3.6-0.2c4.8-0.2,5.5-0.2,9.5-0.5c-1.8,5.8-2.3,7.7-4,12.6c-4,0.1-6.4,0.6-9,2.2
			c-3.8,2.2-6,5.8-6,9.9c0,4.6,2.9,8.2,6.6,8.2c2.4,0,4.2-1.5,6-4.9c1.2-2.4,3.1-7.2,4.7-12.1c5.1,0.6,9.3,1.8,13.8,4.2
			c-0.7,2.9-2.3,5.8-4.6,8.4c-2.2,2.5-4.3,4-8.1,5.8c1.2,0.8,1.5,1.2,2.7,2.6c3-1.6,5.6-3.6,7.9-6.1c2.5-2.8,4-5.5,5.2-9.1
			c3.7,2.1,6.2,3.7,7.8,4.9l1.4-3.8c-0.7-0.3-1.1-0.5-1.5-0.8c-2.5-1.4-4.2-2.3-6.9-3.8c0.6-3,0.8-5.8,0.9-10.8c0-1.8,0-2.2,0.2-3.1
			l-3.8-0.1c0.1,0.9,0.2,1.3,0.2,2.5c0,5.2-0.2,7.3-0.6,10.1c-5.1-2.4-8.8-3.4-13.6-3.9c0.9-2.7,1.2-3.6,2.3-7
			c2-6.1,2.1-6.3,2.8-7.2l-2.7-2.1c-0.5,0.3-0.9,0.5-1.8,0.6c-1.7,0.2-5.7,0.3-8.4,0.3c-2.4,0-3.5,0-4.8-0.3L460.7,470.6
			 M468.8,485.5c-3.7,10.7-5.3,13.8-7.4,13.8c-1.8,0-3.2-2.1-3.2-4.8c0-2.2,0.9-4.2,2.4-5.8C462.5,486.7,465,485.8,468.8,485.5"/>
		<path class="st1" d="M556.6,433.8c0.6,0,0.8,0,1.6,0.3c2.2,0.6,4.5,1,7.5,1.2c0,0.5,0,0.5-0.1,1.2c-0.1,1.2-0.2,2.2-0.2,3.3
			c0,2.8,0.5,5.2,1.5,6.9c2,3.2,6,5,11.2,5c8.8,0,14.6-4.8,14.6-11.8c0-3.6-1.1-6.1-4.7-9.9c-1.4,0.7-2,0.8-3.6,1
			c3.2,2.8,4.8,5.6,4.8,8.7c0,5.3-4.4,8.8-11,8.8c-3.1,0-5.5-0.8-7.1-2.1c-1.5-1.4-2.3-3.2-2.3-6c0-0.9,0.1-2.5,0.2-3.7
			c0-0.7,0-0.7,0-1c2.2,0.1,3,0.1,4.3,0.1c2.4,0,4.5-0.1,7.1-0.4c0.7-0.1,0.8-0.1,1.3-0.1l0.1-3.3c-1.9,0.5-5.6,0.8-9.2,0.8
			c-0.7,0-1.4,0-3.3-0.1c0.3-2.8,0.4-3.3,1.2-9c2.8,0.1,3.6,0.1,4.4,0.1c1.4,0,2.9-0.1,4.5-0.2c2.5-0.2,2.5-0.2,3.5-0.3l0.1-3.5
			c-2.2,0.6-5.4,0.9-9.1,0.9c-0.8,0-1.5,0-2.9-0.1c0.2-1.4,0.3-1.9,0.5-3c0.5-2.8,0.5-2.8,0.5-3.2c0.3-1.8,0.5-2.4,0.8-3.4l-4-0.4
			c0,0.2,0,0.3,0,0.4c0,1.3-0.4,4.6-1.2,9.4c-3.5-0.3-6.8-1.1-9-2l-0.4,3.3c0.7,0.2,0.9,0.2,1.5,0.3c3,0.7,5.1,1.1,7.5,1.3
			c-0.4,2.7-0.9,6.6-1.2,9c-3.8-0.4-7-1.1-9-2L556.6,433.8"/>
		<path class="st1" d="M558.9,465.4c-0.1,1.2-0.2,1.7-0.7,4c-1.7,7.4-2.2,12.7-2.2,19.8c0,5.2,0.3,8.8,1.3,14.2
			c0.1,0.9,0.2,1.2,0.3,2l3.6-0.3c0-0.3,0-0.6,0-0.8c0-2.8,1.8-8.8,4.1-13.8l-2.4-1.2c-1.6,3.7-2.5,6.4-3.2,9.8
			c-0.2-2.6-0.3-5.6-0.3-9.5c0-6,0.5-10.4,1.5-15.6c0.8-3.4,1.3-5.9,2.1-8L558.9,465.4 M569.2,474.9c3.2,0.3,5.2,0.5,8,0.5
			c3.8,0,7.8-0.2,10.8-0.7c2.2-0.3,3.3-0.4,3.4-0.4l-0.2-3.6c-3.3,0.9-7.8,1.3-13.4,1.3c-3.9,0-6.4-0.2-8.5-0.8L569.2,474.9
			 M572.8,484.6c-3.1,3.5-4.3,6.2-4.3,9.3c0,1.9,0.5,3.4,1.5,4.6c2.1,2.6,5.8,3.8,11.5,3.8c3.4,0,6.8-0.3,10.2-1
			c1-0.2,1.1-0.2,1.8-0.2l-0.5-3.8c-2.7,1.1-7,1.8-11.5,1.8c-6.5,0-9.6-1.8-9.6-5.5c0-2.2,1.2-4.6,3.8-7.3L572.8,484.6"/>
		<path class="st1" d="M662.5,414.5c6.7,1.9,12.8,2.8,21,3.3l0.5-3.6c-8.2-0.1-15.5-1.2-20.4-3.1L662.5,414.5 M657.3,430.8
			c3.9-1.6,13.9-3.4,19-3.4c2.6,0,4.9,0.4,6.2,1.1c2,1.1,3.2,3.1,3.2,5.6c0,2.3-0.8,4.5-2.5,6.8c-1.2,1.6-2.3,2.5-4.3,3.6
			c-4.2,2.4-8.8,3.7-14,4.1c0.8,1.2,1,1.6,1.6,3.6c7.5-1.4,10.7-2.4,14.5-4.8c5.5-3.4,8.6-8.1,8.6-13.5c0-3.4-1.5-6.2-4.2-7.9
			c-2.1-1.3-4.9-1.9-8.6-1.9c-4,0-8.6,0.6-15.2,1.8c-3.9,0.8-3.9,0.8-5,0.8L657.3,430.8"/>
		<path class="st1" d="M655.1,468.4c0,1,0,1.2-0.4,3.4c-0.9,4.9-1.4,10.4-1.4,15.3c0,2.5,0.1,5.1,0.3,8.4c0,0.8,0,1.1,0.1,1.7
			l3.6-0.3c-0.2-1-0.2-1.5-0.2-2.3c0-3.8,1.6-8,4.6-11.8c3.3-4.3,7.7-7,12.8-7.9c0,3.1,0.1,4.4,0.1,6c0,6.4-0.7,11.2-2.1,14
			c-3.8-1.4-6.2-3.8-8.3-8.4c-0.7,1.3-1,1.8-2,2.8c2,3.9,4.2,6.2,7.8,8c0.5,0.3,0.8,0.3,1.2,0.4c-0.1,0.2-0.2,0.2-0.3,0.4
			c-2,2.8-5,5.2-8.4,6.6c1.5,1.1,1.9,1.5,2.7,2.6c4.5-2.7,6.8-4.8,9.3-8.6c1,0.2,1.5,0.2,2.4,0.2c8.8,0,15.5-6.1,15.5-14
			c0-8-5.9-13.3-14.7-13.5c0-1.5-0.2-4.8-0.3-5.5c0-0.3,0-0.6,0-0.8c0-0.1,0-0.3,0-0.8l-3.8,0.1c0.3,1.5,0.5,3.1,0.7,7.2
			c-5.2,0.8-9,2.8-12.9,6.9c-2.2,2.3-4,5.1-4.7,7.8c-0.2,0.8-0.2,0.8-0.4,1.3h-0.2c0-0.6,0.1-0.8,0.2-1.3c0.1-1,0.1-1,0.1-1.5
			c0.7-7.2,0.8-7.9,1.4-11.1c0.5-2.9,0.8-3.8,1.1-4.9L655.1,468.4 M677.8,474.6c2.6,0.1,4.1,0.5,5.9,1.3c3.3,1.6,5.2,4.8,5.2,8.7
			c0,4.5-2.5,8.1-6.7,10c-1.7,0.8-3.3,1.1-5.2,1.1c-0.2,0-0.7,0-0.9,0c-0.2,0-0.2,0-0.4,0c1.5-2.5,2.2-8.1,2.2-15.5
			C677.9,478,677.9,476.8,677.8,474.6"/>
		<path class="st1" d="M832.7,417.2c-3.4,0.1-7.3,0.2-12.1,0.4c-8.1,0.3-8.1,0.3-9.5,0.3c-0.8,0-1.1,0-2,0l0.1,3.7
			c3.4-0.6,13.5-1.1,23.5-1.2c0,1.9,0,1.9,0,2.6c0,0.6,0,1.1,0,1.3c0,1.9,0,2.1,0.1,2.8c-1.3-1.4-3.4-2.2-5.8-2.2
			c-5.1,0-8.8,3.5-8.8,8.2c0,4.6,3.4,7.9,8.2,7.9c2.6,0,4.8-0.9,6.3-2.7c0.6-0.7,0.9-1.2,1.3-2.5c-0.2,4.6-1.9,7.8-5.6,10.6
			c-2,1.5-4.2,2.5-8.1,3.8c1,1.1,1.3,1.6,2.2,3.2c3.7-1.4,5.9-2.6,7.9-4.1c4.3-3.2,6.7-7.8,6.7-13c0-2.2-0.3-3.8-1.2-5.9v-9.9
			c4.1-0.1,4.6-0.1,5.3-0.1c6,0,7.7,0,9.6,0.2v-3.6c-1.7,0.2-5.5,0.3-15,0.3v-0.5c0-3.9,0.1-4.7,0.2-6.2h-3.8c0.2,1,0.2,1.6,0.2,2.9
			L832.7,417.2 M832.5,431.8c0,3.5-2.4,5.9-5.8,5.9c-3,0-5.2-2.1-5.2-4.9c0-3,2.4-5.2,5.6-5.2c1.3,0,2.4,0.2,3.3,0.8
			C831.9,429.1,832.5,430.2,832.5,431.8"/>
		<path class="st1" d="M820.3,468.2c4.5,2.1,4.5,2.1,7.7,3.2c3.3,1.2,3.3,1.2,9.8,2.8l1.4-3.5c-5.5-0.8-13.1-3.3-17-5.5L820.3,468.2
			 M816.2,473.6c-0.1,0.9-0.1,1.3-0.4,2.7c-0.7,4.2-1.6,10-2.1,13.8c-0.2,1.6-0.2,2-0.4,2.9l3.9,0.1c0.8-1.1,1.2-1.4,2-2
			c3.8-2.8,8.9-4.4,14-4.4c6.1,0,9.7,2.4,9.7,6.5c0,5.1-5.2,8.4-13.5,8.4c-4.2,0-9-0.9-12.8-2.5c0.3,1.3,0.3,2,0.3,3.1
			c0,0.2,0,0.5,0,1c3,0.8,3,0.8,4,1c2.8,0.6,5.8,0.9,8.8,0.9c5.3,0,9.2-1.1,12.4-3.3c2.8-2,4.5-5.2,4.5-8.6c0-5.8-5.2-9.7-13.4-9.7
			c-5.5,0-11,1.7-14.4,4.3c-0.5,0.4-0.9,0.8-1.5,1.5l-0.1-0.1c0.1-0.4,0.1-0.6,0.2-1.2c0.2-1.2,0.2-1.5,1.5-8.8
			c0.5-2.8,0.7-3.9,1.2-5.5L816.2,473.6"/>
		<path class="st1" d="M1013.5,415.1c0.1,0.9,0.1,1.1,0.2,3c0.2,12.3,1,18.7,2.7,23.4c1.7,4.8,4.3,7.6,7.1,7.6
			c3.5,0,5.8-3.3,8.3-12.1c-1.4-1.1-1.8-1.6-2.9-2.8c-0.7,3.4-1.4,6-2.6,8.5c-0.8,1.7-1.6,2.5-2.5,2.5c-1.9,0-4-3.4-5.1-8.5
			c-0.8-3.2-1.3-10.1-1.3-15.6c0-2.8,0.1-4.4,0.3-5.9L1013.5,415.1 M1038.8,419.3c5.8,6.8,9.5,15.3,10.4,24.7l3.5-1.4
			c-0.9-5.6-1.8-9.2-3.8-13.4c-1.8-4.2-3.9-7.5-7.1-11.4L1038.8,419.3"/>
		<path class="st1" d="M1012.8,498.2c0.4-0.6,0.5-0.7,1.3-1.6c0.8-1,1.6-1.8,2.1-2.3c1.7-1.9,1.7-1.9,2.5-2.8
			c0.5-0.7,0.7-0.8,0.9-1.2h0.1c-0.2,2.2-0.2,2.2-0.2,8.1c-0.1,6.4-0.1,6.4-0.3,8.2h3.9c-0.1-1.5-0.1-1.9-0.1-8.3v-10.8
			c5.2-5,6.6-6.3,9.6-8.5c3.2-2.3,5.6-3.4,7.6-3.4c1.7,0,2.8,1.1,2.8,2.7c0,1.3-0.2,2.9-1.2,7.5c-1.8,8.5-1.9,9.1-1.9,11.7
			c0,2.8,0.7,4.5,2.3,5.7c0.9,0.7,2.2,1.1,3.5,1.1c2.7,0,4.9-1.2,6.9-3.6c1.2-1.4,1.7-2.3,3.1-4.9c-0.9-1.1-1.2-1.6-2.3-3.4
			c-0.6,2-1.6,4-2.8,5.8c-1.2,1.7-2.9,2.8-4.2,2.8c-2,0-3-1.2-3-3.5c0-2.1,0.3-3.8,2.1-11.9c0.9-3.8,1.2-5.6,1.2-7.3
			c0-3.6-2.2-5.8-5.8-5.8c-3,0-6.8,1.8-11.3,5.5c-3.9,3.1-5.6,4.8-6.3,5.8l-0.1-0.1c0-0.3,0.1-0.4,0.1-0.8c0-0.2,0-0.5,0-0.5
			c0.1-2.3,0.1-2.3,0.1-3.3c0.1-0.3,0.1-0.7,0.1-1.2c1.3-1.8,1.9-2.6,2.5-3.1l-1.3-1.6c-0.4,0.2-0.5,0.2-1,0.2
			c0.2-6.1,0.3-7.7,0.6-8.9l-3.9,0c0.1,1,0.2,1.4,0.2,2.5c0,0.7-0.1,2.9-0.2,6.7c-4.2,0.2-6.4,0.4-6.5,0.4c-0.5,0-0.8,0-1.6-0.1
			l0.2,3.4c1.2-0.2,1.2-0.2,7.9-0.7c-0.2,4.4-0.2,7.5-0.3,9.5c-3.8,4.1-7.4,7.6-8.8,8.5L1012.8,498.2"/>
		<path class="st1" d="M1174.3,433.8c0.6,0,0.8,0,1.5,0.3c2.2,0.6,4.6,1,7.6,1.2c-0.1,0.5-0.1,0.5-0.1,1.2c-0.2,1.2-0.2,2.2-0.2,3.3
			c0,2.8,0.6,5.2,1.6,6.9c1.9,3.2,5.9,5,11.2,5c8.8,0,14.7-4.8,14.7-11.8c0-3.6-1.2-6.1-4.7-9.9c-1.5,0.7-2,0.8-3.7,1
			c3.2,2.8,4.8,5.6,4.8,8.7c0,5.3-4.3,8.8-11.1,8.8c-3,0-5.4-0.8-7-2.1c-1.6-1.4-2.3-3.2-2.3-6c0-0.9,0.1-2.5,0.2-3.7
			c0-0.7,0-0.7,0-1c2.2,0.1,3.1,0.1,4.3,0.1c2.3,0,4.5-0.1,7-0.4c0.7-0.1,0.9-0.1,1.4-0.1l0.1-3.3c-2,0.5-5.6,0.8-9.2,0.8
			c-0.7,0-1.4,0-3.3-0.1c0.3-2.8,0.3-3.3,1.2-9c2.8,0.1,3.6,0.1,4.4,0.1c1.5,0,3-0.1,4.5-0.2c2.5-0.2,2.5-0.2,3.5-0.3l0.2-3.5
			c-2.2,0.6-5.4,0.9-9.2,0.9c-0.8,0-1.5,0-2.9-0.1c0.2-1.4,0.3-1.9,0.5-3c0.4-2.8,0.4-2.8,0.5-3.2c0.3-1.8,0.5-2.4,0.8-3.4l-4-0.4
			c0,0.2,0,0.3,0,0.4c0,1.3-0.4,4.6-1.2,9.4c-3.5-0.3-6.8-1.1-9-2l-0.5,3.3c0.7,0.2,0.9,0.2,1.6,0.3c2.9,0.7,5.1,1.1,7.4,1.3
			c-0.4,2.7-0.9,6.6-1.1,9c-3.8-0.4-7-1.1-9-2L1174.3,433.8"/>
		<path class="st1" d="M1173.1,475.4c2.4-0.6,6.9-1,17.2-1.7c5.6-0.3,8.1-0.6,11-1.1c-1.9,0.9-3.2,1.6-4.8,2.7
			c-5.9,4-9.3,9.5-9.3,15.3c0,4.1,2,7.8,5.5,10.2c2.9,2,5.9,3,10.8,3.8c0.8,0.2,1,0.2,1.6,0.3l0.6-4.1c-0.2,0-0.4,0-0.5,0
			c-1.9,0-5-0.7-7.5-1.6c-4.4-1.7-7-5-7-9.2c0-4.2,2.2-8.2,6.2-11.5c2.8-2.4,6.2-4.2,9.6-5.1c1.9-0.4,3.6-0.7,5.6-0.7l-0.3-3.8
			c-0.8,0.2-3.2,0.5-5.9,0.6c-6.5,0.3-22.5,1.2-28.4,1.7c-1.6,0.1-2.2,0.1-2.8,0.1c-0.4,0-0.9,0-1.8,0L1173.1,475.4"/>
		<path class="st1" d="M1376.1,426.5c1.3-0.3,1.8-0.4,2.9-0.7c0.4-0.1,2.8-0.5,7.1-1.2c-1.6,6.5-3.1,10.9-5.5,15.9
			c-1.8,3.8-3.6,7.1-5.2,9l3.4,2c1.5-2.8,2.6-4.8,3.2-6c3.4-6.9,5.7-13.3,7.5-21.2c1.9-0.2,2.5-0.2,3.6-0.2c4.6,0,6.1,1.7,6.1,7
			c0,5.6-0.8,10.7-2.1,13.9c-0.7,1.6-1.6,2.4-2.8,2.4c-1.8,0-4.6-0.8-7.4-2.3c0.1,0.9,0.1,1.2,0.1,2c0,0.7,0,1-0.1,1.8
			c3.3,1.4,5.4,1.9,7.6,1.9c2.3,0,3.7-0.7,4.9-2.3c2-2.9,3.3-9.6,3.3-17.2c0-4.1-0.7-6.4-2.5-8.1c-1.5-1.5-3.6-2.1-7.2-2.1
			c-1.2,0-1.8,0-2.9,0.2c0.4-2.4,0.8-4.2,1-5.7c0.5-2.8,0.6-3.7,1-4.8l-4-0.5c0,0.3,0,0.6,0,0.7c0,2.1-0.7,6.9-1.5,10.6
			c-4.1,0.7-9.2,1.2-11.1,1.3L1376.1,426.5 M1405.6,419.9c4.8,4.9,8.3,11,10.2,17.9l3.2-1.8c-2.4-7.1-5.4-12.2-10.5-17.7
			L1405.6,419.9"/>
		<path class="st1" d="M1389.3,478.6c0.1,0,0.2,0,0.2,0c0.1,0,0.2,0,0.5,0c0.1,0,0.4,0,0.8,0.1c0.2,0,0.8,0,1.6,0.1
			c1.8,0.1,3.6,0.2,5.7,0.2c1.9,0,3.4-0.1,5.7-0.2c0.2,7.3,0.4,12,0.5,13.1c-1.1-0.6-3.5-1-5.5-1c-5.6,0-9.5,2.9-9.5,7.1
			c0,4.3,3.7,7.1,9.4,7.1c4.1,0,7.2-1.5,8.3-4.2c0.4-0.9,0.6-2.1,0.6-3.4c0-0.4,0-0.6-0.1-1.3c0.2,0.2,0.2,0.2,0.5,0.3
			c0.3,0.2,0.3,0.2,0.5,0.3c3.5,2,5.5,3.4,7.1,5.2l1.6-3.5c-0.6-0.3-0.7-0.4-1.2-0.8c-3.3-2.5-4.7-3.2-8.4-4.9
			c-0.4-6.7-0.5-9.2-0.5-14.2c2.6-0.3,4-0.5,5.3-0.8c3.4-0.7,3.4-0.7,3.5-0.7l-0.1-3.4c-1.9,0.8-4.8,1.4-8.7,1.9
			c-0.1-1.1-0.1-1.9-0.1-2.5c0-4.2,0.1-6.5,0.3-7.8h-3.8c0.1,0.5,0.2,1.2,0.2,2.1c0,3.8,0,3.8,0.1,8.5c-2.1,0.1-3.4,0.1-5.3,0.1
			c-4.4,0-6.6-0.2-9-0.8L1389.3,478.6 M1404.3,494.9c0,0,0.1,1.2,0.1,1.5c0,2-0.3,3.2-1,3.9c-0.9,1.1-2.9,1.8-5.1,1.8
			c-3.5,0-5.8-1.6-5.8-4c0-2.5,2.6-4.2,6.5-4.2C1401,493.9,1402.3,494.1,1404.3,494.9 M1380.4,465.2c0,0.7-0.1,1-0.5,3.2
			c-2,8.7-2.6,13.9-2.6,20.6c0,5,0.5,10.2,1.4,14.8c0.2,1.2,0.2,1.4,0.3,1.8l3.5-0.3c-0.1-0.7-0.1-0.8-0.1-1c0-2.9,2-9.3,4.3-14.2
			l-2.5-1.2c-0.1,0.3-0.2,0.5-0.4,1c-1.7,4.1-2.1,5-3,8.8l-0.2,0c0-0.5,0-0.5,0-1c-0.1-0.9-0.1-1-0.1-1.4c-0.1-2.3-0.2-5.2-0.2-7
			c0-8.2,1.7-18.5,3.8-23.5L1380.4,465.2"/>
		<path class="st1" d="M1550.5,417.4c-2.6,0-7,0.2-12.1,0.4c-8,0.3-8,0.3-9.5,0.3c-0.8,0-1.1,0-2,0l0.2,3.6
			c1.6-0.4,15.6-1.1,23.5-1.2v1.4c0,0.3,0,0.8,0,1.2c0,0.6,0.1,1,0.1,1.3c0,1.8,0,2,0,2.8c-1.3-1.4-3.4-2.2-5.8-2.2
			c-5.2,0-8.9,3.5-8.9,8.2c0,4.6,3.4,7.9,8.2,7.9c2.6,0,4.8-0.9,6.3-2.7c0.6-0.7,0.9-1.2,1.4-2.5c-0.2,7-4.6,11.6-13.7,14.3
			c1,1,1.4,1.6,2.2,3.2c3.6-1.4,5.8-2.6,7.9-4.1c4.3-3.2,6.7-7.8,6.7-13.1c0-2.2-0.3-3.8-1.2-5.9v-9.9c4-0.1,4.6-0.1,5.4-0.1
			c5.9,0,7.7,0,9.5,0.2V417c-1.2,0.2-1.8,0.2-3.3,0.2l-8.8,0.1c-0.8,0-0.9,0-2.8,0v-0.5c0-3.9,0-4.7,0.2-6.2h-3.8
			c0.2,1,0.2,1.5,0.2,2.9l0.1,3.5V417.4 M1544.9,427.7c1.2,0,2.5,0.3,3.3,0.8c1.5,0.9,2.1,1.9,2.1,3.6c0,3.5-2.4,5.9-5.9,5.9
			c-3,0-5.2-2.1-5.2-5C1539.3,429.9,1541.7,427.7,1544.9,427.7 M1558.1,409c1.5,1.6,3.2,3.9,5,6.9l2.4-1.5c-1-1.8-2.8-4.2-5-6.8
			L1558.1,409 M1565.3,408c1.9,2.2,3.4,4.3,5.2,7.4l2.5-1.4c-1.1-2.1-3.2-4.9-5.2-7.4L1565.3,408"/>
		<path class="st1" d="M1539.5,463.9c-0.1,2.3-0.9,6.5-1.7,9.4c-0.9,0-2.6,0-3.6,0c-2.8,0-4.2-0.1-5.9-0.4l-0.1,3.5
			c0.3,0,0.6,0,0.7,0c0.2,0,0.6,0,1.1,0c0.8,0,2.5,0.1,3.3,0.1c0.8,0,2.4-0.1,3.7-0.1c-1.4,4.8-2.9,8.3-5.2,12.9
			c-1.8,3.6-3.2,5.8-4.8,7.8l3.4,2c0.2-0.4,0.6-1,1-1.7c1.9-3.3,2.3-4.2,3.6-6.6c2.2-4.6,4-9.2,5.5-14.6c3.1-0.2,6.2-0.6,8.2-1.1
			c1.2-0.2,1.2-0.2,1.8-0.3l-0.2-3.5c-2.3,0.8-5.5,1.4-9,1.7c0.7-2.5,1-3.8,1.4-5.4c0.4-2.1,0.4-2.2,0.8-3.2L1539.5,463.9
			 M1568.9,477.7c-4-2.6-7.4-4.3-13.2-6.6l-1.8,2.8c5.2,1.9,9,3.9,13.2,6.8L1568.9,477.7 M1569,499.8c-0.3-0.2-0.3-0.2-0.9-0.8
			c-2.7-2.4-5.8-4.3-9.8-6.1c-0.3-1.9-0.6-5.3-0.6-7.6c0-1.8,0.2-2.8,0.7-4.7l-3.4-0.3c-0.4,1.8-0.5,3-0.5,4.8
			c0,1.2,0.1,3.6,0.4,6.8c-2-0.5-3.2-0.8-5.1-0.8c-2.2,0-4.2,0.3-5.9,1.1c-2.8,1.2-4.7,3.7-4.7,6.4c0,4.4,3.8,7.2,9.8,7.2
			c6.1,0,9.5-2.9,9.5-8c0-0.5,0-0.8-0.1-1.6c3.7,1.9,6.8,4.4,8.8,6.8L1569,499.8 M1555.1,495.3c0,0,0.1,1.5,0.1,2.1
			c0,3.8-2,5.5-6.2,5.5c-4,0-6.3-1.6-6.3-4.1c0-2.8,2.7-4.5,6.9-4.5C1551.6,494.3,1553,494.5,1555.1,495.3"/>
		<path class="st1" d="M1707.4,419.9c0.3,0,0.6,0,0.8,0c0.1,0,0.5,0,0.9,0c4,0.2,6.2,0.2,6.8,0.2h2c-0.2,3.7-0.2,3.9-0.3,7.6
			c-7.2,3.2-11.6,8.8-11.6,14.9c0,4.4,2.7,7.6,6.5,7.6c3.5,0,7.3-2.1,11.1-6.1c3.9-3.9,6.6-8.2,9.5-15c5.4,1.4,8.2,4.4,8.2,8.7
			c0,4.4-3.1,8.1-8.6,10c-2.4,0.8-4.5,1.2-7.5,1.3c0.9,1.3,1.2,1.9,1.6,3.3c4.5-0.5,7.4-1.3,10.2-2.8c5.2-2.7,7.8-6.7,7.8-11.6
			c0-5.8-3.8-10.1-10.8-11.7c0.8-2.3,1.4-3.7,1.6-4l-3.5-1.1c-0.2,1.5-0.6,3-1.2,4.5c-1.2-0.1-1.8-0.1-2.9-0.1c-2.7,0-4.8,0.3-7.4,1
			c0.1-2.5,0.1-2.5,0.3-6.7c4.7-0.2,12.2-1,17.7-2c0.9-0.2,1.1-0.2,1.8-0.2l-0.2-3.5c-3.8,1.3-10.9,2.4-19,2.8c0.3-3.9,0.6-5.6,1-7
			l-3.9-0.2c0,0.3,0,0.7,0,0.8c0,0.3-0.1,2.3-0.2,2.8c-0.2,2.6-0.2,2.6-0.2,3.8c-0.9,0.1-1.1,0.1-1.2,0.1c-4.6,0-7.2-0.2-9.3-0.8
			L1707.4,419.9 M1717.5,430.9c0,6,0.3,9.7,1,13.5c-2.2,1.8-3.9,2.6-5.8,2.6c-2.1,0-3.6-1.8-3.6-4.6c0-2.5,1.1-5.1,3.1-7.4
			C1713.6,433.4,1715.1,432.2,1717.5,430.9 M1721.2,442.3c0-0.2,0-0.5,0-0.5c0-0.3,0-0.4-0.1-0.7c-0.4-4.2-0.5-5-0.5-11.4
			c2.3-0.8,4.6-1.2,6.9-1.2c0.6,0,0.8,0,2.4,0.1c-2.3,5.2-4.4,8.8-7.7,12.5c-0.4,0.4-0.4,0.5-0.9,1.3L1721.2,442.3"/>
		<path class="st1" d="M1705,498.2c0.3-0.6,0.5-0.7,1.3-1.6c0.9-1,1.6-1.8,2.1-2.3c1.7-1.9,1.7-1.9,2.4-2.8c0.6-0.7,0.7-0.8,0.9-1.2
			h0.1c-0.2,2.2-0.2,2.2-0.2,8.1c0,6.4,0,6.4-0.3,8.2h3.9c-0.2-1.5-0.2-1.9-0.2-8.3v-10.8c5.2-5,6.7-6.3,9.7-8.5
			c3.2-2.3,5.6-3.4,7.5-3.4c1.7,0,2.8,1.1,2.8,2.7c0,1.3-0.2,2.9-1.2,7.5c-1.8,8.5-1.9,9.1-1.9,11.7c0,2.8,0.7,4.5,2.3,5.7
			c0.9,0.7,2.2,1.1,3.5,1.1c2.7,0,4.9-1.2,6.9-3.6c1.1-1.4,1.7-2.3,3.1-4.9c-1-1.1-1.2-1.6-2.3-3.4c-0.6,2-1.6,4-2.8,5.8
			c-1.2,1.7-2.9,2.8-4.2,2.8c-1.9,0-3-1.2-3-3.5c0-2.1,0.3-3.8,2.2-11.9c0.8-3.8,1.2-5.6,1.2-7.3c0-3.6-2.2-5.8-5.9-5.8
			c-3,0-6.8,1.8-11.3,5.5c-3.9,3.1-5.6,4.8-6.3,5.8l-0.1-0.1c0-0.3,0.1-0.4,0.1-0.8c0.1-0.2,0.1-0.5,0.1-0.5c0-2.3,0-2.3,0.1-3.3
			c0-0.3,0-0.7,0-1.2c1.3-1.8,1.9-2.6,2.6-3.1l-1.3-1.6c-0.4,0.2-0.5,0.2-1,0.2c0.2-6.1,0.4-7.7,0.6-8.9l-4,0c0.1,1,0.2,1.4,0.2,2.5
			c0,0.7-0.1,2.9-0.2,6.7c-4.2,0.2-6.4,0.4-6.6,0.4c-0.4,0-0.8,0-1.6-0.1l0.2,3.4c1.2-0.2,1.2-0.2,7.8-0.7c-0.2,4.4-0.2,7.5-0.3,9.5
			c-3.8,4.1-7.4,7.6-8.8,8.5L1705,498.2"/>
		<path class="st1" d="M1858.7,417c1.1-0.2,1.6-0.2,2.7-0.2c7.6-0.2,13.6-0.6,15.2-0.9c0.3-0.1,0.3-0.1,0.4-0.1l0.1,0.1l-0.2,0.2
			c-0.1,0.1-0.2,0.2-0.2,0.2c-0.4,0.4-0.4,0.4-0.7,0.7c-3.4,3.4-11.4,10.3-16.7,14.6c-3.4,2.8-5.2,4-7,5.1l2.2,3.2
			c5.8-5.3,13.7-8.5,21.1-8.5c6.8,0,10.8,2.8,10.8,7.7c0,4.2-2.8,7.3-8,8.8c-0.7-2.2-1.2-3.4-2.3-4.8c-2-2.7-4.9-4.1-8.2-4.1
			c-4.2,0-7.2,2.5-7.2,5.8c0,4.6,4.1,7.2,11.1,7.2c11.1,0,18.4-5.1,18.4-12.9c0-6.4-5.4-10.5-13.7-10.5c-4.4,0-8.4,1.1-12.2,3.1
			l-0.1-0.2c3.5-2.2,9.6-7.4,16.4-14.2c1.6-1.6,1.9-1.8,2.6-2.1l-2.1-2.8c-0.7,0.3-1.1,0.4-2.4,0.5c-4.5,0.4-11.1,0.7-15.3,0.7
			c-2.4,0-3.3,0-4.7-0.3L1858.7,417 M1875.1,448.7c-1.8,0.3-2.4,0.4-3.7,0.4c-2.1,0-4.3-0.5-5.6-1.2c-1.4-0.8-2-1.8-2-3.1
			c0-1.9,1.6-3.1,4.1-3.1C1871.5,441.7,1874,444.1,1875.1,448.7"/>
		<path class="st1" d="M1851.8,475.4c2.5-0.6,6.9-1,17.2-1.7c5.6-0.3,8.1-0.6,11-1.1c-1.9,0.9-3.2,1.6-4.8,2.7
			c-5.9,4-9.4,9.5-9.4,15.3c0,4.1,2,7.8,5.6,10.2c2.9,2,5.9,3,10.8,3.8c0.8,0.2,1,0.2,1.6,0.3l0.6-4.1c-0.2,0-0.4,0-0.5,0
			c-1.9,0-5.1-0.7-7.5-1.6c-4.4-1.7-7-5-7-9.2c0-4.2,2.2-8.2,6.2-11.5c2.8-2.4,6.2-4.2,9.6-5.1c1.9-0.4,3.6-0.7,5.6-0.7l-0.3-3.8
			c-0.8,0.2-3.1,0.5-5.9,0.6c-6.4,0.3-22.4,1.2-28.4,1.7c-1.5,0.1-2.1,0.1-2.8,0.1c-0.3,0-0.8,0-1.8,0L1851.8,475.4"/>
		<path class="st1" d="M2053.3,410c-0.1,2.3-0.9,6.6-1.7,9.4c-0.9,0-2.6,0-3.6,0c-2.8,0-4.2-0.1-5.9-0.4l-0.1,3.4c0.3,0,0.6,0,0.7,0
			c0.1,0,0.6,0,1.1,0.1c0.8,0,2.5,0,3.3,0c0.8,0,2.4,0,3.7-0.1c-1.4,4.8-2.9,8.3-5.2,12.9c-1.8,3.6-3.2,5.8-4.8,7.8l3.4,2
			c0.2-0.4,0.6-1,1-1.7c1.9-3.3,2.3-4.2,3.6-6.6c2.2-4.6,4-9.2,5.5-14.6c3.1-0.2,6.2-0.6,8.2-1c1.2-0.2,1.2-0.2,1.8-0.3l-0.2-3.4
			c-2.3,0.8-5.4,1.3-8.9,1.6c0.7-2.5,1-3.8,1.4-5.4c0.4-2.1,0.4-2.2,0.8-3.2L2053.3,410 M2082.7,423.8c-4-2.6-7.4-4.3-13.2-6.6
			l-1.8,2.8c5.2,1.9,9,3.9,13.2,6.8L2082.7,423.8 M2082.8,445.9c-0.4-0.2-0.4-0.2-0.9-0.8c-2.7-2.4-5.8-4.3-9.8-6.1
			c-0.3-1.9-0.6-5.3-0.6-7.6c0-1.8,0.1-2.8,0.6-4.7l-3.4-0.3c-0.4,1.8-0.5,3.1-0.5,4.8c0,1.2,0.1,3.6,0.4,6.8
			c-2-0.5-3.2-0.8-5.1-0.8c-2.2,0-4.2,0.4-5.9,1.1c-2.8,1.1-4.6,3.6-4.6,6.3c0,4.4,3.8,7.2,9.8,7.2c6.1,0,9.5-2.8,9.5-8
			c0-0.5,0-0.8-0.1-1.6c3.7,1.9,6.8,4.4,8.8,6.8L2082.8,445.9 M2068.9,441.4c0,0,0.1,1.5,0.1,2.2c0,3.8-1.9,5.4-6.2,5.4
			c-3.9,0-6.3-1.6-6.3-4.1c0-2.8,2.7-4.5,6.9-4.5C2065.4,440.4,2066.8,440.6,2068.9,441.4"/>
		<path class="st1" d="M2059.6,464.1c0.2,1.2,0.2,1.6,0.2,4c0.1,7.2,0.4,16.8,0.8,22.6c0,0.2,0,0.2,0,0.3c0.1,0.2,0.1,0.2,0.1,0.4
			c-0.2-0.1-0.2-0.1-0.2-0.1c-0.2,0-0.2-0.1-0.5-0.1c-1-0.2-2.8-0.5-4.3-0.5c-7.1,0-11.8,3.1-11.8,7.9c0,4.6,3.9,7.4,10.4,7.4
			c4.2,0,7.4-1.2,8.9-3.5c0.8-1.1,1.2-2.9,1.2-5c0-0.7-0.1-1.6-0.2-2.2c0.5,0.2,0.5,0.2,1.2,0.6c1.7,0.8,4.4,2.3,6.8,3.8
			c2.7,1.8,4.1,3,5.2,4.3l2.3-3.5c-1.2-0.8-1.2-0.8-2.3-1.6c-5.2-3.8-9.3-5.9-13.4-7.1c-0.2-3.2-0.5-8-0.6-12.9
			c4.1-0.1,7.5-0.4,12-1.1c2.2-0.3,2.2-0.3,3-0.3l-0.4-3.7c-2.8,1.1-9.1,1.9-14.6,1.9c-0.1-3.5-0.1-4.1-0.1-5.2
			c0-3.9,0.1-5.3,0.3-6.6H2059.6 M2060.7,494.7c0.1,0,0.2,2,0.2,2.8c0,1.9-0.4,3-1.2,3.8c-1.2,1.1-3.2,1.7-5.6,1.7
			c-2.7,0-4.9-0.8-6-2c-0.4-0.5-0.8-1.3-0.8-2.2c0-2.9,3.1-4.7,8.2-4.7C2057.5,494,2058.7,494.1,2060.7,494.7"/>
		<path class="st1" d="M2167.4,426.5c1.3-0.3,1.8-0.4,2.9-0.7c0.4-0.1,2.9-0.5,7.2-1.2c-1.7,6.5-3.2,10.9-5.5,15.9
			c-1.8,3.8-3.7,7.1-5.2,9l3.4,2c1.6-2.8,2.6-4.8,3.2-6c3.4-6.9,5.7-13.3,7.6-21.2c1.8-0.2,2.5-0.2,3.6-0.2c4.7,0,6.2,1.7,6.2,7
			c0,5.6-0.8,10.7-2.1,13.9c-0.6,1.6-1.6,2.4-2.9,2.4c-1.8,0-4.6-0.8-7.4-2.3c0.2,0.9,0.2,1.2,0.2,2c0,0.7,0,1-0.1,1.8
			c3.3,1.4,5.4,1.9,7.6,1.9c2.3,0,3.7-0.7,4.9-2.3c2.1-2.9,3.4-9.6,3.4-17.2c0-4.1-0.7-6.4-2.4-8.1c-1.6-1.5-3.7-2.1-7.2-2.1
			c-1.1,0-1.8,0-2.9,0.2c0.4-2.4,0.8-4.2,1.1-5.7c0.4-2.8,0.6-3.7,0.9-4.8l-4-0.5c0,0.3,0,0.6,0,0.7c0,2.1-0.6,6.9-1.5,10.6
			c-4.1,0.7-9.2,1.2-11.1,1.3L2167.4,426.5 M2196.9,419.9c4.8,4.9,8.3,11,10.2,17.9l3.2-1.8c-2.3-7.1-5.3-12.2-10.4-17.7
			L2196.9,419.9"/>
		<path class="st1" d="M2173.4,487.8c1.5-0.7,2.3-1,5.3-1.7c6-1.4,9.8-2,13.2-2c6.1,0,9.2,2.4,9.2,7c0,4.4-3.4,8.2-9.2,10.1
			c-2.8,0.9-6.8,1.6-9.8,1.6c-0.2,0-0.4,0-0.7-0.1c0.8,1.6,1,2.1,1.3,3.4c6.1-0.8,7.2-0.9,10.3-1.9c6.9-2.2,11.4-7.3,11.4-12.9
			c0-2.1-0.5-4.1-1.5-5.7c-1.9-3.1-5.5-4.6-10.6-4.6c-4.3,0-8.7,0.6-15.2,2.2c-3.1,0.8-3.4,0.8-4.6,0.9L2173.4,487.8"/>
		<path class="st1" d="M2299.4,411.5c-0.1,1.1-0.2,1.6-0.7,4c-1.7,7.4-2.2,12.7-2.2,19.8c0,5.2,0.3,8.8,1.3,14.2
			c0.2,0.9,0.2,1.2,0.3,2l3.6-0.3c0-0.3,0-0.6,0-0.8c0-2.8,1.8-8.8,4.1-13.8l-2.4-1.1c-1.6,3.6-2.6,6.4-3.2,9.8
			c-0.2-2.7-0.3-5.6-0.3-9.5c0-6,0.5-10.4,1.5-15.7c0.8-3.4,1.4-5.8,2.1-8L2299.4,411.5 M2309.7,421c3.2,0.3,5.2,0.5,8,0.5
			c3.8,0,7.8-0.2,10.8-0.7c2.2-0.3,3.3-0.4,3.4-0.4l-0.2-3.6c-3.4,0.9-7.9,1.3-13.4,1.3c-3.9,0-6.3-0.2-8.5-0.8L2309.7,421
			 M2313.3,430.7c-3.1,3.6-4.4,6.2-4.4,9.3c0,1.8,0.5,3.3,1.5,4.6c2.2,2.6,5.8,3.8,11.5,3.8c3.4,0,6.8-0.3,10.2-1
			c1-0.1,1.1-0.2,1.8-0.2l-0.5-3.8c-2.7,1.1-7,1.8-11.5,1.8c-6.5,0-9.6-1.8-9.6-5.5c0-2.2,1.2-4.6,3.8-7.3L2313.3,430.7"/>
		<path class="st1" d="M2295.8,475.4c2.4-0.6,6.9-1,17.2-1.7c5.6-0.3,8.1-0.6,11-1.1c-1.9,0.9-3.2,1.6-4.8,2.7
			c-5.9,4-9.4,9.5-9.4,15.3c0,4.1,2,7.8,5.6,10.2c2.9,2,5.9,3,10.8,3.8c0.8,0.2,1,0.2,1.6,0.3l0.6-4.1c-0.2,0-0.4,0-0.5,0
			c-1.9,0-5.1-0.7-7.5-1.6c-4.4-1.7-7-5-7-9.2c0-4.2,2.2-8.2,6.2-11.5c2.8-2.4,6.2-4.2,9.6-5.1c1.9-0.4,3.6-0.7,5.6-0.7l-0.3-3.8
			c-0.8,0.2-3.1,0.5-5.9,0.6c-6.4,0.3-22.4,1.2-28.4,1.7c-1.5,0.1-2.1,0.1-2.8,0.1c-0.4,0-0.9,0-1.8,0L2295.8,475.4"/>
		<line class="st5" x1="1629.5" y1="438" x2="1649.3" y2="438"/>
		<line class="st5" x1="1626.1" y1="491.9" x2="1645.9" y2="491.9"/>
		<line class="st6" x1="92.7" y1="230.6" x2="92.7" y2="897.8"/>
		<path class="st1" d="M135.3,208.6c-0.2-0.1-0.5-0.2-0.7-0.2c-0.4,0-0.9,0.1-1.1,0.5c-0.2,0.3-10.1,15.6-29.1,15.6H88.7
			c-0.8,0-1.4,0.5-1.4,1.3v8.9v1.4h12.1c30.6,0,36.4-25.5,36.5-25.8c0-0.1,0.1-0.3,0.1-0.5C136,209.3,135.7,208.9,135.3,208.6"/>
		<path class="st1" d="M135.3,919.8c0.4-0.3,0.7-0.7,0.7-1.2c0-0.2-0.1-0.4-0.1-0.5c-0.1-0.3-6-25.8-36.5-25.8H87.3v1.4v8.9
			c0,0.8,0.6,1.3,1.4,1.3h15.8c18.9,0,28.9,15.3,29.1,15.6c0.2,0.4,0.7,0.5,1.1,0.5C134.8,920,135.1,919.9,135.3,919.8"/>
	</g>
</g>
</svg>
