<?xml version="1.0" encoding="utf-8"?>
<!-- Generator: Adobe Illustrator 26.5.0, SVG Export Plug-In . SVG Version: 6.00 Build 0)  -->
<svg version="1.1" xmlns="http://www.w3.org/2000/svg" xmlns:xlink="http://www.w3.org/1999/xlink" x="0px" y="0px"
	 viewBox="0 0 2560 830" style="enable-background:new 0 0 2560 830;" xml:space="preserve">
<style type="text/css">
	.st0{fill:none;stroke:#FFFFFF;stroke-width:2.73;stroke-linejoin:bevel;}
	.st1{fill:#FFFFFF;}
	.st2{fill:none;stroke:#FFFFFF;stroke-width:4.46;stroke-linejoin:bevel;}
	.st3{fill:none;stroke:#FFFFFF;stroke-width:3.97;stroke-linejoin:bevel;}
	.st4{fill:none;stroke:#FFFFFF;stroke-width:3.72;stroke-linejoin:bevel;}
	.st5{fill:none;stroke:#FFFFFF;stroke-width:10.91;stroke-linejoin:bevel;}
	.st6{fill:none;stroke:#FFFFFF;stroke-width:13.64;stroke-linejoin:bevel;}
</style>
<g id="レイヤー_1">
	<g>
		<g>
			
				<image style="overflow:visible;" width="2624" height="776" xlink:href="A893BC1A21E4755E.png"  transform="matrix(1 0 0 1 -32.191 90.7392)">
			</image>
		</g>
		<g>
			<line class="st0" x1="91.1" y1="167.6" x2="2555.6" y2="167.6"/>
			<line class="st0" x1="91.1" y1="192.4" x2="2555.6" y2="192.4"/>
			<line class="st0" x1="91.1" y1="217.2" x2="2555.6" y2="217.2"/>
			<line class="st0" x1="91.1" y1="242" x2="2555.6" y2="242"/>
			<line class="st0" x1="91.1" y1="266.8" x2="2555.6" y2="266.8"/>
			<line class="st0" x1="91.1" y1="473.5" x2="2555.6" y2="473.5"/>
			<line class="st0" x1="91.1" y1="498.3" x2="2555.6" y2="498.3"/>
			<line class="st0" x1="91.1" y1="523.1" x2="2555.6" y2="523.1"/>
			<line class="st0" x1="91.1" y1="547.9" x2="2555.6" y2="547.9"/>
			<line class="st0" x1="91.1" y1="572.7" x2="2555.6" y2="572.7"/>
			<line class="st0" x1="91.1" y1="690.7" x2="2555.6" y2="690.7"/>
			<line class="st0" x1="91.1" y1="715.5" x2="2555.6" y2="715.5"/>
			<line class="st0" x1="91.1" y1="740.3" x2="2555.6" y2="740.3"/>
			<line class="st0" x1="91.1" y1="765.1" x2="2555.6" y2="765.1"/>
			<line class="st0" x1="91.1" y1="789.9" x2="2555.6" y2="789.9"/>
			<path class="st1" d="M39.2,721.9h-30l-0.8,13.9h2.2c0.3-2.5,0.8-4.4,1.3-6c1.3-3.7,3.7-5.5,7.1-5.5c1.6,0,2.4,0.5,2.4,1.8v25.8
				c0,2.6,0,2.7-0.3,3.1c-0.4,0.5-1.4,0.7-4.2,0.7h-1.3v2.4h17.1v-2.4h-1.3c-2.8,0-3.8-0.2-4.1-0.7c-0.3-0.4-0.3-0.6-0.3-3.1v-25.8
				c0-1.2,0.7-1.8,2.4-1.8c3.1,0,5.5,1.7,6.8,4.7c0.8,1.8,1.2,4,1.6,6.8H40L39.2,721.9 M44.1,752.5c-1.8,0-3.1,1.4-3.1,3.1
				c0,1.8,1.4,3.2,3.1,3.2c1.8,0,3.1-1.4,3.1-3.2C47.2,753.9,45.8,752.5,44.1,752.5"/>
			<path class="st1" d="M23.7,504.3h-2.1l-11.5,29.2c-1.4,3.9-2.6,5.1-5.5,5.3H4.4v2.3h13.2v-2.3h-1c-2.7,0-4.1-1-4.1-2.9
				c0-0.6,0.1-1.2,0.4-2.1l1.7-4.4H28l2.7,6.7c0.3,0.8,0.4,1.1,0.4,1.4c0,0.8-1.2,1.3-3.1,1.3h-2.1v2.3h15.5v-2.3h-0.7
				c-2.6-0.1-3.1-0.4-4.2-3.2L23.7,504.3 M21.3,512.5l5.7,14.2H15.7L21.3,512.5 M48.3,535.6c-1.8,0-3.2,1.4-3.2,3.1
				c0,1.8,1.4,3.1,3.1,3.1c1.8,0,3.2-1.4,3.2-3.1C51.4,537,50,535.6,48.3,535.6"/>
			<path class="st1" d="M36.7,198.8h-1.8l-2,3c-2.4-2.2-5.6-3.4-9.1-3.4c-6.6,0-10.9,4.2-10.9,10.4c0,5.5,2.7,8.2,10.1,10.1l4.8,1.2
				c3.7,1,4,1.1,5.1,1.9c1.5,1.1,2.3,2.8,2.3,4.8c0,2-0.8,3.6-2.2,5.1c-1.6,1.4-3.3,1.9-6.1,1.9c-3.7,0-6.3-1.1-8.7-3.8
				c-2.1-2.3-3.1-4.7-3.9-8.6h-2.2l0.2,14.2h2l2.2-3.4c3.3,2.8,6.1,3.8,10.5,3.8c7.3,0,12-4.3,12-11c0-3.2-1-5.8-3-7.7
				c-1.3-1.3-3.3-2.1-7.3-3.1l-5.4-1.4c-4.4-1.1-6.6-3.1-6.6-6.1c0-3.5,2.9-5.9,7.1-5.9c3.5,0,6.3,1.5,8.3,4.3
				c1.5,2.1,2.4,4.2,3,6.7h2.2L36.7,198.8 M47.7,229.7c-1.8,0-3.1,1.4-3.1,3.1c0,1.8,1.4,3.1,3.1,3.1c1.8,0,3.1-1.4,3.1-3.1
				C50.8,231.1,49.4,229.7,47.7,229.7"/>
			<line class="st2" x1="93.4" y1="689.3" x2="93.4" y2="791.3"/>
			<line class="st2" x1="902.2" y1="689.3" x2="902.2" y2="791.3"/>
			<line class="st2" x1="1548.5" y1="689.3" x2="1548.5" y2="791.3"/>
			<line class="st2" x1="2174.3" y1="689.3" x2="2174.3" y2="791.3"/>
			<line class="st2" x1="2553.4" y1="689.3" x2="2553.4" y2="791.3"/>
			<line class="st2" x1="93.4" y1="472.1" x2="93.4" y2="690.7"/>
			<line class="st2" x1="902.2" y1="472.1" x2="902.2" y2="574"/>
			<line class="st2" x1="1548.5" y1="472.1" x2="1548.5" y2="574"/>
			<line class="st2" x1="2174.3" y1="472.1" x2="2174.3" y2="574"/>
			<line class="st2" x1="2553.4" y1="472.1" x2="2553.4" y2="574"/>
			<line class="st2" x1="93.4" y1="166.2" x2="93.4" y2="473.5"/>
			<line class="st2" x1="902.2" y1="166.2" x2="902.2" y2="268.1"/>
			<line class="st2" x1="1548.5" y1="166.2" x2="1548.5" y2="268.1"/>
			<line class="st2" x1="2174.3" y1="166.2" x2="2174.3" y2="268.1"/>
			<line class="st2" x1="2553.4" y1="166.2" x2="2553.4" y2="268.1"/>
			<line class="st3" x1="473.6" y1="597.5" x2="523.2" y2="597.5"/>
			<line class="st3" x1="573.1" y1="597.5" x2="622.7" y2="597.5"/>
			<line class="st3" x1="732.2" y1="597.5" x2="781.8" y2="597.5"/>
			<line class="st3" x1="1763.3" y1="597.5" x2="1812.9" y2="597.5"/>
			<line class="st3" x1="1858.5" y1="597.5" x2="1908.1" y2="597.5"/>
			<line class="st0" x1="289.6" y1="694" x2="289.6" y2="777.5"/>
			<line class="st0" x1="483.6" y1="718.8" x2="483.6" y2="802.3"/>
			<line class="st0" x1="583.1" y1="718.8" x2="583.1" y2="799.2"/>
			<line class="st0" x1="742.2" y1="718.8" x2="742.2" y2="799.2"/>
			<line class="st0" x1="970.7" y1="749.5" x2="970.7" y2="672.1"/>
			<line class="st0" x1="1163" y1="749.5" x2="1163" y2="672.1"/>
			<line class="st0" x1="1261.6" y1="749.5" x2="1261.6" y2="672.1"/>
			<line class="st0" x1="1389.9" y1="681.6" x2="1389.9" y2="765.1"/>
			<line class="st0" x1="1587.4" y1="694" x2="1587.4" y2="777.5"/>
			<line class="st0" x1="1773.3" y1="718.8" x2="1773.3" y2="802.3"/>
			<line class="st0" x1="1868.6" y1="718.8" x2="1868.6" y2="799.2"/>
			<line class="st0" x1="2021" y1="694" x2="2021" y2="777.5"/>
			<line class="st0" x1="2216.4" y1="681.6" x2="2216.4" y2="765.1"/>
			<line class="st0" x1="2438.6" y1="681.6" x2="2438.6" y2="765.1"/>
			<line class="st0" x1="319.1" y1="557.1" x2="319.1" y2="473.5"/>
			<line class="st0" x1="513.2" y1="594.3" x2="513.2" y2="510.7"/>
			<line class="st0" x1="612.6" y1="594.3" x2="612.6" y2="510.7"/>
			<line class="st0" x1="771.7" y1="594.3" x2="771.7" y2="510.7"/>
			<line class="st0" x1="970.7" y1="569.5" x2="970.7" y2="485.9"/>
			<line class="st0" x1="1163" y1="581.9" x2="1163" y2="498.3"/>
			<line class="st0" x1="1261.6" y1="569.5" x2="1261.6" y2="485.9"/>
			<line class="st0" x1="1419.4" y1="569.5" x2="1419.4" y2="485.9"/>
			<line class="st0" x1="1616.9" y1="557.1" x2="1616.9" y2="473.5"/>
			<line class="st0" x1="1802.8" y1="594.3" x2="1802.8" y2="510.7"/>
			<line class="st0" x1="1898.1" y1="594.3" x2="1898.1" y2="510.7"/>
			<line class="st0" x1="2050.5" y1="557.1" x2="2050.5" y2="473.5"/>
			<line class="st0" x1="2245.9" y1="557.1" x2="2245.9" y2="473.5"/>
			<line class="st0" x1="2468.1" y1="557.1" x2="2468.1" y2="473.5"/>
			<line class="st0" x1="289.6" y1="208.1" x2="289.6" y2="285.4"/>
			<line class="st0" x1="513.2" y1="226.4" x2="513.2" y2="149"/>
			<line class="st0" x1="612.6" y1="226.4" x2="612.6" y2="149"/>
			<line class="st0" x1="771.7" y1="251.2" x2="771.7" y2="167.6"/>
			<line class="st0" x1="970.7" y1="238.8" x2="970.7" y2="158.3"/>
			<line class="st0" x1="1163" y1="251.2" x2="1163" y2="167.6"/>
			<line class="st0" x1="1261.6" y1="238.8" x2="1261.6" y2="158.3"/>
			<line class="st0" x1="1389.9" y1="195.7" x2="1389.9" y2="276.1"/>
			<line class="st0" x1="1587.4" y1="208.1" x2="1587.4" y2="285.4"/>
			<line class="st0" x1="1802.8" y1="226.4" x2="1802.8" y2="149"/>
			<line class="st0" x1="1898.1" y1="226.4" x2="1898.1" y2="149"/>
			<line class="st0" x1="2021" y1="208.1" x2="2021" y2="285.4"/>
			<line class="st0" x1="2216.4" y1="195.7" x2="2216.4" y2="276.1"/>
			<line class="st0" x1="2438.6" y1="195.7" x2="2438.6" y2="276.1"/>
			<path class="st1" d="M319.5,682.7c-1.8-3.3-5.6-5.1-10.1-5.1c-3.4,0-7,1-10.6,2.9c-6.5,3.5-10.5,9.3-10.5,14.4
				c0,1.4,0.3,2.8,1,4.1c1.8,3.3,5.6,5,10.1,5c3.4,0,7-0.9,10.6-2.8c6.5-3.5,10.5-9.3,10.5-14.4C320.5,685.4,320.2,684,319.5,682.7"
				/>
			<path class="st1" d="M513.5,707.5c-1.8-3.3-5.6-5.1-10.1-5.1c-3.4,0-7,1-10.6,2.9c-6.5,3.5-10.5,9.3-10.5,14.4
				c0,1.4,0.3,2.8,1,4.1c1.8,3.3,5.6,5,10.1,5c3.4,0,7-0.9,10.6-2.8c6.5-3.5,10.5-9.3,10.5-14.4
				C514.5,710.2,514.2,708.8,513.5,707.5"/>
			<path class="st1" d="M613,707.5c-1.8-3.3-5.6-5.1-10.1-5.1c-3.4,0-7,1-10.6,2.9c-6.5,3.5-10.5,9.3-10.5,14.4c0,1.4,0.3,2.8,1,4.1
				c1.8,3.3,5.6,5,10.1,5c3.4,0,7-0.9,10.6-2.8c6.5-3.5,10.5-9.3,10.5-14.4C614,710.2,613.7,708.8,613,707.5"/>
			<path class="st1" d="M772.1,707.5c-1.8-3.3-5.6-5.1-10.1-5.1c-3.4,0-7,1-10.6,2.9c-6.5,3.5-10.5,9.3-10.5,14.4
				c0,1.4,0.3,2.8,1,4.1c1.8,3.3,5.6,5,10.1,5c3.4,0,7-0.9,10.6-2.8c6.5-3.5,10.5-9.3,10.5-14.4
				C773.1,710.2,772.8,708.8,772.1,707.5"/>
			<path class="st1" d="M971.1,744.7c-1.8-3.3-5.6-5.1-10.1-5.1c-3.4,0-7,1-10.6,2.9c-6.5,3.5-10.5,9.3-10.5,14.4
				c0,1.4,0.3,2.8,1,4.1c1.8,3.3,5.6,5,10.1,5c3.4,0,7-0.9,10.6-2.8c6.5-3.5,10.5-9.3,10.5-14.4C972,747.4,971.8,746,971.1,744.7"/>
			<path class="st1" d="M1163.4,744.7c-1.8-3.3-5.6-5.1-10.1-5.1c-3.4,0-7,1-10.6,2.9c-6.5,3.5-10.5,9.3-10.5,14.4
				c0,1.4,0.3,2.8,1,4.1c1.8,3.3,5.6,5,10.1,5c3.4,0,7-0.9,10.6-2.8c6.5-3.5,10.5-9.3,10.5-14.4
				C1164.4,747.4,1164.1,746,1163.4,744.7"/>
			<path class="st1" d="M1262,744.7c-1.8-3.3-5.6-5.1-10.1-5.1c-3.4,0-7,1-10.6,2.9c-6.5,3.5-10.5,9.3-10.5,14.4
				c0,1.4,0.3,2.8,1,4.1c1.8,3.3,5.6,5,10.1,5c3.4,0,7-0.9,10.6-2.8c6.5-3.5,10.5-9.3,10.5-14.4C1263,747.4,1262.7,746,1262,744.7"
				/>
			<path class="st1" d="M1419.8,670.3c-1.8-3.3-5.6-5.1-10.1-5.1c-3.4,0-7,1-10.6,2.9c-6.5,3.5-10.5,9.3-10.5,14.4
				c0,1.4,0.3,2.8,1,4.1c1.8,3.3,5.6,5,10.1,5c3.4,0,7-0.9,10.6-2.8c6.5-3.5,10.5-9.3,10.5-14.4
				C1420.7,673,1420.5,671.6,1419.8,670.3"/>
			<path class="st1" d="M1617.3,682.7c-1.8-3.3-5.6-5.1-10.1-5.1c-3.4,0-7,1-10.6,2.9c-6.5,3.5-10.5,9.3-10.5,14.4
				c0,1.4,0.3,2.8,1,4.1c1.8,3.3,5.6,5,10.1,5c3.4,0,7-0.9,10.6-2.8c6.5-3.5,10.5-9.3,10.5-14.4C1618.3,685.4,1618,684,1617.3,682.7
				"/>
			<path class="st1" d="M1803.2,707.5c-1.8-3.3-5.6-5.1-10.1-5.1c-3.4,0-7,1-10.6,2.9c-6.5,3.5-10.5,9.3-10.5,14.4
				c0,1.4,0.3,2.8,1,4.1c1.8,3.3,5.6,5,10.1,5c3.4,0,7-0.9,10.6-2.8c6.5-3.5,10.5-9.3,10.5-14.4
				C1804.2,710.2,1803.9,708.8,1803.2,707.5"/>
			<path class="st1" d="M1898.5,707.5c-1.8-3.3-5.6-5.1-10.1-5.1c-3.4,0-7,1-10.6,2.9c-6.5,3.5-10.5,9.3-10.5,14.4
				c0,1.4,0.3,2.8,1,4.1c1.8,3.3,5.6,5,10.1,5c3.4,0,7-0.9,10.6-2.8c6.5-3.5,10.5-9.3,10.5-14.4
				C1899.5,710.2,1899.2,708.8,1898.5,707.5"/>
			<path class="st1" d="M2050.9,682.7c-1.8-3.3-5.6-5.1-10.1-5.1c-3.4,0-7,1-10.6,2.9c-6.5,3.5-10.5,9.3-10.5,14.4
				c0,1.4,0.3,2.8,1,4.1c1.8,3.3,5.6,5,10.1,5c3.4,0,7-0.9,10.6-2.8c6.5-3.5,10.5-9.3,10.5-14.4
				C2051.9,685.4,2051.6,684,2050.9,682.7"/>
			<path class="st1" d="M2246.3,670.3c-1.8-3.3-5.6-5.1-10.1-5.1c-3.4,0-7,1-10.6,2.9c-6.5,3.5-10.5,9.3-10.5,14.4
				c0,1.4,0.3,2.8,1,4.1c1.8,3.3,5.6,5,10.1,5c3.4,0,7-0.9,10.6-2.8c6.5-3.5,10.5-9.3,10.5-14.4C2247.3,673,2247,671.6,2246.3,670.3
				 M2242,677c-1.7,1.7-5.1,3.8-8.6,5.8c-3.6,2-7.1,3.5-9.5,4c-0.5,0.1-1,0.2-1.5,0.2c-1.6,0-2.8-0.6-3.5-1.9
				c-0.3-0.5-0.5-1.1-0.5-1.7c0-1.1,0.7-2.4,1.8-3.5c1.7-1.7,5-3.8,8.5-5.8c3.6-2,7.1-3.5,9.5-4c0.5-0.1,1-0.2,1.5-0.2
				c1.6,0,2.9,0.6,3.6,1.9c0.3,0.5,0.4,1.1,0.4,1.7C2243.7,674.6,2243.1,675.8,2242,677"/>
			<path class="st1" d="M2468.5,670.3c-1.8-3.3-5.6-5.1-10.1-5.1c-3.4,0-7,1-10.6,2.9c-6.5,3.5-10.5,9.3-10.5,14.4
				c0,1.4,0.3,2.8,1,4.1c1.8,3.3,5.6,5,10.1,5c3.4,0,7-0.9,10.6-2.8c6.5-3.5,10.5-9.3,10.5-14.4
				C2469.5,673,2469.2,671.6,2468.5,670.3"/>
			<path class="st1" d="M319.5,552.2c-1.8-3.3-5.6-5.1-10.1-5.1c-3.4,0-7,1-10.6,2.9c-6.5,3.5-10.5,9.3-10.5,14.4
				c0,1.4,0.3,2.8,1,4.1c1.8,3.3,5.6,5,10.1,5c3.4,0,7-0.9,10.6-2.8c6.5-3.5,10.5-9.3,10.5-14.4
				C320.5,554.9,320.2,553.5,319.5,552.2"/>
			<path class="st1" d="M513.5,589.4c-1.8-3.3-5.6-5.1-10.1-5.1c-3.4,0-7,1-10.6,2.9c-6.5,3.5-10.5,9.3-10.5,14.4
				c0,1.4,0.3,2.8,1,4.1c1.8,3.3,5.6,5,10.1,5c3.4,0,7-0.9,10.6-2.8c6.5-3.5,10.5-9.3,10.5-14.4
				C514.5,592.1,514.2,590.7,513.5,589.4"/>
			<path class="st1" d="M613,589.4c-1.8-3.3-5.6-5.1-10.1-5.1c-3.4,0-7,1-10.6,2.9c-6.5,3.5-10.5,9.3-10.5,14.4c0,1.4,0.3,2.8,1,4.1
				c1.8,3.3,5.6,5,10.1,5c3.4,0,7-0.9,10.6-2.8c6.5-3.5,10.5-9.3,10.5-14.4C614,592.1,613.7,590.7,613,589.4"/>
			<path class="st1" d="M772.1,589.4c-1.8-3.3-5.6-5.1-10.1-5.1c-3.4,0-7,1-10.6,2.9c-6.5,3.5-10.5,9.3-10.5,14.4
				c0,1.4,0.3,2.8,1,4.1c1.8,3.3,5.6,5,10.1,5c3.4,0,7-0.9,10.6-2.8c6.5-3.5,10.5-9.3,10.5-14.4
				C773.1,592.1,772.8,590.7,772.1,589.4"/>
			<path class="st1" d="M971.1,564.6c-1.8-3.3-5.6-5.1-10.1-5.1c-3.4,0-7,1-10.6,2.9c-6.5,3.5-10.5,9.3-10.5,14.4
				c0,1.4,0.3,2.8,1,4.1c1.8,3.3,5.6,5,10.1,5c3.4,0,7-0.9,10.6-2.8c6.5-3.5,10.5-9.3,10.5-14.4C972,567.3,971.8,565.9,971.1,564.6"
				/>
			<path class="st1" d="M1163.4,577c-1.8-3.3-5.6-5.1-10.1-5.1c-3.4,0-7,1-10.6,2.9c-6.5,3.5-10.5,9.3-10.5,14.4
				c0,1.4,0.3,2.8,1,4.1c1.8,3.3,5.6,5,10.1,5c3.4,0,7-0.9,10.6-2.8c6.5-3.5,10.5-9.3,10.5-14.4
				C1164.4,579.7,1164.1,578.3,1163.4,577"/>
			<path class="st1" d="M1262,564.6c-1.8-3.3-5.6-5.1-10.1-5.1c-3.4,0-7,1-10.6,2.9c-6.5,3.5-10.5,9.3-10.5,14.4
				c0,1.4,0.3,2.8,1,4.1c1.8,3.3,5.6,5,10.1,5c3.4,0,7-0.9,10.6-2.8c6.5-3.5,10.5-9.3,10.5-14.4C1263,567.3,1262.7,565.9,1262,564.6
				"/>
			<path class="st1" d="M1419.8,564.6c-1.8-3.3-5.6-5.1-10.1-5.1c-3.4,0-7,1-10.6,2.9c-6.5,3.5-10.5,9.3-10.5,14.4
				c0,1.4,0.3,2.8,1,4.1c1.8,3.3,5.6,5,10.1,5c3.4,0,7-0.9,10.6-2.8c6.5-3.5,10.5-9.3,10.5-14.4
				C1420.7,567.3,1420.5,565.9,1419.8,564.6"/>
			<path class="st1" d="M1617.3,552.2c-1.8-3.3-5.6-5.1-10.1-5.1c-3.4,0-7,1-10.6,2.9c-6.5,3.5-10.5,9.3-10.5,14.4
				c0,1.4,0.3,2.8,1,4.1c1.8,3.3,5.6,5,10.1,5c3.4,0,7-0.9,10.6-2.8c6.5-3.5,10.5-9.3,10.5-14.4
				C1618.3,554.9,1618,553.5,1617.3,552.2"/>
			<path class="st1" d="M1803.2,589.4c-1.8-3.3-5.6-5.1-10.1-5.1c-3.4,0-7,1-10.6,2.9c-6.5,3.5-10.5,9.3-10.5,14.4
				c0,1.4,0.3,2.8,1,4.1c1.8,3.3,5.6,5,10.1,5c3.4,0,7-0.9,10.6-2.8c6.5-3.5,10.5-9.3,10.5-14.4
				C1804.2,592.1,1803.9,590.7,1803.2,589.4"/>
			<path class="st1" d="M1898.5,589.4c-1.8-3.3-5.6-5.1-10.1-5.1c-3.4,0-7,1-10.6,2.9c-6.5,3.5-10.5,9.3-10.5,14.4
				c0,1.4,0.3,2.8,1,4.1c1.8,3.3,5.6,5,10.1,5c3.4,0,7-0.9,10.6-2.8c6.5-3.5,10.5-9.3,10.5-14.4
				C1899.5,592.1,1899.2,590.7,1898.5,589.4"/>
			<path class="st1" d="M2050.9,552.2c-1.8-3.3-5.6-5.1-10.1-5.1c-3.4,0-7,1-10.6,2.9c-6.5,3.5-10.5,9.3-10.5,14.4
				c0,1.4,0.3,2.8,1,4.1c1.8,3.3,5.6,5,10.1,5c3.4,0,7-0.9,10.6-2.8c6.5-3.5,10.5-9.3,10.5-14.4
				C2051.9,554.9,2051.6,553.5,2050.9,552.2"/>
			<path class="st1" d="M2246.3,552.2c-1.8-3.3-5.6-5.1-10.1-5.1c-3.4,0-7,1-10.6,2.9c-6.5,3.5-10.5,9.3-10.5,14.4
				c0,1.4,0.3,2.8,1,4.1c1.8,3.3,5.6,5,10.1,5c3.4,0,7-0.9,10.6-2.8c6.5-3.5,10.5-9.3,10.5-14.4
				C2247.3,554.9,2247,553.5,2246.3,552.2 M2242,559c-1.7,1.7-5.1,3.8-8.6,5.8c-3.6,2-7.1,3.5-9.5,4c-0.5,0.1-1,0.2-1.5,0.2
				c-1.6,0-2.8-0.6-3.5-1.9c-0.3-0.5-0.5-1.1-0.5-1.7c0-1.1,0.7-2.4,1.8-3.5c1.7-1.7,5-3.8,8.5-5.8c3.6-2,7.1-3.5,9.5-4
				c0.5-0.1,1-0.2,1.5-0.2c1.6,0,2.9,0.6,3.6,1.9c0.3,0.5,0.4,1.1,0.4,1.7C2243.7,556.6,2243.1,557.8,2242,559"/>
			<path class="st1" d="M2468.5,552.2c-1.8-3.3-5.6-5.1-10.1-5.1c-3.4,0-7,1-10.6,2.9c-6.5,3.5-10.5,9.3-10.5,14.4
				c0,1.4,0.3,2.8,1,4.1c1.8,3.3,5.6,5,10.1,5c3.4,0,7-0.9,10.6-2.8c6.5-3.5,10.5-9.3,10.5-14.4
				C2469.5,554.9,2469.2,553.5,2468.5,552.2"/>
			<path class="st1" d="M319.5,196.7c-1.8-3.3-5.6-5.1-10.1-5.1c-3.4,0-7,1-10.6,2.9c-6.5,3.5-10.5,9.3-10.5,14.4
				c0,1.4,0.3,2.8,1,4.1c1.8,3.3,5.6,5,10.1,5c3.4,0,7-0.9,10.6-2.8c6.5-3.5,10.5-9.3,10.5-14.4C320.5,199.4,320.2,198,319.5,196.7"
				/>
			<path class="st1" d="M513.5,221.5c-1.8-3.3-5.6-5.1-10.1-5.1c-3.4,0-7,1-10.6,2.9c-6.5,3.5-10.5,9.3-10.5,14.4
				c0,1.4,0.3,2.8,1,4.1c1.8,3.3,5.6,5,10.1,5c3.4,0,7-0.9,10.6-2.8c6.5-3.5,10.5-9.3,10.5-14.4
				C514.5,224.2,514.2,222.8,513.5,221.5"/>
			<path class="st1" d="M613,221.5c-1.8-3.3-5.6-5.1-10.1-5.1c-3.4,0-7,1-10.6,2.9c-6.5,3.5-10.5,9.3-10.5,14.4c0,1.4,0.3,2.8,1,4.1
				c1.8,3.3,5.6,5,10.1,5c3.4,0,7-0.9,10.6-2.8c6.5-3.5,10.5-9.3,10.5-14.4C614,224.2,613.7,222.8,613,221.5"/>
			<path class="st1" d="M772.1,246.3c-1.8-3.3-5.6-5.1-10.1-5.1c-3.4,0-7,1-10.6,2.9c-6.5,3.5-10.5,9.3-10.5,14.4
				c0,1.4,0.3,2.8,1,4.1c1.8,3.3,5.6,5,10.1,5c3.4,0,7-0.9,10.6-2.8c6.5-3.5,10.5-9.3,10.5-14.4C773.1,249,772.8,247.6,772.1,246.3"
				/>
			<path class="st1" d="M971.1,233.9c-1.8-3.3-5.6-5.1-10.1-5.1c-3.4,0-7,1-10.6,2.9c-6.5,3.5-10.5,9.3-10.5,14.4
				c0,1.4,0.3,2.8,1,4.1c1.8,3.3,5.6,5,10.1,5c3.4,0,7-0.9,10.6-2.8c6.5-3.5,10.5-9.3,10.5-14.4C972,236.6,971.8,235.2,971.1,233.9"
				/>
			<path class="st1" d="M1163.4,246.3c-1.8-3.3-5.6-5.1-10.1-5.1c-3.4,0-7,1-10.6,2.9c-6.5,3.5-10.5,9.3-10.5,14.4
				c0,1.4,0.3,2.8,1,4.1c1.8,3.3,5.6,5,10.1,5c3.4,0,7-0.9,10.6-2.8c6.5-3.5,10.5-9.3,10.5-14.4
				C1164.4,249,1164.1,247.6,1163.4,246.3"/>
			<path class="st1" d="M1262,233.9c-1.8-3.3-5.6-5.1-10.1-5.1c-3.4,0-7,1-10.6,2.9c-6.5,3.5-10.5,9.3-10.5,14.4
				c0,1.4,0.3,2.8,1,4.1c1.8,3.3,5.6,5,10.1,5c3.4,0,7-0.9,10.6-2.8c6.5-3.5,10.5-9.3,10.5-14.4C1263,236.6,1262.7,235.2,1262,233.9
				"/>
			<path class="st1" d="M1419.8,184.3c-1.8-3.3-5.6-5.1-10.1-5.1c-3.4,0-7,1-10.6,2.9c-6.5,3.5-10.5,9.3-10.5,14.4
				c0,1.4,0.3,2.8,1,4.1c1.8,3.3,5.6,5,10.1,5c3.4,0,7-0.9,10.6-2.8c6.5-3.5,10.5-9.3,10.5-14.4
				C1420.7,187,1420.5,185.6,1419.8,184.3"/>
			<path class="st1" d="M1617.3,196.7c-1.8-3.3-5.6-5.1-10.1-5.1c-3.4,0-7,1-10.6,2.9c-6.5,3.5-10.5,9.3-10.5,14.4
				c0,1.4,0.3,2.8,1,4.1c1.8,3.3,5.6,5,10.1,5c3.4,0,7-0.9,10.6-2.8c6.5-3.5,10.5-9.3,10.5-14.4C1618.3,199.4,1618,198,1617.3,196.7
				"/>
			<path class="st1" d="M1803.2,221.5c-1.8-3.3-5.6-5.1-10.1-5.1c-3.4,0-7,1-10.6,2.9c-6.5,3.5-10.5,9.3-10.5,14.4
				c0,1.4,0.3,2.8,1,4.1c1.8,3.3,5.6,5,10.1,5c3.4,0,7-0.9,10.6-2.8c6.5-3.5,10.5-9.3,10.5-14.4
				C1804.2,224.2,1803.9,222.8,1803.2,221.5"/>
			<path class="st1" d="M1898.5,221.5c-1.8-3.3-5.6-5.1-10.1-5.1c-3.4,0-7,1-10.6,2.9c-6.5,3.5-10.5,9.3-10.5,14.4
				c0,1.4,0.3,2.8,1,4.1c1.8,3.3,5.6,5,10.1,5c3.4,0,7-0.9,10.6-2.8c6.5-3.5,10.5-9.3,10.5-14.4
				C1899.5,224.2,1899.2,222.8,1898.5,221.5"/>
			<path class="st1" d="M2050.9,196.7c-1.8-3.3-5.6-5.1-10.1-5.1c-3.4,0-7,1-10.6,2.9c-6.5,3.5-10.5,9.3-10.5,14.4
				c0,1.4,0.3,2.8,1,4.1c1.8,3.3,5.6,5,10.1,5c3.4,0,7-0.9,10.6-2.8c6.5-3.5,10.5-9.3,10.5-14.4
				C2051.9,199.4,2051.6,198,2050.9,196.7"/>
			<path class="st1" d="M2246.3,184.3c-1.8-3.3-5.6-5.1-10.1-5.1c-3.4,0-7,1-10.6,2.9c-6.5,3.5-10.5,9.3-10.5,14.4
				c0,1.4,0.3,2.8,1,4.1c1.8,3.3,5.6,5,10.1,5c3.4,0,7-0.9,10.6-2.8c6.5-3.5,10.5-9.3,10.5-14.4C2247.3,187,2247,185.6,2246.3,184.3
				 M2242,191.1c-1.7,1.7-5.1,3.8-8.6,5.8c-3.6,2-7.1,3.5-9.5,4c-0.5,0.1-1,0.2-1.5,0.2c-1.6,0-2.8-0.6-3.5-1.9
				c-0.3-0.5-0.5-1.1-0.5-1.7c0-1.1,0.7-2.4,1.8-3.5c1.7-1.7,5-3.8,8.5-5.8c3.6-2,7.1-3.5,9.5-4c0.5-0.1,1-0.2,1.5-0.2
				c1.6,0,2.9,0.6,3.6,1.9c0.3,0.5,0.4,1.1,0.4,1.7C2243.7,188.7,2243.1,189.9,2242,191.1"/>
			<path class="st1" d="M2468.5,184.3c-1.8-3.3-5.6-5.1-10.1-5.1c-3.4,0-7,1-10.6,2.9c-6.5,3.5-10.5,9.3-10.5,14.4
				c0,1.4,0.3,2.8,1,4.1c1.8,3.3,5.6,5,10.1,5c3.4,0,7-0.9,10.6-2.8c6.5-3.5,10.5-9.3,10.5-14.4
				C2469.5,187,2469.2,185.6,2468.5,184.3"/>
			<path class="st1" d="M140.6,690.6c-7.5,0-13.6,4.4-13.7,4.4c-5.8,4.3-8,9.3-8.9,12.8c-0.5,1.8-0.7,3.6-0.7,5.3
				c0,2.4,0.4,4.6,1.3,6.4c1.2,2.7,3.5,4.6,6.4,5.6c1.2,0.4,2.5,0.6,3.8,0.6c2.2,0,4.5-0.6,6.3-1.7c3.1-1.7,5-5.3,5-9.1
				c0-3.5-1.8-6.6-4.8-8.5c-2.1-1.4-4.1-1.8-5.8-1.8c-1.2,0-2.3,0.2-3.2,0.5c-1,0.4-2.7,1.4-3.5,2.1c0.3-1.9,1.5-4.8,2.6-6.3
				s3.3-3.6,5-4.5c2.5-1.4,5.7-2,9.1-2c10.1,0,15.1,8.1,15.1,24.8c0,9.2-3.5,18.1-6.4,23.9c-3.3,6.5-7.6,12.8-11.5,16.3
				c-10.3,9.4-20,13.9-20.1,13.9c0,0-1.5,0.9-1.1,2.4c0.3,1,1.2,1.2,1.8,1.2c0.1,0,0.4-0.1,0.5-0.1s11.4-4.7,20.4-11.7
				c5.1-3.7,9.6-7.6,13.6-11.9c3.6-3.9,6.6-8,9.1-12.2c4.4-7.4,6.8-15.2,6.8-21.8c0-8.2-2.2-15.1-6.3-19.9
				C156.9,693.5,149.9,690.6,140.6,690.6 M171.8,703.2c0,2.8,2.2,5,4.8,5c2.6,0,4.8-2.2,4.8-5s-2.2-5.1-4.8-5.1
				C174,698.1,171.8,700.4,171.8,703.2 M171.8,727.7c0,2.8,2.2,5.1,4.8,5.1c2.6,0,4.8-2.3,4.8-5.1s-2.2-5.1-4.8-5.1
				C174,722.7,171.8,724.9,171.8,727.7"/>
			<path class="st1" d="M178.3,542.1c-1.2-5.4-3.8-9.2-4.6-10.2c-3.2-4.2-7.1-7.1-11.8-8.4c-3.1-0.9-6.1-1-8.5-0.8
				c-1-6-2-11.8-2.9-17.2c5.4-6.1,9-11.9,11.3-16.1c3.4-6.5,4.6-11.1,4.6-11.3c1.7-5.2,2.1-12.8,1-21c-1-7.5-3.1-14.1-5.4-17.4
				c-1-1.4-2.1-2.1-3.1-2.1c-1.2,0-3.7,1.2-6.6,4c-2.3,2.2-5.5,6-8.1,12c-3,7-3.2,16.4-2.8,23.1c0.4,7.2,1.5,12.9,1.5,12.9
				c0,0.1,0.3,1.6,0.7,4.1c-0.2,0.2-0.5,0.4-0.7,0.7c-1,1-2.2,2.1-3.6,3.5c-0.9,0.9-1.8,1.8-2.8,2.7c-8.4,8.1-21.1,20.3-21.1,39.3
				c0,4.7,0.9,9,2.7,13c1.6,3.6,3.9,6.8,6.8,9.7c7.7,7.5,18.2,10.7,25.2,10.5c2.9-0.1,5.5-0.3,7.9-0.8c1.8,9.5,2.9,16.5,3,21.8
				c0,6.5-1.6,10.4-5.5,13.1c-2.4,1.7-5.2,2.7-8.3,2.8c-2.6,0.1-4.8-0.3-6.2-0.8h0c0,0-0.3-0.1-0.3-0.3c0-0.2,0.3-0.2,0.3-0.2h0
				c1.9-0.4,5.4-1.7,7.8-4.9c1.8-2.5,2.6-7.1,0.8-11c-1.1-2.4-3.6-5.3-9.2-5.7c-2.5-0.2-4.7,0.3-6.7,1.5c-1.8,1.1-3.3,2.7-4.3,4.7
				c-2.4,4.7-2,10.3,1.1,14.2c2.9,3.6,7.5,5.9,12.9,6.5c0.8,0.1,1.7,0.1,2.5,0.1c4.4,0,8.8-1.2,12.3-3.4c3.6-2.5,5.7-6.5,6.4-12.1
				c0.6-4.6,0.2-10.5-1.2-18.5c-0.4-2.1-0.9-5.1-1.5-8.8c5.7-1.9,9.8-5.4,13.6-11.3C178.8,554.4,179.7,548.3,178.3,542.1 M144.3,568
				c-4.6-1.2-9-3.7-12.7-7.2c-1.3-1.2-3.2-3.4-4.6-6.7c-1.4-3.1-2-6.5-2-10.1c0.1-4.7,1.4-9.4,3.9-14.2c2.9-5.5,7.4-11,13.4-16.3
				c1.4-1.3,2.8-2.5,4.1-3.8c0.8,4.2,1.6,8.9,2.5,13.7c-3.8,1.3-8.5,4.4-11.6,10c-3.5,6.5-3.4,12-2.6,15.4c0.9,4.4,3.4,8.2,6.9,10.2
				c0.9,0.6,5,2.7,6.8,2.1c0.4-0.1,0.6-0.3,0.8-0.7c0.5-1.2-0.5-1.8-2.1-2.7c-0.6-0.4-1.3-0.8-2-1.3c-3.3-2.5-4.7-6.9-3.7-11.2
				c0.6-2.4,1.8-4.5,3.7-6.2c1.7-1.5,3.7-2.6,6-3.3c2,11.2,4.1,22.2,5.7,30.5c0.1,0.7,0.3,1.3,0.4,2
				C152.8,569.2,148.5,569.1,144.3,568 M155.6,535.1c10.3-0.5,14.5,6.9,15.4,11.7c0.5,2.5,0.5,6.9-1.1,11.1
				c-1.2,3.2-3.6,7.2-8.7,9.2c-0.1-0.4-0.1-0.8-0.2-1.3C159.4,557.2,157.5,546.3,155.6,535.1 M148.3,464.7c1.8-5.7,4.5-8.9,6.5-10.6
				c1.7-1.5,3.4-2.2,4.3-2.2c0.1,0,0.3,0,0.4,0c0.5,0.1,1,0.7,1.4,1.6c2.3,4.3,1.6,10.9,0.2,15.3c-1.6,5.4-4.5,10.9-13.2,20.5
				c-0.2-1.1-0.3-2.1-0.5-3.1C146.1,478,146.4,470.7,148.3,464.7"/>
			<path class="st1" d="M178.3,236.2c-1.2-5.4-3.8-9.2-4.6-10.2c-3.2-4.2-7.1-7.1-11.8-8.4c-3.1-0.9-6.1-1-8.5-0.8
				c-1-6-2-11.8-2.9-17.2c5.4-6.1,9-11.9,11.3-16.1c3.4-6.5,4.6-11.1,4.6-11.3c1.7-5.2,2.1-12.8,1-21c-1-7.5-3.1-14.1-5.4-17.4
				c-1-1.4-2.1-2.1-3.1-2.1c-1.2,0-3.7,1.2-6.6,4c-2.3,2.2-5.5,6-8.1,12c-3,7-3.2,16.4-2.8,23.1c0.4,7.2,1.5,12.9,1.5,12.9
				c0,0.1,0.3,1.6,0.7,4.1c-0.2,0.2-0.5,0.4-0.7,0.7c-1,1-2.2,2.1-3.6,3.5c-0.9,0.9-1.8,1.8-2.8,2.7c-8.4,8.1-21.1,20.3-21.1,39.3
				c0,4.7,0.9,9,2.7,13c1.6,3.6,3.9,6.8,6.8,9.7c7.7,7.5,18.2,10.7,25.2,10.5c2.9-0.1,5.5-0.3,7.9-0.8c1.8,9.5,2.9,16.5,3,21.8
				c0,6.5-1.6,10.4-5.5,13.1c-2.4,1.7-5.2,2.7-8.3,2.8c-2.6,0.1-4.8-0.3-6.2-0.8h0c0,0-0.3-0.1-0.3-0.3c0-0.2,0.3-0.2,0.3-0.2h0
				c1.9-0.4,5.4-1.7,7.8-4.9c1.8-2.5,2.6-7.1,0.8-11c-1.1-2.4-3.6-5.3-9.2-5.7c-2.5-0.2-4.7,0.3-6.7,1.5c-1.8,1.1-3.3,2.7-4.3,4.7
				c-2.4,4.7-2,10.3,1.1,14.2c2.9,3.6,7.5,5.9,12.9,6.5c0.8,0.1,1.7,0.1,2.5,0.1c4.4,0,8.8-1.2,12.3-3.4c3.6-2.5,5.7-6.5,6.4-12.1
				c0.6-4.6,0.2-10.5-1.2-18.5c-0.4-2.1-0.9-5.1-1.5-8.8c5.7-1.9,9.8-5.4,13.6-11.3C178.8,248.5,179.7,242.4,178.3,236.2
				 M144.3,262.1c-4.6-1.2-9-3.7-12.7-7.2c-1.3-1.2-3.2-3.4-4.6-6.7c-1.4-3.1-2-6.5-2-10.1c0.1-4.7,1.4-9.4,3.9-14.2
				c2.9-5.5,7.4-11,13.4-16.3c1.4-1.3,2.8-2.5,4.1-3.8c0.8,4.2,1.6,8.9,2.5,13.7c-3.8,1.3-8.5,4.4-11.6,10c-3.5,6.5-3.4,12-2.6,15.4
				c0.9,4.4,3.4,8.2,6.9,10.2c0.9,0.6,5,2.7,6.8,2.1c0.4-0.1,0.6-0.3,0.8-0.7c0.5-1.2-0.5-1.8-2.1-2.7c-0.6-0.4-1.3-0.8-2-1.3
				c-3.3-2.5-4.7-6.9-3.7-11.2c0.6-2.4,1.8-4.5,3.7-6.2c1.7-1.5,3.7-2.6,6-3.3c2,11.2,4.1,22.2,5.7,30.5c0.1,0.7,0.3,1.3,0.4,2
				C152.8,263.3,148.5,263.2,144.3,262.1 M155.6,229.2c10.3-0.5,14.5,6.9,15.4,11.7c0.5,2.5,0.5,6.9-1.1,11.1
				c-1.2,3.2-3.6,7.2-8.7,9.2c-0.1-0.4-0.1-0.8-0.2-1.3C159.4,251.3,157.5,240.4,155.6,229.2 M148.3,158.8c1.8-5.7,4.5-8.9,6.5-10.6
				c1.7-1.5,3.4-2.2,4.3-2.2c0.1,0,0.3,0,0.4,0c0.5,0.1,1,0.7,1.4,1.6c2.3,4.3,1.6,10.9,0.2,15.3c-1.6,5.4-4.5,10.9-13.2,20.5
				c-0.2-1.1-0.3-2.1-0.5-3.1C146.1,172.1,146.4,164.8,148.3,158.8"/>
			<path class="st1" d="M226,757.3c-0.6-3.9-3-7.5-8-7.5c-5,0-7.8,3.1-8.3,3.7l0.4-31.8c0-0.8-0.6-1.4-1.4-1.4h-1.2
				c-0.8,0-1.4,0.6-1.4,1.4l0.5,59.6c0,0.8,0.6,1.4,1.4,1.4c0.2,0,0.6-0.1,0.8-0.2c0.4-0.2,6.8-3.4,12.2-9.4
				c3.8-4.3,5.3-9.1,5.3-13.2C226.2,758.9,226.1,758.1,226,757.3 M219.2,761.2c0,1.5-0.4,6.1-2.9,9.8c-1.7,2.6-5.1,5.3-6.9,6.7
				l0.3-19.3c0.2-0.9,1.7-3.8,5.7-3.8c3.6,0,3.9,3.4,3.9,5.5V761.2"/>
			<path class="st1" d="M226,515.2c-0.6-3.9-3-7.5-8-7.5c-5,0-7.8,3.1-8.3,3.7l0.4-31.8c0-0.8-0.6-1.4-1.4-1.4h-1.2
				c-0.8,0-1.4,0.6-1.4,1.4l0.5,59.6c0,0.8,0.6,1.4,1.4,1.4c0.2,0,0.6-0.1,0.8-0.2c0.4-0.2,6.8-3.4,12.2-9.4
				c3.8-4.3,5.3-9.1,5.3-13.2C226.2,516.8,226.1,516,226,515.2 M219.2,519.1c0,1.5-0.4,6.1-2.9,9.8c-1.7,2.6-5.1,5.3-6.9,6.7
				l0.3-19.3c0.2-0.9,1.7-3.8,5.7-3.8c3.6,0,3.9,3.4,3.9,5.5V519.1"/>
			<path class="st1" d="M226,209.3c-0.6-3.9-3-7.5-8-7.5c-5,0-7.8,3.1-8.3,3.7l0.4-31.8c0-0.8-0.6-1.4-1.4-1.4h-1.2
				c-0.8,0-1.4,0.6-1.4,1.4l0.5,59.6c0,0.8,0.6,1.4,1.4,1.4c0.2,0,0.6-0.1,0.8-0.2c0.4-0.2,6.8-3.4,12.2-9.4
				c3.8-4.3,5.3-9.1,5.3-13.2C226.2,210.9,226.1,210.1,226,209.3 M219.2,213.2c0,1.5-0.4,6.1-2.9,9.8c-1.7,2.6-5.1,5.3-6.9,6.7
				l0.3-19.3c0.2-0.9,1.7-3.8,5.7-3.8c3.6,0,3.9,3.4,3.9,5.5V213.2"/>
			<path class="st1" d="M484.8,802.7c0-0.2,0.9-3.6,1-3.9c0.1-0.4,1.9-6.1,5.6-11.7c2.7-4.2,12.1-16.4,11.8-16.4
				c0,0,7.3-9.4,7.8-22.2v-2.3c0-6.1-0.8-14.6-4.3-23.2c-0.4-1-0.8-2-1.9-1.6s-0.8,1.6-0.5,2.7c1.8,6.9,2.8,14.1,2.8,21.2
				c0,8.3-3,12.5-4.8,15.6c-6.5,11-15.1,16.4-19.2,17.8c-0.5,0.2-0.8,0.6-0.8,1.1v6.2v16.3c0,0.7,0.6,1.3,1.3,1.3
				C484.1,803.5,484.7,803.1,484.8,802.7"/>
			<path class="st1" d="M1165.1,675.6c-0.1-0.3-1-3.8-1-4c-0.1-0.4-0.7-0.7-1.2-0.7c-0.7,0-1.3,0.6-1.3,1.3v16.3v6.2
				c0,0.5,0.4,0.9,0.8,1.1c4.2,1.3,12.8,6.7,19.2,17.8c1.8,3.1,4.7,7.2,4.7,15.6c0,7.1-1.1,14.7-2.9,21.6c-0.3,1.1-0.6,2.1,0.5,2.5
				s1.5-0.4,1.9-1.4c3.6-8.7,4.5-17.9,4.5-24v-1.9c-0.5-12.8-7.8-22.2-7.8-22.2c0.3,0-9.1-12.2-11.8-16.4
				C1167,681.6,1165.2,676,1165.1,675.6"/>
			<path class="st1" d="M1774.4,802.7c0-0.2,0.9-3.6,1-3.9c0.1-0.4,1.9-6.1,5.6-11.7c2.7-4.2,12.1-16.4,11.8-16.4
				c0,0,7.3-9.4,7.8-22.2v-2.3c0-6.1-0.8-14.6-4.3-23.2c-0.4-1-0.8-2-1.9-1.6c-1.1,0.4-0.8,1.6-0.5,2.7c1.8,6.9,2.8,14.1,2.8,21.2
				c0,8.3-3,12.5-4.8,15.6c-6.5,11-15.1,16.4-19.2,17.8c-0.5,0.2-0.8,0.6-0.8,1.1v6.2v16.3c0,0.7,0.6,1.3,1.3,1.3
				C1773.7,803.5,1774.3,803.1,1774.4,802.7"/>
			<path class="st1" d="M515.3,514.1c-0.1-0.3-1-3.8-1-4c-0.1-0.4-0.7-0.7-1.2-0.7c-0.7,0-1.3,0.6-1.3,1.3V527v6.2
				c0,0.5,0.4,0.9,0.8,1.1c4.2,1.3,12.8,6.7,19.2,17.8c1.8,3.1,4.7,7.2,4.7,15.6c0,7.1-1.1,14.7-2.9,21.6c-0.3,1.1-0.6,2.1,0.5,2.5
				c1.1,0.4,1.5-0.4,1.9-1.4c3.6-8.7,4.5-17.9,4.5-24v-1.9c-0.5-12.8-7.8-22.2-7.8-22.2c0.3,0-9.1-12.2-11.8-16.4
				C517.1,520.2,515.4,514.5,515.3,514.1"/>
			<path class="st1" d="M1165.1,501.7c-0.1-0.3-1-3.8-1-4c-0.1-0.4-0.7-0.7-1.2-0.7c-0.7,0-1.3,0.6-1.3,1.3v16.3v6.2
				c0,0.5,0.4,0.9,0.8,1.1c4.2,1.3,12.8,6.7,19.2,17.8c1.8,3.1,4.7,7.2,4.7,15.6c0,7.1-1.1,14.7-2.9,21.6c-0.3,1.1-0.6,2.1,0.5,2.5
				s1.5-0.4,1.9-1.4c3.6-8.7,4.5-17.9,4.5-24V552c-0.5-12.8-7.8-22.2-7.8-22.2c0.3,0-9.1-12.2-11.8-16.4
				C1167,507.8,1165.2,502.1,1165.1,501.7"/>
			<path class="st1" d="M1804.9,514.1c-0.1-0.3-1-3.8-1-4c-0.1-0.4-0.7-0.7-1.2-0.7c-0.7,0-1.3,0.6-1.3,1.3V527v6.2
				c0,0.5,0.4,0.9,0.8,1.1c4.2,1.3,12.8,6.7,19.2,17.8c1.8,3.1,4.7,7.2,4.7,15.6c0,7.1-1.1,14.7-2.9,21.6c-0.3,1.1-0.6,2.1,0.5,2.5
				s1.5-0.4,1.9-1.4c3.6-8.7,4.5-17.9,4.5-24v-1.9c-0.5-12.8-7.8-22.2-7.8-22.2c0.3,0-9.1-12.2-11.8-16.4
				C1806.8,520.2,1805,514.5,1804.9,514.1"/>
			<path class="st1" d="M515.3,152.4c-0.1-0.3-1-3.8-1-4c-0.1-0.4-0.7-0.7-1.2-0.7c-0.7,0-1.3,0.6-1.3,1.3v16.3v6.2
				c0,0.5,0.4,0.9,0.8,1.1c4.2,1.3,12.8,6.7,19.2,17.8c1.8,3.1,4.7,7.2,4.7,15.6c0,7.1-1.1,14.7-2.9,21.6c-0.3,1.1-0.6,2.1,0.5,2.5
				c1.1,0.4,1.5-0.4,1.9-1.4c3.6-8.7,4.5-17.9,4.5-24v-1.9c-0.5-12.8-7.8-22.2-7.8-22.2c0.3,0-9.1-12.2-11.8-16.4
				C517.1,158.5,515.4,152.8,515.3,152.4"/>
			<path class="st1" d="M1165.1,171c-0.1-0.3-1-3.8-1-4c-0.1-0.4-0.7-0.7-1.2-0.7c-0.7,0-1.3,0.6-1.3,1.3v16.3v6.2
				c0,0.5,0.4,0.9,0.8,1.1c4.2,1.3,12.8,6.7,19.2,17.8c1.8,3.1,4.7,7.2,4.7,15.6c0,7.1-1.1,14.7-2.9,21.6c-0.3,1.1-0.6,2.1,0.5,2.5
				c1.1,0.4,1.5-0.4,1.9-1.4c3.6-8.7,4.5-17.9,4.5-24v-1.9c-0.5-12.8-7.8-22.2-7.8-22.2c0.3,0-9.1-12.2-11.8-16.4
				C1167,177.1,1165.2,171.4,1165.1,171"/>
			<path class="st1" d="M1804.9,152.4c-0.1-0.3-1-3.8-1-4c-0.1-0.4-0.7-0.7-1.2-0.7c-0.7,0-1.3,0.6-1.3,1.3v16.3v6.2
				c0,0.5,0.4,0.9,0.8,1.1c4.2,1.3,12.8,6.7,19.2,17.8c1.8,3.1,4.7,7.2,4.7,15.6c0,7.1-1.1,14.7-2.9,21.6c-0.3,1.1-0.6,2.1,0.5,2.5
				c1.1,0.4,1.5-0.4,1.9-1.4c3.6-8.7,4.5-17.9,4.5-24v-1.9c-0.5-12.8-7.8-22.2-7.8-22.2c0.3,0-9.1-12.2-11.8-16.4
				C1806.8,158.5,1805,152.8,1804.9,152.4"/>
			<path class="st1" d="M285.5,330.4c0.9-0.4,1.5-0.6,3.6-1.2c8.6-2.4,15.2-3.6,20.4-3.6c6.8,0,10.9,3.4,10.9,9
				c0,5.6-3.8,10.1-10.7,12.6c-3.8,1.4-8.3,2.1-13.9,2.3c0.9,1.4,1.1,1.9,1.5,3.7c7.8-0.6,12-1.6,16.5-3.8
				c6.7-3.2,10.4-8.5,10.4-14.8c0-7.7-5.8-12.5-15-12.5c-4.1,0-8.9,0.6-14.5,1.8c-8.9,2-8.9,2-10.4,2.1L285.5,330.4"/>
			<path class="st1" d="M290.9,376.5c0.7,0,0.8,0,1.7,0.1c3.2,0.4,7.5,0.6,11,0.6c2.8,0,4.5-0.1,7.5-0.6c-0.5,0.3-0.6,0.3-1,0.5
				c-0.6,0.3-0.7,0.4-1.2,0.6c-2.2,1.2-3.5,2-6.6,4.2l2.6,2.1c4.9-3.6,9.5-6.3,12.6-7.6l-0.2-3.3c-2.8,0.7-6.8,1.1-12.6,1.1
				c-5.7,0-9.7-0.4-13.3-1.2L290.9,376.5 M293.9,389.3c-3.8,3.2-5.8,6.4-5.8,9.7c0,3.4,2,6,5.7,7.6c2.5,0.9,6.7,1.5,11.5,1.5
				c4.4,0,9.2-0.4,13.5-1.1c0.8-0.1,1-0.2,1.7-0.2l-0.5-4.1c-2.8,1.2-8.8,1.9-15,1.9c-4,0-7.2-0.4-9.1-1c-2.8-0.9-4.2-2.6-4.2-4.9
				c0-2.3,1.5-4.6,4.8-7.3L293.9,389.3"/>
			<path class="st1" d="M482.8,316c0.1,1,0.2,1.6,0.2,2.6c0,0.8,0,1.8,0,3.2c-0.4,15.8-0.5,17-0.5,20.4c0,5.2,0.7,7.9,2.8,10.2
				c2,2.3,5.2,3.5,9.4,3.5c5.8,0,10.5-2.1,14.1-6.2c2.2-2.6,3.7-5.5,5.6-11.4c-1.6-0.8-2.2-1.2-3.6-2.4c-0.7,3.5-1.3,5.4-2.5,7.8
				c-2.8,5.7-7.4,8.7-13.4,8.7c-2.6,0-4.9-0.7-6.2-1.9c-1.5-1.3-2.2-3-2.4-6c0-1.1-0.1-2.4-0.1-3c0-2.2,0.2-9.1,0.3-15.1
				c0.2-6.3,0.4-8.8,0.7-10.5H482.8"/>
			<path class="st1" d="M485.7,375.7c0.8-0.2,2-0.2,3.6-0.2c5.6-0.2,12.1-0.6,14.2-0.9c0.2,0,0.4-0.1,0.6-0.1l0.1,0.1
				c-0.2,0.2-0.2,0.2-0.4,0.4c-0.2,0.2-0.2,0.2-0.5,0.5c-4.6,4.8-11.4,11.2-16.6,15.8c-3,2.6-4.7,3.8-6.5,4.9l2.5,3.1
				c1-1.1,2.2-2,3.9-3.2c5-3.4,11-5.5,16.1-5.5c6.1,0,9.9,2.7,9.9,7c0,5.2-5.3,8.7-13,8.7c-4.3,0-9.1-1.1-12.8-3.1
				c0.2,1.6,0.4,2.3,0.4,3.1c0,0.2,0,0.5-0.1,0.9c4.7,1.6,8.3,2.3,12.1,2.3c4,0,8-0.8,10.6-2.1c4-2.1,6.5-5.8,6.5-9.9
				c0-6.1-5-9.9-13-9.9c-4.5,0-7.7,1-12.7,3.9l-0.1-0.1c4-2.9,6.3-4.9,13.6-12.2c4.7-4.7,4.7-4.7,5.4-5.2l-2.1-2.9
				c-0.6,0.2-1,0.4-2.1,0.4c-3.4,0.4-9.8,0.7-14.4,0.7c-3.1,0-4-0.1-5.6-0.3L485.7,375.7"/>
			<path class="st1" d="M576.8,330.9c1.4-0.4,1.8-0.4,2.9-0.7c0.5-0.1,2.8-0.5,7.1-1.1c-1.6,6.4-3.1,10.9-5.5,15.9
				c-1.8,3.8-3.6,7.1-5.2,9l3.4,2c1.5-2.8,2.6-4.8,3.2-6c3.4-6.9,5.7-13.3,7.5-21.2c1.9-0.2,2.5-0.2,3.6-0.2c4.6,0,6.1,1.7,6.1,7
				c0,5.6-0.8,10.7-2.1,13.9c-0.7,1.6-1.6,2.4-2.8,2.4c-1.8,0-4.6-0.9-7.5-2.3c0.1,0.9,0.1,1.2,0.1,2c0,0.7,0,1-0.1,1.8
				c3.3,1.4,5.4,1.9,7.5,1.9c2.4,0,3.7-0.6,4.9-2.3c2-2.9,3.3-9.6,3.3-17.2c0-4.1-0.7-6.4-2.5-8.1c-1.5-1.5-3.6-2.1-7.2-2.1
				c-1.2,0-1.8,0.1-3,0.2c0.5-2.4,0.8-4.2,1-5.7c0.5-2.8,0.6-3.7,1-4.8l-4-0.5c0,0.3,0,0.6,0,0.7c0,2.1-0.7,6.9-1.5,10.6
				c-4,0.7-9.2,1.2-11,1.3L576.8,330.9 M606.3,324.3c4.9,4.9,8.3,11.1,10.2,17.9l3.2-1.8c-2.4-7.1-5.4-12.2-10.5-17.7L606.3,324.3"
				/>
			<path class="st1" d="M600.5,375.8c2.5,0.1,4,0.4,5.8,1.2c5,2.2,7.9,6.8,7.9,12.5c0,6.2-3.3,11.5-8.8,14c-2.3,1.1-4.7,1.8-8.3,2.4
				c0.9,1.2,1.2,1.7,1.8,3.4c3.4-0.8,5.3-1.4,7.6-2.3c7.2-3.1,11.5-9.5,11.5-17.2c0-4.8-1.7-9.2-4.9-12.2c-3.2-3.2-8.1-5-13.8-5
				c-6.7,0-12.1,2.2-16.1,6.7c-3.4,3.8-5.2,8.7-5.2,13.8c0,7,3.5,12.2,8.3,12.2c3.6,0,6.5-3,9.5-9.6
				C597.9,390.4,599.8,382.7,600.5,375.8 M596.9,375.8c-0.7,6.4-2.5,13.8-4.5,18.5c-2.2,4.9-4.2,7.2-6.2,7.2c-2.7,0-4.8-3.7-4.8-8.5
				c0-6.2,3.1-11.8,8.1-14.9C591.8,376.8,593.9,376.1,596.9,375.8"/>
			<path class="st1" d="M747.5,315.7c0.3,0.8,0.4,1,0.8,3.1c1.3,6.4,2.2,9.9,3.7,14c-3.1,1.6-4.7,2.5-6.5,4.1
				c-3,2.4-4.5,5.3-4.5,8.5c0,3.9,2.1,6.7,6.2,8.2c2.4,0.9,6.1,1.4,11.1,1.4c3.5,0,5.9-0.2,11-0.7c2.8-0.3,2.8-0.3,3.7-0.3l-0.4-4.1
				c-2.9,1.1-8.5,1.7-14.3,1.7c-9.8,0-13.6-1.8-13.6-6.3c0-4.1,3.7-7.4,12.2-10.8c4.4-1.8,11.5-4.1,15-4.9l-1.5-3.8
				c-1,0.5-1.5,0.7-3.2,1.3c-7.8,2.7-9.2,3.2-12.1,4.4c-1.7-5-3.6-13.2-3.8-16.5L747.5,315.7"/>
			<path class="st1" d="M749.1,383.1c0.1,0,0.2,0,0.2,0c0.1,0,0.2,0,0.5,0.1c0.1,0,0.4,0,0.8,0.1c0.2,0,0.8,0,1.6,0.1
				c1.8,0.1,3.6,0.2,5.6,0.2c1.9,0,3.5-0.1,5.7-0.2c0.2,7.3,0.4,12,0.5,13.1c-1.1-0.6-3.5-1-5.5-1c-5.5,0-9.5,2.9-9.5,7.1
				c0,4.3,3.7,7.1,9.5,7.1c4.1,0,7.1-1.5,8.3-4.2c0.4-0.9,0.6-2.1,0.6-3.4c0-0.4,0-0.6-0.1-1.3c0.2,0.1,0.2,0.1,0.5,0.3
				c0.3,0.2,0.3,0.2,0.5,0.3c3.5,2,5.5,3.4,7.1,5.2l1.6-3.5c-0.6-0.4-0.7-0.4-1.2-0.9c-3.3-2.4-4.7-3.2-8.4-4.9
				c-0.4-6.7-0.5-9.2-0.5-14.2c2.6-0.3,4-0.5,5.3-0.8c3.4-0.7,3.4-0.7,3.5-0.7l-0.1-3.4c-1.9,0.8-4.8,1.4-8.7,1.9c0-1.1,0-1.9,0-2.5
				c0-4.1,0.1-6.5,0.3-7.8h-3.8c0.1,0.5,0.2,1.2,0.2,2.1c0,3.8,0,3.8,0,8.5c-2,0.1-3.4,0.1-5.3,0.1c-4.4,0-6.6-0.2-9-0.8
				L749.1,383.1 M764.1,399.4c0,0,0.1,1.1,0.1,1.5c0,1.9-0.3,3.1-1,3.9c-1,1.1-2.9,1.8-5.1,1.8c-3.5,0-5.8-1.6-5.8-4
				c0-2.5,2.5-4.2,6.5-4.2C760.8,398.4,762.1,398.6,764.1,399.4 M740.2,369.7c0,0.6-0.1,0.9-0.5,3.1c-2,8.7-2.6,13.9-2.6,20.6
				c0,5.1,0.5,10.2,1.4,14.9c0.2,1.1,0.2,1.4,0.3,1.8l3.5-0.3c-0.1-0.7-0.1-0.8-0.1-1c0-2.9,2-9.3,4.3-14.2l-2.5-1.2
				c-0.1,0.4-0.2,0.6-0.4,1c-1.7,4.1-2.1,5.1-3,8.8l-0.2-0.1c0-0.5,0-0.5,0-0.9c0-0.9,0-1,0-1.4c-0.1-2.3-0.2-5.2-0.2-7
				c0-8.2,1.7-18.5,3.8-23.5L740.2,369.7"/>
			<path class="st1" d="M940.1,316c0.1,1,0.2,1.6,0.2,2.6c0,0.8,0,1.8-0.1,3.2c-0.4,15.8-0.4,17-0.4,20.4c0,5.2,0.7,7.9,2.8,10.2
				c2,2.3,5.2,3.5,9.4,3.5c5.8,0,10.5-2.1,14.1-6.2c2.2-2.6,3.7-5.5,5.6-11.4c-1.6-0.8-2.2-1.2-3.6-2.4c-0.7,3.5-1.3,5.4-2.4,7.8
				c-2.8,5.7-7.4,8.7-13.4,8.7c-2.6,0-4.8-0.7-6.2-1.9c-1.5-1.3-2.2-3-2.3-6c-0.1-1.1-0.1-2.4-0.1-3c0-2.2,0.2-9.1,0.3-15.1
				c0.2-6.3,0.3-8.8,0.7-10.5H940.1"/>
			<path class="st1" d="M940.1,369.9c0.1,1,0.2,1.6,0.2,2.6c0,0.8,0,1.8-0.1,3.2c-0.4,15.8-0.4,17-0.4,20.4c0,5.2,0.7,7.9,2.8,10.2
				c2,2.3,5.2,3.5,9.4,3.5c5.8,0,10.5-2.1,14.1-6.2c2.2-2.6,3.7-5.5,5.6-11.4c-1.6-0.8-2.2-1.2-3.6-2.4c-0.7,3.5-1.3,5.4-2.4,7.9
				c-2.8,5.7-7.4,8.7-13.4,8.7c-2.6,0-4.8-0.7-6.2-1.9c-1.5-1.4-2.2-3-2.3-6c-0.1-1.2-0.1-2.4-0.1-3c0-2.2,0.2-9.1,0.3-15.1
				c0.2-6.3,0.3-8.9,0.7-10.6H940.1"/>
			<path class="st1" d="M1228.8,338.2c0.6,0,0.8,0,1.6,0.3c2.2,0.6,4.6,1,7.6,1.2c-0.1,0.5-0.1,0.5-0.1,1.2
				c-0.1,1.2-0.2,2.2-0.2,3.3c0,2.9,0.6,5.2,1.6,6.9c1.9,3.2,5.9,5,11.2,5c8.8,0,14.7-4.8,14.7-11.8c0-3.6-1.2-6.1-4.7-9.9
				c-1.4,0.6-2,0.8-3.6,1c3.2,2.8,4.8,5.6,4.8,8.7c0,5.3-4.4,8.8-11.1,8.8c-3.1,0-5.4-0.8-7.1-2.1c-1.5-1.4-2.3-3.2-2.3-6
				c0-0.9,0.1-2.5,0.2-3.7c0.1-0.6,0.1-0.6,0.1-1c2.2,0.1,3,0.1,4.3,0.1c2.4,0,4.5-0.1,7.1-0.4c0.7-0.1,0.8-0.1,1.3-0.1l0.1-3.4
				c-1.9,0.5-5.6,0.8-9.2,0.8c-0.7,0-1.4,0-3.3-0.1c0.3-2.8,0.4-3.3,1.2-9c2.8,0.1,3.6,0.1,4.4,0.1c1.4,0,2.9-0.1,4.5-0.2
				c2.5-0.2,2.5-0.2,3.5-0.3l0.2-3.4c-2.2,0.6-5.4,0.9-9.2,0.9c-0.8,0-1.5,0-2.9-0.1c0.2-1.4,0.3-1.9,0.5-3c0.5-2.8,0.5-2.8,0.5-3.2
				c0.3-1.8,0.5-2.4,0.8-3.4l-4-0.4c0,0.2,0,0.3,0,0.4c0,1.3-0.4,4.6-1.2,9.4c-3.5-0.3-6.8-1.1-9-2l-0.4,3.3
				c0.7,0.2,0.9,0.2,1.6,0.4c2.9,0.7,5.1,1.1,7.4,1.3c-0.4,2.7-0.9,6.6-1.2,9c-3.8-0.4-6.9-1.1-8.9-2L1228.8,338.2"/>
			<path class="st1" d="M1239.8,375.3c-5.1,0-8.9-0.2-10.7-0.6l0,3.4c0.5-0.1,0.7-0.1,1.1-0.1c0.2,0,0.6,0,0.8,0
				c1.8,0.1,6.5,0.2,7.3,0.2c0.2,0,0.8-0.1,0.9-0.1c-0.3,0.5-0.3,0.5-0.4,0.8c-3.6,6.4-7.8,11.6-11.2,14.3l2.8,2.8
				c0.8-1.4,1.9-2.5,3.8-4.2c4.1-3.4,8-5.3,11.2-5.3c2.3,0,3.6,1.2,3.9,4c-3.3,1.4-5.8,2.8-7.4,4c-3.4,2.5-5.1,5.1-5.1,7.9
				c0,5.1,4.3,7.7,13.3,7.7c3.9,0,8.2-0.3,12.2-1c1-0.1,1.2-0.2,2-0.2l-0.4-3.8c-2.8,1.1-8.4,1.9-13.3,1.9c-7.1,0-10.2-1.4-10.2-4.8
				c0-3,2.6-5.4,9.4-8.6c0,0.6,0,0.7,0,1.5c0,3.1-0.2,6.1-0.3,7.2l3.4-0.1c-0.1-0.7-0.1-1.1-0.1-1.8c0-0.5,0-1.2,0.1-2.2
				c0-1,0-2.1,0-2.8c0-1.2,0-1.8-0.1-3.1c6.2-2.4,10.8-3.9,13.3-4.4l-1.6-3.5c-0.8,0.6-0.9,0.6-3.4,1.5c-2.2,0.8-5,1.8-8.7,3.3
				c-0.7-3.7-2.9-5.5-6.6-5.5c-2.6,0-5.2,0.8-7.6,2.4c-0.5,0.3-0.5,0.3-2.3,1.8c-0.1-0.1-0.1-0.1-0.1-0.2c0,0,0,0,0,0
				c0,0,0.1,0,0.1-0.1c0.1-0.1,0.3-0.2,0.7-0.5c0.2-0.2,1.2-1.3,1.7-1.9c1.8-2.1,3-4.1,4.5-7.1c6.1-0.2,11.3-0.6,16.5-1.3
				c0.9-0.1,1.2-0.2,2-0.2l-0.3-3.4c-2.8,0.9-7.8,1.5-15.8,1.9c-0.5,0-0.5,0-1.1,0.1c0.2-0.4,0.9-1.8,1.6-3.4c0.8-2,0.8-2,1.3-2.7
				l-4-0.7c-0.2,1.6-0.8,3.4-2.4,6.9H1239.8"/>
			<path class="st1" d="M1407.4,321.7c-3.4,0.1-7.3,0.2-12.1,0.4c-8,0.3-8,0.3-9.5,0.3c-0.8,0-1.1,0-2-0.1l0.2,3.7
				c3.3-0.6,13.5-1.1,23.5-1.2c0,1.9,0,1.9,0,2.6c0,0.6,0.1,1.1,0.1,1.3c0,1.9,0,2.1,0,2.8c-1.3-1.4-3.4-2.2-5.8-2.2
				c-5.1,0-8.8,3.5-8.8,8.2c0,4.6,3.4,7.9,8.2,7.9c2.7,0,4.8-0.9,6.3-2.7c0.6-0.7,0.9-1.2,1.3-2.4c-0.2,4.6-2,7.8-5.6,10.6
				c-2,1.5-4.2,2.5-8.1,3.8c1.1,1.1,1.4,1.6,2.2,3.1c3.7-1.4,5.8-2.6,7.9-4.1c4.3-3.2,6.7-7.8,6.7-13c0-2.2-0.3-3.8-1.2-5.9v-9.9
				c4-0.1,4.6-0.1,5.3-0.1c5.9,0,7.7,0.1,9.5,0.2v-3.6c-1.6,0.2-5.5,0.3-14.9,0.4v-0.6c0-3.9,0.1-4.6,0.2-6.2h-3.8
				c0.2,1.1,0.2,1.6,0.2,2.9L1407.4,321.7 M1407.2,336.3c0,3.5-2.4,5.9-5.8,5.9c-3.1,0-5.2-2.1-5.2-4.9c0-3,2.4-5.2,5.5-5.2
				c1.4,0,2.4,0.2,3.4,0.8C1406.6,333.6,1407.2,334.6,1407.2,336.3"/>
			<path class="st1" d="M1384.1,376.6c0.5,0,0.5,0,1.4-0.1c7.2-0.5,7.7-0.6,11.2-1.5c-2.8,2.4-2.8,2.4-4.5,4.4
				c-4.3,5.4-6.7,11.1-6.7,16.7c0,8.2,5.4,13.9,13.3,13.9c5.9,0,11.2-3.4,13.4-8.7c1.3-3.1,2-6.5,2-10.2c0-3.9-0.5-6.6-2-11.4
				c0.4,0.7,0.4,0.7,1,1.8c0.5,0.9,0.9,1.6,1.7,2.9c1.8,2.8,3.7,4.9,6.3,7.3c1.2,1,1.2,1,2.1,1.9l1.9-3.5c-0.8-0.3-1.1-0.5-1.8-1.2
				c-3.1-2.4-5.1-4.7-7.2-7.8c-2-2.9-3.9-6.6-4.7-9.1l-3.6,1.2c1.8,3.8,3.1,10.4,3.1,16.1c0,4.3-0.6,7.5-1.8,10.4
				c-1.8,4.1-5.9,6.9-10.3,6.9c-5.7,0-9.9-4.4-9.9-10.4c0-5.1,2.3-10.5,6.9-16c2.1-2.5,3.1-3.4,5.8-5.3l-2.1-3.2
				c-1.9,0.9-7.7,1.6-13.2,1.6c-1,0-1.5-0.1-2.3-0.2L1384.1,376.6"/>
			<path class="st1" d="M1586.4,326c0.8-0.1,1-0.1,3.1-0.1c5.6-0.1,9.9-0.4,13.5-0.9c1.2,2.6,1.6,3.4,2.8,5.7
				c-4.1,0.8-10.6,1.2-15.8,1.2c-2,0-2.9-0.1-4-0.2l0.1,3.4c0.9-0.1,1.1-0.1,3.5-0.2c8.6-0.2,12.8-0.6,17.6-1.4
				c1.6,2.8,3.9,6.1,5.3,7.7c-3.3-1.1-5.9-1.5-10.1-1.5c-4.8,0-8.6,0.8-11.3,2.3c-2.5,1.5-4,3.8-4,6.2c0,2.7,1.4,5,3.8,6.3
				c2.5,1.4,5.7,2.1,10.3,2.1c4.5,0,8.7-0.6,12.8-1.9c1.1-0.3,1.7-0.6,1.8-0.6c0.5-0.1,0.6-0.2,1.2-0.2l-0.7-4
				c-3,1.9-9.6,3.4-14.8,3.4c-6.9,0-10.7-1.9-10.7-5.2c0-3.4,4.6-5.7,11.8-5.7c2.3,0,4.8,0.2,6.6,0.5c2.4,0.4,3.6,0.8,5.5,1.9
				l2.9-2.1c-3.5-4.1-4.6-5.6-7.3-9.9c1.6-0.3,4-0.9,7.8-1.8c1.6-0.4,1.9-0.5,2.7-0.6l-0.4-3.4c-1.6,0.9-5.5,1.9-11.4,3.2
				c-0.6-1-2.2-4.4-2.9-5.7c1.8-0.2,4.9-0.8,9.6-1.9l-0.4-3.1c-2,0.8-5.6,1.6-10.2,2.3c-1.2-2.4-2.4-5.8-2.7-7.1l-3.8,0.6
				c0.4,0.8,0.5,0.9,3,6.9c-4.6,0.5-7.7,0.8-11.8,0.8c-1.7,0-2.6-0.1-3.8-0.2L1586.4,326 M1615.5,315.6c1.5,1.6,3.9,5.3,5.1,7.9
				l2.5-1.5c-1.5-2.9-2.9-5-5.2-7.8L1615.5,315.6 M1621.2,312.9c1.9,2.2,4,5.4,5.1,7.8l2.5-1.4c-1.7-3.1-2.9-5-5.2-7.8L1621.2,312.9
				"/>
			<path class="st1" d="M1592.6,369.7c0.3,0.8,0.4,1.1,0.8,3.1c1.3,6.4,2.2,9.9,3.7,14c-3.1,1.6-4.7,2.5-6.6,4.1
				c-2.9,2.4-4.4,5.3-4.4,8.5c0,3.9,2.1,6.7,6.2,8.2c2.4,0.9,6.2,1.4,11.1,1.4c3.5,0,5.9-0.1,11-0.6c2.8-0.3,2.8-0.3,3.7-0.3
				l-0.4-4.2c-3,1.1-8.6,1.7-14.3,1.7c-9.8,0-13.7-1.8-13.7-6.3c0-4.2,3.7-7.4,12.2-10.9c4.4-1.8,11.6-4.1,15.1-4.8l-1.5-3.8
				c-1,0.5-1.4,0.6-3.2,1.3c-7.8,2.7-9.2,3.2-12.1,4.4c-1.7-5-3.5-13.2-3.8-16.6L1592.6,369.7"/>
			<path class="st1" d="M1886,321.8c2.5,0.1,3.9,0.4,5.8,1.2c5.1,2.2,7.9,6.9,7.9,12.6c0,6.1-3.3,11.5-8.8,14
				c-2.4,1.1-4.7,1.8-8.4,2.4c0.9,1.2,1.2,1.7,1.8,3.3c3.4-0.8,5.4-1.3,7.6-2.3c7.2-3.1,11.4-9.5,11.4-17.2c0-4.8-1.7-9.1-4.9-12.2
				c-3.2-3.2-8.1-4.9-13.8-4.9c-6.7,0-12.1,2.2-16.1,6.6c-3.4,3.8-5.2,8.7-5.2,13.8c0,7,3.6,12.2,8.3,12.2c3.6,0,6.5-3,9.4-9.6
				C1883.3,336.4,1885.2,328.8,1886,321.8 M1882.4,321.9c-0.7,6.4-2.5,13.8-4.6,18.5c-2.2,4.9-4.2,7.2-6.2,7.2
				c-2.7,0-4.8-3.7-4.8-8.5c0-6.2,3.1-11.9,8.1-14.9C1877.2,322.8,1879.4,322.1,1882.4,321.9"/>
			<path class="st1" d="M1869.9,376.5c0.6,0,0.8,0,1.6,0.1c3.2,0.4,7.5,0.6,11,0.6c2.9,0,4.6-0.1,7.6-0.6c-0.5,0.3-0.6,0.3-0.9,0.5
				c-0.6,0.3-0.7,0.4-1.2,0.6c-2.2,1.2-3.5,2-6.7,4.2l2.6,2.1c4.9-3.6,9.5-6.3,12.6-7.6l-0.2-3.3c-2.8,0.7-6.8,1.1-12.7,1.1
				c-5.7,0-9.6-0.4-13.3-1.2L1869.9,376.5 M1872.9,389.3c-3.9,3.2-5.8,6.4-5.8,9.7c0,3.4,1.9,6,5.7,7.6c2.4,0.9,6.7,1.5,11.5,1.5
				c4.4,0,9.1-0.4,13.5-1.1c0.8-0.1,1.1-0.2,1.7-0.2l-0.4-4.1c-2.8,1.2-8.8,1.9-15,1.9c-3.9,0-7.2-0.4-9.2-1
				c-2.8-0.9-4.2-2.6-4.2-4.9c0-2.3,1.5-4.6,4.8-7.3L1872.9,389.3"/>
			<path class="st1" d="M2026.3,315.7c0.3,0.8,0.4,1,0.9,3.1c1.3,6.4,2.2,9.9,3.6,14c-3.1,1.6-4.6,2.5-6.6,4.1
				c-2.9,2.4-4.4,5.3-4.4,8.5c0,3.9,2.1,6.7,6.2,8.2c2.4,0.9,6.2,1.4,11.1,1.4c3.5,0,5.9-0.2,11.1-0.7c2.8-0.3,2.8-0.3,3.7-0.3
				l-0.4-4.1c-3,1.1-8.6,1.7-14.3,1.7c-9.8,0-13.7-1.8-13.7-6.3c0-4.1,3.7-7.4,12.2-10.8c4.4-1.8,11.6-4.1,15.1-4.9l-1.5-3.8
				c-1,0.5-1.4,0.7-3.2,1.3c-7.8,2.7-9.1,3.2-12.1,4.4c-1.7-5-3.5-13.2-3.8-16.5L2026.3,315.7"/>
			<path class="st1" d="M2026.3,369.7c0.3,0.8,0.4,1.1,0.9,3.1c1.3,6.4,2.2,9.9,3.6,14c-3.1,1.6-4.6,2.5-6.6,4.1
				c-2.9,2.4-4.4,5.3-4.4,8.5c0,3.9,2.1,6.7,6.2,8.2c2.4,0.9,6.2,1.4,11.1,1.4c3.5,0,5.9-0.1,11.1-0.6c2.8-0.3,2.8-0.3,3.7-0.3
				l-0.4-4.2c-3,1.1-8.6,1.7-14.3,1.7c-9.8,0-13.7-1.8-13.7-6.3c0-4.2,3.7-7.4,12.2-10.9c4.4-1.8,11.6-4.1,15.1-4.8l-1.5-3.8
				c-1,0.5-1.4,0.6-3.2,1.3c-7.8,2.7-9.1,3.2-12.1,4.4c-1.7-5-3.5-13.2-3.8-16.6L2026.3,369.7"/>
			<path class="st1" d="M2224.1,321.3c-5.1,0-8.9-0.2-10.7-0.6l-0.1,3.5c0.6-0.1,0.6-0.1,1.1-0.1c0.2,0,0.6,0,0.8,0
				c1.9,0.1,6.6,0.1,7.4,0.1c0.2,0,0.8-0.1,0.9-0.1c-0.3,0.5-0.3,0.5-0.4,0.8c-3.6,6.4-7.8,11.6-11.2,14.3l2.8,2.8
				c0.8-1.3,1.9-2.5,3.9-4.1c4.1-3.4,8-5.3,11.1-5.3c2.4,0,3.6,1.2,4,3.9c-3.4,1.4-5.8,2.8-7.5,4c-3.4,2.6-5.1,5.2-5.1,7.9
				c0,5.1,4.3,7.7,13.3,7.7c3.8,0,8.2-0.4,12.1-1c1-0.2,1.2-0.2,2-0.2l-0.4-3.9c-2.9,1.2-8.4,1.9-13.4,1.9c-7.1,0-10.1-1.4-10.1-4.8
				c0-3,2.6-5.3,9.4-8.5c0.1,0.6,0.1,0.7,0.1,1.5c0,3-0.1,6.1-0.3,7.2l3.4-0.1c-0.1-0.7-0.1-1.1-0.1-1.8c0-0.4,0-1.1,0.1-2.2
				c0.1-1,0.1-2.1,0.1-2.8c0-1.2,0-1.8-0.1-3.1c6.2-2.4,10.8-3.9,13.4-4.4l-1.6-3.5c-0.8,0.6-0.9,0.6-3.4,1.4
				c-2.2,0.8-5.1,1.9-8.7,3.3c-0.6-3.7-2.9-5.6-6.6-5.6c-2.6,0-5.2,0.9-7.6,2.4c-0.5,0.4-0.5,0.4-2.3,1.8c-0.1,0-0.1,0-0.1-0.1
				c0,0,0,0,0-0.1c0,0,0,0,0-0.1c0.1,0,0.3-0.2,0.7-0.5c0.2-0.1,1.2-1.3,1.7-1.9c1.8-2.1,3-4.1,4.5-7.1c6.1-0.2,11.3-0.6,16.5-1.3
				c0.9-0.2,1.2-0.2,2-0.2l-0.3-3.4c-2.8,0.9-7.8,1.5-15.8,1.9c-0.4,0-0.4,0-1.1,0c0.2-0.4,0.9-1.8,1.6-3.4c0.9-2.1,0.9-2.1,1.3-2.7
				l-4-0.7c-0.1,1.6-0.8,3.3-2.4,6.8H2224.1"/>
			<path class="st1" d="M2215.4,369.9c-0.1,1.1-0.2,1.6-0.7,4c-1.7,7.4-2.2,12.7-2.2,19.8c0,5.2,0.3,8.8,1.3,14.1
				c0.2,0.9,0.2,1.2,0.3,2l3.6-0.3c0-0.3,0-0.6,0-0.8c0-2.8,1.8-8.8,4.1-13.8l-2.4-1.1c-1.6,3.6-2.6,6.4-3.2,9.8
				c-0.2-2.6-0.3-5.6-0.3-9.5c0-6,0.5-10.4,1.5-15.6c0.8-3.4,1.4-5.9,2.1-8L2215.4,369.9 M2225.7,379.4c3.2,0.4,5.2,0.5,8,0.5
				c3.8,0,7.8-0.2,10.8-0.6c2.2-0.3,3.3-0.4,3.4-0.4l-0.2-3.6c-3.4,0.9-7.9,1.3-13.4,1.3c-3.9,0-6.3-0.2-8.5-0.8L2225.7,379.4
				 M2229.3,389.1c-3.1,3.6-4.4,6.2-4.4,9.3c0,1.9,0.5,3.4,1.5,4.6c2.2,2.6,5.8,3.8,11.5,3.8c3.4,0,6.8-0.3,10.2-1
				c1-0.1,1.1-0.2,1.8-0.2l-0.5-3.8c-2.7,1.1-7,1.8-11.5,1.8c-6.5,0-9.6-1.8-9.6-5.5c0-2.2,1.2-4.6,3.8-7.4L2229.3,389.1"/>
			<path class="st1" d="M2435.4,324.4c0.3-0.1,0.6-0.1,0.8-0.1c0.1,0,0.4,0,0.9,0.1c4,0.1,6.2,0.2,6.8,0.2h2
				c-0.2,3.6-0.2,3.9-0.3,7.6c-7.2,3.1-11.6,8.8-11.6,14.9c0,4.4,2.7,7.6,6.4,7.6c3.5,0,7.3-2.1,11.1-6.1c3.9-3.9,6.6-8.2,9.5-15
				c5.4,1.4,8.2,4.4,8.2,8.7c0,4.4-3.1,8.1-8.6,10c-2.4,0.9-4.6,1.2-7.5,1.4c0.9,1.3,1.1,1.9,1.6,3.3c4.5-0.5,7.4-1.3,10.2-2.8
				c5.2-2.7,7.9-6.7,7.9-11.6c0-5.9-3.9-10.1-10.8-11.7c0.9-2.4,1.4-3.7,1.6-4l-3.4-1.1c-0.2,1.5-0.6,3-1.2,4.5
				c-1.2-0.1-1.8-0.1-2.9-0.1c-2.6,0-4.9,0.3-7.4,1c0-2.5,0-2.5,0.3-6.7c4.7-0.1,12.2-1,17.7-2c1-0.1,1.1-0.1,1.8-0.2l-0.2-3.5
				c-3.8,1.4-10.9,2.4-19.1,2.8c0.4-3.9,0.6-5.6,1.1-7l-3.9-0.2c0.1,0.4,0.1,0.7,0.1,0.8c0,0.4-0.1,2.3-0.2,2.9
				c-0.2,2.6-0.2,2.6-0.2,3.8c-0.9,0.1-1.1,0.1-1.2,0.1c-4.6,0-7.2-0.2-9.3-0.8L2435.4,324.4 M2445.5,335.3c0,6.1,0.3,9.7,1,13.6
				c-2.2,1.8-3.9,2.6-5.8,2.6c-2.1,0-3.6-1.8-3.6-4.6c0-2.5,1.1-5.1,3-7.4C2441.6,337.8,2443.1,336.7,2445.5,335.3 M2449.2,346.8
				c0-0.2,0-0.5,0-0.5c0-0.3,0-0.4,0-0.7c-0.5-4.1-0.5-5-0.6-11.4c2.3-0.8,4.6-1.1,6.9-1.1c0.6,0,0.8,0,2.4,0.1
				c-2.3,5.2-4.4,8.8-7.6,12.5c-0.4,0.4-0.4,0.5-0.9,1.3L2449.2,346.8"/>
			<path class="st1" d="M2436.2,382.5c0.8-0.1,1-0.2,1.9-0.2c6.6-0.1,12.8-0.6,17.8-1.3c0.3,0.5,0.3,0.6,0.8,1.6
				c2.2,4.2,3.4,6.2,6,9.8c-2.1-1.1-6.1-1.8-10.3-1.8c-4.1,0-7.1,0.6-9.7,1.9c-3.5,1.7-5.6,4.8-5.6,8.1c0,2,0.8,3.9,2.2,5.5
				c2.3,2.4,6.9,3.8,13,3.8c4.9,0,9.7-0.9,14.7-2.7l-0.6-3.9c-3.8,1.9-9.2,3.2-14.2,3.2c-4.3,0-7.9-0.8-9.8-2.3
				c-1.2-1-1.9-2.4-1.9-3.9c0-1.8,1.1-3.6,2.7-4.6c2.2-1.4,5.3-2.1,9.5-2.1c3.4,0,6.2,0.4,8.8,1.3c1.4,0.5,2.1,0.9,3.4,2.1l3.4-1.9
				c-3.5-4.6-7.2-10.6-9-14.5c0.5-0.1,0.5-0.1,1.7-0.4c3.1-0.6,3.8-0.8,6.8-1.6c1.5-0.4,1.9-0.5,2.9-0.7l-0.5-3.6
				c-2.7,1.2-7.2,2.4-12.1,3.2c-0.5-1-0.6-1.2-1.8-4.4c-1.2-3.2-1.2-3.2-1.4-4.5l-4,0.6c0.5,0.9,0.8,1.6,1.3,2.9
				c0.9,2.2,1.7,4.2,2.4,6c-4.7,0.6-10.3,1-14.9,1c-1.7,0-2.6,0-3.9-0.2L2436.2,382.5"/>
			<line class="st4" x1="1089.7" y1="396.3" x2="1109.5" y2="396.3"/>
			<line class="st4" x1="1090.3" y1="342.4" x2="1110.1" y2="342.4"/>
			<line class="st4" x1="1736.2" y1="342.4" x2="1756" y2="342.4"/>
			<line class="st4" x1="1732.7" y1="396.3" x2="1752.5" y2="396.3"/>
			<path class="st1" d="M332.9,678.3c0,2.7,2.2,5,5,5s5-2.2,5-5s-2.2-5-5-5S332.9,675.6,332.9,678.3"/>
			<path class="st1" d="M984.4,752.7c0,2.7,2.2,5,5,5s5-2.2,5-5s-2.2-5-5-5S984.4,750,984.4,752.7"/>
			<path class="st1" d="M1630.7,678.3c0,2.7,2.2,5,5,5c2.7,0,5-2.2,5-5s-2.2-5-5-5C1632.9,673.3,1630.7,675.6,1630.7,678.3"/>
			<path class="st1" d="M2259.7,678.3c0,2.7,2.2,5,5,5s5-2.2,5-5s-2.2-5-5-5S2259.7,675.6,2259.7,678.3"/>
			<path class="st1" d="M332.9,560.3c0,2.7,2.2,5,5,5s5-2.2,5-5s-2.2-5-5-5S332.9,557.5,332.9,560.3"/>
			<path class="st1" d="M984.4,560.3c0,2.7,2.2,5,5,5s5-2.2,5-5s-2.2-5-5-5S984.4,557.5,984.4,560.3"/>
			<path class="st1" d="M1630.7,560.3c0,2.7,2.2,5,5,5c2.7,0,5-2.2,5-5s-2.2-5-5-5C1632.9,555.3,1630.7,557.5,1630.7,560.3"/>
			<path class="st1" d="M2259.7,560.3c0,2.7,2.2,5,5,5s5-2.2,5-5s-2.2-5-5-5S2259.7,557.5,2259.7,560.3"/>
			<path class="st1" d="M332.9,204.8c0,2.7,2.2,5,5,5s5-2.2,5-5s-2.2-5-5-5S332.9,202,332.9,204.8"/>
			<path class="st1" d="M984.4,229.6c0,2.7,2.2,5,5,5s5-2.2,5-5s-2.2-5-5-5S984.4,226.8,984.4,229.6"/>
			<path class="st1" d="M1630.7,204.8c0,2.7,2.2,5,5,5c2.7,0,5-2.2,5-5s-2.2-5-5-5C1632.9,199.8,1630.7,202,1630.7,204.8"/>
			<path class="st1" d="M2259.7,180c0,2.7,2.2,5,5,5s5-2.2,5-5s-2.2-5-5-5S2259.7,177.2,2259.7,180"/>
			<line class="st5" x1="77.7" y1="149.7" x2="77.7" y2="807.8"/>
			<path class="st1" d="M120.3,127.7c-0.2-0.1-0.5-0.2-0.7-0.2c-0.4,0-0.9,0.1-1.1,0.5c-0.2,0.3-10.1,15.6-29.1,15.6H73.7
				c-0.8,0-1.4,0.5-1.4,1.3v8.9v1.4h12.1c30.6,0,36.4-25.5,36.5-25.8c0-0.1,0.1-0.3,0.1-0.5C121,128.4,120.7,128,120.3,127.7"/>
			<path class="st1" d="M120.3,829.8c0.4-0.3,0.7-0.7,0.7-1.2c0-0.2-0.1-0.4-0.1-0.5c-0.1-0.3-6-25.8-36.5-25.8H72.3v1.4v8.9
				c0,0.8,0.6,1.3,1.4,1.3h15.8c18.9,0,28.9,15.3,29.1,15.6c0.2,0.4,0.7,0.5,1.1,0.5C119.8,830,120.1,829.9,120.3,829.8"/>
		</g>
	</g>
</g>
<g id="レイヤー_2">
</g>
</svg>
