<?xml version="1.0" encoding="utf-8"?>
<!-- Generator: Adobe Illustrator 26.5.0, SVG Export Plug-In . SVG Version: 6.00 Build 0)  -->
<svg version="1.1" id="レイヤー_1" xmlns="http://www.w3.org/2000/svg" xmlns:xlink="http://www.w3.org/1999/xlink" x="0px"
	 y="0px" viewBox="0 0 2590 920" style="enable-background:new 0 0 2590 920;" xml:space="preserve">
<style type="text/css">
	.st0{fill:none;stroke:#FFFFFF;stroke-width:2.73;stroke-linejoin:bevel;}
	.st1{fill:#FFFFFF;}
	.st2{fill:none;stroke:#FFFFFF;stroke-width:4.46;stroke-linejoin:bevel;}
	.st3{fill:none;stroke:#FFFFFF;stroke-width:3.97;stroke-linejoin:bevel;}
	.st4{fill-rule:evenodd;clip-rule:evenodd;fill:#FFFFFF;}
	.st5{fill:none;stroke:#FFFFFF;stroke-width:3.72;stroke-linejoin:bevel;}
	.st6{fill:none;stroke:#FFFFFF;stroke-width:10.91;stroke-linejoin:bevel;}
	.st7{fill:none;stroke:#FFFFFF;stroke-width:13.64;stroke-linejoin:bevel;}
</style>
<g>
	<g>
		
			<image style="overflow:visible;" width="2624" height="868" xlink:href="80D20D534284A660.png"  transform="matrix(1 0 0 1 -17.0795 88.8694)">
		</image>
	</g>
	<g>
		<line class="st0" x1="246.1" y1="232.5" x2="2570.6" y2="232.5"/>
		<line class="st0" x1="246.1" y1="257.3" x2="2570.6" y2="257.3"/>
		<line class="st0" x1="246.1" y1="282.1" x2="2570.6" y2="282.1"/>
		<line class="st0" x1="246.1" y1="306.9" x2="2570.6" y2="306.9"/>
		<line class="st0" x1="246.1" y1="331.7" x2="2570.6" y2="331.7"/>
		<line class="st0" x1="246.1" y1="570.6" x2="2570.6" y2="570.6"/>
		<line class="st0" x1="246.1" y1="595.4" x2="2570.6" y2="595.4"/>
		<line class="st0" x1="246.1" y1="620.2" x2="2570.6" y2="620.2"/>
		<line class="st0" x1="246.1" y1="645" x2="2570.6" y2="645"/>
		<line class="st0" x1="246.1" y1="669.8" x2="2570.6" y2="669.8"/>
		<line class="st0" x1="246.1" y1="780.7" x2="2570.6" y2="780.7"/>
		<line class="st0" x1="246.1" y1="805.5" x2="2570.6" y2="805.5"/>
		<line class="st0" x1="246.1" y1="830.3" x2="2570.6" y2="830.3"/>
		<line class="st0" x1="246.1" y1="855.1" x2="2570.6" y2="855.1"/>
		<line class="st0" x1="246.1" y1="879.9" x2="2570.6" y2="879.9"/>
		<path class="st1" d="M101.9,811.9H71.9l-0.8,13.9h2.1c0.4-2.5,0.8-4.4,1.4-6c1.3-3.7,3.7-5.5,7.1-5.5c1.7,0,2.4,0.5,2.4,1.8v25.8
			c0,2.5,0,2.7-0.3,3.1c-0.4,0.5-1.4,0.7-4.2,0.7h-1.3v2.4h17.1v-2.4h-1.3c-2.8,0-3.8-0.2-4.2-0.7c-0.3-0.5-0.3-0.6-0.3-3.1V816
			c0-1.2,0.7-1.8,2.4-1.8c3,0,5.5,1.7,6.8,4.7c0.8,1.8,1.2,4,1.6,6.8h2.1L101.9,811.9 M125.4,836.7c0-7.5-4.2-12.8-10.3-12.8
			c-6.4,0-11.2,5.5-11.2,13c0,7,4.5,11.8,11.3,11.8c4.8,0,8.1-2.3,10.2-7.1l-1.8-0.9c-2.1,3.8-4.2,5.3-7.5,5.3c-2.6,0-4.4-1-5.7-3.3
			c-0.9-1.5-1.3-3.2-1.2-6H125.4 M109.3,834.6c0-1.5,0.2-2.6,0.7-4c1-3,2.6-4.5,5.1-4.5c3,0,5,2.7,5,6.7c0,1.4-0.5,1.8-2.1,1.8
			H109.3 M137.2,824.7l-8.7,0.5v2.1h1.8c1.9,0.1,2.1,0.4,2.1,2.5v12v1.2v1.2c0,0.8-0.1,1-0.3,1.3c-0.4,0.5-1.3,0.6-3.5,0.7h-0.2v1.8
			h12.7v-1.8H141c-3.4-0.1-3.8-0.4-3.8-2.2v-2.2v-5.2c0-2.4,0.3-4.7,0.9-5.8c1-2.2,3.3-3.8,5.4-3.8c1.3,0,2.8,0.7,3.6,1.8
			c0.8,1.1,1.1,2.6,1.1,5v8.1v2.4c-0.1,0.8-0.1,1-0.3,1.3c-0.4,0.5-1.4,0.6-3.5,0.7h-0.2v1.8h12.6v-1.8h-0.2
			c-3.3-0.1-3.8-0.4-3.8-2.2v-2.2V834c0-3.6-0.1-4.5-1-6.2c-1.2-2.4-3.8-3.8-6.8-3.8c-3.2,0-5.7,1.5-7.9,4.8V824.7 M170.3,823.9
			c-6.1,0-10.9,5.4-10.9,12.4c0,6.9,4.8,12.4,10.8,12.4s10.8-5.5,10.8-12.4C181,829.5,176.2,823.9,170.3,823.9 M170.3,826.1
			c3.5,0,5.5,3.7,5.5,10.2c0,6.7-2,10.3-5.5,10.3c-3.6,0-5.6-3.6-5.6-10.2C164.7,829.6,166.6,826.1,170.3,826.1 M192.6,824.7
			l-8.9,0.5v2.1h2c1.9,0.1,2.2,0.4,2.2,2.5v12v2.4c-0.1,0.8-0.1,1-0.3,1.3c-0.4,0.5-1.4,0.6-3.5,0.7H184v1.8h13.3v-1.8h-0.9
			c-3.4-0.1-3.8-0.4-3.8-2.2v-2.2v-0.5c0-8.4,3-14.8,6.9-15c-0.7,0.8-0.9,1.3-0.9,2.2c0,1.6,1.1,2.8,2.8,2.8c1.9,0,3.1-1.3,3.1-3.3
			c0-2.5-1.7-4-4.4-4c-3.1,0-5.9,2.5-7.5,6.9V824.7"/>
		<path class="st1" d="M130.2,601.5h-2.1l-11.5,29.2c-1.4,3.9-2.6,5.1-5.5,5.3h-0.2v2.3h13.2v-2.3h-1c-2.7,0-4-1-4-2.9
			c0-0.6,0.1-1.2,0.5-2.1l1.6-4.4h13.2l2.7,6.7c0.3,0.8,0.4,1.1,0.4,1.4c0,0.8-1.2,1.3-3.1,1.3h-2.1v2.3h15.5v-2.3h-0.7
			c-2.6,0-3-0.4-4.2-3.2L130.2,601.5 M127.7,609.7l5.6,14.2h-11.2L127.7,609.7 M157.6,601.4l-9.2,0.5v2.2h2.5c1.9,0,2.1,0.3,2.1,2.5
			v25.5v2.3c-0.1,0.8-0.1,1-0.3,1.3c-0.3,0.5-1.3,0.7-3.4,0.7h-0.4v1.8h13v-1.8h-0.4c-3.4-0.1-3.8-0.3-3.8-2.2v-2.2V601.4
			 M172.8,615v-9.9h-2c-0.5,6.5-2.7,9.8-6.8,10.1v2h4.1v12.8c0,3.5,0.1,4.8,0.6,5.9c0.8,2.1,2.8,3.2,5.7,3.2c4.5,0,7.4-3.4,7.4-8.7
			c0-0.3,0-0.6,0-1.1h-2.1c-0.1,4.5-1.4,6.8-3.9,6.8c-1.1,0-2.1-0.6-2.5-1.5c-0.3-0.7-0.5-2-0.5-3.8v-13.6h7.4V615H172.8
			 M195.5,614.2c-6.1,0-10.9,5.5-10.9,12.5c0,6.8,4.8,12.3,10.8,12.3s10.8-5.5,10.8-12.4C206.2,619.8,201.4,614.2,195.5,614.2
			 M195.5,616.4c3.5,0,5.5,3.6,5.5,10.2c0,6.6-2,10.2-5.6,10.2c-3.6,0-5.5-3.6-5.5-10.2C189.8,619.9,191.7,616.4,195.5,616.4"/>
		<path class="st1" d="M44.2,259h-1.9l-2,3c-2.4-2.2-5.6-3.5-9.1-3.5c-6.6,0-10.9,4.2-10.9,10.5c0,5.5,2.7,8.1,10.1,10l4.8,1.2
			c3.7,1,4.1,1,5.1,1.9c1.5,1.1,2.3,2.8,2.3,4.8c0,2-0.8,3.6-2.2,5c-1.6,1.4-3.3,2-6,2c-3.7,0-6.4-1.1-8.7-3.8
			c-2.1-2.3-3.1-4.7-3.9-8.6h-2.1l0.2,14.2h1.9l2.2-3.4c3.4,2.8,6.1,3.8,10.5,3.8c7.4,0,12.1-4.3,12.1-11c0-3.1-1-5.8-3-7.6
			c-1.4-1.3-3.3-2.1-7.3-3.1l-5.4-1.4c-4.4-1.1-6.5-3.1-6.5-6.1c0-3.5,2.8-5.9,7.1-5.9c3.5,0,6.4,1.5,8.4,4.3c1.4,2.1,2.4,4.2,3,6.7
			h2.1L44.2,259 M61.5,271.4c-6.1,0-10.9,5.4-10.9,12.4c0,6.9,4.8,12.4,10.8,12.4s10.8-5.5,10.8-12.4
			C72.2,276.9,67.4,271.4,61.5,271.4 M61.5,273.5c3.5,0,5.4,3.6,5.4,10.2c0,6.6-1.9,10.2-5.5,10.2s-5.6-3.6-5.6-10.2
			C55.8,277,57.7,273.5,61.5,273.5 M83.9,272.1l-8.6,0.5v2.1h1.8c1.9,0.1,2.1,0.4,2.1,2.5v22.1v2.4c-0.1,0.7-0.1,1-0.3,1.2
			c-0.3,0.5-1.3,0.6-3.4,0.7h-0.2v1.8h13v-1.8h-0.5c-3.4-0.1-3.8-0.4-3.8-2.2v-2.2v-7.2c1.7,2.9,3.5,4,6.6,4c3.1,0,5.6-1.3,7.4-3.8
			c1.8-2.4,2.8-5.5,2.8-8.8s-1-6.3-2.9-8.7c-1.9-2.4-4.1-3.6-6.9-3.6c-3.1,0-5.2,1.3-6.9,4.3V272.1 M89.9,274.1
			c3.5,0,5.5,3.5,5.5,9.3c0,6.4-2,10.1-5.6,10.1s-5.9-3.7-5.9-9.5C83.9,277.8,86.1,274.1,89.9,274.1 M112.4,272.1l-8.9,0.5v2.1h2
			c1.9,0.1,2.2,0.4,2.2,2.5v12v2.4c-0.1,0.8-0.1,1-0.3,1.3c-0.4,0.5-1.4,0.6-3.5,0.7h-0.2v1.8h13.3v-1.8h-0.9
			c-3.4-0.1-3.8-0.4-3.8-2.1v-2.2v-0.5c0-8.4,3-14.8,6.9-15c-0.7,0.8-0.9,1.3-0.9,2.2c0,1.6,1.1,2.8,2.8,2.8c1.9,0,3.1-1.4,3.1-3.4
			c0-2.4-1.7-4-4.4-4c-3.1,0-5.9,2.5-7.5,6.9V272.1 M146.9,279.3c0-3.1-0.5-4.8-2-5.9c-1.6-1.4-4.1-2-7.3-2c-5.6,0-9.7,2.6-9.7,6.3
			c0,1.9,1.1,3.1,2.9,3.1c1.6,0,2.7-1.1,2.7-2.6c0-0.6-0.2-1.4-0.8-2c-0.3-0.4-0.4-0.5-0.4-0.7c0-1,2-1.9,4.4-1.9
			c1.6,0,3.4,0.5,4.1,1.2c1,0.8,1.3,2,1.3,4.2v2c-5.2,0.9-6.9,1.3-9.3,2.2c-4.4,1.6-6.4,3.9-6.4,7.1c0,3.6,2.8,5.9,7.2,5.9
			c3.5,0,6.5-1.4,8.7-3.9c0.8,2.5,2,3.5,4.4,3.5c2.2,0,4.6-1.5,4.6-2.9c0-0.4-0.2-0.6-0.5-0.6c-0.2,0-0.4,0-0.8,0.2
			c-0.7,0.3-1,0.3-1.4,0.3c-1.4,0-1.9-0.9-1.9-3.4V279.3 M142.2,285.4c0,3-0.2,3.7-1,5c-1.2,1.9-3.5,3.1-5.7,3.1c-2.3,0-4-1.6-4-3.9
			c0-2.1,1.1-3.6,3.2-4.6c1.6-0.7,3.5-1.2,7.4-1.9V285.4 M162.1,272.1l-8.6,0.5v2.1h1.8c1.9,0.1,2.1,0.4,2.1,2.5v12v1.2v1.1
			c-0.1,0.8-0.1,1-0.3,1.3c-0.3,0.5-1.3,0.6-3.4,0.7h-0.2v1.8h12.6v-1.8h-0.2c-3.4-0.1-3.8-0.4-3.8-2.1v-2.2v-5.2
			c0-2.4,0.4-4.7,0.9-5.8c1-2.2,3.3-3.8,5.4-3.8c1.3,0,2.8,0.7,3.6,1.8c0.8,1.1,1.1,2.6,1.1,5v8.1v2.4c0,0.8-0.1,1-0.3,1.3
			c-0.4,0.5-1.4,0.6-3.5,0.7h-0.2v1.8h12.7v-1.8h-0.2c-3.3-0.1-3.8-0.4-3.8-2.1v-2.2v-7.9c0-3.6-0.1-4.5-1-6.2
			c-1.2-2.4-3.8-3.9-6.8-3.9c-3.2,0-5.7,1.5-7.9,4.8V272.1 M195.3,271.4c-6.1,0-10.9,5.4-10.9,12.4c0,6.9,4.8,12.4,10.8,12.4
			s10.8-5.5,10.8-12.4C206,276.9,201.2,271.4,195.3,271.4 M195.3,273.5c3.5,0,5.5,3.6,5.5,10.2c0,6.6-2,10.2-5.5,10.2
			c-3.6,0-5.6-3.6-5.6-10.2C189.6,277,191.5,273.5,195.3,273.5"/>
		<line class="st2" x1="248.4" y1="779.3" x2="248.4" y2="881.3"/>
		<line class="st2" x1="1112.4" y1="779.3" x2="1112.4" y2="881.3"/>
		<line class="st2" x1="1460.5" y1="779.3" x2="1460.5" y2="881.3"/>
		<line class="st2" x1="2034.5" y1="779.3" x2="2034.5" y2="881.3"/>
		<line class="st2" x1="2568.4" y1="779.3" x2="2568.4" y2="881.3"/>
		<line class="st2" x1="248.4" y1="569.3" x2="248.4" y2="780.7"/>
		<line class="st2" x1="1112.4" y1="569.3" x2="1112.4" y2="671.2"/>
		<line class="st2" x1="1460.5" y1="569.3" x2="1460.5" y2="671.2"/>
		<line class="st2" x1="2034.5" y1="569.3" x2="2034.5" y2="671.2"/>
		<line class="st2" x1="2568.4" y1="569.3" x2="2568.4" y2="671.2"/>
		<line class="st2" x1="248.4" y1="231.1" x2="248.4" y2="570.6"/>
		<line class="st2" x1="1112.4" y1="231.1" x2="1112.4" y2="333"/>
		<line class="st2" x1="1460.5" y1="231.1" x2="1460.5" y2="333"/>
		<line class="st2" x1="2034.5" y1="231.1" x2="2034.5" y2="333"/>
		<line class="st2" x1="2568.4" y1="231.1" x2="2568.4" y2="333"/>
		<line class="st3" x1="1898.7" y1="755.9" x2="1948.3" y2="755.9"/>
		<line class="st3" x1="1298.6" y1="694.6" x2="1348.2" y2="694.6"/>
		<line class="st3" x1="1298.6" y1="356.5" x2="1348.2" y2="356.5"/>
		<line class="st0" x1="503" y1="784" x2="503" y2="867.5"/>
		<line class="st0" x1="646.2" y1="796.4" x2="646.2" y2="873.7"/>
		<line class="st0" x1="735.6" y1="808.8" x2="735.6" y2="879.9"/>
		<line class="st0" x1="825.1" y1="796.4" x2="825.1" y2="879.9"/>
		<line class="st0" x1="968.3" y1="784" x2="968.3" y2="867.5"/>
		<line class="st0" x1="1157.6" y1="808.8" x2="1157.6" y2="889.2"/>
		<line class="st0" x1="1338.1" y1="839.5" x2="1338.1" y2="762.1"/>
		<line class="st0" x1="1503" y1="808.8" x2="1503" y2="889.2"/>
		<line class="st0" x1="1627.9" y1="821.2" x2="1627.9" y2="886.1"/>
		<line class="st0" x1="1705.9" y1="808.8" x2="1705.9" y2="879.9"/>
		<line class="st0" x1="1783.9" y1="796.4" x2="1783.9" y2="879.9"/>
		<line class="st0" x1="1908.8" y1="759.2" x2="1908.8" y2="842.7"/>
		<line class="st0" x1="2075.4" y1="784" x2="2075.4" y2="867.5"/>
		<line class="st0" x1="2191.2" y1="796.4" x2="2191.2" y2="873.7"/>
		<line class="st0" x1="2263.6" y1="808.8" x2="2263.6" y2="879.9"/>
		<line class="st0" x1="2335.9" y1="796.4" x2="2335.9" y2="879.9"/>
		<line class="st0" x1="532.5" y1="629.5" x2="532.5" y2="552"/>
		<line class="st0" x1="675.7" y1="641.9" x2="675.7" y2="570.6"/>
		<line class="st0" x1="765.2" y1="654.3" x2="765.2" y2="576.8"/>
		<line class="st0" x1="854.6" y1="641.9" x2="854.6" y2="561.3"/>
		<line class="st0" x1="997.8" y1="629.5" x2="997.8" y2="552"/>
		<line class="st0" x1="1187.1" y1="654.3" x2="1187.1" y2="570.6"/>
		<line class="st0" x1="1338.1" y1="691.5" x2="1338.1" y2="607.8"/>
		<line class="st0" x1="1532.5" y1="654.3" x2="1532.5" y2="570.6"/>
		<line class="st0" x1="1657.4" y1="666.7" x2="1657.4" y2="595.4"/>
		<line class="st0" x1="1735.4" y1="654.3" x2="1735.4" y2="589.2"/>
		<line class="st0" x1="1813.4" y1="641.9" x2="1813.4" y2="561.3"/>
		<line class="st0" x1="1908.8" y1="611.2" x2="1908.8" y2="688.4"/>
		<line class="st0" x1="2104.9" y1="629.5" x2="2104.9" y2="552"/>
		<line class="st0" x1="2220.7" y1="641.9" x2="2220.7" y2="570.6"/>
		<line class="st0" x1="2293.1" y1="654.3" x2="2293.1" y2="576.8"/>
		<line class="st0" x1="2365.4" y1="641.9" x2="2365.4" y2="561.3"/>
		<line class="st0" x1="532.5" y1="291.3" x2="532.5" y2="213.9"/>
		<line class="st0" x1="675.7" y1="303.7" x2="675.7" y2="232.5"/>
		<line class="st0" x1="765.2" y1="316.1" x2="765.2" y2="238.7"/>
		<line class="st0" x1="854.6" y1="303.7" x2="854.6" y2="223.2"/>
		<line class="st0" x1="997.8" y1="291.3" x2="997.8" y2="213.9"/>
		<line class="st0" x1="1187.1" y1="316.1" x2="1187.1" y2="232.5"/>
		<line class="st0" x1="1338.1" y1="353.3" x2="1338.1" y2="269.7"/>
		<line class="st0" x1="1532.5" y1="316.1" x2="1532.5" y2="232.5"/>
		<line class="st0" x1="1657.4" y1="328.5" x2="1657.4" y2="257.3"/>
		<line class="st0" x1="1735.4" y1="316.1" x2="1735.4" y2="251.1"/>
		<line class="st0" x1="1813.4" y1="303.7" x2="1813.4" y2="223.2"/>
		<line class="st0" x1="1908.8" y1="273" x2="1908.8" y2="350.3"/>
		<line class="st0" x1="2104.9" y1="291.3" x2="2104.9" y2="213.9"/>
		<line class="st0" x1="2220.7" y1="303.7" x2="2220.7" y2="232.5"/>
		<line class="st0" x1="2293.1" y1="316.1" x2="2293.1" y2="238.7"/>
		<line class="st0" x1="2365.4" y1="303.7" x2="2365.4" y2="223.2"/>
		<path class="st1" d="M532.9,772.7c-1.8-3.3-5.6-5.1-10.1-5.1c-3.4,0-7,1-10.6,2.9c-6.5,3.5-10.5,9.3-10.5,14.4
			c0,1.4,0.3,2.8,1,4.1c1.8,3.3,5.6,5,10.1,5c3.4,0,7-0.9,10.6-2.8c6.5-3.5,10.5-9.3,10.5-14.4C533.9,775.4,533.6,774,532.9,772.7"
			/>
		<path class="st1" d="M676,785.1c-1.8-3.3-5.6-5.1-10.1-5.1c-3.4,0-7,1-10.6,2.9c-6.5,3.5-10.5,9.3-10.5,14.4c0,1.4,0.3,2.8,1,4.1
			c1.8,3.3,5.6,5,10.1,5c3.4,0,7-0.9,10.6-2.8c6.5-3.5,10.5-9.3,10.5-14.4C677,787.8,676.7,786.4,676,785.1"/>
		<path class="st1" d="M765.5,797.5c-1.8-3.3-5.6-5.1-10.1-5.1c-3.4,0-7,1-10.6,2.9c-6.5,3.5-10.5,9.3-10.5,14.4
			c0,1.4,0.3,2.8,1,4.1c1.8,3.3,5.6,5,10.1,5c3.4,0,7-0.9,10.6-2.8c6.5-3.5,10.5-9.3,10.5-14.4C766.5,800.2,766.2,798.8,765.5,797.5
			"/>
		<path class="st1" d="M855,785.1c-1.8-3.3-5.6-5.1-10.1-5.1c-3.4,0-7,1-10.6,2.9c-6.5,3.5-10.5,9.3-10.5,14.4c0,1.4,0.3,2.8,1,4.1
			c1.8,3.3,5.6,5,10.1,5c3.4,0,7-0.9,10.6-2.8c6.5-3.5,10.5-9.3,10.5-14.4C856,787.8,855.7,786.4,855,785.1"/>
		<path class="st1" d="M998.2,772.7c-1.8-3.3-5.6-5.1-10.1-5.1c-3.4,0-7,1-10.6,2.9c-6.5,3.5-10.5,9.3-10.5,14.4
			c0,1.4,0.3,2.8,1,4.1c1.8,3.3,5.6,5,10.1,5c3.4,0,7-0.9,10.6-2.8c6.5-3.5,10.5-9.3,10.5-14.4C999.2,775.4,998.9,774,998.2,772.7"
			/>
		<path class="st1" d="M1187.5,797.5c-1.8-3.3-5.6-5.1-10.1-5.1c-3.4,0-7,1-10.6,2.9c-6.5,3.5-10.5,9.3-10.5,14.4
			c0,1.4,0.3,2.8,1,4.1c1.8,3.3,5.6,5,10.1,5c3.4,0,7-0.9,10.6-2.8c6.5-3.5,10.5-9.3,10.5-14.4
			C1188.4,800.2,1188.1,798.8,1187.5,797.5 M1183.2,804.2c-1.7,1.7-5.1,3.8-8.6,5.8s-7.1,3.5-9.5,4c-0.5,0.1-1,0.2-1.5,0.2
			c-1.6,0-2.8-0.6-3.5-1.9c-0.3-0.5-0.5-1.1-0.5-1.7c0-1.1,0.7-2.4,1.8-3.5c1.7-1.7,5-3.8,8.5-5.8s7.1-3.5,9.5-4
			c0.5-0.1,1-0.2,1.5-0.2c1.6,0,2.9,0.6,3.6,1.9c0.3,0.5,0.4,1.1,0.4,1.7C1184.9,801.8,1184.3,803,1183.2,804.2"/>
		<path class="st1" d="M1338.5,834.7c-1.8-3.3-5.6-5.1-10.1-5.1c-3.4,0-7,1-10.6,2.9c-6.5,3.5-10.5,9.3-10.5,14.4
			c0,1.4,0.3,2.8,1,4.1c1.8,3.3,5.6,5,10.1,5c3.4,0,7-0.9,10.6-2.8c6.5-3.5,10.5-9.3,10.5-14.4
			C1339.5,837.4,1339.2,836,1338.5,834.7 M1334.2,841.4c-1.7,1.7-5.1,3.8-8.6,5.8s-7.1,3.5-9.5,4c-0.5,0.1-1,0.2-1.5,0.2
			c-1.6,0-2.8-0.6-3.5-1.9c-0.3-0.5-0.5-1.1-0.5-1.7c0-1.1,0.7-2.4,1.8-3.5c1.7-1.7,5-3.8,8.5-5.8s7.1-3.5,9.5-4
			c0.5-0.1,1-0.2,1.5-0.2c1.6,0,2.9,0.6,3.6,1.9c0.3,0.5,0.4,1.1,0.4,1.7C1335.9,839,1335.3,840.2,1334.2,841.4"/>
		<path class="st1" d="M1532.9,797.5c-1.8-3.3-5.6-5.1-10.1-5.1c-3.4,0-7,1-10.6,2.9c-6.5,3.5-10.5,9.3-10.5,14.4
			c0,1.4,0.3,2.8,1,4.1c1.8,3.3,5.6,5,10.1,5c3.4,0,7-0.9,10.6-2.8c6.5-3.5,10.5-9.3,10.5-14.4
			C1533.9,800.2,1533.6,798.8,1532.9,797.5"/>
		<path class="st1" d="M1657.7,809.9c-1.8-3.3-5.6-5.1-10.1-5.1c-3.4,0-7,1-10.6,2.9c-6.5,3.5-10.5,9.3-10.5,14.4
			c0,1.4,0.3,2.8,1,4.1c1.8,3.3,5.6,5,10.1,5c3.4,0,7-0.9,10.6-2.8c6.5-3.5,10.5-9.3,10.5-14.4
			C1658.7,812.6,1658.4,811.2,1657.7,809.9"/>
		<path class="st1" d="M1735.8,797.5c-1.8-3.3-5.6-5.1-10.1-5.1c-3.4,0-7,1-10.6,2.9c-6.5,3.5-10.5,9.3-10.5,14.4
			c0,1.4,0.3,2.8,1,4.1c1.8,3.3,5.6,5,10.1,5c3.4,0,7-0.9,10.6-2.8c6.5-3.5,10.5-9.3,10.5-14.4
			C1736.8,800.2,1736.5,798.8,1735.8,797.5"/>
		<path class="st1" d="M1813.8,785.1c-1.8-3.3-5.6-5.1-10.1-5.1c-3.4,0-7,1-10.6,2.9c-6.5,3.5-10.5,9.3-10.5,14.4
			c0,1.4,0.3,2.8,1,4.1c1.8,3.3,5.6,5,10.1,5c3.4,0,7-0.9,10.6-2.8c6.5-3.5,10.5-9.3,10.5-14.4
			C1814.8,787.8,1814.5,786.4,1813.8,785.1"/>
		<path class="st1" d="M1938.7,747.9c-1.8-3.3-5.6-5.1-10.1-5.1c-3.4,0-7,1-10.6,2.9c-6.5,3.5-10.5,9.3-10.5,14.4
			c0,1.4,0.3,2.8,1,4.1c1.8,3.3,5.6,5,10.1,5c3.4,0,7-0.9,10.6-2.8c6.5-3.5,10.5-9.3,10.5-14.4
			C1939.7,750.5,1939.4,749.2,1938.7,747.9"/>
		<path class="st1" d="M2105.3,772.7c-1.8-3.3-5.6-5.1-10.1-5.1c-3.4,0-7,1-10.6,2.9c-6.5,3.5-10.5,9.3-10.5,14.4
			c0,1.4,0.3,2.8,1,4.1c1.8,3.3,5.6,5,10.1,5c3.4,0,7-0.9,10.6-2.8c6.5-3.5,10.5-9.3,10.5-14.4C2106.3,775.4,2106,774,2105.3,772.7"
			/>
		<path class="st1" d="M2221.1,785.1c-1.8-3.3-5.6-5.1-10.1-5.1c-3.4,0-7,1-10.6,2.9c-6.5,3.5-10.5,9.3-10.5,14.4
			c0,1.4,0.3,2.8,1,4.1c1.8,3.3,5.6,5,10.1,5c3.4,0,7-0.9,10.6-2.8c6.5-3.5,10.5-9.3,10.5-14.4
			C2222.1,787.8,2221.8,786.4,2221.1,785.1"/>
		<path class="st1" d="M2293.4,797.5c-1.8-3.3-5.6-5.1-10.1-5.1c-3.4,0-7,1-10.6,2.9c-6.5,3.5-10.5,9.3-10.5,14.4
			c0,1.4,0.3,2.8,1,4.1c1.8,3.3,5.6,5,10.1,5c3.4,0,7-0.9,10.6-2.8c6.5-3.5,10.5-9.3,10.5-14.4
			C2294.4,800.2,2294.1,798.8,2293.4,797.5"/>
		<path class="st1" d="M2365.8,785.1c-1.8-3.3-5.6-5.1-10.1-5.1c-3.4,0-7,1-10.6,2.9c-6.5,3.5-10.5,9.3-10.5,14.4
			c0,1.4,0.3,2.8,1,4.1c1.8,3.3,5.6,5,10.1,5c3.4,0,7-0.9,10.6-2.8c6.5-3.5,10.5-9.3,10.5-14.4
			C2366.8,787.8,2366.5,786.4,2365.8,785.1"/>
		<path class="st1" d="M532.9,624.6c-1.8-3.3-5.6-5.1-10.1-5.1c-3.4,0-7,1-10.6,2.9c-6.5,3.5-10.5,9.3-10.5,14.4
			c0,1.4,0.3,2.8,1,4.1c1.8,3.3,5.6,5,10.1,5c3.4,0,7-0.9,10.6-2.8c6.5-3.5,10.5-9.3,10.5-14.4C533.9,627.3,533.6,625.9,532.9,624.6
			"/>
		<path class="st1" d="M676,637c-1.8-3.3-5.6-5.1-10.1-5.1c-3.4,0-7,1-10.6,2.9c-6.5,3.5-10.5,9.3-10.5,14.4c0,1.4,0.3,2.8,1,4.1
			c1.8,3.3,5.6,5,10.1,5c3.4,0,7-0.9,10.6-2.8c6.5-3.5,10.5-9.3,10.5-14.4C677,639.7,676.7,638.3,676,637"/>
		<path class="st1" d="M765.5,649.4c-1.8-3.3-5.6-5.1-10.1-5.1c-3.4,0-7,1-10.6,2.9c-6.5,3.5-10.5,9.3-10.5,14.4
			c0,1.4,0.3,2.8,1,4.1c1.8,3.3,5.6,5,10.1,5c3.4,0,7-0.9,10.6-2.8c6.5-3.5,10.5-9.3,10.5-14.4C766.5,652.1,766.2,650.7,765.5,649.4
			"/>
		<path class="st1" d="M855,637c-1.8-3.3-5.6-5.1-10.1-5.1c-3.4,0-7,1-10.6,2.9c-6.5,3.5-10.5,9.3-10.5,14.4c0,1.4,0.3,2.8,1,4.1
			c1.8,3.3,5.6,5,10.1,5c3.4,0,7-0.9,10.6-2.8c6.5-3.5,10.5-9.3,10.5-14.4C856,639.7,855.7,638.3,855,637"/>
		<path class="st1" d="M998.2,624.6c-1.8-3.3-5.6-5.1-10.1-5.1c-3.4,0-7,1-10.6,2.9c-6.5,3.5-10.5,9.3-10.5,14.4
			c0,1.4,0.3,2.8,1,4.1c1.8,3.3,5.6,5,10.1,5c3.4,0,7-0.9,10.6-2.8c6.5-3.5,10.5-9.3,10.5-14.4C999.2,627.3,998.9,625.9,998.2,624.6
			"/>
		<path class="st1" d="M1187.5,649.4c-1.8-3.3-5.6-5.1-10.1-5.1c-3.4,0-7,1-10.6,2.9c-6.5,3.5-10.5,9.3-10.5,14.4
			c0,1.4,0.3,2.8,1,4.1c1.8,3.3,5.6,5,10.1,5c3.4,0,7-0.9,10.6-2.8c6.5-3.5,10.5-9.3,10.5-14.4
			C1188.4,652.1,1188.1,650.7,1187.5,649.4 M1183.2,656.1c-1.7,1.7-5.1,3.8-8.6,5.8s-7.1,3.5-9.5,4c-0.5,0.1-1,0.2-1.5,0.2
			c-1.6,0-2.8-0.6-3.5-1.9c-0.3-0.5-0.5-1.1-0.5-1.7c0-1.1,0.7-2.4,1.8-3.5c1.7-1.7,5-3.8,8.5-5.8s7.1-3.5,9.5-4
			c0.5-0.1,1-0.2,1.5-0.2c1.6,0,2.9,0.6,3.6,1.9c0.3,0.5,0.4,1.1,0.4,1.7C1184.9,653.8,1184.3,654.9,1183.2,656.1"/>
		<path class="st1" d="M1338.5,686.6c-1.8-3.3-5.6-5.1-10.1-5.1c-3.4,0-7,1-10.6,2.9c-6.5,3.5-10.5,9.3-10.5,14.4
			c0,1.4,0.3,2.8,1,4.1c1.8,3.3,5.6,5,10.1,5c3.4,0,7-0.9,10.6-2.8c6.5-3.5,10.5-9.3,10.5-14.4
			C1339.5,689.3,1339.2,687.9,1338.5,686.6 M1334.2,693.3c-1.7,1.7-5.1,3.8-8.6,5.8s-7.1,3.5-9.5,4c-0.5,0.1-1,0.2-1.5,0.2
			c-1.6,0-2.8-0.6-3.5-1.9c-0.3-0.5-0.5-1.1-0.5-1.7c0-1.1,0.7-2.4,1.8-3.5c1.7-1.7,5-3.8,8.5-5.8s7.1-3.5,9.5-4
			c0.5-0.1,1-0.2,1.5-0.2c1.6,0,2.9,0.6,3.6,1.9c0.3,0.5,0.4,1.1,0.4,1.7C1335.9,691,1335.3,692.2,1334.2,693.3"/>
		<path class="st1" d="M1532.9,649.4c-1.8-3.3-5.6-5.1-10.1-5.1c-3.4,0-7,1-10.6,2.9c-6.5,3.5-10.5,9.3-10.5,14.4
			c0,1.4,0.3,2.8,1,4.1c1.8,3.3,5.6,5,10.1,5c3.4,0,7-0.9,10.6-2.8c6.5-3.5,10.5-9.3,10.5-14.4
			C1533.9,652.1,1533.6,650.7,1532.9,649.4"/>
		<path class="st1" d="M1657.7,661.8c-1.8-3.3-5.6-5.1-10.1-5.1c-3.4,0-7,1-10.6,2.9c-6.5,3.5-10.5,9.3-10.5,14.4
			c0,1.4,0.3,2.8,1,4.1c1.8,3.3,5.6,5,10.1,5c3.4,0,7-0.9,10.6-2.8c6.5-3.5,10.5-9.3,10.5-14.4
			C1658.7,664.5,1658.4,663.1,1657.7,661.8"/>
		<path class="st1" d="M1735.8,649.4c-1.8-3.3-5.6-5.1-10.1-5.1c-3.4,0-7,1-10.6,2.9c-6.5,3.5-10.5,9.3-10.5,14.4
			c0,1.4,0.3,2.8,1,4.1c1.8,3.3,5.6,5,10.1,5c3.4,0,7-0.9,10.6-2.8c6.5-3.5,10.5-9.3,10.5-14.4
			C1736.8,652.1,1736.5,650.7,1735.8,649.4"/>
		<path class="st1" d="M1813.8,637c-1.8-3.3-5.6-5.1-10.1-5.1c-3.4,0-7,1-10.6,2.9c-6.5,3.5-10.5,9.3-10.5,14.4c0,1.4,0.3,2.8,1,4.1
			c1.8,3.3,5.6,5,10.1,5c3.4,0,7-0.9,10.6-2.8c6.5-3.5,10.5-9.3,10.5-14.4C1814.8,639.7,1814.5,638.3,1813.8,637"/>
		<path class="st1" d="M1938.7,599.8c-1.8-3.3-5.6-5.1-10.1-5.1c-3.4,0-7,1-10.6,2.9c-6.5,3.5-10.5,9.3-10.5,14.4
			c0,1.4,0.3,2.8,1,4.1c1.8,3.3,5.6,5,10.1,5c3.4,0,7-0.9,10.6-2.8c6.5-3.5,10.5-9.3,10.5-14.4
			C1939.7,602.5,1939.4,601.1,1938.7,599.8"/>
		<path class="st1" d="M2105.3,624.6c-1.8-3.3-5.6-5.1-10.1-5.1c-3.4,0-7,1-10.6,2.9c-6.5,3.5-10.5,9.3-10.5,14.4
			c0,1.4,0.3,2.8,1,4.1c1.8,3.3,5.6,5,10.1,5c3.4,0,7-0.9,10.6-2.8c6.5-3.5,10.5-9.3,10.5-14.4
			C2106.3,627.3,2106,625.9,2105.3,624.6"/>
		<path class="st1" d="M2221.1,637c-1.8-3.3-5.6-5.1-10.1-5.1c-3.4,0-7,1-10.6,2.9c-6.5,3.5-10.5,9.3-10.5,14.4c0,1.4,0.3,2.8,1,4.1
			c1.8,3.3,5.6,5,10.1,5c3.4,0,7-0.9,10.6-2.8c6.5-3.5,10.5-9.3,10.5-14.4C2222.1,639.7,2221.8,638.3,2221.1,637"/>
		<path class="st1" d="M2293.4,649.4c-1.8-3.3-5.6-5.1-10.1-5.1c-3.4,0-7,1-10.6,2.9c-6.5,3.5-10.5,9.3-10.5,14.4
			c0,1.4,0.3,2.8,1,4.1c1.8,3.3,5.6,5,10.1,5c3.4,0,7-0.9,10.6-2.8c6.5-3.5,10.5-9.3,10.5-14.4
			C2294.4,652.1,2294.1,650.7,2293.4,649.4"/>
		<path class="st1" d="M2365.8,637c-1.8-3.3-5.6-5.1-10.1-5.1c-3.4,0-7,1-10.6,2.9c-6.5,3.5-10.5,9.3-10.5,14.4c0,1.4,0.3,2.8,1,4.1
			c1.8,3.3,5.6,5,10.1,5c3.4,0,7-0.9,10.6-2.8c6.5-3.5,10.5-9.3,10.5-14.4C2366.8,639.7,2366.5,638.3,2365.8,637"/>
		<path class="st1" d="M532.9,286.4c-1.8-3.3-5.6-5.1-10.1-5.1c-3.4,0-7,1-10.6,2.9c-6.5,3.5-10.5,9.3-10.5,14.4
			c0,1.4,0.3,2.8,1,4.1c1.8,3.3,5.6,5,10.1,5c3.4,0,7-0.9,10.6-2.8c6.5-3.5,10.5-9.3,10.5-14.4C533.9,289.1,533.6,287.7,532.9,286.4
			"/>
		<path class="st1" d="M676,298.8c-1.8-3.3-5.6-5.1-10.1-5.1c-3.4,0-7,1-10.6,2.9c-6.5,3.5-10.5,9.3-10.5,14.4c0,1.4,0.3,2.8,1,4.1
			c1.8,3.3,5.6,5,10.1,5c3.4,0,7-0.9,10.6-2.8c6.5-3.5,10.5-9.3,10.5-14.4C677,301.5,676.7,300.1,676,298.8"/>
		<path class="st1" d="M765.5,311.2c-1.8-3.3-5.6-5.1-10.1-5.1c-3.4,0-7,1-10.6,2.9c-6.5,3.5-10.5,9.3-10.5,14.4
			c0,1.4,0.3,2.8,1,4.1c1.8,3.3,5.6,5,10.1,5c3.4,0,7-0.9,10.6-2.8c6.5-3.5,10.5-9.3,10.5-14.4C766.5,313.9,766.2,312.5,765.5,311.2
			"/>
		<path class="st1" d="M855,298.8c-1.8-3.3-5.6-5.1-10.1-5.1c-3.4,0-7,1-10.6,2.9c-6.5,3.5-10.5,9.3-10.5,14.4c0,1.4,0.3,2.8,1,4.1
			c1.8,3.3,5.6,5,10.1,5c3.4,0,7-0.9,10.6-2.8c6.5-3.5,10.5-9.3,10.5-14.4C856,301.5,855.7,300.1,855,298.8"/>
		<path class="st1" d="M998.2,286.4c-1.8-3.3-5.6-5.1-10.1-5.1c-3.4,0-7,1-10.6,2.9c-6.5,3.5-10.5,9.3-10.5,14.4
			c0,1.4,0.3,2.8,1,4.1c1.8,3.3,5.6,5,10.1,5c3.4,0,7-0.9,10.6-2.8c6.5-3.5,10.5-9.3,10.5-14.4C999.2,289.1,998.9,287.7,998.2,286.4
			"/>
		<path class="st1" d="M1187.5,311.2c-1.8-3.3-5.6-5.1-10.1-5.1c-3.4,0-7,1-10.6,2.9c-6.5,3.5-10.5,9.3-10.5,14.4
			c0,1.4,0.3,2.8,1,4.1c1.8,3.3,5.6,5,10.1,5c3.4,0,7-0.9,10.6-2.8c6.5-3.5,10.5-9.3,10.5-14.4
			C1188.4,313.9,1188.1,312.5,1187.5,311.2 M1183.2,318c-1.7,1.7-5.1,3.8-8.6,5.8s-7.1,3.5-9.5,4c-0.5,0.1-1,0.2-1.5,0.2
			c-1.6,0-2.8-0.6-3.5-1.9c-0.3-0.5-0.5-1.1-0.5-1.7c0-1.1,0.7-2.4,1.8-3.5c1.7-1.7,5-3.8,8.5-5.8c3.6-2,7.1-3.5,9.5-4
			c0.5-0.1,1-0.2,1.5-0.2c1.6,0,2.9,0.6,3.6,1.9c0.3,0.5,0.4,1.1,0.4,1.7C1184.9,315.6,1184.3,316.8,1183.2,318"/>
		<path class="st1" d="M1338.5,348.4c-1.8-3.3-5.6-5.1-10.1-5.1c-3.4,0-7,1-10.6,2.9c-6.5,3.5-10.5,9.3-10.5,14.4
			c0,1.4,0.3,2.8,1,4.1c1.8,3.3,5.6,5,10.1,5c3.4,0,7-0.9,10.6-2.8c6.5-3.5,10.5-9.3,10.5-14.4
			C1339.5,351.1,1339.2,349.7,1338.5,348.4 M1334.2,355.2c-1.7,1.7-5.1,3.8-8.6,5.8s-7.1,3.5-9.5,4c-0.5,0.1-1,0.2-1.5,0.2
			c-1.6,0-2.8-0.6-3.5-1.9c-0.3-0.5-0.5-1.1-0.5-1.7c0-1.1,0.7-2.4,1.8-3.5c1.7-1.7,5-3.8,8.5-5.8c3.6-2,7.1-3.5,9.5-4
			c0.5-0.1,1-0.2,1.5-0.2c1.6,0,2.9,0.6,3.6,1.9c0.3,0.5,0.4,1.1,0.4,1.7C1335.9,352.8,1335.3,354,1334.2,355.2"/>
		<path class="st1" d="M1532.9,311.2c-1.8-3.3-5.6-5.1-10.1-5.1c-3.4,0-7,1-10.6,2.9c-6.5,3.5-10.5,9.3-10.5,14.4
			c0,1.4,0.3,2.8,1,4.1c1.8,3.3,5.6,5,10.1,5c3.4,0,7-0.9,10.6-2.8c6.5-3.5,10.5-9.3,10.5-14.4
			C1533.9,313.9,1533.6,312.5,1532.9,311.2"/>
		<path class="st1" d="M1657.7,323.6c-1.8-3.3-5.6-5.1-10.1-5.1c-3.4,0-7,1-10.6,2.9c-6.5,3.5-10.5,9.3-10.5,14.4
			c0,1.4,0.3,2.8,1,4.1c1.8,3.3,5.6,5,10.1,5c3.4,0,7-0.9,10.6-2.8c6.5-3.5,10.5-9.3,10.5-14.4
			C1658.7,326.3,1658.4,324.9,1657.7,323.6"/>
		<path class="st1" d="M1735.8,311.2c-1.8-3.3-5.6-5.1-10.1-5.1c-3.4,0-7,1-10.6,2.9c-6.5,3.5-10.5,9.3-10.5,14.4
			c0,1.4,0.3,2.8,1,4.1c1.8,3.3,5.6,5,10.1,5c3.4,0,7-0.9,10.6-2.8c6.5-3.5,10.5-9.3,10.5-14.4
			C1736.8,313.9,1736.5,312.5,1735.8,311.2"/>
		<path class="st1" d="M1813.8,298.8c-1.8-3.3-5.6-5.1-10.1-5.1c-3.4,0-7,1-10.6,2.9c-6.5,3.5-10.5,9.3-10.5,14.4
			c0,1.4,0.3,2.8,1,4.1c1.8,3.3,5.6,5,10.1,5c3.4,0,7-0.9,10.6-2.8c6.5-3.5,10.5-9.3,10.5-14.4
			C1814.8,301.5,1814.5,300.1,1813.8,298.8"/>
		<path class="st1" d="M1938.7,261.6c-1.8-3.3-5.6-5.1-10.1-5.1c-3.4,0-7,1-10.6,2.9c-6.5,3.5-10.5,9.3-10.5,14.4
			c0,1.4,0.3,2.8,1,4.1c1.8,3.3,5.6,5,10.1,5c3.4,0,7-0.9,10.6-2.8c6.5-3.5,10.5-9.3,10.5-14.4
			C1939.7,264.3,1939.4,262.9,1938.7,261.6"/>
		<path class="st1" d="M2105.3,286.4c-1.8-3.3-5.6-5.1-10.1-5.1c-3.4,0-7,1-10.6,2.9c-6.5,3.5-10.5,9.3-10.5,14.4
			c0,1.4,0.3,2.8,1,4.1c1.8,3.3,5.6,5,10.1,5c3.4,0,7-0.9,10.6-2.8c6.5-3.5,10.5-9.3,10.5-14.4
			C2106.3,289.1,2106,287.7,2105.3,286.4"/>
		<path class="st1" d="M2221.1,298.8c-1.8-3.3-5.6-5.1-10.1-5.1c-3.4,0-7,1-10.6,2.9c-6.5,3.5-10.5,9.3-10.5,14.4
			c0,1.4,0.3,2.8,1,4.1c1.8,3.3,5.6,5,10.1,5c3.4,0,7-0.9,10.6-2.8c6.5-3.5,10.5-9.3,10.5-14.4
			C2222.1,301.5,2221.8,300.1,2221.1,298.8"/>
		<path class="st1" d="M2293.4,311.2c-1.8-3.3-5.6-5.1-10.1-5.1c-3.4,0-7,1-10.6,2.9c-6.5,3.5-10.5,9.3-10.5,14.4
			c0,1.4,0.3,2.8,1,4.1c1.8,3.3,5.6,5,10.1,5c3.4,0,7-0.9,10.6-2.8c6.5-3.5,10.5-9.3,10.5-14.4
			C2294.4,313.9,2294.1,312.5,2293.4,311.2"/>
		<path class="st1" d="M2365.8,298.8c-1.8-3.3-5.6-5.1-10.1-5.1c-3.4,0-7,1-10.6,2.9c-6.5,3.5-10.5,9.3-10.5,14.4
			c0,1.4,0.3,2.8,1,4.1c1.8,3.3,5.6,5,10.1,5c3.4,0,7-0.9,10.6-2.8c6.5-3.5,10.5-9.3,10.5-14.4
			C2366.8,301.5,2366.5,300.1,2365.8,298.8"/>
		<path class="st1" d="M295.7,780.6c-7.5,0-13.6,4.4-13.7,4.4c-5.8,4.3-8,9.3-8.9,12.8c-0.5,1.8-0.7,3.6-0.7,5.3
			c0,2.4,0.4,4.6,1.3,6.4c1.2,2.7,3.5,4.6,6.4,5.6c1.2,0.4,2.5,0.6,3.8,0.6c2.2,0,4.5-0.6,6.3-1.7c3.1-1.7,5-5.3,5-9.1
			c0-3.5-1.8-6.6-4.8-8.5c-2.1-1.4-4.1-1.8-5.8-1.8c-1.2,0-2.3,0.2-3.2,0.5c-1,0.4-2.7,1.4-3.5,2.1c0.3-1.9,1.5-4.8,2.6-6.3
			s3.3-3.6,5-4.5c2.5-1.4,5.7-2,9.1-2c10.1,0,15.1,8.1,15.1,24.8c0,9.2-3.5,18.1-6.4,23.9c-3.3,6.5-7.6,12.8-11.5,16.3
			c-10.3,9.4-20,13.9-20.1,13.9c0,0-1.5,0.9-1.1,2.4c0.3,1,1.2,1.2,1.8,1.2c0.1,0,0.4-0.1,0.5-0.1s11.4-4.7,20.4-11.7
			c5.1-3.7,9.6-7.6,13.6-11.9c3.6-3.9,6.6-8,9.1-12.2c4.4-7.4,6.8-15.2,6.8-21.8c0-8.2-2.2-15.1-6.3-19.9
			C311.9,783.5,304.9,780.6,295.7,780.6 M326.8,793.2c0,2.8,2.2,5,4.8,5s4.8-2.2,4.8-5s-2.2-5.1-4.8-5.1S326.8,790.4,326.8,793.2
			 M326.8,817.7c0,2.8,2.2,5.1,4.8,5.1s4.8-2.3,4.8-5.1s-2.2-5.1-4.8-5.1S326.8,814.9,326.8,817.7"/>
		<path class="st1" d="M333.3,639.2c-1.2-5.4-3.8-9.2-4.6-10.2c-3.2-4.2-7.1-7.1-11.8-8.4c-3.1-0.9-6.1-1-8.5-0.8
			c-1-6-2-11.8-2.9-17.2c5.4-6.1,9-11.9,11.3-16.1c3.4-6.5,4.6-11.1,4.6-11.3c1.7-5.2,2.1-12.8,1-21c-1-7.5-3.1-14.1-5.4-17.4
			c-1-1.4-2.1-2.1-3.1-2.1c-1.2,0-3.7,1.2-6.6,4c-2.3,2.2-5.5,6-8.1,12c-3,7-3.2,16.4-2.8,23.1c0.4,7.2,1.5,12.9,1.5,12.9
			c0,0.1,0.3,1.6,0.7,4.1c-0.2,0.2-0.5,0.4-0.7,0.7c-1,1-2.2,2.1-3.6,3.5c-0.9,0.9-1.8,1.8-2.8,2.7c-8.4,8.1-21.1,20.3-21.1,39.3
			c0,4.7,0.9,9,2.7,13c1.6,3.6,3.9,6.8,6.8,9.7c7.7,7.5,18.2,10.7,25.2,10.5c2.9-0.1,5.5-0.3,7.9-0.8c1.8,9.5,2.9,16.5,3,21.8
			c0,6.5-1.6,10.4-5.5,13.1c-2.4,1.7-5.2,2.7-8.3,2.8c-2.6,0.1-4.8-0.3-6.2-0.8h0c0,0-0.3-0.1-0.3-0.3c0-0.2,0.3-0.2,0.3-0.2h0
			c1.9-0.4,5.4-1.7,7.8-4.9c1.8-2.5,2.6-7.1,0.8-11c-1.1-2.4-3.6-5.3-9.2-5.7c-2.5-0.2-4.7,0.3-6.7,1.5c-1.8,1.1-3.3,2.7-4.3,4.7
			c-2.4,4.7-2,10.3,1.1,14.2c2.9,3.6,7.5,5.9,12.9,6.5c0.8,0.1,1.7,0.1,2.5,0.1c4.4,0,8.8-1.2,12.3-3.4c3.6-2.5,5.7-6.5,6.4-12.1
			c0.6-4.6,0.2-10.5-1.2-18.5c-0.4-2.1-0.9-5.1-1.5-8.8c5.7-1.9,9.8-5.4,13.6-11.3C333.8,651.5,334.7,645.5,333.3,639.2
			 M299.4,665.2c-4.6-1.2-9-3.7-12.7-7.2c-1.3-1.2-3.2-3.4-4.6-6.7c-1.4-3.1-2-6.5-2-10.1c0.1-4.7,1.4-9.4,3.9-14.2
			c2.9-5.5,7.4-11,13.4-16.3c1.4-1.3,2.8-2.5,4.1-3.8c0.8,4.2,1.6,8.9,2.5,13.7c-3.8,1.3-8.5,4.4-11.6,10c-3.5,6.5-3.4,12-2.6,15.4
			c0.9,4.4,3.4,8.2,6.9,10.2c0.9,0.6,5,2.7,6.8,2.1c0.4-0.1,0.6-0.3,0.8-0.7c0.5-1.2-0.5-1.8-2.1-2.7c-0.6-0.4-1.3-0.8-2-1.3
			c-3.3-2.5-4.7-6.9-3.7-11.2c0.6-2.4,1.8-4.5,3.7-6.2c1.7-1.5,3.7-2.6,6-3.3c2,11.2,4.1,22.2,5.7,30.5c0.1,0.7,0.3,1.3,0.4,2
			C307.9,666.4,303.5,666.3,299.4,665.2 M310.6,632.3c10.3-0.5,14.5,6.9,15.4,11.7c0.5,2.5,0.5,6.9-1.1,11.1
			c-1.2,3.2-3.6,7.2-8.7,9.2c-0.1-0.4-0.1-0.8-0.2-1.3C314.5,654.3,312.5,643.4,310.6,632.3 M303.3,561.9c1.8-5.7,4.5-8.9,6.5-10.6
			c1.7-1.5,3.4-2.2,4.3-2.2c0.1,0,0.3,0,0.4,0c0.5,0.1,1,0.7,1.4,1.6c2.3,4.3,1.6,10.9,0.2,15.3c-1.6,5.4-4.5,10.9-13.2,20.5
			c-0.2-1.1-0.3-2.1-0.5-3.1C301.1,575.1,301.5,567.9,303.3,561.9"/>
		<path class="st1" d="M333.3,301c-1.2-5.4-3.8-9.2-4.6-10.2c-3.2-4.2-7.1-7.1-11.8-8.4c-3.1-0.9-6.1-1-8.5-0.8
			c-1-6-2-11.8-2.9-17.2c5.4-6.1,9-11.9,11.3-16.1c3.4-6.5,4.6-11.1,4.6-11.3c1.7-5.2,2.1-12.8,1-21c-1-7.5-3.1-14.1-5.4-17.4
			c-1-1.4-2.1-2.1-3.1-2.1c-1.2,0-3.7,1.2-6.6,4c-2.3,2.2-5.5,6-8.1,12c-3,7-3.2,16.4-2.8,23.1c0.4,7.2,1.5,12.9,1.5,12.9
			c0,0.1,0.3,1.6,0.7,4.1c-0.2,0.2-0.5,0.4-0.7,0.7c-1,1-2.2,2.1-3.6,3.5c-0.9,0.9-1.8,1.8-2.8,2.7c-8.4,8.1-21.1,20.3-21.1,39.3
			c0,4.7,0.9,9,2.7,13c1.6,3.6,3.9,6.8,6.8,9.7c7.7,7.5,18.2,10.7,25.2,10.5c2.9-0.1,5.5-0.3,7.9-0.8c1.8,9.5,2.9,16.5,3,21.8
			c0,6.5-1.6,10.4-5.5,13.1c-2.4,1.7-5.2,2.7-8.3,2.8c-2.6,0.1-4.8-0.3-6.2-0.8h0c0,0-0.3-0.1-0.3-0.3c0-0.2,0.3-0.2,0.3-0.2h0
			c1.9-0.4,5.4-1.7,7.8-4.9c1.8-2.5,2.6-7.1,0.8-11c-1.1-2.4-3.6-5.3-9.2-5.7c-2.5-0.2-4.7,0.3-6.7,1.5c-1.8,1.1-3.3,2.7-4.3,4.7
			c-2.4,4.7-2,10.3,1.1,14.2c2.9,3.6,7.5,5.9,12.9,6.5c0.8,0.1,1.7,0.1,2.5,0.1c4.4,0,8.8-1.2,12.3-3.4c3.6-2.5,5.7-6.5,6.4-12.1
			c0.6-4.6,0.2-10.5-1.2-18.5c-0.4-2.1-0.9-5.1-1.5-8.8c5.7-1.9,9.8-5.4,13.6-11.3C333.8,313.3,334.7,307.3,333.3,301 M299.4,327
			c-4.6-1.2-9-3.7-12.7-7.2c-1.3-1.2-3.2-3.4-4.6-6.7c-1.4-3.1-2-6.5-2-10.1c0.1-4.7,1.4-9.4,3.9-14.2c2.9-5.5,7.4-11,13.4-16.3
			c1.4-1.3,2.8-2.5,4.1-3.8c0.8,4.2,1.6,8.9,2.5,13.7c-3.8,1.3-8.5,4.4-11.6,10c-3.5,6.5-3.4,12-2.6,15.4c0.9,4.4,3.4,8.2,6.9,10.2
			c0.9,0.6,5,2.7,6.8,2.1c0.4-0.1,0.6-0.3,0.8-0.7c0.5-1.2-0.5-1.8-2.1-2.7c-0.6-0.4-1.3-0.8-2-1.3c-3.3-2.5-4.7-6.9-3.7-11.2
			c0.6-2.4,1.8-4.5,3.7-6.2c1.7-1.5,3.7-2.6,6-3.3c2,11.2,4.1,22.2,5.7,30.5c0.1,0.7,0.3,1.3,0.4,2
			C307.9,328.2,303.5,328.1,299.4,327 M310.6,294.1c10.3-0.5,14.5,6.9,15.4,11.7c0.5,2.5,0.5,6.9-1.1,11.1c-1.2,3.2-3.6,7.2-8.7,9.2
			c-0.1-0.4-0.1-0.8-0.2-1.3C314.5,316.2,312.5,305.3,310.6,294.1 M303.3,223.7c1.8-5.7,4.5-8.9,6.5-10.6c1.7-1.5,3.4-2.2,4.3-2.2
			c0.1,0,0.3,0,0.4,0c0.5,0.1,1,0.7,1.4,1.6c2.3,4.3,1.6,10.9,0.2,15.3c-1.6,5.4-4.5,10.9-13.2,20.5c-0.2-1.1-0.3-2.1-0.5-3.1
			C301.1,236.9,301.5,229.7,303.3,223.7"/>
		<path class="st1" d="M381.1,847.3c-0.6-3.9-3-7.5-8-7.5c-5,0-7.8,3.1-8.3,3.7l0.4-31.8c0-0.8-0.6-1.4-1.4-1.4h-1.2
			c-0.8,0-1.4,0.6-1.4,1.4l0.5,59.6c0,0.8,0.6,1.4,1.4,1.4c0.2,0,0.6-0.1,0.8-0.2c0.4-0.2,6.8-3.4,12.2-9.4
			c3.8-4.3,5.3-9.1,5.3-13.2C381.3,848.9,381.2,848.1,381.1,847.3 M374.2,851.2c0,1.5-0.4,6.1-2.9,9.8c-1.7,2.6-5.1,5.3-6.9,6.7
			l0.3-19.3c0.2-0.9,1.7-3.8,5.7-3.8c3.6,0,3.9,3.4,3.9,5.5V851.2"/>
		<path class="st1" d="M381.1,612.4c-0.6-3.9-3-7.5-8-7.5c-5,0-7.8,3.1-8.3,3.7l0.4-31.8c0-0.8-0.6-1.4-1.4-1.4h-1.2
			c-0.8,0-1.4,0.6-1.4,1.4l0.5,59.6c0,0.8,0.6,1.4,1.4,1.4c0.2,0,0.6-0.1,0.8-0.2c0.4-0.2,6.8-3.4,12.2-9.4
			c3.8-4.3,5.3-9.1,5.3-13.2C381.3,614,381.2,613.2,381.1,612.4 M374.2,616.3c0,1.5-0.4,6.1-2.9,9.8c-1.7,2.6-5.1,5.3-6.9,6.7
			l0.3-19.3c0.2-0.9,1.7-3.8,5.7-3.8c3.6,0,3.9,3.4,3.9,5.5V616.3"/>
		<path class="st1" d="M381.1,274.2c-0.6-3.9-3-7.5-8-7.5c-5,0-7.8,3.1-8.3,3.7l0.4-31.8c0-0.8-0.6-1.4-1.4-1.4h-1.2
			c-0.8,0-1.4,0.6-1.4,1.4l0.5,59.6c0,0.8,0.6,1.4,1.4,1.4c0.2,0,0.6-0.1,0.8-0.2c0.4-0.2,6.8-3.4,12.2-9.4
			c3.8-4.3,5.3-9.1,5.3-13.2C381.3,275.8,381.2,275,381.1,274.2 M374.2,278.1c0,1.5-0.4,6.1-2.9,9.8c-1.7,2.6-5.1,5.3-6.9,6.7
			l0.3-19.3c0.2-0.9,1.7-3.8,5.7-3.8c3.6,0,3.9,3.4,3.9,5.5V278.1"/>
		<path class="st1" d="M438.3,812.6c-2.5,1.6-4.3,4.5-4.3,7.6c0,0.4,0,0.8,0.1,1.2c0.5,4.1,3.8,7.2,7.8,7.7h1.1c5,0,8.9-4,8.9-8.9
			v-0.6c0-0.4-0.1-1.1-0.2-1.5c-0.9-4.3-4.8-13.4-21.6-13.4c-21.6,0-24.1,18-24.1,24.4c0,11.8,1.5,26.6,26.3,26.6
			c9.8,0,17.5-5.8,17.9-16.4c0-0.5-0.3-0.8-0.8-0.8h-1.3c-0.4,0-0.8,0.4-0.8,0.8c-0.4,8.2-6.3,13.2-15,13.2
			c-8.6,0-12.8-4.7-12.8-13.4v-18.9c0-5.6,2.2-11.9,11-11.9c4.7,0,6.7,1.7,7.8,3.4C438.6,812.1,438.6,812.4,438.3,812.6"/>
		<path class="st1" d="M438.3,602.5c-2.5,1.6-4.3,4.5-4.3,7.6c0,0.4,0,0.8,0.1,1.2c0.5,4.1,3.8,7.2,7.8,7.7h1.1c5,0,8.9-4,8.9-8.9
			v-0.6c0-0.4-0.1-1.1-0.2-1.5c-0.9-4.3-4.8-13.4-21.6-13.4c-21.6,0-24.1,18-24.1,24.4c0,11.8,1.5,26.6,26.3,26.6
			c9.8,0,17.5-5.8,17.9-16.4c0-0.5-0.3-0.8-0.8-0.8h-1.3c-0.4,0-0.8,0.4-0.8,0.8c-0.4,8.2-6.3,13.2-15,13.2
			c-8.6,0-12.8-4.7-12.8-13.4v-18.9c0-5.6,2.2-11.9,11-11.9c4.7,0,6.7,1.7,7.8,3.4C438.6,602,438.6,602.3,438.3,602.5"/>
		<path class="st1" d="M438.3,264.3c-2.5,1.6-4.3,4.5-4.3,7.6c0,0.4,0,0.8,0.1,1.2c0.5,4.1,3.8,7.2,7.8,7.7h1.1c5,0,8.9-4,8.9-8.9
			v-0.6c0-0.4-0.1-1.1-0.2-1.5c-0.9-4.3-4.8-13.4-21.6-13.4c-21.6,0-24.1,18-24.1,24.4c0,11.8,1.5,26.6,26.3,26.6
			c9.8,0,17.5-5.8,17.9-16.4c0-0.5-0.3-0.8-0.8-0.8h-1.3c-0.4,0-0.8,0.4-0.8,0.8c-0.4,8.2-6.3,13.2-15,13.2
			c-8.6,0-12.8-4.7-12.8-13.4v-18.9c0-5.6,2.2-11.9,11-11.9c4.7,0,6.7,1.7,7.8,3.4C438.6,263.8,438.6,264.1,438.3,264.3"/>
		<path class="st1" d="M2473.4,847.1l-0.2-0.3c-0.1-0.1-0.3-0.3-0.6-0.7l-11.4-14.1c-0.3-0.3-0.2-1.1,0-1.5l10.1-15.3
			c0.1-0.2,0.2-0.5,0.2-0.7v-0.9c0-0.3-0.1-0.6-0.3-0.8l-16.1-21.7c0,0-0.8-1.2-1.8-0.3c-1,0.8-0.2,2.1-0.2,2.1l7.5,10.3
			c0.4,0.6,0.4,1.8,0,2.4l-10,15.3c-0.1,0.2-0.2,0.6-0.2,0.8v0.9c0,0.3,0.1,0.6,0.3,0.8l11.1,13.8c-0.4-0.1-1.3-0.3-2.5-0.3
			c-1.7,0-3.9,0.4-5.7,2c-2.2,2-3.4,4.8-3.4,7.2c0,1.4,0.3,2.8,1.1,3.9c2.1,3.2,9.5,12.6,9.5,12.6s0.9,1.1,1.8,0.4
			c0.9-0.7,0.7-1.6,0.4-2.1c-0.3-0.5-3.5-6.3-3.5-6.3s-0.7-1.4-0.7-3.2c0-1.3,0.4-2.9,1.7-4.2c1.2-1.2,2.6-1.6,3.9-1.6
			s2.4,0.4,3.2,0.9l3.9,2.5c0,0,1.2,0.6,1.8-0.3C2473.9,848,2473.7,847.6,2473.4,847.1"/>
		<path class="st1" d="M2473.4,637l-0.2-0.3c-0.1-0.1-0.3-0.3-0.6-0.7l-11.4-14.1c-0.3-0.3-0.2-1.1,0-1.5l10.1-15.3
			c0.1-0.2,0.2-0.5,0.2-0.7v-0.9c0-0.3-0.1-0.6-0.3-0.8l-16.1-21.7c0,0-0.8-1.2-1.8-0.3c-1,0.8-0.2,2.1-0.2,2.1l7.5,10.3
			c0.4,0.6,0.4,1.8,0,2.4l-10,15.3c-0.1,0.2-0.2,0.6-0.2,0.8v0.9c0,0.3,0.1,0.6,0.3,0.8l11.1,13.8c-0.4-0.1-1.3-0.3-2.5-0.3
			c-1.7,0-3.9,0.4-5.7,2c-2.2,2-3.4,4.8-3.4,7.2c0,1.4,0.3,2.8,1.1,3.9c2.1,3.2,9.5,12.6,9.5,12.6s0.9,1.1,1.8,0.4
			c0.9-0.7,0.7-1.6,0.4-2.1c-0.3-0.5-3.5-6.3-3.5-6.3s-0.7-1.4-0.7-3.2c0-1.3,0.4-2.9,1.7-4.2c1.2-1.2,2.6-1.6,3.9-1.6
			s2.4,0.4,3.2,0.9l3.9,2.5c0,0,1.2,0.6,1.8-0.3C2473.9,637.9,2473.7,637.5,2473.4,637"/>
		<path class="st1" d="M2473.4,298.8l-0.2-0.3c-0.1-0.1-0.3-0.3-0.6-0.7l-11.4-14.1c-0.3-0.3-0.2-1.1,0-1.5l10.1-15.3
			c0.1-0.2,0.2-0.5,0.2-0.7v-0.9c0-0.3-0.1-0.6-0.3-0.8l-16.1-21.7c0,0-0.8-1.2-1.8-0.3c-1,0.8-0.2,2.1-0.2,2.1l7.5,10.3
			c0.4,0.6,0.4,1.8,0,2.4l-10,15.3c-0.1,0.2-0.2,0.6-0.2,0.8v0.9c0,0.3,0.1,0.6,0.3,0.8l11.1,13.8c-0.4-0.1-1.3-0.3-2.5-0.3
			c-1.7,0-3.9,0.4-5.7,2c-2.2,2-3.4,4.8-3.4,7.2c0,1.4,0.3,2.8,1.1,3.9c2.1,3.2,9.5,12.6,9.5,12.6s0.9,1.1,1.8,0.4
			c0.9-0.7,0.7-1.6,0.4-2.1s-3.5-6.3-3.5-6.3s-0.7-1.4-0.7-3.2c0-1.3,0.4-2.9,1.7-4.2c1.2-1.2,2.6-1.6,3.9-1.6s2.4,0.4,3.2,0.9
			l3.9,2.5c0,0,1.2,0.6,1.8-0.3C2473.9,299.7,2473.7,299.3,2473.4,298.8"/>
		<path class="st4" d="M644.8,867.5l92.2,6.4v12.4l-92.2-6.4V867.5"/>
		<path class="st4" d="M1626.5,879.9l80.8-6.4v12.4l-80.8,6.4V879.9"/>
		<path class="st4" d="M2189.8,867.5l75.1,6.4v12.5l-75.1-6.4V867.5"/>
		<path class="st4" d="M674.3,564.2l92.2,6.4V583l-92.2-6.4V564.2"/>
		<path class="st4" d="M1656,589.4l80.8-6.4v12.4l-80.8,6.4V589.4"/>
		<path class="st4" d="M2219.3,564.2l75.1,6.4V583l-75.1-6.4V564.2"/>
		<path class="st4" d="M674.3,226.1l92.2,6.4v12.4l-92.2-6.4V226.1"/>
		<path class="st4" d="M1656,251.3l80.8-6.4v12.4l-80.8,6.4V251.3"/>
		<path class="st4" d="M2219.3,226l75.1,6.4v12.4l-75.1-6.4V226"/>
		<path class="st1" d="M499.8,402.8c0.4,0,0.6,0,0.8,0c0.1,0,0.5,0,0.9,0c4,0.1,6.2,0.2,6.8,0.2h2c-0.2,3.6-0.2,3.9-0.3,7.5
			c-7.2,3.2-11.6,8.8-11.6,14.9c0,4.4,2.7,7.6,6.5,7.6c3.5,0,7.3-2,11.1-6c3.9-4,6.6-8.2,9.5-15c5.4,1.4,8.2,4.4,8.2,8.7
			c0,4.4-3.2,8.1-8.6,10c-2.4,0.8-4.5,1.2-7.5,1.3c0.9,1.3,1.2,1.9,1.6,3.3c4.5-0.5,7.3-1.3,10.2-2.8c5.1-2.7,7.8-6.7,7.8-11.5
			c0-5.9-3.8-10.1-10.8-11.7c0.8-2.3,1.4-3.7,1.5-4l-3.5-1c-0.2,1.5-0.6,3-1.2,4.5c-1.2-0.1-1.9-0.2-2.9-0.2c-2.7,0-4.8,0.3-7.4,1
			c0.1-2.5,0.1-2.5,0.4-6.7c4.6-0.1,12.2-1,17.7-2c0.9-0.1,1.1-0.1,1.8-0.2l-0.2-3.5c-3.8,1.4-10.9,2.4-19,2.8c0.3-3.9,0.6-5.6,1-7
			l-3.9-0.2c0,0.3,0,0.6,0,0.8c0,0.3-0.1,2.3-0.1,2.8c-0.2,2.5-0.2,2.5-0.2,3.8c-0.9,0-1.1,0-1.2,0c-4.6,0-7.2-0.2-9.4-0.8
			L499.8,402.8 M509.9,413.8c0,6,0.3,9.7,1,13.5c-2.2,1.8-3.9,2.5-5.8,2.5c-2.2,0-3.6-1.8-3.6-4.5c0-2.5,1.1-5.2,3.1-7.5
			C506,416.3,507.5,415.1,509.9,413.8 M513.6,425.2c0-0.2,0-0.5,0-0.5c0-0.3,0-0.4-0.1-0.7c-0.4-4.1-0.5-5-0.5-11.4
			c2.3-0.8,4.7-1.2,7-1.2c0.5,0,0.8,0,2.4,0.1c-2.3,5.2-4.4,8.8-7.7,12.5c-0.4,0.4-0.5,0.5-1,1.3L513.6,425.2"/>
		<path class="st1" d="M498.2,459.4c0.4,0,0.8,0,0.8,0c0,0,0.1,0,0.2,0c2,0.1,2.4,0.1,4.1,0.1c1.9,0,2.5,0,3.5-0.1
			c-1.8,9.8-5.7,21.2-9.4,27.7l3.6,1.5c2.7-6.1,4.1-9.9,5.8-15.2c1.4-4.5,2.8-10.2,3.5-14.1c2.4-0.2,5.9-0.7,8.4-1.2
			c1-0.2,1-0.2,1.4-0.2l-0.2-3.5c-2.4,0.8-5.1,1.3-9,1.7c0.2-1.5,0.4-2.2,0.6-3.8c0.6-3.6,0.6-3.6,0.9-4.8l-3.9-0.4
			c0,2.2-0.1,3-1.1,9.2c-1.5,0.1-2,0.1-3,0.1c-2.7,0-4.7-0.1-6.2-0.5V459.4 M536,461.9c-3.8-0.1-4.5-0.1-5.5-0.1
			c-4.2,0-7.5,0.4-13.2,1.6l0.3,3.4c4.5-1.2,8-1.7,12.5-1.7c2.1,0,3.5,0.1,5.9,0.3L536,461.9 M517.8,472.7c-2.7,3.4-3.4,5-3.4,7.2
			c0,5,4.2,7.5,12.5,7.5c2.7,0,5.5-0.2,8.9-0.8c1.6-0.2,1.6-0.2,2.2-0.4l-0.4-3.8c-2.8,1-7.3,1.7-11,1.7c-5.7,0-8.8-1.6-8.8-4.6
			c0-1.2,0.5-2.5,1.2-3.5c0.3-0.6,0.5-0.7,1.5-1.9L517.8,472.7"/>
		<path class="st1" d="M643.8,404.3c0.9-0.1,1-0.1,3.1-0.2c5.6-0.1,9.6-0.3,13.5-0.9c1.2,2.7,1.5,3.2,2.8,5.7
			c-4.1,0.8-10.5,1.2-15.8,1.2c-2,0-2.9,0-4-0.1l0.1,3.3c0.9-0.1,1.1-0.1,3.5-0.2c9.3-0.3,12.6-0.5,17.5-1.5
			c1.8,3.1,3.8,6.1,5.3,7.7c-3.3-1-6-1.5-10.1-1.5c-9.5,0-15.2,3.2-15.2,8.7c0,2.6,1.3,4.8,3.8,6.2c2.5,1.5,5.7,2.1,10.3,2.1
			c4.5,0,8.7-0.6,12.8-1.8c2.3-0.7,2.3-0.7,3-0.9l-0.7-3.9c-3,1.8-9.6,3.3-14.8,3.3c-6.8,0-10.6-1.8-10.6-5.1
			c0-3.5,4.6-5.7,11.8-5.7c2.2,0,4.8,0.2,6.5,0.5c2.5,0.4,3.6,0.8,5.5,1.9l3-2.1c-3.8-4.5-4.4-5.2-7.3-10c1.8-0.3,4.3-0.9,7.8-1.8
			c1.7-0.5,1.8-0.5,2.7-0.7l-0.4-3.3c-2,1-4.8,1.8-11.5,3.1c-0.8-1.3-2.1-4-2.8-5.6c2.8-0.5,8.2-1.6,12.6-2.8l-0.3-3.2
			c-2.8,1.2-7.5,2.3-13.3,3.3c-1.2-2.7-2.2-5.2-2.7-7l-3.8,0.6c0.5,0.7,1.5,3,3,6.9c-4.6,0.5-7.6,0.7-11.8,0.7c-1.7,0-2.5,0-3.8-0.1
			L643.8,404.3"/>
		<path class="st1" d="M645.1,448.3c-0.1,1.2-0.2,1.7-0.7,4c-1.6,7.4-2.2,12.7-2.2,19.8c0,5.2,0.4,8.9,1.3,14.2c0.1,1,0.2,1.2,0.3,2
			l3.6-0.3c0-0.4,0-0.6,0-0.8c0-2.8,1.8-8.8,4-13.8l-2.4-1.2c-1.6,3.7-2.5,6.4-3.2,9.8c-0.2-2.7-0.3-5.6-0.3-9.5
			c0-6,0.4-10.4,1.5-15.7c0.8-3.4,1.3-5.8,2.1-8L645.1,448.3 M655.4,457.8c3.2,0.3,5.2,0.5,8,0.5c3.9,0,7.9-0.2,10.8-0.7
			c2.2-0.3,3.4-0.5,3.5-0.5l-0.2-3.5c-3.3,0.9-7.8,1.4-13.4,1.4c-3.9,0-6.4-0.2-8.5-0.8L655.4,457.8 M659.1,467.5
			c-3.1,3.5-4.3,6.2-4.3,9.3c0,1.8,0.5,3.3,1.5,4.6c2.1,2.6,5.8,3.8,11.4,3.8c3.4,0,6.8-0.3,10.2-1c1-0.2,1.1-0.2,1.8-0.2l-0.5-3.9
			c-2.7,1.1-6.9,1.8-11.5,1.8c-6.4,0-9.6-1.8-9.6-5.5c0-2.2,1.2-4.6,3.8-7.3L659.1,467.5"/>
		<path class="st1" d="M753.1,400.3c2.5,0.1,4,0.4,5.8,1.2c5,2.2,8,6.8,8,12.5c0,6.1-3.3,11.5-8.8,14c-2.4,1.1-4.7,1.8-8.4,2.3
			c1,1.2,1.2,1.7,1.8,3.4c3.5-0.8,5.4-1.4,7.6-2.3c7.2-3.1,11.4-9.5,11.4-17.2c0-4.8-1.7-9.1-4.8-12.2c-3.2-3.2-8.2-5-13.8-5
			c-6.7,0-12.2,2.2-16.2,6.6c-3.3,3.8-5.2,8.7-5.2,13.8c0,7,3.6,12.2,8.3,12.2c3.6,0,6.5-3,9.4-9.6
			C750.4,414.9,752.3,407.2,753.1,400.3 M749.5,400.3c-0.7,6.4-2.5,13.8-4.6,18.5c-2.1,4.9-4.1,7.2-6.2,7.2c-2.7,0-4.8-3.7-4.8-8.5
			c0-6.2,3.1-11.9,8.2-14.9C744.3,401.3,746.5,400.6,749.5,400.3"/>
		<path class="st1" d="M753.1,454.2c2.5,0.1,4,0.5,5.8,1.2c5,2.2,8,6.9,8,12.6c0,6.1-3.3,11.5-8.8,14c-2.4,1.1-4.7,1.8-8.4,2.3
			c1,1.2,1.2,1.7,1.8,3.3c3.5-0.8,5.4-1.3,7.6-2.3c7.2-3.1,11.4-9.5,11.4-17.2c0-4.8-1.7-9.1-4.8-12.2c-3.2-3.2-8.2-4.9-13.8-4.9
			c-6.7,0-12.2,2.2-16.2,6.6c-3.3,3.8-5.2,8.7-5.2,13.8c0,7,3.6,12.2,8.3,12.2c3.6,0,6.5-3,9.4-9.6
			C750.4,468.8,752.3,461.1,753.1,454.2 M749.5,454.2c-0.7,6.4-2.5,13.8-4.6,18.5c-2.1,4.9-4.1,7.2-6.2,7.2c-2.7,0-4.8-3.7-4.8-8.5
			c0-6.2,3.1-11.9,8.2-14.9C744.3,455.2,746.5,454.5,749.5,454.2"/>
		<path class="st1" d="M822.2,397.4c0,1,0,1.2-0.4,3.4c-0.9,4.9-1.4,10.4-1.4,15.3c0,2.5,0.1,5.1,0.3,8.5c0.1,0.8,0.1,1,0.1,1.7
			l3.5-0.3c-0.2-1-0.2-1.5-0.2-2.3c0-3.8,1.6-8,4.6-11.8c3.4-4.3,7.7-7,12.8-7.9c0.1,3.1,0.1,4.4,0.1,6c0,6.4-0.7,11.2-2.1,14
			c-3.8-1.4-6.2-3.8-8.3-8.5c-0.7,1.4-1.1,1.9-2,2.8c2,3.9,4.2,6.2,7.7,8c0.6,0.3,0.8,0.4,1.2,0.5c-0.1,0.2-0.2,0.2-0.3,0.4
			c-2,2.8-5,5.1-8.4,6.6c1.5,1.1,1.9,1.5,2.7,2.5c4.4-2.6,6.8-4.8,9.3-8.5c1.1,0.2,1.6,0.2,2.4,0.2c8.8,0,15.5-6,15.5-14
			c0-8-5.8-13.3-14.7-13.5c-0.1-1.5-0.2-4.8-0.3-5.5c0-0.3,0-0.6,0-0.8c0-0.1,0-0.3,0-0.8l-3.8,0.1c0.3,1.5,0.5,3.1,0.7,7.2
			c-5.2,0.8-9,2.8-12.9,6.9c-2.2,2.3-3.9,5.1-4.6,7.8c-0.2,0.8-0.2,0.8-0.4,1.3h-0.2c0.1-0.5,0.1-0.8,0.2-1.3c0.1-1,0.1-1,0.2-1.5
			c0.6-7.2,0.8-8,1.3-11.1c0.5-2.9,0.8-3.8,1.2-4.9L822.2,397.4 M844.8,403.6c2.6,0.1,4.1,0.5,5.9,1.3c3.3,1.6,5.2,4.8,5.2,8.7
			c0,4.5-2.5,8.1-6.7,10c-1.7,0.8-3.3,1.1-5.2,1.1c-0.2,0-0.7,0-0.9,0c-0.2,0-0.2,0-0.4,0c1.4-2.5,2.2-8.1,2.2-15.5
			C845,407,844.9,405.8,844.8,403.6"/>
		<path class="st1" d="M831.4,446.8c-0.1,2.3-0.9,6.5-1.7,9.4c-1,0-2.6,0.1-3.6,0.1c-2.8,0-4.2-0.1-5.9-0.4l-0.1,3.5
			c0.3,0,0.6,0,0.7,0c0.2,0,0.5,0,1.1,0c0.8,0,2.5,0,3.3,0c0.8,0,2.4,0,3.7-0.1c-1.4,4.8-2.9,8.3-5.2,12.9c-1.9,3.6-3.2,5.8-4.8,7.8
			l3.4,2c0.2-0.4,0.5-1,1-1.7c1.9-3.3,2.3-4.2,3.5-6.5c2.2-4.6,4-9.2,5.6-14.6c3-0.2,6.1-0.6,8.2-1c1.2-0.2,1.2-0.2,1.8-0.3
			l-0.2-3.5c-2.3,0.8-5.4,1.3-8.9,1.7c0.7-2.6,1-3.8,1.3-5.5c0.4-2,0.4-2.2,0.8-3.2L831.4,446.8 M860.8,460.6
			c-4.1-2.6-7.4-4.3-13.2-6.6l-1.8,2.8c5.2,1.9,9.1,3.9,13.2,6.8L860.8,460.6 M860.9,482.7c-0.3-0.2-0.3-0.2-0.9-0.8
			c-2.7-2.4-5.8-4.3-9.8-6c-0.3-1.9-0.5-5.3-0.5-7.6c0-1.8,0.2-2.8,0.7-4.7l-3.4-0.3c-0.4,1.8-0.5,3-0.5,4.8c0,1.2,0.1,3.6,0.3,6.9
			c-1.9-0.6-3.2-0.8-5.1-0.8c-2.2,0-4.1,0.3-5.9,1.1c-2.8,1.2-4.7,3.7-4.7,6.3c0,4.5,3.8,7.2,9.8,7.2c6.1,0,9.5-2.8,9.5-8
			c0-0.5,0-0.8-0.1-1.6c3.6,1.9,6.8,4.4,8.8,6.8L860.9,482.7 M847,478.2c0,0,0.1,1.6,0.1,2.2c0,3.8-1.9,5.5-6.2,5.5
			c-3.9,0-6.3-1.5-6.3-4.1c0-2.8,2.7-4.5,6.9-4.5C843.5,477.2,844.9,477.4,847,478.2"/>
		<path class="st1" d="M972.7,397.4c6.7,1.9,12.8,2.9,21,3.3l0.6-3.6c-8.2-0.1-15.5-1.2-20.3-3.1L972.7,397.4 M967.5,413.7
			c3.9-1.6,13.9-3.3,19-3.3c2.6,0,4.9,0.4,6.2,1.1c2.1,1.1,3.2,3.1,3.2,5.6c0,2.3-0.9,4.5-2.6,6.8c-1.2,1.5-2.3,2.5-4.3,3.5
			c-4.2,2.4-8.8,3.7-14,4c0.8,1.2,0.9,1.7,1.6,3.7c7.4-1.4,10.7-2.5,14.5-4.8c5.6-3.4,8.6-8.2,8.6-13.5c0-3.5-1.4-6.2-4.2-8
			c-2-1.3-4.8-1.9-8.6-1.9c-3.9,0-8.6,0.6-15.2,1.8c-3.9,0.8-3.9,0.8-5.1,0.8L967.5,413.7"/>
		<path class="st1" d="M992.9,448.1c1.5,1.6,3.9,5.3,5.1,8l2.5-1.5c-1.5-3-2.9-5-5.1-7.8L992.9,448.1 M960.7,463.5
			c2.2-0.7,3.7-0.9,10.1-1.8c-2.2,9.5-6.6,19.5-10.7,24.9l3.4,2c5.2-9.2,8.7-17.8,10.8-27.2c1.8-0.2,2.5-0.2,3.6-0.2
			c4.7,0,6.2,1.7,6.2,7c0,5.6-0.8,10.7-2.1,13.9c-0.7,1.6-1.6,2.4-2.9,2.4c-1.8,0-4.6-0.8-7.4-2.3c0.2,0.9,0.2,1.2,0.2,2
			c0,0.7,0,1-0.1,1.8c3.3,1.4,5.4,2,7.5,2c2.3,0,3.7-0.7,4.9-2.3c2.1-2.9,3.3-9.6,3.3-17.2c0-4.1-0.7-6.4-2.4-8
			c-1.6-1.5-3.7-2.1-7.2-2.1c-1.1,0-1.8,0-2.9,0.2c0.4-2.2,0.8-4.5,1.1-5.7c0.4-2.7,0.6-3.8,0.9-4.8l-4-0.5c0,0.3,0,0.5,0,0.7
			c0,2.1-0.7,6.8-1.5,10.6c-7.3,1-9.2,1.2-11.1,1.3L960.7,463.5 M998.6,445.4c1.9,2.2,4.1,5.5,5.1,7.9l2.5-1.5
			c-1.7-3.2-2.9-5-5.2-7.8L998.6,445.4 M990.2,456.8c4.5,4.5,8.6,11.6,10.2,18l3.2-1.8c-2.1-6.6-5.5-12.4-10.4-17.7L990.2,456.8"/>
		<path class="st1" d="M1151.8,401.1c0.5,0,0.5,0,1.4-0.2c7.2-0.5,7.7-0.6,11.2-1.5c-2.8,2.4-2.8,2.4-4.5,4.5
			c-4.3,5.3-6.7,11.1-6.7,16.7c0,8.2,5.5,13.9,13.3,13.9c5.9,0,11.2-3.4,13.4-8.7c1.3-3,1.9-6.5,1.9-10.2c0-3.9-0.4-6.6-2-11.3
			c0.4,0.7,0.4,0.7,1,1.8c0.5,1,0.9,1.6,1.7,2.9c1.8,2.8,3.6,4.9,6.3,7.3c1.2,1,1.2,1,2,1.8l1.9-3.5c-0.8-0.3-1-0.5-1.8-1.2
			c-3.1-2.4-5.1-4.6-7.2-7.8c-2-2.9-4-6.6-4.7-9.1l-3.6,1.2c1.8,3.8,3.1,10.4,3.1,16.1c0,4.3-0.5,7.5-1.8,10.5
			c-1.8,4.1-5.9,6.8-10.3,6.8c-5.7,0-9.8-4.3-9.8-10.3c0-5.1,2.3-10.5,6.8-16c2.1-2.5,3.2-3.5,5.8-5.4l-2.1-3.1
			c-1.8,0.9-7.7,1.6-13.2,1.6c-1.1,0-1.5,0-2.4-0.2L1151.8,401.1"/>
		<path class="st1" d="M1151.9,481.1c0.3-0.5,0.5-0.7,1.3-1.6c0.8-1,1.5-1.8,2.1-2.4c1.7-1.9,1.7-1.9,2.4-2.8
			c0.6-0.6,0.7-0.8,0.9-1.2h0.1c-0.2,2.2-0.2,2.2-0.2,8.1c0,6.4,0,6.4-0.3,8.2h3.9c-0.2-1.5-0.2-1.9-0.2-8.3v-10.8
			c5.2-5.1,6.7-6.3,9.7-8.5c3.2-2.3,5.6-3.4,7.6-3.4c1.7,0,2.8,1,2.8,2.7c0,1.3-0.2,3-1.2,7.5c-1.8,8.5-1.9,9.1-1.9,11.6
			c0,2.8,0.7,4.6,2.3,5.7c0.9,0.7,2.2,1,3.5,1c2.7,0,4.9-1.1,6.9-3.6c1.2-1.4,1.7-2.3,3.1-5c-0.9-1.1-1.2-1.5-2.3-3.4
			c-0.6,1.9-1.6,4-2.8,5.8c-1.2,1.6-2.9,2.8-4.2,2.8c-1.9,0-3-1.2-3-3.6c0-2,0.3-3.8,2.2-11.8c0.8-3.8,1.2-5.6,1.2-7.3
			c0-3.6-2.2-5.9-5.8-5.9c-3,0-6.8,1.9-11.3,5.5c-3.9,3.2-5.6,4.8-6.3,5.9l-0.1,0c0-0.3,0-0.4,0-0.8c0.1-0.2,0.1-0.4,0.1-0.4
			c0-2.4,0-2.4,0.1-3.4c0.1-0.3,0.1-0.7,0.1-1.2c1.3-1.8,1.9-2.5,2.5-3.1l-1.3-1.5c-0.4,0.1-0.6,0.2-1,0.2c0.2-6.1,0.3-7.7,0.6-8.9
			l-4,0c0.1,1,0.2,1.5,0.2,2.5c0,0.6,0,2.9-0.2,6.7c-4.2,0.2-6.4,0.4-6.6,0.4c-0.4,0-0.8,0-1.5-0.1l0.2,3.5c1.2-0.2,1.2-0.2,7.8-0.7
			c-0.2,4.4-0.2,7.5-0.3,9.5c-3.8,4-7.4,7.5-8.8,8.5L1151.9,481.1"/>
		<path class="st1" d="M1307.6,394.4c-0.1,1.2-0.2,1.7-0.7,4c-1.7,7.4-2.2,12.7-2.2,19.8c0,5.2,0.3,8.9,1.3,14.2
			c0.2,1,0.2,1.2,0.3,2l3.6-0.3c0-0.4,0-0.6,0-0.8c0-2.8,1.8-8.8,4.1-13.8l-2.4-1.2c-1.6,3.7-2.6,6.4-3.2,9.8
			c-0.2-2.6-0.3-5.6-0.3-9.5c0-6,0.5-10.4,1.5-15.6c0.8-3.4,1.3-5.9,2.1-8L1307.6,394.4 M1317.9,403.9c3.2,0.3,5.2,0.5,8,0.5
			c3.8,0,7.8-0.2,10.8-0.7c2.2-0.3,3.3-0.4,3.4-0.4l-0.2-3.6c-3.3,0.9-7.8,1.4-13.4,1.4c-3.9,0-6.3-0.2-8.5-0.8L1317.9,403.9
			 M1321.5,413.6c-3.1,3.5-4.3,6.2-4.3,9.3c0,1.9,0.5,3.4,1.5,4.6c2.2,2.6,5.8,3.8,11.5,3.8c3.4,0,6.8-0.3,10.2-1
			c1-0.2,1.1-0.2,1.8-0.2l-0.5-3.9c-2.7,1.1-7,1.8-11.5,1.8c-6.5,0-9.6-1.8-9.6-5.5c0-2.2,1.2-4.6,3.8-7.3L1321.5,413.6"/>
		<path class="st1" d="M1307.6,448.3c-0.1,1.2-0.2,1.7-0.7,4c-1.7,7.4-2.2,12.7-2.2,19.8c0,5.2,0.3,8.9,1.3,14.2
			c0.2,1,0.2,1.2,0.3,2l3.6-0.3c0-0.4,0-0.6,0-0.8c0-2.8,1.8-8.8,4.1-13.8l-2.4-1.2c-1.6,3.7-2.6,6.4-3.2,9.8
			c-0.2-2.7-0.3-5.6-0.3-9.5c0-6,0.5-10.4,1.5-15.7c0.8-3.4,1.3-5.8,2.1-8L1307.6,448.3 M1317.9,457.8c3.2,0.3,5.2,0.5,8,0.5
			c3.8,0,7.8-0.2,10.8-0.7c2.2-0.3,3.3-0.5,3.4-0.5l-0.2-3.5c-3.3,0.9-7.8,1.4-13.4,1.4c-3.9,0-6.3-0.2-8.5-0.8L1317.9,457.8
			 M1321.5,467.5c-3.1,3.5-4.3,6.2-4.3,9.3c0,1.8,0.5,3.3,1.5,4.6c2.2,2.6,5.8,3.8,11.5,3.8c3.4,0,6.8-0.3,10.2-1
			c1-0.2,1.1-0.2,1.8-0.2l-0.5-3.9c-2.7,1.1-7,1.8-11.5,1.8c-6.5,0-9.6-1.8-9.6-5.5c0-2.2,1.2-4.6,3.8-7.3L1321.5,467.5"/>
		<path class="st1" d="M1498.4,404.4c2.5-0.5,6.9-1,17.2-1.7c5.6-0.3,8.1-0.6,11-1.1c-1.9,0.9-3.2,1.6-4.8,2.7
			c-5.9,4-9.3,9.5-9.3,15.3c0,4.1,2,7.8,5.6,10.2c2.8,2,5.8,3,10.8,3.8c0.8,0.2,1,0.2,1.6,0.3l0.7-4c-0.2,0-0.4,0-0.5,0
			c-1.9,0-5.1-0.7-7.5-1.6c-4.5-1.7-7-5-7-9.2c0-4.2,2.2-8.2,6.2-11.5c2.8-2.4,6.2-4.2,9.6-5.1c1.9-0.4,3.6-0.6,5.6-0.6l-0.3-3.8
			c-0.8,0.2-3.1,0.5-5.9,0.5c-6.4,0.3-22.4,1.2-28.4,1.7c-1.5,0.1-2.2,0.1-2.8,0.1c-0.3,0-0.8,0-1.8,0L1498.4,404.4"/>
		<path class="st1" d="M1499.7,458.4c0.1,0,0.3,0,0.4,0c0.3,0,0.8,0,1.4,0.1c2.9,0.2,5.1,0.3,8.3,0.3c-1.7,5.9-4.6,12.9-6.7,16.3
			l3.6,1.5c1-1.3,2.1-2.2,4.2-3.2c3.4-1.7,7.8-2.7,11.6-2.7c6,0,9.6,2.3,9.6,6.1c0,4.8-5.2,8-13.1,8c-4.5,0-8.6-0.8-12.5-2.5
			c0.2,1.6,0.2,2.5,0.2,2.8c0,0,0,0.1,0,0.3c0,0.1,0,0.5,0,0.8c4,1.3,7.9,2,12.3,2c10.1,0,16.8-4.5,16.8-11.2c0-5.6-5.1-9.2-13-9.2
			c-5.4,0-11,1.6-14.5,4.2l-0.1-0.1c1.4-2.3,3.6-8,5-12.8c7.6-0.2,11.6-0.5,18.6-1.5c1-0.1,1.3-0.1,2.2-0.2l-0.2-3.6
			c-3.2,1.1-9.9,1.8-19.7,2.1c0.5-1.8,0.7-2.4,1.3-5.3c0.6-2.5,0.6-2.5,0.8-3.2l-4-0.4c-0.1,2.2-0.6,5-1.6,9
			c-5.2,0-8.4-0.2-10.8-0.9L1499.7,458.4"/>
		<path class="st1" d="M1632.9,399.9c1.1-0.1,1.6-0.2,2.7-0.2c7.6-0.2,13.6-0.6,15.2-0.9c0.3-0.1,0.3-0.1,0.5-0.1l0.1,0.1l-0.2,0.2
			c-0.1,0.1-0.2,0.2-0.2,0.2c-0.4,0.4-0.4,0.4-0.7,0.7c-3.5,3.4-11.3,10.4-16.7,14.6c-3.4,2.8-5.2,4-7,5.1l2.2,3.2
			c5.8-5.4,13.7-8.5,21.1-8.5c6.8,0,10.8,2.8,10.8,7.6c0,4.2-2.8,7.3-8,8.8c-0.7-2.2-1.2-3.4-2.3-4.8c-2-2.7-4.9-4.1-8.2-4.1
			c-4.1,0-7.2,2.5-7.2,5.8c0,4.6,4.1,7.2,11.1,7.2c11.1,0,18.3-5.2,18.3-13c0-6.4-5.3-10.5-13.7-10.5c-4.4,0-8.4,1-12.2,3.1
			l-0.1-0.1c3.5-2.2,9.6-7.5,16.5-14.2c1.6-1.5,1.8-1.8,2.5-2.1l-2.1-2.8c-0.7,0.3-1.1,0.4-2.4,0.5c-4.5,0.3-11.2,0.6-15.3,0.6
			c-2.4,0-3.3,0-4.7-0.3L1632.9,399.9 M1649.3,431.6c-1.8,0.3-2.4,0.3-3.6,0.3c-2.2,0-4.3-0.5-5.6-1.1c-1.3-0.8-2-1.8-2-3.1
			c0-1.9,1.6-3.1,4.1-3.1C1645.7,424.6,1648.2,427,1649.3,431.6"/>
		<path class="st1" d="M1628.4,446.8c0,0.6-0.1,0.8-0.2,1.6c-1.2,8.9-1.7,13.6-1.7,18.5c0,0.2,0,0.7,0,1.2l0.1,5.2l0,0.9
			c0,0.1,0,0.3,0,0.5l3.6-0.1c0-0.8,0-1,0-1.2c0-3.7,0.9-7.5,2.7-11.2c2.8-5.8,6.1-8.7,9.8-8.7c4.8,0,7.6,4.6,7.6,12.7
			c0,8-2.8,13.2-8.6,16.6c-2.9,1.6-5.5,2.5-10.1,3.1c1.1,1.4,1.4,1.9,2,3.4c3.5-0.8,6.5-1.8,8.9-3c7.5-3.8,11.6-10.6,11.6-19.6
			c0-5.4-0.9-9.1-3-12.2c-1.9-2.9-4.8-4.5-8-4.5c-3.9,0-7.2,2.2-10,6.5c-1.4,2.2-2.4,4.7-3.1,7.5c-0.2,1-0.2,1-0.3,1.5l-0.2-0.1
			c0.2-2.5,0.8-8,1.7-13c0.4-2.7,0.8-4.1,1.1-5.1L1628.4,446.8"/>
		<path class="st1" d="M1784,396.4c0.9,1.6,2,4.5,3.6,9.5c-0.8,0.2-1.3,0.3-2.6,0.8c-5.9,2-5.9,2-7.3,2.4l1.3,3.5
			c1.3-0.8,4-1.8,6.8-2.8c2.2-0.7,2.2-0.7,2.7-0.9c3.2,10.9,6.1,22.9,6.3,27l4.1-0.9c-0.3-0.9-0.4-1.1-0.7-2.2
			c-2.1-9.4-3.9-16.5-6.5-25c7.2-2.3,12.7-3.5,16.3-3.5c5.1,0,8,2.2,8,6c0,2.2-0.8,3.9-2.4,5.1c-1.7,1.2-3.8,1.9-6,1.9
			c-2.9,0-5.8-0.8-8.4-2.3c0.2,2,0.3,2.2,0.3,2.9c0,0.1,0,0.5-0.1,0.9c3,1.2,5.7,1.9,8.5,1.9c6.8,0,11.8-4.3,11.8-10.3
			c0-5.6-4.3-9.2-11-9.2c-1.2,0-2.3,0.1-3.8,0.3c-0.1-0.6-0.1-1.5-0.1-1.6c0-3.9,0.1-5.4,0.2-6.8h-3.8c0.2,1.2,0.2,1.7,0.2,8.9
			c-3.8,0.8-3.8,0.8-10.8,2.8c-0.7-2.2-1.2-3.7-2.2-6.6c-0.5-1.5-0.7-2-0.9-3.1L1784,396.4"/>
		<path class="st1" d="M1788.3,451.3c6.7,1.9,12.8,2.8,21,3.3l0.6-3.6c-8.2-0.1-15.5-1.2-20.3-3.1L1788.3,451.3 M1783.1,467.6
			c3.9-1.6,13.9-3.3,19-3.3c2.6,0,4.9,0.4,6.2,1.1c2.1,1.1,3.2,3.1,3.2,5.6c0,2.3-0.9,4.6-2.6,6.8c-1.2,1.5-2.3,2.4-4.3,3.5
			c-4.2,2.4-8.8,3.7-14,4c0.8,1.2,0.9,1.7,1.6,3.7c7.4-1.4,10.7-2.5,14.5-4.8c5.6-3.4,8.6-8.2,8.6-13.5c0-3.5-1.4-6.2-4.2-8
			c-2-1.3-4.8-1.9-8.6-1.9c-3.9,0-8.6,0.5-15.2,1.8c-3.9,0.8-3.9,0.8-5.1,0.9L1783.1,467.6"/>
		<path class="st1" d="M1941.8,429.4c-0.6-0.4-0.9-0.5-1.7-1.1c-5.2-3.8-9.6-6.1-13.9-7.3c-0.2-4.8-0.2-4.8-0.3-7.6
			c3.7-0.2,7.6-0.7,11.1-1.2c1.8-0.2,2.2-0.3,2.9-0.3l-0.2-3.5c-2.8,1-7.1,1.5-13.9,2c-0.1-2.7-0.1-2.7-0.1-6.8
			c5.6-0.3,6.9-0.5,11.6-1.2c2.6-0.3,2.6-0.3,3.4-0.4l-0.2-3.4c-2.8,0.9-7.9,1.6-14.8,2c0.1-3.6,0.2-6,0.4-7h-3.9
			c0.2,1.1,0.2,1.1,0.2,7.2c-1.6,0-3.3,0-4.3,0c-5.4,0-10.7-0.4-12.8-1l-0.1,3.4c0.3-0.1,0.6-0.1,0.7-0.1c0.2,0,0.6,0,0.9,0.1
			c4.5,0.3,8.6,0.5,12.2,0.5c1.1,0,1.9,0,3.4-0.1l0.1,6.9c-1.4,0-3.1,0-4.4,0c-5.1,0-9.2-0.3-11.4-0.8l-0.1,3.3c0.1,0,0.3,0,0.4,0
			c0.3,0,0.7,0,1.2,0c3.1,0.2,5.4,0.4,8.4,0.4c1.6,0,4.1-0.1,5.9-0.1c0.1,1.3,0.1,2.2,0.1,2.9c0.1,1.5,0.1,2.5,0.1,3
			c0,0.3,0.1,0.5,0.1,0.5c0,0.5,0,0.5,0.1,0.6c-2.2-0.3-2.9-0.4-4.5-0.4c-2.2,0-3.7,0.1-5.2,0.5c-4.4,1-7,3.6-7,6.9c0,2,1,4,2.7,5.2
			c1.7,1.3,4.4,2,7.8,2c3.9,0,7-1.1,8.4-3.1c0.9-1.2,1.2-2.8,1.2-5.5c0-0.7,0-0.7-0.1-1.8c1.4,0.5,2.5,1,3.4,1.5
			c4.2,2.2,7.9,4.8,10.2,7.1L1941.8,429.4 M1923,425.4c0,2.4-0.3,3.8-1,4.5c-0.9,1.1-2.8,1.7-5.5,1.7c-4.3,0-6.8-1.5-6.8-4.2
			s3.2-4.5,8.2-4.5c2.2,0,3.2,0.1,5.1,0.5L1923,425.4"/>
		<path class="st1" d="M1931,447c-1.8,2.8-8,8.6-14.6,13.7c-3.6,2.8-3.6,2.8-4.2,3.4c-0.9,1-1.4,2.2-1.4,3.4c0,1.7,0.8,2.8,3.6,5
			c7.3,5.7,9.3,7.3,12.7,10.4c3.3,3.1,5.2,5.2,6.4,6.9l3.1-3.1c-0.5-0.4-0.6-0.5-1.4-1.2c-7.4-6.9-8.8-8.1-16-13.6
			c-4.1-3.2-4.4-3.5-4.4-4.4c0-0.7,0.3-1.1,2.2-2.5c6.3-4.8,9-7.1,11.5-9.5c5.2-5,5.6-5.3,6.1-5.8L1931,447"/>
		<path class="st1" d="M2072.1,416.7c0.6,0,0.8,0,1.6,0.3c2.2,0.6,4.6,1,7.6,1.2c-0.1,0.5-0.1,0.5-0.1,1.2c-0.1,1.2-0.2,2.2-0.2,3.3
			c0,2.9,0.6,5.2,1.6,6.9c1.9,3.2,5.9,5,11.2,5c8.8,0,14.6-4.8,14.6-11.8c0-3.7-1.1-6.1-4.7-10c-1.4,0.7-2,0.8-3.6,1
			c3.2,2.8,4.8,5.5,4.8,8.7c0,5.3-4.4,8.8-11.1,8.8c-3.1,0-5.4-0.8-7.1-2.2c-1.6-1.3-2.3-3.2-2.3-6c0-0.8,0.1-2.5,0.2-3.7
			c0.1-0.6,0.1-0.6,0.1-1c2.2,0.1,3.1,0.1,4.3,0.1c2.4,0,4.5-0.1,7.1-0.4c0.7,0,0.8,0,1.3-0.1l0.1-3.4c-1.9,0.5-5.6,0.8-9.2,0.8
			c-0.7,0-1.4,0-3.3-0.1c0.3-2.8,0.4-3.3,1.1-9c2.8,0.1,3.6,0.1,4.4,0.1c1.4,0,2.9-0.1,4.5-0.2c2.5-0.2,2.5-0.2,3.5-0.3l0.1-3.5
			c-2.2,0.5-5.4,0.8-9.1,0.8c-0.8,0-1.5,0-2.9,0c0.2-1.4,0.4-1.9,0.5-3c0.5-2.8,0.5-2.8,0.5-3.2c0.4-1.8,0.5-2.4,0.8-3.3l-4-0.5
			c0,0.2,0,0.3,0,0.4c0,1.3-0.4,4.6-1.2,9.4c-3.5-0.3-6.9-1-9-2l-0.4,3.3c0.7,0.1,0.9,0.2,1.6,0.3c2.9,0.7,5.1,1,7.4,1.3
			c-0.4,2.7-0.9,6.6-1.2,9c-3.8-0.4-6.9-1.1-8.9-2L2072.1,416.7"/>
		<path class="st1" d="M2072.1,470.6c0.6,0,0.8,0,1.6,0.3c2.2,0.5,4.6,1,7.6,1.2c-0.1,0.5-0.1,0.5-0.1,1.2c-0.1,1.2-0.2,2.2-0.2,3.3
			c0,2.9,0.6,5.2,1.6,6.9c1.9,3.2,5.9,5,11.2,5c8.8,0,14.6-4.8,14.6-11.8c0-3.7-1.1-6.1-4.7-10c-1.4,0.6-2,0.8-3.6,1
			c3.2,2.8,4.8,5.5,4.8,8.7c0,5.3-4.4,8.8-11.1,8.8c-3.1,0-5.4-0.8-7.1-2.2c-1.6-1.3-2.3-3.2-2.3-6c0-0.8,0.1-2.5,0.2-3.7
			c0.1-0.6,0.1-0.6,0.1-1c2.2,0.1,3.1,0.1,4.3,0.1c2.4,0,4.5-0.1,7.1-0.4c0.7,0,0.8,0,1.3-0.1l0.1-3.4c-1.9,0.5-5.6,0.8-9.2,0.8
			c-0.7,0-1.4,0-3.3,0c0.3-2.8,0.4-3.3,1.1-9c2.8,0.1,3.6,0.1,4.4,0.1c1.4,0,2.9,0,4.5-0.2c2.5-0.2,2.5-0.2,3.5-0.3l0.1-3.4
			c-2.2,0.5-5.4,0.8-9.1,0.8c-0.8,0-1.5,0-2.9,0c0.2-1.4,0.4-1.9,0.5-3c0.5-2.8,0.5-2.8,0.5-3.2c0.4-1.8,0.5-2.4,0.8-3.3l-4-0.5
			c0,0.2,0,0.3,0,0.4c0,1.3-0.4,4.6-1.2,9.4c-3.5-0.3-6.9-1-9-2l-0.4,3.3c0.7,0.2,0.9,0.2,1.6,0.4c2.9,0.7,5.1,1,7.4,1.3
			c-0.4,2.7-0.9,6.5-1.2,9c-3.8-0.5-6.9-1.1-8.9-2L2072.1,470.6"/>
		<path class="st1" d="M2195.7,399.6c1.2-0.2,1.7-0.2,3.7-0.2c4.8-0.2,5.5-0.2,9.4-0.5c-1.8,5.8-2.4,7.7-4,12.6
			c-3.9,0.1-6.4,0.6-9,2.2c-3.8,2.2-5.9,5.8-5.9,9.9c0,4.6,2.8,8.2,6.6,8.2c2.4,0,4.2-1.5,6.1-4.9c1.2-2.4,3.1-7.2,4.7-12.1
			c5.1,0.6,9.3,1.8,13.8,4.2c-0.7,3-2.3,5.8-4.6,8.4c-2.2,2.5-4.3,4-8.1,5.8c1.1,0.8,1.5,1.2,2.6,2.6c3.1-1.5,5.7-3.5,8-6.1
			c2.4-2.8,4-5.5,5.1-9.1c3.7,2.1,6.2,3.7,7.8,5l1.3-3.8c-0.7-0.3-1-0.5-1.4-0.8c-2.4-1.5-4.1-2.4-6.8-3.8c0.5-3,0.8-5.8,0.9-10.9
			c0.1-1.8,0.1-2.2,0.2-3.1l-3.8,0c0.2,0.9,0.2,1.3,0.2,2.5c0,5.2-0.1,7.3-0.6,10.1c-5.2-2.4-8.9-3.5-13.7-4c0.9-2.6,1.2-3.6,2.4-7
			c2-6,2.1-6.3,2.8-7.2l-2.6-2.1c-0.6,0.3-1,0.5-1.9,0.6c-1.6,0.2-5.6,0.4-8.4,0.4c-2.5,0-3.6,0-4.9-0.3L2195.7,399.6 M2203.8,414.5
			c-3.6,10.7-5.4,13.8-7.4,13.8c-1.8,0-3.2-2.1-3.2-4.8c0-2.1,0.9-4.2,2.4-5.8C2197.5,415.7,2200,414.8,2203.8,414.5"/>
		<path class="st1" d="M2195.7,453.5c1.2-0.2,1.7-0.2,3.7-0.2c4.8-0.2,5.5-0.2,9.4-0.5c-1.8,5.8-2.4,7.7-4,12.6
			c-3.9,0-6.4,0.6-9,2.2c-3.8,2.1-5.9,5.8-5.9,9.9c0,4.7,2.8,8.2,6.6,8.2c2.4,0,4.2-1.5,6.1-5c1.2-2.4,3.1-7.2,4.7-12
			c5.1,0.5,9.3,1.8,13.8,4.2c-0.7,3-2.3,5.8-4.6,8.4c-2.2,2.5-4.3,4-8.1,5.8c1.1,0.9,1.5,1.2,2.6,2.6c3.1-1.5,5.7-3.5,8-6.1
			c2.4-2.8,4-5.4,5.1-9c3.7,2,6.2,3.7,7.8,5l1.3-3.8c-0.7-0.3-1-0.5-1.4-0.8c-2.4-1.5-4.1-2.4-6.8-3.8c0.5-3.1,0.8-5.8,0.9-10.9
			c0.1-1.8,0.1-2.2,0.2-3.1l-3.8,0c0.2,0.9,0.2,1.3,0.2,2.4c0,5.2-0.1,7.4-0.6,10.2c-5.2-2.4-8.9-3.5-13.7-4c0.9-2.6,1.2-3.6,2.4-7
			c2-6,2.1-6.3,2.8-7.2l-2.6-2.1c-0.6,0.3-1,0.5-1.9,0.6c-1.6,0.2-5.6,0.4-8.4,0.4c-2.5,0-3.6-0.1-4.9-0.3L2195.7,453.5
			 M2203.8,468.4c-3.6,10.7-5.4,13.8-7.4,13.8c-1.8,0-3.2-2.1-3.2-4.8c0-2.1,0.9-4.2,2.4-5.8C2197.5,469.6,2200,468.7,2203.8,468.4"
			/>
		<path class="st1" d="M2335.1,394.8c0.1,1,0.2,1.6,0.2,2.6c0,0.9,0,1.8-0.1,3.2c-0.4,15.8-0.4,17-0.4,20.4c0,5.2,0.7,7.9,2.8,10.2
			c2,2.3,5.1,3.5,9.4,3.5c5.9,0,10.6-2.1,14.1-6.2c2.2-2.6,3.6-5.5,5.6-11.4c-1.5-0.8-2.2-1.3-3.6-2.4c-0.7,3.5-1.3,5.5-2.4,7.8
			c-2.9,5.7-7.4,8.7-13.4,8.7c-2.6,0-4.9-0.7-6.2-2c-1.5-1.3-2.2-3-2.4-6c-0.1-1.1-0.1-2.4-0.1-3c0-2.2,0.2-9,0.4-15
			c0.1-6.3,0.4-8.9,0.6-10.5L2335.1,394.8 M2350.9,397.2c1.4,1.5,3.8,5.3,5.1,8l2.6-1.5c-1.6-3-2.9-5-5.1-7.8L2350.9,397.2
			 M2356.4,394.3c2,2.3,4.1,5.5,5.1,7.8l2.6-1.5c-1.7-3.1-2.9-5-5.2-7.8L2356.4,394.3"/>
		<path class="st1" d="M2335.1,448.7c0.1,1.1,0.2,1.6,0.2,2.7c0,0.8,0,1.8-0.1,3.2c-0.4,15.8-0.4,17-0.4,20.3
			c0,5.2,0.7,7.9,2.8,10.2c2,2.3,5.1,3.5,9.4,3.5c5.9,0,10.6-2,14.1-6.2c2.2-2.6,3.6-5.6,5.6-11.4c-1.5-0.8-2.2-1.3-3.6-2.5
			c-0.7,3.6-1.3,5.5-2.4,7.9c-2.9,5.7-7.4,8.7-13.4,8.7c-2.6,0-4.9-0.7-6.2-2c-1.5-1.4-2.2-3-2.4-6c-0.1-1.1-0.1-2.4-0.1-3
			c0-2.2,0.2-9,0.4-15c0.1-6.3,0.4-8.9,0.6-10.5L2335.1,448.7 M2350.9,451.1c1.4,1.5,3.8,5.3,5.1,8l2.6-1.5c-1.6-3-2.9-5-5.1-7.8
			L2350.9,451.1 M2356.4,448.2c2,2.3,4.1,5.5,5.1,7.8l2.6-1.5c-1.7-3.1-2.9-5-5.2-7.8L2356.4,448.2"/>
		<path class="st1" d="M432,125h-3.3v45c-1.1-0.7-2.5-1.1-4.1-1.3c-0.4,0-0.9-0.1-1.3-0.1c-2.7,0-5.7,0.8-8.4,2.3
			c-3.2,1.7-5.7,4.2-7.2,6.9c-1.4,2.8-1.6,5.5-0.4,7.6c1.4,2.6,4.4,3.9,8,3.9c2.6,0,5.6-0.7,8.4-2.2c5.1-2.8,8.4-7.4,8.4-11.4V125"
			/>
		<path class="st1" d="M454.3,177.3h30.2v-6.9h-30.2V177.3 M454.3,165h30.2v-6.9h-30.2V165 M527,140.4h-2.1c-3.8,2.8-8,4-15.2,4.1
			v3.4h2.5c5.3,0,5.4,0.1,5.3,5v21.3c0,3.7,0,3.9-0.4,4.5c-0.5,0.7-1.7,0.9-5,0.9h-1.9v3.2h23.9v-3.2h-1.9c-3.2,0-4.3-0.2-4.9-0.9
			c-0.4-0.6-0.4-0.8-0.4-4.5V140.4 M556.4,140.4c-9,0-15.6,9.2-15.6,21.7c0,12.5,6.6,21.7,15.6,21.7c8.8,0,15.5-9.2,15.5-21.4
			c0-7.1-1.6-12.3-5.2-16.7C564,142.2,560.5,140.4,556.4,140.4 M556.4,143.5c1.8,0,3.2,1.1,3.9,3c0.8,2,1.3,8.3,1.3,15.7
			c0,6.2-0.5,12.7-1,14.7c-0.7,2.4-2.1,3.7-4.1,3.7c-1.9,0-3.2-1-4-3c-0.8-2-1.3-8.3-1.3-15.5c0-6.3,0.5-12.8,1-14.9
			C552.8,144.8,554.3,143.5,556.4,143.5 M590.9,140.4c-9,0-15.6,9.2-15.6,21.7c0,12.5,6.6,21.7,15.6,21.7c8.8,0,15.5-9.2,15.5-21.4
			c0-7.1-1.6-12.3-5.2-16.7C598.4,142.2,594.9,140.4,590.9,140.4 M590.8,143.5c1.8,0,3.2,1.1,3.9,3c0.8,2,1.3,8.3,1.3,15.7
			c0,6.2-0.5,12.7-1,14.7c-0.7,2.4-2.1,3.7-4.1,3.7c-1.9,0-3.2-1-4-3c-0.8-2-1.3-8.3-1.3-15.5c0-6.3,0.5-12.8,1-14.9
			C587.3,144.8,588.7,143.5,590.8,143.5"/>
		<line class="st5" x1="1711" y1="420.9" x2="1730.8" y2="420.9"/>
		<line class="st5" x1="1708.1" y1="474.8" x2="1728" y2="474.8"/>
		<line class="st5" x1="2274" y1="420.9" x2="2293.9" y2="420.9"/>
		<line class="st5" x1="2274" y1="474.8" x2="2293.9" y2="474.8"/>
		<line class="st6" x1="232.7" y1="214.6" x2="232.7" y2="897.8"/>
		<path class="st1" d="M275.3,192.6c-0.2-0.1-0.5-0.2-0.7-0.2c-0.4,0-0.9,0.1-1.1,0.5c-0.2,0.3-10.1,15.6-29.1,15.6h-15.8
			c-0.8,0-1.4,0.5-1.4,1.3v8.9v1.4h12.1c30.6,0,36.4-25.5,36.5-25.8c0-0.1,0.1-0.3,0.1-0.5C276,193.3,275.7,192.9,275.3,192.6"/>
		<path class="st1" d="M275.3,919.8c0.4-0.3,0.7-0.7,0.7-1.2c0-0.2-0.1-0.4-0.1-0.5c-0.1-0.3-6-25.8-36.5-25.8h-12.1v1.4v8.9
			c0,0.8,0.6,1.3,1.4,1.3h15.8c18.9,0,28.9,15.3,29.1,15.6c0.2,0.4,0.7,0.5,1.1,0.5C274.8,920,275.1,919.9,275.3,919.8"/>
	</g>
</g>
</svg>
