<?xml version="1.0" encoding="utf-8"?>
<!-- Generator: Adobe Illustrator 26.5.0, SVG Export Plug-In . SVG Version: 6.00 Build 0)  -->
<svg version="1.1" id="_x32_" xmlns="http://www.w3.org/2000/svg" xmlns:xlink="http://www.w3.org/1999/xlink" x="0px" y="0px"
	 viewBox="0 0 512 512" style="enable-background:new 0 0 512 512;" xml:space="preserve">
<style type="text/css">
	.st0{fill:#FFFFFF;}
</style>
<g>
	<path class="st0" d="M500.3,324.8c-23.1,28.9-57,35-57,35l-165.1-184l-63.5,59.6l-49.5-50.2l13.2-13.2l35.2,35.2l64.5-60.8
		l-80.4-94.7c0,0-70,0-81,0s-16.6,9.2-20.3,16.6c-3.7,7.4-18.4,33.2-18.4,33.2l-77.2,3.8c0,0-7.4,73.3,31.3,73.3c0,0,3.7,24,22.1,24
		s49.7,0,49.7,0s44.4,50.8,50.7,59.1c10.2,13.4,11.8,14.6,7.3,26.8c-10.4,28-45.5,106.9-52.5,125.2c-14.1,36.9,29.9,52,46.5,23.9
		c23.5-39.9,50.5-83.6,50.5-83.6l14.4,20.2c0,0-11.5,17.3-8.7,43.3c-40.4,0-51.1,43.2-17.3,43.2c57.7,0,193.2,0,193.2,0
		c50.5,0,57.7-26,57.7-54.8C485.9,417.2,534.9,368.1,500.3,324.8z"/>
</g>
</svg>
