<?xml version="1.0" encoding="utf-8"?>
<!-- Generator: Adobe Illustrator 26.5.0, SVG Export Plug-In . SVG Version: 6.00 Build 0)  -->
<svg version="1.1" id="レイヤー_1" xmlns="http://www.w3.org/2000/svg" xmlns:xlink="http://www.w3.org/1999/xlink" x="0px"
	 y="0px" viewBox="0 0 2560 920" style="enable-background:new 0 0 2560 920;" xml:space="preserve">
<style type="text/css">
	.st0{fill:none;stroke:#FFFFFF;stroke-width:2.73;stroke-linejoin:bevel;}
	.st1{fill:#FFFFFF;}
	.st2{fill:none;stroke:#FFFFFF;stroke-width:4.46;stroke-linejoin:bevel;}
	.st3{fill:none;stroke:#FFFFFF;stroke-width:13.64;stroke-linejoin:bevel;}
	.st4{fill:none;stroke:#FFFFFF;stroke-width:3.97;stroke-linejoin:bevel;}
	.st5{fill-rule:evenodd;clip-rule:evenodd;fill:#FFFFFF;}
	.st6{fill:none;stroke:#FFFFFF;stroke-width:10.91;stroke-linejoin:bevel;}
</style>
<g>
	<g>
		
			<image style="overflow:visible;" width="2624" height="969" xlink:href="E5D99F570A1162F6.png"  transform="matrix(1 0 0 1 -32.1845 -12.2798)">
		</image>
	</g>
	<g>
		<line class="st0" x1="231.1" y1="131.6" x2="2555.6" y2="131.6"/>
		<line class="st0" x1="231.1" y1="156.5" x2="2555.6" y2="156.5"/>
		<line class="st0" x1="231.1" y1="181.3" x2="2555.6" y2="181.3"/>
		<line class="st0" x1="231.1" y1="206.1" x2="2555.6" y2="206.1"/>
		<line class="st0" x1="231.1" y1="230.9" x2="2555.6" y2="230.9"/>
		<line class="st0" x1="231.1" y1="507.9" x2="2555.6" y2="507.9"/>
		<line class="st0" x1="231.1" y1="532.7" x2="2555.6" y2="532.7"/>
		<line class="st0" x1="231.1" y1="557.5" x2="2555.6" y2="557.5"/>
		<line class="st0" x1="231.1" y1="582.3" x2="2555.6" y2="582.3"/>
		<line class="st0" x1="231.1" y1="607.1" x2="2555.6" y2="607.1"/>
		<line class="st0" x1="231.1" y1="780.7" x2="2555.6" y2="780.7"/>
		<line class="st0" x1="231.1" y1="805.5" x2="2555.6" y2="805.5"/>
		<line class="st0" x1="231.1" y1="830.3" x2="2555.6" y2="830.3"/>
		<line class="st0" x1="231.1" y1="855.1" x2="2555.6" y2="855.1"/>
		<line class="st0" x1="231.1" y1="879.9" x2="2555.6" y2="879.9"/>
		<path class="st1" d="M86.9,811.9H56.9l-0.8,13.9h2.1c0.4-2.5,0.8-4.4,1.4-6c1.3-3.7,3.7-5.5,7.1-5.5c1.7,0,2.4,0.5,2.4,1.8v25.8
			c0,2.5,0,2.7-0.3,3.1c-0.4,0.5-1.4,0.7-4.2,0.7h-1.3v2.4h17.1v-2.4h-1.3c-2.8,0-3.8-0.2-4.2-0.7c-0.3-0.4-0.3-0.6-0.3-3.1V816
			c0-1.2,0.7-1.8,2.4-1.8c3,0,5.5,1.7,6.8,4.7c0.8,1.8,1.2,4,1.6,6.8h2.1L86.9,811.9 M110.4,836.7c0-7.5-4.2-12.8-10.3-12.8
			c-6.4,0-11.2,5.6-11.2,13.1c0,7,4.5,11.8,11.3,11.8c4.8,0,8.1-2.4,10.2-7.1l-1.8-0.9c-2.1,3.8-4.2,5.3-7.5,5.3
			c-2.6,0-4.4-1-5.7-3.3c-0.9-1.5-1.3-3.2-1.2-6H110.4 M94.3,834.6c0-1.6,0.2-2.7,0.7-4.1c1-3,2.6-4.4,5.1-4.4c3,0,5,2.7,5,6.7
			c0,1.4-0.5,1.8-2.1,1.8H94.3 M122.2,824.7l-8.7,0.6v2.1h1.8c1.9,0.1,2.1,0.4,2.1,2.5v12v1.2v1.2c0,0.8-0.1,1.1-0.3,1.3
			c-0.4,0.4-1.3,0.6-3.5,0.7h-0.2v1.8h12.7v-1.8H126c-3.4-0.1-3.8-0.3-3.8-2.2v-2.2v-5.2c0-2.4,0.3-4.7,0.9-5.8
			c1-2.2,3.3-3.8,5.4-3.8c1.3,0,2.8,0.7,3.6,1.8c0.8,1.1,1.1,2.6,1.1,5v8.1v2.3c-0.1,0.8-0.1,1.1-0.3,1.3c-0.4,0.4-1.4,0.6-3.5,0.7
			h-0.2v1.8h12.6v-1.8h-0.2c-3.3-0.1-3.8-0.3-3.8-2.2v-2.2V834c0-3.6-0.1-4.5-1-6.2c-1.2-2.4-3.8-3.8-6.8-3.8
			c-3.3,0-5.7,1.5-7.9,4.8V824.7 M155.3,823.9c-6.1,0-10.9,5.4-10.9,12.4c0,6.9,4.8,12.4,10.8,12.4s10.8-5.5,10.8-12.4
			C166,829.5,161.2,823.9,155.3,823.9 M155.3,826.1c3.5,0,5.5,3.7,5.5,10.2c0,6.7-2,10.2-5.5,10.2c-3.6,0-5.6-3.6-5.6-10.2
			C149.7,829.6,151.6,826.1,155.3,826.1 M177.6,824.7l-8.9,0.6v2.1h2c1.9,0.1,2.2,0.4,2.2,2.5v12v2.3c-0.1,0.8-0.1,1.1-0.3,1.3
			c-0.4,0.4-1.4,0.6-3.5,0.7H169v1.8h13.3v-1.8h-0.9c-3.4-0.1-3.8-0.3-3.8-2.2v-2.2v-0.5c0-8.4,3-14.8,6.9-15
			c-0.7,0.8-0.9,1.3-0.9,2.2c0,1.6,1.1,2.8,2.8,2.8c1.9,0,3.1-1.3,3.1-3.3c0-2.5-1.7-4.1-4.4-4.1c-3.1,0-5.9,2.5-7.5,6.9V824.7"/>
		<path class="st1" d="M115.2,538.7h-2.1l-11.5,29.1c-1.4,3.9-2.6,5.1-5.5,5.3h-0.2v2.3h13.2v-2.3h-1c-2.7,0-4-1-4-2.9
			c0-0.6,0.1-1.2,0.5-2.1l1.6-4.4h13.2l2.7,6.7c0.3,0.8,0.4,1.1,0.4,1.3c0,0.8-1.2,1.3-3.1,1.3h-2.1v2.3h15.5v-2.3h-0.7
			c-2.6-0.1-3-0.4-4.2-3.2L115.2,538.7 M112.7,546.9l5.6,14.2h-11.2L112.7,546.9 M142.6,538.7l-9.2,0.5v2.1h2.5
			c1.9,0.1,2.1,0.4,2.1,2.5v25.5v2.4c-0.1,0.8-0.1,1-0.3,1.3c-0.3,0.5-1.3,0.7-3.4,0.7h-0.4v1.8h13v-1.8h-0.4
			c-3.4-0.1-3.8-0.4-3.8-2.2v-2.2V538.7 M157.8,552.2v-9.9h-2c-0.5,6.5-2.7,9.8-6.8,10.1v1.9h4.1v12.8c0,3.5,0.1,4.8,0.6,5.9
			c0.8,2.1,2.8,3.2,5.7,3.2c4.5,0,7.4-3.4,7.4-8.7c0-0.3,0-0.6,0-1.1h-2.1c-0.1,4.5-1.4,6.8-3.9,6.8c-1.1,0-2.1-0.6-2.5-1.5
			c-0.3-0.7-0.5-2-0.5-3.8v-13.7h7.4v-2.1H157.8 M180.5,551.5c-6.1,0-10.9,5.5-10.9,12.5c0,6.8,4.8,12.3,10.8,12.3
			s10.8-5.5,10.8-12.4C191.2,557,186.4,551.5,180.5,551.5 M180.5,553.6c3.5,0,5.5,3.7,5.5,10.2c0,6.7-2,10.2-5.6,10.2
			c-3.6,0-5.5-3.6-5.5-10.2C174.8,557.1,176.7,553.6,180.5,553.6"/>
		<path class="st1" d="M29.2,158.2h-1.9l-2,3c-2.4-2.2-5.6-3.5-9.1-3.5c-6.6,0-10.9,4.2-10.9,10.5c0,5.5,2.7,8.1,10.1,10l4.8,1.2
			c3.7,1,4.1,1,5.1,1.9c1.5,1.1,2.3,2.8,2.3,4.8c0,2-0.8,3.6-2.2,5c-1.6,1.4-3.3,2-6,2c-3.7,0-6.4-1.1-8.7-3.8
			c-2.1-2.3-3.1-4.7-3.9-8.6H4.4L4.6,195h1.9l2.2-3.4c3.4,2.8,6.1,3.8,10.5,3.8c7.4,0,12.1-4.3,12.1-11c0-3.1-1-5.8-3-7.6
			c-1.4-1.3-3.3-2.1-7.3-3.1l-5.4-1.4c-4.4-1.1-6.5-3.1-6.5-6.1c0-3.5,2.8-5.9,7.1-5.9c3.5,0,6.4,1.5,8.4,4.3c1.4,2.1,2.4,4.2,3,6.7
			h2.1L29.2,158.2 M46.5,170.6c-6.1,0-10.9,5.4-10.9,12.4c0,6.9,4.8,12.4,10.8,12.4s10.8-5.5,10.8-12.4
			C57.2,176.1,52.4,170.6,46.5,170.6 M46.5,172.7c3.5,0,5.4,3.6,5.4,10.2c0,6.6-1.9,10.2-5.5,10.2s-5.6-3.6-5.6-10.2
			C40.8,176.2,42.7,172.7,46.5,172.7 M68.9,171.3l-8.6,0.5v2.1h1.8c1.9,0.1,2.1,0.4,2.1,2.5v22.1v2.4c-0.1,0.7-0.1,1-0.3,1.2
			c-0.3,0.5-1.3,0.6-3.4,0.7h-0.2v1.8h13v-1.8h-0.5c-3.4-0.1-3.8-0.4-3.8-2.2v-2.2v-7.2c1.7,2.9,3.5,4,6.6,4c3.1,0,5.6-1.3,7.4-3.8
			c1.8-2.4,2.8-5.5,2.8-8.8s-1-6.3-2.9-8.7c-1.9-2.4-4.1-3.6-6.9-3.6c-3.1,0-5.2,1.3-6.9,4.3V171.3 M74.9,173.3
			c3.5,0,5.5,3.5,5.5,9.3c0,6.4-2,10.1-5.6,10.1s-5.9-3.7-5.9-9.5C68.9,177,71.1,173.3,74.9,173.3 M97.4,171.3l-8.9,0.5v2.1h2
			c1.9,0.1,2.2,0.4,2.2,2.5v12v2.4c-0.1,0.8-0.1,1-0.3,1.3c-0.4,0.5-1.4,0.6-3.5,0.7h-0.2v1.8h13.3v-1.8h-0.9
			c-3.4-0.1-3.8-0.4-3.8-2.1v-2.2V188c0-8.4,3-14.8,6.9-15c-0.7,0.8-0.9,1.3-0.9,2.2c0,1.6,1.1,2.8,2.8,2.8c1.9,0,3.1-1.4,3.1-3.4
			c0-2.4-1.7-4-4.4-4c-3.1,0-5.9,2.5-7.5,6.9V171.3 M131.9,178.5c0-3.1-0.5-4.8-2-5.9c-1.6-1.4-4.1-2-7.3-2c-5.6,0-9.8,2.6-9.8,6.3
			c0,1.9,1.1,3.1,2.9,3.1c1.6,0,2.7-1.1,2.7-2.6c0-0.6-0.2-1.4-0.8-2c-0.3-0.4-0.4-0.5-0.4-0.7c0-1,2-1.9,4.4-1.9
			c1.6,0,3.4,0.5,4.1,1.2c1,0.8,1.3,2,1.3,4.2v2c-5.2,0.9-6.9,1.3-9.3,2.2c-4.4,1.6-6.4,3.9-6.4,7.1c0,3.6,2.8,5.9,7.2,5.9
			c3.5,0,6.5-1.4,8.7-3.9c0.8,2.5,2,3.5,4.4,3.5c2.2,0,4.6-1.5,4.6-2.9c0-0.4-0.2-0.6-0.5-0.6c-0.2,0-0.4,0-0.8,0.2
			c-0.7,0.3-1,0.3-1.4,0.3c-1.4,0-1.9-0.9-1.9-3.4V178.5 M127.2,184.6c0,3-0.2,3.7-1,5c-1.2,1.9-3.5,3.1-5.7,3.1c-2.3,0-4-1.6-4-3.9
			c0-2.1,1.1-3.6,3.2-4.6c1.6-0.7,3.5-1.2,7.4-1.9V184.6 M147.1,171.3l-8.6,0.5v2.1h1.8c1.9,0.1,2.1,0.4,2.1,2.5v12v1.2v1.1
			c-0.1,0.8-0.1,1-0.3,1.3c-0.3,0.5-1.3,0.6-3.4,0.7h-0.2v1.8h12.6v-1.8h-0.2c-3.4-0.1-3.8-0.4-3.8-2.1v-2.2v-5.2
			c0-2.4,0.4-4.7,0.9-5.8c1-2.2,3.3-3.8,5.4-3.8c1.3,0,2.8,0.7,3.6,1.8c0.8,1.1,1.1,2.6,1.1,5v8.1v2.4c0,0.8-0.1,1-0.3,1.3
			c-0.4,0.5-1.4,0.6-3.5,0.7h-0.2v1.8h12.7v-1.8h-0.2c-3.3-0.1-3.8-0.4-3.8-2.1v-2.2v-7.9c0-3.6-0.1-4.5-1-6.2
			c-1.2-2.4-3.8-3.9-6.8-3.9c-3.2,0-5.7,1.5-7.9,4.8V171.3 M180.3,170.6c-6.1,0-10.9,5.4-10.9,12.4c0,6.9,4.8,12.4,10.8,12.4
			S191,189.9,191,183C191,176.1,186.2,170.6,180.3,170.6 M180.3,172.7c3.5,0,5.5,3.6,5.5,10.2c0,6.6-2,10.2-5.5,10.2
			c-3.6,0-5.6-3.6-5.6-10.2C174.6,176.2,176.5,172.7,180.3,172.7"/>
		<line class="st2" x1="233.4" y1="779.3" x2="233.4" y2="881.3"/>
		<line class="st3" x1="411.3" y1="779.3" x2="411.3" y2="881.3"/>
		<line class="st2" x1="428.6" y1="779.3" x2="428.6" y2="881.3"/>
		<path class="st1" d="M451.2,817.9c0-2.9-2.3-5.3-5.2-5.3s-5.2,2.4-5.2,5.3c0,2.9,2.3,5.3,5.2,5.3S451.2,820.8,451.2,817.9"/>
		<path class="st1" d="M451.2,842.7c0-2.9-2.3-5.3-5.2-5.3s-5.2,2.4-5.2,5.3c0,2.9,2.3,5.3,5.2,5.3S451.2,845.6,451.2,842.7"/>
		<line class="st2" x1="1088.5" y1="779.3" x2="1088.5" y2="881.3"/>
		<line class="st2" x1="1705.2" y1="779.3" x2="1705.2" y2="881.3"/>
		<line class="st2" x1="2247.6" y1="779.3" x2="2247.6" y2="881.3"/>
		<line class="st2" x1="2553.4" y1="779.3" x2="2553.4" y2="881.3"/>
		<line class="st2" x1="233.4" y1="506.5" x2="233.4" y2="780.7"/>
		<line class="st3" x1="411.3" y1="506.5" x2="411.3" y2="608.5"/>
		<line class="st2" x1="428.6" y1="506.5" x2="428.6" y2="608.5"/>
		<path class="st1" d="M451.2,545.1c0-2.9-2.3-5.3-5.2-5.3s-5.2,2.4-5.2,5.3c0,2.9,2.3,5.3,5.2,5.3S451.2,548,451.2,545.1"/>
		<path class="st1" d="M451.2,569.9c0-2.9-2.3-5.3-5.2-5.3s-5.2,2.4-5.2,5.3c0,2.9,2.3,5.3,5.2,5.3S451.2,572.8,451.2,569.9"/>
		<line class="st2" x1="1088.5" y1="506.5" x2="1088.5" y2="608.5"/>
		<line class="st2" x1="1705.2" y1="506.5" x2="1705.2" y2="608.5"/>
		<line class="st2" x1="2247.6" y1="506.5" x2="2247.6" y2="608.5"/>
		<line class="st2" x1="2553.4" y1="506.5" x2="2553.4" y2="608.5"/>
		<line class="st2" x1="233.4" y1="130.3" x2="233.4" y2="507.9"/>
		<line class="st3" x1="411.3" y1="130.3" x2="411.3" y2="232.2"/>
		<line class="st2" x1="428.6" y1="130.3" x2="428.6" y2="232.2"/>
		<path class="st1" d="M451.2,168.9c0-2.9-2.3-5.3-5.2-5.3s-5.2,2.4-5.2,5.3s2.3,5.3,5.2,5.3S451.2,171.7,451.2,168.9"/>
		<path class="st1" d="M451.2,193.7c0-2.9-2.3-5.3-5.2-5.3s-5.2,2.4-5.2,5.3s2.3,5.3,5.2,5.3S451.2,196.5,451.2,193.7"/>
		<line class="st2" x1="1088.5" y1="130.3" x2="1088.5" y2="232.2"/>
		<line class="st2" x1="1705.2" y1="130.3" x2="1705.2" y2="232.2"/>
		<line class="st2" x1="2247.6" y1="130.3" x2="2247.6" y2="232.2"/>
		<line class="st2" x1="2553.4" y1="130.3" x2="2553.4" y2="232.2"/>
		<line class="st4" x1="1559.5" y1="755.9" x2="1609.1" y2="755.9"/>
		<line class="st4" x1="639.4" y1="631.9" x2="689" y2="631.9"/>
		<line class="st4" x1="1256.1" y1="631.9" x2="1305.7" y2="631.9"/>
		<line class="st4" x1="1986.5" y1="631.9" x2="2036.1" y2="631.9"/>
		<line class="st4" x1="2138.6" y1="631.9" x2="2188.1" y2="631.9"/>
		<line class="st4" x1="2282.1" y1="631.9" x2="2331.7" y2="631.9"/>
		<line class="st4" x1="2138.6" y1="255.7" x2="2188.1" y2="255.7"/>
		<line class="st0" x1="514.6" y1="796.4" x2="514.6" y2="879.9"/>
		<line class="st0" x1="649.4" y1="821.2" x2="649.4" y2="886.1"/>
		<line class="st0" x1="733.7" y1="808.8" x2="733.7" y2="879.9"/>
		<line class="st0" x1="818" y1="796.4" x2="818" y2="879.9"/>
		<line class="st0" x1="952.8" y1="784" x2="952.8" y2="867.5"/>
		<line class="st0" x1="1131.3" y1="796.4" x2="1131.3" y2="879.9"/>
		<line class="st0" x1="1266.1" y1="821.2" x2="1266.1" y2="886.1"/>
		<line class="st0" x1="1350.4" y1="808.8" x2="1350.4" y2="879.9"/>
		<line class="st0" x1="1434.7" y1="796.4" x2="1434.7" y2="879.9"/>
		<line class="st0" x1="1569.5" y1="759.2" x2="1569.5" y2="842.7"/>
		<line class="st0" x1="1747.1" y1="784" x2="1747.1" y2="867.5"/>
		<line class="st0" x1="1871.8" y1="796.4" x2="1871.8" y2="879.9"/>
		<line class="st0" x1="1996.5" y1="821.2" x2="1996.5" y2="898.5"/>
		<line class="st0" x1="2178.1" y1="839.5" x2="2178.1" y2="762.1"/>
		<line class="st0" x1="2292.1" y1="796.4" x2="2292.1" y2="879.9"/>
		<line class="st0" x1="544.1" y1="603.9" x2="544.1" y2="520.3"/>
		<line class="st0" x1="678.9" y1="628.7" x2="678.9" y2="557.5"/>
		<line class="st0" x1="763.2" y1="616.3" x2="763.2" y2="551.3"/>
		<line class="st0" x1="847.5" y1="603.9" x2="847.5" y2="520.3"/>
		<line class="st0" x1="982.3" y1="591.5" x2="982.3" y2="507.9"/>
		<line class="st0" x1="1160.8" y1="603.9" x2="1160.8" y2="520.3"/>
		<line class="st0" x1="1295.6" y1="628.7" x2="1295.6" y2="557.5"/>
		<line class="st0" x1="1379.9" y1="616.3" x2="1379.9" y2="551.3"/>
		<line class="st0" x1="1464.2" y1="603.9" x2="1464.2" y2="520.3"/>
		<line class="st0" x1="1599" y1="566.7" x2="1599" y2="489.3"/>
		<line class="st0" x1="1776.6" y1="591.5" x2="1776.6" y2="507.9"/>
		<line class="st0" x1="1901.3" y1="603.9" x2="1901.3" y2="520.3"/>
		<line class="st0" x1="2026" y1="628.7" x2="2026" y2="545.1"/>
		<line class="st0" x1="2178.1" y1="628.7" x2="2178.1" y2="545.1"/>
		<line class="st0" x1="2321.6" y1="641.1" x2="2321.6" y2="557.5"/>
		<line class="st0" x1="544.1" y1="202.9" x2="544.1" y2="122.3"/>
		<line class="st0" x1="678.9" y1="227.7" x2="678.9" y2="156.5"/>
		<line class="st0" x1="763.2" y1="215.3" x2="763.2" y2="150.3"/>
		<line class="st0" x1="847.5" y1="202.9" x2="847.5" y2="122.3"/>
		<line class="st0" x1="982.3" y1="190.5" x2="982.3" y2="113"/>
		<line class="st0" x1="1160.8" y1="202.9" x2="1160.8" y2="122.3"/>
		<line class="st0" x1="1295.6" y1="227.7" x2="1295.6" y2="156.5"/>
		<line class="st0" x1="1379.9" y1="215.3" x2="1379.9" y2="150.3"/>
		<line class="st0" x1="1464.2" y1="202.9" x2="1464.2" y2="122.3"/>
		<line class="st0" x1="1569.5" y1="172.2" x2="1569.5" y2="249.5"/>
		<line class="st0" x1="1776.6" y1="190.5" x2="1776.6" y2="113"/>
		<line class="st0" x1="1901.3" y1="202.9" x2="1901.3" y2="122.3"/>
		<line class="st0" x1="2026" y1="227.7" x2="2026" y2="144.1"/>
		<line class="st0" x1="2178.1" y1="252.5" x2="2178.1" y2="168.9"/>
		<line class="st0" x1="2321.6" y1="240.1" x2="2321.6" y2="156.5"/>
		<path class="st1" d="M544.5,785.1c-1.8-3.3-5.6-5.1-10.1-5.1c-3.4,0-7,1-10.6,2.9c-6.5,3.5-10.5,9.3-10.5,14.4
			c0,1.4,0.3,2.8,1,4.1c1.8,3.3,5.6,5,10.1,5c3.4,0,7-0.9,10.6-2.8c6.5-3.5,10.5-9.3,10.5-14.4C545.5,787.8,545.2,786.4,544.5,785.1
			"/>
		<path class="st1" d="M679.3,809.9c-1.8-3.3-5.6-5.1-10.1-5.1c-3.4,0-7,1-10.6,2.9c-6.5,3.5-10.5,9.3-10.5,14.4
			c0,1.4,0.3,2.8,1,4.1c1.8,3.3,5.6,5,10.1,5c3.4,0,7-0.9,10.6-2.8c6.5-3.5,10.5-9.3,10.5-14.4C680.3,812.6,680,811.2,679.3,809.9"
			/>
		<path class="st1" d="M763.6,797.5c-1.8-3.3-5.6-5.1-10.1-5.1c-3.4,0-7,1-10.6,2.9c-6.5,3.5-10.5,9.3-10.5,14.4
			c0,1.4,0.3,2.8,1,4.1c1.8,3.3,5.6,5,10.1,5c3.4,0,7-0.9,10.6-2.8c6.5-3.5,10.5-9.3,10.5-14.4C764.6,800.2,764.3,798.8,763.6,797.5
			"/>
		<path class="st1" d="M847.9,785.1c-1.8-3.3-5.6-5.1-10.1-5.1c-3.4,0-7,1-10.6,2.9c-6.5,3.5-10.5,9.3-10.5,14.4
			c0,1.4,0.3,2.8,1,4.1c1.8,3.3,5.6,5,10.1,5c3.4,0,7-0.9,10.6-2.8c6.5-3.5,10.5-9.3,10.5-14.4C848.9,787.8,848.6,786.4,847.9,785.1
			"/>
		<path class="st1" d="M982.7,772.7c-1.8-3.3-5.6-5.1-10.1-5.1c-3.4,0-7,1-10.6,2.9c-6.5,3.5-10.5,9.3-10.5,14.4
			c0,1.4,0.3,2.8,1,4.1c1.8,3.3,5.6,5,10.1,5c3.4,0,7-0.9,10.6-2.8c6.5-3.5,10.5-9.3,10.5-14.4C983.7,775.4,983.4,774,982.7,772.7"
			/>
		<path class="st1" d="M1161.2,785.1c-1.8-3.3-5.6-5.1-10.1-5.1c-3.4,0-7,1-10.6,2.9c-6.5,3.5-10.5,9.3-10.5,14.4
			c0,1.4,0.3,2.8,1,4.1c1.8,3.3,5.6,5,10.1,5c3.4,0,7-0.9,10.6-2.8c6.5-3.5,10.5-9.3,10.5-14.4
			C1162.2,787.8,1161.9,786.4,1161.2,785.1"/>
		<path class="st1" d="M1296,809.9c-1.8-3.3-5.6-5.1-10.1-5.1c-3.4,0-7,1-10.6,2.9c-6.5,3.5-10.5,9.3-10.5,14.4c0,1.4,0.3,2.8,1,4.1
			c1.8,3.3,5.6,5,10.1,5c3.4,0,7-0.9,10.6-2.8c6.5-3.5,10.5-9.3,10.5-14.4C1297,812.6,1296.7,811.2,1296,809.9"/>
		<path class="st1" d="M1380.3,797.5c-1.8-3.3-5.6-5.1-10.1-5.1c-3.4,0-7,1-10.6,2.9c-6.5,3.5-10.5,9.3-10.5,14.4
			c0,1.4,0.3,2.8,1,4.1c1.8,3.3,5.6,5,10.1,5c3.4,0,7-0.9,10.6-2.8c6.5-3.5,10.5-9.3,10.5-14.4
			C1381.3,800.2,1381,798.8,1380.3,797.5"/>
		<path class="st1" d="M1464.6,785.1c-1.8-3.3-5.6-5.1-10.1-5.1c-3.4,0-7,1-10.6,2.9c-6.5,3.5-10.5,9.3-10.5,14.4
			c0,1.4,0.3,2.8,1,4.1c1.8,3.3,5.6,5,10.1,5c3.4,0,7-0.9,10.6-2.8c6.5-3.5,10.5-9.3,10.5-14.4
			C1465.6,787.8,1465.3,786.4,1464.6,785.1"/>
		<path class="st1" d="M1599.4,747.9c-1.8-3.3-5.6-5.1-10.1-5.1c-3.4,0-7,1-10.6,2.9c-6.5,3.5-10.5,9.3-10.5,14.4
			c0,1.4,0.3,2.8,1,4.1c1.8,3.3,5.6,5,10.1,5c3.4,0,7-0.9,10.6-2.8c6.5-3.5,10.5-9.3,10.5-14.4
			C1600.4,750.6,1600.1,749.2,1599.4,747.9"/>
		<path class="st1" d="M1777,772.7c-1.8-3.3-5.6-5.1-10.1-5.1c-3.4,0-7,1-10.6,2.9c-6.5,3.5-10.5,9.3-10.5,14.4c0,1.4,0.3,2.8,1,4.1
			c1.8,3.3,5.6,5,10.1,5c3.4,0,7-0.9,10.6-2.8c6.5-3.5,10.5-9.3,10.5-14.4C1778,775.4,1777.7,774,1777,772.7"/>
		<path class="st1" d="M1901.7,785.1c-1.8-3.3-5.6-5.1-10.1-5.1c-3.4,0-7,1-10.6,2.9c-6.5,3.5-10.5,9.3-10.5,14.4
			c0,1.4,0.3,2.8,1,4.1c1.8,3.3,5.6,5,10.1,5c3.4,0,7-0.9,10.6-2.8c6.5-3.5,10.5-9.3,10.5-14.4
			C1902.7,787.8,1902.4,786.4,1901.7,785.1"/>
		<path class="st1" d="M2026.4,809.9c-1.8-3.3-5.6-5.1-10.1-5.1c-3.4,0-7,1-10.6,2.9c-6.5,3.5-10.5,9.3-10.5,14.4
			c0,1.4,0.3,2.8,1,4.1c1.8,3.3,5.6,5,10.1,5c3.4,0,7-0.9,10.6-2.8c6.5-3.5,10.5-9.3,10.5-14.4
			C2027.4,812.6,2027.1,811.2,2026.4,809.9"/>
		<path class="st1" d="M2178.5,834.7c-1.8-3.3-5.6-5.1-10.1-5.1c-3.4,0-7,1-10.6,2.9c-6.5,3.5-10.5,9.3-10.5,14.4
			c0,1.4,0.3,2.8,1,4.1c1.8,3.3,5.6,5,10.1,5c3.4,0,7-0.9,10.6-2.8c6.5-3.5,10.5-9.3,10.5-14.4
			C2179.5,837.4,2179.2,836,2178.5,834.7"/>
		<path class="st1" d="M2322,785.1c-1.8-3.3-5.6-5.1-10.1-5.1c-3.4,0-7,1-10.6,2.9c-6.5,3.5-10.5,9.3-10.5,14.4c0,1.4,0.3,2.8,1,4.1
			c1.8,3.3,5.6,5,10.1,5c3.4,0,7-0.9,10.6-2.8c6.5-3.5,10.5-9.3,10.5-14.4C2323,787.8,2322.7,786.4,2322,785.1 M2317.7,791.8
			c-1.7,1.7-5.1,3.8-8.6,5.8c-3.6,2-7.1,3.5-9.5,4c-0.5,0.1-1,0.2-1.5,0.2c-1.6,0-2.8-0.6-3.5-1.9c-0.3-0.5-0.5-1.1-0.5-1.7
			c0-1.1,0.7-2.4,1.8-3.5c1.7-1.7,5-3.8,8.5-5.8c3.6-2,7.1-3.5,9.5-4c0.5-0.1,1-0.2,1.5-0.2c1.6,0,2.9,0.6,3.6,1.9
			c0.3,0.5,0.4,1.1,0.4,1.7C2319.4,789.4,2318.8,790.6,2317.7,791.8"/>
		<path class="st1" d="M544.5,599.1c-1.8-3.3-5.6-5.1-10.1-5.1c-3.4,0-7,1-10.6,2.9c-6.5,3.5-10.5,9.3-10.5,14.4
			c0,1.4,0.3,2.8,1,4.1c1.8,3.3,5.6,5,10.1,5c3.4,0,7-0.9,10.6-2.8c6.5-3.5,10.5-9.3,10.5-14.4C545.5,601.7,545.2,600.3,544.5,599.1
			"/>
		<path class="st1" d="M679.3,623.9c-1.8-3.3-5.6-5.1-10.1-5.1c-3.4,0-7,1-10.6,2.9c-6.5,3.5-10.5,9.3-10.5,14.4
			c0,1.4,0.3,2.8,1,4.1c1.8,3.3,5.6,5,10.1,5c3.4,0,7-0.9,10.6-2.8c6.5-3.5,10.5-9.3,10.5-14.4C680.3,626.5,680,625.1,679.3,623.9"
			/>
		<path class="st1" d="M763.6,611.5c-1.8-3.3-5.6-5.1-10.1-5.1c-3.4,0-7,1-10.6,2.9c-6.5,3.5-10.5,9.3-10.5,14.4
			c0,1.4,0.3,2.8,1,4.1c1.8,3.3,5.6,5,10.1,5c3.4,0,7-0.9,10.6-2.8c6.5-3.5,10.5-9.3,10.5-14.4C764.6,614.1,764.3,612.7,763.6,611.5
			"/>
		<path class="st1" d="M847.9,599.1c-1.8-3.3-5.6-5.1-10.1-5.1c-3.4,0-7,1-10.6,2.9c-6.5,3.5-10.5,9.3-10.5,14.4
			c0,1.4,0.3,2.8,1,4.1c1.8,3.3,5.6,5,10.1,5c3.4,0,7-0.9,10.6-2.8c6.5-3.5,10.5-9.3,10.5-14.4C848.9,601.7,848.6,600.3,847.9,599.1
			"/>
		<path class="st1" d="M982.7,586.7c-1.8-3.3-5.6-5.1-10.1-5.1c-3.4,0-7,1-10.6,2.9c-6.5,3.5-10.5,9.3-10.5,14.4
			c0,1.4,0.3,2.8,1,4.1c1.8,3.3,5.6,5,10.1,5c3.4,0,7-0.9,10.6-2.8c6.5-3.5,10.5-9.3,10.5-14.4C983.7,589.3,983.4,587.9,982.7,586.7
			"/>
		<path class="st1" d="M1161.2,599.1c-1.8-3.3-5.6-5.1-10.1-5.1c-3.4,0-7,1-10.6,2.9c-6.5,3.5-10.5,9.3-10.5,14.4
			c0,1.4,0.3,2.8,1,4.1c1.8,3.3,5.6,5,10.1,5c3.4,0,7-0.9,10.6-2.8c6.5-3.5,10.5-9.3,10.5-14.4
			C1162.2,601.7,1161.9,600.3,1161.2,599.1"/>
		<path class="st1" d="M1296,623.9c-1.8-3.3-5.6-5.1-10.1-5.1c-3.4,0-7,1-10.6,2.9c-6.5,3.5-10.5,9.3-10.5,14.4c0,1.4,0.3,2.8,1,4.1
			c1.8,3.3,5.6,5,10.1,5c3.4,0,7-0.9,10.6-2.8c6.5-3.5,10.5-9.3,10.5-14.4C1297,626.5,1296.7,625.1,1296,623.9"/>
		<path class="st1" d="M1380.3,611.5c-1.8-3.3-5.6-5.1-10.1-5.1c-3.4,0-7,1-10.6,2.9c-6.5,3.5-10.5,9.3-10.5,14.4
			c0,1.4,0.3,2.8,1,4.1c1.8,3.3,5.6,5,10.1,5c3.4,0,7-0.9,10.6-2.8c6.5-3.5,10.5-9.3,10.5-14.4
			C1381.3,614.1,1381,612.7,1380.3,611.5"/>
		<path class="st1" d="M1464.6,599.1c-1.8-3.3-5.6-5.1-10.1-5.1c-3.4,0-7,1-10.6,2.9c-6.5,3.5-10.5,9.3-10.5,14.4
			c0,1.4,0.3,2.8,1,4.1c1.8,3.3,5.6,5,10.1,5c3.4,0,7-0.9,10.6-2.8c6.5-3.5,10.5-9.3,10.5-14.4
			C1465.6,601.7,1465.3,600.3,1464.6,599.1"/>
		<path class="st1" d="M1599.4,561.8c-1.8-3.3-5.6-5.1-10.1-5.1c-3.4,0-7,1-10.6,2.9c-6.5,3.5-10.5,9.3-10.5,14.4
			c0,1.4,0.3,2.8,1,4.1c1.8,3.3,5.6,5,10.1,5c3.4,0,7-0.9,10.6-2.8c6.5-3.5,10.5-9.3,10.5-14.4
			C1600.4,564.5,1600.1,563.1,1599.4,561.8"/>
		<path class="st1" d="M1777,586.7c-1.8-3.3-5.6-5.1-10.1-5.1c-3.4,0-7,1-10.6,2.9c-6.5,3.5-10.5,9.3-10.5,14.4c0,1.4,0.3,2.8,1,4.1
			c1.8,3.3,5.6,5,10.1,5c3.4,0,7-0.9,10.6-2.8c6.5-3.5,10.5-9.3,10.5-14.4C1778,589.3,1777.7,587.9,1777,586.7"/>
		<path class="st1" d="M1901.7,599.1c-1.8-3.3-5.6-5.1-10.1-5.1c-3.4,0-7,1-10.6,2.9c-6.5,3.5-10.5,9.3-10.5,14.4
			c0,1.4,0.3,2.8,1,4.1c1.8,3.3,5.6,5,10.1,5c3.4,0,7-0.9,10.6-2.8c6.5-3.5,10.5-9.3,10.5-14.4
			C1902.7,601.7,1902.4,600.3,1901.7,599.1"/>
		<path class="st1" d="M2026.4,623.9c-1.8-3.3-5.6-5.1-10.1-5.1c-3.4,0-7,1-10.6,2.9c-6.5,3.5-10.5,9.3-10.5,14.4
			c0,1.4,0.3,2.8,1,4.1c1.8,3.3,5.6,5,10.1,5c3.4,0,7-0.9,10.6-2.8c6.5-3.5,10.5-9.3,10.5-14.4
			C2027.4,626.5,2027.1,625.1,2026.4,623.9"/>
		<path class="st1" d="M2178.5,623.9c-1.8-3.3-5.6-5.1-10.1-5.1c-3.4,0-7,1-10.6,2.9c-6.5,3.5-10.5,9.3-10.5,14.4
			c0,1.4,0.3,2.8,1,4.1c1.8,3.3,5.6,5,10.1,5c3.4,0,7-0.9,10.6-2.8c6.5-3.5,10.5-9.3,10.5-14.4
			C2179.5,626.5,2179.2,625.1,2178.5,623.9"/>
		<path class="st1" d="M2322,636.3c-1.8-3.3-5.6-5.1-10.1-5.1c-3.4,0-7,1-10.6,2.9c-6.5,3.5-10.5,9.3-10.5,14.4c0,1.4,0.3,2.8,1,4.1
			c1.8,3.3,5.6,5,10.1,5c3.4,0,7-0.9,10.6-2.8c6.5-3.5,10.5-9.3,10.5-14.4C2323,638.9,2322.7,637.5,2322,636.3 M2317.7,643
			c-1.7,1.7-5.1,3.8-8.6,5.8c-3.6,2-7.1,3.5-9.5,4c-0.5,0.1-1,0.2-1.5,0.2c-1.6,0-2.8-0.6-3.5-1.9c-0.3-0.5-0.5-1.1-0.5-1.7
			c0-1.1,0.7-2.4,1.8-3.5c1.7-1.7,5-3.8,8.5-5.8c3.6-2,7.1-3.5,9.5-4c0.5-0.1,1-0.2,1.5-0.2c1.6,0,2.9,0.6,3.6,1.9
			c0.3,0.5,0.4,1.1,0.4,1.7C2319.4,640.6,2318.8,641.8,2317.7,643"/>
		<path class="st1" d="M544.5,198c-1.8-3.3-5.6-5.1-10.1-5.1c-3.4,0-7,1-10.6,2.9c-6.5,3.5-10.5,9.3-10.5,14.4c0,1.4,0.3,2.8,1,4.1
			c1.8,3.3,5.6,5,10.1,5c3.4,0,7-0.9,10.6-2.8c6.5-3.5,10.5-9.3,10.5-14.4C545.5,200.7,545.2,199.3,544.5,198"/>
		<path class="st1" d="M679.3,222.8c-1.8-3.3-5.6-5.1-10.1-5.1c-3.4,0-7,1-10.6,2.9c-6.5,3.5-10.5,9.3-10.5,14.4
			c0,1.4,0.3,2.8,1,4.1c1.8,3.3,5.6,5,10.1,5c3.4,0,7-0.9,10.6-2.8c6.5-3.5,10.5-9.3,10.5-14.4C680.3,225.5,680,224.1,679.3,222.8"
			/>
		<path class="st1" d="M763.6,210.4c-1.8-3.3-5.6-5.1-10.1-5.1c-3.4,0-7,1-10.6,2.9c-6.5,3.5-10.5,9.3-10.5,14.4
			c0,1.4,0.3,2.8,1,4.1c1.8,3.3,5.6,5,10.1,5c3.4,0,7-0.9,10.6-2.8c6.5-3.5,10.5-9.3,10.5-14.4C764.6,213.1,764.3,211.7,763.6,210.4
			"/>
		<path class="st1" d="M847.9,198c-1.8-3.3-5.6-5.1-10.1-5.1c-3.4,0-7,1-10.6,2.9c-6.5,3.5-10.5,9.3-10.5,14.4c0,1.4,0.3,2.8,1,4.1
			c1.8,3.3,5.6,5,10.1,5c3.4,0,7-0.9,10.6-2.8c6.5-3.5,10.5-9.3,10.5-14.4C848.9,200.7,848.6,199.3,847.9,198"/>
		<path class="st1" d="M982.7,185.6c-1.8-3.3-5.6-5.1-10.1-5.1c-3.4,0-7,1-10.6,2.9c-6.5,3.5-10.5,9.3-10.5,14.4
			c0,1.4,0.3,2.8,1,4.1c1.8,3.3,5.6,5,10.1,5c3.4,0,7-0.9,10.6-2.8c6.5-3.5,10.5-9.3,10.5-14.4C983.7,188.3,983.4,186.9,982.7,185.6
			"/>
		<path class="st1" d="M1161.2,198c-1.8-3.3-5.6-5.1-10.1-5.1c-3.4,0-7,1-10.6,2.9c-6.5,3.5-10.5,9.3-10.5,14.4c0,1.4,0.3,2.8,1,4.1
			c1.8,3.3,5.6,5,10.1,5c3.4,0,7-0.9,10.6-2.8c6.5-3.5,10.5-9.3,10.5-14.4C1162.2,200.7,1161.9,199.3,1161.2,198"/>
		<path class="st1" d="M1296,222.8c-1.8-3.3-5.6-5.1-10.1-5.1c-3.4,0-7,1-10.6,2.9c-6.5,3.5-10.5,9.3-10.5,14.4c0,1.4,0.3,2.8,1,4.1
			c1.8,3.3,5.6,5,10.1,5c3.4,0,7-0.9,10.6-2.8c6.5-3.5,10.5-9.3,10.5-14.4C1297,225.5,1296.7,224.1,1296,222.8"/>
		<path class="st1" d="M1380.3,210.4c-1.8-3.3-5.6-5.1-10.1-5.1c-3.4,0-7,1-10.6,2.9c-6.5,3.5-10.5,9.3-10.5,14.4
			c0,1.4,0.3,2.8,1,4.1c1.8,3.3,5.6,5,10.1,5c3.4,0,7-0.9,10.6-2.8c6.5-3.5,10.5-9.3,10.5-14.4
			C1381.3,213.1,1381,211.7,1380.3,210.4"/>
		<path class="st1" d="M1464.6,198c-1.8-3.3-5.6-5.1-10.1-5.1c-3.4,0-7,1-10.6,2.9c-6.5,3.5-10.5,9.3-10.5,14.4c0,1.4,0.3,2.8,1,4.1
			c1.8,3.3,5.6,5,10.1,5c3.4,0,7-0.9,10.6-2.8c6.5-3.5,10.5-9.3,10.5-14.4C1465.6,200.7,1465.3,199.3,1464.6,198"/>
		<path class="st1" d="M1599.4,160.8c-1.8-3.3-5.6-5.1-10.1-5.1c-3.4,0-7,1-10.6,2.9c-6.5,3.5-10.5,9.3-10.5,14.4
			c0,1.4,0.3,2.8,1,4.1c1.8,3.3,5.6,5,10.1,5c3.4,0,7-0.9,10.6-2.8c6.5-3.5,10.5-9.3,10.5-14.4
			C1600.4,163.5,1600.1,162.1,1599.4,160.8"/>
		<path class="st1" d="M1777,185.6c-1.8-3.3-5.6-5.1-10.1-5.1c-3.4,0-7,1-10.6,2.9c-6.5,3.5-10.5,9.3-10.5,14.4c0,1.4,0.3,2.8,1,4.1
			c1.8,3.3,5.6,5,10.1,5c3.4,0,7-0.9,10.6-2.8c6.5-3.5,10.5-9.3,10.5-14.4C1778,188.3,1777.7,186.9,1777,185.6"/>
		<path class="st1" d="M1901.7,198c-1.8-3.3-5.6-5.1-10.1-5.1c-3.4,0-7,1-10.6,2.9c-6.5,3.5-10.5,9.3-10.5,14.4c0,1.4,0.3,2.8,1,4.1
			c1.8,3.3,5.6,5,10.1,5c3.4,0,7-0.9,10.6-2.8c6.5-3.5,10.5-9.3,10.5-14.4C1902.7,200.7,1902.4,199.3,1901.7,198"/>
		<path class="st1" d="M2026.4,222.8c-1.8-3.3-5.6-5.1-10.1-5.1c-3.4,0-7,1-10.6,2.9c-6.5,3.5-10.5,9.3-10.5,14.4
			c0,1.4,0.3,2.8,1,4.1c1.8,3.3,5.6,5,10.1,5c3.4,0,7-0.9,10.6-2.8c6.5-3.5,10.5-9.3,10.5-14.4
			C2027.4,225.5,2027.1,224.1,2026.4,222.8"/>
		<path class="st1" d="M2178.5,247.6c-1.8-3.3-5.6-5.1-10.1-5.1c-3.4,0-7,1-10.6,2.9c-6.5,3.5-10.5,9.3-10.5,14.4
			c0,1.4,0.3,2.8,1,4.1c1.8,3.3,5.6,5,10.1,5c3.4,0,7-0.9,10.6-2.8c6.5-3.5,10.5-9.3,10.5-14.4
			C2179.5,250.3,2179.2,248.9,2178.5,247.6"/>
		<path class="st1" d="M2322,235.2c-1.8-3.3-5.6-5.1-10.1-5.1c-3.4,0-7,1-10.6,2.9c-6.5,3.5-10.5,9.3-10.5,14.4c0,1.4,0.3,2.8,1,4.1
			c1.8,3.3,5.6,5,10.1,5c3.4,0,7-0.9,10.6-2.8c6.5-3.5,10.5-9.3,10.5-14.4C2323,237.9,2322.7,236.5,2322,235.2 M2317.7,242
			c-1.7,1.7-5.1,3.8-8.6,5.8c-3.6,2-7.1,3.5-9.5,4c-0.5,0.1-1,0.2-1.5,0.2c-1.6,0-2.8-0.6-3.5-1.9c-0.3-0.5-0.5-1.1-0.5-1.7
			c0-1.1,0.7-2.4,1.8-3.5c1.7-1.7,5-3.8,8.5-5.8c3.6-2,7.1-3.5,9.5-4c0.5-0.1,1-0.2,1.5-0.2c1.6,0,2.9,0.6,3.6,1.9
			c0.3,0.5,0.4,1.1,0.4,1.7C2319.4,239.6,2318.8,240.8,2317.7,242"/>
		<path class="st1" d="M280.7,780.6c-7.5,0-13.6,4.4-13.7,4.4c-5.8,4.3-8,9.3-8.9,12.8c-0.5,1.8-0.7,3.6-0.7,5.3
			c0,2.4,0.4,4.6,1.3,6.4c1.2,2.7,3.5,4.6,6.4,5.6c1.2,0.4,2.5,0.6,3.8,0.6c2.2,0,4.5-0.6,6.3-1.7c3.1-1.7,5-5.3,5-9.1
			c0-3.5-1.8-6.6-4.8-8.5c-2.1-1.4-4.1-1.8-5.8-1.8c-1.2,0-2.3,0.2-3.2,0.5c-1,0.4-2.7,1.4-3.5,2.1c0.3-1.9,1.5-4.8,2.6-6.3
			s3.3-3.6,5-4.5c2.5-1.4,5.7-2,9.1-2c10.1,0,15.1,8.1,15.1,24.8c0,9.2-3.5,18.1-6.4,23.9c-3.3,6.5-7.6,12.8-11.5,16.3
			c-10.3,9.4-20,13.9-20.1,13.9c0,0-1.5,0.9-1.1,2.4c0.3,1,1.2,1.2,1.8,1.2c0.1,0,0.4-0.1,0.5-0.1s11.4-4.7,20.4-11.7
			c5.1-3.7,9.6-7.6,13.6-11.9c3.6-3.9,6.6-8,9.1-12.2c4.4-7.4,6.8-15.2,6.8-21.8c0-8.2-2.2-15.1-6.3-19.9
			C296.9,783.5,289.9,780.6,280.7,780.6 M311.8,793.2c0,2.8,2.2,5,4.8,5s4.8-2.2,4.8-5s-2.2-5.1-4.8-5.1S311.8,790.4,311.8,793.2
			 M311.8,817.7c0,2.8,2.2,5.1,4.8,5.1s4.8-2.3,4.8-5.1s-2.2-5.1-4.8-5.1S311.8,814.9,311.8,817.7"/>
		<path class="st1" d="M318.3,576.5c-1.2-5.4-3.8-9.2-4.6-10.2c-3.2-4.2-7.1-7.1-11.8-8.4c-3.1-0.9-6.1-1-8.5-0.8
			c-1-6-2-11.8-2.9-17.2c5.4-6.1,9-11.9,11.3-16.1c3.4-6.5,4.6-11.1,4.6-11.3c1.7-5.2,2.1-12.8,1-21c-1-7.5-3.1-14.1-5.4-17.4
			c-1-1.4-2.1-2.1-3.1-2.1c-1.2,0-3.7,1.2-6.6,4c-2.3,2.2-5.5,6-8.1,12c-3,7-3.2,16.4-2.8,23.1c0.4,7.2,1.5,12.9,1.5,12.9
			c0,0.1,0.3,1.6,0.7,4.1c-0.2,0.2-0.5,0.4-0.7,0.7c-1,1-2.2,2.1-3.6,3.5c-0.9,0.9-1.8,1.8-2.8,2.7c-8.4,8.1-21.1,20.3-21.1,39.3
			c0,4.7,0.9,9,2.7,13c1.6,3.6,3.9,6.8,6.8,9.7c7.7,7.5,18.2,10.7,25.2,10.5c2.9-0.1,5.5-0.3,7.9-0.8c1.8,9.5,2.9,16.5,3,21.8
			c0,6.5-1.6,10.4-5.5,13.1c-2.4,1.7-5.2,2.7-8.3,2.8c-2.6,0.1-4.8-0.3-6.2-0.8h0c0,0-0.3-0.1-0.3-0.3c0-0.2,0.3-0.2,0.3-0.2h0
			c1.9-0.4,5.4-1.7,7.8-4.9c1.8-2.5,2.6-7.1,0.8-11c-1.1-2.4-3.6-5.3-9.2-5.7c-2.5-0.2-4.7,0.3-6.7,1.5c-1.8,1.1-3.3,2.7-4.3,4.7
			c-2.4,4.7-2,10.3,1.1,14.2c2.9,3.6,7.5,5.9,12.9,6.5c0.8,0.1,1.7,0.1,2.5,0.1c4.4,0,8.8-1.2,12.3-3.4c3.6-2.5,5.7-6.5,6.4-12.1
			c0.6-4.6,0.2-10.5-1.2-18.5c-0.4-2.1-0.9-5.1-1.5-8.8c5.7-1.9,9.8-5.4,13.6-11.3C318.8,588.8,319.7,582.7,318.3,576.5
			 M284.4,602.4c-4.6-1.2-9-3.7-12.7-7.2c-1.3-1.2-3.2-3.4-4.6-6.7c-1.4-3.1-2-6.5-2-10.1c0.1-4.7,1.4-9.4,3.9-14.2
			c2.9-5.5,7.4-11,13.4-16.3c1.4-1.3,2.8-2.5,4.1-3.8c0.8,4.2,1.6,8.9,2.5,13.7c-3.8,1.3-8.5,4.4-11.6,10c-3.5,6.5-3.4,12-2.6,15.4
			c0.9,4.4,3.4,8.2,6.9,10.2c0.9,0.6,5,2.7,6.8,2.1c0.4-0.1,0.6-0.3,0.8-0.7c0.5-1.2-0.5-1.8-2.1-2.7c-0.6-0.4-1.3-0.8-2-1.3
			c-3.3-2.5-4.7-6.9-3.7-11.2c0.6-2.4,1.8-4.5,3.7-6.2c1.7-1.5,3.7-2.6,6-3.3c2,11.2,4.1,22.2,5.7,30.5c0.1,0.7,0.3,1.3,0.4,2
			C292.9,603.6,288.5,603.5,284.4,602.4 M295.6,569.5c10.3-0.5,14.5,6.9,15.4,11.7c0.5,2.5,0.5,6.9-1.1,11.1
			c-1.2,3.2-3.6,7.2-8.7,9.2c-0.1-0.4-0.1-0.8-0.2-1.3C299.5,591.6,297.5,580.7,295.6,569.5 M288.3,499.1c1.8-5.7,4.5-8.9,6.5-10.6
			c1.7-1.5,3.4-2.2,4.3-2.2c0.1,0,0.3,0,0.4,0c0.5,0.1,1,0.7,1.4,1.6c2.3,4.3,1.6,10.9,0.2,15.3c-1.6,5.4-4.5,10.9-13.2,20.5
			c-0.2-1.1-0.3-2.1-0.5-3.1C286.1,512.4,286.5,505.1,288.3,499.1"/>
		<path class="st1" d="M318.3,200.2c-1.2-5.4-3.8-9.2-4.6-10.2c-3.2-4.2-7.1-7.1-11.8-8.4c-3.1-0.9-6.1-1-8.5-0.8
			c-1-6-2-11.8-2.9-17.2c5.4-6.1,9-11.9,11.3-16.1c3.4-6.5,4.6-11.1,4.6-11.3c1.7-5.2,2.1-12.8,1-21c-1-7.5-3.1-14.1-5.4-17.4
			c-1-1.4-2.1-2.1-3.1-2.1c-1.2,0-3.7,1.2-6.6,4c-2.3,2.2-5.5,6-8.1,12c-3,7-3.2,16.4-2.8,23.1c0.4,7.2,1.5,12.9,1.5,12.9
			c0,0.1,0.3,1.6,0.7,4.1c-0.2,0.2-0.5,0.4-0.7,0.7c-1,1-2.2,2.1-3.6,3.5c-0.9,0.9-1.8,1.8-2.8,2.7c-8.4,8.1-21.1,20.3-21.1,39.3
			c0,4.7,0.9,9,2.7,13c1.6,3.6,3.9,6.8,6.8,9.7c7.7,7.5,18.2,10.7,25.2,10.5c2.9-0.1,5.5-0.3,7.9-0.8c1.8,9.5,2.9,16.5,3,21.8
			c0,6.5-1.6,10.4-5.5,13.1c-2.4,1.7-5.2,2.7-8.3,2.8c-2.6,0.1-4.8-0.3-6.2-0.8h0c0,0-0.3-0.1-0.3-0.3c0-0.2,0.3-0.2,0.3-0.2h0
			c1.9-0.4,5.4-1.7,7.8-4.9c1.8-2.5,2.6-7.1,0.8-11c-1.1-2.4-3.6-5.3-9.2-5.7c-2.5-0.2-4.7,0.3-6.7,1.5c-1.8,1.1-3.3,2.7-4.3,4.7
			c-2.4,4.7-2,10.3,1.1,14.2c2.9,3.6,7.5,5.9,12.9,6.5c0.8,0.1,1.7,0.1,2.5,0.1c4.4,0,8.8-1.2,12.3-3.4c3.6-2.5,5.7-6.5,6.4-12.1
			c0.6-4.6,0.2-10.5-1.2-18.5c-0.4-2.1-0.9-5.1-1.5-8.8c5.7-1.9,9.8-5.4,13.6-11.3C318.8,212.5,319.7,206.5,318.3,200.2
			 M284.4,226.2c-4.6-1.2-9-3.7-12.7-7.2c-1.3-1.2-3.2-3.4-4.6-6.7c-1.4-3.1-2-6.5-2-10.1c0.1-4.7,1.4-9.4,3.9-14.2
			c2.9-5.5,7.4-11,13.4-16.3c1.4-1.3,2.8-2.5,4.1-3.8c0.8,4.2,1.6,8.9,2.5,13.7c-3.8,1.3-8.5,4.4-11.6,10c-3.5,6.5-3.4,12-2.6,15.4
			c0.9,4.4,3.4,8.2,6.9,10.2c0.9,0.6,5,2.7,6.8,2.1c0.4-0.1,0.6-0.3,0.8-0.7c0.5-1.2-0.5-1.8-2.1-2.7c-0.6-0.4-1.3-0.8-2-1.3
			c-3.3-2.5-4.7-6.9-3.7-11.2c0.6-2.4,1.8-4.5,3.7-6.2c1.7-1.5,3.7-2.6,6-3.3c2,11.2,4.1,22.2,5.7,30.5c0.1,0.7,0.3,1.3,0.4,2
			C292.9,227.4,288.5,227.3,284.4,226.2 M295.6,193.3c10.3-0.5,14.5,6.9,15.4,11.7c0.5,2.5,0.5,6.9-1.1,11.1
			c-1.2,3.2-3.6,7.2-8.7,9.2c-0.1-0.4-0.1-0.8-0.2-1.3C299.5,215.4,297.5,204.5,295.6,193.3 M288.3,122.9c1.8-5.7,4.5-8.9,6.5-10.6
			c1.7-1.5,3.4-2.2,4.3-2.2c0.1,0,0.3,0,0.4,0c0.5,0.1,1,0.7,1.4,1.6c2.3,4.3,1.6,10.9,0.2,15.3c-1.6,5.4-4.5,10.9-13.2,20.5
			c-0.2-1.1-0.3-2.1-0.5-3.1C286.1,136.1,286.5,128.9,288.3,122.9"/>
		<path class="st1" d="M378.4,812.6c-2.5,1.6-4.3,4.5-4.3,7.6c0,0.4,0,0.8,0.1,1.2c0.5,4.1,3.8,7.2,7.8,7.7h1.1c5,0,8.9-4,8.9-8.9
			v-0.6c0-0.4-0.1-1.1-0.2-1.5c-0.9-4.3-4.8-13.4-21.6-13.4c-21.6,0-24.1,18-24.1,24.4c0,11.8,1.5,26.6,26.3,26.6
			c9.8,0,17.5-5.8,17.9-16.4c0-0.5-0.3-0.8-0.8-0.8h-1.3c-0.4,0-0.8,0.4-0.8,0.8c-0.4,8.2-6.3,13.2-15,13.2
			c-8.6,0-12.8-4.7-12.8-13.4v-18.9c0-5.6,2.2-11.9,11-11.9c4.7,0,6.7,1.7,7.8,3.4C378.7,812.1,378.7,812.4,378.4,812.6"/>
		<path class="st1" d="M378.4,539.7c-2.5,1.6-4.3,4.5-4.3,7.6c0,0.4,0,0.8,0.1,1.2c0.5,4.1,3.8,7.2,7.8,7.7h1.1c5,0,8.9-4,8.9-8.9
			v-0.6c0-0.4-0.1-1.1-0.2-1.5c-0.9-4.3-4.8-13.4-21.6-13.4c-21.6,0-24.1,18-24.1,24.4c0,11.8,1.5,26.6,26.3,26.6
			c9.8,0,17.5-5.8,17.9-16.4c0-0.5-0.3-0.8-0.8-0.8h-1.3c-0.4,0-0.8,0.4-0.8,0.8c-0.4,8.2-6.3,13.2-15,13.2
			c-8.6,0-12.8-4.7-12.8-13.4v-18.9c0-5.6,2.2-11.9,11-11.9c4.7,0,6.7,1.7,7.8,3.4C378.7,539.2,378.7,539.5,378.4,539.7"/>
		<path class="st1" d="M378.4,163.5c-2.5,1.6-4.3,4.5-4.3,7.6c0,0.4,0,0.8,0.1,1.2c0.5,4.1,3.8,7.2,7.8,7.7h1.1c5,0,8.9-4,8.9-8.9
			v-0.6c0-0.4-0.1-1.1-0.2-1.5c-0.9-4.3-4.8-13.4-21.6-13.4c-21.6,0-24.1,18-24.1,24.4c0,11.8,1.5,26.6,26.3,26.6
			c9.8,0,17.5-5.8,17.9-16.4c0-0.5-0.3-0.8-0.8-0.8h-1.3c-0.4,0-0.8,0.4-0.8,0.8c-0.4,8.2-6.3,13.2-15,13.2
			c-8.6,0-12.8-4.7-12.8-13.4v-18.9c0-5.6,2.2-11.9,11-11.9c4.7,0,6.7,1.7,7.8,3.4C378.7,163,378.7,163.3,378.4,163.5"/>
		<path class="st1" d="M2485.9,847.1l-0.2-0.3c-0.1-0.1-0.3-0.3-0.6-0.7l-11.4-14.1c-0.3-0.3-0.2-1.1,0-1.5l10.1-15.3
			c0.1-0.2,0.2-0.5,0.2-0.7v-0.9c0-0.3-0.1-0.6-0.3-0.8l-16.1-21.7c0,0-0.8-1.2-1.8-0.3c-1,0.8-0.2,2.1-0.2,2.1l7.5,10.3
			c0.4,0.6,0.4,1.8,0,2.4l-10,15.3c-0.1,0.2-0.2,0.6-0.2,0.8v0.9c0,0.3,0.1,0.6,0.3,0.8l11.1,13.8c-0.4-0.1-1.3-0.3-2.5-0.3
			c-1.7,0-3.9,0.4-5.7,2c-2.2,2-3.4,4.8-3.4,7.2c0,1.4,0.3,2.8,1.1,3.9c2.1,3.2,9.5,12.6,9.5,12.6s0.9,1.1,1.8,0.4
			c0.9-0.7,0.7-1.6,0.4-2.1c-0.3-0.5-3.5-6.3-3.5-6.3s-0.7-1.4-0.7-3.2c0-1.3,0.4-2.9,1.7-4.2c1.2-1.2,2.6-1.6,3.9-1.6
			s2.4,0.4,3.2,0.9l3.9,2.5c0,0,1.2,0.6,1.8-0.3C2486.4,848,2486.2,847.6,2485.9,847.1"/>
		<path class="st1" d="M2485.9,574.2l-0.2-0.3c-0.1-0.1-0.3-0.3-0.6-0.7l-11.4-14.1c-0.3-0.3-0.2-1.1,0-1.5l10.1-15.3
			c0.1-0.2,0.2-0.5,0.2-0.7v-0.9c0-0.3-0.1-0.6-0.3-0.8l-16.1-21.7c0,0-0.8-1.2-1.8-0.3c-1,0.8-0.2,2.1-0.2,2.1l7.5,10.3
			c0.4,0.6,0.4,1.8,0,2.4l-10,15.3c-0.1,0.2-0.2,0.6-0.2,0.8v0.9c0,0.3,0.1,0.6,0.3,0.8l11.1,13.8c-0.4-0.1-1.3-0.3-2.5-0.3
			c-1.7,0-3.9,0.4-5.7,2c-2.2,2-3.4,4.8-3.4,7.2c0,1.4,0.3,2.8,1.1,3.9c2.1,3.2,9.5,12.6,9.5,12.6s0.9,1.1,1.8,0.4
			c0.9-0.7,0.7-1.6,0.4-2.1c-0.3-0.5-3.5-6.3-3.5-6.3s-0.7-1.4-0.7-3.2c0-1.3,0.4-2.9,1.7-4.2c1.2-1.2,2.6-1.6,3.9-1.6
			s2.4,0.4,3.2,0.9l3.9,2.5c0,0,1.2,0.6,1.8-0.3C2486.4,575.1,2486.2,574.7,2485.9,574.2"/>
		<path class="st1" d="M2485.9,198l-0.2-0.3c-0.1-0.1-0.3-0.3-0.6-0.7l-11.4-14.1c-0.3-0.3-0.2-1.1,0-1.5l10.1-15.3
			c0.1-0.2,0.2-0.5,0.2-0.7v-0.9c0-0.3-0.1-0.6-0.3-0.8l-16.1-21.7c0,0-0.8-1.2-1.8-0.3c-1,0.8-0.2,2.1-0.2,2.1l7.5,10.3
			c0.4,0.6,0.4,1.8,0,2.4l-10,15.3c-0.1,0.2-0.2,0.6-0.2,0.8v0.9c0,0.3,0.1,0.6,0.3,0.8l11.1,13.8c-0.4-0.1-1.3-0.3-2.5-0.3
			c-1.7,0-3.9,0.4-5.7,2c-2.2,2-3.4,4.8-3.4,7.2c0,1.4,0.3,2.8,1.1,3.9c2.1,3.2,9.5,12.6,9.5,12.6s0.9,1.1,1.8,0.4
			c0.9-0.7,0.7-1.6,0.4-2.1s-3.5-6.3-3.5-6.3s-0.7-1.4-0.7-3.2c0-1.3,0.4-2.9,1.7-4.2c1.2-1.2,2.6-1.6,3.9-1.6s2.4,0.4,3.2,0.9
			l3.9,2.5c0,0,1.2,0.6,1.8-0.3C2486.4,198.9,2486.2,198.5,2485.9,198"/>
		<path class="st5" d="M648.1,879.9l87-6.4v12.4l-87,6.4V879.9"/>
		<path class="st5" d="M1264.8,879.9l87-6.4v12.4l-87,6.4V879.9"/>
		<path class="st5" d="M677.6,551.5l87-6.4v12.4l-87,6.4V551.5"/>
		<path class="st5" d="M1294.3,551.5l87-6.4v12.4l-87,6.4V551.5"/>
		<path class="st5" d="M677.6,150.4l87-6.4v12.4l-87,6.4V150.4"/>
		<path class="st5" d="M1294.3,150.4l87-6.4v12.4l-87,6.4V150.4"/>
		<path class="st1" d="M2180.2,765.6c-0.1-0.3-1-3.8-1-4c-0.1-0.4-0.7-0.7-1.2-0.7c-0.7,0-1.3,0.6-1.3,1.3v16.3v6.2
			c0,0.5,0.4,0.9,0.8,1.1c4.2,1.3,12.8,6.7,19.2,17.8c1.8,3.1,4.7,7.2,4.7,15.6c0,7.1-1.1,14.7-2.9,21.6c-0.3,1.1-0.6,2.1,0.5,2.5
			s1.5-0.4,1.9-1.4c3.6-8.7,4.5-17.9,4.5-24v-1.9c-0.5-12.8-7.8-22.2-7.8-22.2c0.3,0-9.1-12.2-11.8-16.4
			C2182.1,771.6,2180.3,766,2180.2,765.6"/>
		<path class="st1" d="M2180.2,548.6c-0.1-0.3-1-3.8-1-4c-0.1-0.4-0.7-0.7-1.2-0.7c-0.7,0-1.3,0.6-1.3,1.3v16.3v6.2
			c0,0.5,0.4,0.9,0.8,1.1c4.2,1.3,12.8,6.7,19.2,17.8c1.8,3.1,4.7,7.2,4.7,15.6c0,7.1-1.1,14.7-2.9,21.6c-0.3,1.1-0.6,2.1,0.5,2.5
			s1.5-0.4,1.9-1.4c3.6-8.7,4.5-17.9,4.5-24v-1.9c-0.5-12.8-7.8-22.2-7.8-22.2c0.3,0-9.1-12.2-11.8-16.4
			C2182.1,554.6,2180.3,548.9,2180.2,548.6"/>
		<path class="st1" d="M2180.2,172.3c-0.1-0.3-1-3.8-1-4c-0.1-0.4-0.7-0.7-1.2-0.7c-0.7,0-1.3,0.6-1.3,1.3v16.3v6.2
			c0,0.5,0.4,0.9,0.8,1.1c4.2,1.3,12.8,6.7,19.2,17.8c1.8,3.1,4.7,7.2,4.7,15.6c0,7.1-1.1,14.7-2.9,21.6c-0.3,1.1-0.6,2.1,0.5,2.5
			c1.1,0.4,1.5-0.4,1.9-1.4c3.6-8.7,4.5-17.9,4.5-24v-1.9c-0.5-12.8-7.8-22.2-7.8-22.2c0.3,0-9.1-12.2-11.8-16.4
			C2182.1,178.4,2180.3,172.7,2180.2,172.3"/>
		<path class="st1" d="M521.4,308.5c0.1,0,0.2,0,0.2,0c0.1,0,0.2,0,0.5,0c0.1,0,0.4,0,0.8,0.1c0.2,0,0.8,0,1.6,0.1
			c1.8,0.1,3.6,0.2,5.6,0.2c1.9,0,3.5-0.1,5.7-0.2c0.2,7.3,0.4,12,0.5,13c-1.1-0.6-3.5-1-5.5-1c-5.5,0-9.5,3-9.5,7.1
			c0,4.3,3.7,7.1,9.5,7.1c4.1,0,7.1-1.5,8.3-4.2c0.4-0.9,0.6-2.1,0.6-3.4c0-0.5,0-0.6-0.1-1.3c0.2,0.2,0.2,0.2,0.5,0.3
			c0.3,0.2,0.3,0.2,0.5,0.3c3.5,2,5.5,3.5,7.1,5.2l1.6-3.5c-0.6-0.4-0.7-0.5-1.2-0.9c-3.3-2.5-4.7-3.2-8.4-4.9
			c-0.4-6.7-0.5-9.2-0.5-14.2c2.6-0.3,4-0.5,5.3-0.8c3.4-0.7,3.4-0.7,3.5-0.7l-0.1-3.4c-1.9,0.8-4.8,1.4-8.7,1.9c0-1.1,0-1.9,0-2.5
			c0-4.2,0.1-6.5,0.3-7.8h-3.8c0.1,0.5,0.2,1.2,0.2,2c0,3.8,0,3.8,0,8.5c-2,0.1-3.4,0.1-5.3,0.1c-4.4,0-6.6-0.2-9-0.8L521.4,308.5
			 M536.5,324.8c0,0,0.1,1.2,0.1,1.5c0,2-0.3,3.2-1,3.9c-1,1.1-2.9,1.8-5.1,1.8c-3.5,0-5.8-1.6-5.8-4c0-2.5,2.5-4.2,6.5-4.2
			C533.1,323.7,534.4,324,536.5,324.8 M512.6,295c0,0.7-0.1,1-0.5,3.2c-1.9,8.7-2.6,13.9-2.6,20.5c0,5,0.5,10.2,1.4,14.9
			c0.2,1.1,0.2,1.4,0.3,1.8l3.5-0.3c-0.1-0.7-0.1-0.8-0.1-1c0-3,2-9.3,4.3-14.2l-2.5-1.2c-0.1,0.4-0.2,0.5-0.4,1
			c-1.7,4.1-2.1,5-3,8.8l-0.2,0c0-0.5,0-0.5,0-1c0-0.9,0-1,0-1.4c-0.1-2.3-0.2-5.2-0.2-7c0-8.2,1.7-18.5,3.8-23.5L512.6,295"/>
		<path class="st1" d="M521.4,362.4c0.1,0,0.2,0,0.2,0c0.1,0,0.2,0,0.5,0c0.1,0,0.4,0,0.8,0.1c0.2,0,0.8,0,1.6,0.1
			c1.8,0.1,3.6,0.2,5.6,0.2c1.9,0,3.5-0.1,5.7-0.2c0.2,7.3,0.4,12,0.5,13c-1.1-0.6-3.5-1-5.5-1c-5.5,0-9.5,3-9.5,7.1
			c0,4.3,3.7,7.1,9.5,7.1c4.1,0,7.1-1.5,8.3-4.2c0.4-0.9,0.6-2.1,0.6-3.4c0-0.5,0-0.6-0.1-1.3c0.2,0.2,0.2,0.2,0.5,0.3
			c0.3,0.2,0.3,0.2,0.5,0.3c3.5,2,5.5,3.5,7.1,5.2l1.6-3.5c-0.6-0.4-0.7-0.5-1.2-0.9c-3.3-2.5-4.7-3.2-8.4-4.9
			c-0.4-6.7-0.5-9.2-0.5-14.2c2.6-0.3,4-0.5,5.3-0.8c3.4-0.7,3.4-0.7,3.5-0.7l-0.1-3.4c-1.9,0.8-4.8,1.4-8.7,1.9c0-1.1,0-1.9,0-2.5
			c0-4.2,0.1-6.5,0.3-7.8h-3.8c0.1,0.5,0.2,1.2,0.2,2c0,3.8,0,3.8,0,8.5c-2,0.1-3.4,0.1-5.3,0.1c-4.4,0-6.6-0.2-9-0.8L521.4,362.4
			 M536.5,378.7c0,0,0.1,1.2,0.1,1.5c0,2-0.3,3.2-1,3.9c-1,1.1-2.9,1.8-5.1,1.8c-3.5,0-5.8-1.6-5.8-4c0-2.5,2.5-4.2,6.5-4.2
			C533.1,377.6,534.4,377.9,536.5,378.7 M512.6,348.9c0,0.7-0.1,1-0.5,3.2c-1.9,8.7-2.6,13.9-2.6,20.5c0,5,0.5,10.2,1.4,14.9
			c0.2,1.1,0.2,1.4,0.3,1.8l3.5-0.3c-0.1-0.7-0.1-0.8-0.1-1c0-3,2-9.3,4.3-14.2l-2.5-1.2c-0.1,0.4-0.2,0.5-0.4,1
			c-1.7,4.1-2.1,5-3,8.8l-0.2,0c0-0.5,0-0.5,0-1c0-0.9,0-1,0-1.4c-0.1-2.3-0.2-5.2-0.2-7c0-8.2,1.7-18.5,3.8-23.5L512.6,348.9"/>
		<path class="st1" d="M519.8,402.8c0.3,0.8,0.4,1,0.8,3.2c1.3,6.4,2.2,9.9,3.7,14c-3.1,1.5-4.7,2.5-6.5,4c-3,2.4-4.5,5.3-4.5,8.5
			c0,4,2.1,6.7,6.2,8.2c2.4,0.9,6.1,1.3,11.1,1.3c3.5,0,5.9-0.1,11-0.6c2.8-0.3,2.8-0.3,3.7-0.3L545,437c-2.9,1-8.5,1.7-14.3,1.7
			c-9.8,0-13.6-1.8-13.6-6.3c0-4.1,3.7-7.4,12.2-10.8c4.4-1.8,11.5-4.1,15-4.8l-1.5-3.8c-1,0.5-1.5,0.7-3.2,1.3
			c-7.8,2.7-9.2,3.2-12.1,4.4c-1.7-5-3.6-13.2-3.8-16.5L519.8,402.8"/>
		<path class="st1" d="M651.7,300.8c1.1-0.1,1.6-0.2,2.7-0.2c7.6-0.2,13.6-0.6,15.2-0.9c0.3,0,0.3,0,0.5,0l0.1,0.1l-0.2,0.2
			c-0.1,0.1-0.2,0.2-0.2,0.2c-0.4,0.4-0.4,0.4-0.7,0.7c-3.5,3.4-11.4,10.4-16.7,14.6c-3.4,2.8-5.2,4-7,5.1l2.2,3.2
			c5.8-5.3,13.7-8.5,21-8.5c6.8,0,10.8,2.8,10.8,7.6c0,4.2-2.8,7.3-8,8.8c-0.7-2.2-1.2-3.4-2.3-4.8c-2-2.6-4.9-4.1-8.2-4.1
			c-4.2,0-7.2,2.5-7.2,5.8c0,4.6,4,7.2,11.1,7.2c11.1,0,18.4-5.2,18.4-13c0-6.4-5.4-10.5-13.7-10.5c-4.4,0-8.5,1-12.2,3.1l-0.1-0.2
			c3.5-2.2,9.5-7.5,16.4-14.2c1.6-1.5,1.9-1.8,2.6-2.1l-2.1-2.8c-0.6,0.3-1.1,0.5-2.4,0.5c-4.5,0.3-11.2,0.7-15.3,0.7
			c-2.4,0-3.3-0.1-4.7-0.3L651.7,300.8 M668.1,332.4c-1.8,0.3-2.4,0.3-3.7,0.3c-2.1,0-4.3-0.4-5.6-1.1c-1.3-0.8-2-1.8-2-3
			c0-1.9,1.5-3.1,4-3.1C664.5,325.5,667,327.9,668.1,332.4"/>
		<path class="st1" d="M655.7,347.6c-0.1,2.3-0.9,6.5-1.7,9.4c-1,0-2.6,0-3.6,0c-2.8,0-4.2-0.1-6-0.4l0,3.5c0.3,0,0.5,0,0.6,0
			c0.2,0,0.5,0,1.1,0c0.8,0,2.4,0.1,3.3,0.1c0.8,0,2.5-0.1,3.7-0.1c-1.5,4.8-2.9,8.4-5.2,12.9c-1.9,3.6-3.2,5.8-4.8,7.8l3.4,2
			c0.2-0.4,0.5-1,1-1.7c1.9-3.3,2.4-4.1,3.5-6.5c2.2-4.6,4-9.2,5.6-14.6c3-0.2,6.1-0.6,8.2-1.1c1.2-0.2,1.2-0.2,1.8-0.3l-0.1-3.5
			c-2.3,0.8-5.5,1.4-9,1.7c0.7-2.5,1-3.8,1.3-5.5c0.4-2,0.5-2.2,0.8-3.2L655.7,347.6 M685.1,361.4c-4.1-2.6-7.4-4.3-13.2-6.6
			l-1.9,2.8c5.2,1.9,9.1,3.9,13.2,6.8L685.1,361.4 M685.2,383.6c-0.3-0.2-0.3-0.2-0.9-0.8c-2.7-2.4-5.8-4.3-9.8-6
			c-0.3-1.9-0.5-5.4-0.5-7.6c0-1.8,0.2-2.8,0.7-4.6l-3.4-0.4c-0.4,1.9-0.5,3-0.5,4.9c0,1.2,0.1,3.6,0.3,6.8c-1.9-0.5-3.2-0.8-5-0.8
			c-2.2,0-4.1,0.3-5.9,1.1c-2.8,1.2-4.7,3.7-4.7,6.4c0,4.5,3.8,7.2,9.8,7.2c6.1,0,9.5-2.9,9.5-8c0-0.5,0-0.8-0.1-1.6
			c3.6,1.9,6.8,4.4,8.8,6.8L685.2,383.6 M671.3,379c0,0,0.1,1.5,0.1,2.1c0,3.8-2,5.5-6.2,5.5c-4,0-6.4-1.5-6.4-4.1
			c0-2.8,2.7-4.5,7-4.5C667.8,378,669.2,378.3,671.3,379"/>
		<path class="st1" d="M652.3,401.6c0,0.6,0,0.9-0.1,1.6c-1.2,8.8-1.7,13.5-1.7,18.4c0,0.2,0,0.7,0,1.2l0.1,5.2l0.1,0.9
			c0,0.1,0,0.3,0,0.6l3.6-0.2c0-0.8,0-1,0-1.2c0-3.6,1-7.5,2.7-11.1c2.8-5.9,6-8.7,9.8-8.7c4.8,0,7.6,4.6,7.6,12.7
			c0,8-2.8,13.2-8.6,16.6c-2.9,1.7-5.5,2.5-10.2,3.2c1.1,1.3,1.4,1.9,2,3.4c3.5-0.8,6.5-1.8,8.9-3c7.5-3.8,11.5-10.6,11.5-19.6
			c0-5.4-0.9-9-3-12.2c-2-2.9-4.8-4.5-8-4.5c-3.9,0-7.2,2.2-10,6.5c-1.5,2.2-2.5,4.7-3,7.5c-0.2,1-0.2,1-0.3,1.5l-0.2,0
			c0.1-2.6,0.8-8,1.6-13.1c0.5-2.7,0.8-4.1,1.2-5.1L652.3,401.6"/>
		<path class="st1" d="M758.2,295c1.5,1.6,3.9,5.3,5.2,8l2.5-1.5c-1.5-3-2.9-5-5.2-7.8L758.2,295 M726,310.4
			c2.2-0.7,3.7-0.9,10.1-1.8c-2.2,9.5-6.6,19.5-10.7,24.9l3.4,2c5.2-9.1,8.7-17.8,10.8-27.2c1.8-0.2,2.5-0.2,3.6-0.2
			c4.7,0,6.2,1.7,6.2,7c0,5.6-0.8,10.7-2.1,13.9c-0.6,1.6-1.6,2.4-2.8,2.4c-1.8,0-4.6-0.9-7.5-2.3c0.2,0.9,0.2,1.2,0.2,1.9
			c0,0.7,0,1.1-0.1,1.8c3.3,1.4,5.4,1.9,7.5,1.9c2.4,0,3.7-0.6,4.9-2.3c2-2.9,3.3-9.5,3.3-17.2c0-4.1-0.7-6.4-2.4-8
			c-1.6-1.5-3.7-2.1-7.2-2.1c-1.2,0-1.8,0-3,0.1c0.4-2.1,0.8-4.5,1-5.7c0.4-2.7,0.7-3.8,1-4.8l-4-0.5c0,0.3,0,0.6,0,0.7
			c0,2.1-0.7,6.8-1.5,10.6c-7.3,1.1-9.2,1.2-11,1.3L726,310.4 M763.9,292.4c2,2.2,4,5.5,5.1,7.8l2.5-1.5c-1.6-3.1-2.9-5-5.1-7.8
			L763.9,292.4 M755.5,303.8c4.5,4.5,8.6,11.6,10.2,18l3.2-1.8c-2.1-6.6-5.5-12.4-10.5-17.7L755.5,303.8"/>
		<path class="st1" d="M758.2,348.9c1.5,1.6,3.9,5.3,5.2,8l2.5-1.5c-1.5-3-2.9-5-5.2-7.8L758.2,348.9 M726,364.3
			c2.2-0.7,3.7-0.9,10.1-1.8c-2.2,9.5-6.6,19.5-10.7,24.9l3.4,2c5.2-9.1,8.7-17.8,10.8-27.2c1.8-0.2,2.5-0.2,3.6-0.2
			c4.7,0,6.2,1.7,6.2,7c0,5.6-0.8,10.7-2.1,13.9c-0.6,1.6-1.6,2.4-2.8,2.4c-1.8,0-4.6-0.9-7.5-2.3c0.2,0.9,0.2,1.2,0.2,1.9
			c0,0.7,0,1.1-0.1,1.8c3.3,1.4,5.4,1.9,7.5,1.9c2.4,0,3.7-0.6,4.9-2.3c2-2.9,3.3-9.5,3.3-17.2c0-4.1-0.7-6.4-2.4-8
			c-1.6-1.5-3.7-2.1-7.2-2.1c-1.2,0-1.8,0-3,0.1c0.4-2.1,0.8-4.5,1-5.7c0.4-2.7,0.7-3.8,1-4.8l-4-0.5c0,0.3,0,0.6,0,0.7
			c0,2.1-0.7,6.8-1.5,10.6c-7.3,1.1-9.2,1.2-11,1.3L726,364.3 M763.9,346.3c2,2.2,4,5.5,5.1,7.8l2.5-1.5c-1.6-3.1-2.9-5-5.1-7.8
			L763.9,346.3 M755.5,357.7c4.5,4.5,8.6,11.6,10.2,18l3.2-1.8c-2.1-6.6-5.5-12.4-10.5-17.7L755.5,357.7"/>
		<path class="st1" d="M758.2,402.8c1.5,1.6,3.9,5.3,5.2,8l2.5-1.5c-1.5-3-2.9-5-5.2-7.8L758.2,402.8 M726,418.2
			c2.2-0.7,3.7-0.9,10.1-1.8c-2.2,9.4-6.6,19.4-10.7,24.9l3.4,2c5.2-9.1,8.7-17.8,10.8-27.2c1.8-0.2,2.5-0.2,3.6-0.2
			c4.7,0,6.2,1.7,6.2,7c0,5.6-0.8,10.7-2.1,13.9c-0.6,1.6-1.6,2.4-2.8,2.4c-1.8,0-4.6-0.9-7.5-2.3c0.2,0.9,0.2,1.2,0.2,2
			c0,0.7,0,1-0.1,1.8c3.3,1.4,5.4,2,7.5,2c2.4,0,3.7-0.6,4.9-2.3c2-2.9,3.3-9.5,3.3-17.2c0-4.1-0.7-6.4-2.4-8
			c-1.6-1.5-3.7-2.1-7.2-2.1c-1.2,0-1.8,0.1-3,0.2c0.4-2.2,0.8-4.5,1-5.7c0.4-2.7,0.7-3.8,1-4.8l-4-0.5c0,0.3,0,0.5,0,0.7
			c0,2.1-0.7,6.8-1.5,10.6c-7.3,1-9.2,1.2-11,1.3L726,418.2 M763.9,400.2c2,2.2,4,5.5,5.1,7.8l2.5-1.5c-1.6-3.1-2.9-5-5.1-7.8
			L763.9,400.2 M755.5,411.6c4.5,4.5,8.6,11.6,10.2,18l3.2-1.8c-2.1-6.6-5.5-12.4-10.5-17.7L755.5,411.6"/>
		<path class="st1" d="M815.6,305.2c0.9-0.1,1-0.1,3.1-0.2c5.7-0.1,9.7-0.3,13.5-0.9c1.2,2.7,1.5,3.2,2.8,5.7
			c-4.1,0.8-10.6,1.2-15.8,1.2c-2,0-2.9-0.1-4-0.2l0.1,3.3c0.9-0.1,1.1-0.1,3.5-0.2c9.3-0.3,12.6-0.5,17.6-1.4c1.8,3,3.8,6,5.3,7.7
			c-3.3-1-5.9-1.4-10.1-1.4c-9.5,0-15.2,3.2-15.2,8.6c0,2.6,1.3,4.9,3.8,6.2c2.5,1.5,5.7,2.1,10.3,2.1c4.5,0,8.7-0.6,12.8-1.8
			c2.3-0.7,2.3-0.7,3-0.8l-0.7-3.9c-3,1.8-9.6,3.3-14.8,3.3c-6.8,0-10.7-1.8-10.7-5.1c0-3.5,4.7-5.7,11.8-5.7c2.2,0,4.8,0.2,6.6,0.5
			c2.4,0.4,3.6,0.8,5.5,1.9l2.9-2.1c-3.8-4.5-4.4-5.2-7.3-10c1.8-0.3,4.3-0.9,7.8-1.8c1.7-0.5,1.9-0.5,2.7-0.6l-0.4-3.4
			c-2.1,1-4.8,1.8-11.4,3.1c-0.8-1.4-2.1-4-2.9-5.7c2.8-0.5,8.2-1.6,12.6-2.8l-0.3-3.2c-2.8,1.2-7.5,2.3-13.3,3.3
			c-1.2-2.7-2.2-5.2-2.7-7l-3.8,0.6c0.4,0.7,1.4,3,3,6.9c-4.6,0.5-7.7,0.7-11.8,0.7c-1.7,0-2.6-0.1-3.8-0.2L815.6,305.2"/>
		<path class="st1" d="M815.5,361.7c0.8-0.1,1-0.2,1.9-0.2c6.6-0.1,12.9-0.6,17.8-1.3c0.3,0.5,0.3,0.6,0.8,1.6
			c2.2,4.2,3.4,6.2,6,9.8c-2.1-1.1-6-1.8-10.3-1.8c-4.1,0-7.1,0.6-9.7,1.9c-3.5,1.7-5.7,4.8-5.7,8.1c0,2,0.8,4,2.2,5.5
			c2.3,2.4,6.9,3.8,13,3.8c4.9,0,9.7-0.8,14.7-2.7l-0.5-3.9c-3.8,2-9.2,3.2-14.2,3.2c-4.3,0-7.9-0.8-9.8-2.3c-1.2-1-1.9-2.4-1.9-3.9
			c0-1.8,1.1-3.6,2.7-4.6c2.2-1.4,5.3-2.1,9.5-2.1c3.4,0,6.2,0.5,8.8,1.3c1.4,0.5,2.1,1,3.4,2.1l3.3-1.9c-3.5-4.7-7.2-10.7-9-14.5
			c0.5-0.1,0.5-0.1,1.7-0.4c3.2-0.6,3.8-0.8,6.8-1.5c1.5-0.4,1.9-0.5,2.9-0.7l-0.5-3.5c-2.7,1.2-7.2,2.4-12.1,3.2
			c-0.4-1-0.6-1.2-1.8-4.4c-1.2-3.2-1.2-3.2-1.4-4.5l-3.9,0.5c0.4,0.9,0.8,1.6,1.3,2.9c0.9,2.2,1.7,4.2,2.5,6
			c-4.7,0.6-10.4,1-14.9,1c-1.7,0-2.6,0-3.9-0.2L815.5,361.7"/>
		<path class="st1" d="M824.2,401.5c-0.1,2.3-0.9,6.5-1.7,9.4c-0.9,0-2.6,0-3.6,0c-2.8,0-4.2-0.1-6-0.4l0,3.5c0.3,0,0.5,0,0.6,0
			c0.2,0,0.6,0,1.1,0c0.8,0,2.4,0,3.3,0c0.8,0,2.5,0,3.7-0.1c-1.5,4.8-2.9,8.3-5.2,12.9c-1.8,3.6-3.2,5.8-4.8,7.8l3.4,2
			c0.2-0.4,0.6-1,1-1.7c1.9-3.3,2.3-4.2,3.5-6.5c2.2-4.6,4-9.2,5.6-14.6c3-0.2,6.2-0.6,8.2-1c1.2-0.2,1.2-0.2,1.8-0.3l-0.2-3.5
			c-2.3,0.8-5.4,1.4-8.9,1.7c0.7-2.5,1-3.8,1.3-5.5c0.4-2,0.5-2.2,0.8-3.2L824.2,401.5 M853.7,415.3c-4.1-2.6-7.4-4.3-13.2-6.6
			l-1.8,2.8c5.2,1.9,9.1,3.9,13.2,6.8L853.7,415.3 M853.8,437.5c-0.3-0.2-0.3-0.2-0.9-0.8c-2.7-2.4-5.8-4.3-9.8-6.1
			c-0.3-1.9-0.6-5.3-0.6-7.6c0-1.8,0.2-2.8,0.7-4.7l-3.4-0.3c-0.4,1.8-0.5,3-0.5,4.8c0,1.2,0.1,3.6,0.3,6.9c-1.9-0.5-3.2-0.8-5-0.8
			c-2.2,0-4.2,0.3-5.9,1.1c-2.8,1.2-4.7,3.7-4.7,6.4c0,4.4,3.8,7.2,9.8,7.2c6.1,0,9.5-2.9,9.5-8c0-0.5,0-0.8-0.1-1.6
			c3.7,1.9,6.8,4.4,8.8,6.8L853.8,437.5 M839.9,432.9c0,0,0.1,1.5,0.1,2.1c0,3.8-1.9,5.5-6.2,5.5c-3.9,0-6.3-1.5-6.3-4.1
			c0-2.8,2.7-4.5,7-4.5C836.3,431.9,837.8,432.2,839.9,432.9"/>
		<path class="st1" d="M948.1,306.4c0.4,0,0.8,0,0.8,0c0,0,0.1,0,0.2,0c2,0.1,2.4,0.1,4.2,0.1c1.8,0,2.5,0,3.5,0
			c-1.9,9.8-5.7,21.2-9.4,27.6l3.7,1.6c2.6-6.1,4.1-9.9,5.8-15.2c1.3-4.6,2.8-10.2,3.5-14.2c2.4-0.2,5.9-0.7,8.4-1.2
			c1-0.2,1-0.2,1.4-0.2l-0.2-3.5c-2.4,0.8-5.1,1.3-9,1.7c0.2-1.5,0.4-2.2,0.7-3.8c0.6-3.5,0.6-3.5,0.9-4.8l-3.9-0.4
			c0,2.2-0.1,3.1-1.1,9.2c-1.5,0.1-2,0.1-3,0.1c-2.7,0-4.7-0.2-6.2-0.5V306.4 M985.8,308.8c-3.8-0.2-4.5-0.2-5.5-0.2
			c-4.2,0-7.4,0.4-13.2,1.7l0.4,3.4c4.5-1.2,8-1.7,12.5-1.7c2.1,0,3.5,0.1,5.9,0.4L985.8,308.8 M967.6,319.6c-2.6,3.4-3.3,5-3.3,7.2
			c0,4.9,4.2,7.5,12.5,7.5c2.6,0,5.5-0.2,8.9-0.9c1.7-0.2,1.7-0.2,2.2-0.3l-0.3-3.8c-2.9,1-7.3,1.7-11.1,1.7c-5.7,0-8.8-1.6-8.8-4.6
			c0-1.2,0.4-2.5,1.2-3.5c0.3-0.5,0.5-0.7,1.5-1.9L967.6,319.6"/>
		<path class="st1" d="M975,347.9c-1.8,2.8-8,8.6-14.6,13.7c-3.7,2.8-3.7,2.8-4.2,3.4c-1,1-1.5,2.1-1.5,3.3c0,1.7,0.8,2.8,3.6,5
			c7.3,5.7,9.3,7.3,12.7,10.5c3.3,3,5.2,5.1,6.5,6.8l3.1-3.1c-0.5-0.5-0.6-0.5-1.4-1.2c-7.4-7-8.8-8.1-16-13.7
			c-4.1-3.1-4.5-3.5-4.5-4.4c0-0.7,0.3-1.1,2.2-2.5c6.3-4.9,9-7.1,11.5-9.5c5.2-5,5.6-5.4,6.1-5.8L975,347.9"/>
		<path class="st1" d="M975,401.8c-1.8,2.8-8,8.6-14.6,13.7c-3.7,2.8-3.7,2.8-4.2,3.4c-1,1-1.5,2.2-1.5,3.4c0,1.7,0.8,2.8,3.6,5
			c7.3,5.7,9.3,7.3,12.7,10.5c3.3,3,5.2,5.1,6.5,6.8l3.1-3.1c-0.5-0.5-0.6-0.5-1.4-1.2c-7.4-7-8.8-8.1-16-13.7
			c-4.1-3.2-4.5-3.5-4.5-4.4c0-0.7,0.3-1.1,2.2-2.5c6.3-4.8,9-7.1,11.5-9.4c5.2-5,5.6-5.4,6.1-5.8L975,401.8"/>
		<path class="st1" d="M1138.1,308.5c0.1,0,0.1,0,0.2,0c0.1,0,0.2,0,0.5,0c0.1,0,0.4,0,0.8,0.1c0.2,0,0.8,0,1.6,0.1
			c1.8,0.1,3.6,0.2,5.7,0.2c1.9,0,3.5-0.1,5.7-0.2c0.1,7.3,0.3,12,0.5,13c-1.2-0.6-3.5-1-5.6-1c-5.6,0-9.5,3-9.5,7.1
			c0,4.3,3.7,7.1,9.4,7.1c4.1,0,7.2-1.5,8.4-4.2c0.4-0.9,0.6-2.1,0.6-3.4c0-0.5,0-0.6-0.1-1.3c0.2,0.2,0.2,0.2,0.4,0.3
			c0.3,0.2,0.3,0.2,0.5,0.3c3.6,2,5.6,3.5,7.1,5.2l1.6-3.5c-0.6-0.4-0.7-0.5-1.2-0.9c-3.3-2.5-4.7-3.2-8.3-4.9
			c-0.4-6.7-0.5-9.2-0.6-14.2c2.6-0.3,4-0.5,5.3-0.8c3.4-0.7,3.4-0.7,3.5-0.7l-0.2-3.4c-1.9,0.8-4.8,1.4-8.7,1.9
			c-0.1-1.1-0.1-1.9-0.1-2.5c0-4.2,0.1-6.5,0.4-7.8h-3.8c0.1,0.5,0.1,1.2,0.1,2c0,3.8,0,3.8,0.1,8.5c-2.1,0.1-3.4,0.1-5.3,0.1
			c-4.4,0-6.6-0.2-9-0.8L1138.1,308.5 M1153.2,324.8c0,0,0.1,1.2,0.1,1.5c0,2-0.3,3.2-1,3.9c-0.9,1.1-2.9,1.8-5.1,1.8
			c-3.5,0-5.8-1.6-5.8-4c0-2.5,2.5-4.2,6.4-4.2C1149.8,323.7,1151.1,324,1153.2,324.8 M1129.3,295c0,0.7-0.1,1-0.5,3.2
			c-2,8.7-2.6,13.9-2.6,20.5c0,5,0.5,10.2,1.4,14.9c0.2,1.1,0.2,1.4,0.3,1.8l3.6-0.3c-0.1-0.7-0.1-0.8-0.1-1c0-3,2-9.3,4.3-14.2
			l-2.4-1.2c-0.1,0.4-0.2,0.5-0.4,1c-1.7,4.1-2.1,5-3,8.8l-0.2,0c0-0.5,0-0.5,0-1c-0.1-0.9-0.1-1-0.1-1.4c-0.1-2.3-0.2-5.2-0.2-7
			c0-8.2,1.7-18.5,3.8-23.5L1129.3,295"/>
		<path class="st1" d="M1138.1,362.4c0.1,0,0.1,0,0.2,0c0.1,0,0.2,0,0.5,0c0.1,0,0.4,0,0.8,0.1c0.2,0,0.8,0,1.6,0.1
			c1.8,0.1,3.6,0.2,5.7,0.2c1.9,0,3.5-0.1,5.7-0.2c0.1,7.3,0.3,12,0.5,13c-1.2-0.6-3.5-1-5.6-1c-5.6,0-9.5,3-9.5,7.1
			c0,4.3,3.7,7.1,9.4,7.1c4.1,0,7.2-1.5,8.4-4.2c0.4-0.9,0.6-2.1,0.6-3.4c0-0.5,0-0.6-0.1-1.3c0.2,0.2,0.2,0.2,0.4,0.3
			c0.3,0.2,0.3,0.2,0.5,0.3c3.6,2,5.6,3.5,7.1,5.2l1.6-3.5c-0.6-0.4-0.7-0.5-1.2-0.9c-3.3-2.5-4.7-3.2-8.3-4.9
			c-0.4-6.7-0.5-9.2-0.6-14.2c2.6-0.3,4-0.5,5.3-0.8c3.4-0.7,3.4-0.7,3.5-0.7l-0.2-3.4c-1.9,0.8-4.8,1.4-8.7,1.9
			c-0.1-1.1-0.1-1.9-0.1-2.5c0-4.2,0.1-6.5,0.4-7.8h-3.8c0.1,0.5,0.1,1.2,0.1,2c0,3.8,0,3.8,0.1,8.5c-2.1,0.1-3.4,0.1-5.3,0.1
			c-4.4,0-6.6-0.2-9-0.8L1138.1,362.4 M1153.2,378.7c0,0,0.1,1.2,0.1,1.5c0,2-0.3,3.2-1,3.9c-0.9,1.1-2.9,1.8-5.1,1.8
			c-3.5,0-5.8-1.6-5.8-4c0-2.5,2.5-4.2,6.4-4.2C1149.8,377.6,1151.1,377.9,1153.2,378.7 M1129.3,348.9c0,0.7-0.1,1-0.5,3.2
			c-2,8.7-2.6,13.9-2.6,20.5c0,5,0.5,10.2,1.4,14.9c0.2,1.1,0.2,1.4,0.3,1.8l3.6-0.3c-0.1-0.7-0.1-0.8-0.1-1c0-3,2-9.3,4.3-14.2
			l-2.4-1.2c-0.1,0.4-0.2,0.5-0.4,1c-1.7,4.1-2.1,5-3,8.8l-0.2,0c0-0.5,0-0.5,0-1c-0.1-0.9-0.1-1-0.1-1.4c-0.1-2.3-0.2-5.2-0.2-7
			c0-8.2,1.7-18.5,3.8-23.5L1129.3,348.9"/>
		<path class="st1" d="M1136.5,402.8c0.3,0.8,0.4,1,0.9,3.2c1.3,6.4,2.2,9.9,3.6,14c-3.1,1.5-4.6,2.5-6.5,4c-3,2.4-4.5,5.3-4.5,8.5
			c0,4,2.1,6.7,6.2,8.2c2.4,0.9,6.2,1.3,11.1,1.3c3.5,0,5.9-0.1,11.1-0.6c2.8-0.3,2.8-0.3,3.7-0.3l-0.4-4.1c-2.9,1-8.5,1.7-14.3,1.7
			c-9.8,0-13.7-1.8-13.7-6.3c0-4.1,3.7-7.4,12.2-10.8c4.4-1.8,11.5-4.1,15-4.8l-1.5-3.8c-1,0.5-1.4,0.7-3.2,1.3
			c-7.8,2.7-9.2,3.2-12.1,4.4c-1.7-5-3.6-13.2-3.8-16.5L1136.5,402.8"/>
		<path class="st1" d="M1268.4,300.8c1.1-0.1,1.6-0.2,2.7-0.2c7.6-0.2,13.6-0.6,15.2-0.9c0.3,0,0.3,0,0.4,0l0.1,0.1l-0.2,0.2
			c-0.1,0.1-0.2,0.2-0.2,0.2c-0.4,0.4-0.4,0.4-0.7,0.7c-3.4,3.4-11.3,10.4-16.7,14.6c-3.4,2.8-5.2,4-7,5.1l2.2,3.2
			c5.8-5.3,13.7-8.5,21.1-8.5c6.8,0,10.8,2.8,10.8,7.6c0,4.2-2.8,7.3-8,8.8c-0.7-2.2-1.2-3.4-2.3-4.8c-2-2.6-4.9-4.1-8.2-4.1
			c-4.2,0-7.2,2.5-7.2,5.8c0,4.6,4.1,7.2,11.1,7.2c11.1,0,18.3-5.2,18.3-13c0-6.4-5.3-10.5-13.7-10.5c-4.4,0-8.4,1-12.2,3.1
			l-0.1-0.2c3.5-2.2,9.5-7.5,16.4-14.2c1.6-1.5,1.8-1.8,2.6-2.1l-2.1-2.8c-0.7,0.3-1.1,0.5-2.4,0.5c-4.5,0.3-11.2,0.7-15.3,0.7
			c-2.4,0-3.3-0.1-4.7-0.3L1268.4,300.8 M1284.8,332.4c-1.8,0.3-2.4,0.3-3.7,0.3c-2.2,0-4.3-0.4-5.6-1.1c-1.3-0.8-2-1.8-2-3
			c0-1.9,1.6-3.1,4.1-3.1C1281.2,325.5,1283.7,327.9,1284.8,332.4"/>
		<path class="st1" d="M1272.4,347.6c-0.1,2.3-0.9,6.5-1.7,9.4c-1,0-2.6,0-3.6,0c-2.8,0-4.2-0.1-6-0.4l0,3.5c0.3,0,0.5,0,0.6,0
			c0.2,0,0.6,0,1.1,0c0.8,0,2.4,0.1,3.3,0.1c0.8,0,2.5-0.1,3.7-0.1c-1.5,4.8-2.9,8.4-5.2,12.9c-1.8,3.6-3.2,5.8-4.8,7.8l3.4,2
			c0.2-0.4,0.6-1,1-1.7c1.9-3.3,2.4-4.1,3.6-6.5c2.2-4.6,4-9.2,5.6-14.6c3-0.2,6.1-0.6,8.2-1.1c1.2-0.2,1.2-0.2,1.8-0.3l-0.2-3.5
			c-2.3,0.8-5.4,1.4-8.9,1.7c0.7-2.5,1-3.8,1.3-5.5c0.4-2,0.4-2.2,0.8-3.2L1272.4,347.6 M1301.8,361.4c-4.1-2.6-7.4-4.3-13.2-6.6
			l-1.8,2.8c5.2,1.9,9.1,3.9,13.2,6.8L1301.8,361.4 M1301.9,383.6c-0.3-0.2-0.3-0.2-0.9-0.8c-2.7-2.4-5.8-4.3-9.8-6
			c-0.3-1.9-0.5-5.4-0.5-7.6c0-1.8,0.2-2.8,0.7-4.6l-3.4-0.4c-0.4,1.9-0.5,3-0.5,4.9c0,1.2,0.1,3.6,0.3,6.8
			c-1.9-0.5-3.2-0.8-5.1-0.8c-2.2,0-4.1,0.3-5.9,1.1c-2.8,1.2-4.7,3.7-4.7,6.4c0,4.5,3.8,7.2,9.8,7.2c6.1,0,9.5-2.9,9.5-8
			c0-0.5,0-0.8-0.1-1.6c3.6,1.9,6.8,4.4,8.8,6.8L1301.9,383.6 M1288,379c0,0,0.1,1.5,0.1,2.1c0,3.8-1.9,5.5-6.2,5.5
			c-3.9,0-6.3-1.5-6.3-4.1c0-2.8,2.7-4.5,6.9-4.5C1284.5,378,1285.9,378.3,1288,379"/>
		<path class="st1" d="M1269,401.6c0,0.6-0.1,0.9-0.2,1.6c-1.2,8.8-1.7,13.5-1.7,18.4c0,0.2,0,0.7,0,1.2l0.1,5.2l0,0.9
			c0,0.1,0,0.3,0,0.6l3.6-0.2c0-0.8,0-1,0-1.2c0-3.6,0.9-7.5,2.7-11.1c2.8-5.9,6.1-8.7,9.8-8.7c4.8,0,7.6,4.6,7.6,12.7
			c0,8-2.8,13.2-8.6,16.6c-2.9,1.7-5.5,2.5-10.1,3.2c1.1,1.3,1.4,1.9,2,3.4c3.5-0.8,6.5-1.8,8.9-3c7.5-3.8,11.6-10.6,11.6-19.6
			c0-5.4-0.9-9-3-12.2c-1.9-2.9-4.8-4.5-8-4.5c-3.9,0-7.2,2.2-10,6.5c-1.4,2.2-2.4,4.7-3.1,7.5c-0.2,1-0.2,1-0.3,1.5l-0.2,0
			c0.2-2.6,0.8-8,1.7-13.1c0.4-2.7,0.8-4.1,1.1-5.1L1269,401.6"/>
		<path class="st1" d="M1374.9,295c1.5,1.6,3.9,5.3,5.2,8l2.5-1.5c-1.5-3-2.9-5-5.2-7.8L1374.9,295 M1342.7,310.4
			c2.2-0.7,3.7-0.9,10.1-1.8c-2.2,9.5-6.6,19.5-10.7,24.9l3.4,2c5.2-9.1,8.7-17.8,10.8-27.2c1.8-0.2,2.5-0.2,3.6-0.2
			c4.7,0,6.2,1.7,6.2,7c0,5.6-0.8,10.7-2.1,13.9c-0.7,1.6-1.6,2.4-2.8,2.4c-1.8,0-4.6-0.9-7.5-2.3c0.2,0.9,0.2,1.2,0.2,1.9
			c0,0.7,0,1.1-0.1,1.8c3.3,1.4,5.4,1.9,7.5,1.9c2.4,0,3.7-0.6,4.9-2.3c2.1-2.9,3.3-9.5,3.3-17.2c0-4.1-0.7-6.4-2.4-8
			c-1.6-1.5-3.7-2.1-7.2-2.1c-1.2,0-1.8,0-3,0.1c0.4-2.1,0.8-4.5,1.1-5.7c0.4-2.7,0.7-3.8,0.9-4.8l-4-0.5c0,0.3,0,0.6,0,0.7
			c0,2.1-0.7,6.8-1.5,10.6c-7.3,1.1-9.2,1.2-11,1.3L1342.7,310.4 M1380.6,292.4c2,2.2,4.1,5.5,5.1,7.8l2.5-1.5
			c-1.6-3.1-2.9-5-5.1-7.8L1380.6,292.4 M1372.2,303.8c4.5,4.5,8.6,11.6,10.2,18l3.2-1.8c-2.1-6.6-5.5-12.4-10.4-17.7L1372.2,303.8"
			/>
		<path class="st1" d="M1374.9,348.9c1.5,1.6,3.9,5.3,5.2,8l2.5-1.5c-1.5-3-2.9-5-5.2-7.8L1374.9,348.9 M1342.7,364.3
			c2.2-0.7,3.7-0.9,10.1-1.8c-2.2,9.5-6.6,19.5-10.7,24.9l3.4,2c5.2-9.1,8.7-17.8,10.8-27.2c1.8-0.2,2.5-0.2,3.6-0.2
			c4.7,0,6.2,1.7,6.2,7c0,5.6-0.8,10.7-2.1,13.9c-0.7,1.6-1.6,2.4-2.8,2.4c-1.8,0-4.6-0.9-7.5-2.3c0.2,0.9,0.2,1.2,0.2,1.9
			c0,0.7,0,1.1-0.1,1.8c3.3,1.4,5.4,1.9,7.5,1.9c2.4,0,3.7-0.6,4.9-2.3c2.1-2.9,3.3-9.5,3.3-17.2c0-4.1-0.7-6.4-2.4-8
			c-1.6-1.5-3.7-2.1-7.2-2.1c-1.2,0-1.8,0-3,0.1c0.4-2.1,0.8-4.5,1.1-5.7c0.4-2.7,0.7-3.8,0.9-4.8l-4-0.5c0,0.3,0,0.6,0,0.7
			c0,2.1-0.7,6.8-1.5,10.6c-7.3,1.1-9.2,1.2-11,1.3L1342.7,364.3 M1380.6,346.3c2,2.2,4.1,5.5,5.1,7.8l2.5-1.5
			c-1.6-3.1-2.9-5-5.1-7.8L1380.6,346.3 M1372.2,357.7c4.5,4.5,8.6,11.6,10.2,18l3.2-1.8c-2.1-6.6-5.5-12.4-10.4-17.7L1372.2,357.7"
			/>
		<path class="st1" d="M1374.9,402.8c1.5,1.6,3.9,5.3,5.2,8l2.5-1.5c-1.5-3-2.9-5-5.2-7.8L1374.9,402.8 M1342.7,418.2
			c2.2-0.7,3.7-0.9,10.1-1.8c-2.2,9.4-6.6,19.4-10.7,24.9l3.4,2c5.2-9.1,8.7-17.8,10.8-27.2c1.8-0.2,2.5-0.2,3.6-0.2
			c4.7,0,6.2,1.7,6.2,7c0,5.6-0.8,10.7-2.1,13.9c-0.7,1.6-1.6,2.4-2.8,2.4c-1.8,0-4.6-0.9-7.5-2.3c0.2,0.9,0.2,1.2,0.2,2
			c0,0.7,0,1-0.1,1.8c3.3,1.4,5.4,2,7.5,2c2.4,0,3.7-0.6,4.9-2.3c2.1-2.9,3.3-9.5,3.3-17.2c0-4.1-0.7-6.4-2.4-8
			c-1.6-1.5-3.7-2.1-7.2-2.1c-1.2,0-1.8,0.1-3,0.2c0.4-2.2,0.8-4.5,1.1-5.7c0.4-2.7,0.7-3.8,0.9-4.8l-4-0.5c0,0.3,0,0.5,0,0.7
			c0,2.1-0.7,6.8-1.5,10.6c-7.3,1-9.2,1.2-11,1.3L1342.7,418.2 M1380.6,400.2c2,2.2,4.1,5.5,5.1,7.8l2.5-1.5c-1.6-3.1-2.9-5-5.1-7.8
			L1380.6,400.2 M1372.2,411.6c4.5,4.5,8.6,11.6,10.2,18l3.2-1.8c-2.1-6.6-5.5-12.4-10.4-17.7L1372.2,411.6"/>
		<path class="st1" d="M1432.3,305.2c0.9-0.1,1-0.1,3.1-0.2c5.7-0.1,9.7-0.3,13.5-0.9c1.2,2.7,1.6,3.2,2.8,5.7
			c-4.1,0.8-10.5,1.2-15.8,1.2c-2,0-2.9-0.1-4-0.2l0.1,3.3c0.9-0.1,1.1-0.1,3.5-0.2c9.3-0.3,12.6-0.5,17.5-1.4c1.8,3,3.8,6,5.3,7.7
			c-3.3-1-5.9-1.4-10.1-1.4c-9.5,0-15.2,3.2-15.2,8.6c0,2.6,1.3,4.9,3.8,6.2c2.6,1.5,5.7,2.1,10.3,2.1c4.4,0,8.7-0.6,12.8-1.8
			c2.3-0.7,2.3-0.7,3-0.8l-0.7-3.9c-3,1.8-9.6,3.3-14.8,3.3c-6.8,0-10.6-1.8-10.6-5.1c0-3.5,4.6-5.7,11.8-5.7c2.2,0,4.8,0.2,6.5,0.5
			c2.5,0.4,3.6,0.8,5.5,1.9l3-2.1c-3.8-4.5-4.4-5.2-7.3-10c1.8-0.3,4.3-0.9,7.8-1.8c1.7-0.5,1.8-0.5,2.7-0.6l-0.4-3.4
			c-2,1-4.8,1.8-11.4,3.1c-0.8-1.4-2.1-4-2.8-5.7c2.8-0.5,8.2-1.6,12.6-2.8l-0.3-3.2c-2.8,1.2-7.5,2.3-13.3,3.3
			c-1.2-2.7-2.2-5.2-2.7-7l-3.8,0.6c0.5,0.7,1.5,3,3,6.9c-4.6,0.5-7.6,0.7-11.8,0.7c-1.7,0-2.5-0.1-3.8-0.2L1432.3,305.2"/>
		<path class="st1" d="M1432.2,361.7c0.8-0.1,1-0.2,2-0.2c6.6-0.1,12.8-0.6,17.8-1.3c0.3,0.5,0.3,0.6,0.9,1.6c2.1,4.2,3.4,6.2,6,9.8
			c-2.1-1.1-6.1-1.8-10.4-1.8c-4,0-7,0.6-9.7,1.9c-3.5,1.7-5.7,4.8-5.7,8.1c0,2,0.8,4,2.2,5.5c2.3,2.4,6.9,3.8,13,3.8
			c5,0,9.7-0.8,14.7-2.7l-0.6-3.9c-3.8,2-9.2,3.2-14.2,3.2c-4.3,0-7.9-0.8-9.8-2.3c-1.2-1-1.9-2.4-1.9-3.9c0-1.8,1-3.6,2.7-4.6
			c2.2-1.4,5.3-2.1,9.5-2.1c3.4,0,6.2,0.5,8.8,1.3c1.4,0.5,2.1,1,3.5,2.1l3.3-1.9c-3.5-4.7-7.2-10.7-9-14.5c0.5-0.1,0.5-0.1,1.7-0.4
			c3.2-0.6,3.8-0.8,6.8-1.5c1.5-0.4,1.9-0.5,3-0.7l-0.5-3.5c-2.7,1.2-7.2,2.4-12.1,3.2c-0.4-1-0.6-1.2-1.8-4.4
			c-1.2-3.2-1.2-3.2-1.5-4.5l-3.9,0.5c0.4,0.9,0.8,1.6,1.3,2.9c0.9,2.2,1.7,4.2,2.4,6c-4.7,0.6-10.3,1-14.9,1c-1.7,0-2.5,0-3.8-0.2
			L1432.2,361.7"/>
		<path class="st1" d="M1440.9,401.5c-0.1,2.3-0.9,6.5-1.7,9.4c-0.9,0-2.6,0-3.6,0c-2.8,0-4.2-0.1-5.9-0.4l-0.1,3.5
			c0.3,0,0.6,0,0.7,0c0.2,0,0.6,0,1.1,0c0.8,0,2.5,0,3.3,0c0.8,0,2.4,0,3.7-0.1c-1.4,4.8-2.9,8.3-5.2,12.9c-1.8,3.6-3.2,5.8-4.8,7.8
			l3.4,2c0.2-0.4,0.6-1,1-1.7c1.9-3.3,2.3-4.2,3.6-6.5c2.2-4.6,4-9.2,5.5-14.6c3.1-0.2,6.2-0.6,8.2-1c1.2-0.2,1.2-0.2,1.8-0.3
			l-0.2-3.5c-2.3,0.8-5.5,1.4-9,1.7c0.7-2.5,1-3.8,1.4-5.5c0.4-2,0.4-2.2,0.8-3.2L1440.9,401.5 M1470.4,415.3
			c-4-2.6-7.4-4.3-13.2-6.6l-1.8,2.8c5.2,1.9,9,3.9,13.2,6.8L1470.4,415.3 M1470.5,437.5c-0.3-0.2-0.3-0.2-0.9-0.8
			c-2.7-2.4-5.8-4.3-9.8-6.1c-0.3-1.9-0.6-5.3-0.6-7.6c0-1.8,0.2-2.8,0.7-4.7l-3.4-0.3c-0.4,1.8-0.5,3-0.5,4.8
			c0,1.2,0.1,3.6,0.4,6.9c-2-0.5-3.2-0.8-5.1-0.8c-2.2,0-4.2,0.3-5.9,1.1c-2.8,1.2-4.7,3.7-4.7,6.4c0,4.4,3.8,7.2,9.8,7.2
			c6.1,0,9.5-2.9,9.5-8c0-0.5,0-0.8-0.1-1.6c3.7,1.9,6.8,4.4,8.8,6.8L1470.5,437.5 M1456.6,432.9c0,0,0.1,1.5,0.1,2.1
			c0,3.8-2,5.5-6.2,5.5c-4,0-6.3-1.5-6.3-4.1c0-2.8,2.7-4.5,6.9-4.5C1453,431.9,1454.5,432.2,1456.6,432.9"/>
		<path class="st1" d="M1564.8,306.4c0.5,0,0.8,0,0.8,0c0,0,0.1,0,0.2,0c1.9,0.1,2.4,0.1,4.2,0.1c1.8,0,2.4,0,3.4,0
			c-1.8,9.8-5.7,21.2-9.4,27.6l3.7,1.6c2.7-6.1,4.1-9.9,5.8-15.2c1.3-4.6,2.8-10.2,3.5-14.2c2.4-0.2,5.9-0.7,8.4-1.2
			c1-0.2,1-0.2,1.4-0.2l-0.2-3.5c-2.4,0.8-5.1,1.3-9,1.7c0.2-1.5,0.4-2.2,0.7-3.8c0.6-3.5,0.6-3.5,0.9-4.8l-4-0.4
			c0,2.2-0.1,3.1-1.1,9.2c-1.4,0.1-2,0.1-3,0.1c-2.7,0-4.7-0.2-6.2-0.5V306.4 M1602.5,308.8c-3.8-0.2-4.5-0.2-5.4-0.2
			c-4.2,0-7.5,0.4-13.2,1.7l0.3,3.4c4.6-1.2,8.1-1.7,12.5-1.7c2.1,0,3.5,0.1,5.9,0.4L1602.5,308.8 M1584.3,319.6
			c-2.7,3.4-3.3,5-3.3,7.2c0,4.9,4.2,7.5,12.4,7.5c2.7,0,5.6-0.2,8.9-0.9c1.7-0.2,1.7-0.2,2.2-0.3l-0.3-3.8c-2.8,1-7.3,1.7-11.1,1.7
			c-5.7,0-8.8-1.6-8.8-4.6c0-1.2,0.5-2.5,1.2-3.5c0.4-0.5,0.5-0.7,1.5-1.9L1584.3,319.6"/>
		<path class="st1" d="M1591.7,347.9c-1.8,2.8-8,8.6-14.7,13.7c-3.7,2.8-3.7,2.8-4.2,3.4c-0.9,1-1.4,2.1-1.4,3.3
			c0,1.7,0.8,2.8,3.6,5c7.3,5.7,9.3,7.3,12.7,10.5c3.3,3,5.2,5.1,6.4,6.8l3.2-3.1c-0.6-0.5-0.7-0.5-1.4-1.2c-7.3-7-8.8-8.1-16-13.7
			c-4.1-3.1-4.4-3.5-4.4-4.4c0-0.7,0.3-1.1,2.2-2.5c6.3-4.9,9-7.1,11.5-9.5c5.2-5,5.6-5.4,6.2-5.8L1591.7,347.9"/>
		<path class="st1" d="M1591.7,401.8c-1.8,2.8-8,8.6-14.7,13.7c-3.7,2.8-3.7,2.8-4.2,3.4c-0.9,1-1.4,2.2-1.4,3.4
			c0,1.7,0.8,2.8,3.6,5c7.3,5.7,9.3,7.3,12.7,10.5c3.3,3,5.2,5.1,6.4,6.8l3.2-3.1c-0.6-0.5-0.7-0.5-1.4-1.2c-7.3-7-8.8-8.1-16-13.7
			c-4.1-3.2-4.4-3.5-4.4-4.4c0-0.7,0.3-1.1,2.2-2.5c6.3-4.8,9-7.1,11.5-9.4c5.2-5,5.6-5.4,6.2-5.8L1591.7,401.8"/>
		<path class="st1" d="M1749.3,295.3c0.3,0.8,0.3,1,0.8,3.2c1.3,6.5,2.3,10.3,3.7,14c-3.1,1.5-4.7,2.5-6.6,4.1
			c-2.9,2.4-4.4,5.3-4.4,8.5c0,3.9,2.1,6.7,6.2,8.2c2.4,0.9,6.2,1.4,11.1,1.4c3.5,0,5.9-0.2,11.1-0.7l1.7-0.2l0.5,0
			c0.6,0,0.8,0,1.5,0l-0.4-4.2c-3,1.1-8.6,1.7-14.3,1.7c-9.8,0-13.7-1.8-13.7-6.3c0-4.2,3.7-7.5,12.2-10.9c4.4-1.8,11.6-4,15.1-4.8
			l-1.5-3.8c-1,0.5-1.5,0.7-3.2,1.3c-7.7,2.7-9.3,3.3-12.1,4.5c-1.3-3.6-3.8-14.2-3.8-16.5L1749.3,295.3 M1767.7,295.2
			c1.4,1.5,3.8,5.3,5.1,8l2.6-1.5c-1.6-3-2.9-5-5.2-7.8L1767.7,295.2 M1773.4,292.5c1.9,2.3,4,5.5,5.1,7.9l2.5-1.4
			c-1.7-3.2-2.9-5-5.2-7.8L1773.4,292.5"/>
		<path class="st1" d="M1749.3,349.2c0.3,0.8,0.3,1,0.8,3.2c1.3,6.5,2.3,10.3,3.7,14c-3.1,1.5-4.7,2.5-6.6,4.1
			c-2.9,2.4-4.4,5.3-4.4,8.5c0,3.9,2.1,6.7,6.2,8.2c2.4,0.9,6.2,1.4,11.1,1.4c3.5,0,5.9-0.2,11.1-0.7l1.7-0.2l0.5,0
			c0.6,0,0.8,0,1.5,0l-0.4-4.2c-3,1.1-8.6,1.7-14.3,1.7c-9.8,0-13.7-1.8-13.7-6.3c0-4.2,3.7-7.5,12.2-10.9c4.4-1.8,11.6-4,15.1-4.8
			l-1.5-3.8c-1,0.5-1.5,0.7-3.2,1.3c-7.7,2.7-9.3,3.3-12.1,4.5c-1.3-3.6-3.8-14.2-3.8-16.5L1749.3,349.2 M1767.7,349.1
			c1.4,1.5,3.8,5.3,5.1,8l2.6-1.5c-1.6-3-2.9-5-5.2-7.8L1767.7,349.1 M1773.4,346.4c1.9,2.3,4,5.5,5.1,7.9l2.5-1.4
			c-1.7-3.2-2.9-5-5.2-7.8L1773.4,346.4"/>
		<path class="st1" d="M1749.3,403.1c0.3,0.8,0.3,1.1,0.8,3.2c1.3,6.5,2.3,10.3,3.7,14c-3.1,1.5-4.7,2.5-6.6,4.1
			c-2.9,2.4-4.4,5.3-4.4,8.5c0,4,2.1,6.7,6.2,8.2c2.4,0.9,6.2,1.4,11.1,1.4c3.5,0,5.9-0.2,11.1-0.7l1.7-0.2l0.5,0c0.6,0,0.8,0,1.5,0
			l-0.4-4.2c-3,1-8.6,1.7-14.3,1.7c-9.8,0-13.7-1.8-13.7-6.3c0-4.2,3.7-7.5,12.2-10.9c4.4-1.8,11.6-4,15.1-4.8l-1.5-3.8
			c-1,0.5-1.5,0.7-3.2,1.3c-7.7,2.7-9.3,3.3-12.1,4.5c-1.3-3.6-3.8-14.2-3.8-16.5L1749.3,403.1 M1767.7,403c1.4,1.5,3.8,5.3,5.1,8
			l2.6-1.5c-1.6-3-2.9-5.1-5.2-7.8L1767.7,403 M1773.4,400.3c1.9,2.3,4,5.5,5.1,7.8l2.5-1.4c-1.7-3.2-2.9-5-5.2-7.8L1773.4,400.3"/>
		<path class="st1" d="M1873.1,301.9c0.6,0,0.8,0,1.6,0.1c3.2,0.4,7.5,0.7,11,0.7c2.9,0,4.6-0.2,7.6-0.7c-0.5,0.3-0.6,0.3-0.9,0.5
			c-0.6,0.3-0.7,0.4-1.2,0.7c-2.2,1.2-3.5,2-6.7,4.2l2.6,2c4.9-3.5,9.5-6.3,12.6-7.6l-0.2-3.3c-2.8,0.7-6.8,1-12.7,1
			c-5.7,0-9.6-0.3-13.3-1.2L1873.1,301.9 M1876.1,314.7c-3.9,3.2-5.8,6.4-5.8,9.7c0,3.4,1.9,6,5.7,7.5c2.4,1,6.7,1.5,11.5,1.5
			c4.4,0,9.1-0.4,13.5-1.2c0.8-0.1,1.1-0.2,1.7-0.2l-0.4-4.1c-2.8,1.2-8.8,1.9-15,1.9c-3.9,0-7.2-0.4-9.2-1c-2.8-1-4.2-2.6-4.2-4.9
			c0-2.3,1.5-4.7,4.8-7.3L1876.1,314.7"/>
		<path class="st1" d="M1873.1,355.8c0.6,0,0.8,0,1.6,0.1c3.2,0.4,7.5,0.7,11,0.7c2.9,0,4.6-0.2,7.6-0.7c-0.5,0.3-0.6,0.3-0.9,0.5
			c-0.6,0.3-0.7,0.4-1.2,0.7c-2.2,1.2-3.5,2-6.7,4.2l2.6,2c4.9-3.5,9.5-6.3,12.6-7.6l-0.2-3.3c-2.8,0.7-6.8,1-12.7,1
			c-5.7,0-9.6-0.3-13.3-1.2L1873.1,355.8 M1876.1,368.6c-3.9,3.2-5.8,6.4-5.8,9.7c0,3.4,1.9,6,5.7,7.5c2.4,1,6.7,1.5,11.5,1.5
			c4.4,0,9.1-0.4,13.5-1.2c0.8-0.1,1.1-0.2,1.7-0.2l-0.4-4.1c-2.8,1.2-8.8,1.9-15,1.9c-3.9,0-7.2-0.4-9.2-1c-2.8-1-4.2-2.6-4.2-4.9
			c0-2.3,1.5-4.7,4.8-7.3L1876.1,368.6"/>
		<path class="st1" d="M1873.1,409.7c0.6,0,0.8,0,1.6,0.1c3.2,0.4,7.5,0.7,11,0.7c2.9,0,4.6-0.2,7.6-0.7c-0.5,0.3-0.6,0.3-0.9,0.5
			c-0.6,0.3-0.7,0.4-1.2,0.7c-2.2,1.2-3.5,2-6.7,4.1l2.6,2.1c4.9-3.6,9.5-6.3,12.6-7.6l-0.2-3.3c-2.8,0.7-6.8,1-12.7,1
			c-5.7,0-9.6-0.3-13.3-1.2L1873.1,409.7 M1876.1,422.5c-3.9,3.2-5.8,6.4-5.8,9.6c0,3.5,1.9,6,5.7,7.6c2.4,0.9,6.7,1.5,11.5,1.5
			c4.4,0,9.1-0.4,13.5-1.2c0.8-0.1,1.1-0.2,1.7-0.2l-0.4-4.1c-2.8,1.1-8.8,1.9-15,1.9c-3.9,0-7.2-0.3-9.2-1
			c-2.8-0.9-4.2-2.6-4.2-4.9c0-2.4,1.5-4.7,4.8-7.4L1876.1,422.5"/>
		<path class="st1" d="M1995.5,295.3c-0.1,1.2-0.2,1.7-0.7,4c-1.6,7.4-2.2,12.7-2.2,19.8c0,5.2,0.4,8.8,1.3,14.1
			c0.1,1,0.2,1.2,0.3,2l3.6-0.3c0-0.3,0-0.6,0-0.8c0-2.8,1.8-8.8,4.1-13.8l-2.4-1.2c-1.6,3.7-2.6,6.4-3.2,9.8
			c-0.2-2.6-0.3-5.6-0.3-9.5c0-6,0.4-10.4,1.5-15.6c0.8-3.4,1.3-5.9,2.1-8L1995.5,295.3 M2005.8,304.7c3.2,0.4,5.2,0.5,8,0.5
			c3.9,0,7.9-0.2,10.8-0.6c2.2-0.3,3.4-0.5,3.4-0.5l-0.2-3.5c-3.3,0.9-7.8,1.3-13.4,1.3c-3.9,0-6.4-0.2-8.5-0.8L2005.8,304.7
			 M2009.4,314.5c-3.1,3.5-4.3,6.2-4.3,9.3c0,1.9,0.5,3.4,1.5,4.6c2.1,2.6,5.8,3.8,11.4,3.8c3.4,0,6.8-0.3,10.2-1
			c1-0.2,1.1-0.2,1.8-0.2l-0.5-3.8c-2.7,1.1-6.9,1.8-11.5,1.8c-6.4,0-9.6-1.8-9.6-5.5c0-2.2,1.2-4.6,3.8-7.4L2009.4,314.5"/>
		<path class="st1" d="M1995.5,349.2c-0.1,1.2-0.2,1.7-0.7,4c-1.6,7.4-2.2,12.7-2.2,19.8c0,5.2,0.4,8.8,1.3,14.1
			c0.1,1,0.2,1.2,0.3,2l3.6-0.3c0-0.3,0-0.6,0-0.8c0-2.8,1.8-8.8,4.1-13.8l-2.4-1.2c-1.6,3.7-2.6,6.4-3.2,9.8
			c-0.2-2.6-0.3-5.6-0.3-9.5c0-6,0.4-10.4,1.5-15.6c0.8-3.4,1.3-5.9,2.1-8L1995.5,349.2 M2005.8,358.6c3.2,0.4,5.2,0.5,8,0.5
			c3.9,0,7.9-0.2,10.8-0.6c2.2-0.3,3.4-0.5,3.4-0.5l-0.2-3.5c-3.3,0.9-7.8,1.3-13.4,1.3c-3.9,0-6.4-0.2-8.5-0.8L2005.8,358.6
			 M2009.4,368.4c-3.1,3.5-4.3,6.2-4.3,9.3c0,1.9,0.5,3.4,1.5,4.6c2.1,2.6,5.8,3.8,11.4,3.8c3.4,0,6.8-0.3,10.2-1
			c1-0.2,1.1-0.2,1.8-0.2l-0.5-3.8c-2.7,1.1-6.9,1.8-11.5,1.8c-6.4,0-9.6-1.8-9.6-5.5c0-2.2,1.2-4.6,3.8-7.4L2009.4,368.4"/>
		<path class="st1" d="M1989.4,412.9c1.8-0.5,7.3-1,17.2-1.7c5.2-0.3,8.1-0.6,11-1.1c-1.9,0.9-3.2,1.6-4.8,2.6
			c-6,4-9.4,9.5-9.4,15.4c0,4.1,2,7.8,5.6,10.2c2.8,2,5.8,3,10.8,3.9c0.9,0.1,1,0.2,1.5,0.3l0.7-4c-0.2,0-0.4,0-0.5,0
			c-1.9,0-5.1-0.7-7.5-1.6c-4.4-1.7-7-5-7-9.2c0-4.1,2.1-8.2,6.1-11.5c2.8-2.3,6.2-4.1,9.6-5c1.9-0.5,3.6-0.7,5.6-0.7l-0.3-3.7
			c-0.7,0.2-1.7,0.3-6,0.5l-2.8,0.1c-1.7,0-2.3,0.1-8.4,0.5l-7.9,0.5c-6.1,0.3-6.4,0.4-9.2,0.6c-1.6,0.1-2.1,0.2-2.9,0.2
			c-0.3,0-0.8,0-1.8,0L1989.4,412.9 M2020.1,417.7c1.5,1.5,3.9,5.3,5.1,8l2.6-1.5c-1.5-3-2.9-5.1-5.1-7.8L2020.1,417.7 M2025.8,415
			c1.9,2.3,4,5.5,5.1,7.8l2.5-1.4c-1.7-3.2-2.9-5-5.2-7.8L2025.8,415"/>
		<path class="st1" d="M2146.2,305.2c0.9-0.1,1-0.1,3.1-0.2c5.6-0.1,9.6-0.3,13.5-0.9c1.2,2.7,1.6,3.2,2.9,5.7
			c-4.1,0.8-10.6,1.2-15.8,1.2c-2,0-2.9-0.1-4-0.2l0.1,3.3c0.9-0.1,1.1-0.1,3.5-0.2c9.4-0.3,12.6-0.5,17.6-1.4c1.8,3,3.8,6,5.4,7.7
			c-3.3-1-6-1.4-10.1-1.4c-9.5,0-15.2,3.2-15.2,8.6c0,2.6,1.4,4.9,3.8,6.2c2.6,1.5,5.7,2.1,10.3,2.1c4.4,0,8.7-0.6,12.8-1.8
			c2.3-0.7,2.3-0.7,3-0.8l-0.7-3.9c-3,1.8-9.6,3.3-14.8,3.3c-6.9,0-10.7-1.8-10.7-5.1c0-3.5,4.7-5.7,11.9-5.7c2.2,0,4.8,0.2,6.6,0.5
			c2.4,0.4,3.6,0.8,5.5,1.9l2.9-2.1c-3.9-4.5-4.4-5.2-7.4-10c1.9-0.3,4.4-0.9,7.9-1.8c1.6-0.5,1.8-0.5,2.7-0.6l-0.4-3.4
			c-2.1,1-4.9,1.8-11.5,3.1c-0.8-1.4-2.1-4-2.8-5.7c2.8-0.5,8.1-1.6,12.6-2.8l-0.3-3.2c-2.8,1.2-7.5,2.3-13.4,3.3
			c-1.2-2.7-2.2-5.2-2.6-7l-3.8,0.6c0.4,0.7,1.4,3,3,6.9c-4.6,0.5-7.7,0.7-11.9,0.7c-1.7,0-2.6-0.1-3.8-0.2L2146.2,305.2"/>
		<path class="st1" d="M2146.2,361.7c0.8-0.1,1-0.2,1.9-0.2c6.6-0.1,12.8-0.6,17.8-1.3c0.3,0.5,0.3,0.6,0.8,1.6
			c2.2,4.2,3.4,6.2,6,9.8c-2.1-1.1-6.1-1.8-10.3-1.8c-4.1,0-7.1,0.6-9.7,1.9c-3.5,1.7-5.6,4.8-5.6,8.1c0,2,0.8,4,2.2,5.5
			c2.3,2.4,6.9,3.8,13,3.8c4.9,0,9.7-0.8,14.7-2.7l-0.6-3.9c-3.8,2-9.2,3.2-14.2,3.2c-4.3,0-7.9-0.8-9.8-2.3c-1.2-1-1.9-2.4-1.9-3.9
			c0-1.8,1.1-3.6,2.7-4.6c2.2-1.4,5.3-2.1,9.5-2.1c3.4,0,6.2,0.5,8.8,1.3c1.4,0.5,2.1,1,3.4,2.1l3.4-1.9c-3.5-4.7-7.2-10.7-9-14.5
			c0.5-0.1,0.5-0.1,1.7-0.4c3.1-0.6,3.8-0.8,6.8-1.5c1.5-0.4,1.9-0.5,2.9-0.7l-0.5-3.5c-2.7,1.2-7.2,2.4-12.1,3.2
			c-0.5-1-0.6-1.2-1.8-4.4c-1.2-3.2-1.2-3.2-1.4-4.5l-4,0.5c0.5,0.9,0.8,1.6,1.3,2.9c0.9,2.2,1.7,4.2,2.4,6c-4.7,0.6-10.3,1-14.9,1
			c-1.7,0-2.6,0-3.9-0.2L2146.2,361.7"/>
		<path class="st1" d="M2154.9,401.5c-0.1,2.3-0.9,6.5-1.7,9.4c-1,0-2.6,0-3.6,0c-2.8,0-4.2-0.1-5.9-0.4l-0.1,3.5c0.3,0,0.6,0,0.6,0
			c0.2,0,0.6,0,1.1,0c0.8,0,2.4,0,3.3,0c0.8,0,2.4,0,3.7-0.1c-1.4,4.8-2.9,8.3-5.2,12.9c-1.9,3.6-3.2,5.8-4.8,7.8l3.4,2
			c0.2-0.4,0.6-1,1-1.7c1.9-3.3,2.4-4.2,3.6-6.5c2.2-4.6,4-9.2,5.6-14.6c3.1-0.2,6.1-0.6,8.2-1c1.2-0.2,1.2-0.2,1.8-0.3l-0.1-3.5
			c-2.3,0.8-5.4,1.4-8.9,1.7c0.7-2.5,1-3.8,1.3-5.5c0.4-2,0.4-2.2,0.8-3.2L2154.9,401.5 M2184.3,415.3c-4.1-2.6-7.4-4.3-13.2-6.6
			l-1.9,2.8c5.2,1.9,9.1,3.9,13.2,6.8L2184.3,415.3 M2184.4,437.5c-0.4-0.2-0.4-0.2-0.9-0.8c-2.7-2.4-5.8-4.3-9.8-6.1
			c-0.3-1.9-0.5-5.3-0.5-7.6c0-1.8,0.1-2.8,0.6-4.7l-3.4-0.3c-0.4,1.8-0.5,3-0.5,4.8c0,1.2,0.1,3.6,0.3,6.9
			c-1.9-0.5-3.2-0.8-5.1-0.8c-2.2,0-4.1,0.3-5.9,1.1c-2.8,1.2-4.6,3.7-4.6,6.4c0,4.4,3.8,7.2,9.8,7.2c6.1,0,9.5-2.9,9.5-8
			c0-0.5,0-0.8-0.1-1.6c3.6,1.9,6.8,4.4,8.8,6.8L2184.4,437.5 M2170.5,432.9c0,0,0.1,1.5,0.1,2.1c0,3.8-1.9,5.5-6.2,5.5
			c-3.9,0-6.4-1.5-6.4-4.1c0-2.8,2.7-4.5,6.9-4.5C2167,431.9,2168.4,432.2,2170.5,432.9"/>
		<path class="st1" d="M2287.4,306.4c0.4,0,0.8,0,0.8,0c0,0,0.1,0,0.2,0c1.9,0.1,2.4,0.1,4.1,0.1c1.9,0,2.4,0,3.4,0
			c-1.8,9.8-5.7,21.2-9.4,27.6l3.6,1.6c2.7-6.1,4.1-9.9,5.8-15.2c1.4-4.6,2.8-10.2,3.5-14.2c2.4-0.2,5.9-0.7,8.4-1.2
			c1-0.2,1-0.2,1.4-0.2l-0.2-3.5c-2.4,0.8-5.1,1.3-9,1.7c0.2-1.5,0.4-2.2,0.6-3.8c0.6-3.5,0.6-3.5,0.9-4.8l-4-0.4
			c0,2.2-0.1,3.1-1.1,9.2c-1.4,0.1-2,0.1-3,0.1c-2.7,0-4.7-0.2-6.2-0.5V306.4 M2325.1,308.8c-3.8-0.2-4.5-0.2-5.4-0.2
			c-4.2,0-7.5,0.4-13.2,1.7l0.3,3.4c4.6-1.2,8.1-1.7,12.5-1.7c2.1,0,3.5,0.1,5.9,0.4L2325.1,308.8 M2306.9,319.6
			c-2.7,3.4-3.4,5-3.4,7.2c0,4.9,4.2,7.5,12.4,7.5c2.7,0,5.6-0.2,8.9-0.9c1.6-0.2,1.6-0.2,2.2-0.3l-0.4-3.8c-2.8,1-7.3,1.7-11.1,1.7
			c-5.7,0-8.8-1.6-8.8-4.6c0-1.2,0.5-2.5,1.2-3.5c0.4-0.5,0.5-0.7,1.5-1.9L2306.9,319.6"/>
		<path class="st1" d="M2314.3,347.9c-1.8,2.8-8,8.6-14.6,13.7c-3.7,2.8-3.7,2.8-4.2,3.4c-1,1-1.5,2.1-1.5,3.3c0,1.7,0.8,2.8,3.6,5
			c7.3,5.7,9.3,7.3,12.6,10.5c3.3,3,5.2,5.1,6.5,6.8l3.1-3.1c-0.6-0.5-0.6-0.5-1.4-1.2c-7.4-7-8.8-8.1-16-13.7
			c-4.1-3.1-4.5-3.5-4.5-4.4c0-0.7,0.4-1.1,2.2-2.5c6.3-4.9,9-7.1,11.5-9.5c5.2-5,5.6-5.4,6.1-5.8L2314.3,347.9"/>
		<path class="st1" d="M2314.3,401.8c-1.8,2.8-8,8.6-14.6,13.7c-3.7,2.8-3.7,2.8-4.2,3.4c-1,1-1.5,2.2-1.5,3.4c0,1.7,0.8,2.8,3.6,5
			c7.3,5.7,9.3,7.3,12.6,10.5c3.3,3,5.2,5.1,6.5,6.8l3.1-3.1c-0.6-0.5-0.6-0.5-1.4-1.2c-7.4-7-8.8-8.1-16-13.7
			c-4.1-3.2-4.5-3.5-4.5-4.4c0-0.7,0.4-1.1,2.2-2.5c6.3-4.8,9-7.1,11.5-9.4c5.2-5,5.6-5.4,6.1-5.8L2314.3,401.8"/>
		<path class="st1" d="M372.1,24.2h-3.3v45c-1.1-0.7-2.5-1.1-4.1-1.3c-0.4,0-0.9-0.1-1.3-0.1c-2.7,0-5.7,0.8-8.4,2.3
			c-3.2,1.7-5.7,4.2-7.2,6.9c-1.4,2.8-1.6,5.5-0.4,7.6c1.4,2.6,4.4,3.9,8,3.9c2.6,0,5.6-0.7,8.4-2.2c5.1-2.8,8.4-7.4,8.4-11.4V24.2"
			/>
		<path class="st1" d="M394.3,76.5h30.2v-6.9h-30.2V76.5 M394.3,64.2h30.2v-6.9h-30.2V64.2 M467.1,39.6H465c-3.8,2.8-8,4-15.2,4.1
			v3.4h2.5c5.3,0,5.4,0.1,5.3,5v21.3c0,3.7,0,3.9-0.4,4.5c-0.5,0.7-1.7,0.9-5,0.9h-1.9V82h23.9v-3.2h-1.9c-3.2,0-4.3-0.2-4.9-0.9
			c-0.4-0.6-0.4-0.8-0.4-4.5V39.6 M507.9,66.1l-0.7,3c-0.5,2.4-0.9,3.2-1.4,3.5c-0.6,0.4-0.7,0.4-4.5,0.5h-11.6
			c2.1-1.8,3.7-2.9,6-4.5c8.5-5.5,10.2-6.8,11.9-9c2-2.7,3.2-5.9,3.2-8.7c0-6.4-6.3-11.3-14.8-11.3c-8.2,0-14.5,5.3-14.5,12.1
			c0,4.2,2.3,6.9,5.9,6.9c3.1,0,5.1-2,5.1-5.1c0-2.6-1.1-4.1-3.9-5.4c-0.7-0.3-1-0.7-1-1.1c0-1.9,3.2-4,6.2-4c4.2,0,6.6,2.6,6.6,7
			c0,5-1.9,8.5-8.3,15.3c-6.7,7.1-9.1,9.8-12.1,14.2v2.8c1.6-0.2,2.2-0.2,3.1-0.2h22.6c1.1,0,1.9,0.1,3.7,0.2l1.4-16.2H507.9
			 M530.9,39.6c-9,0-15.6,9.2-15.6,21.7c0,12.5,6.6,21.7,15.6,21.7c8.8,0,15.5-9.2,15.5-21.4c0-7.1-1.6-12.3-5.2-16.7
			C538.5,41.4,534.9,39.6,530.9,39.6 M530.9,42.7c1.8,0,3.2,1.1,3.9,3c0.8,2,1.3,8.3,1.3,15.7c0,6.2-0.5,12.7-1,14.7
			c-0.7,2.4-2.1,3.7-4.1,3.7c-1.9,0-3.2-1-4-3c-0.8-2-1.3-8.3-1.3-15.5c0-6.3,0.5-12.8,1-14.9C527.3,43.9,528.8,42.7,530.9,42.7"/>
		<path class="st1" d="M2039.8,817.9c0,2.7,2.2,5,5,5c2.7,0,5-2.2,5-5s-2.2-5-5-5C2042,813,2039.8,815.2,2039.8,817.9"/>
		<path class="st1" d="M2335.4,793.1c0,2.7,2.2,5,5,5c2.7,0,5-2.2,5-5s-2.2-5-5-5C2337.6,788.1,2335.4,790.4,2335.4,793.1"/>
		<path class="st1" d="M2039.8,619.5c0,2.7,2.2,5,5,5c2.7,0,5-2.2,5-5s-2.2-5-5-5C2042,614.5,2039.8,616.7,2039.8,619.5"/>
		<path class="st1" d="M2335.4,644.3c0,2.7,2.2,5,5,5c2.7,0,5-2.2,5-5s-2.2-5-5-5C2337.6,639.3,2335.4,641.6,2335.4,644.3"/>
		<path class="st1" d="M2039.8,218.5c0,2.7,2.2,5,5,5c2.7,0,5-2.2,5-5s-2.2-5-5-5C2042,213.5,2039.8,215.7,2039.8,218.5"/>
		<path class="st1" d="M2335.4,243.3c0,2.7,2.2,5,5,5c2.7,0,5-2.2,5-5s-2.2-5-5-5C2337.6,238.3,2335.4,240.5,2335.4,243.3"/>
		<line class="st6" x1="217.8" y1="113.8" x2="217.8" y2="897.8"/>
		<path class="st1" d="M260.3,91.8c-0.2-0.1-0.5-0.2-0.7-0.2c-0.4,0-0.9,0.1-1.1,0.5c-0.2,0.3-10.1,15.6-29.1,15.6h-15.8
			c-0.8,0-1.4,0.5-1.4,1.3v8.9v1.4h12.1c30.6,0,36.4-25.5,36.5-25.8c0-0.1,0.1-0.3,0.1-0.5C261,92.5,260.7,92.1,260.3,91.8"/>
		<path class="st1" d="M260.3,919.8c0.4-0.3,0.7-0.7,0.7-1.2c0-0.2-0.1-0.4-0.1-0.5c-0.1-0.3-6-25.8-36.5-25.8h-12.1v1.4v8.9
			c0,0.8,0.6,1.3,1.4,1.3h15.8c18.9,0,28.9,15.3,29.1,15.6c0.2,0.4,0.7,0.5,1.1,0.5C259.8,920,260.1,919.9,260.3,919.8"/>
	</g>
</g>
</svg>
