<?xml version="1.0" encoding="utf-8"?>
<!-- Generator: Adobe Illustrator 26.5.0, SVG Export Plug-In . SVG Version: 6.00 Build 0)  -->
<svg version="1.1" xmlns="http://www.w3.org/2000/svg" xmlns:xlink="http://www.w3.org/1999/xlink" x="0px" y="0px"
	 viewBox="0 0 2560 830" style="enable-background:new 0 0 2560 830;" xml:space="preserve">
<style type="text/css">
	.st0{fill:none;stroke:#FFFFFF;stroke-width:2.73;stroke-linejoin:bevel;}
	.st1{fill:#FFFFFF;}
	.st2{fill:none;stroke:#FFFFFF;stroke-width:4.46;stroke-linejoin:bevel;}
	.st3{fill:none;stroke:#FFFFFF;stroke-width:3.97;stroke-linejoin:bevel;}
	.st4{fill:none;stroke:#FFFFFF;stroke-width:3.72;stroke-linejoin:bevel;}
	.st5{fill:none;stroke:#FFFFFF;stroke-width:10.91;stroke-linejoin:bevel;}
	.st6{fill:none;stroke:#FFFFFF;stroke-width:13.64;stroke-linejoin:bevel;}
</style>
<g id="レイヤー_1">
	<g>
		<g>
			
				<image style="overflow:visible;" width="2624" height="779" xlink:href="A88B510D67D62117.png"  transform="matrix(1 0 0 1 -32.191 87.2209)">
			</image>
		</g>
		<g>
			<line class="st0" x1="91.1" y1="163.3" x2="2555.6" y2="163.3"/>
			<line class="st0" x1="91.1" y1="188.1" x2="2555.6" y2="188.1"/>
			<line class="st0" x1="91.1" y1="212.9" x2="2555.6" y2="212.9"/>
			<line class="st0" x1="91.1" y1="237.7" x2="2555.6" y2="237.7"/>
			<line class="st0" x1="91.1" y1="262.5" x2="2555.6" y2="262.5"/>
			<line class="st0" x1="91.1" y1="473.5" x2="2555.6" y2="473.5"/>
			<line class="st0" x1="91.1" y1="498.3" x2="2555.6" y2="498.3"/>
			<line class="st0" x1="91.1" y1="523.1" x2="2555.6" y2="523.1"/>
			<line class="st0" x1="91.1" y1="547.9" x2="2555.6" y2="547.9"/>
			<line class="st0" x1="91.1" y1="572.7" x2="2555.6" y2="572.7"/>
			<line class="st0" x1="91.1" y1="690.7" x2="2555.6" y2="690.7"/>
			<line class="st0" x1="91.1" y1="715.5" x2="2555.6" y2="715.5"/>
			<line class="st0" x1="91.1" y1="740.3" x2="2555.6" y2="740.3"/>
			<line class="st0" x1="91.1" y1="765.1" x2="2555.6" y2="765.1"/>
			<line class="st0" x1="91.1" y1="789.9" x2="2555.6" y2="789.9"/>
			<path class="st1" d="M39.2,721.9h-30l-0.8,13.9h2.2c0.3-2.5,0.8-4.4,1.3-6c1.3-3.7,3.7-5.5,7.1-5.5c1.6,0,2.4,0.5,2.4,1.8v25.8
				c0,2.5,0,2.7-0.3,3.1c-0.4,0.5-1.4,0.7-4.2,0.7h-1.3v2.4h17.1v-2.4h-1.3c-2.8,0-3.8-0.2-4.1-0.7c-0.3-0.4-0.3-0.6-0.3-3.1v-25.8
				c0-1.2,0.7-1.8,2.4-1.8c3.1,0,5.5,1.7,6.8,4.7c0.8,1.8,1.2,4,1.6,6.8H40L39.2,721.9 M44.1,752.5c-1.8,0-3.1,1.4-3.1,3.1
				c0,1.8,1.4,3.2,3.1,3.2c1.8,0,3.1-1.4,3.1-3.2C47.2,753.9,45.8,752.5,44.1,752.5"/>
			<path class="st1" d="M23.7,504.3h-2.1l-11.5,29.2c-1.4,3.9-2.6,5.1-5.5,5.3H4.4v2.4h13.2v-2.4h-1c-2.7,0-4.1-0.9-4.1-2.8
				c0-0.7,0.1-1.2,0.4-2.1l1.7-4.4H28l2.7,6.7c0.3,0.8,0.4,1.1,0.4,1.3c0,0.8-1.2,1.3-3.1,1.3h-2.1v2.4h15.5v-2.4h-0.7
				c-2.6,0-3.1-0.3-4.2-3.2L23.7,504.3 M21.3,512.5l5.7,14.2H15.7L21.3,512.5 M48.3,535.6c-1.8,0-3.2,1.4-3.2,3.1
				c0,1.8,1.4,3.2,3.1,3.2c1.8,0,3.2-1.4,3.2-3.2C51.4,537,50,535.6,48.3,535.6"/>
			<path class="st1" d="M36.7,194.6h-1.8l-2,3c-2.4-2.2-5.6-3.4-9.1-3.4c-6.6,0-10.9,4.1-10.9,10.4c0,5.4,2.7,8.2,10.1,10.1l4.8,1.2
				c3.7,0.9,4,1.1,5.1,1.8c1.5,1.2,2.3,2.8,2.3,4.8c0,2-0.8,3.7-2.2,5.1c-1.6,1.4-3.3,1.9-6.1,1.9c-3.7,0-6.3-1.2-8.7-3.8
				c-2.1-2.3-3.1-4.7-3.9-8.5h-2.2l0.2,14.2h2l2.2-3.4c3.3,2.8,6.1,3.8,10.5,3.8c7.3,0,12-4.3,12-11c0-3.2-1-5.8-3-7.7
				c-1.3-1.3-3.3-2.2-7.3-3.2l-5.4-1.3c-4.4-1.2-6.6-3.1-6.6-6.2c0-3.5,2.9-5.9,7.1-5.9c3.5,0,6.3,1.5,8.3,4.4c1.5,2,2.4,4.1,3,6.7
				h2.2L36.7,194.6 M47.7,225.4c-1.8,0-3.1,1.4-3.1,3.1c0,1.8,1.4,3.2,3.1,3.2c1.8,0,3.1-1.4,3.1-3.2
				C50.8,226.8,49.4,225.4,47.7,225.4"/>
			<line class="st2" x1="93.4" y1="689.3" x2="93.4" y2="791.3"/>
			<line class="st2" x1="894.8" y1="689.3" x2="894.8" y2="791.3"/>
			<line class="st2" x1="1545.4" y1="689.3" x2="1545.4" y2="791.3"/>
			<line class="st2" x1="2160.5" y1="689.3" x2="2160.5" y2="791.3"/>
			<line class="st2" x1="2539.7" y1="689.3" x2="2539.7" y2="791.3"/>
			<line class="st2" x1="2553.4" y1="689.3" x2="2553.4" y2="791.3"/>
			<line class="st2" x1="93.4" y1="472.1" x2="93.4" y2="690.7"/>
			<line class="st2" x1="894.8" y1="472.1" x2="894.8" y2="574"/>
			<line class="st2" x1="1545.4" y1="472.1" x2="1545.4" y2="574"/>
			<line class="st2" x1="2160.5" y1="472.1" x2="2160.5" y2="574"/>
			<line class="st2" x1="2539.7" y1="472.1" x2="2539.7" y2="574"/>
			<line class="st2" x1="2553.4" y1="472.1" x2="2553.4" y2="574"/>
			<line class="st2" x1="93.4" y1="162" x2="93.4" y2="473.5"/>
			<line class="st2" x1="894.8" y1="162" x2="894.8" y2="263.9"/>
			<line class="st2" x1="1545.4" y1="162" x2="1545.4" y2="263.9"/>
			<line class="st2" x1="2160.5" y1="162" x2="2160.5" y2="263.9"/>
			<line class="st2" x1="2539.7" y1="162" x2="2539.7" y2="263.9"/>
			<line class="st2" x1="2553.4" y1="162" x2="2553.4" y2="263.9"/>
			<line class="st3" x1="2000.5" y1="597.5" x2="2050.1" y2="597.5"/>
			<line class="st3" x1="2195" y1="597.5" x2="2244.6" y2="597.5"/>
			<line class="st3" x1="2000.5" y1="287.3" x2="2050.1" y2="287.3"/>
			<line class="st0" x1="289.6" y1="694" x2="289.6" y2="777.5"/>
			<line class="st0" x1="481.3" y1="694" x2="481.3" y2="777.5"/>
			<line class="st0" x1="579.5" y1="694" x2="579.5" y2="777.5"/>
			<line class="st0" x1="736.7" y1="718.8" x2="736.7" y2="799.2"/>
			<line class="st0" x1="963.2" y1="749.5" x2="963.2" y2="672.1"/>
			<line class="st0" x1="1157" y1="749.5" x2="1157" y2="672.1"/>
			<line class="st0" x1="1256.3" y1="749.5" x2="1256.3" y2="672.1"/>
			<line class="st0" x1="1415.2" y1="749.5" x2="1415.2" y2="672.1"/>
			<line class="st0" x1="1586.2" y1="681.6" x2="1586.2" y2="765.1"/>
			<line class="st0" x1="1768.1" y1="681.6" x2="1768.1" y2="765.1"/>
			<line class="st0" x1="1861.3" y1="731.2" x2="1861.3" y2="808.5"/>
			<line class="st0" x1="2010.5" y1="731.2" x2="2010.5" y2="808.5"/>
			<line class="st0" x1="2205.1" y1="718.8" x2="2205.1" y2="799.2"/>
			<line class="st0" x1="2425.7" y1="681.6" x2="2425.7" y2="765.1"/>
			<line class="st0" x1="319.1" y1="557.1" x2="319.1" y2="473.5"/>
			<line class="st0" x1="510.8" y1="557.1" x2="510.8" y2="473.5"/>
			<line class="st0" x1="609" y1="557.1" x2="609" y2="473.5"/>
			<line class="st0" x1="766.2" y1="557.1" x2="766.2" y2="473.5"/>
			<line class="st0" x1="963.2" y1="569.5" x2="963.2" y2="485.9"/>
			<line class="st0" x1="1157" y1="581.9" x2="1157" y2="498.3"/>
			<line class="st0" x1="1256.3" y1="569.5" x2="1256.3" y2="485.9"/>
			<line class="st0" x1="1415.2" y1="557.1" x2="1415.2" y2="473.5"/>
			<line class="st0" x1="1615.7" y1="581.9" x2="1615.7" y2="498.3"/>
			<line class="st0" x1="1797.6" y1="581.9" x2="1797.6" y2="498.3"/>
			<line class="st0" x1="1890.8" y1="581.9" x2="1890.8" y2="498.3"/>
			<line class="st0" x1="2040" y1="594.3" x2="2040" y2="510.7"/>
			<line class="st0" x1="2234.6" y1="594.3" x2="2234.6" y2="510.7"/>
			<line class="st0" x1="2455.3" y1="557.1" x2="2455.3" y2="473.5"/>
			<line class="st0" x1="289.6" y1="203.9" x2="289.6" y2="281.1"/>
			<line class="st0" x1="510.8" y1="222.2" x2="510.8" y2="144.7"/>
			<line class="st0" x1="609" y1="222.2" x2="609" y2="144.7"/>
			<line class="st0" x1="766.2" y1="247" x2="766.2" y2="163.3"/>
			<line class="st0" x1="963.2" y1="234.6" x2="963.2" y2="154"/>
			<line class="st0" x1="1157" y1="247" x2="1157" y2="163.3"/>
			<line class="st0" x1="1256.3" y1="234.6" x2="1256.3" y2="154"/>
			<line class="st0" x1="1415.2" y1="222.2" x2="1415.2" y2="144.7"/>
			<line class="st0" x1="1615.7" y1="247" x2="1615.7" y2="163.3"/>
			<line class="st0" x1="1797.6" y1="271.8" x2="1797.6" y2="188.1"/>
			<line class="st0" x1="1890.8" y1="271.8" x2="1890.8" y2="188.1"/>
			<line class="st0" x1="2040" y1="284.2" x2="2040" y2="200.5"/>
			<line class="st0" x1="2234.6" y1="247" x2="2234.6" y2="163.3"/>
			<line class="st0" x1="2425.7" y1="191.5" x2="2425.7" y2="271.8"/>
			<path class="st1" d="M319.5,682.7c-1.8-3.3-5.6-5.1-10.1-5.1c-3.4,0-7,1-10.6,2.9c-6.5,3.5-10.5,9.3-10.5,14.4
				c0,1.4,0.3,2.8,1,4.1c1.8,3.3,5.6,5,10.1,5c3.4,0,7-0.9,10.6-2.8c6.5-3.5,10.5-9.3,10.5-14.4C320.5,685.4,320.2,684,319.5,682.7"
				/>
			<path class="st1" d="M511.2,682.7c-1.8-3.3-5.6-5.1-10.1-5.1c-3.4,0-7,1-10.6,2.9c-6.5,3.5-10.5,9.3-10.5,14.4
				c0,1.4,0.3,2.8,1,4.1c1.8,3.3,5.6,5,10.1,5c3.4,0,7-0.9,10.6-2.8c6.5-3.5,10.5-9.3,10.5-14.4C512.2,685.4,511.9,684,511.2,682.7"
				/>
			<path class="st1" d="M609.4,682.7c-1.8-3.3-5.6-5.1-10.1-5.1c-3.4,0-7,1-10.6,2.9c-6.5,3.5-10.5,9.3-10.5,14.4
				c0,1.4,0.3,2.8,1,4.1c1.8,3.3,5.6,5,10.1,5c3.4,0,7-0.9,10.6-2.8c6.5-3.5,10.5-9.3,10.5-14.4C610.4,685.4,610.1,684,609.4,682.7"
				/>
			<path class="st1" d="M766.6,707.5c-1.8-3.3-5.6-5.1-10.1-5.1c-3.4,0-7,1-10.6,2.9c-6.5,3.5-10.5,9.3-10.5,14.4
				c0,1.4,0.3,2.8,1,4.1c1.8,3.3,5.6,5,10.1,5c3.4,0,7-0.9,10.6-2.8c6.5-3.5,10.5-9.3,10.5-14.4
				C767.6,710.2,767.3,708.8,766.6,707.5"/>
			<path class="st1" d="M963.6,744.7c-1.8-3.3-5.6-5.1-10.1-5.1c-3.4,0-7,1-10.6,2.9c-6.5,3.5-10.5,9.3-10.5,14.4
				c0,1.4,0.3,2.8,1,4.1c1.8,3.3,5.6,5,10.1,5c3.4,0,7-0.9,10.6-2.8c6.5-3.5,10.5-9.3,10.5-14.4C964.6,747.4,964.3,746,963.6,744.7"
				/>
			<path class="st1" d="M1157.4,744.7c-1.8-3.3-5.6-5.1-10.1-5.1c-3.4,0-7,1-10.6,2.9c-6.5,3.5-10.5,9.3-10.5,14.4
				c0,1.4,0.3,2.8,1,4.1c1.8,3.3,5.6,5,10.1,5c3.4,0,7-0.9,10.6-2.8c6.5-3.5,10.5-9.3,10.5-14.4
				C1158.3,747.4,1158.1,746,1157.4,744.7"/>
			<path class="st1" d="M1256.7,744.7c-1.8-3.3-5.6-5.1-10.1-5.1c-3.4,0-7,1-10.6,2.9c-6.5,3.5-10.5,9.3-10.5,14.4
				c0,1.4,0.3,2.8,1,4.1c1.8,3.3,5.6,5,10.1,5c3.4,0,7-0.9,10.6-2.8c6.5-3.5,10.5-9.3,10.5-14.4
				C1257.7,747.4,1257.4,746,1256.7,744.7"/>
			<path class="st1" d="M1415.6,744.7c-1.8-3.3-5.6-5.1-10.1-5.1c-3.4,0-7,1-10.6,2.9c-6.5,3.5-10.5,9.3-10.5,14.4
				c0,1.4,0.3,2.8,1,4.1c1.8,3.3,5.6,5,10.1,5c3.4,0,7-0.9,10.6-2.8c6.5-3.5,10.5-9.3,10.5-14.4
				C1416.6,747.4,1416.3,746,1415.6,744.7"/>
			<path class="st1" d="M1616.1,670.3c-1.8-3.3-5.6-5.1-10.1-5.1c-3.4,0-7,1-10.6,2.9c-6.5,3.5-10.5,9.3-10.5,14.4
				c0,1.4,0.3,2.8,1,4.1c1.8,3.3,5.6,5,10.1,5c3.4,0,7-0.9,10.6-2.8c6.5-3.5,10.5-9.3,10.5-14.4
				C1617.1,673,1616.8,671.6,1616.1,670.3"/>
			<path class="st1" d="M1798,670.3c-1.8-3.3-5.6-5.1-10.1-5.1c-3.4,0-7,1-10.6,2.9c-6.5,3.5-10.5,9.3-10.5,14.4
				c0,1.4,0.3,2.8,1,4.1c1.8,3.3,5.6,5,10.1,5c3.4,0,7-0.9,10.6-2.8c6.5-3.5,10.5-9.3,10.5-14.4C1799,673,1798.7,671.6,1798,670.3"
				/>
			<path class="st1" d="M1891.2,719.9c-1.8-3.3-5.6-5.1-10.1-5.1c-3.4,0-7,1-10.6,2.9c-6.5,3.5-10.5,9.3-10.5,14.4
				c0,1.4,0.3,2.8,1,4.1c1.8,3.3,5.6,5,10.1,5c3.4,0,7-0.9,10.6-2.8c6.5-3.5,10.5-9.3,10.5-14.4
				C1892.2,722.6,1891.9,721.2,1891.2,719.9"/>
			<path class="st1" d="M2040.4,719.9c-1.8-3.3-5.6-5.1-10.1-5.1c-3.4,0-7,1-10.6,2.9c-6.5,3.5-10.5,9.3-10.5,14.4
				c0,1.4,0.3,2.8,1,4.1c1.8,3.3,5.6,5,10.1,5c3.4,0,7-0.9,10.6-2.8c6.5-3.5,10.5-9.3,10.5-14.4
				C2041.4,722.6,2041.1,721.2,2040.4,719.9"/>
			<path class="st1" d="M2235,707.5c-1.8-3.3-5.6-5.1-10.1-5.1c-3.4,0-7,1-10.6,2.9c-6.5,3.5-10.5,9.3-10.5,14.4
				c0,1.4,0.3,2.8,1,4.1c1.8,3.3,5.6,5,10.1,5c3.4,0,7-0.9,10.6-2.8c6.5-3.5,10.5-9.3,10.5-14.4
				C2235.9,710.2,2235.7,708.8,2235,707.5 M2230.7,714.2c-1.7,1.7-5.1,3.8-8.6,5.8c-3.6,2-7.1,3.5-9.5,4c-0.5,0.1-1,0.2-1.5,0.2
				c-1.6,0-2.8-0.6-3.5-1.9c-0.3-0.5-0.5-1.1-0.5-1.7c0-1.1,0.7-2.4,1.8-3.5c1.7-1.7,5-3.8,8.5-5.8c3.6-2,7.1-3.5,9.5-4
				c0.5-0.1,1-0.2,1.5-0.2c1.6,0,2.9,0.6,3.6,1.9c0.3,0.5,0.4,1.1,0.4,1.7C2232.4,711.8,2231.8,713,2230.7,714.2"/>
			<path class="st1" d="M2455.6,670.3c-1.8-3.3-5.6-5.1-10.1-5.1c-3.4,0-7,1-10.6,2.9c-6.5,3.5-10.5,9.3-10.5,14.4
				c0,1.4,0.3,2.8,1,4.1c1.8,3.3,5.6,5,10.1,5c3.4,0,7-0.9,10.6-2.8c6.5-3.5,10.5-9.3,10.5-14.4
				C2456.6,673,2456.3,671.6,2455.6,670.3"/>
			<path class="st1" d="M319.5,552.2c-1.8-3.3-5.6-5.1-10.1-5.1c-3.4,0-7,1-10.6,2.9c-6.5,3.5-10.5,9.3-10.5,14.4
				c0,1.4,0.3,2.8,1,4.1c1.8,3.3,5.6,5,10.1,5c3.4,0,7-0.9,10.6-2.8c6.5-3.5,10.5-9.3,10.5-14.4
				C320.5,554.9,320.2,553.5,319.5,552.2"/>
			<path class="st1" d="M511.2,552.2c-1.8-3.3-5.6-5.1-10.1-5.1c-3.4,0-7,1-10.6,2.9c-6.5,3.5-10.5,9.3-10.5,14.4
				c0,1.4,0.3,2.8,1,4.1c1.8,3.3,5.6,5,10.1,5c3.4,0,7-0.9,10.6-2.8c6.5-3.5,10.5-9.3,10.5-14.4
				C512.2,554.9,511.9,553.5,511.2,552.2"/>
			<path class="st1" d="M609.4,552.2c-1.8-3.3-5.6-5.1-10.1-5.1c-3.4,0-7,1-10.6,2.9c-6.5,3.5-10.5,9.3-10.5,14.4
				c0,1.4,0.3,2.8,1,4.1c1.8,3.3,5.6,5,10.1,5c3.4,0,7-0.9,10.6-2.8c6.5-3.5,10.5-9.3,10.5-14.4
				C610.4,554.9,610.1,553.5,609.4,552.2"/>
			<path class="st1" d="M766.6,552.2c-1.8-3.3-5.6-5.1-10.1-5.1c-3.4,0-7,1-10.6,2.9c-6.5,3.5-10.5,9.3-10.5,14.4
				c0,1.4,0.3,2.8,1,4.1c1.8,3.3,5.6,5,10.1,5c3.4,0,7-0.9,10.6-2.8c6.5-3.5,10.5-9.3,10.5-14.4
				C767.6,554.9,767.3,553.5,766.6,552.2"/>
			<path class="st1" d="M963.6,564.6c-1.8-3.3-5.6-5.1-10.1-5.1c-3.4,0-7,1-10.6,2.9c-6.5,3.5-10.5,9.3-10.5,14.4
				c0,1.4,0.3,2.8,1,4.1c1.8,3.3,5.6,5,10.1,5c3.4,0,7-0.9,10.6-2.8c6.5-3.5,10.5-9.3,10.5-14.4
				C964.6,567.3,964.3,565.9,963.6,564.6"/>
			<path class="st1" d="M1157.4,577c-1.8-3.3-5.6-5.1-10.1-5.1c-3.4,0-7,1-10.6,2.9c-6.5,3.5-10.5,9.3-10.5,14.4
				c0,1.4,0.3,2.8,1,4.1c1.8,3.3,5.6,5,10.1,5c3.4,0,7-0.9,10.6-2.8c6.5-3.5,10.5-9.3,10.5-14.4
				C1158.3,579.7,1158.1,578.3,1157.4,577"/>
			<path class="st1" d="M1256.7,564.6c-1.8-3.3-5.6-5.1-10.1-5.1c-3.4,0-7,1-10.6,2.9c-6.5,3.5-10.5,9.3-10.5,14.4
				c0,1.4,0.3,2.8,1,4.1c1.8,3.3,5.6,5,10.1,5c3.4,0,7-0.9,10.6-2.8c6.5-3.5,10.5-9.3,10.5-14.4
				C1257.7,567.3,1257.4,565.9,1256.7,564.6"/>
			<path class="st1" d="M1415.6,552.2c-1.8-3.3-5.6-5.1-10.1-5.1c-3.4,0-7,1-10.6,2.9c-6.5,3.5-10.5,9.3-10.5,14.4
				c0,1.4,0.3,2.8,1,4.1c1.8,3.3,5.6,5,10.1,5c3.4,0,7-0.9,10.6-2.8c6.5-3.5,10.5-9.3,10.5-14.4
				C1416.6,554.9,1416.3,553.5,1415.6,552.2"/>
			<path class="st1" d="M1616.1,577c-1.8-3.3-5.6-5.1-10.1-5.1c-3.4,0-7,1-10.6,2.9c-6.5,3.5-10.5,9.3-10.5,14.4
				c0,1.4,0.3,2.8,1,4.1c1.8,3.3,5.6,5,10.1,5c3.4,0,7-0.9,10.6-2.8c6.5-3.5,10.5-9.3,10.5-14.4
				C1617.1,579.7,1616.8,578.3,1616.1,577"/>
			<path class="st1" d="M1798,577c-1.8-3.3-5.6-5.1-10.1-5.1c-3.4,0-7,1-10.6,2.9c-6.5,3.5-10.5,9.3-10.5,14.4c0,1.4,0.3,2.8,1,4.1
				c1.8,3.3,5.6,5,10.1,5c3.4,0,7-0.9,10.6-2.8c6.5-3.5,10.5-9.3,10.5-14.4C1799,579.7,1798.7,578.3,1798,577"/>
			<path class="st1" d="M1891.2,577c-1.8-3.3-5.6-5.1-10.1-5.1c-3.4,0-7,1-10.6,2.9c-6.5,3.5-10.5,9.3-10.5,14.4
				c0,1.4,0.3,2.8,1,4.1c1.8,3.3,5.6,5,10.1,5c3.4,0,7-0.9,10.6-2.8c6.5-3.5,10.5-9.3,10.5-14.4
				C1892.2,579.7,1891.9,578.3,1891.2,577"/>
			<path class="st1" d="M2040.4,589.4c-1.8-3.3-5.6-5.1-10.1-5.1c-3.4,0-7,1-10.6,2.9c-6.5,3.5-10.5,9.3-10.5,14.4
				c0,1.4,0.3,2.8,1,4.1c1.8,3.3,5.6,5,10.1,5c3.4,0,7-0.9,10.6-2.8c6.5-3.5,10.5-9.3,10.5-14.4
				C2041.4,592.1,2041.1,590.7,2040.4,589.4"/>
			<path class="st1" d="M2235,589.4c-1.8-3.3-5.6-5.1-10.1-5.1c-3.4,0-7,1-10.6,2.9c-6.5,3.5-10.5,9.3-10.5,14.4
				c0,1.4,0.3,2.8,1,4.1c1.8,3.3,5.6,5,10.1,5c3.4,0,7-0.9,10.6-2.8c6.5-3.5,10.5-9.3,10.5-14.4
				C2235.9,592.1,2235.7,590.7,2235,589.4 M2230.7,596.2c-1.7,1.7-5.1,3.8-8.6,5.8c-3.6,2-7.1,3.5-9.5,4c-0.5,0.1-1,0.2-1.5,0.2
				c-1.6,0-2.8-0.6-3.5-1.9c-0.3-0.5-0.5-1.1-0.5-1.7c0-1.1,0.7-2.4,1.8-3.5c1.7-1.7,5-3.8,8.5-5.8c3.6-2,7.1-3.5,9.5-4
				c0.5-0.1,1-0.2,1.5-0.2c1.6,0,2.9,0.6,3.6,1.9c0.3,0.5,0.4,1.1,0.4,1.7C2232.4,593.8,2231.8,595,2230.7,596.2"/>
			<path class="st1" d="M2455.6,552.2c-1.8-3.3-5.6-5.1-10.1-5.1c-3.4,0-7,1-10.6,2.9c-6.5,3.5-10.5,9.3-10.5,14.4
				c0,1.4,0.3,2.8,1,4.1c1.8,3.3,5.6,5,10.1,5c3.4,0,7-0.9,10.6-2.8c6.5-3.5,10.5-9.3,10.5-14.4
				C2456.6,554.9,2456.3,553.5,2455.6,552.2"/>
			<path class="st1" d="M319.5,192.5c-1.8-3.3-5.6-5.1-10.1-5.1c-3.4,0-7,1-10.6,2.9c-6.5,3.5-10.5,9.3-10.5,14.4
				c0,1.4,0.3,2.8,1,4.1c1.8,3.3,5.6,5,10.1,5c3.4,0,7-0.9,10.6-2.8c6.5-3.5,10.5-9.3,10.5-14.4
				C320.5,195.2,320.2,193.8,319.5,192.5"/>
			<path class="st1" d="M511.2,217.3c-1.8-3.3-5.6-5.1-10.1-5.1c-3.4,0-7,1-10.6,2.9c-6.5,3.5-10.5,9.3-10.5,14.4
				c0,1.4,0.3,2.8,1,4.1c1.8,3.3,5.6,5,10.1,5c3.4,0,7-0.9,10.6-2.8c6.5-3.5,10.5-9.3,10.5-14.4C512.2,220,511.9,218.6,511.2,217.3"
				/>
			<path class="st1" d="M609.4,217.3c-1.8-3.3-5.6-5.1-10.1-5.1c-3.4,0-7,1-10.6,2.9c-6.5,3.5-10.5,9.3-10.5,14.4
				c0,1.4,0.3,2.8,1,4.1c1.8,3.3,5.6,5,10.1,5c3.4,0,7-0.9,10.6-2.8c6.5-3.5,10.5-9.3,10.5-14.4C610.4,220,610.1,218.6,609.4,217.3"
				/>
			<path class="st1" d="M766.6,242.1c-1.8-3.3-5.6-5.1-10.1-5.1c-3.4,0-7,1-10.6,2.9c-6.5,3.5-10.5,9.3-10.5,14.4
				c0,1.4,0.3,2.8,1,4.1c1.8,3.3,5.6,5,10.1,5c3.4,0,7-0.9,10.6-2.8c6.5-3.5,10.5-9.3,10.5-14.4
				C767.6,244.8,767.3,243.4,766.6,242.1"/>
			<path class="st1" d="M963.6,229.7c-1.8-3.3-5.6-5.1-10.1-5.1c-3.4,0-7,1-10.6,2.9c-6.5,3.5-10.5,9.3-10.5,14.4
				c0,1.4,0.3,2.8,1,4.1c1.8,3.3,5.6,5,10.1,5c3.4,0,7-0.9,10.6-2.8c6.5-3.5,10.5-9.3,10.5-14.4C964.6,232.4,964.3,231,963.6,229.7"
				/>
			<path class="st1" d="M1157.4,242.1c-1.8-3.3-5.6-5.1-10.1-5.1c-3.4,0-7,1-10.6,2.9c-6.5,3.5-10.5,9.3-10.5,14.4
				c0,1.4,0.3,2.8,1,4.1c1.8,3.3,5.6,5,10.1,5c3.4,0,7-0.9,10.6-2.8c6.5-3.5,10.5-9.3,10.5-14.4
				C1158.3,244.8,1158.1,243.4,1157.4,242.1"/>
			<path class="st1" d="M1256.7,229.7c-1.8-3.3-5.6-5.1-10.1-5.1c-3.4,0-7,1-10.6,2.9c-6.5,3.5-10.5,9.3-10.5,14.4
				c0,1.4,0.3,2.8,1,4.1c1.8,3.3,5.6,5,10.1,5c3.4,0,7-0.9,10.6-2.8c6.5-3.5,10.5-9.3,10.5-14.4
				C1257.7,232.4,1257.4,231,1256.7,229.7"/>
			<path class="st1" d="M1415.6,217.3c-1.8-3.3-5.6-5.1-10.1-5.1c-3.4,0-7,1-10.6,2.9c-6.5,3.5-10.5,9.3-10.5,14.4
				c0,1.4,0.3,2.8,1,4.1c1.8,3.3,5.6,5,10.1,5c3.4,0,7-0.9,10.6-2.8c6.5-3.5,10.5-9.3,10.5-14.4
				C1416.6,220,1416.3,218.6,1415.6,217.3"/>
			<path class="st1" d="M1616.1,242.1c-1.8-3.3-5.6-5.1-10.1-5.1c-3.4,0-7,1-10.6,2.9c-6.5,3.5-10.5,9.3-10.5,14.4
				c0,1.4,0.3,2.8,1,4.1c1.8,3.3,5.6,5,10.1,5c3.4,0,7-0.9,10.6-2.8c6.5-3.5,10.5-9.3,10.5-14.4
				C1617.1,244.8,1616.8,243.4,1616.1,242.1"/>
			<path class="st1" d="M1798,266.9c-1.8-3.3-5.6-5.1-10.1-5.1c-3.4,0-7,1-10.6,2.9c-6.5,3.5-10.5,9.3-10.5,14.4
				c0,1.4,0.3,2.8,1,4.1c1.8,3.3,5.6,5,10.1,5c3.4,0,7-0.9,10.6-2.8c6.5-3.5,10.5-9.3,10.5-14.4C1799,269.6,1798.7,268.2,1798,266.9
				"/>
			<path class="st1" d="M1891.2,266.9c-1.8-3.3-5.6-5.1-10.1-5.1c-3.4,0-7,1-10.6,2.9c-6.5,3.5-10.5,9.3-10.5,14.4
				c0,1.4,0.3,2.8,1,4.1c1.8,3.3,5.6,5,10.1,5c3.4,0,7-0.9,10.6-2.8c6.5-3.5,10.5-9.3,10.5-14.4
				C1892.2,269.6,1891.9,268.2,1891.2,266.9"/>
			<path class="st1" d="M2040.4,279.3c-1.8-3.3-5.6-5.1-10.1-5.1c-3.4,0-7,1-10.6,2.9c-6.5,3.5-10.5,9.3-10.5,14.4
				c0,1.4,0.3,2.8,1,4.1c1.8,3.3,5.6,5,10.1,5c3.4,0,7-0.9,10.6-2.8c6.5-3.5,10.5-9.3,10.5-14.4
				C2041.4,282,2041.1,280.6,2040.4,279.3"/>
			<path class="st1" d="M2235,242.1c-1.8-3.3-5.6-5.1-10.1-5.1c-3.4,0-7,1-10.6,2.9c-6.5,3.5-10.5,9.3-10.5,14.4
				c0,1.4,0.3,2.8,1,4.1c1.8,3.3,5.6,5,10.1,5c3.4,0,7-0.9,10.6-2.8c6.5-3.5,10.5-9.3,10.5-14.4
				C2235.9,244.8,2235.7,243.4,2235,242.1 M2230.7,248.8c-1.7,1.7-5.1,3.8-8.6,5.8c-3.6,2-7.1,3.5-9.5,4c-0.5,0.1-1,0.2-1.5,0.2
				c-1.6,0-2.8-0.6-3.5-1.9c-0.3-0.5-0.5-1.1-0.5-1.7c0-1.1,0.7-2.4,1.8-3.5c1.7-1.7,5-3.8,8.5-5.8c3.6-2,7.1-3.5,9.5-4
				c0.5-0.1,1-0.2,1.5-0.2c1.6,0,2.9,0.6,3.6,1.9c0.3,0.5,0.4,1.1,0.4,1.7C2232.4,246.5,2231.8,247.7,2230.7,248.8"/>
			<path class="st1" d="M2455.6,180.1c-1.8-3.3-5.6-5.1-10.1-5.1c-3.4,0-7,1-10.6,2.9c-6.5,3.5-10.5,9.3-10.5,14.4
				c0,1.4,0.3,2.8,1,4.1c1.8,3.3,5.6,5,10.1,5c3.4,0,7-0.9,10.6-2.8c6.5-3.5,10.5-9.3,10.5-14.4
				C2456.6,182.8,2456.3,181.4,2455.6,180.1"/>
			<path class="st1" d="M140.6,690.6c-7.5,0-13.6,4.4-13.7,4.4c-5.8,4.3-8,9.3-8.9,12.8c-0.5,1.8-0.7,3.6-0.7,5.3
				c0,2.4,0.4,4.6,1.3,6.4c1.2,2.7,3.5,4.6,6.4,5.6c1.2,0.4,2.5,0.6,3.8,0.6c2.2,0,4.5-0.6,6.3-1.7c3.1-1.7,5-5.3,5-9.1
				c0-3.5-1.8-6.6-4.8-8.5c-2.1-1.4-4.1-1.8-5.8-1.8c-1.2,0-2.3,0.2-3.2,0.5c-1,0.4-2.7,1.4-3.5,2.1c0.3-1.9,1.5-4.8,2.6-6.3
				s3.3-3.6,5-4.5c2.5-1.4,5.7-2,9.1-2c10.1,0,15.1,8.1,15.1,24.8c0,9.2-3.5,18.1-6.4,23.9c-3.3,6.5-7.6,12.8-11.5,16.3
				c-10.3,9.4-20,13.9-20.1,13.9c0,0-1.5,0.9-1.1,2.4c0.3,1,1.2,1.2,1.8,1.2c0.1,0,0.4-0.1,0.5-0.1s11.4-4.7,20.4-11.7
				c5.1-3.7,9.6-7.6,13.6-11.9c3.6-3.9,6.6-8,9.1-12.2c4.4-7.4,6.8-15.2,6.8-21.8c0-8.2-2.2-15.1-6.3-19.9
				C156.9,693.5,149.9,690.6,140.6,690.6 M171.8,703.2c0,2.8,2.2,5,4.8,5c2.6,0,4.8-2.2,4.8-5s-2.2-5.1-4.8-5.1
				C174,698.1,171.8,700.4,171.8,703.2 M171.8,727.7c0,2.8,2.2,5.1,4.8,5.1c2.6,0,4.8-2.3,4.8-5.1s-2.2-5.1-4.8-5.1
				C174,722.7,171.8,724.9,171.8,727.7"/>
			<path class="st1" d="M178.3,542.1c-1.2-5.4-3.8-9.2-4.6-10.2c-3.2-4.2-7.1-7.1-11.8-8.4c-3.1-0.9-6.1-1-8.5-0.8
				c-1-6-2-11.8-2.9-17.2c5.4-6.1,9-11.9,11.3-16.1c3.4-6.5,4.6-11.1,4.6-11.3c1.7-5.2,2.1-12.8,1-21c-1-7.5-3.1-14.1-5.4-17.4
				c-1-1.4-2.1-2.1-3.1-2.1c-1.2,0-3.7,1.2-6.6,4c-2.3,2.2-5.5,6-8.1,12c-3,7-3.2,16.4-2.8,23.1c0.4,7.2,1.5,12.9,1.5,12.9
				c0,0.1,0.3,1.6,0.7,4.1c-0.2,0.2-0.5,0.4-0.7,0.7c-1,1-2.2,2.1-3.6,3.5c-0.9,0.9-1.8,1.8-2.8,2.7c-8.4,8.1-21.1,20.3-21.1,39.3
				c0,4.7,0.9,9,2.7,13c1.6,3.6,3.9,6.8,6.8,9.7c7.7,7.5,18.2,10.7,25.2,10.5c2.9-0.1,5.5-0.3,7.9-0.8c1.8,9.5,2.9,16.5,3,21.8
				c0,6.5-1.6,10.4-5.5,13.1c-2.4,1.7-5.2,2.7-8.3,2.8c-2.6,0.1-4.8-0.3-6.2-0.8h0c0,0-0.3-0.1-0.3-0.3c0-0.2,0.3-0.2,0.3-0.2h0
				c1.9-0.4,5.4-1.7,7.8-4.9c1.8-2.5,2.6-7.1,0.8-11c-1.1-2.4-3.6-5.3-9.2-5.7c-2.5-0.2-4.7,0.3-6.7,1.5c-1.8,1.1-3.3,2.7-4.3,4.7
				c-2.4,4.7-2,10.3,1.1,14.2c2.9,3.6,7.5,5.9,12.9,6.5c0.8,0.1,1.7,0.1,2.5,0.1c4.4,0,8.8-1.2,12.3-3.4c3.6-2.5,5.7-6.5,6.4-12.1
				c0.6-4.6,0.2-10.5-1.2-18.5c-0.4-2.1-0.9-5.1-1.5-8.8c5.7-1.9,9.8-5.4,13.6-11.3C178.8,554.4,179.7,548.3,178.3,542.1 M144.3,568
				c-4.6-1.2-9-3.7-12.7-7.2c-1.3-1.2-3.2-3.4-4.6-6.7c-1.4-3.1-2-6.5-2-10.1c0.1-4.7,1.4-9.4,3.9-14.2c2.9-5.5,7.4-11,13.4-16.3
				c1.4-1.3,2.8-2.5,4.1-3.8c0.8,4.2,1.6,8.9,2.5,13.7c-3.8,1.3-8.5,4.4-11.6,10c-3.5,6.5-3.4,12-2.6,15.4c0.9,4.4,3.4,8.2,6.9,10.2
				c0.9,0.6,5,2.7,6.8,2.1c0.4-0.1,0.6-0.3,0.8-0.7c0.5-1.2-0.5-1.8-2.1-2.7c-0.6-0.4-1.3-0.8-2-1.3c-3.3-2.5-4.7-6.9-3.7-11.2
				c0.6-2.4,1.8-4.5,3.7-6.2c1.7-1.5,3.7-2.6,6-3.3c2,11.2,4.1,22.2,5.7,30.5c0.1,0.7,0.3,1.3,0.4,2
				C152.8,569.2,148.5,569.1,144.3,568 M155.6,535.1c10.3-0.5,14.5,6.9,15.4,11.7c0.5,2.5,0.5,6.9-1.1,11.1
				c-1.2,3.2-3.6,7.2-8.7,9.2c-0.1-0.4-0.1-0.8-0.2-1.3C159.4,557.2,157.5,546.3,155.6,535.1 M148.3,464.7c1.8-5.7,4.5-8.9,6.5-10.6
				c1.7-1.5,3.4-2.2,4.3-2.2c0.1,0,0.3,0,0.4,0c0.5,0.1,1,0.7,1.4,1.6c2.3,4.3,1.6,10.9,0.2,15.3c-1.6,5.4-4.5,10.9-13.2,20.5
				c-0.2-1.1-0.3-2.1-0.5-3.1C146.1,478,146.4,470.7,148.3,464.7"/>
			<path class="st1" d="M178.3,231.9c-1.2-5.4-3.8-9.2-4.6-10.2c-3.2-4.2-7.1-7.1-11.8-8.4c-3.1-0.9-6.1-1-8.5-0.8
				c-1-6-2-11.8-2.9-17.2c5.4-6.1,9-11.9,11.3-16.1c3.4-6.5,4.6-11.1,4.6-11.3c1.7-5.2,2.1-12.8,1-21c-1-7.5-3.1-14.1-5.4-17.4
				c-1-1.4-2.1-2.1-3.1-2.1c-1.2,0-3.7,1.2-6.6,4c-2.3,2.2-5.5,6-8.1,12c-3,7-3.2,16.4-2.8,23.1c0.4,7.2,1.5,12.9,1.5,12.9
				c0,0.1,0.3,1.6,0.7,4.1c-0.2,0.2-0.5,0.4-0.7,0.7c-1,1-2.2,2.1-3.6,3.5c-0.9,0.9-1.8,1.8-2.8,2.7c-8.4,8.1-21.1,20.3-21.1,39.3
				c0,4.7,0.9,9,2.7,13c1.6,3.6,3.9,6.8,6.8,9.7c7.7,7.5,18.2,10.7,25.2,10.5c2.9-0.1,5.5-0.3,7.9-0.8c1.8,9.5,2.9,16.5,3,21.8
				c0,6.5-1.6,10.4-5.5,13.1c-2.4,1.7-5.2,2.7-8.3,2.8c-2.6,0.1-4.8-0.3-6.2-0.8h0c0,0-0.3-0.1-0.3-0.3c0-0.2,0.3-0.2,0.3-0.2h0
				c1.9-0.4,5.4-1.7,7.8-4.9c1.8-2.5,2.6-7.1,0.8-11c-1.1-2.4-3.6-5.3-9.2-5.7c-2.5-0.2-4.7,0.3-6.7,1.5c-1.8,1.1-3.3,2.7-4.3,4.7
				c-2.4,4.7-2,10.3,1.1,14.2c2.9,3.6,7.5,5.9,12.9,6.5c0.8,0.1,1.7,0.1,2.5,0.1c4.4,0,8.8-1.2,12.3-3.4c3.6-2.5,5.7-6.5,6.4-12.1
				c0.6-4.6,0.2-10.5-1.2-18.5c-0.4-2.1-0.9-5.1-1.5-8.8c5.7-1.9,9.8-5.4,13.6-11.3C178.8,244.2,179.7,238.2,178.3,231.9
				 M144.3,257.9c-4.6-1.2-9-3.7-12.7-7.2c-1.3-1.2-3.2-3.4-4.6-6.7c-1.4-3.1-2-6.5-2-10.1c0.1-4.7,1.4-9.4,3.9-14.2
				c2.9-5.5,7.4-11,13.4-16.3c1.4-1.3,2.8-2.5,4.1-3.8c0.8,4.2,1.6,8.9,2.5,13.7c-3.8,1.3-8.5,4.4-11.6,10c-3.5,6.5-3.4,12-2.6,15.4
				c0.9,4.4,3.4,8.2,6.9,10.2c0.9,0.6,5,2.7,6.8,2.1c0.4-0.1,0.6-0.3,0.8-0.7c0.5-1.2-0.5-1.8-2.1-2.7c-0.6-0.4-1.3-0.8-2-1.3
				c-3.3-2.5-4.7-6.9-3.7-11.2c0.6-2.4,1.8-4.5,3.7-6.2c1.7-1.5,3.7-2.6,6-3.3c2,11.2,4.1,22.2,5.7,30.5c0.1,0.7,0.3,1.3,0.4,2
				C152.8,259.1,148.5,259,144.3,257.9 M155.6,225c10.3-0.5,14.5,6.9,15.4,11.7c0.5,2.5,0.5,6.9-1.1,11.1c-1.2,3.2-3.6,7.2-8.7,9.2
				c-0.1-0.4-0.1-0.8-0.2-1.3C159.4,247,157.5,236.1,155.6,225 M148.3,154.6c1.8-5.7,4.5-8.9,6.5-10.6c1.7-1.5,3.4-2.2,4.3-2.2
				c0.1,0,0.3,0,0.4,0c0.5,0.1,1,0.7,1.4,1.6c2.3,4.3,1.6,10.9,0.2,15.3c-1.6,5.4-4.5,10.9-13.2,20.5c-0.2-1.1-0.3-2.1-0.5-3.1
				C146.1,167.8,146.4,160.6,148.3,154.6"/>
			<path class="st1" d="M226,757.3c-0.6-3.9-3-7.5-8-7.5c-5,0-7.8,3.1-8.3,3.7l0.4-31.8c0-0.8-0.6-1.4-1.4-1.4h-1.2
				c-0.8,0-1.4,0.6-1.4,1.4l0.5,59.6c0,0.8,0.6,1.4,1.4,1.4c0.2,0,0.6-0.1,0.8-0.2c0.4-0.2,6.8-3.4,12.2-9.4
				c3.8-4.3,5.3-9.1,5.3-13.2C226.2,758.9,226.1,758.1,226,757.3 M219.2,761.2c0,1.5-0.4,6.1-2.9,9.8c-1.7,2.6-5.1,5.3-6.9,6.7
				l0.3-19.3c0.2-0.9,1.7-3.8,5.7-3.8c3.6,0,3.9,3.4,3.9,5.5V761.2"/>
			<path class="st1" d="M226,515.2c-0.6-3.9-3-7.5-8-7.5c-5,0-7.8,3.1-8.3,3.7l0.4-31.8c0-0.8-0.6-1.4-1.4-1.4h-1.2
				c-0.8,0-1.4,0.6-1.4,1.4l0.5,59.6c0,0.8,0.6,1.4,1.4,1.4c0.2,0,0.6-0.1,0.8-0.2c0.4-0.2,6.8-3.4,12.2-9.4
				c3.8-4.3,5.3-9.1,5.3-13.2C226.2,516.8,226.1,516,226,515.2 M219.2,519.1c0,1.5-0.4,6.1-2.9,9.8c-1.7,2.6-5.1,5.3-6.9,6.7
				l0.3-19.3c0.2-0.9,1.7-3.8,5.7-3.8c3.6,0,3.9,3.4,3.9,5.5V519.1"/>
			<path class="st1" d="M226,205.1c-0.6-3.9-3-7.5-8-7.5c-5,0-7.8,3.1-8.3,3.7l0.4-31.8c0-0.8-0.6-1.4-1.4-1.4h-1.2
				c-0.8,0-1.4,0.6-1.4,1.4l0.5,59.6c0,0.8,0.6,1.4,1.4,1.4c0.2,0,0.6-0.1,0.8-0.2c0.4-0.2,6.8-3.4,12.2-9.4
				c3.8-4.3,5.3-9.1,5.3-13.2C226.2,206.7,226.1,205.9,226,205.1 M219.2,209c0,1.5-0.4,6.1-2.9,9.8c-1.7,2.6-5.1,5.3-6.9,6.7
				l0.3-19.3c0.2-0.9,1.7-3.8,5.7-3.8c3.6,0,3.9,3.4,3.9,5.5V209"/>
			<path class="st1" d="M482.4,777.9c0-0.2,0.9-3.6,1-3.9c0.1-0.4,1.9-6.1,5.6-11.7c2.7-4.2,12.1-16.4,11.8-16.4
				c0,0,7.3-9.4,7.8-22.2v-2.3c0-6.1-0.8-14.6-4.3-23.2c-0.4-1-0.8-2-1.9-1.6s-0.8,1.6-0.5,2.7c1.8,6.9,2.8,14.1,2.8,21.2
				c0,8.3-3,12.5-4.8,15.6c-6.5,11-15.1,16.4-19.2,17.8c-0.5,0.2-0.8,0.6-0.8,1.1v6.2v16.3c0,0.7,0.6,1.3,1.3,1.3
				C481.7,778.7,482.3,778.3,482.4,777.9"/>
			<path class="st1" d="M1159.1,675.6c-0.1-0.3-1-3.8-1-4c-0.1-0.4-0.7-0.7-1.2-0.7c-0.7,0-1.3,0.6-1.3,1.3v16.3v6.2
				c0,0.5,0.4,0.9,0.8,1.1c4.2,1.3,12.8,6.7,19.2,17.8c1.8,3.1,4.7,7.2,4.7,15.6c0,7.1-1.1,14.7-2.9,21.6c-0.3,1.1-0.6,2.1,0.5,2.5
				s1.5-0.4,1.9-1.4c3.6-8.7,4.5-17.9,4.5-24v-1.9c-0.5-12.8-7.8-22.2-7.8-22.2c0.3,0-9.1-12.2-11.8-16.4
				C1161,681.6,1159.2,676,1159.1,675.6"/>
			<path class="st1" d="M1769.2,765.5c0-0.2,0.9-3.6,1-3.9c0.1-0.4,1.9-6.1,5.6-11.7c2.7-4.2,12.1-16.4,11.8-16.4
				c0,0,7.3-9.4,7.8-22.2v-2.3c0-6.1-0.8-14.6-4.3-23.2c-0.4-1-0.8-2-1.9-1.6c-1.1,0.4-0.8,1.6-0.5,2.7c1.8,6.9,2.8,14.1,2.8,21.2
				c0,8.3-3,12.5-4.8,15.6c-6.5,11-15.1,16.4-19.2,17.8c-0.5,0.2-0.8,0.6-0.8,1.1v6.2V765c0,0.7,0.6,1.3,1.3,1.3
				C1768.5,766.3,1769.1,765.9,1769.2,765.5"/>
			<path class="st1" d="M512.9,476.9c-0.1-0.3-1-3.8-1-4c-0.1-0.4-0.7-0.7-1.2-0.7c-0.7,0-1.3,0.6-1.3,1.3v16.3v6.2
				c0,0.5,0.4,0.9,0.8,1.1c4.2,1.3,12.8,6.7,19.2,17.8c1.8,3.1,4.7,7.2,4.7,15.6c0,7.1-1.1,14.7-2.9,21.6c-0.3,1.1-0.6,2.1,0.5,2.5
				c1.1,0.4,1.5-0.4,1.9-1.4c3.6-8.7,4.5-17.9,4.5-24v-1.9c-0.5-12.8-7.8-22.2-7.8-22.2c0.3,0-9.1-12.2-11.8-16.4
				C514.8,483,513,477.3,512.9,476.9"/>
			<path class="st1" d="M1159.1,501.7c-0.1-0.3-1-3.8-1-4c-0.1-0.4-0.7-0.7-1.2-0.7c-0.7,0-1.3,0.6-1.3,1.3v16.3v6.2
				c0,0.5,0.4,0.9,0.8,1.1c4.2,1.3,12.8,6.7,19.2,17.8c1.8,3.1,4.7,7.2,4.7,15.6c0,7.1-1.1,14.7-2.9,21.6c-0.3,1.1-0.6,2.1,0.5,2.5
				s1.5-0.4,1.9-1.4c3.6-8.7,4.5-17.9,4.5-24V552c-0.5-12.8-7.8-22.2-7.8-22.2c0.3,0-9.1-12.2-11.8-16.4
				C1161,507.8,1159.2,502.1,1159.1,501.7"/>
			<path class="st1" d="M1799.7,501.7c-0.1-0.3-1-3.8-1-4c-0.1-0.4-0.7-0.7-1.2-0.7c-0.7,0-1.3,0.6-1.3,1.3v16.3v6.2
				c0,0.5,0.4,0.9,0.8,1.1c4.2,1.3,12.8,6.7,19.2,17.8c1.8,3.1,4.7,7.2,4.7,15.6c0,7.1-1.1,14.7-2.9,21.6c-0.3,1.1-0.6,2.1,0.5,2.5
				s1.5-0.4,1.9-1.4c3.6-8.7,4.5-17.9,4.5-24V552c-0.5-12.8-7.8-22.2-7.8-22.2c0.3,0-9.1-12.2-11.8-16.4
				C1801.6,507.8,1799.8,502.1,1799.7,501.7"/>
			<path class="st1" d="M512.9,148.2c-0.1-0.3-1-3.8-1-4c-0.1-0.4-0.7-0.7-1.2-0.7c-0.7,0-1.3,0.6-1.3,1.3v16.3v6.2
				c0,0.5,0.4,0.9,0.8,1.1c4.2,1.3,12.8,6.7,19.2,17.8c1.8,3.1,4.7,7.2,4.7,15.6c0,7.1-1.1,14.7-2.9,21.6c-0.3,1.1-0.6,2.1,0.5,2.5
				c1.1,0.4,1.5-0.4,1.9-1.4c3.6-8.7,4.5-17.9,4.5-24v-1.9c-0.5-12.8-7.8-22.2-7.8-22.2c0.3,0-9.1-12.2-11.8-16.4
				C514.8,154.3,513,148.6,512.9,148.2"/>
			<path class="st1" d="M1159.1,166.8c-0.1-0.3-1-3.8-1-4c-0.1-0.4-0.7-0.7-1.2-0.7c-0.7,0-1.3,0.6-1.3,1.3v16.3v6.2
				c0,0.5,0.4,0.9,0.8,1.1c4.2,1.3,12.8,6.7,19.2,17.8c1.8,3.1,4.7,7.2,4.7,15.6c0,7.1-1.1,14.7-2.9,21.6c-0.3,1.1-0.6,2.1,0.5,2.5
				c1.1,0.4,1.5-0.4,1.9-1.4c3.6-8.7,4.5-17.9,4.5-24v-1.9c-0.5-12.8-7.8-22.2-7.8-22.2c0.3,0-9.1-12.2-11.8-16.4
				C1161,172.9,1159.2,167.2,1159.1,166.8"/>
			<path class="st1" d="M1799.7,191.6c-0.1-0.3-1-3.8-1-4c-0.1-0.4-0.7-0.7-1.2-0.7c-0.7,0-1.3,0.6-1.3,1.3v16.3v6.2
				c0,0.5,0.4,0.9,0.8,1.1c4.2,1.3,12.8,6.7,19.2,17.8c1.8,3.1,4.7,7.2,4.7,15.6c0,7.1-1.1,14.7-2.9,21.6c-0.3,1.1-0.6,2.1,0.5,2.5
				s1.5-0.4,1.9-1.4c3.6-8.7,4.5-17.9,4.5-24v-1.9c-0.5-12.8-7.8-22.2-7.8-22.2c0.3,0-9.1-12.2-11.8-16.4
				C1801.6,197.7,1799.8,192,1799.7,191.6"/>
			<path class="st1" d="M288.6,319.6c1.2-0.2,1.7-0.2,3.7-0.2c4.8-0.2,5.5-0.2,9.4-0.5c-1.8,5.8-2.4,7.7-4,12.6
				c-3.9,0-6.4,0.6-9,2.2c-3.8,2.1-5.9,5.8-5.9,9.9c0,4.7,2.8,8.2,6.6,8.2c2.4,0,4.2-1.5,6.1-5c1.2-2.4,3.1-7.2,4.7-12
				c5.1,0.5,9.3,1.8,13.8,4.2c-0.7,2.9-2.3,5.8-4.6,8.4c-2.2,2.5-4.3,4-8.1,5.8c1.1,0.9,1.5,1.2,2.6,2.6c3-1.6,5.7-3.6,8-6.1
				c2.5-2.8,4-5.4,5.2-9c3.7,2,6.2,3.7,7.8,4.9l1.3-3.8c-0.7-0.3-1-0.5-1.5-0.8c-2.4-1.4-4.1-2.3-6.8-3.8c0.5-3.1,0.8-5.8,0.9-10.8
				c0-1.8,0-2.2,0.2-3.1l-3.8-0.1c0.2,0.9,0.2,1.3,0.2,2.4c0,5.2-0.1,7.4-0.6,10.2c-5.2-2.4-8.9-3.4-13.7-3.9c0.9-2.7,1.2-3.6,2.4-7
				c2-6.1,2.1-6.3,2.8-7.2l-2.7-2.1c-0.5,0.3-1,0.5-1.9,0.6c-1.6,0.2-5.6,0.3-8.4,0.3c-2.5,0-3.5-0.1-4.9-0.3L288.6,319.6
				 M296.7,334.5c-3.6,10.7-5.4,13.8-7.4,13.8c-1.8,0-3.2-2.1-3.2-4.8c0-2.2,0.9-4.2,2.4-5.8C290.4,335.7,292.9,334.8,296.7,334.5"
				/>
			<path class="st1" d="M284.9,379.4c0.5,0,0.8,0,0.9,0c0,0,0.1,0,0.2,0c2,0.1,2.4,0.1,4.2,0.1c1.8,0,2.4,0,3.4-0.1
				c-1.9,9.8-5.7,21.2-9.4,27.7l3.6,1.6c2.6-6.1,4.1-9.9,5.8-15.2c1.4-4.6,2.8-10.2,3.5-14.2c2.5-0.2,5.9-0.7,8.5-1.2
				c1-0.2,1-0.2,1.4-0.2l-0.2-3.4c-2.4,0.8-5.1,1.3-9,1.7c0.2-1.5,0.4-2.2,0.6-3.8c0.6-3.6,0.6-3.6,0.9-4.8l-3.9-0.4
				c0,2.2-0.1,3.1-1.1,9.2c-1.5,0.1-2,0.1-3,0.1c-2.6,0-4.6-0.2-6.2-0.5V379.4 M322.6,381.9c-3.8-0.2-4.5-0.2-5.5-0.2
				c-4.2,0-7.5,0.4-13.2,1.7l0.3,3.4c4.5-1.2,8-1.7,12.5-1.7c2.1,0,3.5,0.1,5.9,0.3L322.6,381.9 M304.4,392.7
				c-2.7,3.4-3.4,5-3.4,7.2c0,4.9,4.2,7.5,12.4,7.5c2.7,0,5.5-0.2,8.9-0.9c1.6-0.2,1.6-0.2,2.2-0.3l-0.4-3.8c-2.8,1-7.3,1.7-11,1.7
				c-5.7,0-8.8-1.6-8.8-4.6c0-1.2,0.5-2.5,1.2-3.5c0.3-0.6,0.5-0.7,1.5-1.9L304.4,392.7"/>
			<path class="st1" d="M493.8,313.1c0.2,1.2,0.2,1.6,0.2,4c0,7.2,0.4,16.8,0.8,22.6c0,0.2,0,0.2,0,0.3c0,0.2,0,0.2,0,0.5
				c-0.1-0.1-0.1-0.1-0.2-0.1c-0.2,0-0.2-0.1-0.5-0.1c-1-0.2-2.8-0.4-4.3-0.4c-7.1,0-11.8,3.1-11.8,7.9c0,4.6,4,7.4,10.4,7.4
				c4.1,0,7.3-1.2,8.9-3.5c0.8-1.1,1.2-2.9,1.2-5c0-0.7-0.1-1.6-0.2-2.2c0.5,0.2,0.5,0.2,1.2,0.5c1.7,0.8,4.5,2.3,6.8,3.9
				c2.7,1.8,4.2,3,5.2,4.3l2.3-3.5c-1.2-0.8-1.2-0.8-2.3-1.6c-5.2-3.8-9.3-5.9-13.3-7.1c-0.2-3.2-0.5-8.1-0.7-12.9
				c4.2-0.1,7.5-0.4,12-1.1c2.2-0.3,2.2-0.3,3-0.3l-0.4-3.7c-2.8,1.1-9.2,1.9-14.7,1.9c-0.1-3.5-0.1-4.1-0.1-5.2
				c0-3.9,0-5.3,0.3-6.6H493.8 M495,343.7c0.1,0,0.2,2,0.2,2.8c0,1.9-0.3,3-1.2,3.8c-1.2,1.1-3.1,1.7-5.5,1.7c-2.7,0-5-0.8-6-2
				c-0.5-0.5-0.8-1.3-0.8-2.2c0-2.9,3.1-4.7,8.2-4.7C491.8,343,492.9,343.1,495,343.7"/>
			<path class="st1" d="M480.2,373.5c1.2-0.1,1.7-0.2,3.7-0.2c4.8-0.1,5.5-0.2,9.5-0.5c-1.8,5.8-2.4,7.7-4,12.6c-4,0-6.4,0.6-9,2.1
				c-3.8,2.2-6,5.8-6,9.9c0,4.7,2.8,8.2,6.6,8.2c2.4,0,4.2-1.5,6-5c1.2-2.4,3.1-7.2,4.7-12c5.1,0.5,9.3,1.8,13.8,4.1
				c-0.7,3-2.3,5.9-4.6,8.4c-2.2,2.5-4.3,4-8.1,5.8c1.1,0.8,1.5,1.2,2.6,2.6c3-1.5,5.7-3.5,8-6.1c2.5-2.8,4-5.4,5.2-9
				c3.7,2,6.2,3.7,7.8,4.9l1.3-3.8c-0.7-0.3-1-0.5-1.5-0.8c-2.4-1.5-4.1-2.3-6.8-3.8c0.5-3.1,0.8-5.8,0.9-10.8c0-1.9,0-2.2,0.2-3.1
				l-3.8,0c0.2,0.9,0.2,1.3,0.2,2.4c0,5.2-0.1,7.3-0.6,10.2c-5.2-2.4-8.9-3.4-13.7-3.9c0.9-2.7,1.2-3.6,2.4-7c2-6.1,2.1-6.4,2.8-7.2
				l-2.7-2.1c-0.5,0.4-1,0.5-1.8,0.6c-1.7,0.2-5.7,0.3-8.4,0.3c-2.5,0-3.5-0.1-4.8-0.3L480.2,373.5 M488.3,388.4
				c-3.7,10.6-5.4,13.8-7.4,13.8c-1.8,0-3.2-2.1-3.2-4.8c0-2.2,0.9-4.2,2.4-5.8C482.1,389.6,484.6,388.7,488.3,388.4"/>
			<path class="st1" d="M574.1,323.8c0.3-0.1,0.5-0.1,0.7-0.1s0.5,0,0.8,0.1c1.4,0.1,2.4,0.2,3.8,0.2c0.9,0,2.2-0.1,4.1-0.1
				c0,0.4,0,0.4-0.1,2.1c0,1.7,0,2.8-0.1,3.2c-0.5-0.1-0.8-0.1-1.1-0.1c-4.6,0-8,3.4-8,8c0,3.8,2.4,6.6,5.6,6.6
				c1.2,0,1.8-0.2,2.7-0.8l0,0c-0.6,1-0.6,1-0.8,1.3c-0.8,1.3-1.2,2.9-1.2,4.3c0,4.4,3.9,6.3,12.9,6.3c6.5,0,11.2-0.8,13.9-2.5
				c2-1.2,3-3.2,3-5.8c0-2.6-0.9-5.9-2.5-9.3c-1.6-0.1-2.2-0.2-3.9-0.6c1.7,2.9,3,6.9,3,9.5c0,2-0.9,3.2-3,4
				c-2.1,0.8-6.4,1.5-10.5,1.5c-3.5,0-6-0.3-7.5-0.9c-1.4-0.6-2-1.4-2-2.7c0-1.6,0.6-3.2,2-5.6c2.3-3.8,2.7-4.9,2.7-7.3
				c0-2.3-0.6-3.8-2.1-4.9c0-1.8,0-2.2,0.1-6.6c2.5-0.1,5.4-0.5,8-1c0.8-0.2,1-0.2,1.6-0.2l-0.2-3.3c-1.7,0.7-5.3,1.3-9.2,1.7
				c0-0.7,0-0.9,0-1.4c0-1.3,0-1.3,0-1.9c0.1-2.4,0.2-2.6,0.4-3.6l-3.9,0c0.2,0.9,0.2,1.5,0.2,2.2c0,1.6,0,2.5,0,4.8
				c-1.5,0.1-2.1,0.1-3.2,0.1c-3.5,0-4.9-0.1-6.2-0.5V323.8 M582.1,331.8c2.4,0.2,3.4,1.2,3.4,3.7c0,3.1-2,5.5-4.7,5.5
				c-2.1,0-3.5-1.6-3.5-3.9c0-2.8,2-5.2,4.5-5.2C581.9,331.8,582,331.8,582.1,331.8 M600.7,320.6c4,2.6,8.3,6.6,11,10.5l2.8-2.4
				c-3.3-4.1-6.6-7.1-11.3-10.2L600.7,320.6"/>
			<path class="st1" d="M578.5,368.3c-0.1,1.2-0.2,1.7-0.7,4c-1.7,7.4-2.2,12.7-2.2,19.8c0,5.2,0.3,8.8,1.3,14.1
				c0.2,1,0.2,1.2,0.3,2l3.6-0.3c0-0.3,0-0.6,0-0.8c0-2.8,1.8-8.8,4-13.8l-2.4-1.2c-1.6,3.7-2.5,6.4-3.2,9.8
				c-0.2-2.7-0.3-5.6-0.3-9.5c0-6,0.5-10.4,1.5-15.7c0.8-3.4,1.3-5.8,2.1-8L578.5,368.3 M588.8,377.8c3.2,0.4,5.2,0.5,8,0.5
				c3.8,0,7.8-0.2,10.8-0.6c2.2-0.3,3.3-0.5,3.5-0.5l-0.2-3.5c-3.4,0.9-7.9,1.3-13.4,1.3c-3.9,0-6.3-0.2-8.5-0.8L588.8,377.8
				 M592.4,387.5c-3.1,3.6-4.3,6.2-4.3,9.3c0,1.8,0.5,3.3,1.5,4.6c2.2,2.6,5.8,3.8,11.5,3.8c3.4,0,6.8-0.3,10.2-1
				c1-0.2,1.1-0.2,1.8-0.2l-0.5-3.8c-2.7,1.1-7,1.8-11.5,1.8c-6.5,0-9.6-1.8-9.6-5.5c0-2.2,1.2-4.6,3.8-7.4L592.4,387.5"/>
			<path class="st1" d="M732.6,328.9c0.9-0.4,1.5-0.6,3.6-1.2c8.6-2.4,15.2-3.5,20.4-3.5c6.8,0,11,3.4,11,9
				c0,5.6-3.8,10.1-10.7,12.6c-3.8,1.4-8.3,2.1-13.9,2.3c0.9,1.4,1.1,2,1.5,3.7c7.8-0.7,12-1.6,16.5-3.8c6.7-3.2,10.4-8.5,10.4-14.8
				c0-7.7-5.8-12.5-15-12.5c-4.2,0-9,0.6-14.5,1.8c-8.9,2-8.9,2-10.4,2.1L732.6,328.9"/>
			<path class="st1" d="M755.4,374.4c-2.8,0.9-5.9,1.6-10.2,2.1v-4.8c0-2.3,0.1-3.2,0.2-4.7h-3.7c0.2,1.5,0.2,2.8,0.2,4.8v4.9
				c-1.5,0.1-3.5,0.2-4.8,0.2c-2.2,0-3.6-0.1-5.1-0.3v3.3c0.4,0,0.7,0,0.9,0c0.1,0,0.5,0,1.1,0c0.5,0,1.9,0,2.7,0c1.5,0,2.3,0,3.2,0
				c1.5-0.1,1.5-0.1,2-0.2v9.4c-3.2,1.3-5.2,2.6-7.1,4.1c-2.7,2.3-3.9,4.5-3.9,6.7c0,1.8,0.8,3.3,2.3,4.7c2.2,1.9,5.5,3.2,8.2,3.2
				c2.5,0,3.6-1.3,3.6-4v-12.5c4.2-1.3,7.4-1.9,10.6-1.9c6.5,0,10.7,3,10.7,7.9c0,4.1-2.8,7.1-6.7,7.1c-3.7,0-5.2-2.2-5.2-7.4
				c0-0.6,0-1,0.1-1.9c-1.2,0.7-1.8,0.9-3.3,1.3c0,2.5,0.2,4,0.6,5.6c1,3.6,3.8,5.7,7.7,5.7c5.8,0,10.2-4.5,10.2-10.3
				c0-3.7-1.8-6.9-5.1-8.8c-2.3-1.4-5.3-2.1-8.9-2.1c-3.3,0-6.4,0.5-10.8,1.8v-8.7c2.4-0.2,4.8-0.6,8.9-1.5c0.7-0.1,0.9-0.2,1.5-0.3
				L755.4,374.4 M742,402c0,2.2-0.2,2.4-1.2,2.4c-1.3,0-3.1-0.6-4.5-1.4c-1.5-1-2.1-2-2.1-3c0-2.4,2.8-5.1,7.8-7.5V402 M772,380.8
				c-3-3.8-5.5-6.2-10.1-9.5l-2.6,1.9c3.9,2.7,7.5,6.1,10.1,9.8L772,380.8"/>
			<path class="st1" d="M932.7,324.3c0.9-0.1,1-0.1,3.1-0.2c5.7-0.1,9.7-0.3,13.5-0.9c1.2,2.7,1.6,3.2,2.9,5.7
				c-4.1,0.8-10.6,1.2-15.8,1.2c-2,0-2.9-0.1-4-0.2l0.1,3.3c0.9-0.1,1.1-0.1,3.5-0.2c9.3-0.3,12.6-0.5,17.5-1.4c1.8,3,3.8,6,5.4,7.7
				c-3.3-1-6-1.4-10.1-1.4c-9.5,0-15.2,3.2-15.2,8.7c0,2.6,1.4,4.8,3.8,6.2c2.6,1.4,5.7,2.1,10.3,2.1c4.4,0,8.7-0.6,12.8-1.8
				c2.3-0.7,2.3-0.7,3-0.8l-0.7-3.9c-3,1.8-9.6,3.3-14.8,3.3c-6.9,0-10.7-1.8-10.7-5.1c0-3.4,4.7-5.7,11.8-5.7
				c2.2,0,4.8,0.2,6.6,0.4c2.4,0.4,3.6,0.8,5.5,1.9l2.9-2.1c-3.8-4.5-4.4-5.2-7.3-10c1.8-0.3,4.3-0.9,7.8-1.8
				c1.7-0.5,1.8-0.5,2.7-0.7l-0.4-3.3c-2.1,1-4.9,1.8-11.5,3.1c-0.8-1.3-2.1-4-2.8-5.7c2.8-0.4,8.2-1.6,12.6-2.8l-0.3-3.2
				c-2.8,1.2-7.5,2.4-13.4,3.3c-1.2-2.7-2.2-5.2-2.6-7.1l-3.8,0.7c0.4,0.7,1.4,3,3,6.8c-4.6,0.5-7.7,0.7-11.9,0.7
				c-1.7,0-2.5-0.1-3.8-0.2L932.7,324.3"/>
			<path class="st1" d="M932.4,390.6c0.6,0.1,0.8,0.1,1.5,0.3c2.2,0.5,4.6,0.9,7.6,1.2c-0.1,0.4-0.1,0.4-0.1,1.2
				c-0.2,1.2-0.2,2.2-0.2,3.3c0,2.8,0.6,5.2,1.6,6.9c1.9,3.2,5.9,5,11.2,5c8.8,0,14.7-4.8,14.7-11.8c0-3.7-1.2-6.1-4.7-10
				c-1.5,0.7-2,0.8-3.7,1c3.2,2.8,4.8,5.6,4.8,8.7c0,5.3-4.3,8.8-11.1,8.8c-3,0-5.4-0.8-7-2.2c-1.6-1.3-2.3-3.2-2.3-6
				c0-0.8,0.1-2.5,0.2-3.7c0.1-0.7,0.1-0.7,0.1-1c2.2,0.1,3.1,0.1,4.3,0.1c2.3,0,4.5-0.1,7-0.4c0.7-0.1,0.8-0.1,1.3-0.1l0.1-3.3
				c-2,0.5-5.6,0.8-9.2,0.8c-0.7,0-1.4,0-3.3,0c0.3-2.8,0.3-3.3,1.1-9.1c2.8,0.1,3.6,0.1,4.4,0.1c1.5,0,3,0,4.5-0.2
				c2.5-0.2,2.5-0.2,3.5-0.3l0.2-3.4c-2.2,0.5-5.4,0.8-9.2,0.8c-0.8,0-1.5,0-2.9-0.1c0.2-1.4,0.4-1.9,0.5-3c0.5-2.8,0.5-2.8,0.5-3.2
				c0.4-1.8,0.5-2.4,0.8-3.3l-4-0.5c0,0.2,0,0.3,0,0.4c0,1.3-0.4,4.6-1.2,9.4c-3.5-0.3-6.9-1.1-9-1.9l-0.5,3.3
				c0.7,0.2,0.9,0.2,1.6,0.3c2.9,0.7,5.1,1.1,7.4,1.4c-0.4,2.6-0.9,6.5-1.2,9c-3.8-0.5-6.9-1.1-8.9-2L932.4,390.6"/>
			<path class="st1" d="M1221,321.1c0.5-0.1,0.5-0.1,1.5-0.2c7.2-0.5,7.7-0.6,11.2-1.5c-2.9,2.4-2.9,2.4-4.5,4.5
				c-4.4,5.3-6.7,11.1-6.7,16.6c0,8.2,5.4,13.9,13.3,13.9c6,0,11.2-3.4,13.4-8.7c1.3-3.1,2-6.5,2-10.2c0-4-0.5-6.6-2-11.3
				c0.4,0.7,0.4,0.7,1,1.8c0.5,0.9,0.9,1.6,1.7,2.9c1.8,2.8,3.7,5,6.3,7.3c1.2,1,1.2,1,2.1,1.8l1.9-3.5c-0.8-0.3-1.1-0.5-1.9-1.2
				c-3-2.5-5-4.7-7.2-7.8c-2-2.9-3.9-6.7-4.7-9.1l-3.6,1.2c1.9,3.8,3.1,10.4,3.1,16.1c0,4.3-0.6,7.5-1.8,10.4
				c-1.8,4.1-5.9,6.8-10.3,6.8c-5.7,0-9.8-4.3-9.8-10.3c0-5.1,2.3-10.5,6.8-16c2.1-2.5,3.2-3.4,5.9-5.3l-2.1-3.2
				c-1.8,0.9-7.6,1.6-13.2,1.6c-1.1,0-1.5,0-2.3-0.2L1221,321.1"/>
			<path class="st1" d="M1231.1,371.3c6.7,1.9,12.9,2.8,21,3.3l0.6-3.6c-8.2-0.1-15.4-1.2-20.3-3.1L1231.1,371.3 M1225.9,387.6
				c3.9-1.6,13.9-3.3,19.1-3.3c2.6,0,4.9,0.4,6.1,1.1c2.1,1.1,3.2,3.1,3.2,5.6c0,2.3-0.8,4.6-2.6,6.8c-1.2,1.5-2.3,2.4-4.3,3.5
				c-4.2,2.4-8.8,3.7-14.1,4.1c0.8,1.2,0.9,1.7,1.6,3.7c7.5-1.4,10.7-2.5,14.5-4.8c5.6-3.4,8.6-8.2,8.6-13.5c0-3.5-1.4-6.2-4.2-8
				c-2-1.3-4.8-1.9-8.6-1.9c-3.9,0-8.6,0.5-15.2,1.8c-3.9,0.8-3.9,0.8-5,0.8L1225.9,387.6"/>
			<path class="st1" d="M1379.3,329.4c1.3-0.4,1.8-0.5,2.9-0.7c0.4-0.1,2.8-0.5,7.2-1.2c-1.7,6.4-3.2,10.8-5.5,15.8
				c-1.8,3.8-3.7,7.1-5.2,9.1l3.4,2c1.6-2.8,2.6-4.8,3.2-6c3.4-6.9,5.7-13.3,7.6-21.2c1.8-0.2,2.5-0.2,3.6-0.2c4.7,0,6.2,1.7,6.2,7
				c0,5.6-0.8,10.7-2.1,13.9c-0.6,1.6-1.6,2.4-2.8,2.4c-1.8,0-4.6-0.8-7.4-2.3c0.2,0.9,0.2,1.2,0.2,2c0,0.7,0,1-0.1,1.8
				c3.3,1.4,5.4,2,7.6,2c2.3,0,3.7-0.7,4.9-2.3c2-2.9,3.3-9.6,3.3-17.2c0-4.1-0.7-6.4-2.4-8c-1.6-1.5-3.7-2.1-7.2-2.1
				c-1.2,0-1.8,0.1-2.9,0.2c0.4-2.4,0.8-4.2,1-5.7c0.5-2.8,0.6-3.7,1-4.8l-4-0.4c0,0.3,0,0.5,0,0.7c0,2.1-0.7,6.9-1.5,10.6
				c-4.1,0.7-9.2,1.2-11.1,1.3L1379.3,329.4 M1408.8,322.8c4.8,5,8.3,11.1,10.2,18l3.2-1.8c-2.3-7.1-5.3-12.2-10.5-17.7
				L1408.8,322.8"/>
			<path class="st1" d="M1382.4,378.4c0.2,0,0.3,0,0.4,0c0.3,0,0.8,0,1.4,0.1c2.9,0.2,5.1,0.3,8.3,0.3c-1.7,5.9-4.6,12.9-6.7,16.3
				l3.6,1.4c1-1.3,2.2-2.2,4.2-3.2c3.4-1.7,7.8-2.7,11.6-2.7c6,0,9.6,2.3,9.6,6.1c0,4.8-5.2,8-13.1,8c-4.6,0-8.6-0.8-12.5-2.5
				c0.2,1.6,0.2,2.5,0.2,2.8c0,0,0,0.1,0,0.3c0,0.2,0,0.5-0.1,0.8c4,1.3,7.9,1.9,12.4,1.9c10.1,0,16.8-4.4,16.8-11.2
				c0-5.6-5.1-9.2-13-9.2c-5.4,0-11,1.6-14.5,4.2l-0.1-0.1c1.4-2.3,3.6-8,5-12.8c7.6-0.2,11.6-0.6,18.6-1.4c1-0.2,1.3-0.2,2.2-0.2
				l-0.2-3.6c-3.2,1.1-9.9,1.8-19.7,2.2c0.5-1.8,0.6-2.4,1.3-5.3c0.5-2.5,0.5-2.5,0.8-3.2l-4-0.4c0,2.2-0.5,5.1-1.6,9
				c-5.2,0-8.4-0.2-10.8-0.8L1382.4,378.4"/>
			<path class="st1" d="M1583.8,327c0.8-0.1,1-0.2,2-0.2c6.6-0.1,12.8-0.6,17.8-1.3c0.3,0.5,0.3,0.6,0.9,1.7c2.1,4.2,3.4,6.2,6,9.8
				c-2.1-1.1-6.1-1.8-10.4-1.8c-4,0-7,0.6-9.7,1.8c-3.5,1.7-5.7,4.9-5.7,8.2c0,2,0.8,4,2.2,5.5c2.3,2.4,6.9,3.8,13,3.8
				c5,0,9.7-0.8,14.7-2.7l-0.6-3.8c-3.8,1.9-9.2,3.2-14.2,3.2c-4.3,0-7.9-0.8-9.8-2.3c-1.2-1-1.9-2.3-1.9-3.9c0-1.8,1-3.6,2.7-4.7
				c2.2-1.4,5.3-2.1,9.5-2.1c3.4,0,6.2,0.4,8.8,1.3c1.4,0.5,2.1,1,3.5,2.1l3.3-1.9c-3.5-4.7-7.2-10.7-9-14.6
				c0.5-0.1,0.5-0.1,1.7-0.3c3.2-0.6,3.8-0.8,6.8-1.5c1.5-0.4,1.9-0.5,3-0.7l-0.5-3.5c-2.7,1.1-7.2,2.3-12.1,3.1
				c-0.4-0.9-0.6-1.2-1.8-4.4c-1.2-3.2-1.2-3.2-1.5-4.5l-3.9,0.5c0.4,0.9,0.8,1.6,1.3,2.9c0.9,2.2,1.7,4.2,2.4,5.9
				c-4.7,0.7-10.3,1.1-14.9,1.1c-1.7,0-2.5-0.1-3.8-0.2L1583.8,327"/>
			<path class="st1" d="M1598.7,367c0.2,1.2,0.2,1.6,0.2,4.1c0,7.2,0.4,16.8,0.8,22.6c0,0.1,0,0.2,0,0.3c0.1,0.2,0.1,0.2,0.1,0.5
				c-0.2-0.1-0.2-0.1-0.2-0.1c-0.2,0-0.2,0-0.4-0.1c-1.1-0.2-2.9-0.4-4.4-0.4c-7.1,0-11.8,3.1-11.8,7.9c0,4.6,4,7.4,10.4,7.4
				c4.2,0,7.3-1.2,8.9-3.4c0.8-1.1,1.2-2.9,1.2-5.1c0-0.6-0.1-1.6-0.2-2.1c0.4,0.2,0.5,0.2,1.2,0.5c1.7,0.8,4.4,2.3,6.8,3.8
				c2.7,1.8,4.2,3.1,5.2,4.4l2.4-3.5c-1.2-0.8-1.2-0.8-2.3-1.6c-5.2-3.8-9.3-5.9-13.3-7.1c-0.2-3.2-0.5-8.1-0.7-12.9
				c4.2-0.1,7.6-0.4,12.1-1.1c2.1-0.3,2.1-0.3,3-0.3l-0.5-3.7c-2.8,1.1-9.2,1.9-14.7,1.9c-0.1-3.6-0.1-4.1-0.1-5.2
				c0-3.9,0.1-5.4,0.3-6.6H1598.7 M1599.9,397.6c0,0,0.1,2,0.1,2.8c0,1.9-0.3,2.9-1.2,3.8c-1.2,1.1-3.2,1.7-5.6,1.7
				c-2.6,0-4.9-0.8-6-2c-0.4-0.5-0.8-1.3-0.8-2.2c0-2.9,3.1-4.7,8.2-4.7C1596.7,396.9,1597.8,397,1599.9,397.6"/>
			<path class="st1" d="M1761.8,326.2c1.3-0.2,1.3-0.2,7.8-0.8c-0.2,4.8-0.2,4.8-0.2,8.8c-8.2,8.2-8.2,8.2-9.3,9.1l2.1,3.3
				c1-1.2,1-1.3,4.2-4.8c1.4-1.6,2.6-2.9,3.1-3.6c-0.1,1.7-0.1,2.8-0.1,5.9c0,9.4,0,9.4-0.2,11.5h3.8c-0.2-2.1-0.3-5.3-0.3-13.1v-7
				c4.1-3.9,5.8-5.3,7.7-6.8c3.6-2.7,6.7-4.1,9.2-4.1c4.9,0,7.7,4.7,7.7,13c0,1.9-0.1,3.2-0.4,5.3c-2.8-1.5-5.1-2.2-7.8-2.2
				c-4.9,0-8.3,2.8-8.3,6.8c0,3.8,3.5,6.5,8.4,6.5c2.9,0,5.7-1,7.4-2.7c1.1-0.9,1.6-1.8,2.2-3.4c2.2,1.8,4.1,3.4,5.1,4.6l1.6-3.5
				c-0.5-0.3-0.6-0.4-1.2-1c-0.4-0.4-0.9-0.8-1.3-1c-2.4-1.8-2.4-1.8-3.1-2.3c0.6-2.9,0.8-4.7,0.8-7.2c0-10.2-4-16-10.9-16
				c-3.8,0-7.4,1.6-12.1,5.3c-2.3,1.8-4,3.3-5.2,4.7l0.2-5.1c1.2-1.5,2.2-2.6,2.7-2.9l-1.3-1.8c-0.3,0.2-0.4,0.2-0.9,0.3
				c0,0-0.1,0-0.2,0c0.3-7.6,0.3-7.6,0.5-8.9l-3.8,0c0.1,1,0.1,1.5,0.1,2.4c0,0.8-0.1,3.6-0.2,6.8c-4.4,0.3-5.8,0.5-7,0.5
				c-0.2,0-0.6,0-1.2-0.1L1761.8,326.2 M1796.1,346.2c0,0-0.1,0.3-0.4,0.8c-0.5,1.2-1.4,2.4-2.6,3.1c-1.2,0.8-2.5,1.2-4.1,1.2
				c-2.9,0-5.1-1.5-5.1-3.6c0-2.2,2.2-3.8,5.2-3.8C1791.6,343.9,1793.4,344.5,1796.1,346.2"/>
			<path class="st1" d="M1770.2,374.1c0.8-0.2,2-0.2,3.6-0.2c5.6-0.2,12.1-0.6,14.2-0.9c0.2-0.1,0.4-0.1,0.7-0.1l0.1,0
				c-0.2,0.2-0.2,0.2-0.4,0.4c-0.2,0.2-0.2,0.2-0.5,0.5c-4.6,4.8-11.4,11.2-16.6,15.8c-3,2.5-4.7,3.8-6.5,4.9l2.5,3.1
				c1.1-1,2.2-2,3.9-3.2c5-3.4,10.9-5.5,16-5.5c6.2,0,10,2.7,10,7c0,5.2-5.3,8.7-13.1,8.7c-4.3,0-9.2-1.2-12.8-3.1
				c0.2,1.5,0.3,2.3,0.3,3.1c0,0.2,0,0.5,0,0.9c4.7,1.7,8.3,2.3,12,2.3c4.1,0,8-0.8,10.7-2.1c4.1-2,6.5-5.8,6.5-9.9
				c0-6.1-5-9.9-13-9.9c-4.5,0-7.7,1-12.7,3.9l-0.2-0.1c4.1-2.9,6.3-4.9,13.7-12.2c4.7-4.7,4.7-4.7,5.4-5.2l-2.1-2.9
				c-0.6,0.2-1,0.3-2,0.4c-3.5,0.4-9.8,0.7-14.5,0.7c-3,0-4,0-5.5-0.3L1770.2,374.1"/>
			<path class="st1" d="M1861,328.9c0.9-0.4,1.5-0.6,3.6-1.2c8.6-2.4,15.2-3.5,20.4-3.5c6.8,0,11,3.4,11,9c0,5.6-3.9,10.1-10.7,12.6
				c-3.8,1.4-8.3,2.1-13.9,2.3c0.9,1.4,1.1,2,1.6,3.7c7.8-0.7,11.9-1.6,16.6-3.8c6.7-3.2,10.4-8.5,10.4-14.8
				c0-7.7-5.8-12.5-14.9-12.5c-4.2,0-8.9,0.6-14.5,1.8c-8.9,2-8.9,2-10.4,2.1L1861,328.9"/>
			<path class="st1" d="M1883.6,374.2c-2.6,0.1-7.1,0.2-12.1,0.4c-8,0.3-8,0.3-9.5,0.3c-0.8,0-1.1,0-2-0.1l0.2,3.7
				c1.6-0.4,15.6-1.2,23.5-1.2v1.3c0,0.3,0,0.8,0,1.2c0,0.7,0.1,1.1,0.1,1.3c0,1.8,0,1.9,0,2.8c-1.3-1.5-3.4-2.2-5.8-2.2
				c-5.2,0-8.9,3.5-8.9,8.2c0,4.6,3.4,7.9,8.2,7.9c2.6,0,4.8-0.9,6.3-2.7c0.6-0.7,0.9-1.2,1.4-2.4c-0.2,7-4.6,11.5-13.7,14.3
				c1,1.1,1.4,1.6,2.2,3.2c3.6-1.4,5.8-2.6,7.9-4.1c4.3-3.2,6.7-7.8,6.7-13c0-2.2-0.3-3.8-1.2-5.9v-9.9c4-0.1,4.6-0.1,5.4-0.1
				c5.9,0,7.7,0.1,9.5,0.2v-3.6c-1.1,0.2-1.8,0.2-3.3,0.2l-8.8,0.1c-0.9,0-0.9,0-2.9,0.1v-0.6c0-3.9,0.1-4.7,0.2-6.2h-3.8
				c0.2,1,0.2,1.5,0.2,2.9l0.1,3.5V374.2 M1878,384.5c1.2,0,2.5,0.3,3.4,0.8c1.4,0.8,2.1,1.9,2.1,3.5c0,3.5-2.4,5.9-5.9,5.9
				c-3.1,0-5.2-2-5.2-4.9C1872.4,386.7,1874.8,384.5,1878,384.5 M1891.2,365.8c1.5,1.6,3.2,4,5,7l2.4-1.6c-1-1.8-2.8-4.2-5-6.8
				L1891.2,365.8 M1898.3,364.8c1.9,2.2,3.4,4.4,5.1,7.5l2.5-1.5c-1.1-2.1-3.1-4.9-5.2-7.4L1898.3,364.8"/>
			<path class="st1" d="M2200.9,328.9c0.8-0.4,1.5-0.6,3.6-1.2c8.7-2.4,15.2-3.5,20.4-3.5c6.8,0,10.9,3.4,10.9,9
				c0,5.6-3.9,10.1-10.7,12.6c-3.8,1.4-8.3,2.1-13.9,2.3c0.9,1.4,1.2,2,1.6,3.7c7.8-0.7,11.9-1.6,16.6-3.8
				c6.7-3.2,10.4-8.5,10.4-14.8c0-7.7-5.8-12.5-14.9-12.5c-4.1,0-8.9,0.6-14.5,1.8c-8.9,2-8.9,2-10.4,2.1L2200.9,328.9"/>
			<path class="st1" d="M2222.5,374.2c2.5,0.1,4,0.5,5.8,1.2c5.1,2.2,7.9,6.8,7.9,12.6c0,6.2-3.3,11.5-8.8,14
				c-2.4,1.1-4.7,1.8-8.4,2.3c0.9,1.2,1.2,1.7,1.8,3.3c3.4-0.8,5.4-1.3,7.6-2.3c7.2-3.1,11.4-9.5,11.4-17.2c0-4.8-1.7-9.2-4.9-12.2
				c-3.2-3.2-8.1-4.9-13.8-4.9c-6.7,0-12.1,2.2-16.1,6.7c-3.4,3.8-5.2,8.7-5.2,13.8c0,7,3.6,12.2,8.3,12.2c3.6,0,6.6-3,9.4-9.6
				C2219.8,388.8,2221.7,381.1,2222.5,374.2 M2218.9,374.2c-0.7,6.4-2.5,13.8-4.6,18.5c-2.1,4.9-4.1,7.2-6.2,7.2
				c-2.7,0-4.8-3.7-4.8-8.5c0-6.2,3.1-11.8,8.2-14.9C2213.7,375.2,2215.9,374.5,2218.9,374.2"/>
			<path class="st1" d="M2420.9,318c0.1,0.9,0.1,1,0.1,2.9c0.2,12.3,0.9,18.7,2.7,23.5c1.7,4.8,4.3,7.6,7.1,7.6
				c3.6,0,5.9-3.3,8.3-12.1c-1.4-1.1-1.9-1.6-2.9-2.9c-0.7,3.4-1.5,6.1-2.6,8.6c-0.8,1.7-1.6,2.5-2.5,2.5c-1.9,0-3.9-3.4-5.1-8.6
				c-0.8-3.2-1.3-10-1.3-15.5c0-2.8,0.1-4.4,0.4-6L2420.9,318 M2446.2,322.2c5.8,6.8,9.5,15.3,10.4,24.7l3.6-1.5
				c-0.9-5.6-1.9-9.2-3.8-13.3c-1.9-4.2-3.9-7.6-7.2-11.4L2446.2,322.2"/>
			<path class="st1" d="M2427.1,374.9c0.6,0,0.8,0.1,1.6,0.2c3.2,0.4,7.5,0.7,11,0.7c2.9,0,4.6-0.2,7.6-0.7
				c-0.5,0.3-0.6,0.3-0.9,0.5c-0.6,0.3-0.7,0.3-1.2,0.7c-2.2,1.2-3.4,2-6.6,4.2l2.5,2c4.9-3.5,9.5-6.3,12.6-7.6l-0.2-3.3
				c-2.8,0.7-6.8,1.1-12.6,1.1c-5.7,0-9.7-0.3-13.3-1.2L2427.1,374.9 M2430.1,387.7c-3.9,3.2-5.8,6.4-5.8,9.7c0,3.4,1.9,6,5.7,7.5
				c2.4,1,6.7,1.6,11.5,1.6c4.4,0,9.2-0.4,13.5-1.2c0.9-0.2,1.1-0.2,1.7-0.2l-0.4-4.1c-2.8,1.2-8.8,1.9-15,1.9c-3.9,0-7.2-0.4-9.1-1
				c-2.8-1-4.2-2.6-4.2-4.9c0-2.3,1.5-4.7,4.8-7.3L2430.1,387.7"/>
			<line class="st4" x1="2043" y1="394.8" x2="2062.8" y2="394.8"/>
			<line class="st4" x1="2039.9" y1="340.9" x2="2059.8" y2="340.9"/>
			<line class="st4" x1="1086.8" y1="394.8" x2="1106.7" y2="394.8"/>
			<line class="st4" x1="1084.2" y1="340.9" x2="1104" y2="340.9"/>
			<path class="st1" d="M332.9,678.3c0,2.7,2.2,5,5,5s5-2.2,5-5s-2.2-5-5-5S332.9,675.6,332.9,678.3"/>
			<path class="st1" d="M977,752.7c0,2.7,2.2,5,5,5s5-2.2,5-5s-2.2-5-5-5S977,750,977,752.7"/>
			<path class="st1" d="M1629.5,678.3c0,2.7,2.2,5,5,5c2.7,0,5-2.2,5-5s-2.2-5-5-5C1631.7,673.3,1629.5,675.6,1629.5,678.3"/>
			<path class="st1" d="M2248.3,703.1c0,2.7,2.2,5,5,5s5-2.2,5-5s-2.2-5-5-5S2248.3,700.4,2248.3,703.1"/>
			<path class="st1" d="M332.9,560.3c0,2.7,2.2,5,5,5s5-2.2,5-5s-2.2-5-5-5S332.9,557.5,332.9,560.3"/>
			<path class="st1" d="M977,560.3c0,2.7,2.2,5,5,5s5-2.2,5-5s-2.2-5-5-5S977,557.5,977,560.3"/>
			<path class="st1" d="M1629.5,585.1c0,2.7,2.2,5,5,5c2.7,0,5-2.2,5-5s-2.2-5-5-5C1631.7,580.1,1629.5,582.3,1629.5,585.1"/>
			<path class="st1" d="M2248.3,585.1c0,2.7,2.2,5,5,5s5-2.2,5-5s-2.2-5-5-5S2248.3,582.3,2248.3,585.1"/>
			<path class="st1" d="M332.9,200.5c0,2.7,2.2,5,5,5s5-2.2,5-5s-2.2-5-5-5S332.9,197.8,332.9,200.5"/>
			<path class="st1" d="M977,225.3c0,2.7,2.2,5,5,5s5-2.2,5-5s-2.2-5-5-5S977,222.6,977,225.3"/>
			<path class="st1" d="M1629.5,250.1c0,2.7,2.2,5,5,5c2.7,0,5-2.2,5-5s-2.2-5-5-5C1631.7,245.2,1629.5,247.4,1629.5,250.1"/>
			<path class="st1" d="M2248.3,250.1c0,2.7,2.2,5,5,5s5-2.2,5-5s-2.2-5-5-5S2248.3,247.4,2248.3,250.1"/>
			<line class="st5" x1="77.7" y1="145.5" x2="77.7" y2="807.8"/>
			<path class="st1" d="M120.3,123.4c-0.2-0.1-0.5-0.2-0.7-0.2c-0.4,0-0.9,0.1-1.1,0.5c-0.2,0.3-10.1,15.6-29.1,15.6H73.7
				c-0.8,0-1.4,0.5-1.4,1.3v8.9v1.4h12.1c30.6,0,36.4-25.5,36.5-25.8c0-0.1,0.1-0.3,0.1-0.5C121,124.1,120.7,123.7,120.3,123.4"/>
			<path class="st1" d="M120.3,829.8c0.4-0.3,0.7-0.7,0.7-1.2c0-0.2-0.1-0.4-0.1-0.5c-0.1-0.3-6-25.8-36.5-25.8H72.3v1.4v8.9
				c0,0.8,0.6,1.3,1.4,1.3h15.8c18.9,0,28.9,15.3,29.1,15.6c0.2,0.4,0.7,0.5,1.1,0.5C119.8,830,120.1,829.9,120.3,829.8"/>
		</g>
	</g>
</g>
<g id="レイヤー_2">
</g>
</svg>
