<?xml version="1.0" encoding="utf-8"?>
<!-- Generator: Adobe Illustrator 26.5.0, SVG Export Plug-In . SVG Version: 6.00 Build 0)  -->
<svg version="1.1" xmlns="http://www.w3.org/2000/svg" xmlns:xlink="http://www.w3.org/1999/xlink" x="0px" y="0px"
	 viewBox="0 0 2560 830" style="enable-background:new 0 0 2560 830;" xml:space="preserve">
<style type="text/css">
	.st0{fill:none;stroke:#FFFFFF;stroke-width:2.73;stroke-linejoin:bevel;}
	.st1{fill:#FFFFFF;}
	.st2{fill:none;stroke:#FFFFFF;stroke-width:4.46;stroke-linejoin:bevel;}
	.st3{fill:none;stroke:#FFFFFF;stroke-width:3.97;stroke-linejoin:bevel;}
	.st4{fill:none;stroke:#FFFFFF;stroke-width:3.72;stroke-linejoin:bevel;}
	.st5{fill:none;stroke:#FFFFFF;stroke-width:10.91;stroke-linejoin:bevel;}
	.st6{fill:none;stroke:#FFFFFF;stroke-width:13.64;stroke-linejoin:bevel;}
</style>
<g id="レイヤー_1">
	<g>
		<g>
			
				<image style="overflow:visible;" width="2624" height="859" xlink:href="A882E600ADC7CCCC.png"  transform="matrix(1 0 0 1 -32.191 7.8191)">
			</image>
		</g>
		<g>
			<line class="st0" x1="231.1" y1="151.7" x2="2555.6" y2="151.7"/>
			<line class="st0" x1="231.1" y1="176.5" x2="2555.6" y2="176.5"/>
			<line class="st0" x1="231.1" y1="201.3" x2="2555.6" y2="201.3"/>
			<line class="st0" x1="231.1" y1="226.1" x2="2555.6" y2="226.1"/>
			<line class="st0" x1="231.1" y1="250.9" x2="2555.6" y2="250.9"/>
			<line class="st0" x1="231.1" y1="473.5" x2="2555.6" y2="473.5"/>
			<line class="st0" x1="231.1" y1="498.3" x2="2555.6" y2="498.3"/>
			<line class="st0" x1="231.1" y1="523.1" x2="2555.6" y2="523.1"/>
			<line class="st0" x1="231.1" y1="547.9" x2="2555.6" y2="547.9"/>
			<line class="st0" x1="231.1" y1="572.7" x2="2555.6" y2="572.7"/>
			<line class="st0" x1="231.1" y1="690.7" x2="2555.6" y2="690.7"/>
			<line class="st0" x1="231.1" y1="715.5" x2="2555.6" y2="715.5"/>
			<line class="st0" x1="231.1" y1="740.3" x2="2555.6" y2="740.3"/>
			<line class="st0" x1="231.1" y1="765.1" x2="2555.6" y2="765.1"/>
			<line class="st0" x1="231.1" y1="789.9" x2="2555.6" y2="789.9"/>
			<path class="st1" d="M86.9,721.9H56.9l-0.8,13.9h2.1c0.4-2.5,0.8-4.4,1.4-6c1.3-3.7,3.7-5.5,7.1-5.5c1.7,0,2.4,0.5,2.4,1.8v25.8
				c0,2.6,0,2.7-0.3,3.1c-0.4,0.5-1.4,0.7-4.2,0.7h-1.3v2.3h17.1v-2.3h-1.3c-2.8,0-3.8-0.2-4.2-0.7c-0.3-0.5-0.3-0.5-0.3-3.1V726
				c0-1.2,0.7-1.8,2.4-1.8c3,0,5.5,1.7,6.8,4.7c0.8,1.8,1.2,4,1.6,6.8h2.1L86.9,721.9 M110.4,746.7c0-7.5-4.2-12.8-10.3-12.8
				c-6.4,0-11.2,5.5-11.2,13c0,7,4.5,11.8,11.3,11.8c4.8,0,8.1-2.3,10.2-7.1l-1.8-1c-2.1,3.8-4.2,5.3-7.5,5.3c-2.6,0-4.4-1-5.7-3.3
				c-0.9-1.5-1.3-3.2-1.2-6H110.4 M94.3,744.6c0-1.5,0.2-2.6,0.7-4c1-3,2.6-4.5,5.1-4.5c3,0,5,2.7,5,6.7c0,1.4-0.5,1.8-2.1,1.8H94.3
				 M122.2,734.7l-8.7,0.5v2.2h1.8c1.9,0,2.1,0.3,2.1,2.5v11.9v1.2v1.2c0,0.8-0.1,1-0.3,1.3c-0.4,0.5-1.3,0.7-3.5,0.7h-0.2v1.8h12.7
				v-1.8H126c-3.4-0.1-3.8-0.4-3.8-2.2v-2.2v-5.2c0-2.5,0.3-4.7,0.9-5.9c1-2.2,3.3-3.8,5.4-3.8c1.3,0,2.8,0.7,3.6,1.8
				c0.8,1.1,1.1,2.6,1.1,5v8.1v2.4c-0.1,0.8-0.1,1-0.3,1.3c-0.4,0.5-1.4,0.7-3.5,0.7h-0.2v1.8h12.6v-1.8h-0.2
				c-3.3-0.1-3.8-0.4-3.8-2.2v-2.2V744c0-3.6-0.1-4.5-1-6.2c-1.2-2.4-3.8-3.8-6.8-3.8c-3.3,0-5.7,1.5-7.9,4.8V734.7 M155.3,733.9
				c-6.1,0-10.9,5.5-10.9,12.5c0,6.8,4.8,12.3,10.8,12.3s10.8-5.5,10.8-12.4C166,739.5,161.2,733.9,155.3,733.9 M155.3,736.1
				c3.5,0,5.5,3.7,5.5,10.2c0,6.7-2,10.2-5.5,10.2c-3.6,0-5.6-3.6-5.6-10.2C149.7,739.6,151.6,736.1,155.3,736.1 M177.6,734.7
				l-8.9,0.5v2.2h2c1.9,0,2.2,0.3,2.2,2.5v11.9v2.4c-0.1,0.8-0.1,1-0.3,1.3c-0.4,0.5-1.4,0.7-3.5,0.7H169v1.8h13.3v-1.8h-0.9
				c-3.4-0.1-3.8-0.4-3.8-2.2v-2.2v-0.5c0-8.4,3-14.8,6.9-15c-0.7,0.8-0.9,1.3-0.9,2.2c0,1.6,1.1,2.8,2.8,2.8c1.9,0,3.1-1.3,3.1-3.3
				c0-2.5-1.7-4-4.4-4c-3.1,0-5.9,2.5-7.5,7V734.7"/>
			<path class="st1" d="M115.2,504.3h-2.1l-11.5,29.2c-1.4,3.9-2.6,5.1-5.5,5.3h-0.2v2.3h13.2v-2.3h-1c-2.7,0-4-1-4-2.9
				c0-0.6,0.1-1.2,0.5-2.1l1.6-4.4h13.2l2.7,6.7c0.3,0.8,0.4,1.1,0.4,1.4c0,0.8-1.2,1.3-3.1,1.3h-2.1v2.3h15.5v-2.3h-0.7
				c-2.6,0-3-0.4-4.2-3.2L115.2,504.3 M112.7,512.5l5.6,14.2h-11.2L112.7,512.5 M142.6,504.3l-9.2,0.5v2.2h2.5
				c1.9,0,2.1,0.3,2.1,2.5V535v2.3c-0.1,0.8-0.1,1-0.3,1.3c-0.3,0.5-1.3,0.7-3.4,0.7h-0.4v1.8h13v-1.8h-0.4
				c-3.4-0.1-3.8-0.3-3.8-2.2V535V504.3 M157.8,517.8v-9.9h-2c-0.5,6.5-2.7,9.8-6.8,10.1v2h4.1v12.8c0,3.5,0.1,4.8,0.6,5.9
				c0.8,2.1,2.8,3.2,5.7,3.2c4.5,0,7.4-3.4,7.4-8.7c0-0.3,0-0.6,0-1.1h-2.1c-0.1,4.5-1.4,6.8-3.9,6.8c-1.1,0-2.1-0.6-2.5-1.5
				c-0.3-0.7-0.5-2-0.5-3.8V520h7.4v-2.2H157.8 M180.5,517.1c-6.1,0-10.9,5.5-10.9,12.5c0,6.8,4.8,12.3,10.8,12.3
				s10.8-5.5,10.8-12.4C191.2,522.6,186.4,517.1,180.5,517.1 M180.5,519.2c3.5,0,5.5,3.6,5.5,10.2c0,6.6-2,10.2-5.6,10.2
				c-3.6,0-5.5-3.6-5.5-10.2C174.8,522.7,176.7,519.2,180.5,519.2"/>
			<path class="st1" d="M29.2,178.3h-1.9l-2,3c-2.4-2.2-5.6-3.5-9.1-3.5c-6.6,0-10.9,4.2-10.9,10.5c0,5.5,2.7,8.1,10.1,10l4.8,1.2
				c3.7,1,4.1,1,5.1,1.9c1.5,1.1,2.3,2.8,2.3,4.8c0,2-0.8,3.6-2.2,5c-1.6,1.4-3.3,2-6,2c-3.7,0-6.4-1.1-8.7-3.8
				c-2.1-2.3-3.1-4.7-3.9-8.6H4.4l0.2,14.2h1.9l2.2-3.4c3.4,2.8,6.1,3.8,10.5,3.8c7.4,0,12.1-4.3,12.1-11c0-3.1-1-5.8-3-7.6
				c-1.4-1.3-3.3-2.1-7.3-3.1l-5.4-1.4c-4.4-1.1-6.5-3.1-6.5-6.1c0-3.5,2.8-5.9,7.1-5.9c3.5,0,6.4,1.5,8.4,4.3
				c1.4,2.1,2.4,4.2,3,6.7h2.1L29.2,178.3 M46.5,190.7c-6.1,0-10.9,5.4-10.9,12.4c0,6.9,4.8,12.4,10.8,12.4s10.8-5.5,10.8-12.4
				C57.2,196.2,52.4,190.7,46.5,190.7 M46.5,192.8c3.5,0,5.4,3.6,5.4,10.2c0,6.6-1.9,10.2-5.5,10.2s-5.6-3.6-5.6-10.2
				C40.8,196.3,42.7,192.8,46.5,192.8 M68.9,191.4l-8.6,0.5v2.1h1.8c1.9,0.1,2.1,0.4,2.1,2.5v22.1v2.4c-0.1,0.7-0.1,1-0.3,1.2
				c-0.3,0.5-1.3,0.6-3.4,0.7h-0.2v1.8h13V223h-0.5c-3.4-0.1-3.8-0.4-3.8-2.2v-2.2v-7.2c1.7,2.9,3.5,4,6.6,4c3.1,0,5.6-1.3,7.4-3.8
				c1.8-2.4,2.8-5.5,2.8-8.8s-1-6.3-2.9-8.7c-1.9-2.4-4.1-3.6-6.9-3.6c-3.1,0-5.2,1.3-6.9,4.3V191.4 M74.9,193.4
				c3.5,0,5.5,3.5,5.5,9.3c0,6.4-2,10.1-5.6,10.1s-5.9-3.7-5.9-9.5C68.9,197.1,71.1,193.4,74.9,193.4 M97.4,191.4l-8.9,0.5v2.1h2
				c1.9,0.1,2.2,0.4,2.2,2.5v12v2.4c-0.1,0.8-0.1,1-0.3,1.3c-0.4,0.5-1.4,0.6-3.5,0.7h-0.2v1.8h13.3v-1.8h-0.9
				c-3.4-0.1-3.8-0.4-3.8-2.1v-2.2v-0.5c0-8.4,3-14.8,6.9-15c-0.7,0.8-0.9,1.3-0.9,2.2c0,1.6,1.1,2.8,2.8,2.8c1.9,0,3.1-1.4,3.1-3.4
				c0-2.4-1.7-4-4.4-4c-3.1,0-5.9,2.5-7.5,6.9V191.4 M131.9,198.6c0-3.1-0.5-4.8-2-5.9c-1.6-1.4-4.1-2-7.3-2c-5.6,0-9.8,2.6-9.8,6.3
				c0,1.9,1.1,3.1,2.9,3.1c1.6,0,2.7-1.1,2.7-2.6c0-0.6-0.2-1.4-0.8-2c-0.3-0.4-0.4-0.5-0.4-0.7c0-1,2-1.9,4.4-1.9
				c1.6,0,3.4,0.5,4.1,1.2c1,0.8,1.3,2,1.3,4.2v2c-5.2,0.9-6.9,1.3-9.3,2.2c-4.4,1.6-6.4,3.9-6.4,7.1c0,3.6,2.8,5.9,7.2,5.9
				c3.5,0,6.5-1.4,8.7-3.9c0.8,2.5,2,3.5,4.4,3.5c2.2,0,4.6-1.5,4.6-2.9c0-0.4-0.2-0.6-0.5-0.6c-0.2,0-0.4,0-0.8,0.2
				c-0.7,0.3-1,0.3-1.4,0.3c-1.4,0-1.9-0.9-1.9-3.4V198.6 M127.2,204.7c0,3-0.2,3.7-1,5c-1.2,1.9-3.5,3.1-5.7,3.1
				c-2.3,0-4-1.6-4-3.9c0-2.1,1.1-3.6,3.2-4.6c1.6-0.7,3.5-1.2,7.4-1.9V204.7 M147.1,191.4l-8.6,0.5v2.1h1.8
				c1.9,0.1,2.1,0.4,2.1,2.5v12v1.2v1.1c-0.1,0.8-0.1,1-0.3,1.3c-0.3,0.5-1.3,0.6-3.4,0.7h-0.2v1.8h12.6v-1.8h-0.2
				c-3.4-0.1-3.8-0.4-3.8-2.1v-2.2v-5.2c0-2.4,0.4-4.7,0.9-5.8c1-2.2,3.3-3.8,5.4-3.8c1.3,0,2.8,0.7,3.6,1.8c0.8,1.1,1.1,2.6,1.1,5
				v8.1v2.4c0,0.8-0.1,1-0.3,1.3c-0.4,0.5-1.4,0.6-3.5,0.7h-0.2v1.8h12.7v-1.8h-0.2c-3.3-0.1-3.8-0.4-3.8-2.1v-2.2v-7.9
				c0-3.6-0.1-4.5-1-6.2c-1.2-2.4-3.8-3.9-6.8-3.9c-3.2,0-5.7,1.5-7.9,4.8V191.4 M180.3,190.7c-6.1,0-10.9,5.4-10.9,12.4
				c0,6.9,4.8,12.4,10.8,12.4S191,210,191,203.1C191,196.2,186.2,190.7,180.3,190.7 M180.3,192.8c3.5,0,5.5,3.6,5.5,10.2
				c0,6.6-2,10.2-5.5,10.2c-3.6,0-5.6-3.6-5.6-10.2C174.6,196.3,176.5,192.8,180.3,192.8"/>
			<line class="st2" x1="233.4" y1="689.3" x2="233.4" y2="791.3"/>
			<line class="st2" x1="581.6" y1="689.3" x2="581.6" y2="791.3"/>
			<line class="st2" x1="595.2" y1="689.3" x2="595.2" y2="791.3"/>
			<line class="st2" x1="1183.4" y1="689.3" x2="1183.4" y2="791.3"/>
			<line class="st2" x1="1736.3" y1="689.3" x2="1736.3" y2="791.3"/>
			<line class="st2" x1="2275.1" y1="689.3" x2="2275.1" y2="791.3"/>
			<line class="st2" x1="2553.4" y1="689.3" x2="2553.4" y2="791.3"/>
			<line class="st2" x1="233.4" y1="472.1" x2="233.4" y2="690.7"/>
			<line class="st2" x1="581.6" y1="472.1" x2="581.6" y2="574"/>
			<line class="st2" x1="595.2" y1="472.1" x2="595.2" y2="574"/>
			<line class="st2" x1="1183.4" y1="472.1" x2="1183.4" y2="574"/>
			<line class="st2" x1="1736.3" y1="472.1" x2="1736.3" y2="574"/>
			<line class="st2" x1="2275.1" y1="472.1" x2="2275.1" y2="574"/>
			<line class="st2" x1="2553.4" y1="472.1" x2="2553.4" y2="574"/>
			<line class="st2" x1="233.4" y1="150.4" x2="233.4" y2="473.5"/>
			<line class="st2" x1="581.6" y1="150.4" x2="581.6" y2="252.3"/>
			<line class="st2" x1="595.2" y1="150.4" x2="595.2" y2="252.3"/>
			<line class="st2" x1="1183.4" y1="150.4" x2="1183.4" y2="252.3"/>
			<line class="st2" x1="1736.3" y1="150.4" x2="1736.3" y2="252.3"/>
			<line class="st2" x1="2275.1" y1="150.4" x2="2275.1" y2="252.3"/>
			<line class="st2" x1="2553.4" y1="150.4" x2="2553.4" y2="252.3"/>
			<line class="st3" x1="486.6" y1="597.5" x2="536.2" y2="597.5"/>
			<line class="st3" x1="1770.8" y1="597.5" x2="1820.4" y2="597.5"/>
			<line class="st3" x1="1894.2" y1="597.5" x2="1943.8" y2="597.5"/>
			<line class="st3" x1="2017.5" y1="597.5" x2="2067.1" y2="597.5"/>
			<line class="st3" x1="486.6" y1="275.7" x2="536.2" y2="275.7"/>
			<line class="st0" x1="526.2" y1="749.5" x2="526.2" y2="672.1"/>
			<line class="st0" x1="638.3" y1="718.8" x2="638.3" y2="799.2"/>
			<line class="st0" x1="810.9" y1="718.8" x2="810.9" y2="802.3"/>
			<line class="st0" x1="899.4" y1="718.8" x2="899.4" y2="799.2"/>
			<line class="st0" x1="1041" y1="718.8" x2="1041" y2="799.2"/>
			<line class="st0" x1="1251.8" y1="749.5" x2="1251.8" y2="672.1"/>
			<line class="st0" x1="1414.6" y1="749.5" x2="1414.6" y2="672.1"/>
			<line class="st0" x1="1498" y1="749.5" x2="1498" y2="672.1"/>
			<line class="st0" x1="1631.5" y1="749.5" x2="1631.5" y2="672.1"/>
			<line class="st0" x1="1780.9" y1="718.8" x2="1780.9" y2="799.2"/>
			<line class="st0" x1="1904.2" y1="718.8" x2="1904.2" y2="799.2"/>
			<line class="st0" x1="2027.6" y1="718.8" x2="2027.6" y2="799.2"/>
			<line class="st0" x1="2150.9" y1="694" x2="2150.9" y2="777.5"/>
			<line class="st0" x1="2317.6" y1="681.6" x2="2317.6" y2="765.1"/>
			<line class="st0" x1="2472.9" y1="681.6" x2="2472.9" y2="765.1"/>
			<line class="st0" x1="526.2" y1="594.3" x2="526.2" y2="510.7"/>
			<line class="st0" x1="667.8" y1="557.1" x2="667.8" y2="473.5"/>
			<line class="st0" x1="840.4" y1="557.1" x2="840.4" y2="473.5"/>
			<line class="st0" x1="928.9" y1="557.1" x2="928.9" y2="473.5"/>
			<line class="st0" x1="1070.5" y1="557.1" x2="1070.5" y2="473.5"/>
			<line class="st0" x1="1251.8" y1="569.5" x2="1251.8" y2="485.9"/>
			<line class="st0" x1="1414.6" y1="581.9" x2="1414.6" y2="498.3"/>
			<line class="st0" x1="1498" y1="569.5" x2="1498" y2="485.9"/>
			<line class="st0" x1="1631.5" y1="569.5" x2="1631.5" y2="485.9"/>
			<line class="st0" x1="1810.4" y1="594.3" x2="1810.4" y2="510.7"/>
			<line class="st0" x1="1933.7" y1="594.3" x2="1933.7" y2="510.7"/>
			<line class="st0" x1="2057.1" y1="594.3" x2="2057.1" y2="510.7"/>
			<line class="st0" x1="2180.4" y1="557.1" x2="2180.4" y2="473.5"/>
			<line class="st0" x1="2347.1" y1="557.1" x2="2347.1" y2="473.5"/>
			<line class="st0" x1="2502.4" y1="557.1" x2="2502.4" y2="473.5"/>
			<line class="st0" x1="526.2" y1="272.6" x2="526.2" y2="188.9"/>
			<line class="st0" x1="667.8" y1="235.4" x2="667.8" y2="151.7"/>
			<line class="st0" x1="840.4" y1="235.4" x2="840.4" y2="151.7"/>
			<line class="st0" x1="928.9" y1="235.4" x2="928.9" y2="151.7"/>
			<line class="st0" x1="1070.5" y1="210.6" x2="1070.5" y2="133.1"/>
			<line class="st0" x1="1251.8" y1="223" x2="1251.8" y2="142.4"/>
			<line class="st0" x1="1414.6" y1="235.4" x2="1414.6" y2="151.7"/>
			<line class="st0" x1="1498" y1="223" x2="1498" y2="142.4"/>
			<line class="st0" x1="1631.5" y1="210.6" x2="1631.5" y2="133.1"/>
			<line class="st0" x1="1810.4" y1="235.4" x2="1810.4" y2="151.7"/>
			<line class="st0" x1="1933.7" y1="235.4" x2="1933.7" y2="151.7"/>
			<line class="st0" x1="2057.1" y1="210.6" x2="2057.1" y2="133.1"/>
			<line class="st0" x1="2150.9" y1="192.3" x2="2150.9" y2="269.5"/>
			<line class="st0" x1="2317.6" y1="179.9" x2="2317.6" y2="260.2"/>
			<line class="st0" x1="2472.9" y1="179.9" x2="2472.9" y2="260.2"/>
			<path class="st1" d="M526.5,744.7c-1.8-3.3-5.6-5.1-10.1-5.1c-3.4,0-7,1-10.6,2.9c-6.5,3.5-10.5,9.3-10.5,14.4
				c0,1.4,0.3,2.8,1,4.1c1.8,3.3,5.6,5,10.1,5c3.4,0,7-0.9,10.6-2.8c6.5-3.5,10.5-9.3,10.5-14.4C527.5,747.4,527.2,746,526.5,744.7"
				/>
			<path class="st1" d="M668.2,707.5c-1.8-3.3-5.6-5.1-10.1-5.1c-3.4,0-7,1-10.6,2.9c-6.5,3.5-10.5,9.3-10.5,14.4
				c0,1.4,0.3,2.8,1,4.1c1.8,3.3,5.6,5,10.1,5c3.4,0,7-0.9,10.6-2.8c6.5-3.5,10.5-9.3,10.5-14.4
				C669.2,710.1,668.9,708.8,668.2,707.5"/>
			<path class="st1" d="M840.8,707.5c-1.8-3.3-5.6-5.1-10.1-5.1c-3.4,0-7,1-10.6,2.9c-6.5,3.5-10.5,9.3-10.5,14.4
				c0,1.4,0.3,2.8,1,4.1c1.8,3.3,5.6,5,10.1,5c3.4,0,7-0.9,10.6-2.8c6.5-3.5,10.5-9.3,10.5-14.4
				C841.8,710.1,841.5,708.8,840.8,707.5"/>
			<path class="st1" d="M929.3,707.5c-1.8-3.3-5.6-5.1-10.1-5.1c-3.4,0-7,1-10.6,2.9c-6.5,3.5-10.5,9.3-10.5,14.4
				c0,1.4,0.3,2.8,1,4.1c1.8,3.3,5.6,5,10.1,5c3.4,0,7-0.9,10.6-2.8c6.5-3.5,10.5-9.3,10.5-14.4C930.3,710.1,930,708.8,929.3,707.5"
				/>
			<path class="st1" d="M1070.8,707.5c-1.8-3.3-5.6-5.1-10.1-5.1c-3.4,0-7,1-10.6,2.9c-6.5,3.5-10.5,9.3-10.5,14.4
				c0,1.4,0.3,2.8,1,4.1c1.8,3.3,5.6,5,10.1,5c3.4,0,7-0.9,10.6-2.8c6.5-3.5,10.5-9.3,10.5-14.4
				C1071.8,710.1,1071.5,708.8,1070.8,707.5"/>
			<path class="st1" d="M1252.2,744.7c-1.8-3.3-5.6-5.1-10.1-5.1c-3.4,0-7,1-10.6,2.9c-6.5,3.5-10.5,9.3-10.5,14.4
				c0,1.4,0.3,2.8,1,4.1c1.8,3.3,5.6,5,10.1,5c3.4,0,7-0.9,10.6-2.8c6.5-3.5,10.5-9.3,10.5-14.4
				C1253.2,747.4,1252.9,746,1252.2,744.7"/>
			<path class="st1" d="M1415,744.7c-1.8-3.3-5.6-5.1-10.1-5.1c-3.4,0-7,1-10.6,2.9c-6.5,3.5-10.5,9.3-10.5,14.4
				c0,1.4,0.3,2.8,1,4.1c1.8,3.3,5.6,5,10.1,5c3.4,0,7-0.9,10.6-2.8c6.5-3.5,10.5-9.3,10.5-14.4C1416,747.4,1415.7,746,1415,744.7"
				/>
			<path class="st1" d="M1498.4,744.7c-1.8-3.3-5.6-5.1-10.1-5.1c-3.4,0-7,1-10.6,2.9c-6.5,3.5-10.5,9.3-10.5,14.4
				c0,1.4,0.3,2.8,1,4.1c1.8,3.3,5.6,5,10.1,5c3.4,0,7-0.9,10.6-2.8c6.5-3.5,10.5-9.3,10.5-14.4
				C1499.4,747.4,1499.1,746,1498.4,744.7"/>
			<path class="st1" d="M1631.9,744.7c-1.8-3.3-5.6-5.1-10.1-5.1c-3.4,0-7,1-10.6,2.9c-6.5,3.5-10.5,9.3-10.5,14.4
				c0,1.4,0.3,2.8,1,4.1c1.8,3.3,5.6,5,10.1,5c3.4,0,7-0.9,10.6-2.8c6.5-3.5,10.5-9.3,10.5-14.4
				C1632.9,747.4,1632.6,746,1631.9,744.7"/>
			<path class="st1" d="M1810.8,707.5c-1.8-3.3-5.6-5.1-10.1-5.1c-3.4,0-7,1-10.6,2.9c-6.5,3.5-10.5,9.3-10.5,14.4
				c0,1.4,0.3,2.8,1,4.1c1.8,3.3,5.6,5,10.1,5c3.4,0,7-0.9,10.6-2.8c6.5-3.5,10.5-9.3,10.5-14.4
				C1811.8,710.1,1811.5,708.8,1810.8,707.5"/>
			<path class="st1" d="M1934.1,707.5c-1.8-3.3-5.6-5.1-10.1-5.1c-3.4,0-7,1-10.6,2.9c-6.5,3.5-10.5,9.3-10.5,14.4
				c0,1.4,0.3,2.8,1,4.1c1.8,3.3,5.6,5,10.1,5c3.4,0,7-0.9,10.6-2.8c6.5-3.5,10.5-9.3,10.5-14.4
				C1935.1,710.1,1934.8,708.8,1934.1,707.5"/>
			<path class="st1" d="M2057.5,707.5c-1.8-3.3-5.6-5.1-10.1-5.1c-3.4,0-7,1-10.6,2.9c-6.5,3.5-10.5,9.3-10.5,14.4
				c0,1.4,0.3,2.8,1,4.1c1.8,3.3,5.6,5,10.1,5c3.4,0,7-0.9,10.6-2.8c6.5-3.5,10.5-9.3,10.5-14.4
				C2058.4,710.1,2058.1,708.8,2057.5,707.5"/>
			<path class="st1" d="M2180.8,682.7c-1.8-3.3-5.6-5.1-10.1-5.1c-3.4,0-7,1-10.6,2.9c-6.5,3.5-10.5,9.3-10.5,14.4
				c0,1.4,0.3,2.8,1,4.1c1.8,3.3,5.6,5,10.1,5c3.4,0,7-0.9,10.6-2.8c6.5-3.5,10.5-9.3,10.5-14.4
				C2181.8,685.3,2181.5,684,2180.8,682.7"/>
			<path class="st1" d="M2347.5,670.3c-1.8-3.3-5.6-5.1-10.1-5.1c-3.4,0-7,1-10.6,2.9c-6.5,3.5-10.5,9.3-10.5,14.4
				c0,1.4,0.3,2.8,1,4.1c1.8,3.3,5.6,5,10.1,5c3.4,0,7-0.9,10.6-2.8c6.5-3.5,10.5-9.3,10.5-14.4
				C2348.5,672.9,2348.2,671.6,2347.5,670.3 M2343.2,677c-1.7,1.7-5.1,3.8-8.6,5.8c-3.6,2-7.1,3.5-9.5,4c-0.5,0.1-1,0.2-1.5,0.2
				c-1.6,0-2.8-0.6-3.5-1.9c-0.3-0.5-0.5-1.1-0.5-1.7c0-1.1,0.7-2.4,1.8-3.5c1.7-1.7,5-3.8,8.5-5.8c3.6-2,7.1-3.5,9.5-4
				c0.5-0.1,1-0.2,1.5-0.2c1.6,0,2.9,0.6,3.6,1.9c0.3,0.5,0.4,1.1,0.4,1.7C2344.9,674.6,2344.3,675.8,2343.2,677"/>
			<path class="st1" d="M2502.8,670.3c-1.8-3.3-5.6-5.1-10.1-5.1c-3.4,0-7,1-10.6,2.9c-6.5,3.5-10.5,9.3-10.5,14.4
				c0,1.4,0.3,2.8,1,4.1c1.8,3.3,5.6,5,10.1,5c3.4,0,7-0.9,10.6-2.8c6.5-3.5,10.5-9.3,10.5-14.4
				C2503.8,672.9,2503.5,671.6,2502.8,670.3"/>
			<path class="st1" d="M526.5,589.4c-1.8-3.3-5.6-5.1-10.1-5.1c-3.4,0-7,1-10.6,2.9c-6.5,3.5-10.5,9.3-10.5,14.4
				c0,1.4,0.3,2.8,1,4.1c1.8,3.3,5.6,5,10.1,5c3.4,0,7-0.9,10.6-2.8c6.5-3.5,10.5-9.3,10.5-14.4
				C527.5,592.1,527.2,590.7,526.5,589.4"/>
			<path class="st1" d="M668.2,552.2c-1.8-3.3-5.6-5.1-10.1-5.1c-3.4,0-7,1-10.6,2.9c-6.5,3.5-10.5,9.3-10.5,14.4
				c0,1.4,0.3,2.8,1,4.1c1.8,3.3,5.6,5,10.1,5c3.4,0,7-0.9,10.6-2.8c6.5-3.5,10.5-9.3,10.5-14.4
				C669.2,554.9,668.9,553.5,668.2,552.2"/>
			<path class="st1" d="M840.8,552.2c-1.8-3.3-5.6-5.1-10.1-5.1c-3.4,0-7,1-10.6,2.9c-6.5,3.5-10.5,9.3-10.5,14.4
				c0,1.4,0.3,2.8,1,4.1c1.8,3.3,5.6,5,10.1,5c3.4,0,7-0.9,10.6-2.8c6.5-3.5,10.5-9.3,10.5-14.4
				C841.8,554.9,841.5,553.5,840.8,552.2"/>
			<path class="st1" d="M929.3,552.2c-1.8-3.3-5.6-5.1-10.1-5.1c-3.4,0-7,1-10.6,2.9c-6.5,3.5-10.5,9.3-10.5,14.4
				c0,1.4,0.3,2.8,1,4.1c1.8,3.3,5.6,5,10.1,5c3.4,0,7-0.9,10.6-2.8c6.5-3.5,10.5-9.3,10.5-14.4C930.3,554.9,930,553.5,929.3,552.2"
				/>
			<path class="st1" d="M1070.8,552.2c-1.8-3.3-5.6-5.1-10.1-5.1c-3.4,0-7,1-10.6,2.9c-6.5,3.5-10.5,9.3-10.5,14.4
				c0,1.4,0.3,2.8,1,4.1c1.8,3.3,5.6,5,10.1,5c3.4,0,7-0.9,10.6-2.8c6.5-3.5,10.5-9.3,10.5-14.4
				C1071.8,554.9,1071.5,553.5,1070.8,552.2"/>
			<path class="st1" d="M1252.2,564.6c-1.8-3.3-5.6-5.1-10.1-5.1c-3.4,0-7,1-10.6,2.9c-6.5,3.5-10.5,9.3-10.5,14.4
				c0,1.4,0.3,2.8,1,4.1c1.8,3.3,5.6,5,10.1,5c3.4,0,7-0.9,10.6-2.8c6.5-3.5,10.5-9.3,10.5-14.4
				C1253.2,567.3,1252.9,565.9,1252.2,564.6"/>
			<path class="st1" d="M1415,577c-1.8-3.3-5.6-5.1-10.1-5.1c-3.4,0-7,1-10.6,2.9c-6.5,3.5-10.5,9.3-10.5,14.4c0,1.4,0.3,2.8,1,4.1
				c1.8,3.3,5.6,5,10.1,5c3.4,0,7-0.9,10.6-2.8c6.5-3.5,10.5-9.3,10.5-14.4C1416,579.7,1415.7,578.3,1415,577"/>
			<path class="st1" d="M1498.4,564.6c-1.8-3.3-5.6-5.1-10.1-5.1c-3.4,0-7,1-10.6,2.9c-6.5,3.5-10.5,9.3-10.5,14.4
				c0,1.4,0.3,2.8,1,4.1c1.8,3.3,5.6,5,10.1,5c3.4,0,7-0.9,10.6-2.8c6.5-3.5,10.5-9.3,10.5-14.4
				C1499.4,567.3,1499.1,565.9,1498.4,564.6"/>
			<path class="st1" d="M1631.9,564.6c-1.8-3.3-5.6-5.1-10.1-5.1c-3.4,0-7,1-10.6,2.9c-6.5,3.5-10.5,9.3-10.5,14.4
				c0,1.4,0.3,2.8,1,4.1c1.8,3.3,5.6,5,10.1,5c3.4,0,7-0.9,10.6-2.8c6.5-3.5,10.5-9.3,10.5-14.4
				C1632.9,567.3,1632.6,565.9,1631.9,564.6"/>
			<path class="st1" d="M1810.8,589.4c-1.8-3.3-5.6-5.1-10.1-5.1c-3.4,0-7,1-10.6,2.9c-6.5,3.5-10.5,9.3-10.5,14.4
				c0,1.4,0.3,2.8,1,4.1c1.8,3.3,5.6,5,10.1,5c3.4,0,7-0.9,10.6-2.8c6.5-3.5,10.5-9.3,10.5-14.4
				C1811.8,592.1,1811.5,590.7,1810.8,589.4"/>
			<path class="st1" d="M1934.1,589.4c-1.8-3.3-5.6-5.1-10.1-5.1c-3.4,0-7,1-10.6,2.9c-6.5,3.5-10.5,9.3-10.5,14.4
				c0,1.4,0.3,2.8,1,4.1c1.8,3.3,5.6,5,10.1,5c3.4,0,7-0.9,10.6-2.8c6.5-3.5,10.5-9.3,10.5-14.4
				C1935.1,592.1,1934.8,590.7,1934.1,589.4"/>
			<path class="st1" d="M2057.5,589.4c-1.8-3.3-5.6-5.1-10.1-5.1c-3.4,0-7,1-10.6,2.9c-6.5,3.5-10.5,9.3-10.5,14.4
				c0,1.4,0.3,2.8,1,4.1c1.8,3.3,5.6,5,10.1,5c3.4,0,7-0.9,10.6-2.8c6.5-3.5,10.5-9.3,10.5-14.4
				C2058.4,592.1,2058.1,590.7,2057.5,589.4"/>
			<path class="st1" d="M2180.8,552.2c-1.8-3.3-5.6-5.1-10.1-5.1c-3.4,0-7,1-10.6,2.9c-6.5,3.5-10.5,9.3-10.5,14.4
				c0,1.4,0.3,2.8,1,4.1c1.8,3.3,5.6,5,10.1,5c3.4,0,7-0.9,10.6-2.8c6.5-3.5,10.5-9.3,10.5-14.4
				C2181.8,554.9,2181.5,553.5,2180.8,552.2"/>
			<path class="st1" d="M2347.5,552.2c-1.8-3.3-5.6-5.1-10.1-5.1c-3.4,0-7,1-10.6,2.9c-6.5,3.5-10.5,9.3-10.5,14.4
				c0,1.4,0.3,2.8,1,4.1c1.8,3.3,5.6,5,10.1,5c3.4,0,7-0.9,10.6-2.8c6.5-3.5,10.5-9.3,10.5-14.4
				C2348.5,554.9,2348.2,553.5,2347.5,552.2 M2343.2,559c-1.7,1.7-5.1,3.8-8.6,5.8c-3.6,2-7.1,3.5-9.5,4c-0.5,0.1-1,0.2-1.5,0.2
				c-1.6,0-2.8-0.6-3.5-1.9c-0.3-0.5-0.5-1.1-0.5-1.7c0-1.1,0.7-2.4,1.8-3.5c1.7-1.7,5-3.8,8.5-5.8c3.6-2,7.1-3.5,9.5-4
				c0.5-0.1,1-0.2,1.5-0.2c1.6,0,2.9,0.6,3.6,1.9c0.3,0.5,0.4,1.1,0.4,1.7C2344.9,556.6,2344.3,557.8,2343.2,559"/>
			<path class="st1" d="M2502.8,552.2c-1.8-3.3-5.6-5.1-10.1-5.1c-3.4,0-7,1-10.6,2.9c-6.5,3.5-10.5,9.3-10.5,14.4
				c0,1.4,0.3,2.8,1,4.1c1.8,3.3,5.6,5,10.1,5c3.4,0,7-0.9,10.6-2.8c6.5-3.5,10.5-9.3,10.5-14.4
				C2503.8,554.9,2503.5,553.5,2502.8,552.2"/>
			<path class="st1" d="M526.5,267.7c-1.8-3.3-5.6-5.1-10.1-5.1c-3.4,0-7,1-10.6,2.9c-6.5,3.5-10.5,9.3-10.5,14.4
				c0,1.4,0.3,2.8,1,4.1c1.8,3.3,5.6,5,10.1,5c3.4,0,7-0.9,10.6-2.8c6.5-3.5,10.5-9.3,10.5-14.4C527.5,270.4,527.2,269,526.5,267.7"
				/>
			<path class="st1" d="M668.2,230.5c-1.8-3.3-5.6-5.1-10.1-5.1c-3.4,0-7,1-10.6,2.9c-6.5,3.5-10.5,9.3-10.5,14.4
				c0,1.4,0.3,2.8,1,4.1c1.8,3.3,5.6,5,10.1,5c3.4,0,7-0.9,10.6-2.8c6.5-3.5,10.5-9.3,10.5-14.4
				C669.2,233.2,668.9,231.8,668.2,230.5"/>
			<path class="st1" d="M840.8,230.5c-1.8-3.3-5.6-5.1-10.1-5.1c-3.4,0-7,1-10.6,2.9c-6.5,3.5-10.5,9.3-10.5,14.4
				c0,1.4,0.3,2.8,1,4.1c1.8,3.3,5.6,5,10.1,5c3.4,0,7-0.9,10.6-2.8c6.5-3.5,10.5-9.3,10.5-14.4
				C841.8,233.2,841.5,231.8,840.8,230.5"/>
			<path class="st1" d="M929.3,230.5c-1.8-3.3-5.6-5.1-10.1-5.1c-3.4,0-7,1-10.6,2.9c-6.5,3.5-10.5,9.3-10.5,14.4
				c0,1.4,0.3,2.8,1,4.1c1.8,3.3,5.6,5,10.1,5c3.4,0,7-0.9,10.6-2.8c6.5-3.5,10.5-9.3,10.5-14.4C930.3,233.2,930,231.8,929.3,230.5"
				/>
			<path class="st1" d="M1070.8,205.7c-1.8-3.3-5.6-5.1-10.1-5.1c-3.4,0-7,1-10.6,2.9c-6.5,3.5-10.5,9.3-10.5,14.4
				c0,1.4,0.3,2.8,1,4.1c1.8,3.3,5.6,5,10.1,5c3.4,0,7-0.9,10.6-2.8c6.5-3.5,10.5-9.3,10.5-14.4
				C1071.8,208.4,1071.5,207,1070.8,205.7"/>
			<path class="st1" d="M1252.2,218.1c-1.8-3.3-5.6-5.1-10.1-5.1c-3.4,0-7,1-10.6,2.9c-6.5,3.5-10.5,9.3-10.5,14.4
				c0,1.4,0.3,2.8,1,4.1c1.8,3.3,5.6,5,10.1,5c3.4,0,7-0.9,10.6-2.8c6.5-3.5,10.5-9.3,10.5-14.4
				C1253.2,220.8,1252.9,219.4,1252.2,218.1"/>
			<path class="st1" d="M1415,230.5c-1.8-3.3-5.6-5.1-10.1-5.1c-3.4,0-7,1-10.6,2.9c-6.5,3.5-10.5,9.3-10.5,14.4
				c0,1.4,0.3,2.8,1,4.1c1.8,3.3,5.6,5,10.1,5c3.4,0,7-0.9,10.6-2.8c6.5-3.5,10.5-9.3,10.5-14.4C1416,233.2,1415.7,231.8,1415,230.5
				"/>
			<path class="st1" d="M1498.4,218.1c-1.8-3.3-5.6-5.1-10.1-5.1c-3.4,0-7,1-10.6,2.9c-6.5,3.5-10.5,9.3-10.5,14.4
				c0,1.4,0.3,2.8,1,4.1c1.8,3.3,5.6,5,10.1,5c3.4,0,7-0.9,10.6-2.8c6.5-3.5,10.5-9.3,10.5-14.4
				C1499.4,220.8,1499.1,219.4,1498.4,218.1"/>
			<path class="st1" d="M1631.9,205.7c-1.8-3.3-5.6-5.1-10.1-5.1c-3.4,0-7,1-10.6,2.9c-6.5,3.5-10.5,9.3-10.5,14.4
				c0,1.4,0.3,2.8,1,4.1c1.8,3.3,5.6,5,10.1,5c3.4,0,7-0.9,10.6-2.8c6.5-3.5,10.5-9.3,10.5-14.4
				C1632.9,208.4,1632.6,207,1631.9,205.7"/>
			<path class="st1" d="M1810.8,230.5c-1.8-3.3-5.6-5.1-10.1-5.1c-3.4,0-7,1-10.6,2.9c-6.5,3.5-10.5,9.3-10.5,14.4
				c0,1.4,0.3,2.8,1,4.1c1.8,3.3,5.6,5,10.1,5c3.4,0,7-0.9,10.6-2.8c6.5-3.5,10.5-9.3,10.5-14.4
				C1811.8,233.2,1811.5,231.8,1810.8,230.5"/>
			<path class="st1" d="M1934.1,230.5c-1.8-3.3-5.6-5.1-10.1-5.1c-3.4,0-7,1-10.6,2.9c-6.5,3.5-10.5,9.3-10.5,14.4
				c0,1.4,0.3,2.8,1,4.1c1.8,3.3,5.6,5,10.1,5c3.4,0,7-0.9,10.6-2.8c6.5-3.5,10.5-9.3,10.5-14.4
				C1935.1,233.2,1934.8,231.8,1934.1,230.5"/>
			<path class="st1" d="M2057.5,205.7c-1.8-3.3-5.6-5.1-10.1-5.1c-3.4,0-7,1-10.6,2.9c-6.5,3.5-10.5,9.3-10.5,14.4
				c0,1.4,0.3,2.8,1,4.1c1.8,3.3,5.6,5,10.1,5c3.4,0,7-0.9,10.6-2.8c6.5-3.5,10.5-9.3,10.5-14.4
				C2058.4,208.4,2058.1,207,2057.5,205.7"/>
			<path class="st1" d="M2180.8,180.9c-1.8-3.3-5.6-5.1-10.1-5.1c-3.4,0-7,1-10.6,2.9c-6.5,3.5-10.5,9.3-10.5,14.4
				c0,1.4,0.3,2.8,1,4.1c1.8,3.3,5.6,5,10.1,5c3.4,0,7-0.9,10.6-2.8c6.5-3.5,10.5-9.3,10.5-14.4
				C2181.8,183.6,2181.5,182.2,2180.8,180.9"/>
			<path class="st1" d="M2347.5,168.5c-1.8-3.3-5.6-5.1-10.1-5.1c-3.4,0-7,1-10.6,2.9c-6.5,3.5-10.5,9.3-10.5,14.4
				c0,1.4,0.3,2.8,1,4.1c1.8,3.3,5.6,5,10.1,5c3.4,0,7-0.9,10.6-2.8c6.5-3.5,10.5-9.3,10.5-14.4
				C2348.5,171.2,2348.2,169.8,2347.5,168.5 M2343.2,175.2c-1.7,1.7-5.1,3.8-8.6,5.8c-3.6,2-7.1,3.5-9.5,4c-0.5,0.1-1,0.2-1.5,0.2
				c-1.6,0-2.8-0.6-3.5-1.9c-0.3-0.5-0.5-1.1-0.5-1.7c0-1.1,0.7-2.4,1.8-3.5c1.7-1.7,5-3.8,8.5-5.8c3.6-2,7.1-3.5,9.5-4
				c0.5-0.1,1-0.2,1.5-0.2c1.6,0,2.9,0.6,3.6,1.9c0.3,0.5,0.4,1.1,0.4,1.7C2344.9,172.9,2344.3,174,2343.2,175.2"/>
			<path class="st1" d="M2502.8,168.5c-1.8-3.3-5.6-5.1-10.1-5.1c-3.4,0-7,1-10.6,2.9c-6.5,3.5-10.5,9.3-10.5,14.4
				c0,1.4,0.3,2.8,1,4.1c1.8,3.3,5.6,5,10.1,5c3.4,0,7-0.9,10.6-2.8c6.5-3.5,10.5-9.3,10.5-14.4
				C2503.8,171.2,2503.5,169.8,2502.8,168.5"/>
			<path class="st1" d="M280.7,690.6c-7.5,0-13.6,4.4-13.7,4.4c-5.8,4.3-8,9.3-8.9,12.8c-0.5,1.8-0.7,3.6-0.7,5.3
				c0,2.4,0.4,4.6,1.3,6.4c1.2,2.7,3.5,4.6,6.4,5.6c1.2,0.4,2.5,0.6,3.8,0.6c2.2,0,4.5-0.6,6.3-1.7c3.1-1.7,5-5.3,5-9.1
				c0-3.5-1.8-6.6-4.8-8.5c-2.1-1.4-4.1-1.8-5.8-1.8c-1.2,0-2.3,0.2-3.2,0.5c-1,0.4-2.7,1.4-3.5,2.1c0.3-1.9,1.5-4.8,2.6-6.3
				s3.3-3.6,5-4.5c2.5-1.4,5.7-2,9.1-2c10.1,0,15.1,8.1,15.1,24.8c0,9.2-3.5,18.1-6.4,23.9c-3.3,6.5-7.6,12.8-11.5,16.3
				c-10.3,9.4-20,13.9-20.1,13.9c0,0-1.5,0.9-1.1,2.4c0.3,1,1.2,1.2,1.8,1.2c0.1,0,0.4-0.1,0.5-0.1s11.4-4.7,20.4-11.7
				c5.1-3.7,9.6-7.6,13.6-11.9c3.6-3.9,6.6-8,9.1-12.2c4.4-7.4,6.8-15.2,6.8-21.8c0-8.2-2.2-15.1-6.3-19.9
				C296.9,693.5,289.9,690.6,280.7,690.6 M311.8,703.2c0,2.8,2.2,5,4.8,5s4.8-2.2,4.8-5s-2.2-5.1-4.8-5.1S311.8,700.4,311.8,703.2
				 M311.8,727.7c0,2.8,2.2,5.1,4.8,5.1s4.8-2.3,4.8-5.1s-2.2-5.1-4.8-5.1S311.8,724.9,311.8,727.7"/>
			<path class="st1" d="M318.3,542c-1.2-5.4-3.8-9.2-4.6-10.2c-3.2-4.2-7.1-7.1-11.8-8.4c-3.1-0.9-6.1-1-8.5-0.8
				c-1-6-2-11.8-2.9-17.2c5.4-6.1,9-11.9,11.3-16.1c3.4-6.5,4.6-11.1,4.6-11.3c1.7-5.2,2.1-12.8,1-21c-1-7.5-3.1-14.1-5.4-17.4
				c-1-1.4-2.1-2.1-3.1-2.1c-1.2,0-3.7,1.2-6.6,4c-2.3,2.2-5.5,6-8.1,12c-3,7-3.2,16.4-2.8,23.1c0.4,7.2,1.5,12.9,1.5,12.9
				c0,0.1,0.3,1.6,0.7,4.1c-0.2,0.2-0.5,0.4-0.7,0.7c-1,1-2.2,2.1-3.6,3.5c-0.9,0.9-1.8,1.8-2.8,2.7c-8.4,8.1-21.1,20.3-21.1,39.3
				c0,4.7,0.9,9,2.7,13c1.6,3.6,3.9,6.8,6.8,9.7c7.7,7.5,18.2,10.7,25.2,10.5c2.9-0.1,5.5-0.3,7.9-0.8c1.8,9.5,2.9,16.5,3,21.8
				c0,6.5-1.6,10.4-5.5,13.1c-2.4,1.7-5.2,2.7-8.3,2.8c-2.6,0.1-4.8-0.3-6.2-0.8h0c0,0-0.3-0.1-0.3-0.3c0-0.2,0.3-0.2,0.3-0.2h0
				c1.9-0.4,5.4-1.7,7.8-4.9c1.8-2.5,2.6-7.1,0.8-11c-1.1-2.4-3.6-5.3-9.2-5.7c-2.5-0.2-4.7,0.3-6.7,1.5c-1.8,1.1-3.3,2.7-4.3,4.7
				c-2.4,4.7-2,10.3,1.1,14.2c2.9,3.6,7.5,5.9,12.9,6.5c0.8,0.1,1.7,0.1,2.5,0.1c4.4,0,8.8-1.2,12.3-3.4c3.6-2.5,5.7-6.5,6.4-12.1
				c0.6-4.6,0.2-10.5-1.2-18.5c-0.4-2.1-0.9-5.1-1.5-8.8c5.7-1.9,9.8-5.4,13.6-11.3C318.8,554.3,319.7,548.3,318.3,542 M284.4,568
				c-4.6-1.2-9-3.7-12.7-7.2c-1.3-1.2-3.2-3.4-4.6-6.7c-1.4-3.1-2-6.5-2-10.1c0.1-4.7,1.4-9.4,3.9-14.2c2.9-5.5,7.4-11,13.4-16.3
				c1.4-1.3,2.8-2.5,4.1-3.8c0.8,4.2,1.6,8.9,2.5,13.7c-3.8,1.3-8.5,4.4-11.6,10c-3.5,6.5-3.4,12-2.6,15.4c0.9,4.4,3.4,8.2,6.9,10.2
				c0.9,0.6,5,2.7,6.8,2.1c0.4-0.1,0.6-0.3,0.8-0.7c0.5-1.2-0.5-1.8-2.1-2.7c-0.6-0.4-1.3-0.8-2-1.3c-3.3-2.5-4.7-6.9-3.7-11.2
				c0.6-2.4,1.8-4.5,3.7-6.2c1.7-1.5,3.7-2.6,6-3.3c2,11.2,4.1,22.2,5.7,30.5c0.1,0.7,0.3,1.3,0.4,2
				C292.9,569.2,288.5,569.1,284.4,568 M295.6,535.1c10.3-0.5,14.5,6.9,15.4,11.7c0.5,2.5,0.5,6.9-1.1,11.1
				c-1.2,3.2-3.6,7.2-8.7,9.2c-0.1-0.4-0.1-0.8-0.2-1.3C299.5,557.2,297.5,546.3,295.6,535.1 M288.3,464.7c1.8-5.7,4.5-8.9,6.5-10.6
				c1.7-1.5,3.4-2.2,4.3-2.2c0.1,0,0.3,0,0.4,0c0.5,0.1,1,0.7,1.4,1.6c2.3,4.3,1.6,10.9,0.2,15.3c-1.6,5.4-4.5,10.9-13.2,20.5
				c-0.2-1.1-0.3-2.1-0.5-3.1C286.1,477.9,286.5,470.7,288.3,464.7"/>
			<path class="st1" d="M318.3,220.3c-1.2-5.4-3.8-9.2-4.6-10.2c-3.2-4.2-7.1-7.1-11.8-8.4c-3.1-0.9-6.1-1-8.5-0.8
				c-1-6-2-11.8-2.9-17.2c5.4-6.1,9-11.9,11.3-16.1c3.4-6.5,4.6-11.1,4.6-11.3c1.7-5.2,2.1-12.8,1-21c-1-7.5-3.1-14.1-5.4-17.4
				c-1-1.4-2.1-2.1-3.1-2.1c-1.2,0-3.7,1.2-6.6,4c-2.3,2.2-5.5,6-8.1,12c-3,7-3.2,16.4-2.8,23.1c0.4,7.2,1.5,12.9,1.5,12.9
				c0,0.1,0.3,1.6,0.7,4.1c-0.2,0.2-0.5,0.4-0.7,0.7c-1,1-2.2,2.1-3.6,3.5c-0.9,0.9-1.8,1.8-2.8,2.7c-8.4,8.1-21.1,20.3-21.1,39.3
				c0,4.7,0.9,9,2.7,13c1.6,3.6,3.9,6.8,6.8,9.7c7.7,7.5,18.2,10.7,25.2,10.5c2.9-0.1,5.5-0.3,7.9-0.8c1.8,9.5,2.9,16.5,3,21.8
				c0,6.5-1.6,10.4-5.5,13.1c-2.4,1.7-5.2,2.7-8.3,2.8c-2.6,0.1-4.8-0.3-6.2-0.8h0c0,0-0.3-0.1-0.3-0.3c0-0.2,0.3-0.2,0.3-0.2h0
				c1.9-0.4,5.4-1.7,7.8-4.9c1.8-2.5,2.6-7.1,0.8-11c-1.1-2.4-3.6-5.3-9.2-5.7c-2.5-0.2-4.7,0.3-6.7,1.5c-1.8,1.1-3.3,2.7-4.3,4.7
				c-2.4,4.7-2,10.3,1.1,14.2c2.9,3.6,7.5,5.9,12.9,6.5c0.8,0.1,1.7,0.1,2.5,0.1c4.4,0,8.8-1.2,12.3-3.4c3.6-2.5,5.7-6.5,6.4-12.1
				c0.6-4.6,0.2-10.5-1.2-18.5c-0.4-2.1-0.9-5.1-1.5-8.8c5.7-1.9,9.8-5.4,13.6-11.3C318.8,232.6,319.7,226.6,318.3,220.3
				 M284.4,246.3c-4.6-1.2-9-3.7-12.7-7.2c-1.3-1.2-3.2-3.4-4.6-6.7c-1.4-3.1-2-6.5-2-10.1c0.1-4.7,1.4-9.4,3.9-14.2
				c2.9-5.5,7.4-11,13.4-16.3c1.4-1.3,2.8-2.5,4.1-3.8c0.8,4.2,1.6,8.9,2.5,13.7c-3.8,1.3-8.5,4.4-11.6,10c-3.5,6.5-3.4,12-2.6,15.4
				c0.9,4.4,3.4,8.2,6.9,10.2c0.9,0.6,5,2.7,6.8,2.1c0.4-0.1,0.6-0.3,0.8-0.7c0.5-1.2-0.5-1.8-2.1-2.7c-0.6-0.4-1.3-0.8-2-1.3
				c-3.3-2.5-4.7-6.9-3.7-11.2c0.6-2.4,1.8-4.5,3.7-6.2c1.7-1.5,3.7-2.6,6-3.3c2,11.2,4.1,22.2,5.7,30.5c0.1,0.7,0.3,1.3,0.4,2
				C292.9,247.5,288.5,247.4,284.4,246.3 M295.6,213.4c10.3-0.5,14.5,6.9,15.4,11.7c0.5,2.5,0.5,6.9-1.1,11.1
				c-1.2,3.2-3.6,7.2-8.7,9.2c-0.1-0.4-0.1-0.8-0.2-1.3C299.5,235.4,297.5,224.5,295.6,213.4 M288.3,143c1.8-5.7,4.5-8.9,6.5-10.6
				c1.7-1.5,3.4-2.2,4.3-2.2c0.1,0,0.3,0,0.4,0c0.5,0.1,1,0.7,1.4,1.6c2.3,4.3,1.6,10.9,0.2,15.3c-1.6,5.4-4.5,10.9-13.2,20.5
				c-0.2-1.1-0.3-2.1-0.5-3.1C286.1,156.2,286.5,149,288.3,143"/>
			<path class="st1" d="M366.1,757.3c-0.6-3.9-3-7.5-8-7.5c-5,0-7.8,3.1-8.3,3.7l0.4-31.8c0-0.8-0.6-1.4-1.4-1.4h-1.2
				c-0.8,0-1.4,0.6-1.4,1.4l0.5,59.6c0,0.8,0.6,1.4,1.4,1.4c0.2,0,0.6-0.1,0.8-0.2c0.4-0.2,6.8-3.4,12.2-9.4
				c3.8-4.3,5.3-9.1,5.3-13.2C366.3,758.9,366.2,758.1,366.1,757.3 M359.2,761.1c0,1.5-0.4,6.1-2.9,9.8c-1.7,2.6-5.1,5.3-6.9,6.7
				l0.3-19.3c0.2-0.9,1.7-3.8,5.7-3.8c3.6,0,3.9,3.4,3.9,5.5V761.1"/>
			<path class="st1" d="M366.1,515.2c-0.6-3.9-3-7.5-8-7.5c-5,0-7.8,3.1-8.3,3.7l0.4-31.8c0-0.8-0.6-1.4-1.4-1.4h-1.2
				c-0.8,0-1.4,0.6-1.4,1.4l0.5,59.6c0,0.8,0.6,1.4,1.4,1.4c0.2,0,0.6-0.1,0.8-0.2c0.4-0.2,6.8-3.4,12.2-9.4
				c3.8-4.3,5.3-9.1,5.3-13.2C366.3,516.8,366.2,516,366.1,515.2 M359.2,519.1c0,1.5-0.4,6.1-2.9,9.8c-1.7,2.6-5.1,5.3-6.9,6.7
				l0.3-19.3c0.2-0.9,1.7-3.8,5.7-3.8c3.6,0,3.9,3.4,3.9,5.5V519.1"/>
			<path class="st1" d="M366.1,193.5c-0.6-3.9-3-7.5-8-7.5c-5,0-7.8,3.1-8.3,3.7l0.4-31.8c0-0.8-0.6-1.4-1.4-1.4h-1.2
				c-0.8,0-1.4,0.6-1.4,1.4l0.5,59.6c0,0.8,0.6,1.4,1.4,1.4c0.2,0,0.6-0.1,0.8-0.2c0.4-0.2,6.8-3.4,12.2-9.4
				c3.8-4.3,5.3-9.1,5.3-13.2C366.3,195.1,366.2,194.3,366.1,193.5 M359.2,197.4c0,1.5-0.4,6.1-2.9,9.8c-1.7,2.6-5.1,5.3-6.9,6.7
				l0.3-19.3c0.2-0.9,1.7-3.8,5.7-3.8c3.6,0,3.9,3.4,3.9,5.5V197.4"/>
			<path class="st1" d="M423.3,722.6c-2.5,1.6-4.3,4.5-4.3,7.6c0,0.4,0,0.8,0.1,1.2c0.5,4.1,3.8,7.2,7.8,7.7h1.1c5,0,8.9-4,8.9-8.9
				v-0.6c0-0.4-0.1-1.1-0.2-1.5c-0.9-4.3-4.8-13.4-21.6-13.4c-21.6,0-24.1,18-24.1,24.4c0,11.8,1.5,26.6,26.3,26.6
				c9.8,0,17.5-5.8,17.9-16.4c0-0.5-0.3-0.8-0.8-0.8h-1.3c-0.4,0-0.8,0.4-0.8,0.8c-0.4,8.2-6.3,13.2-15,13.2
				c-8.6,0-12.8-4.7-12.8-13.4v-18.9c0-5.6,2.2-11.9,11-11.9c4.7,0,6.7,1.7,7.8,3.4C423.6,722.1,423.6,722.4,423.3,722.6"/>
			<path class="st1" d="M423.3,505.3c-2.5,1.6-4.3,4.5-4.3,7.6c0,0.4,0,0.8,0.1,1.2c0.5,4.1,3.8,7.2,7.8,7.7h1.1c5,0,8.9-4,8.9-8.9
				v-0.6c0-0.4-0.1-1.1-0.2-1.5c-0.9-4.3-4.8-13.4-21.6-13.4c-21.6,0-24.1,18-24.1,24.4c0,11.8,1.5,26.6,26.3,26.6
				c9.8,0,17.5-5.8,17.9-16.4c0-0.5-0.3-0.8-0.8-0.8h-1.3c-0.4,0-0.8,0.4-0.8,0.8c-0.4,8.2-6.3,13.2-15,13.2
				c-8.6,0-12.8-4.7-12.8-13.4v-18.9c0-5.6,2.2-11.9,11-11.9c4.7,0,6.7,1.7,7.8,3.4C423.6,504.8,423.6,505.1,423.3,505.3"/>
			<path class="st1" d="M423.3,183.6c-2.5,1.6-4.3,4.5-4.3,7.6c0,0.4,0,0.8,0.1,1.2c0.5,4.1,3.8,7.2,7.8,7.7h1.1c5,0,8.9-4,8.9-8.9
				v-0.6c0-0.4-0.1-1.1-0.2-1.5c-0.9-4.3-4.8-13.4-21.6-13.4c-21.6,0-24.1,18-24.1,24.4c0,11.8,1.5,26.6,26.3,26.6
				c9.8,0,17.5-5.8,17.9-16.4c0-0.5-0.3-0.8-0.8-0.8h-1.3c-0.4,0-0.8,0.4-0.8,0.8c-0.4,8.2-6.3,13.2-15,13.2
				c-8.6,0-12.8-4.7-12.8-13.4v-18.9c0-5.6,2.2-11.9,11-11.9c4.7,0,6.7,1.7,7.8,3.4C423.6,183.1,423.6,183.4,423.3,183.6"/>
			<path class="st1" d="M812,802.7c0-0.2,0.9-3.6,1-3.9c0.1-0.4,1.9-6.1,5.6-11.7c2.7-4.2,12.1-16.4,11.8-16.4c0,0,7.3-9.4,7.8-22.2
				v-2.3c0-6.1-0.8-14.6-4.3-23.2c-0.4-1-0.8-2-1.9-1.6c-1.1,0.4-0.8,1.6-0.5,2.7c1.8,6.9,2.8,14.1,2.8,21.2c0,8.3-3,12.5-4.8,15.6
				c-6.5,11-15.1,16.4-19.2,17.8c-0.5,0.2-0.8,0.6-0.8,1.1v6.2v16.3c0,0.7,0.6,1.3,1.3,1.3C811.3,803.5,811.9,803.1,812,802.7"/>
			<path class="st1" d="M1416.7,675.6c-0.1-0.3-1-3.8-1-4c-0.1-0.4-0.7-0.7-1.2-0.7c-0.7,0-1.3,0.6-1.3,1.3v16.3v6.2
				c0,0.5,0.4,0.9,0.8,1.1c4.2,1.3,12.8,6.7,19.2,17.8c1.8,3.1,4.7,7.2,4.7,15.6c0,7.1-1.1,14.7-2.9,21.6c-0.3,1.1-0.6,2.1,0.5,2.5
				s1.5-0.4,1.9-1.4c3.6-8.7,4.5-17.9,4.5-24v-1.9c-0.5-12.8-7.8-22.2-7.8-22.2c0.3,0-9.1-12.2-11.8-16.4
				C1418.6,681.6,1416.8,676,1416.7,675.6"/>
			<path class="st1" d="M842.5,476.9c-0.1-0.3-1-3.8-1-4c-0.1-0.4-0.7-0.7-1.2-0.7c-0.7,0-1.3,0.6-1.3,1.3v16.3v6.2
				c0,0.5,0.4,0.9,0.8,1.1c4.2,1.3,12.8,6.7,19.2,17.8c1.8,3.1,4.7,7.2,4.7,15.6c0,7.1-1.1,14.7-2.9,21.6c-0.3,1.1-0.6,2.1,0.5,2.5
				c1.1,0.4,1.5-0.4,1.9-1.4c3.6-8.7,4.5-17.9,4.5-24v-1.9c-0.5-12.8-7.8-22.2-7.8-22.2c0.3,0-9.1-12.2-11.8-16.4
				C844.4,483,842.6,477.3,842.5,476.9"/>
			<path class="st1" d="M1416.7,501.7c-0.1-0.3-1-3.8-1-4c-0.1-0.4-0.7-0.7-1.2-0.7c-0.7,0-1.3,0.6-1.3,1.3v16.3v6.2
				c0,0.5,0.4,0.9,0.8,1.1c4.2,1.3,12.8,6.7,19.2,17.8c1.8,3.1,4.7,7.2,4.7,15.6c0,7.1-1.1,14.7-2.9,21.6c-0.3,1.1-0.6,2.1,0.5,2.5
				s1.5-0.4,1.9-1.4c3.6-8.7,4.5-17.9,4.5-24V552c-0.5-12.8-7.8-22.2-7.8-22.2c0.3,0-9.1-12.2-11.8-16.4
				C1418.6,507.8,1416.8,502.1,1416.7,501.7"/>
			<path class="st1" d="M842.5,155.2c-0.1-0.3-1-3.8-1-4c-0.1-0.4-0.7-0.7-1.2-0.7c-0.7,0-1.3,0.6-1.3,1.3v16.3v6.2
				c0,0.5,0.4,0.9,0.8,1.1c4.2,1.3,12.8,6.7,19.2,17.8c1.8,3.1,4.7,7.2,4.7,15.6c0,7.1-1.1,14.7-2.9,21.6c-0.3,1.1-0.6,2.1,0.5,2.5
				c1.1,0.4,1.5-0.4,1.9-1.4c3.6-8.7,4.5-17.9,4.5-24v-1.9c-0.5-12.8-7.8-22.2-7.8-22.2c0.3,0-9.1-12.2-11.8-16.4
				C844.4,161.2,842.6,155.6,842.5,155.2"/>
			<path class="st1" d="M1416.7,155.2c-0.1-0.3-1-3.8-1-4c-0.1-0.4-0.7-0.7-1.2-0.7c-0.7,0-1.3,0.6-1.3,1.3v16.3v6.2
				c0,0.5,0.4,0.9,0.8,1.1c4.2,1.3,12.8,6.7,19.2,17.8c1.8,3.1,4.7,7.2,4.7,15.6c0,7.1-1.1,14.7-2.9,21.6c-0.3,1.1-0.6,2.1,0.5,2.5
				c1.1,0.4,1.5-0.4,1.9-1.4c3.6-8.7,4.5-17.9,4.5-24v-1.9c-0.5-12.8-7.8-22.2-7.8-22.2c0.3,0-9.1-12.2-11.8-16.4
				C1418.6,161.2,1416.8,155.6,1416.7,155.2"/>
			<path class="st1" d="M531.5,347.7c-0.5-0.2-0.5-0.4-1.3-1c-2.5-1.9-5.9-3.7-8.7-4.7c-0.2-3.2-0.2-4.8-0.3-10.6
				c2.8-0.2,5.2-0.6,7.4-1.1c0.8-0.1,0.9-0.2,1.4-0.2l-0.1-3.3c-1.7,0.7-4.9,1.3-8.8,1.7c0-3.4,0-3.5,0-3.9c0-1.4,0.1-2.4,0.1-4.1
				c2-0.2,3.5-0.4,5.3-0.8c2.2-0.4,2.2-0.4,2.9-0.5l-0.1-3.2c-4.1,1.2-10.3,1.9-16.8,1.9c-3.8,0-6.6-0.2-8.5-0.7l-0.2,3.3
				c1,0,1.2,0,3,0.1c1.9,0.2,4,0.2,6,0.2c1.9,0,3.2,0,5.1-0.1c-0.1,2.2-0.1,3.2-0.1,4.1c0,0.6,0,1.3,0.1,4c-2.4,0.1-4.4,0.1-6,0.1
				c-3.8,0-6.4-0.2-8.3-0.7l-0.1,3.3c0.2,0,0.3,0,0.4,0c0.3,0,0.6,0,1,0c3.6,0.2,4.8,0.2,7.1,0.2c2.2,0,3.3,0,6-0.1
				c0.1,5.6,0.2,8.8,0.3,9.5c-1.6-0.6-3.3-0.9-5.3-0.9c-5.7,0-9.7,2.9-9.7,7c0,4.2,3.6,6.9,9.2,6.9c4.2,0,7.5-1.5,8.5-3.9
				c0.5-1,0.7-2.1,0.7-3.6c0-0.7,0-0.9-0.1-1.4c0.2,0.1,0.2,0.1,0.8,0.4c0.1,0,0.1,0,1.1,0.6c3.1,1.8,5.3,3.5,6.5,4.8L531.5,347.7
				 M518.3,344.2c0,0.1,0.1,1.8,0.1,2.2c0,3.4-1.9,5-5.8,5c-3.7,0-5.9-1.5-5.9-4c0-2.5,2.5-4.1,6.6-4.1
				C514.9,343.3,516.1,343.5,518.3,344.2 M496.3,354.6c0-0.2,0-0.5,0-0.6c0-2.7,2.1-9.6,4.5-14.8l-2.4-1.2c-1.3,3.1-2.5,6.3-2.9,7.9
				c-0.3,1.2-0.3,1.2-0.5,1.9l-0.2,0c0-1.9,0-2.3,0-2.8c0-1.2,0-1.2,0-2.5c0-1.2-0.1-2.4-0.1-3.6c0-5.3,0.6-11.3,1.8-16.7
				c0.8-3.7,1.4-6.3,2-7.7l-3.9-0.6c-0.1,0.8-0.1,1.2-0.5,2.7c-1.9,9.5-2.6,15.2-2.6,22c0,4.1,0.3,8.8,0.8,12.4
				c0.5,2.9,0.5,2.9,0.5,3.8L496.3,354.6"/>
			<path class="st1" d="M501.9,368c0.3,0.8,0.4,1,0.8,3.2c1.3,6.4,2.2,9.9,3.7,14c-3.1,1.5-4.7,2.5-6.5,4c-3,2.4-4.5,5.3-4.5,8.5
				c0,4,2.1,6.7,6.2,8.2c2.4,0.9,6.1,1.3,11.1,1.3c3.5,0,5.9-0.1,11-0.6c2.8-0.3,2.8-0.3,3.7-0.3l-0.4-4.1c-2.9,1-8.5,1.7-14.3,1.7
				c-9.8,0-13.6-1.8-13.6-6.3c0-4.1,3.7-7.4,12.2-10.8c4.4-1.8,11.5-4.1,15-4.8l-1.5-3.8c-1,0.5-1.5,0.7-3.2,1.3
				c-7.8,2.7-9.2,3.2-12.1,4.4c-1.7-5-3.6-13.2-3.8-16.5L501.9,368"/>
			<path class="st1" d="M633.6,325.5c0.5-0.1,0.8-0.1,0.9-0.1c0,0,0.1,0,0.2,0c2,0.1,2.4,0.1,4.2,0.1c1.8,0,2.5,0,3.5,0
				c-1.9,9.8-5.7,21.2-9.4,27.6l3.7,1.5c2.6-6.1,4.1-9.9,5.8-15.2c1.3-4.5,2.8-10.2,3.5-14.1c2.5-0.2,5.9-0.7,8.5-1.2
				c1-0.2,1-0.2,1.4-0.2l-0.2-3.5c-2.4,0.8-5.1,1.3-9,1.7c0.2-1.5,0.4-2.2,0.7-3.8c0.6-3.5,0.6-3.5,0.9-4.8l-3.9-0.4
				c0,2.2-0.1,3-1.1,9.2c-1.5,0.1-2,0.1-3,0.1c-2.6,0-4.6-0.1-6.2-0.4V325.5 M671.3,327.9c-3.8-0.1-4.5-0.1-5.5-0.1
				c-4.2,0-7.4,0.4-13.2,1.6l0.4,3.4c4.5-1.2,8-1.7,12.5-1.7c2.1,0,3.5,0.1,5.9,0.4L671.3,327.9 M653.1,338.7
				c-2.6,3.4-3.3,4.9-3.3,7.2c0,5,4.2,7.5,12.5,7.5c2.6,0,5.5-0.2,8.9-0.8c1.7-0.2,1.7-0.2,2.2-0.3l-0.3-3.8c-2.9,1-7.3,1.7-11,1.7
				c-5.7,0-8.8-1.6-8.8-4.6c0-1.2,0.4-2.5,1.2-3.5c0.3-0.5,0.5-0.7,1.5-1.9L653.1,338.7"/>
			<path class="st1" d="M671.4,403.3c-0.7-0.4-0.9-0.5-1.7-1.1c-5.2-3.8-9.6-6.1-14-7.3c-0.2-4.8-0.2-4.8-0.3-7.6
				c3.7-0.2,7.7-0.7,11.1-1.2c1.8-0.2,2.2-0.3,2.9-0.3l-0.2-3.5c-2.8,1-7,1.5-13.8,2c0-2.7,0-2.7-0.1-6.8c5.5-0.3,6.9-0.5,11.6-1.2
				c2.6-0.3,2.6-0.3,3.5-0.4l-0.2-3.4c-2.8,0.9-7.9,1.6-14.8,2c0-3.6,0.1-6,0.3-7h-3.8c0.2,1.1,0.2,1.1,0.2,7.2c-1.7,0-3.4,0-4.4,0
				c-5.5,0-10.6-0.4-12.8-1l0,3.4c0.3-0.1,0.5-0.1,0.7-0.1c0.2,0,0.5,0,0.9,0.1c4.5,0.3,8.5,0.5,12.2,0.5c1.2,0,2,0,3.4-0.1l0.1,6.9
				c-1.4,0-3.2,0-4.5,0c-5,0-9.2-0.3-11.5-0.8l0,3.3c0.2,0,0.4,0,0.4,0c0.3,0,0.7,0,1.2,0c3.1,0.2,5.5,0.4,8.5,0.4
				c1.6,0,4.1-0.1,5.9-0.1c0,1.3,0,2.2,0.1,2.9c0,1.5,0,2.5,0.1,3c0,0.3,0,0.5,0,0.5c0,0.5,0,0.5,0,0.6c-2.1-0.3-2.8-0.4-4.5-0.4
				c-2.2,0-3.7,0.1-5.2,0.5c-4.4,1-7,3.6-7,6.9c0,2,1,4,2.7,5.2c1.7,1.3,4.5,2,7.8,2c4,0,7-1.1,8.5-3.1c0.9-1.2,1.2-2.8,1.2-5.5
				c0-0.7,0-0.7-0.1-1.8c1.3,0.5,2.5,1,3.3,1.5c4.2,2.2,7.9,4.8,10.2,7.1L671.4,403.3 M652.5,399.2c0,2.4-0.3,3.8-1,4.5
				c-1,1.1-2.9,1.7-5.5,1.7c-4.4,0-6.9-1.5-6.9-4.2s3.2-4.5,8.2-4.5c2.2,0,3.2,0.1,5.1,0.5L652.5,399.2"/>
			<path class="st1" d="M813.2,319.9c1.1-0.1,1.6-0.2,2.7-0.2c7.6-0.2,13.6-0.6,15.2-0.9c0.3-0.1,0.3-0.1,0.4-0.1l0.1,0.1l-0.2,0.2
				c-0.1,0.1-0.2,0.2-0.2,0.2c-0.4,0.4-0.4,0.4-0.7,0.7c-3.4,3.4-11.3,10.4-16.7,14.6c-3.4,2.8-5.2,4-7,5.1l2.2,3.2
				c5.8-5.4,13.7-8.5,21-8.5c6.8,0,10.8,2.8,10.8,7.6c0,4.2-2.8,7.3-8,8.8c-0.7-2.2-1.2-3.4-2.3-4.8c-2-2.7-4.9-4.1-8.2-4.1
				c-4.2,0-7.2,2.5-7.2,5.8c0,4.6,4,7.2,11.1,7.2c11.1,0,18.3-5.2,18.3-13c0-6.4-5.3-10.5-13.7-10.5c-4.4,0-8.5,1-12.2,3.1l-0.1-0.1
				c3.5-2.2,9.5-7.5,16.4-14.2c1.6-1.5,1.8-1.8,2.6-2.1l-2.1-2.8c-0.6,0.3-1.1,0.4-2.4,0.5c-4.5,0.3-11.2,0.6-15.3,0.6
				c-2.4,0-3.3,0-4.7-0.3L813.2,319.9 M829.6,351.5c-1.8,0.3-2.4,0.3-3.7,0.3c-2.2,0-4.3-0.5-5.6-1.1c-1.3-0.8-2-1.8-2-3.1
				c0-1.9,1.5-3.1,4-3.1C826,344.6,828.5,347,829.6,351.5"/>
			<path class="st1" d="M813.2,373.8c1.1-0.1,1.6-0.2,2.7-0.2c7.6-0.2,13.6-0.6,15.2-0.9c0.3-0.1,0.3-0.1,0.4-0.1l0.1,0.1l-0.2,0.2
				c-0.1,0.1-0.2,0.2-0.2,0.2c-0.4,0.4-0.4,0.4-0.7,0.7c-3.4,3.4-11.3,10.4-16.7,14.6c-3.4,2.8-5.2,4-7,5.1l2.2,3.2
				c5.8-5.4,13.7-8.5,21-8.5c6.8,0,10.8,2.8,10.8,7.6c0,4.2-2.8,7.3-8,8.8c-0.7-2.2-1.2-3.4-2.3-4.8c-2-2.7-4.9-4.1-8.2-4.1
				c-4.2,0-7.2,2.5-7.2,5.8c0,4.6,4,7.2,11.1,7.2c11.1,0,18.3-5.2,18.3-13c0-6.4-5.3-10.5-13.7-10.5c-4.4,0-8.5,1-12.2,3.1l-0.1-0.1
				c3.5-2.2,9.5-7.5,16.4-14.2c1.6-1.5,1.8-1.8,2.6-2.1l-2.1-2.8c-0.6,0.3-1.1,0.4-2.4,0.5c-4.5,0.3-11.2,0.6-15.3,0.6
				c-2.4,0-3.3,0-4.7-0.3L813.2,373.8 M829.6,405.4c-1.8,0.3-2.4,0.3-3.7,0.3c-2.2,0-4.3-0.5-5.6-1.1c-1.3-0.8-2-1.8-2-3.1
				c0-1.9,1.5-3.1,4-3.1C826,398.5,828.5,400.9,829.6,405.4"/>
			<path class="st1" d="M916.8,320.2c2.5,0.1,3.9,0.4,5.8,1.2c5,2.2,7.9,6.8,7.9,12.5c0,6.1-3.3,11.5-8.8,14
				c-2.3,1.1-4.7,1.8-8.3,2.3c0.9,1.2,1.2,1.7,1.8,3.4c3.4-0.8,5.3-1.4,7.6-2.3c7.2-3.1,11.4-9.5,11.4-17.2c0-4.8-1.7-9.1-4.8-12.2
				c-3.2-3.2-8.2-5-13.8-5c-6.7,0-12.2,2.2-16.2,6.6c-3.3,3.8-5.2,8.7-5.2,13.8c0,7,3.6,12.2,8.3,12.2c3.6,0,6.5-3,9.4-9.6
				C914.1,334.8,916,327.2,916.8,320.2 M913.2,320.3c-0.7,6.4-2.5,13.8-4.6,18.5c-2.2,4.9-4.2,7.2-6.2,7.2c-2.7,0-4.8-3.7-4.8-8.5
				c0-6.2,3.1-11.9,8.1-14.9C908,321.2,910.2,320.5,913.2,320.3"/>
			<path class="st1" d="M896.1,390.5c0.6,0,0.8,0,1.6,0.3c2.2,0.6,4.5,1,7.5,1.2c0,0.5,0,0.5-0.1,1.2c-0.2,1.2-0.2,2.2-0.2,3.3
				c0,2.9,0.5,5.2,1.5,6.9c2,3.2,6,5,11.2,5c8.8,0,14.6-4.8,14.6-11.8c0-3.7-1.1-6.1-4.7-10c-1.4,0.7-2,0.8-3.7,1
				c3.2,2.8,4.8,5.5,4.8,8.7c0,5.3-4.3,8.8-11,8.8c-3.1,0-5.5-0.8-7.1-2.2c-1.6-1.3-2.3-3.2-2.3-6c0-0.8,0.1-2.5,0.2-3.7
				c0-0.6,0-0.6,0-1c2.2,0.1,3.1,0.1,4.3,0.1c2.3,0,4.5-0.1,7.1-0.4c0.7,0,0.8,0,1.3-0.1l0.1-3.4c-1.9,0.5-5.6,0.8-9.2,0.8
				c-0.7,0-1.4,0-3.3-0.1c0.3-2.8,0.3-3.3,1.2-9c2.8,0.1,3.6,0.1,4.4,0.1c1.4,0,2.9-0.1,4.5-0.2c2.5-0.2,2.5-0.2,3.5-0.3l0.1-3.5
				c-2.2,0.5-5.4,0.8-9.1,0.8c-0.8,0-1.5,0-2.9,0c0.2-1.4,0.3-1.9,0.5-3c0.4-2.8,0.4-2.8,0.5-3.2c0.3-1.8,0.5-2.4,0.8-3.3l-4-0.5
				c0,0.2,0,0.3,0,0.4c0,1.3-0.4,4.6-1.2,9.4c-3.5-0.3-6.8-1-9-2l-0.4,3.3c0.7,0.1,0.9,0.2,1.5,0.3c3,0.7,5.1,1,7.5,1.3
				c-0.4,2.7-0.9,6.6-1.2,9c-3.8-0.4-7-1.1-9-2L896.1,390.5"/>
			<path class="st1" d="M1035.2,321c0.5,0,0.5,0,1.4-0.2c7.2-0.5,7.7-0.6,11.2-1.5c-2.8,2.4-2.8,2.4-4.5,4.5
				c-4.3,5.3-6.7,11.1-6.7,16.7c0,8.2,5.5,13.9,13.3,13.9c5.9,0,11.2-3.4,13.4-8.7c1.3-3,1.9-6.5,1.9-10.2c0-3.9-0.4-6.6-2-11.3
				c0.4,0.7,0.4,0.7,1,1.8c0.5,1,0.9,1.6,1.7,2.9c1.8,2.8,3.7,4.9,6.4,7.3c1.1,1,1.1,1,2,1.8l1.9-3.5c-0.8-0.3-1.1-0.5-1.8-1.2
				c-3.1-2.4-5.1-4.6-7.2-7.8c-2-2.9-3.9-6.6-4.7-9.1l-3.6,1.2c1.8,3.8,3.1,10.4,3.1,16.1c0,4.3-0.6,7.5-1.8,10.5
				c-1.8,4.1-5.9,6.8-10.3,6.8c-5.7,0-9.8-4.3-9.8-10.3c0-5.1,2.3-10.5,6.8-16c2.1-2.5,3.2-3.5,5.8-5.4l-2.1-3.1
				c-1.8,0.9-7.7,1.6-13.2,1.6c-1,0-1.5,0-2.3-0.2L1035.2,321"/>
			<path class="st1" d="M1038,371.2c0,1-0.1,1.2-0.4,3.4c-0.9,4.9-1.4,10.4-1.4,15.3c0,2.5,0.1,5.1,0.3,8.5c0.1,0.8,0.1,1,0.1,1.7
				l3.6-0.3c-0.2-1-0.2-1.5-0.2-2.3c0-3.8,1.6-8,4.6-11.8c3.3-4.3,7.7-7,12.8-7.9c0,3.1,0.1,4.4,0.1,6c0,6.4-0.7,11.2-2.1,14
				c-3.8-1.4-6.2-3.8-8.3-8.5c-0.7,1.4-1,1.9-1.9,2.8c1.9,3.9,4.2,6.2,7.8,8c0.5,0.3,0.8,0.4,1.2,0.5c-0.1,0.2-0.2,0.2-0.3,0.4
				c-2,2.8-5,5.1-8.3,6.6c1.4,1.1,1.8,1.5,2.7,2.5c4.5-2.6,6.8-4.8,9.3-8.5c1,0.2,1.5,0.2,2.3,0.2c8.8,0,15.6-6,15.6-14
				c0-8-5.9-13.3-14.7-13.5c0-1.5-0.2-4.8-0.3-5.5c-0.1-0.3-0.1-0.6-0.1-0.8c0-0.1,0-0.3,0.1-0.8l-3.8,0.1c0.3,1.5,0.5,3.1,0.7,7.2
				c-5.2,0.8-9,2.8-12.9,6.9c-2.2,2.3-3.9,5.1-4.7,7.8c-0.2,0.8-0.2,0.8-0.4,1.3h-0.2c0.1-0.5,0.1-0.8,0.2-1.3c0.1-1,0.1-1,0.2-1.5
				c0.7-7.2,0.8-8,1.3-11.1c0.6-2.9,0.8-3.8,1.2-4.9L1038,371.2 M1060.6,377.4c2.6,0.1,4.1,0.5,5.9,1.3c3.3,1.6,5.2,4.8,5.2,8.7
				c0,4.5-2.4,8.1-6.7,10c-1.7,0.8-3.3,1.1-5.2,1.1c-0.2,0-0.7,0-0.9,0c-0.2,0-0.2,0-0.4,0c1.5-2.5,2.2-8.1,2.2-15.5
				C1060.8,380.9,1060.7,379.7,1060.6,377.4"/>
			<path class="st1" d="M1221.6,329.3c1.3-0.3,1.8-0.5,2.9-0.7c0.5-0.1,2.9-0.5,7.2-1.1c-1.7,6.5-3.2,10.8-5.5,15.8
				c-1.8,3.8-3.7,7.1-5.2,9l3.4,2c1.5-2.8,2.6-4.8,3.2-6c3.4-6.9,5.7-13.3,7.5-21.2c1.8-0.2,2.5-0.2,3.6-0.2c4.7,0,6.2,1.7,6.2,7
				c0,5.6-0.8,10.7-2.1,13.9c-0.7,1.6-1.6,2.4-2.8,2.4c-1.8,0-4.6-0.9-7.5-2.3c0.2,0.9,0.2,1.2,0.2,2c0,0.6,0,1-0.1,1.8
				c3.3,1.4,5.4,1.9,7.6,1.9c2.3,0,3.7-0.6,4.9-2.3c2.1-2.9,3.4-9.5,3.4-17.2c0-4.1-0.7-6.4-2.5-8c-1.5-1.5-3.7-2.1-7.2-2.1
				c-1.2,0-1.8,0-3,0.1c0.5-2.4,0.8-4.2,1.1-5.7c0.4-2.8,0.6-3.7,0.9-4.8l-4-0.5c0,0.3,0,0.6,0,0.7c0,2.1-0.6,6.9-1.5,10.6
				c-4,0.7-9.2,1.2-11,1.3L1221.6,329.3 M1251.1,322.7c4.8,4.9,8.3,11,10.2,17.9l3.2-1.8c-2.3-7-5.3-12.2-10.4-17.7L1251.1,322.7"/>
			<path class="st1" d="M1241.3,367c-1.8,2.8-8,8.6-14.7,13.7c-3.7,2.8-3.7,2.8-4.2,3.4c-0.9,1-1.4,2.2-1.4,3.4c0,1.7,0.8,2.8,3.6,5
				c7.3,5.7,9.3,7.3,12.7,10.5c3.3,3,5.2,5.1,6.4,6.8l3.2-3.1c-0.6-0.5-0.7-0.5-1.4-1.2c-7.3-7-8.8-8.1-16-13.7
				c-4-3.2-4.4-3.5-4.4-4.4c0-0.7,0.3-1.1,2.2-2.5c6.3-4.8,9-7.1,11.5-9.4c5.2-5,5.6-5.4,6.2-5.8L1241.3,367"/>
			<path class="st1" d="M1471.4,312.9c0,0.6-0.1,0.9-0.2,1.6c-1.2,8.8-1.7,13.5-1.7,18.4c0,0.2,0,0.7,0,1.2l0.1,5.2l0,0.9
				c0,0.1,0,0.3,0,0.6l3.6-0.2c0-0.8,0-1,0-1.2c0-3.6,0.9-7.5,2.7-11.1c2.8-5.9,6.1-8.7,9.8-8.7c4.8,0,7.6,4.6,7.6,12.7
				c0,8-2.8,13.2-8.6,16.6c-2.9,1.7-5.5,2.5-10.1,3.2c1.1,1.3,1.4,1.9,2,3.4c3.5-0.8,6.5-1.8,8.9-3c7.5-3.8,11.6-10.6,11.6-19.6
				c0-5.4-0.9-9-3-12.2c-1.9-2.9-4.8-4.5-8-4.5c-3.9,0-7.2,2.2-10,6.5c-1.4,2.2-2.4,4.7-3.1,7.5c-0.2,1-0.2,1-0.3,1.5l-0.2,0
				c0.2-2.6,0.8-8,1.7-13.1c0.4-2.7,0.8-4.1,1.1-5.1L1471.4,312.9"/>
			<path class="st1" d="M1465.2,390.5c0.6,0,0.8,0,1.6,0.3c2.2,0.6,4.5,1,7.5,1.2c0,0.5,0,0.5-0.1,1.2c-0.2,1.2-0.2,2.2-0.2,3.3
				c0,2.9,0.5,5.2,1.5,6.9c2,3.2,6,5,11.2,5c8.8,0,14.6-4.8,14.6-11.8c0-3.7-1.1-6.1-4.7-10c-1.4,0.7-2,0.8-3.7,1
				c3.2,2.8,4.8,5.5,4.8,8.7c0,5.3-4.3,8.8-11,8.8c-3.1,0-5.5-0.8-7.1-2.2c-1.6-1.3-2.3-3.2-2.3-6c0-0.8,0.1-2.5,0.2-3.7
				c0-0.6,0-0.6,0-1c2.2,0.1,3.1,0.1,4.3,0.1c2.3,0,4.5-0.1,7.1-0.4c0.7,0,0.8,0,1.3-0.1l0.1-3.4c-1.9,0.5-5.6,0.8-9.2,0.8
				c-0.7,0-1.4,0-3.3-0.1c0.3-2.8,0.3-3.3,1.2-9c2.8,0.1,3.6,0.1,4.4,0.1c1.4,0,2.9-0.1,4.5-0.2c2.5-0.2,2.5-0.2,3.5-0.3l0.1-3.5
				c-2.2,0.5-5.4,0.8-9.1,0.8c-0.8,0-1.5,0-2.9,0c0.2-1.4,0.3-1.9,0.5-3c0.4-2.8,0.4-2.8,0.5-3.2c0.3-1.8,0.5-2.4,0.8-3.3l-4-0.5
				c0,0.2,0,0.3,0,0.4c0,1.3-0.4,4.6-1.2,9.4c-3.5-0.3-6.8-1-9-2l-0.4,3.3c0.7,0.1,0.9,0.2,1.5,0.3c3,0.7,5.1,1,7.5,1.3
				c-0.4,2.7-0.9,6.6-1.2,9c-3.8-0.4-7-1.1-9-2L1465.2,390.5"/>
			<path class="st1" d="M1635,349.4c-0.7-0.4-0.9-0.5-1.7-1.1c-5.2-3.8-9.6-6.1-14-7.3c-0.2-4.8-0.2-4.8-0.3-7.6
				c3.7-0.2,7.6-0.7,11.1-1.2c1.8-0.2,2.2-0.3,2.9-0.3l-0.2-3.5c-2.8,1-7,1.5-13.8,2c-0.1-2.7-0.1-2.7-0.1-6.8
				c5.5-0.3,6.9-0.5,11.6-1.2c2.6-0.3,2.6-0.3,3.4-0.4l-0.2-3.4c-2.8,0.9-7.9,1.6-14.8,2c0-3.6,0.2-6,0.3-7h-3.8
				c0.2,1.1,0.2,1.1,0.2,7.2c-1.7,0-3.3,0-4.3,0c-5.5,0-10.7-0.4-12.8-1l-0.1,3.4c0.3-0.1,0.6-0.1,0.7-0.1c0.2,0,0.5,0,0.9,0.1
				c4.5,0.3,8.5,0.5,12.2,0.5c1.2,0,1.9,0,3.4-0.1l0.1,6.9c-1.4,0-3.2,0-4.4,0c-5.1,0-9.2-0.3-11.5-0.8l0,3.3c0.1,0,0.3,0,0.4,0
				c0.3,0,0.7,0,1.2,0c3.1,0.2,5.5,0.4,8.5,0.4c1.6,0,4.1-0.1,5.9-0.1c0,1.3,0,2.2,0.1,2.9c0,1.5,0,2.5,0.1,3c0,0.3,0.1,0.5,0.1,0.5
				c0,0.5,0,0.5,0,0.6c-2.2-0.3-2.8-0.4-4.5-0.4c-2.2,0-3.7,0.1-5.2,0.5c-4.4,1-7,3.6-7,6.9c0,2,1,4,2.7,5.2c1.7,1.3,4.5,2,7.8,2
				c4,0,7-1.1,8.5-3.1c0.9-1.2,1.2-2.8,1.2-5.5c0-0.7,0-0.7-0.1-1.8c1.4,0.5,2.5,1,3.4,1.5c4.2,2.2,7.9,4.8,10.2,7.1L1635,349.4
				 M1616.2,345.3c0,2.4-0.3,3.8-1,4.5c-1,1.1-2.8,1.7-5.5,1.7c-4.3,0-6.8-1.5-6.8-4.2s3.2-4.5,8.2-4.5c2.2,0,3.2,0.1,5.1,0.5
				L1616.2,345.3"/>
			<path class="st1" d="M1595.6,383.2c1.3-0.3,1.8-0.5,2.9-0.7c0.4-0.1,2.8-0.5,7.2-1.1c-1.7,6.5-3.2,10.8-5.5,15.8
				c-1.8,3.8-3.7,7.1-5.2,9l3.4,2c1.6-2.8,2.6-4.8,3.2-6c3.4-6.9,5.7-13.3,7.6-21.2c1.8-0.2,2.5-0.2,3.6-0.2c4.7,0,6.2,1.7,6.2,7
				c0,5.6-0.8,10.7-2.1,13.9c-0.7,1.6-1.6,2.4-2.9,2.4c-1.8,0-4.6-0.9-7.4-2.3c0.2,0.9,0.2,1.2,0.2,2c0,0.6,0,1-0.1,1.8
				c3.3,1.4,5.4,1.9,7.5,1.9c2.3,0,3.7-0.6,4.9-2.3c2.1-2.9,3.3-9.5,3.3-17.2c0-4.1-0.7-6.4-2.4-8c-1.6-1.5-3.7-2.1-7.2-2.1
				c-1.1,0-1.8,0-2.9,0.1c0.4-2.4,0.8-4.2,1.1-5.7c0.4-2.8,0.6-3.7,0.9-4.8l-4-0.5c0,0.3,0,0.6,0,0.7c0,2.1-0.7,6.9-1.5,10.6
				c-4.1,0.7-9.2,1.2-11.1,1.3L1595.6,383.2 M1625.1,376.6c4.8,4.9,8.3,11,10.2,17.9l3.2-1.8c-2.3-7-5.3-12.2-10.4-17.7
				L1625.1,376.6"/>
			<path class="st1" d="M1783.1,314.4c0.3,0.8,0.3,1.1,0.8,3.2c1.3,6.5,2.3,10.3,3.7,14c-3.1,1.5-4.7,2.5-6.6,4.1
				c-2.9,2.4-4.4,5.3-4.4,8.5c0,4,2.1,6.7,6.2,8.2c2.4,0.9,6.2,1.4,11.1,1.4c3.5,0,5.9-0.2,11-0.7l1.7-0.2l0.5,0c0.5,0,0.8,0,1.5,0
				l-0.4-4.2c-3,1-8.6,1.7-14.3,1.7c-9.8,0-13.7-1.8-13.7-6.3c0-4.2,3.7-7.5,12.2-10.9c4.4-1.8,11.6-4,15.1-4.8l-1.5-3.8
				c-0.9,0.5-1.4,0.7-3.2,1.3c-7.7,2.7-9.4,3.3-12.1,4.5c-1.3-3.6-3.8-14.2-3.8-16.5L1783.1,314.4 M1801.4,314.3
				c1.5,1.5,3.8,5.3,5.1,8l2.6-1.5c-1.6-3-2.9-5.1-5.2-7.8L1801.4,314.3 M1807.1,311.6c1.9,2.3,4,5.5,5.1,7.8l2.5-1.4
				c-1.7-3.2-2.9-5-5.2-7.8L1807.1,311.6"/>
			<path class="st1" d="M1774.6,378.3c0.8-0.1,1.1-0.1,3.1-0.1c5.6-0.1,9.9-0.4,13.5-0.9c1.2,2.6,1.6,3.4,2.8,5.7
				c-4.1,0.8-10.5,1.2-15.8,1.2c-2,0-2.9,0-4-0.2l0.1,3.4c0.9-0.1,1-0.1,3.5-0.2c8.6-0.2,12.8-0.6,17.5-1.5c1.6,2.8,3.9,6.2,5.3,7.7
				c-3.3-1.1-5.9-1.5-10.1-1.5c-4.8,0-8.6,0.8-11.3,2.3c-2.6,1.5-4,3.8-4,6.2c0,2.7,1.4,5,3.8,6.3c2.5,1.4,5.7,2.1,10.3,2.1
				c4.4,0,8.7-0.6,12.8-1.8c1.1-0.4,1.7-0.6,1.9-0.6c0.4-0.1,0.6-0.1,1.1-0.2l-0.7-4c-3,1.9-9.6,3.4-14.8,3.4
				c-6.9,0-10.7-1.8-10.7-5.2c0-3.4,4.7-5.7,11.8-5.7c2.3,0,4.8,0.2,6.6,0.5c2.5,0.4,3.6,0.8,5.5,1.9l3-2.1c-3.6-4.1-4.7-5.5-7.3-10
				c1.5-0.3,4-0.8,7.8-1.8c1.6-0.5,1.8-0.5,2.7-0.7l-0.4-3.4c-1.5,0.8-5.5,1.9-11.4,3.1c-0.6-1-2.2-4.4-2.8-5.7
				c1.8-0.2,4.9-0.8,9.5-1.9l-0.4-3.1c-1.9,0.8-5.6,1.6-10.2,2.3c-1.2-2.5-2.4-5.8-2.7-7.1l-3.8,0.6c0.5,0.8,0.5,0.8,3,6.8
				c-4.6,0.5-7.6,0.8-11.8,0.8c-1.7,0-2.5,0-3.8-0.1L1774.6,378.3 M1803.7,367.9c1.5,1.5,3.9,5.3,5.1,7.9l2.6-1.5
				c-1.5-2.9-2.9-5-5.2-7.8L1803.7,367.9 M1809.4,365.2c2,2.2,4,5.5,5.1,7.8l2.5-1.4c-1.6-3.2-2.9-5-5.1-7.8L1809.4,365.2"/>
			<path class="st1" d="M1921.6,320.2c2.5,0.1,3.9,0.4,5.8,1.2c5,2.2,7.9,6.8,7.9,12.5c0,6.1-3.4,11.5-8.9,14
				c-2.3,1.1-4.7,1.8-8.3,2.3c0.9,1.2,1.2,1.7,1.8,3.4c3.4-0.8,5.3-1.4,7.6-2.3c7.2-3.1,11.4-9.5,11.4-17.2c0-4.8-1.7-9.1-4.8-12.2
				c-3.2-3.2-8.2-5-13.8-5c-6.7,0-12.2,2.2-16.2,6.6c-3.3,3.8-5.2,8.7-5.2,13.8c0,7,3.6,12.2,8.3,12.2c3.6,0,6.6-3,9.4-9.6
				C1919,334.8,1920.9,327.2,1921.6,320.2 M1918,320.3c-0.6,6.4-2.5,13.8-4.6,18.5c-2.1,4.9-4.1,7.2-6.2,7.2c-2.7,0-4.8-3.7-4.8-8.5
				c0-6.2,3.1-11.9,8.1-14.9C1912.9,321.2,1915,320.5,1918,320.3"/>
			<path class="st1" d="M1907.1,366.8c0,0.6-0.1,0.9-0.1,1.6c-1.2,8.8-1.7,13.5-1.7,18.4c0,0.2,0,0.7,0,1.2l0.1,5.2l0.1,0.9
				c0,0.1,0,0.3,0,0.6l3.6-0.2c0-0.8,0-1,0-1.2c0-3.6,0.9-7.5,2.7-11.1c2.8-5.9,6.1-8.7,9.8-8.7c4.8,0,7.6,4.6,7.6,12.7
				c0,8-2.8,13.2-8.6,16.6c-2.9,1.7-5.5,2.5-10.1,3.2c1.1,1.3,1.4,1.9,2,3.4c3.5-0.8,6.5-1.8,8.9-3c7.5-3.8,11.6-10.6,11.6-19.6
				c0-5.4-0.9-9-3-12.2c-1.9-2.9-4.8-4.5-8-4.5c-3.9,0-7.2,2.2-10,6.5c-1.4,2.2-2.4,4.7-3.1,7.5c-0.2,1-0.2,1-0.3,1.5l-0.2,0
				c0.1-2.6,0.8-8,1.6-13.1c0.4-2.7,0.8-4.1,1.1-5.1L1907.1,366.8"/>
			<path class="st1" d="M2028,317.3c0,1-0.1,1.2-0.4,3.4c-0.9,4.9-1.4,10.4-1.4,15.3c0,2.5,0.1,5.1,0.4,8.5c0.1,0.8,0.1,1,0.1,1.7
				l3.5-0.3c-0.2-1-0.2-1.5-0.2-2.3c0-3.8,1.6-8,4.6-11.8c3.4-4.3,7.6-7,12.8-7.9c0.1,3.1,0.1,4.4,0.1,6c0,6.4-0.7,11.2-2,14
				c-3.9-1.4-6.2-3.8-8.4-8.5c-0.7,1.4-1.1,1.9-1.9,2.8c1.9,3.9,4.2,6.2,7.8,8c0.6,0.3,0.8,0.4,1.1,0.5c-0.1,0.2-0.1,0.2-0.3,0.4
				c-2,2.8-5,5.1-8.3,6.6c1.4,1.1,1.8,1.5,2.7,2.5c4.4-2.6,6.8-4.8,9.3-8.5c1.1,0.2,1.6,0.2,2.3,0.2c8.9,0,15.6-6,15.6-14
				c0-8-5.8-13.3-14.7-13.5c-0.1-1.5-0.2-4.8-0.3-5.5c-0.1-0.3-0.1-0.6-0.1-0.8c0-0.1,0-0.3,0.1-0.8l-3.8,0.1
				c0.4,1.5,0.5,3.1,0.7,7.2c-5.2,0.8-9,2.8-12.9,6.9c-2.2,2.3-3.9,5.1-4.6,7.8c-0.2,0.8-0.2,0.8-0.4,1.3h-0.2
				c0.1-0.5,0.1-0.8,0.1-1.3c0.1-1,0.1-1,0.2-1.5c0.6-7.2,0.8-8,1.3-11.1c0.6-2.9,0.8-3.8,1.2-4.9L2028,317.3 M2050.6,323.5
				c2.6,0.1,4.1,0.5,5.9,1.3c3.3,1.6,5.2,4.8,5.2,8.7c0,4.5-2.4,8.1-6.7,10c-1.7,0.8-3.3,1.1-5.2,1.1c-0.2,0-0.7,0-0.9,0
				c-0.2,0-0.2,0-0.4,0c1.4-2.5,2.2-8.1,2.2-15.5C2050.8,327,2050.7,325.8,2050.6,323.5"/>
			<path class="st1" d="M2032.7,368c0.3,0.8,0.4,1,0.9,3.2c1.3,6.4,2.2,9.9,3.6,14c-3.1,1.5-4.6,2.5-6.5,4c-3,2.4-4.5,5.3-4.5,8.5
				c0,4,2.1,6.7,6.2,8.2c2.4,0.9,6.1,1.3,11.1,1.3c3.5,0,5.9-0.1,11.1-0.6c2.8-0.3,2.8-0.3,3.7-0.3l-0.4-4.1
				c-2.9,1-8.6,1.7-14.3,1.7c-9.8,0-13.6-1.8-13.6-6.3c0-4.1,3.7-7.4,12.2-10.8c4.4-1.8,11.5-4.1,15-4.8l-1.5-3.8
				c-1,0.5-1.4,0.7-3.2,1.3c-7.8,2.7-9.2,3.2-12.1,4.4c-1.7-5-3.6-13.2-3.8-16.5L2032.7,368"/>
			<path class="st1" d="M2315.2,324.3c0.9-0.1,1-0.1,3.1-0.2c5.6-0.1,9.6-0.3,13.5-0.9c1.2,2.7,1.6,3.2,2.9,5.7
				c-4.1,0.8-10.6,1.2-15.8,1.2c-2,0-2.9,0-4-0.1l0.1,3.3c0.9-0.1,1.1-0.1,3.5-0.2c9.4-0.3,12.6-0.5,17.6-1.5
				c1.8,3.1,3.8,6.1,5.4,7.7c-3.3-1-6-1.5-10.1-1.5c-9.5,0-15.2,3.2-15.2,8.7c0,2.6,1.4,4.8,3.8,6.2c2.6,1.5,5.7,2.1,10.3,2.1
				c4.4,0,8.7-0.6,12.8-1.8c2.3-0.7,2.3-0.7,3-0.9l-0.7-3.9c-3,1.8-9.6,3.3-14.8,3.3c-6.9,0-10.7-1.8-10.7-5.1
				c0-3.5,4.7-5.7,11.9-5.7c2.2,0,4.8,0.2,6.6,0.5c2.4,0.4,3.6,0.8,5.5,1.9l2.9-2.1c-3.9-4.5-4.4-5.2-7.4-10
				c1.9-0.3,4.4-0.9,7.9-1.8c1.6-0.5,1.8-0.5,2.7-0.7l-0.4-3.3c-2.1,1-4.9,1.8-11.5,3.1c-0.8-1.3-2.1-4-2.8-5.6
				c2.8-0.5,8.1-1.6,12.6-2.8l-0.3-3.2c-2.8,1.2-7.5,2.3-13.4,3.3c-1.2-2.7-2.2-5.2-2.6-7l-3.8,0.6c0.4,0.7,1.4,3,3,6.9
				c-4.6,0.5-7.7,0.7-11.9,0.7c-1.7,0-2.6,0-3.8-0.1L2315.2,324.3"/>
			<path class="st1" d="M2313,378.2c2.5-0.5,6.9-1,17.2-1.7c5.6-0.3,8.1-0.6,11-1.1c-1.9,0.9-3.2,1.6-4.8,2.7
				c-5.9,4-9.3,9.5-9.3,15.3c0,4.1,2,7.8,5.6,10.2c2.8,2,5.8,3,10.8,3.8c0.8,0.2,1,0.2,1.6,0.3l0.7-4c-0.2,0-0.4,0-0.5,0
				c-1.9,0-5.1-0.7-7.5-1.6c-4.5-1.7-7-5-7-9.2c0-4.2,2.1-8.2,6.1-11.5c2.8-2.4,6.2-4.2,9.6-5.1c1.9-0.4,3.6-0.6,5.6-0.6l-0.3-3.8
				c-0.8,0.2-3.1,0.5-5.9,0.5c-6.4,0.3-22.4,1.2-28.4,1.7c-1.6,0.1-2.2,0.1-2.9,0.1c-0.3,0-0.8,0-1.8,0L2313,378.2"/>
			<path class="st1" d="M2476.7,317.5c0.6,0.1,0.8,0.2,1.6,0.5c4.8,1.9,9,3,12.9,3.2c-1.1,0.5-1.9,1-3.2,1.8c-3.2,2.5-4.9,5-4.9,7.7
				c0,2.1,0.9,3.8,2.9,6c3.3,3.7,3.3,3.7,4.1,5c1.1,1.5,1.6,2.9,1.6,4.2c0,2.8-2.4,4.8-5.5,4.8c-2.9,0-5.8-1.5-8.6-4.3
				c-0.4,1.9-0.6,2.4-1.1,3.5c3.5,3,6.5,4.2,10,4.2c5.2,0,8.9-3.5,8.9-8.1c0-2.8-1.4-5.5-4.6-9c-3.3-3.5-3.3-3.5-3.9-4.5
				c-0.3-0.5-0.6-1.4-0.6-2c0-2.3,2.1-4.8,6-7c1.6-0.9,2.6-1.3,3.8-1.5l0.1-3.5c-0.4,0-0.6,0-0.8,0c-2.7,0-8.4-1-11.6-2
				c-2.5-0.8-4.5-1.6-5.6-2.4L2476.7,317.5 M2472.6,333.9c-1.1,5.9-3.8,12.1-6.9,16.1c1.5,0.8,1.9,1.1,3,2.1
				c0.3-0.5,0.4-0.5,0.6-0.9c1.1-1.6,1.1-1.6,1.4-2.3c1.8-3.3,3.5-7.4,4.6-11.6c0.4-1.4,0.4-1.5,0.7-2.2L2472.6,333.9 M2498.1,334.9
				c3.1,3.2,7.1,11.2,8.3,16.3l3.2-1.7c-1.2-3.5-1.9-5.3-3.4-8c-1.6-3.1-2.1-3.8-5.1-8L2498.1,334.9"/>
			<path class="st1" d="M2466.5,383.2c1.4-0.3,1.8-0.5,2.9-0.7c0.5-0.1,2.9-0.5,7.2-1.1c-1.7,6.5-3.2,10.8-5.5,15.8
				c-1.8,3.8-3.7,7.1-5.2,9l3.4,2c1.6-2.8,2.6-4.8,3.2-6c3.4-6.9,5.7-13.3,7.6-21.2c1.8-0.2,2.5-0.2,3.6-0.2c4.7,0,6.2,1.7,6.2,7
				c0,5.6-0.8,10.7-2.1,13.9c-0.6,1.6-1.6,2.4-2.8,2.4c-1.8,0-4.6-0.9-7.5-2.3c0.2,0.9,0.2,1.2,0.2,2c0,0.6,0,1-0.1,1.8
				c3.3,1.4,5.4,1.9,7.6,1.9c2.4,0,3.7-0.6,4.9-2.3c2.1-2.9,3.4-9.5,3.4-17.2c0-4.1-0.7-6.4-2.4-8c-1.6-1.5-3.7-2.1-7.2-2.1
				c-1.2,0-1.8,0-3,0.1c0.5-2.4,0.8-4.2,1.1-5.7c0.4-2.8,0.6-3.7,0.9-4.8l-4-0.5c0,0.3,0,0.6,0,0.7c0,2.1-0.6,6.9-1.5,10.6
				c-4,0.7-9.2,1.2-11,1.3L2466.5,383.2 M2496,376.6c4.9,4.9,8.3,11,10.2,17.9l3.2-1.8c-2.3-7-5.3-12.2-10.4-17.7L2496,376.6"/>
			<path class="st1" d="M417,44.3h-3.3v45c-1.1-0.7-2.5-1.1-4.1-1.3c-0.4,0-0.9-0.1-1.3-0.1c-2.7,0-5.7,0.8-8.4,2.3
				c-3.2,1.7-5.7,4.2-7.2,6.9c-1.4,2.8-1.6,5.5-0.4,7.6c1.4,2.6,4.4,3.9,8,3.9c2.6,0,5.6-0.7,8.4-2.2c5.1-2.8,8.4-7.4,8.4-11.4V44.3
				"/>
			<path class="st1" d="M439.3,96.6h30.2v-6.9h-30.2V96.6 M439.3,84.2h30.2v-6.9h-30.2V84.2 M514,77.5c1.7-0.7,2.6-1.1,3.4-1.7
				c2.3-1.6,3.7-4.1,3.7-6.9c0-5.5-5.2-9.2-13-9.2c-9.3,0-15.3,5-15.3,12.8c0,4.7,2.2,8.2,7,10.7c-1.9,0.6-2.6,0.8-3.7,1.4
				c-3,1.6-4.6,4.3-4.6,7.8c0,6.5,5.8,10.6,14.9,10.6c9.7,0,16.2-5.5,16.2-13.7C522.5,83.6,519.8,79.9,514,77.5 M510.6,76.2
				c-2.5-0.6-4.4-1.1-5.5-1.6c-2.8-1-4.6-3.5-4.6-6.1c0-3.3,2.8-5.8,6.5-5.8c4,0,6.5,2.6,6.5,6.8C513.5,72.3,512.5,74.6,510.6,76.2
				 M502.9,84.8c2.5,0.7,5.5,1.6,7,2c3.8,1.3,5.2,2.9,5.2,6c0,4.1-3.4,7-8.1,7c-4.9,0-7.8-2.9-7.8-7.7
				C499.2,89,500.2,86.9,502.9,84.8 M541.4,59.6c-9,0-15.6,9.2-15.6,21.7c0,12.5,6.6,21.7,15.6,21.7c8.8,0,15.5-9.2,15.5-21.4
				c0-7.1-1.6-12.3-5.2-16.7C549,61.4,545.5,59.6,541.4,59.6 M541.4,62.8c1.8,0,3.2,1.1,3.9,3c0.8,2,1.3,8.3,1.3,15.7
				c0,6.2-0.5,12.7-1,14.7c-0.7,2.4-2.1,3.7-4.1,3.7c-1.9,0-3.2-1-4-3c-0.8-2-1.3-8.3-1.3-15.5c0-6.3,0.5-12.8,1-14.9
				C537.8,64,539.3,62.8,541.4,62.8"/>
			<line class="st4" x1="1357.1" y1="340.8" x2="1376.9" y2="340.8"/>
			<line class="st4" x1="2180.2" y1="340.8" x2="2200" y2="340.8"/>
			<line class="st4" x1="2175.6" y1="394.7" x2="2195.4" y2="394.7"/>
			<line class="st4" x1="1346.1" y1="394.7" x2="1365.9" y2="394.7"/>
			<path class="st1" d="M681.6,703.1c0,2.7,2.2,5,5,5s5-2.2,5-5s-2.2-5-5-5S681.6,700.4,681.6,703.1"/>
			<path class="st1" d="M1265.6,752.7c0,2.7,2.2,5,5,5c2.7,0,5-2.2,5-5s-2.2-5-5-5C1267.8,747.7,1265.6,750,1265.6,752.7"/>
			<path class="st1" d="M2360.9,678.3c0,2.7,2.2,5,5,5c2.7,0,5-2.2,5-5s-2.2-5-5-5C2363.1,673.3,2360.9,675.6,2360.9,678.3"/>
			<path class="st1" d="M681.6,560.3c0,2.7,2.2,5,5,5s5-2.2,5-5s-2.2-5-5-5S681.6,557.5,681.6,560.3"/>
			<path class="st1" d="M1265.6,560.3c0,2.7,2.2,5,5,5c2.7,0,5-2.2,5-5s-2.2-5-5-5C1267.8,555.3,1265.6,557.5,1265.6,560.3"/>
			<path class="st1" d="M2360.9,560.3c0,2.7,2.2,5,5,5c2.7,0,5-2.2,5-5s-2.2-5-5-5C2363.1,555.3,2360.9,557.5,2360.9,560.3"/>
			<path class="st1" d="M681.6,238.5c0,2.7,2.2,5,5,5s5-2.2,5-5s-2.2-5-5-5S681.6,235.8,681.6,238.5"/>
			<path class="st1" d="M1265.6,213.7c0,2.7,2.2,5,5,5c2.7,0,5-2.2,5-5s-2.2-5-5-5C1267.8,208.8,1265.6,211,1265.6,213.7"/>
			<path class="st1" d="M2360.9,164.1c0,2.7,2.2,5,5,5c2.7,0,5-2.2,5-5s-2.2-5-5-5C2363.1,159.2,2360.9,161.4,2360.9,164.1"/>
			<line class="st5" x1="217.8" y1="133.9" x2="217.8" y2="807.8"/>
			<path class="st1" d="M260.3,111.8c-0.2-0.1-0.5-0.2-0.7-0.2c-0.4,0-0.9,0.1-1.1,0.5c-0.2,0.3-10.1,15.6-29.1,15.6h-15.8
				c-0.8,0-1.4,0.5-1.4,1.3v8.9v1.4h12.1c30.6,0,36.4-25.5,36.5-25.8c0-0.1,0.1-0.3,0.1-0.5C261,112.5,260.7,112.1,260.3,111.8"/>
			<path class="st1" d="M260.3,829.8c0.4-0.3,0.7-0.7,0.7-1.2c0-0.2-0.1-0.4-0.1-0.5c-0.1-0.3-6-25.8-36.5-25.8h-12.1v1.4v8.9
				c0,0.8,0.6,1.3,1.4,1.3h15.8c18.9,0,28.9,15.3,29.1,15.6c0.2,0.4,0.7,0.5,1.1,0.5C259.8,830,260.1,829.9,260.3,829.8"/>
		</g>
	</g>
</g>
<g id="レイヤー_2">
</g>
</svg>
