<?xml version="1.0" encoding="utf-8"?>
<!-- Generator: Adobe Illustrator 26.5.0, SVG Export Plug-In . SVG Version: 6.00 Build 0)  -->
<svg version="1.1" id="レイヤー_1" xmlns="http://www.w3.org/2000/svg" xmlns:xlink="http://www.w3.org/1999/xlink" x="0px"
	 y="0px" viewBox="0 0 2590 940" style="enable-background:new 0 0 2590 940;" xml:space="preserve">
<style type="text/css">
	.st0{fill:none;stroke:#FFFFFF;stroke-width:2.73;stroke-linejoin:bevel;}
	.st1{fill:#FFFFFF;}
	.st2{fill:none;stroke:#FFFFFF;stroke-width:4.46;stroke-linejoin:bevel;}
	.st3{fill:none;stroke:#FFFFFF;stroke-width:13.64;stroke-linejoin:bevel;}
	.st4{fill:none;stroke:#FFFFFF;stroke-width:3.97;stroke-linejoin:bevel;}
	.st5{fill:none;stroke:#FFFFFF;stroke-width:10.91;stroke-linejoin:bevel;}
</style>
<g>
	<g>
		
			<image style="overflow:visible;" width="2624" height="941" xlink:href="63E2AEEBEC7B0DA1.png"  transform="matrix(1 0 0 1 -17.1779 35.4324)">
		</image>
	</g>
	<g>
		<line class="st0" x1="106.1" y1="111.5" x2="2570.6" y2="111.5"/>
		<line class="st0" x1="106.1" y1="136.3" x2="2570.6" y2="136.3"/>
		<line class="st0" x1="106.1" y1="161.1" x2="2570.6" y2="161.1"/>
		<line class="st0" x1="106.1" y1="185.9" x2="2570.6" y2="185.9"/>
		<line class="st0" x1="106.1" y1="210.7" x2="2570.6" y2="210.7"/>
		<line class="st0" x1="106.1" y1="565.1" x2="2570.6" y2="565.1"/>
		<line class="st0" x1="106.1" y1="589.9" x2="2570.6" y2="589.9"/>
		<line class="st0" x1="106.1" y1="614.7" x2="2570.6" y2="614.7"/>
		<line class="st0" x1="106.1" y1="639.5" x2="2570.6" y2="639.5"/>
		<line class="st0" x1="106.1" y1="664.3" x2="2570.6" y2="664.3"/>
		<line class="st0" x1="106.1" y1="800.7" x2="2570.6" y2="800.7"/>
		<line class="st0" x1="106.1" y1="825.5" x2="2570.6" y2="825.5"/>
		<line class="st0" x1="106.1" y1="850.3" x2="2570.6" y2="850.3"/>
		<line class="st0" x1="106.1" y1="875.1" x2="2570.6" y2="875.1"/>
		<line class="st0" x1="106.1" y1="899.9" x2="2570.6" y2="899.9"/>
		<path class="st1" d="M54.2,831.9h-30l-0.8,13.9h2.2c0.3-2.5,0.8-4.4,1.3-6c1.3-3.7,3.7-5.6,7.1-5.6c1.6,0,2.4,0.6,2.4,1.8v25.8
			c0,2.6,0,2.7-0.3,3.1c-0.4,0.5-1.4,0.7-4.2,0.7h-1.3v2.4h17.1v-2.4h-1.3c-2.8,0-3.8-0.2-4.1-0.7c-0.3-0.4-0.3-0.6-0.3-3.1v-25.8
			c0-1.2,0.7-1.8,2.4-1.8c3.1,0,5.5,1.7,6.8,4.7c0.8,1.9,1.2,4,1.6,6.9H55L54.2,831.9 M59.1,862.5c-1.8,0-3.1,1.4-3.1,3.1
			c0,1.8,1.4,3.1,3.1,3.1c1.8,0,3.1-1.4,3.1-3.1C62.2,863.9,60.8,862.5,59.1,862.5"/>
		<path class="st1" d="M38.7,595.9h-2.1l-11.5,29.2c-1.4,3.9-2.6,5.1-5.5,5.3h-0.2v2.4h13.2v-2.4h-1c-2.7,0-4.1-0.9-4.1-2.8
			c0-0.7,0.1-1.2,0.4-2.1l1.7-4.4H43l2.7,6.7c0.3,0.8,0.4,1.1,0.4,1.4c0,0.8-1.2,1.3-3.1,1.3h-2.1v2.4h15.5v-2.4h-0.7
			c-2.6,0-3.1-0.3-4.2-3.2L38.7,595.9 M36.3,604.1l5.7,14.2H30.7L36.3,604.1 M63.3,627.2c-1.8,0-3.2,1.4-3.2,3.1
			c0,1.8,1.4,3.1,3.1,3.1c1.8,0,3.2-1.4,3.2-3.1C66.4,628.6,65,627.2,63.3,627.2"/>
		<path class="st1" d="M51.7,142.8h-1.8l-2,3c-2.4-2.2-5.6-3.4-9.1-3.4c-6.6,0-10.9,4.1-10.9,10.4c0,5.4,2.7,8.1,10.1,10.1l4.8,1.2
			c3.7,0.9,4,1.1,5.1,1.8c1.5,1.2,2.3,2.8,2.3,4.8c0,2-0.8,3.7-2.2,5.1c-1.6,1.4-3.3,1.9-6.1,1.9c-3.7,0-6.3-1.1-8.7-3.8
			c-2.1-2.3-3.1-4.7-3.9-8.5h-2.2l0.2,14.2h2l2.2-3.4c3.3,2.8,6.1,3.8,10.5,3.8c7.3,0,12-4.3,12-11c0-3.1-1-5.8-3-7.6
			c-1.3-1.3-3.3-2.2-7.3-3.2l-5.4-1.3c-4.4-1.2-6.6-3.1-6.6-6.2c0-3.5,2.9-5.9,7.1-5.9c3.5,0,6.3,1.5,8.3,4.4c1.5,2,2.4,4.1,3,6.7
			h2.2L51.7,142.8 M62.7,173.6c-1.8,0-3.1,1.4-3.1,3.1c0,1.8,1.4,3.1,3.1,3.1c1.8,0,3.1-1.4,3.1-3.1C65.8,175,64.4,173.6,62.7,173.6
			"/>
		<line class="st2" x1="108.4" y1="799.3" x2="108.4" y2="901.3"/>
		<line class="st2" x1="876.9" y1="799.3" x2="876.9" y2="901.3"/>
		<line class="st2" x1="1445.1" y1="799.3" x2="1445.1" y2="901.3"/>
		<line class="st2" x1="2157.5" y1="799.3" x2="2157.5" y2="901.3"/>
		<line class="st2" x1="2568.4" y1="799.3" x2="2568.4" y2="901.3"/>
		<line class="st2" x1="108.4" y1="563.7" x2="108.4" y2="800.7"/>
		<line class="st2" x1="876.9" y1="563.7" x2="876.9" y2="665.6"/>
		<line class="st2" x1="1445.1" y1="563.7" x2="1445.1" y2="665.6"/>
		<line class="st2" x1="2157.5" y1="563.7" x2="2157.5" y2="665.6"/>
		<line class="st2" x1="2568.4" y1="563.7" x2="2568.4" y2="665.6"/>
		<line class="st2" x1="108.4" y1="110.2" x2="108.4" y2="565.1"/>
		<line class="st2" x1="876.9" y1="110.2" x2="876.9" y2="212.1"/>
		<line class="st2" x1="1445.1" y1="110.2" x2="1445.1" y2="212.1"/>
		<line class="st2" x1="2157.5" y1="110.2" x2="2157.5" y2="212.1"/>
		<line class="st2" x1="2568.4" y1="110.2" x2="2568.4" y2="212.1"/>
		<path class="st1" d="M2204.4,802.6c0.6-0.1,1.1-0.8,1.1-1.4v-5.9c0-0.8-0.6-1.4-1.4-1.4h-0.2l-3.3,0.7v-14.8h-2.8v15.4l-8.8,1.8
			v-14h-2.8v14.6l-3.9,0.8c-0.6,0.1-1.1,0.8-1.1,1.4v0.2v5.8v-0.2c0,0.8,0.6,1.4,1.4,1.4h0.3l3.3-0.7v16.4l-3.9,0.8
			c-0.6,0.1-1.1,0.8-1.1,1.4v5.8c0,0.8,0.6,1.4,1.4,1.4h0.3l3.3-0.7V846h2.8v-15.4l8.8-1.8v14h2.8v-14.6l3.8-0.7
			c0.6-0.1,1.1-0.8,1.1-1.4v-5.9c0-0.8-0.6-1.4-1.4-1.4h-0.2l-3.3,0.7v-16.4L2204.4,802.6 M2189,822.1v-16.5l8.8-1.8v16.4
			L2189,822.1"/>
		<line class="st4" x1="255.9" y1="713.9" x2="305.5" y2="713.9"/>
		<line class="st4" x1="255.9" y1="689.1" x2="305.5" y2="689.1"/>
		<line class="st4" x1="408.4" y1="713.9" x2="458" y2="713.9"/>
		<line class="st4" x1="408.4" y1="689.1" x2="458" y2="689.1"/>
		<line class="st4" x1="560.9" y1="689.1" x2="610.5" y2="689.1"/>
		<line class="st4" x1="713.4" y1="713.9" x2="763" y2="713.9"/>
		<line class="st4" x1="713.4" y1="689.1" x2="763" y2="689.1"/>
		<line class="st4" x1="1210.1" y1="689.1" x2="1259.7" y2="689.1"/>
		<line class="st4" x1="1479.5" y1="713.9" x2="1529.1" y2="713.9"/>
		<line class="st4" x1="1479.5" y1="689.1" x2="1529.1" y2="689.1"/>
		<line class="st4" x1="1653" y1="713.9" x2="1702.6" y2="713.9"/>
		<line class="st4" x1="1653" y1="689.1" x2="1702.6" y2="689.1"/>
		<line class="st4" x1="2203" y1="689.1" x2="2252.6" y2="689.1"/>
		<line class="st4" x1="255.9" y1="235.5" x2="305.5" y2="235.5"/>
		<line class="st4" x1="408.4" y1="235.5" x2="458" y2="235.5"/>
		<line class="st4" x1="560.9" y1="235.5" x2="610.5" y2="235.5"/>
		<line class="st4" x1="713.4" y1="260.3" x2="763" y2="260.3"/>
		<line class="st4" x1="713.4" y1="235.5" x2="763" y2="235.5"/>
		<line class="st0" x1="266" y1="841.2" x2="266" y2="918.5"/>
		<line class="st0" x1="418.5" y1="841.2" x2="418.5" y2="918.5"/>
		<line class="st0" x1="571" y1="853.6" x2="571" y2="927.8"/>
		<line class="st0" x1="753" y1="859.5" x2="753" y2="782.1"/>
		<line class="st0" x1="919.6" y1="804" x2="919.6" y2="887.5"/>
		<line class="st0" x1="1118.3" y1="804" x2="1118.3" y2="887.5"/>
		<line class="st0" x1="1220.1" y1="804" x2="1220.1" y2="887.5"/>
		<line class="st0" x1="1489.6" y1="828.8" x2="1489.6" y2="909.2"/>
		<line class="st0" x1="1663.1" y1="816.4" x2="1663.1" y2="899.9"/>
		<line class="st0" x1="1836.6" y1="804" x2="1836.6" y2="887.5"/>
		<line class="st0" x1="2048.2" y1="804" x2="2048.2" y2="887.5"/>
		<line class="st0" x1="2213" y1="816.4" x2="2213" y2="899.9"/>
		<line class="st0" x1="295.5" y1="710.7" x2="295.5" y2="614.7"/>
		<line class="st0" x1="448" y1="710.7" x2="448" y2="614.7"/>
		<line class="st0" x1="600.5" y1="698.3" x2="600.5" y2="614.7"/>
		<line class="st0" x1="753" y1="710.7" x2="753" y2="614.7"/>
		<line class="st0" x1="949.1" y1="673.5" x2="949.1" y2="589.9"/>
		<line class="st0" x1="1147.8" y1="673.5" x2="1147.8" y2="589.9"/>
		<line class="st0" x1="1249.6" y1="685.9" x2="1249.6" y2="602.3"/>
		<line class="st0" x1="1519.1" y1="710.7" x2="1519.1" y2="614.7"/>
		<line class="st0" x1="1692.6" y1="710.7" x2="1692.6" y2="614.7"/>
		<line class="st0" x1="1866.1" y1="673.5" x2="1866.1" y2="589.9"/>
		<line class="st0" x1="2077.7" y1="673.5" x2="2077.7" y2="589.9"/>
		<line class="st0" x1="2242.5" y1="698.3" x2="2242.5" y2="614.7"/>
		<line class="st0" x1="295.5" y1="232.4" x2="295.5" y2="148.7"/>
		<line class="st0" x1="448" y1="232.4" x2="448" y2="148.7"/>
		<line class="st0" x1="600.5" y1="244.8" x2="600.5" y2="161.1"/>
		<line class="st0" x1="753" y1="257.2" x2="753" y2="161.1"/>
		<line class="st0" x1="949.1" y1="195.2" x2="949.1" y2="111.5"/>
		<line class="st0" x1="1147.8" y1="195.2" x2="1147.8" y2="111.5"/>
		<line class="st0" x1="1249.6" y1="207.6" x2="1249.6" y2="123.9"/>
		<line class="st0" x1="1519.1" y1="220" x2="1519.1" y2="136.3"/>
		<line class="st0" x1="1692.6" y1="207.6" x2="1692.6" y2="123.9"/>
		<line class="st0" x1="1866.1" y1="195.2" x2="1866.1" y2="111.5"/>
		<line class="st0" x1="2077.7" y1="195.2" x2="2077.7" y2="111.5"/>
		<line class="st0" x1="2242.5" y1="207.6" x2="2242.5" y2="123.9"/>
		<path class="st1" d="M295.8,829.9c-1.8-3.3-5.6-5.1-10.1-5.1c-3.4,0-7,1-10.6,2.9c-6.5,3.5-10.5,9.3-10.5,14.4
			c0,1.4,0.3,2.8,1,4.1c1.8,3.3,5.6,5,10.1,5c3.4,0,7-0.9,10.6-2.8c6.5-3.5,10.5-9.3,10.5-14.4C296.8,832.6,296.5,831.2,295.8,829.9
			"/>
		<path class="st1" d="M448.4,829.9c-1.8-3.3-5.6-5.1-10.1-5.1c-3.4,0-7,1-10.6,2.9c-6.5,3.5-10.5,9.3-10.5,14.4
			c0,1.4,0.3,2.8,1,4.1c1.8,3.3,5.6,5,10.1,5c3.4,0,7-0.9,10.6-2.8c6.5-3.5,10.5-9.3,10.5-14.4C449.3,832.6,449,831.2,448.4,829.9"
			/>
		<path class="st1" d="M600.9,842.3c-1.8-3.3-5.6-5.1-10.1-5.1c-3.4,0-7,1-10.6,2.9c-6.5,3.5-10.5,9.3-10.5,14.4
			c0,1.4,0.3,2.8,1,4.1c1.8,3.3,5.6,5,10.1,5c3.4,0,7-0.9,10.6-2.8c6.5-3.5,10.5-9.3,10.5-14.4C601.9,845,601.6,843.6,600.9,842.3"
			/>
		<path class="st1" d="M753.4,854.7c-1.8-3.3-5.6-5.1-10.1-5.1c-3.4,0-7,1-10.6,2.9c-6.5,3.5-10.5,9.3-10.5,14.4
			c0,1.4,0.3,2.8,1,4.1c1.8,3.3,5.6,5,10.1,5c3.4,0,7-0.9,10.6-2.8c6.5-3.5,10.5-9.3,10.5-14.4C754.4,857.4,754.1,856,753.4,854.7"
			/>
		<path class="st1" d="M949.5,792.7c-1.8-3.3-5.6-5.1-10.1-5.1c-3.4,0-7,1-10.6,2.9c-6.5,3.5-10.5,9.3-10.5,14.4
			c0,1.4,0.3,2.8,1,4.1c1.8,3.3,5.6,5,10.1,5c3.4,0,7-0.9,10.6-2.8c6.5-3.5,10.5-9.3,10.5-14.4C950.5,795.4,950.2,794,949.5,792.7"
			/>
		<path class="st1" d="M1148.2,792.7c-1.8-3.3-5.6-5.1-10.1-5.1c-3.4,0-7,1-10.6,2.9c-6.5,3.5-10.5,9.3-10.5,14.4
			c0,1.4,0.3,2.8,1,4.1c1.8,3.3,5.6,5,10.1,5c3.4,0,7-0.9,10.6-2.8c6.5-3.5,10.5-9.3,10.5-14.4
			C1149.2,795.4,1148.9,794,1148.2,792.7"/>
		<path class="st1" d="M1250,792.7c-1.8-3.3-5.6-5.1-10.1-5.1c-3.4,0-7,1-10.6,2.9c-6.5,3.5-10.5,9.3-10.5,14.4c0,1.4,0.3,2.8,1,4.1
			c1.8,3.3,5.6,5,10.1,5c3.4,0,7-0.9,10.6-2.8c6.5-3.5,10.5-9.3,10.5-14.4C1251,795.4,1250.7,794,1250,792.7 M1245.8,799.4
			c-1.7,1.7-5.1,3.8-8.6,5.8s-7.1,3.5-9.5,4c-0.5,0.1-1,0.2-1.5,0.2c-1.6,0-2.8-0.6-3.5-1.9c-0.3-0.5-0.5-1.1-0.5-1.7
			c0-1.1,0.7-2.4,1.8-3.5c1.7-1.7,5-3.8,8.5-5.8s7.1-3.5,9.5-4c0.5-0.1,1-0.2,1.5-0.2c1.6,0,2.9,0.6,3.6,1.9
			c0.3,0.5,0.4,1.1,0.4,1.7C1247.4,797,1246.9,798.2,1245.8,799.4"/>
		<path class="st1" d="M1519.5,817.5c-1.8-3.3-5.6-5.1-10.1-5.1c-3.4,0-7,1-10.6,2.9c-6.5,3.5-10.5,9.3-10.5,14.4
			c0,1.4,0.3,2.8,1,4.1c1.8,3.3,5.6,5,10.1,5c3.4,0,7-0.9,10.6-2.8c6.5-3.5,10.5-9.3,10.5-14.4
			C1520.5,820.2,1520.2,818.8,1519.5,817.5"/>
		<path class="st1" d="M1693,805.1c-1.8-3.3-5.6-5.1-10.1-5.1c-3.4,0-7,1-10.6,2.9c-6.5,3.5-10.5,9.3-10.5,14.4c0,1.4,0.3,2.8,1,4.1
			c1.8,3.3,5.6,5,10.1,5c3.4,0,7-0.9,10.6-2.8c6.5-3.5,10.5-9.3,10.5-14.4C1694,807.8,1693.7,806.4,1693,805.1"/>
		<path class="st1" d="M1866.5,792.7c-1.8-3.3-5.6-5.1-10.1-5.1c-3.4,0-7,1-10.6,2.9c-6.5,3.5-10.5,9.3-10.5,14.4
			c0,1.4,0.3,2.8,1,4.1c1.8,3.3,5.6,5,10.1,5c3.4,0,7-0.9,10.6-2.8c6.5-3.5,10.5-9.3,10.5-14.4
			C1867.5,795.4,1867.2,794,1866.5,792.7"/>
		<path class="st1" d="M2078,792.7c-1.8-3.3-5.6-5.1-10.1-5.1c-3.4,0-7,1-10.6,2.9c-6.5,3.5-10.5,9.3-10.5,14.4c0,1.4,0.3,2.8,1,4.1
			c1.8,3.3,5.6,5,10.1,5c3.4,0,7-0.9,10.6-2.8c6.5-3.5,10.5-9.3,10.5-14.4C2079,795.4,2078.7,794,2078,792.7"/>
		<path class="st1" d="M2242.9,805.1c-1.8-3.3-5.6-5.1-10.1-5.1c-3.4,0-7,1-10.6,2.9c-6.5,3.5-10.5,9.3-10.5,14.4
			c0,1.4,0.3,2.8,1,4.1c1.8,3.3,5.6,5,10.1,5c3.4,0,7-0.9,10.6-2.8c6.5-3.5,10.5-9.3,10.5-14.4
			C2243.9,807.8,2243.6,806.4,2242.9,805.1 M2238.7,811.8c-1.7,1.7-5.1,3.8-8.6,5.8c-3.6,2-7.1,3.5-9.5,4c-0.5,0.1-1,0.2-1.5,0.2
			c-1.6,0-2.8-0.6-3.5-1.9c-0.3-0.5-0.5-1.1-0.5-1.7c0-1.1,0.7-2.4,1.8-3.5c1.7-1.7,5-3.8,8.5-5.8c3.6-2,7.1-3.5,9.5-4
			c0.5-0.1,1-0.2,1.5-0.2c1.6,0,2.9,0.6,3.6,1.9c0.3,0.5,0.4,1.1,0.4,1.7C2240.3,809.4,2239.8,810.6,2238.7,811.8"/>
		<path class="st1" d="M295.8,705.9c-1.8-3.3-5.6-5.1-10.1-5.1c-3.4,0-7,1-10.6,2.9c-6.5,3.5-10.5,9.3-10.5,14.4
			c0,1.4,0.3,2.8,1,4.1c1.8,3.3,5.6,5,10.1,5c3.4,0,7-0.9,10.6-2.8c6.5-3.5,10.5-9.3,10.5-14.4C296.8,708.5,296.5,707.2,295.8,705.9
			"/>
		<path class="st1" d="M448.4,705.9c-1.8-3.3-5.6-5.1-10.1-5.1c-3.4,0-7,1-10.6,2.9c-6.5,3.5-10.5,9.3-10.5,14.4
			c0,1.4,0.3,2.8,1,4.1c1.8,3.3,5.6,5,10.1,5c3.4,0,7-0.9,10.6-2.8c6.5-3.5,10.5-9.3,10.5-14.4C449.3,708.5,449,707.2,448.4,705.9"
			/>
		<path class="st1" d="M600.9,693.5c-1.8-3.3-5.6-5.1-10.1-5.1c-3.4,0-7,1-10.6,2.9c-6.5,3.5-10.5,9.3-10.5,14.4
			c0,1.4,0.3,2.8,1,4.1c1.8,3.3,5.6,5,10.1,5c3.4,0,7-0.9,10.6-2.8c6.5-3.5,10.5-9.3,10.5-14.4C601.9,696.1,601.6,694.8,600.9,693.5
			"/>
		<path class="st1" d="M753.4,705.9c-1.8-3.3-5.6-5.1-10.1-5.1c-3.4,0-7,1-10.6,2.9c-6.5,3.5-10.5,9.3-10.5,14.4
			c0,1.4,0.3,2.8,1,4.1c1.8,3.3,5.6,5,10.1,5c3.4,0,7-0.9,10.6-2.8c6.5-3.5,10.5-9.3,10.5-14.4C754.4,708.5,754.1,707.2,753.4,705.9
			"/>
		<path class="st1" d="M949.5,668.7c-1.8-3.3-5.6-5.1-10.1-5.1c-3.4,0-7,1-10.6,2.9c-6.5,3.5-10.5,9.3-10.5,14.4
			c0,1.4,0.3,2.8,1,4.1c1.8,3.3,5.6,5,10.1,5c3.4,0,7-0.9,10.6-2.8c6.5-3.5,10.5-9.3,10.5-14.4C950.5,671.3,950.2,669.9,949.5,668.7
			"/>
		<path class="st1" d="M1148.2,668.7c-1.8-3.3-5.6-5.1-10.1-5.1c-3.4,0-7,1-10.6,2.9c-6.5,3.5-10.5,9.3-10.5,14.4
			c0,1.4,0.3,2.8,1,4.1c1.8,3.3,5.6,5,10.1,5c3.4,0,7-0.9,10.6-2.8c6.5-3.5,10.5-9.3,10.5-14.4
			C1149.2,671.3,1148.9,669.9,1148.2,668.7"/>
		<path class="st1" d="M1250,681.1c-1.8-3.3-5.6-5.1-10.1-5.1c-3.4,0-7,1-10.6,2.9c-6.5,3.5-10.5,9.3-10.5,14.4c0,1.4,0.3,2.8,1,4.1
			c1.8,3.3,5.6,5,10.1,5c3.4,0,7-0.9,10.6-2.8c6.5-3.5,10.5-9.3,10.5-14.4C1251,683.7,1250.7,682.3,1250,681.1 M1245.8,687.8
			c-1.7,1.7-5.1,3.8-8.6,5.8s-7.1,3.5-9.5,4c-0.5,0.1-1,0.2-1.5,0.2c-1.6,0-2.8-0.6-3.5-1.9c-0.3-0.5-0.5-1.1-0.5-1.7
			c0-1.1,0.7-2.4,1.8-3.5c1.7-1.7,5-3.8,8.5-5.8s7.1-3.5,9.5-4c0.5-0.1,1-0.2,1.5-0.2c1.6,0,2.9,0.6,3.6,1.9
			c0.3,0.5,0.4,1.1,0.4,1.7C1247.4,685.4,1246.9,686.6,1245.8,687.8"/>
		<path class="st1" d="M1519.5,705.9c-1.8-3.3-5.6-5.1-10.1-5.1c-3.4,0-7,1-10.6,2.9c-6.5,3.5-10.5,9.3-10.5,14.4
			c0,1.4,0.3,2.8,1,4.1c1.8,3.3,5.6,5,10.1,5c3.4,0,7-0.9,10.6-2.8c6.5-3.5,10.5-9.3,10.5-14.4
			C1520.5,708.5,1520.2,707.2,1519.5,705.9"/>
		<path class="st1" d="M1693,705.9c-1.8-3.3-5.6-5.1-10.1-5.1c-3.4,0-7,1-10.6,2.9c-6.5,3.5-10.5,9.3-10.5,14.4c0,1.4,0.3,2.8,1,4.1
			c1.8,3.3,5.6,5,10.1,5c3.4,0,7-0.9,10.6-2.8c6.5-3.5,10.5-9.3,10.5-14.4C1694,708.5,1693.7,707.2,1693,705.9"/>
		<path class="st1" d="M1866.5,668.7c-1.8-3.3-5.6-5.1-10.1-5.1c-3.4,0-7,1-10.6,2.9c-6.5,3.5-10.5,9.3-10.5,14.4
			c0,1.4,0.3,2.8,1,4.1c1.8,3.3,5.6,5,10.1,5c3.4,0,7-0.9,10.6-2.8c6.5-3.5,10.5-9.3,10.5-14.4
			C1867.5,671.3,1867.2,669.9,1866.5,668.7"/>
		<path class="st1" d="M2078,668.7c-1.8-3.3-5.6-5.1-10.1-5.1c-3.4,0-7,1-10.6,2.9c-6.5,3.5-10.5,9.3-10.5,14.4c0,1.4,0.3,2.8,1,4.1
			c1.8,3.3,5.6,5,10.1,5c3.4,0,7-0.9,10.6-2.8c6.5-3.5,10.5-9.3,10.5-14.4C2079,671.3,2078.7,669.9,2078,668.7"/>
		<path class="st1" d="M2242.9,693.5c-1.8-3.3-5.6-5.1-10.1-5.1c-3.4,0-7,1-10.6,2.9c-6.5,3.5-10.5,9.3-10.5,14.4
			c0,1.4,0.3,2.8,1,4.1c1.8,3.3,5.6,5,10.1,5c3.4,0,7-0.9,10.6-2.8c6.5-3.5,10.5-9.3,10.5-14.4
			C2243.9,696.1,2243.6,694.8,2242.9,693.5 M2238.7,700.2c-1.7,1.7-5.1,3.8-8.6,5.8c-3.6,2-7.1,3.5-9.5,4c-0.5,0.1-1,0.2-1.5,0.2
			c-1.6,0-2.8-0.6-3.5-1.9c-0.3-0.5-0.5-1.1-0.5-1.7c0-1.1,0.7-2.4,1.8-3.5c1.7-1.7,5-3.8,8.5-5.8c3.6-2,7.1-3.5,9.5-4
			c0.5-0.1,1-0.2,1.5-0.2c1.6,0,2.9,0.6,3.6,1.9c0.3,0.5,0.4,1.1,0.4,1.7C2240.3,697.8,2239.8,699,2238.7,700.2"/>
		<path class="st1" d="M295.8,227.5c-1.8-3.3-5.6-5.1-10.1-5.1c-3.4,0-7,1-10.6,2.9c-6.5,3.5-10.5,9.3-10.5,14.4
			c0,1.4,0.3,2.8,1,4.1c1.8,3.3,5.6,5,10.1,5c3.4,0,7-0.9,10.6-2.8c6.5-3.5,10.5-9.3,10.5-14.4C296.8,230.2,296.5,228.8,295.8,227.5
			"/>
		<path class="st1" d="M448.4,227.5c-1.8-3.3-5.6-5.1-10.1-5.1c-3.4,0-7,1-10.6,2.9c-6.5,3.5-10.5,9.3-10.5,14.4
			c0,1.4,0.3,2.8,1,4.1c1.8,3.3,5.6,5,10.1,5c3.4,0,7-0.9,10.6-2.8c6.5-3.5,10.5-9.3,10.5-14.4C449.3,230.2,449,228.8,448.4,227.5"
			/>
		<path class="st1" d="M600.9,239.9c-1.8-3.3-5.6-5.1-10.1-5.1c-3.4,0-7,1-10.6,2.9c-6.5,3.5-10.5,9.3-10.5,14.4
			c0,1.4,0.3,2.8,1,4.1c1.8,3.3,5.6,5,10.1,5c3.4,0,7-0.9,10.6-2.8c6.5-3.5,10.5-9.3,10.5-14.4C601.9,242.6,601.6,241.2,600.9,239.9
			"/>
		<path class="st1" d="M753.4,252.3c-1.8-3.3-5.6-5.1-10.1-5.1c-3.4,0-7,1-10.6,2.9c-6.5,3.5-10.5,9.3-10.5,14.4
			c0,1.4,0.3,2.8,1,4.1c1.8,3.3,5.6,5,10.1,5c3.4,0,7-0.9,10.6-2.8c6.5-3.5,10.5-9.3,10.5-14.4C754.4,255,754.1,253.6,753.4,252.3"
			/>
		<path class="st1" d="M949.5,190.3c-1.8-3.3-5.6-5.1-10.1-5.1c-3.4,0-7,1-10.6,2.9c-6.5,3.5-10.5,9.3-10.5,14.4
			c0,1.4,0.3,2.8,1,4.1c1.8,3.3,5.6,5,10.1,5c3.4,0,7-0.9,10.6-2.8c6.5-3.5,10.5-9.3,10.5-14.4C950.5,193,950.2,191.6,949.5,190.3"
			/>
		<path class="st1" d="M1148.2,190.3c-1.8-3.3-5.6-5.1-10.1-5.1c-3.4,0-7,1-10.6,2.9c-6.5,3.5-10.5,9.3-10.5,14.4
			c0,1.4,0.3,2.8,1,4.1c1.8,3.3,5.6,5,10.1,5c3.4,0,7-0.9,10.6-2.8c6.5-3.5,10.5-9.3,10.5-14.4
			C1149.2,193,1148.9,191.6,1148.2,190.3"/>
		<path class="st1" d="M1250,202.7c-1.8-3.3-5.6-5.1-10.1-5.1c-3.4,0-7,1-10.6,2.9c-6.5,3.5-10.5,9.3-10.5,14.4c0,1.4,0.3,2.8,1,4.1
			c1.8,3.3,5.6,5,10.1,5c3.4,0,7-0.9,10.6-2.8c6.5-3.5,10.5-9.3,10.5-14.4C1251,205.4,1250.7,204,1250,202.7 M1245.8,209.5
			c-1.7,1.7-5.1,3.8-8.6,5.8s-7.1,3.5-9.5,4c-0.5,0.1-1,0.2-1.5,0.2c-1.6,0-2.8-0.6-3.5-1.9c-0.3-0.5-0.5-1.1-0.5-1.7
			c0-1.1,0.7-2.4,1.8-3.5c1.7-1.7,5-3.8,8.5-5.8s7.1-3.5,9.5-4c0.5-0.1,1-0.2,1.5-0.2c1.6,0,2.9,0.6,3.6,1.9
			c0.3,0.5,0.4,1.1,0.4,1.7C1247.4,207.1,1246.9,208.3,1245.8,209.5"/>
		<path class="st1" d="M1519.5,215.1c-1.8-3.3-5.6-5.1-10.1-5.1c-3.4,0-7,1-10.6,2.9c-6.5,3.5-10.5,9.3-10.5,14.4
			c0,1.4,0.3,2.8,1,4.1c1.8,3.3,5.6,5,10.1,5c3.4,0,7-0.9,10.6-2.8c6.5-3.5,10.5-9.3,10.5-14.4
			C1520.5,217.8,1520.2,216.4,1519.5,215.1"/>
		<path class="st1" d="M1693,202.7c-1.8-3.3-5.6-5.1-10.1-5.1c-3.4,0-7,1-10.6,2.9c-6.5,3.5-10.5,9.3-10.5,14.4c0,1.4,0.3,2.8,1,4.1
			c1.8,3.3,5.6,5,10.1,5c3.4,0,7-0.9,10.6-2.8c6.5-3.5,10.5-9.3,10.5-14.4C1694,205.4,1693.7,204,1693,202.7"/>
		<path class="st1" d="M1866.5,190.3c-1.8-3.3-5.6-5.1-10.1-5.1c-3.4,0-7,1-10.6,2.9c-6.5,3.5-10.5,9.3-10.5,14.4
			c0,1.4,0.3,2.8,1,4.1c1.8,3.3,5.6,5,10.1,5c3.4,0,7-0.9,10.6-2.8c6.5-3.5,10.5-9.3,10.5-14.4
			C1867.5,193,1867.2,191.6,1866.5,190.3"/>
		<path class="st1" d="M2078,190.3c-1.8-3.3-5.6-5.1-10.1-5.1c-3.4,0-7,1-10.6,2.9c-6.5,3.5-10.5,9.3-10.5,14.4c0,1.4,0.3,2.8,1,4.1
			c1.8,3.3,5.6,5,10.1,5c3.4,0,7-0.9,10.6-2.8c6.5-3.5,10.5-9.3,10.5-14.4C2079,193,2078.7,191.6,2078,190.3"/>
		<path class="st1" d="M2242.9,202.7c-1.8-3.3-5.6-5.1-10.1-5.1c-3.4,0-7,1-10.6,2.9c-6.5,3.5-10.5,9.3-10.5,14.4
			c0,1.4,0.3,2.8,1,4.1c1.8,3.3,5.6,5,10.1,5c3.4,0,7-0.9,10.6-2.8c6.5-3.5,10.5-9.3,10.5-14.4
			C2243.9,205.4,2243.6,204,2242.9,202.7 M2238.7,209.5c-1.7,1.7-5.1,3.8-8.6,5.8c-3.6,2-7.1,3.5-9.5,4c-0.5,0.1-1,0.2-1.5,0.2
			c-1.6,0-2.8-0.6-3.5-1.9c-0.3-0.5-0.5-1.1-0.5-1.7c0-1.1,0.7-2.4,1.8-3.5c1.7-1.7,5-3.8,8.5-5.8c3.6-2,7.1-3.5,9.5-4
			c0.5-0.1,1-0.2,1.5-0.2c1.6,0,2.9,0.6,3.6,1.9c0.3,0.5,0.4,1.1,0.4,1.7C2240.3,207.1,2239.8,208.3,2238.7,209.5"/>
		<path class="st1" d="M155.6,800.6c-7.5,0-13.6,4.4-13.7,4.4c-5.8,4.3-8,9.3-8.9,12.8c-0.5,1.8-0.7,3.6-0.7,5.3
			c0,2.4,0.4,4.6,1.3,6.4c1.2,2.7,3.5,4.6,6.4,5.6c1.2,0.4,2.5,0.6,3.8,0.6c2.2,0,4.5-0.6,6.3-1.7c3.1-1.7,5-5.3,5-9.1
			c0-3.5-1.8-6.6-4.8-8.5c-2.1-1.4-4.1-1.8-5.8-1.8c-1.2,0-2.3,0.2-3.2,0.5c-1,0.4-2.7,1.4-3.5,2.1c0.3-1.9,1.5-4.8,2.6-6.3
			s3.3-3.6,5-4.5c2.5-1.4,5.7-2,9.1-2c10.1,0,15.1,8.1,15.1,24.8c0,9.2-3.5,18.1-6.4,23.9c-3.3,6.5-7.6,12.8-11.5,16.3
			c-10.3,9.4-20,13.9-20.1,13.9c0,0-1.5,0.9-1.1,2.4c0.3,1,1.2,1.2,1.8,1.2c0.1,0,0.4-0.1,0.5-0.1s11.4-4.7,20.4-11.7
			c5.1-3.7,9.6-7.6,13.6-11.9c3.6-3.9,6.6-8,9.1-12.2c4.4-7.4,6.8-15.2,6.8-21.8c0-8.2-2.2-15.1-6.3-19.9
			C171.9,803.5,164.9,800.6,155.6,800.6 M186.8,813.2c0,2.8,2.2,5,4.8,5c2.6,0,4.8-2.2,4.8-5s-2.2-5.1-4.8-5.1
			C189,808.1,186.8,810.4,186.8,813.2 M186.8,837.7c0,2.8,2.2,5.1,4.8,5.1c2.6,0,4.8-2.3,4.8-5.1s-2.2-5.1-4.8-5.1
			C189,832.7,186.8,834.9,186.8,837.7"/>
		<path class="st1" d="M193.3,633.7c-1.2-5.4-3.8-9.2-4.6-10.2c-3.2-4.2-7.1-7.1-11.8-8.4c-3.1-0.9-6.1-1-8.5-0.8
			c-1-6-2-11.8-2.9-17.2c5.4-6.1,9-11.9,11.3-16.1c3.4-6.5,4.6-11.1,4.6-11.3c1.7-5.2,2.1-12.8,1-21c-1-7.5-3.1-14.1-5.4-17.4
			c-1-1.4-2.1-2.1-3.1-2.1c-1.2,0-3.7,1.2-6.6,4c-2.3,2.2-5.5,6-8.1,12c-3,7-3.2,16.4-2.8,23.1c0.4,7.2,1.5,12.9,1.5,12.9
			c0,0.1,0.3,1.6,0.7,4.1c-0.2,0.2-0.5,0.4-0.7,0.7c-1,1-2.2,2.1-3.6,3.5c-0.9,0.9-1.8,1.8-2.8,2.7c-8.4,8.1-21.1,20.3-21.1,39.3
			c0,4.7,0.9,9,2.7,13c1.6,3.6,3.9,6.8,6.8,9.7c7.7,7.5,18.2,10.7,25.2,10.5c2.9-0.1,5.5-0.3,7.9-0.8c1.8,9.5,2.9,16.5,3,21.8
			c0,6.5-1.6,10.4-5.5,13.1c-2.4,1.7-5.2,2.7-8.3,2.8c-2.6,0.1-4.8-0.3-6.2-0.8h0c0,0-0.3-0.1-0.3-0.3c0-0.2,0.3-0.2,0.3-0.2h0
			c1.9-0.4,5.4-1.7,7.8-4.9c1.8-2.5,2.6-7.1,0.8-11c-1.1-2.4-3.6-5.3-9.2-5.7c-2.5-0.2-4.7,0.3-6.7,1.5c-1.8,1.1-3.3,2.7-4.3,4.7
			c-2.4,4.7-2,10.3,1.1,14.2c2.9,3.6,7.5,5.9,12.9,6.5c0.8,0.1,1.7,0.1,2.5,0.1c4.4,0,8.8-1.2,12.3-3.4c3.6-2.5,5.7-6.5,6.4-12.1
			c0.6-4.6,0.2-10.5-1.2-18.5c-0.4-2.1-0.9-5.1-1.5-8.8c5.7-1.9,9.8-5.4,13.6-11.3C193.8,646,194.7,639.9,193.3,633.7 M159.3,659.6
			c-4.6-1.2-9-3.7-12.7-7.2c-1.3-1.2-3.2-3.4-4.6-6.7c-1.4-3.1-2-6.5-2-10.1c0.1-4.7,1.4-9.4,3.9-14.2c2.9-5.5,7.4-11,13.4-16.3
			c1.4-1.3,2.8-2.5,4.1-3.8c0.8,4.2,1.6,8.9,2.5,13.7c-3.8,1.3-8.5,4.4-11.6,10c-3.5,6.5-3.4,12-2.6,15.4c0.9,4.4,3.4,8.2,6.9,10.2
			c0.9,0.6,5,2.7,6.8,2.1c0.4-0.1,0.6-0.3,0.8-0.7c0.5-1.2-0.5-1.8-2.1-2.7c-0.6-0.4-1.3-0.8-2-1.3c-3.3-2.5-4.7-6.9-3.7-11.2
			c0.6-2.4,1.8-4.5,3.7-6.2c1.7-1.5,3.7-2.6,6-3.3c2,11.2,4.1,22.2,5.7,30.5c0.1,0.7,0.3,1.3,0.4,2
			C167.8,660.8,163.5,660.8,159.3,659.6 M170.6,626.7c10.3-0.5,14.5,6.9,15.4,11.7c0.5,2.5,0.5,6.9-1.1,11.1
			c-1.2,3.2-3.6,7.2-8.7,9.2c-0.1-0.4-0.1-0.8-0.2-1.3C174.4,648.8,172.5,637.9,170.6,626.7 M163.3,556.3c1.8-5.7,4.5-8.9,6.5-10.6
			c1.7-1.5,3.4-2.2,4.3-2.2c0.1,0,0.3,0,0.4,0c0.5,0.1,1,0.7,1.4,1.6c2.3,4.3,1.6,10.9,0.2,15.3c-1.6,5.4-4.5,10.9-13.2,20.5
			c-0.2-1.1-0.3-2.1-0.5-3.1C161.1,569.6,161.4,562.4,163.3,556.3"/>
		<path class="st1" d="M193.3,180.1c-1.2-5.4-3.8-9.2-4.6-10.2c-3.2-4.2-7.1-7.1-11.8-8.4c-3.1-0.9-6.1-1-8.5-0.8
			c-1-6-2-11.8-2.9-17.2c5.4-6.1,9-11.9,11.3-16.1c3.4-6.5,4.6-11.1,4.6-11.3c1.7-5.2,2.1-12.8,1-21c-1-7.5-3.1-14.1-5.4-17.4
			c-1-1.4-2.1-2.1-3.1-2.1c-1.2,0-3.7,1.2-6.6,4c-2.3,2.2-5.5,6-8.1,12c-3,7-3.2,16.4-2.8,23.1c0.4,7.2,1.5,12.9,1.5,12.9
			c0,0.1,0.3,1.6,0.7,4.1c-0.2,0.2-0.5,0.4-0.7,0.7c-1,1-2.2,2.1-3.6,3.5c-0.9,0.9-1.8,1.8-2.8,2.7c-8.4,8.1-21.1,20.3-21.1,39.3
			c0,4.7,0.9,9,2.7,13c1.6,3.6,3.9,6.8,6.8,9.7c7.7,7.5,18.2,10.7,25.2,10.5c2.9-0.1,5.5-0.3,7.9-0.8c1.8,9.5,2.9,16.5,3,21.8
			c0,6.5-1.6,10.4-5.5,13.1c-2.4,1.7-5.2,2.7-8.3,2.8c-2.6,0.1-4.8-0.3-6.2-0.8h0c0,0-0.3-0.1-0.3-0.3c0-0.2,0.3-0.2,0.3-0.2h0
			c1.9-0.4,5.4-1.7,7.8-4.9c1.8-2.5,2.6-7.1,0.8-11c-1.1-2.4-3.6-5.3-9.2-5.7c-2.5-0.2-4.7,0.3-6.7,1.5c-1.8,1.1-3.3,2.7-4.3,4.7
			c-2.4,4.7-2,10.3,1.1,14.2c2.9,3.6,7.5,5.9,12.9,6.5c0.8,0.1,1.7,0.1,2.5,0.1c4.4,0,8.8-1.2,12.3-3.4c3.6-2.5,5.7-6.5,6.4-12.1
			c0.6-4.6,0.2-10.5-1.2-18.5c-0.4-2.1-0.9-5.1-1.5-8.8c5.7-1.9,9.8-5.4,13.6-11.3C193.8,192.4,194.7,186.4,193.3,180.1
			 M159.3,206.1c-4.6-1.2-9-3.7-12.7-7.2c-1.3-1.2-3.2-3.4-4.6-6.7c-1.4-3.1-2-6.5-2-10.1c0.1-4.7,1.4-9.4,3.9-14.2
			c2.9-5.5,7.4-11,13.4-16.3c1.4-1.3,2.8-2.5,4.1-3.8c0.8,4.2,1.6,8.9,2.5,13.7c-3.8,1.3-8.5,4.4-11.6,10c-3.5,6.5-3.4,12-2.6,15.4
			c0.9,4.4,3.4,8.2,6.9,10.2c0.9,0.6,5,2.7,6.8,2.1c0.4-0.1,0.6-0.3,0.8-0.7c0.5-1.2-0.5-1.8-2.1-2.7c-0.6-0.4-1.3-0.8-2-1.3
			c-3.3-2.5-4.7-6.9-3.7-11.2c0.6-2.4,1.8-4.5,3.7-6.2c1.7-1.5,3.7-2.6,6-3.3c2,11.2,4.1,22.2,5.7,30.5c0.1,0.7,0.3,1.3,0.4,2
			C167.8,207.3,163.5,207.2,159.3,206.1 M170.6,173.2c10.3-0.5,14.5,6.9,15.4,11.7c0.5,2.5,0.5,6.9-1.1,11.1
			c-1.2,3.2-3.6,7.2-8.7,9.2c-0.1-0.4-0.1-0.8-0.2-1.3C174.4,195.2,172.5,184.3,170.6,173.2 M163.3,102.8c1.8-5.7,4.5-8.9,6.5-10.6
			c1.7-1.5,3.4-2.2,4.3-2.2c0.1,0,0.3,0,0.4,0c0.5,0.1,1,0.7,1.4,1.6c2.3,4.3,1.6,10.9,0.2,15.3c-1.6,5.4-4.5,10.9-13.2,20.5
			c-0.2-1.1-0.3-2.1-0.5-3.1C161.1,116,161.4,108.8,163.3,102.8"/>
		<path class="st1" d="M2469,867.1l-0.2-0.3c-0.1-0.1-0.3-0.3-0.6-0.7l-11.4-14.1c-0.3-0.3-0.2-1.1,0-1.5l10.1-15.3
			c0.1-0.2,0.2-0.5,0.2-0.7v-0.9c0-0.3-0.1-0.6-0.3-0.8l-16.1-21.7c0,0-0.8-1.2-1.8-0.3c-1,0.8-0.2,2.1-0.2,2.1l7.5,10.3
			c0.4,0.6,0.4,1.8,0,2.4l-10,15.3c-0.1,0.2-0.2,0.6-0.2,0.8v0.9c0,0.3,0.1,0.6,0.3,0.8l11.1,13.8c-0.4-0.1-1.3-0.3-2.5-0.3
			c-1.7,0-3.9,0.4-5.7,2c-2.2,2-3.4,4.8-3.4,7.2c0,1.4,0.3,2.8,1.1,3.9c2.1,3.2,9.5,12.6,9.5,12.6s0.9,1.1,1.8,0.4
			c0.9-0.7,0.7-1.6,0.4-2.1c-0.3-0.5-3.5-6.3-3.5-6.3s-0.7-1.4-0.7-3.2c0-1.3,0.4-2.9,1.7-4.2c1.2-1.2,2.6-1.6,3.9-1.6
			s2.4,0.4,3.2,0.9l3.9,2.5c0,0,1.2,0.6,1.8-0.3C2469.5,868,2469.3,867.6,2469,867.1"/>
		<path class="st1" d="M2469,631.4l-0.2-0.3c-0.1-0.1-0.3-0.3-0.6-0.7l-11.4-14.1c-0.3-0.3-0.2-1.1,0-1.5l10.1-15.3
			c0.1-0.2,0.2-0.5,0.2-0.7V598c0-0.3-0.1-0.6-0.3-0.8l-16.1-21.7c0,0-0.8-1.2-1.8-0.3c-1,0.8-0.2,2.1-0.2,2.1l7.5,10.3
			c0.4,0.6,0.4,1.8,0,2.4l-10,15.3c-0.1,0.2-0.2,0.6-0.2,0.8v0.9c0,0.3,0.1,0.6,0.3,0.8l11.1,13.8c-0.4-0.1-1.3-0.3-2.5-0.3
			c-1.7,0-3.9,0.4-5.7,2c-2.2,2-3.4,4.8-3.4,7.2c0,1.4,0.3,2.8,1.1,3.9c2.1,3.2,9.5,12.6,9.5,12.6s0.9,1.1,1.8,0.4
			c0.9-0.7,0.7-1.6,0.4-2.1c-0.3-0.5-3.5-6.3-3.5-6.3s-0.7-1.4-0.7-3.2c0-1.3,0.4-2.9,1.7-4.2c1.2-1.2,2.6-1.6,3.9-1.6
			s2.4,0.4,3.2,0.9l3.9,2.5c0,0,1.2,0.6,1.8-0.3C2469.5,632.3,2469.3,631.9,2469,631.4"/>
		<path class="st1" d="M2469,177.9l-0.2-0.3c-0.1-0.1-0.3-0.3-0.6-0.7l-11.4-14.1c-0.3-0.3-0.2-1.1,0-1.5l10.1-15.3
			c0.1-0.2,0.2-0.5,0.2-0.7v-0.9c0-0.3-0.1-0.6-0.3-0.8l-16.1-21.7c0,0-0.8-1.2-1.8-0.3c-1,0.8-0.2,2.1-0.2,2.1l7.5,10.3
			c0.4,0.6,0.4,1.8,0,2.4l-10,15.3c-0.1,0.2-0.2,0.6-0.2,0.8v0.9c0,0.3,0.1,0.6,0.3,0.8l11.1,13.8c-0.4-0.1-1.3-0.3-2.5-0.3
			c-1.7,0-3.9,0.4-5.7,2c-2.2,2-3.4,4.8-3.4,7.2c0,1.4,0.3,2.8,1.1,3.9c2.1,3.2,9.5,12.6,9.5,12.6s0.9,1.1,1.8,0.4s0.7-1.6,0.4-2.1
			c-0.3-0.5-3.5-6.3-3.5-6.3s-0.7-1.4-0.7-3.2c0-1.3,0.4-2.9,1.7-4.2c1.2-1.2,2.6-1.6,3.9-1.6s2.4,0.4,3.2,0.9l3.9,2.5
			c0,0,1.2,0.6,1.8-0.3C2469.5,178.8,2469.3,178.4,2469,177.9"/>
		<path class="st1" d="M1119.4,887.9c0-0.2,0.9-3.6,1-3.9c0.1-0.4,1.9-6.1,5.6-11.7c2.7-4.2,12.1-16.4,11.8-16.4
			c0,0,7.3-9.4,7.8-22.2v-2.3c0-6.1-0.8-14.6-4.3-23.2c-0.4-1-0.8-2-1.9-1.6c-1.1,0.4-0.8,1.6-0.5,2.7c1.8,6.9,2.8,14.1,2.8,21.2
			c0,8.3-3,12.5-4.8,15.6c-6.5,11-15.1,16.4-19.2,17.8c-0.5,0.2-0.8,0.6-0.8,1.1v6.2v16.3c0,0.7,0.6,1.3,1.3,1.3
			C1118.7,888.7,1119.3,888.3,1119.4,887.9"/>
		<path class="st1" d="M2049.3,887.9c0-0.2,0.9-3.6,1-3.9c0.1-0.4,1.9-6.1,5.6-11.7c2.7-4.2,12.1-16.4,11.8-16.4
			c0,0,7.3-9.4,7.8-22.2v-2.3c0-6.1-0.8-14.6-4.3-23.2c-0.4-1-0.8-2-1.9-1.6s-0.8,1.6-0.5,2.7c1.8,6.9,2.8,14.1,2.8,21.2
			c0,8.3-3,12.5-4.8,15.6c-6.5,11-15.1,16.4-19.2,17.8c-0.5,0.2-0.8,0.6-0.8,1.1v6.2v16.3c0,0.7,0.6,1.3,1.3,1.3
			C2048.6,888.7,2049.2,888.3,2049.3,887.9"/>
		<path class="st1" d="M1149.9,593.4c-0.1-0.3-1-3.8-1-4c-0.1-0.4-0.7-0.7-1.2-0.7c-0.7,0-1.3,0.6-1.3,1.3v16.3v6.2
			c0,0.5,0.4,0.9,0.8,1.1c4.2,1.3,12.8,6.7,19.2,17.8c1.8,3.1,4.7,7.2,4.7,15.6c0,7.1-1.1,14.7-2.9,21.6c-0.3,1.1-0.6,2.1,0.5,2.5
			s1.5-0.4,1.9-1.4c3.6-8.7,4.5-17.9,4.5-24v-1.9c-0.5-12.8-7.8-22.2-7.8-22.2c0.3,0-9.1-12.2-11.8-16.4
			C1151.8,599.4,1150,593.7,1149.9,593.4"/>
		<path class="st1" d="M2079.8,593.4c-0.1-0.3-1-3.8-1-4c-0.1-0.4-0.7-0.7-1.2-0.7c-0.7,0-1.3,0.6-1.3,1.3v16.3v6.2
			c0,0.5,0.4,0.9,0.8,1.1c4.2,1.3,12.8,6.7,19.2,17.8c1.8,3.1,4.7,7.2,4.7,15.6c0,7.1-1.1,14.7-2.9,21.6c-0.3,1.1-0.6,2.1,0.5,2.5
			c1.1,0.4,1.5-0.4,1.9-1.4c3.6-8.7,4.5-17.9,4.5-24v-1.9c-0.5-12.8-7.8-22.2-7.8-22.2c0.3,0-9.1-12.2-11.8-16.4
			C2081.7,599.4,2079.9,593.7,2079.8,593.4"/>
		<path class="st1" d="M1149.9,115c-0.1-0.3-1-3.8-1-4c-0.1-0.4-0.7-0.7-1.2-0.7c-0.7,0-1.3,0.6-1.3,1.3v16.3v6.2
			c0,0.5,0.4,0.9,0.8,1.1c4.2,1.3,12.8,6.7,19.2,17.8c1.8,3.1,4.7,7.2,4.7,15.6c0,7.1-1.1,14.7-2.9,21.6c-0.3,1.1-0.6,2.1,0.5,2.5
			c1.1,0.4,1.5-0.4,1.9-1.4c3.6-8.7,4.5-17.9,4.5-24v-1.9c-0.5-12.8-7.8-22.2-7.8-22.2c0.3,0-9.1-12.2-11.8-16.4
			C1151.8,121.1,1150,115.4,1149.9,115"/>
		<path class="st1" d="M2079.8,115c-0.1-0.3-1-3.8-1-4c-0.1-0.4-0.7-0.7-1.2-0.7c-0.7,0-1.3,0.6-1.3,1.3v16.3v6.2
			c0,0.5,0.4,0.9,0.8,1.1c4.2,1.3,12.8,6.7,19.2,17.8c1.8,3.1,4.7,7.2,4.7,15.6c0,7.1-1.1,14.7-2.9,21.6c-0.3,1.1-0.6,2.1,0.5,2.5
			c1.1,0.4,1.5-0.4,1.9-1.4c3.6-8.7,4.5-17.9,4.5-24v-1.9c-0.5-12.8-7.8-22.2-7.8-22.2c0.3,0-9.1-12.2-11.8-16.4
			C2081.7,121.1,2079.9,115.4,2079.8,115"/>
		<path class="st1" d="M262.7,309.4c0.1,0,0.3,0,0.4,0c0.3,0,0.8,0,1.4,0.1c2.9,0.2,5.1,0.3,8.3,0.3c-1.7,5.9-4.5,12.9-6.7,16.3
			l3.6,1.4c1-1.3,2.1-2.2,4.2-3.2c3.4-1.7,7.8-2.7,11.6-2.7c6,0,9.6,2.3,9.6,6.1c0,4.8-5.2,7.9-13.1,7.9c-4.5,0-8.6-0.8-12.5-2.5
			c0.1,1.6,0.2,2.5,0.2,2.8c0,0.1,0,0.1,0,0.3c0,0.1,0,0.4,0,0.8c4,1.4,7.9,2,12.3,2c10.1,0,16.8-4.5,16.8-11.2
			c0-5.6-5-9.2-12.9-9.2c-5.5,0-11.1,1.6-14.6,4.2l0-0.1c1.4-2.3,3.6-8,5-12.9c7.5-0.2,11.5-0.5,18.5-1.4c1.1-0.1,1.4-0.1,2.2-0.2
			l-0.2-3.6c-3.2,1.1-9.9,1.8-19.7,2.1c0.5-1.8,0.7-2.4,1.4-5.3c0.6-2.4,0.6-2.4,0.8-3.2l-4-0.4c-0.1,2.2-0.6,5-1.6,8.9
			c-5.2,0-8.5-0.2-10.8-0.9L262.7,309.4"/>
		<path class="st1" d="M270.3,356.2c6.7,1.9,12.9,2.8,21,3.3l0.6-3.6c-8.2-0.1-15.5-1.2-20.4-3.1L270.3,356.2 M265.1,372.5
			c3.9-1.6,13.9-3.4,19-3.4c2.6,0,4.9,0.4,6.1,1.1c2.1,1.1,3.2,3.1,3.2,5.6c0,2.3-0.9,4.6-2.6,6.8c-1.2,1.6-2.3,2.4-4.3,3.6
			c-4.2,2.4-8.8,3.7-14,4.1c0.8,1.2,0.9,1.6,1.6,3.6c7.5-1.4,10.7-2.4,14.5-4.8c5.6-3.4,8.6-8.1,8.6-13.5c0-3.4-1.4-6.2-4.2-7.9
			c-2-1.3-4.9-1.9-8.6-1.9c-3.9,0-8.6,0.5-15.2,1.8c-3.9,0.8-3.9,0.8-5,0.9L265.1,372.5"/>
		<path class="st1" d="M259.6,422.1c1.3-0.3,1.8-0.4,2.9-0.6c0.4-0.1,2.9-0.5,7.1-1.1c-1.6,6.4-3.1,10.8-5.5,15.8
			c-1.8,3.8-3.6,7.1-5.2,9.1l3.4,2c1.5-2.8,2.6-4.8,3.2-6c3.4-6.9,5.7-13.3,7.5-21.2c1.9-0.2,2.5-0.2,3.6-0.2c4.6,0,6.1,1.7,6.1,7
			c0,5.6-0.8,10.7-2.1,13.9c-0.6,1.6-1.6,2.4-2.9,2.4c-1.8,0-4.6-0.9-7.4-2.3c0.1,0.9,0.1,1.2,0.1,2c0,0.6,0,1-0.1,1.8
			c3.3,1.4,5.4,1.9,7.6,1.9c2.3,0,3.7-0.6,4.9-2.4c2-2.9,3.4-9.5,3.4-17.2c0-4.1-0.7-6.4-2.5-8.1c-1.5-1.5-3.6-2.1-7.2-2.1
			c-1.1,0-1.8,0.1-2.9,0.1c0.4-2.4,0.8-4.2,1-5.7c0.5-2.9,0.6-3.7,1-4.8l-4-0.4c0,0.3,0,0.6,0,0.6c0,2.1-0.6,6.9-1.5,10.6
			c-4.1,0.6-9.2,1.2-11.1,1.3L259.6,422.1 M289.1,415.5c4.8,4.9,8.3,11.1,10.2,17.9l3.2-1.9c-2.4-7-5.4-12.2-10.5-17.7L289.1,415.5"
			/>
		<path class="st1" d="M270.3,464.1c6.7,1.9,12.9,2.8,21,3.3l0.6-3.6c-8.2-0.1-15.5-1.2-20.4-3.1L270.3,464.1 M265.1,480.3
			c3.9-1.6,13.9-3.4,19-3.4c2.6,0,4.9,0.4,6.1,1.1c2.1,1.1,3.2,3.1,3.2,5.6c0,2.3-0.9,4.6-2.6,6.8c-1.2,1.6-2.3,2.4-4.3,3.6
			c-4.2,2.4-8.8,3.7-14,4.1c0.8,1.2,0.9,1.6,1.6,3.6c7.5-1.4,10.7-2.4,14.5-4.8c5.6-3.4,8.6-8.1,8.6-13.5c0-3.4-1.4-6.2-4.2-7.9
			c-2-1.3-4.9-1.9-8.6-1.9c-3.9,0-8.6,0.6-15.2,1.8c-3.9,0.8-3.9,0.8-5,0.9L265.1,480.3"/>
		<path class="st1" d="M431,298c0.2,1.2,0.2,1.6,0.2,4c0,7.2,0.4,16.8,0.8,22.6c0,0.2,0,0.2,0,0.3c0,0.2,0,0.2,0,0.4
			c-0.1-0.1-0.1-0.1-0.2-0.1c-0.2,0-0.2-0.1-0.5-0.1c-1-0.2-2.8-0.4-4.3-0.4c-7.1,0-11.8,3.1-11.8,7.9c0,4.6,4,7.4,10.4,7.4
			c4.1,0,7.3-1.2,8.9-3.5c0.8-1.1,1.2-2.9,1.2-5c0-0.7-0.1-1.6-0.2-2.2c0.5,0.2,0.5,0.2,1.2,0.6c1.7,0.8,4.5,2.3,6.8,3.9
			c2.7,1.8,4.2,3,5.2,4.3l2.3-3.5c-1.2-0.8-1.2-0.8-2.3-1.6c-5.2-3.8-9.3-5.9-13.3-7.1c-0.2-3.2-0.5-8.1-0.7-12.9
			c4.2-0.1,7.5-0.4,12-1.1c2.2-0.3,2.2-0.3,3-0.4l-0.4-3.7c-2.8,1.1-9.2,1.9-14.7,1.9c-0.1-3.5-0.1-4.1-0.1-5.2c0-3.9,0-5.3,0.3-6.6
			H431 M432.2,328.6c0.1,0,0.2,2,0.2,2.8c0,1.9-0.3,3-1.2,3.8c-1.2,1.1-3.1,1.7-5.5,1.7c-2.7,0-5-0.8-6-2c-0.5-0.5-0.8-1.4-0.8-2.2
			c0-2.9,3.1-4.7,8.2-4.7C429,327.9,430.1,328,432.2,328.6"/>
		<path class="st1" d="M422.8,356.2c6.7,1.9,12.8,2.8,21,3.3l0.5-3.6c-8.2-0.1-15.5-1.2-20.3-3.1L422.8,356.2 M417.6,372.5
			c3.9-1.6,13.9-3.4,19-3.4c2.6,0,4.9,0.4,6.2,1.1c2,1.1,3.2,3.1,3.2,5.6c0,2.3-0.9,4.6-2.5,6.8c-1.2,1.6-2.3,2.4-4.3,3.6
			c-4.2,2.4-8.8,3.7-14,4.1c0.8,1.2,1,1.6,1.6,3.6c7.4-1.4,10.7-2.4,14.5-4.8c5.5-3.4,8.6-8.1,8.6-13.5c0-3.4-1.5-6.2-4.2-7.9
			c-2-1.3-4.8-1.9-8.6-1.9c-4,0-8.6,0.5-15.2,1.8c-3.9,0.8-3.9,0.8-5.1,0.9L417.6,372.5"/>
		<path class="st1" d="M416.1,417.1c0.9-0.1,1-0.1,3.1-0.2c5.7-0.1,9.7-0.3,13.5-0.9c1.2,2.7,1.5,3.2,2.8,5.7
			c-4.1,0.8-10.5,1.2-15.8,1.2c-2,0-2.9-0.1-4-0.1l0.1,3.3c0.9-0.1,1.1-0.1,3.5-0.2c9.3-0.3,12.6-0.6,17.5-1.4
			c1.8,3.1,3.8,6.1,5.3,7.7c-3.3-1.1-5.9-1.4-10.1-1.4c-9.5,0-15.2,3.2-15.2,8.6c0,2.6,1.3,4.9,3.8,6.2c2.5,1.4,5.7,2.1,10.3,2.1
			c4.5,0,8.7-0.6,12.8-1.8c2.3-0.7,2.3-0.7,3-0.9l-0.7-3.9c-3,1.8-9.6,3.3-14.8,3.3c-6.8,0-10.6-1.8-10.6-5.1
			c0-3.5,4.6-5.7,11.8-5.7c2.2,0,4.8,0.2,6.5,0.5c2.5,0.4,3.6,0.8,5.5,1.9l3-2.1c-3.8-4.5-4.4-5.2-7.3-9.9c1.8-0.3,4.3-0.9,7.8-1.8
			c1.7-0.4,1.9-0.4,2.7-0.6l-0.4-3.4c-2,1-4.8,1.8-11.4,3.1c-0.8-1.4-2.1-4-2.9-5.6c2.8-0.5,8.2-1.6,12.6-2.8l-0.3-3.2
			c-2.8,1.2-7.5,2.3-13.3,3.3c-1.2-2.7-2.2-5.2-2.7-7.1l-3.8,0.6c0.5,0.7,1.5,3,3,6.9c-4.6,0.5-7.6,0.7-11.8,0.7
			c-1.7,0-2.5-0.1-3.8-0.1L416.1,417.1"/>
		<path class="st1" d="M414.3,475.5c0.8-0.4,1.5-0.6,3.6-1.2c8.7-2.4,15.2-3.6,20.4-3.6c6.8,0,11,3.4,11,9c0,5.6-3.9,10.1-10.7,12.6
			c-3.8,1.4-8.3,2.1-13.9,2.3c0.9,1.4,1.2,1.9,1.5,3.7c7.8-0.6,12-1.6,16.6-3.8c6.7-3.2,10.4-8.5,10.4-14.8c0-7.7-5.8-12.5-15-12.5
			c-4.1,0-8.9,0.6-14.5,1.8c-8.9,2-8.9,2-10.4,2.1L414.3,475.5"/>
		<path class="st1" d="M588.4,305.2c2.5,0.1,3.9,0.4,5.8,1.2c5,2.2,8,6.9,8,12.6c0,6.1-3.4,11.5-8.9,14c-2.3,1.1-4.7,1.8-8.3,2.3
			c1,1.2,1.2,1.7,1.8,3.4c3.5-0.8,5.3-1.4,7.6-2.3c7.2-3.1,11.5-9.5,11.5-17.2c0-4.8-1.7-9.1-4.8-12.2c-3.2-3.2-8.2-4.9-13.8-4.9
			c-6.7,0-12.2,2.2-16.2,6.6c-3.3,3.8-5.2,8.7-5.2,13.8c0,7,3.5,12.2,8.3,12.2c3.6,0,6.5-3,9.5-9.6
			C585.7,319.8,587.6,312.1,588.4,305.2 M584.8,305.2c-0.6,6.4-2.5,13.8-4.5,18.5c-2.2,4.9-4.2,7.2-6.2,7.2c-2.7,0-4.8-3.7-4.8-8.5
			c0-6.2,3.1-11.9,8.1-14.9C579.6,306.2,581.8,305.5,584.8,305.2"/>
		<path class="st1" d="M573.2,358.7c1.1-0.2,1.6-0.2,2.7-0.2c7.6-0.2,13.6-0.6,15.2-0.9c0.3,0,0.3,0,0.5,0l0.1,0.1l-0.2,0.2
			c-0.1,0.1-0.2,0.2-0.2,0.2c-0.4,0.4-0.4,0.4-0.7,0.7c-3.5,3.4-11.4,10.3-16.7,14.6c-3.4,2.8-5.2,4.1-7,5.1l2.2,3.2
			c5.8-5.3,13.7-8.6,21-8.6c6.8,0,10.8,2.9,10.8,7.7c0,4.2-2.8,7.3-8,8.8c-0.7-2.2-1.2-3.4-2.3-4.8c-2-2.6-4.9-4.1-8.2-4.1
			c-4.2,0-7.2,2.5-7.2,5.9c0,4.6,4,7.2,11.1,7.2c11.1,0,18.4-5.1,18.4-12.9c0-6.4-5.4-10.5-13.7-10.5c-4.4,0-8.5,1.1-12.2,3.1
			l-0.1-0.2c3.5-2.2,9.6-7.4,16.5-14.2c1.6-1.6,1.9-1.8,2.5-2.1l-2.1-2.8c-0.7,0.4-1.1,0.5-2.4,0.6c-4.5,0.4-11.1,0.7-15.3,0.7
			c-2.4,0-3.3-0.1-4.7-0.3L573.2,358.7 M589.6,390.4c-1.8,0.3-2.4,0.4-3.7,0.4c-2.1,0-4.3-0.4-5.6-1.2c-1.4-0.8-2-1.8-2-3
			c0-1.9,1.5-3.1,4-3.1C586,383.4,588.5,385.8,589.6,390.4"/>
		<path class="st1" d="M569.9,407.2c-0.1,1.2-0.2,1.7-0.7,4c-1.7,7.4-2.2,12.7-2.2,19.8c0,5.2,0.3,8.9,1.3,14.1c0.2,1,0.2,1.2,0.3,2
			l3.6-0.3c0-0.4,0-0.6,0-0.8c0-2.8,1.8-8.8,4-13.8l-2.4-1.2c-1.6,3.7-2.5,6.4-3.2,9.8c-0.2-2.6-0.3-5.6-0.3-9.5
			c0-6,0.5-10.4,1.5-15.6c0.8-3.4,1.3-5.9,2.1-8L569.9,407.2 M580.2,416.6c3.2,0.4,5.2,0.5,8,0.5c3.8,0,7.8-0.2,10.8-0.6
			c2.2-0.3,3.3-0.4,3.5-0.4l-0.2-3.6c-3.4,0.9-7.9,1.4-13.4,1.4c-3.9,0-6.3-0.2-8.5-0.8L580.2,416.6 M583.9,426.4
			c-3.1,3.6-4.3,6.2-4.3,9.3c0,1.9,0.5,3.4,1.5,4.6c2.2,2.6,5.8,3.8,11.5,3.8c3.4,0,6.8-0.3,10.2-1c1-0.2,1.1-0.2,1.8-0.2L604,439
			c-2.7,1.1-7,1.8-11.5,1.8c-6.5,0-9.6-1.8-9.6-5.5c0-2.2,1.2-4.6,3.8-7.4L583.9,426.4"/>
		<path class="st1" d="M568.5,473.6c0.8-0.1,1-0.1,2-0.1c6.6-0.1,12.8-0.6,17.8-1.3c0.3,0.5,0.3,0.6,0.8,1.7c2.2,4.2,3.4,6.2,6,9.8
			c-2.1-1.1-6-1.8-10.3-1.8c-4,0-7,0.5-9.7,1.8c-3.5,1.7-5.7,4.9-5.7,8.2c0,2,0.8,3.9,2.2,5.5c2.3,2.4,6.9,3.8,13,3.8
			c5,0,9.7-0.9,14.7-2.7l-0.5-3.8c-3.8,1.9-9.2,3.2-14.2,3.2c-4.3,0-7.9-0.9-9.8-2.3c-1.2-1-1.9-2.3-1.9-3.9c0-1.8,1-3.6,2.7-4.7
			c2.2-1.4,5.3-2.1,9.5-2.1c3.4,0,6.2,0.4,8.8,1.3c1.4,0.5,2.1,0.9,3.5,2l3.4-1.9c-3.5-4.6-7.2-10.6-9-14.6c0.5-0.1,0.5-0.1,1.7-0.3
			c3.2-0.6,3.8-0.8,6.8-1.6c1.5-0.4,1.9-0.5,3-0.7l-0.5-3.6c-2.7,1.1-7.2,2.3-12.1,3.1c-0.5-0.9-0.6-1.2-1.8-4.4
			c-1.2-3.2-1.2-3.2-1.5-4.5l-4,0.6c0.5,0.9,0.8,1.6,1.3,2.9c0.9,2.2,1.7,4.2,2.5,5.9c-4.7,0.7-10.3,1.1-14.9,1.1
			c-1.7,0-2.5-0.1-3.8-0.2L568.5,473.6"/>
		<path class="st1" d="M756.5,334.3c-0.6-0.4-0.9-0.5-1.7-1.1c-5.2-3.8-9.6-6.1-13.9-7.3c-0.2-4.8-0.2-4.8-0.3-7.6
			c3.7-0.2,7.7-0.7,11.1-1.2c1.8-0.2,2.2-0.3,2.9-0.4l-0.2-3.4c-2.8,0.9-7.1,1.6-13.9,2.1c0-2.7,0-2.7-0.1-6.8
			c5.5-0.4,6.9-0.5,11.6-1.2c2.6-0.3,2.6-0.3,3.5-0.4l-0.2-3.4c-2.8,0.9-7.9,1.6-14.8,2c0-3.6,0.1-6,0.3-7h-3.8
			c0.2,1.1,0.2,1.1,0.2,7.2c-1.7,0-3.4,0.1-4.4,0.1c-5.4,0-10.6-0.4-12.8-1l0,3.4c0.3-0.1,0.5-0.1,0.7-0.1c0.2,0,0.5,0,0.9,0.1
			c4.5,0.4,8.6,0.5,12.2,0.5c1.2,0,2,0,3.4-0.1l0.1,6.9c-1.4,0.1-3.1,0.1-4.5,0.1c-5,0-9.2-0.3-11.4-0.8l-0.1,3.3c0.2,0,0.4,0,0.4,0
			c0.3,0,0.7,0,1.2,0c3.1,0.2,5.5,0.4,8.5,0.4c1.6,0,4.1-0.1,5.9-0.1c0.1,1.3,0.1,2.2,0.1,2.9c0,1.4,0,2.5,0.1,2.9
			c0,0.3,0,0.5,0,0.6c0,0.4,0,0.4,0.1,0.6c-2.2-0.3-2.9-0.4-4.5-0.4c-2.2,0-3.7,0.1-5.2,0.5c-4.4,1-7,3.6-7,6.9c0,2.1,1,4,2.7,5.2
			c1.7,1.3,4.4,2,7.8,2c3.9,0,7-1.1,8.4-3.1c0.9-1.2,1.2-2.8,1.2-5.4c0-0.7,0-0.7-0.1-1.8c1.3,0.6,2.5,1.1,3.3,1.5
			c4.2,2.2,7.9,4.8,10.2,7.1L756.5,334.3 M737.7,330.3c0,2.4-0.3,3.8-1,4.5c-1,1.1-2.9,1.6-5.5,1.6c-4.4,0-6.9-1.5-6.9-4.1
			c0-2.7,3.2-4.5,8.2-4.5c2.2,0,3.2,0.1,5.1,0.6L737.7,330.3"/>
		<path class="st1" d="M719.3,367.7c0.9-0.4,1.5-0.6,3.6-1.2c8.6-2.4,15.2-3.6,20.4-3.6c6.8,0,11,3.4,11,9s-3.8,10.1-10.7,12.6
			c-3.8,1.4-8.3,2.1-13.9,2.3c0.9,1.4,1.1,2,1.5,3.7c7.8-0.7,12-1.6,16.5-3.8c6.7-3.2,10.4-8.5,10.4-14.8c0-7.7-5.8-12.5-15-12.5
			c-4.2,0-9,0.6-14.5,1.8c-8.9,2-8.9,2-10.4,2.1L719.3,367.7"/>
		<path class="st1" d="M740.9,413c2.5,0.1,4,0.4,5.8,1.2c5,2.2,8,6.8,8,12.6c0,6.1-3.4,11.5-8.9,14c-2.3,1.1-4.7,1.8-8.3,2.3
			c1,1.2,1.2,1.7,1.8,3.4c3.5-0.8,5.3-1.4,7.6-2.3c7.2-3.1,11.5-9.5,11.5-17.2c0-4.8-1.7-9.1-4.8-12.2c-3.2-3.2-8.2-4.9-13.8-4.9
			c-6.7,0-12.2,2.2-16.2,6.6c-3.3,3.8-5.2,8.7-5.2,13.8c0,7,3.5,12.2,8.3,12.2c3.6,0,6.6-3,9.5-9.6C738.2,427.6,740.1,420,740.9,413
			 M737.3,413.1c-0.6,6.4-2.5,13.8-4.5,18.5c-2.1,4.9-4.1,7.2-6.2,7.2c-2.7,0-4.8-3.7-4.8-8.5c0-6.2,3.1-11.9,8.2-14.9
			C732.1,414,734.3,413.3,737.3,413.1"/>
		<path class="st1" d="M732,460c-0.3,1.5-1.4,4.6-6.9,19.1c-7.2,19.2-7.2,19.2-7.8,20.6l3.8,1.2c0.7-3,3-8.7,4.6-11.5
			c2.8-4.8,6-7.4,9-7.4c1.5,0,2.4,0.6,2.8,1.8c0.3,0.8,0.4,1.8,0.4,3.8v2.9c0,2.8,0.1,4.4,0.4,5.4c1,2.9,3.6,4.5,7.3,4.5
			c4.1,0,7.6-1.9,9.9-5.4c1.6-2.4,2.6-4.9,3.6-8.8c-1.5-0.8-2-1.3-3.3-2.6c-0.3,2.7-0.8,4.8-1.9,7.1c-1.9,4.2-4.5,6.2-8,6.2
			c-1.7,0-3.2-0.6-3.8-1.6c-0.6-0.9-0.8-2.1-0.8-4.8v-3.4c0-2.9-0.2-4.4-0.8-5.7c-0.9-1.8-2.8-2.9-5-2.9c-3.5,0-6.1,1.8-9.4,6.6
			l-0.2-0.1c0.2-0.4,0.2-0.5,0.5-0.9c0.2-0.5,0.5-0.9,0.5-1.1c2.1-4.3,2.1-4.3,3.6-8.2c4.9-12.5,4.9-12.5,5.5-13.8L732,460"/>
		<path class="st1" d="M915.4,313.8c0.8-0.4,1.5-0.6,3.6-1.2c8.7-2.4,15.2-3.5,20.4-3.5c6.8,0,10.9,3.4,10.9,9
			c0,5.6-3.8,10.1-10.7,12.6c-3.8,1.4-8.3,2.1-13.9,2.3c0.9,1.4,1.2,1.9,1.6,3.7c7.8-0.6,11.9-1.6,16.5-3.8
			c6.7-3.2,10.4-8.5,10.4-14.8c0-7.6-5.8-12.5-14.9-12.5c-4.2,0-9,0.6-14.5,1.9c-8.9,2-8.9,2-10.4,2.1L915.4,313.8"/>
		<path class="st1" d="M921.9,358.7c1.1-0.2,1.6-0.2,2.7-0.2c7.6-0.2,13.6-0.6,15.2-0.9c0.3,0,0.3,0,0.5,0l0.1,0.1l-0.2,0.2
			c-0.1,0.1-0.2,0.2-0.2,0.2c-0.4,0.4-0.4,0.4-0.7,0.7c-3.5,3.4-11.3,10.3-16.7,14.6c-3.4,2.8-5.2,4.1-7,5.1l2.2,3.2
			c5.8-5.3,13.7-8.6,21.1-8.6c6.8,0,10.8,2.9,10.8,7.7c0,4.2-2.8,7.3-8,8.8c-0.7-2.2-1.2-3.4-2.3-4.8c-2-2.6-4.9-4.1-8.2-4.1
			c-4.1,0-7.2,2.5-7.2,5.9c0,4.6,4.1,7.2,11.1,7.2c11.1,0,18.3-5.1,18.3-12.9c0-6.4-5.3-10.5-13.7-10.5c-4.4,0-8.4,1.1-12.2,3.1
			l-0.1-0.2c3.5-2.2,9.6-7.4,16.5-14.2c1.6-1.6,1.8-1.8,2.5-2.1l-2.1-2.8c-0.7,0.4-1.1,0.5-2.4,0.6c-4.5,0.4-11.2,0.7-15.3,0.7
			c-2.4,0-3.3-0.1-4.7-0.3L921.9,358.7 M938.3,390.4c-1.8,0.3-2.4,0.4-3.6,0.4c-2.2,0-4.3-0.4-5.6-1.2c-1.3-0.8-2-1.8-2-3
			c0-1.9,1.6-3.1,4.1-3.1C934.7,383.4,937.2,385.8,938.3,390.4"/>
		<path class="st1" d="M920.9,413.8c0.7,0,0.8,0.1,1.7,0.1c3.2,0.4,7.5,0.7,11,0.7c2.8,0,4.6-0.2,7.6-0.7c-0.5,0.3-0.6,0.3-1,0.5
			c-0.6,0.3-0.7,0.4-1.2,0.7c-2.2,1.2-3.4,2-6.7,4.1l2.6,2.1c4.9-3.6,9.5-6.3,12.6-7.6l-0.2-3.3c-2.8,0.7-6.8,1.1-12.7,1.1
			c-5.7,0-9.6-0.3-13.3-1.2L920.9,413.8 M923.9,426.6c-3.8,3.2-5.8,6.4-5.8,9.6c0,3.4,2,6,5.7,7.6c2.4,0.9,6.7,1.6,11.5,1.6
			c4.4,0,9.1-0.4,13.5-1.2c0.8-0.1,1-0.2,1.7-0.2l-0.4-4.1c-2.8,1.1-8.8,1.9-15,1.9c-4,0-7.2-0.4-9.2-1c-2.8-0.9-4.2-2.6-4.2-4.9
			c0-2.4,1.5-4.7,4.8-7.4L923.9,426.6"/>
		<path class="st1" d="M924.8,460.8c0.3,0.8,0.4,1,0.8,3.1c1.3,6.4,2.2,9.9,3.7,14c-3.1,1.6-4.7,2.5-6.6,4.1
			c-2.9,2.4-4.4,5.3-4.4,8.5c0,3.9,2.1,6.7,6.2,8.2c2.4,0.9,6.2,1.4,11.1,1.4c3.5,0,5.9-0.2,11.1-0.7c2.8-0.3,2.8-0.3,3.7-0.3
			L950,495c-3,1.1-8.6,1.7-14.3,1.7c-9.8,0-13.7-1.8-13.7-6.3c0-4.1,3.7-7.4,12.2-10.8c4.4-1.8,11.6-4.1,15.1-4.9l-1.5-3.8
			c-1,0.5-1.5,0.7-3.2,1.3c-7.8,2.7-9.1,3.2-12.1,4.4c-1.7-5-3.5-13.2-3.8-16.5L924.8,460.8"/>
		<path class="st1" d="M1142.8,299.1c1.5,1.6,3.9,5.3,5.2,8l2.5-1.5c-1.5-3-2.9-5.1-5.2-7.8L1142.8,299.1 M1110.6,314.5
			c2.2-0.7,3.7-0.9,10.1-1.8c-2.2,9.4-6.6,19.4-10.7,24.9l3.4,2c5.2-9.1,8.7-17.8,10.8-27.2c1.8-0.2,2.5-0.2,3.6-0.2
			c4.7,0,6.2,1.7,6.2,7c0,5.6-0.8,10.7-2.1,13.9c-0.7,1.6-1.6,2.4-2.8,2.4c-1.8,0-4.6-0.9-7.5-2.3c0.2,0.9,0.2,1.2,0.2,1.9
			c0,0.7,0,1.1-0.1,1.8c3.3,1.4,5.4,1.9,7.5,1.9c2.4,0,3.7-0.6,4.9-2.3c2.1-2.9,3.3-9.6,3.3-17.2c0-4.1-0.7-6.4-2.4-8.1
			c-1.6-1.5-3.7-2.1-7.2-2.1c-1.2,0-1.8,0.1-3,0.2c0.4-2.2,0.8-4.5,1.1-5.7c0.4-2.7,0.7-3.8,0.9-4.8l-4-0.5c0,0.3,0,0.6,0,0.7
			c0,2.1-0.7,6.8-1.5,10.6c-7.3,1.1-9.2,1.2-11,1.3L1110.6,314.5 M1148.5,296.4c2,2.2,4.1,5.5,5.1,7.9l2.5-1.5
			c-1.6-3.1-2.9-5-5.1-7.8L1148.5,296.4 M1140.1,307.8c4.5,4.5,8.6,11.6,10.2,18l3.2-1.8c-2.1-6.6-5.5-12.4-10.4-17.7L1140.1,307.8"
			/>
		<path class="st1" d="M1112,363.3c0.8-0.1,1-0.1,3.1-0.1c5.6-0.1,9.9-0.4,13.5-0.9c1.2,2.5,1.6,3.3,2.8,5.7
			c-4.1,0.8-10.6,1.2-15.8,1.2c-2,0-2.9-0.1-4-0.2l0.1,3.3c0.9-0.1,1.1-0.1,3.5-0.2c8.6-0.2,12.8-0.6,17.6-1.4
			c1.6,2.8,3.9,6.1,5.3,7.7c-3.3-1.1-5.9-1.5-10.1-1.5c-4.8,0-8.6,0.8-11.3,2.4c-2.5,1.5-4,3.8-4,6.2c0,2.6,1.4,4.9,3.8,6.3
			c2.5,1.5,5.7,2.1,10.3,2.1c4.5,0,8.7-0.6,12.8-1.9c1.1-0.3,1.7-0.5,1.8-0.6c0.5-0.1,0.6-0.2,1.2-0.2l-0.7-3.9
			c-3,1.9-9.6,3.4-14.8,3.4c-6.9,0-10.7-1.9-10.7-5.1c0-3.5,4.6-5.7,11.8-5.7c2.3,0,4.8,0.2,6.6,0.5c2.4,0.4,3.6,0.8,5.5,1.9
			l2.9-2.1c-3.5-4.1-4.6-5.6-7.3-9.9c1.6-0.3,4-0.9,7.8-1.8c1.6-0.4,1.9-0.5,2.7-0.6l-0.4-3.4c-1.6,0.9-5.5,2-11.4,3.2
			c-0.6-1-2.2-4.4-2.9-5.7c1.8-0.2,4.9-0.9,9.6-1.9l-0.4-3.1c-2,0.8-5.6,1.5-10.2,2.3c-1.2-2.4-2.4-5.8-2.7-7l-3.8,0.6
			c0.4,0.8,0.5,0.9,3,6.9c-4.6,0.6-7.7,0.8-11.8,0.8c-1.7,0-2.6-0.1-3.8-0.2L1112,363.3 M1141.1,352.8c1.5,1.6,3.9,5.3,5.1,8
			l2.5-1.5c-1.5-3-2.9-5.1-5.2-7.8L1141.1,352.8 M1146.8,350.2c1.9,2.2,4,5.4,5.1,7.9l2.5-1.5c-1.7-3.1-2.9-5-5.2-7.8L1146.8,350.2"
			/>
		<path class="st1" d="M1120.6,412.7c1.1-0.1,1.6-0.2,2.7-0.2c7.6-0.2,13.6-0.6,15.2-0.9c0.3-0.1,0.3-0.1,0.4-0.1l0.1,0.1l-0.2,0.2
			c-0.1,0.1-0.2,0.2-0.2,0.2c-0.4,0.4-0.4,0.4-0.7,0.7c-3.4,3.4-11.3,10.4-16.7,14.6c-3.4,2.8-5.2,4.1-7,5.1l2.2,3.2
			c5.8-5.4,13.7-8.6,21-8.6c6.8,0,10.8,2.8,10.8,7.6c0,4.2-2.8,7.3-8,8.8c-0.7-2.2-1.2-3.4-2.3-4.8c-2-2.6-4.9-4.1-8.2-4.1
			c-4.2,0-7.2,2.5-7.2,5.8c0,4.6,4,7.2,11.1,7.2c11.1,0,18.3-5.2,18.3-13c0-6.4-5.3-10.5-13.7-10.5c-4.4,0-8.5,1.1-12.2,3.1
			l-0.1-0.1c3.5-2.2,9.5-7.5,16.4-14.2c1.6-1.5,1.8-1.8,2.6-2.1l-2.1-2.8c-0.6,0.3-1.1,0.4-2.4,0.6c-4.5,0.3-11.2,0.6-15.3,0.6
			c-2.4,0-3.3-0.1-4.7-0.3L1120.6,412.7 M1137,444.3c-1.8,0.3-2.4,0.3-3.7,0.3c-2.2,0-4.3-0.4-5.6-1.1c-1.3-0.8-2-1.8-2-3.1
			c0-1.9,1.5-3.1,4-3.1C1133.4,437.4,1135.9,439.8,1137,444.3"/>
		<path class="st1" d="M1113.7,471c2.5-0.6,6.9-0.9,17.2-1.7c5.6-0.3,8.1-0.6,11-1.1c-1.9,0.9-3.2,1.6-4.8,2.6
			c-5.9,4-9.3,9.6-9.3,15.4c0,4.1,2,7.8,5.6,10.2c2.8,1.9,5.8,3,10.8,3.9c0.8,0.1,1,0.2,1.6,0.3l0.7-4c-0.2,0-0.4,0-0.5,0
			c-1.9,0-5.1-0.7-7.5-1.6c-4.5-1.7-7-5.1-7-9.2c0-4.1,2.1-8.2,6.1-11.6c2.8-2.3,6.2-4.1,9.6-5.1c1.9-0.4,3.6-0.6,5.6-0.6l-0.3-3.8
			c-0.8,0.2-3.2,0.4-5.9,0.6c-6.5,0.3-22.5,1.2-28.4,1.6c-1.6,0.1-2.2,0.2-2.8,0.2c-0.3,0-0.8,0-1.8,0L1113.7,471"/>
		<path class="st1" d="M1223.7,301.7c6,1.9,9.7,2.6,18.7,3.4l0.7-3.3c-6.6-0.2-12.8-1.2-18.1-3.1L1223.7,301.7 M1219.4,314.6
			c1.3-0.1,2.3-0.2,4.8-0.4c8.5-0.6,11.8-0.9,14.9-1.6c-3.6,3.4-6.1,5.9-7.6,7.4c-4,4-8.2,8-11.8,11.3c-3,2.9-3.7,3.4-5.4,4.6
			l2.8,3.1c1.8-2,5.1-5.4,7.5-7.6c4.2-3.9,6.6-5.2,9.2-5.2c1,0,1.9,0.4,2.3,1.2c0.3,0.6,0.4,1.2,0.6,3.4c0.2,3.3,0.5,4.4,1.1,5.5
			c1.1,2,3.2,2.9,7,2.9c2.2,0,4.1-0.2,6.8-0.6c3.6-0.6,3.6-0.6,4.1-0.6l-0.6-3.9c-2.6,1.2-6.4,1.9-10.1,1.9c-2.3,0-3.4-0.4-4.2-1.4
			c-0.5-0.8-0.7-1.5-0.9-4.7c-0.2-2.8-0.6-4-1.6-5c-0.8-0.8-2-1.3-3.4-1.3c-1.3,0-2.2,0.3-5,1.7c2.5-1.9,5.7-4.8,9.9-9
			c2.9-2.9,3.4-3.4,4.4-4.2l-2.2-2.8c-0.7,0.2-1.2,0.4-2.4,0.6c-4.3,0.6-13.2,1.2-17.5,1.2c-1.1,0-1.8,0-3-0.1L1219.4,314.6"/>
		<path class="st1" d="M1219.1,353.2c-0.1,1.1-0.2,1.6-0.7,4c-1.6,7.4-2.2,12.7-2.2,19.8c0,5.2,0.4,8.8,1.3,14.1
			c0.2,0.9,0.2,1.2,0.3,2l3.6-0.3c0-0.3,0-0.6,0-0.8c0-2.8,1.8-8.8,4-13.8l-2.4-1.1c-1.6,3.6-2.6,6.4-3.2,9.8
			c-0.2-2.7-0.3-5.6-0.3-9.5c0-6,0.4-10.4,1.5-15.7c0.8-3.4,1.3-5.8,2.1-8L1219.1,353.2 M1229.4,362.7c3.2,0.4,5.2,0.5,8,0.5
			c3.9,0,7.9-0.2,10.8-0.6c2.2-0.3,3.4-0.5,3.5-0.5l-0.2-3.5c-3.3,0.9-7.8,1.3-13.4,1.3c-3.9,0-6.3-0.2-8.5-0.8L1229.4,362.7
			 M1233,372.4c-3.1,3.6-4.3,6.2-4.3,9.3c0,1.8,0.5,3.3,1.5,4.6c2.2,2.6,5.8,3.8,11.4,3.8c3.4,0,6.8-0.3,10.2-1
			c1-0.1,1.1-0.2,1.8-0.2l-0.5-3.8c-2.7,1.1-6.9,1.8-11.5,1.8c-6.4,0-9.6-1.8-9.6-5.5c0-2.2,1.2-4.6,3.8-7.4L1233,372.4"/>
		<path class="st1" d="M1227,420.4c0.1,0,0.2,0,0.2,0c0.1,0,0.2,0,0.5,0.1c0.1,0,0.4,0,0.8,0.1c0.2,0,0.8,0,1.6,0.1
			c1.8,0.1,3.6,0.1,5.6,0.1c1.9,0,3.5-0.1,5.7-0.1c0.2,7.3,0.3,12,0.5,13c-1.2-0.6-3.5-1-5.6-1c-5.5,0-9.5,3-9.5,7.1
			c0,4.4,3.7,7.1,9.5,7.1c4.1,0,7.1-1.6,8.3-4.2c0.4-0.9,0.6-2.1,0.6-3.4c0-0.4,0-0.6-0.1-1.3c0.2,0.2,0.2,0.2,0.4,0.3
			c0.3,0.2,0.3,0.2,0.5,0.3c3.6,2.1,5.6,3.4,7.1,5.2l1.6-3.5c-0.6-0.4-0.7-0.4-1.2-0.9c-3.3-2.4-4.7-3.2-8.3-4.9
			c-0.4-6.6-0.5-9.2-0.6-14.1c2.6-0.3,4-0.5,5.3-0.8c3.4-0.7,3.4-0.7,3.5-0.7l-0.2-3.4c-1.9,0.8-4.8,1.4-8.7,1.9c0-1.1,0-1.9,0-2.4
			c0-4.2,0.1-6.5,0.3-7.9h-3.8c0.1,0.5,0.2,1.2,0.2,2.1c0,3.8,0,3.8,0,8.5c-2,0.1-3.4,0.1-5.3,0.1c-4.4,0-6.6-0.2-9-0.8L1227,420.4
			 M1242,436.7c0,0,0.1,1.2,0.1,1.5c0,1.9-0.3,3.2-0.9,3.9c-1,1.1-2.9,1.8-5.1,1.8c-3.5,0-5.8-1.6-5.8-4.1c0-2.5,2.5-4.2,6.4-4.2
			C1238.7,435.6,1240,435.9,1242,436.7 M1218.1,406.9c-0.1,0.7-0.1,0.9-0.6,3.2c-1.9,8.6-2.6,13.9-2.6,20.5c0,5.1,0.5,10.2,1.4,14.9
			c0.2,1.1,0.2,1.4,0.3,1.9l3.6-0.4c-0.1-0.7-0.1-0.8-0.1-1c0-2.9,1.9-9.3,4.3-14.2l-2.4-1.2c-0.1,0.4-0.2,0.6-0.4,1
			c-1.7,4.1-2.1,5.1-2.9,8.8l-0.2-0.1c0-0.5,0-0.5,0-0.9c0-0.9,0-1,0-1.4c-0.1-2.3-0.2-5.2-0.2-7c0-8.2,1.7-18.4,3.8-23.4
			L1218.1,406.9"/>
		<path class="st1" d="M1213.8,476c1.3-0.4,1.8-0.4,2.9-0.7c0.4-0.1,2.8-0.5,7.2-1.1c-1.7,6.4-3.2,10.9-5.5,15.9
			c-1.8,3.8-3.7,7.1-5.2,9l3.4,2c1.6-2.8,2.6-4.8,3.2-6c3.4-6.9,5.7-13.3,7.6-21.2c1.8-0.2,2.5-0.2,3.6-0.2c4.7,0,6.2,1.7,6.2,7
			c0,5.6-0.8,10.7-2.1,13.9c-0.7,1.6-1.6,2.4-2.9,2.4c-1.8,0-4.6-0.9-7.4-2.3c0.2,0.9,0.2,1.2,0.2,2c0,0.7,0,1-0.1,1.8
			c3.3,1.4,5.4,1.9,7.5,1.9c2.3,0,3.7-0.6,4.9-2.3c2.1-2.9,3.3-9.6,3.3-17.2c0-4.1-0.7-6.4-2.4-8.1c-1.6-1.5-3.7-2.1-7.2-2.1
			c-1.1,0-1.8,0.1-2.9,0.2c0.4-2.4,0.8-4.2,1.1-5.7c0.4-2.8,0.6-3.7,0.9-4.8l-4-0.5c0,0.3,0,0.6,0,0.7c0,2.1-0.7,6.9-1.5,10.6
			c-4.1,0.7-9.2,1.2-11.1,1.3L1213.8,476 M1243.3,469.4c4.8,4.9,8.3,11.1,10.2,17.9l3.2-1.8c-2.3-7.1-5.3-12.2-10.4-17.7
			L1243.3,469.4"/>
		<path class="st1" d="M1485.5,330.8c0.6-0.9,2.6-3,4.5-4.8c1.8-1.7,2.2-2.2,2.6-2.8h0.1c-0.1,1.2-0.1,1.6-0.2,7.7
			c0,7.9,0,7.9-0.2,9.4h3.9c-0.2-2.3-0.3-4.8-0.3-19.9c6.5-5.9,11-8.2,15.9-8.2c5.7,0,9.6,4,9.6,9.8c0,2.2-0.5,4.2-1.4,6
			c-1.8,3.5-5.7,5.7-10,5.7c-3,0-6.1-0.7-8.8-2c0.3,1.4,0.4,2,0.4,2.9c0,0.1,0,0.4-0.1,0.8c3.1,1.1,5.7,1.5,8.5,1.5
			c9.1,0,15.1-6,15.1-15c0-7.7-5.5-13-13.4-13c-4.5,0-8.3,1.5-12.7,4.9c-1.5,1.2-2.4,2-2.9,2.6l-0.2,0.1h-0.1c0-0.1,0.1-1.8,0.2-5.1
			c2-2.6,2-2.6,2.7-3.2l-1.3-1.6c-0.4,0.2-0.5,0.2-1.1,0.3c0-1.2,0-1.2,0.1-2.9c0.2-3.6,0.2-4.4,0.5-5.8h-4c0.2,0.9,0.2,1.2,0.2,1.9
			c0,2,0,3.9-0.2,7c-4.1,0.3-6.2,0.4-7,0.4c-0.4,0-0.7,0-1.4-0.1l0.2,3.4c1.2-0.2,2.2-0.3,5.5-0.6c1.8-0.1,1.8-0.1,2.5-0.2
			c-0.2,4.2-0.2,4.7-0.2,8.9c-0.7,0.6-0.7,0.6-1.4,1.3c-1.7,1.6-1.7,1.6-3.4,3.1c-2.4,2.2-3.3,3.1-4.3,3.7L1485.5,330.8"/>
		<path class="st1" d="M1485,363.2c2.4-0.6,6.9-0.9,17.2-1.6c5.5-0.4,8-0.6,11-1.1c-1.9,0.9-3.2,1.6-4.8,2.6c-6,4-9.3,9.6-9.3,15.4
			c0,4.1,2,7.8,5.5,10.2c2.8,1.9,5.8,3,10.8,3.9c0.8,0.1,1,0.2,1.5,0.3l0.7-4.1c-0.2,0-0.4,0-0.5,0c-1.9,0-5-0.7-7.5-1.6
			c-4.4-1.7-7-5.1-7-9.2c0-4.1,2.2-8.2,6.2-11.6c2.8-2.3,6.2-4.1,9.6-5c1.9-0.5,3.6-0.7,5.6-0.7l-0.3-3.8c-0.8,0.2-3.2,0.4-6,0.6
			c-6.4,0.3-22.4,1.2-28.4,1.6c-1.6,0.1-2.2,0.2-2.9,0.2c-0.3,0-0.8,0-1.8,0L1485,363.2"/>
		<path class="st1" d="M1484.8,418.3c0.4-0.1,0.8-0.1,0.8-0.1c0,0,0.1,0,0.2,0c2,0.1,2.4,0.1,4.2,0.1c1.8,0,2.5,0,3.5-0.1
			c-1.9,9.8-5.7,21.2-9.4,27.6l3.7,1.6c2.6-6.1,4.1-9.9,5.8-15.2c1.3-4.6,2.8-10.2,3.5-14.1c2.4-0.2,5.9-0.7,8.4-1.2
			c1-0.2,1-0.2,1.4-0.2l-0.2-3.4c-2.4,0.8-5.1,1.3-9,1.7c0.2-1.5,0.4-2.2,0.7-3.8c0.6-3.6,0.6-3.6,0.9-4.8l-3.9-0.4
			c0,2.2-0.1,3.1-1.1,9.2c-1.5,0.1-2,0.1-3,0.1c-2.7,0-4.7-0.1-6.2-0.4V418.3 M1522.6,420.7c-3.8-0.1-4.5-0.1-5.5-0.1
			c-4.2,0-7.4,0.4-13.2,1.6l0.4,3.4c4.5-1.2,8-1.7,12.5-1.7c2.1,0,3.5,0.1,5.9,0.4L1522.6,420.7 M1504.4,431.5
			c-2.6,3.4-3.3,4.9-3.3,7.2c0,4.9,4.2,7.5,12.5,7.5c2.6,0,5.5-0.2,8.9-0.9c1.7-0.2,1.7-0.2,2.2-0.3l-0.3-3.8
			c-2.9,1-7.3,1.7-11.1,1.7c-5.7,0-8.8-1.6-8.8-4.6c0-1.2,0.4-2.5,1.2-3.5c0.3-0.6,0.5-0.7,1.5-1.9L1504.4,431.5"/>
		<path class="st1" d="M1484.7,464.6c0.1,0.9,0.1,1.1,0.2,3c0.2,12.3,0.9,18.7,2.7,23.4c1.7,4.8,4.3,7.6,7.1,7.6
			c3.6,0,5.8-3.3,8.3-12.1c-1.4-1.1-1.8-1.6-3-2.9c-0.6,3.4-1.4,6.1-2.6,8.6c-0.8,1.6-1.6,2.5-2.5,2.5c-1.9,0-3.9-3.4-5-8.6
			c-0.8-3.2-1.3-10.1-1.3-15.6c0-2.8,0.1-4.4,0.3-5.9L1484.7,464.6 M1510,468.9c5.9,6.8,9.5,15.4,10.4,24.7l3.6-1.4
			c-0.9-5.6-1.8-9.2-3.8-13.4c-1.8-4.2-3.9-7.6-7.2-11.4L1510,468.9"/>
		<path class="st1" d="M1670.3,313.4c0.3-0.1,0.6-0.1,0.8-0.1c0.2,0,0.5,0,0.9,0.1c1.8,0.1,4.7,0.2,6.1,0.2c2.2,0,5.1-0.1,7.3-0.3
			c0.1,1.4,0.1,2.5,0.1,3.9c0,8-0.8,11.6-3.3,14.9c-1.8,2.3-4.2,4.1-7.7,5.8c1.3,1,1.7,1.4,2.7,2.7c3.8-2.2,6-4,7.8-6.4
			c2.9-4,3.8-8.1,3.8-17.6c0-1.5,0-2.2,0-3.6c2-0.2,3.5-0.6,5.4-1c1.5-0.4,1.6-0.4,2.7-0.6l-0.2-3.6c-1.8,0.9-4.2,1.6-8,2.1
			c-0.2-6.9-0.2-6.9-0.3-8.1c-0.1-0.9-0.1-1.2-0.1-1.5c0-0.6,0.1-0.9,0.2-1.7l-3.8,0c0.2,1.5,0.3,3,0.6,11.7
			c-2.5,0.2-4.3,0.3-6.3,0.3c-3.7,0-6.6-0.2-8.5-0.7L1670.3,313.4 M1661.3,299.2c0,0.9-0.1,1.4-0.4,3.4c-1.6,9.2-2,13.4-2,19.2
			c0,5.2,0.6,10.1,1.8,14.8c0.2,0.9,0.3,1.1,0.4,1.8l3.4-0.3c0-1.7,0.4-3.4,1.4-6.3c1-2.7,2.2-5.8,3.7-8.8l-2.5-1.2
			c-2.8,6.2-3.2,7.1-4.2,10.6c0-0.6-0.1-1.6-0.3-2.7c-0.2-1.7-0.4-5.4-0.4-8.2c0-6.8,1.4-17,3.1-21.8L1661.3,299.2"/>
		<path class="st1" d="M1665.9,351.7c0,0.6-0.1,0.8-0.2,1.6c-1.2,8.9-1.7,13.6-1.7,18.5c0,0.2,0,0.7,0,1.1l0.1,5.2l0.1,0.9
			c0,0.1,0,0.3,0,0.5l3.6-0.1c-0.1-0.8-0.1-1-0.1-1.2c0-3.7,1-7.5,2.7-11.2c2.8-5.8,6-8.7,9.8-8.7c4.8,0,7.6,4.7,7.6,12.7
			c0,8-2.8,13.2-8.6,16.6c-2.9,1.6-5.5,2.4-10.2,3.1c1.1,1.4,1.4,1.9,2,3.4c3.5-0.8,6.5-1.8,8.9-2.9c7.5-3.8,11.5-10.6,11.5-19.7
			c0-5.3-0.9-9.1-3-12.1c-1.9-2.9-4.8-4.4-8-4.4c-3.9,0-7.2,2.1-10,6.4c-1.4,2.2-2.4,4.7-3,7.4c-0.2,1.1-0.2,1.1-0.3,1.4l-0.2-0.1
			c0.2-2.5,0.8-8,1.7-13c0.4-2.7,0.8-4.1,1.2-5.2L1665.9,351.7"/>
		<path class="st1" d="M1657.7,418.3c0.5-0.1,0.8-0.1,0.8-0.1c0,0,0.1,0,0.2,0c1.9,0.1,2.4,0.1,4.2,0.1c1.8,0,2.4,0,3.4-0.1
			c-2,10.2-5.8,21.6-9.4,27.6l3.7,1.6c4.2-9.2,7.2-18.8,9.2-29.4c2.3-0.2,5.2-0.6,8.4-1.2l0.9-0.2l0.5-0.1l-0.2-3.4
			c-2.2,0.8-5.5,1.4-9,1.7c0.2-1.3,0.3-2,0.7-3.8c0.3-1.7,0.4-2.7,0.5-3c0.2-0.7,0.2-1,0.4-1.8l-4-0.4c0,0.1,0,0.2,0,0.4
			c0,1.7-0.2,3.4-1.1,8.8c-1.4,0.1-2,0.1-3,0.1c-2.7,0-4.7-0.1-6.2-0.4V418.3 M1695.4,420.7c-3.8-0.1-4.5-0.1-5.4-0.1
			c-4.2,0-7.5,0.4-13.2,1.6l0.3,3.4c4.6-1.2,8.1-1.7,12.5-1.7c2.1,0,3.5,0.1,5.9,0.4L1695.4,420.7 M1677.2,431.5
			c-2.7,3.4-3.3,4.9-3.3,7.2c0,4.9,4.2,7.5,12.4,7.5c2.7,0,5.6-0.2,8.9-0.8l1.5-0.3l0.7-0.1l-0.3-3.8c-2.8,1-7.3,1.7-11.1,1.7
			c-5.7,0-8.8-1.6-8.8-4.6c0-1.2,0.5-2.5,1.2-3.5c0.4-0.6,0.5-0.7,1.5-1.9L1677.2,431.5 M1685.5,408.1c1.5,1.5,3.9,5.2,5.2,7.9
			l2.5-1.5c-1.5-2.9-2.9-5.1-5.2-7.8L1685.5,408.1 M1691.2,405.4c2,2.3,4.1,5.5,5.1,7.9l2.5-1.4c-1.6-3.2-2.9-5-5.1-7.8
			L1691.2,405.4"/>
		<path class="st1" d="M1696.1,496.1c-0.6-0.4-0.9-0.6-1.7-1.2c-5.2-3.8-9.6-6.1-13.9-7.3c-0.2-4.8-0.2-4.8-0.3-7.6
			c3.7-0.2,7.7-0.6,11.1-1.2c1.8-0.2,2.2-0.3,2.9-0.4l-0.2-3.4c-2.8,0.9-7.1,1.6-13.9,2.1c0-2.7,0-2.7-0.1-6.8
			c5.6-0.4,6.9-0.5,11.6-1.2c2.6-0.4,2.6-0.4,3.5-0.4l-0.2-3.4c-2.8,0.9-7.9,1.6-14.8,2.1c0.1-3.6,0.2-6,0.3-7.1h-3.8
			c0.2,1.1,0.2,1.1,0.2,7.2c-1.7,0-3.3,0.1-4.3,0.1c-5.4,0-10.7-0.4-12.8-1l0,3.4c0.3-0.1,0.5-0.1,0.7-0.1c0.2,0,0.6,0,0.9,0.1
			c4.5,0.4,8.6,0.5,12.2,0.5c1.2,0,2,0,3.4-0.1l0.1,6.9c-1.4,0.1-3.1,0.1-4.4,0.1c-5.1,0-9.2-0.3-11.4-0.8l-0.1,3.3
			c0.2,0,0.3,0,0.4,0c0.3,0,0.7,0,1.2,0.1c3.1,0.2,5.4,0.3,8.4,0.3c1.6,0,4.1-0.1,5.9-0.1c0.1,1.3,0.1,2.2,0.1,2.9
			c0.1,1.4,0.1,2.5,0.1,2.9c0,0.3,0.1,0.5,0.1,0.6c0,0.4,0,0.4,0.1,0.6c-2.2-0.4-2.9-0.4-4.5-0.4c-2.2,0-3.7,0.2-5.2,0.5
			c-4.4,1-7,3.6-7,6.9c0,2,1,4,2.7,5.2c1.7,1.3,4.4,2,7.8,2c3.9,0,7-1.1,8.4-3.2c0.9-1.2,1.2-2.8,1.2-5.4c0-0.6,0-0.6-0.1-1.8
			c1.3,0.6,2.5,1.1,3.3,1.5c4.2,2.2,7.9,4.8,10.2,7.2L1696.1,496.1 M1677.3,492c0,2.4-0.3,3.8-1,4.5c-0.9,1.1-2.8,1.6-5.5,1.6
			c-4.3,0-6.8-1.5-6.8-4.1c0-2.7,3.2-4.4,8.2-4.4c2.2,0,3.2,0.1,5.1,0.5L1677.3,492"/>
		<path class="st1" d="M1831.7,302.9c0.1,0.9,0.1,1.1,0.2,2.9c0.2,12.3,0.9,18.7,2.7,23.5c1.7,4.8,4.3,7.6,7.1,7.6
			c3.6,0,5.8-3.3,8.3-12.1c-1.4-1.1-1.8-1.6-3-2.9c-0.6,3.4-1.4,6.1-2.6,8.6c-0.8,1.6-1.6,2.5-2.5,2.5c-1.9,0-3.9-3.4-5-8.6
			c-0.8-3.2-1.3-10.1-1.3-15.6c0-2.8,0.1-4.4,0.3-5.9L1831.7,302.9 M1857,307.1c5.9,6.8,9.5,15.4,10.4,24.7l3.5-1.5
			c-0.9-5.6-1.8-9.1-3.8-13.3c-1.8-4.2-3.9-7.6-7.1-11.4L1857,307.1"/>
		<path class="st1" d="M1839.3,358.5c1-0.1,1.2-0.1,3.1-0.2c7.3-0.2,12.8-0.6,15.6-1.2c-0.6,0.5-0.8,0.7-1.6,1.4
			c-5,4.8-11.7,9.9-16.6,12.9c-3.4,0.6-7.2,1-8.8,1c-0.1,0-0.2,0-0.3,0l0.4,3.8c1.8-0.6,6.8-1.3,14.8-2.2c2.8-0.4,7.3-0.9,8.2-1.1
			c2-0.4,2-0.4,2.7-0.4c-7.2,3.1-10.9,7.1-10.9,11.6c0,2.4,1.1,4.7,2.9,6.3c2.4,2.1,6.8,3.2,12.6,3.2c2.6,0.1,2.6,0.1,3.4,0.1
			l-0.1-3.9c-1.1,0.2-2.1,0.3-3.4,0.3c-7.6,0-11.9-2.3-11.9-6.4c0-1.5,0.4-2.6,1.6-4.1c1.4-1.8,3.7-3.6,6.3-4.8
			c3.7-1.8,8.6-2.7,13.8-2.7c0.2,0,0.6,0,1.1,0l-0.3-3.5c-0.6,0.2-0.8,0.2-1.5,0.2c-1,0.1-2.5,0.2-4.5,0.4c-3.8,0.4-6.9,0.6-8.9,0.8
			c-7.6,0.6-9.5,0.9-12,1.3c5-2.9,11.5-8,16.4-12.8c1.3-1.2,1.6-1.5,2.4-2.1l-2.1-2.7c-0.7,0.3-1.7,0.5-2.8,0.6
			c-3.5,0.4-10.7,0.7-15.2,0.7c-2.1,0-3-0.1-4.5-0.2L1839.3,358.5"/>
		<path class="st1" d="M1830.2,422.1c1.3-0.3,1.8-0.4,2.9-0.6c0.5-0.1,2.9-0.5,7.2-1.1c-1.7,6.4-3.2,10.8-5.5,15.8
			c-1.8,3.8-3.7,7.1-5.2,9.1l3.4,2c1.5-2.8,2.6-4.8,3.2-6c3.4-6.9,5.7-13.3,7.5-21.2c1.8-0.2,2.5-0.2,3.6-0.2c4.7,0,6.2,1.7,6.2,7
			c0,5.6-0.8,10.7-2.1,13.9c-0.7,1.6-1.6,2.4-2.8,2.4c-1.8,0-4.6-0.9-7.5-2.3c0.2,0.9,0.2,1.2,0.2,2c0,0.6,0,1-0.1,1.8
			c3.3,1.4,5.4,1.9,7.6,1.9c2.3,0,3.7-0.6,4.9-2.4c2.1-2.9,3.3-9.5,3.3-17.2c0-4.1-0.7-6.4-2.4-8.1c-1.5-1.5-3.7-2.1-7.2-2.1
			c-1.2,0-1.8,0.1-3,0.1c0.5-2.4,0.8-4.2,1.1-5.7c0.4-2.9,0.6-3.7,0.9-4.8l-4-0.4c0,0.3,0,0.6,0,0.6c0,2.1-0.6,6.9-1.5,10.6
			c-4,0.6-9.2,1.2-11,1.3L1830.2,422.1 M1859.7,415.5c4.9,4.9,8.3,11.1,10.2,17.9l3.2-1.9c-2.4-7-5.4-12.2-10.4-17.7L1859.7,415.5"
			/>
		<path class="st1" d="M1833.2,483.3c0.6,0,0.8,0,1.5,0.3c2.2,0.6,4.6,1,7.6,1.2c-0.1,0.5-0.1,0.5-0.1,1.2c-0.2,1.2-0.2,2.2-0.2,3.3
			c0,2.9,0.6,5.2,1.6,6.9c1.9,3.2,5.9,5,11.2,5c8.8,0,14.6-4.8,14.6-11.8c0-3.6-1.1-6.1-4.7-9.9c-1.4,0.6-2,0.8-3.6,1
			c3.2,2.8,4.8,5.6,4.8,8.7c0,5.3-4.4,8.8-11.1,8.8c-3,0-5.4-0.8-7-2.1c-1.6-1.4-2.3-3.2-2.3-6c0-0.9,0.1-2.5,0.2-3.7
			c0.1-0.6,0.1-0.6,0.1-1c2.2,0.1,3.1,0.1,4.3,0.1c2.3,0,4.5-0.1,7-0.4c0.7-0.1,0.9-0.1,1.4-0.1l0.1-3.4c-1.9,0.5-5.6,0.8-9.2,0.8
			c-0.7,0-1.4,0-3.3-0.1c0.3-2.8,0.3-3.3,1.1-9c2.8,0.1,3.6,0.1,4.4,0.1c1.5,0,3-0.1,4.5-0.2c2.5-0.2,2.5-0.2,3.5-0.3l0.1-3.4
			c-2.2,0.6-5.4,0.9-9.1,0.9c-0.8,0-1.5,0-2.9-0.1c0.2-1.4,0.4-1.9,0.5-3c0.5-2.8,0.5-2.8,0.5-3.2c0.4-1.8,0.5-2.4,0.8-3.4l-4-0.4
			c0,0.2,0,0.3,0,0.4c0,1.3-0.4,4.6-1.2,9.4c-3.5-0.3-6.9-1.1-9-2l-0.5,3.3c0.7,0.2,0.9,0.2,1.6,0.4c2.9,0.7,5.1,1.1,7.4,1.3
			c-0.4,2.7-0.9,6.6-1.2,9c-3.8-0.4-6.9-1.1-8.9-2L1833.2,483.3"/>
		<path class="st1" d="M2041,309.2c1.8-0.4,7.3-0.9,17.2-1.6c5.2-0.4,8.2-0.6,11-1.1c-1.9,0.9-3.2,1.6-4.8,2.6
			c-5.9,4.1-9.3,9.6-9.3,15.4c0,4.1,2,7.8,5.5,10.2c2.9,1.9,5.9,3,10.8,3.9c0.9,0.1,1,0.2,1.6,0.3l0.6-4.1c-0.2,0-0.4,0-0.5,0
			c-1.9,0-5-0.7-7.5-1.6c-4.4-1.7-7-5.1-7-9.2c0-4.1,2.2-8.2,6.2-11.6c2.8-2.3,6.2-4.1,9.6-5c1.9-0.5,3.6-0.7,5.6-0.7l-0.3-3.7
			c-0.7,0.2-1.6,0.3-5.9,0.6l-2.9,0.1c-1.6,0.1-2.3,0.1-8.4,0.5l-7.8,0.5c-6.2,0.3-6.5,0.4-9.2,0.6c-1.6,0.1-2.2,0.2-2.9,0.2
			c-0.4,0-0.9,0-1.8-0.1L2041,309.2 M2071.7,314c1.5,1.6,3.9,5.3,5.1,7.9l2.6-1.5c-1.5-2.9-2.9-5.1-5.2-7.8L2071.7,314
			 M2077.4,311.3c1.9,2.3,4,5.5,5.1,7.8l2.5-1.4c-1.6-3.2-2.9-5.1-5.1-7.8L2077.4,311.3"/>
		<path class="st1" d="M2043.3,356.8c0.1,0.9,0.1,1,0.2,2.9c0.2,12.3,0.9,18.7,2.7,23.4c1.7,4.8,4.3,7.6,7.1,7.6
			c3.6,0,5.9-3.4,8.3-12.1c-1.4-1.1-1.8-1.6-2.9-2.9c-0.6,3.4-1.4,6.1-2.6,8.6c-0.8,1.7-1.6,2.5-2.5,2.5c-1.9,0-3.9-3.4-5-8.6
			c-0.8-3.2-1.3-10-1.3-15.5c0-2.8,0.1-4.4,0.3-6L2043.3,356.8 M2068.6,361c5.9,6.8,9.5,15.3,10.4,24.6l3.6-1.4
			c-0.9-5.6-1.8-9.2-3.8-13.4c-1.8-4.2-3.9-7.6-7.1-11.4L2068.6,361"/>
		<path class="st1" d="M2041,422c0.9-0.4,1.5-0.6,3.6-1.2c8.6-2.4,15.2-3.6,20.4-3.6c6.8,0,10.9,3.4,10.9,9s-3.8,10.1-10.7,12.6
			c-3.8,1.4-8.3,2.1-13.9,2.3c0.8,1.3,1.1,2,1.6,3.8c7.8-0.6,11.9-1.6,16.5-3.8c6.7-3.2,10.4-8.5,10.4-14.8
			c0-7.7-5.8-12.5-14.9-12.5c-4.2,0-9,0.6-14.5,1.8c-3.8,0.9-5.8,1.3-6.2,1.4c-1.1,0.2-1.9,0.4-2.3,0.5c-0.8,0.1-1.1,0.1-1.9,0.2
			L2041,422 M2072.5,406.9c1.4,1.6,3.9,5.3,5.1,7.9l2.5-1.5c-1.5-2.9-2.9-5-5.1-7.8L2072.5,406.9 M2078.2,404.3
			c1.9,2.2,4,5.5,5.1,7.8l2.5-1.4c-1.7-3.1-2.9-5-5.2-7.8L2078.2,404.3"/>
		<path class="st1" d="M2054.4,459.5c-0.1,2.3-0.9,6.6-1.7,9.4c-0.9,0-2.6,0.1-3.6,0.1c-2.8,0-4.2-0.1-5.9-0.4l-0.1,3.4
			c0.3,0,0.6,0,0.6,0c0.2,0,0.6,0,1.1,0.1c0.8,0,2.4,0,3.3,0c0.8,0,2.4,0,3.7-0.1c-1.4,4.8-2.9,8.3-5.2,12.9
			c-1.9,3.6-3.2,5.8-4.8,7.8l3.4,2c0.2-0.4,0.6-1,1-1.7c1.9-3.3,2.4-4.2,3.6-6.6c2.2-4.6,4-9.2,5.6-14.6c3.1-0.2,6.1-0.6,8.2-1
			c1.2-0.2,1.2-0.2,1.8-0.3l-0.1-3.4c-2.3,0.8-5.5,1.3-9,1.6c0.7-2.6,1-3.8,1.4-5.4c0.4-2.1,0.4-2.2,0.8-3.2L2054.4,459.5
			 M2083.9,473.3c-4.1-2.6-7.4-4.3-13.2-6.6l-1.9,2.8c5.2,1.9,9.1,3.9,13.2,6.8L2083.9,473.3 M2084,495.5c-0.3-0.2-0.3-0.2-0.9-0.8
			c-2.7-2.4-5.8-4.3-9.8-6.1c-0.3-1.9-0.6-5.3-0.6-7.6c0-1.8,0.2-2.8,0.7-4.7l-3.4-0.3c-0.4,1.8-0.5,3.1-0.5,4.8
			c0,1.2,0.1,3.6,0.4,6.9c-1.9-0.6-3.2-0.8-5.1-0.8c-2.2,0-4.1,0.4-5.9,1.1c-2.8,1.1-4.7,3.6-4.7,6.3c0,4.4,3.8,7.2,9.8,7.2
			c6.1,0,9.5-2.8,9.5-8c0-0.5,0-0.8-0.1-1.6c3.6,1.9,6.8,4.4,8.8,6.8L2084,495.5 M2070.1,490.9c0,0,0.1,1.6,0.1,2.2
			c0,3.8-2,5.4-6.2,5.4c-4,0-6.4-1.6-6.4-4.1c0-2.8,2.7-4.5,6.9-4.5C2066.5,489.9,2068,490.2,2070.1,490.9"/>
		<path class="st1" d="M2212.2,299.3c0.2,1,0.2,1.6,0.2,2.7c0,0.8,0,1.8-0.1,3.2c-0.4,15.8-0.4,17-0.4,20.3c0,5.2,0.7,7.9,2.8,10.2
			c2,2.3,5.1,3.5,9.4,3.5c5.9,0,10.6-2,14.1-6.2c2.2-2.5,3.6-5.5,5.5-11.3c-1.6-0.8-2.2-1.2-3.6-2.4c-0.7,3.5-1.3,5.5-2.4,7.9
			c-2.9,5.7-7.5,8.7-13.4,8.7c-2.6,0-4.8-0.7-6.2-1.9c-1.5-1.4-2.1-3-2.3-6c-0.1-1.1-0.1-2.4-0.1-3c0-2.2,0.1-9.1,0.4-15.1
			c0.1-6.3,0.3-8.8,0.6-10.6H2212.2"/>
		<path class="st1" d="M2212.2,353.2c0.2,1,0.2,1.6,0.2,2.6c0,0.8,0,1.8-0.1,3.2c-0.4,15.8-0.4,17-0.4,20.4c0,5.2,0.7,7.9,2.8,10.2
			c2,2.3,5.1,3.5,9.4,3.5c5.9,0,10.6-2.1,14.1-6.2c2.2-2.6,3.6-5.5,5.5-11.4c-1.6-0.8-2.2-1.2-3.6-2.4c-0.7,3.5-1.3,5.4-2.4,7.8
			c-2.9,5.7-7.5,8.7-13.4,8.7c-2.6,0-4.8-0.7-6.2-2c-1.5-1.3-2.1-3-2.3-6c-0.1-1.1-0.1-2.4-0.1-3c0-2.2,0.1-9,0.4-15
			c0.1-6.3,0.3-8.9,0.6-10.6H2212.2"/>
		<path class="st1" d="M2218.1,409.9c4.4,2.1,4.4,2.1,7.6,3.2c3.4,1.2,3.4,1.2,9.8,2.8l1.4-3.5c-5.5-0.8-13.1-3.3-17-5.6
			L2218.1,409.9 M2214,415.3c0,0.9-0.1,1.3-0.3,2.6c-0.7,4.2-1.6,10-2.1,13.8c-0.2,1.6-0.2,2.1-0.4,2.9l3.9,0.1
			c0.9-1.1,1.2-1.5,2-2.1c3.8-2.8,8.9-4.4,14-4.4c6.1,0,9.7,2.4,9.7,6.5c0,5.1-5.2,8.4-13.5,8.4c-4.2,0-8.9-1-12.8-2.5
			c0.3,1.3,0.4,1.9,0.4,3.1c0,0.2,0,0.5-0.1,0.9c3.1,0.8,3.1,0.8,4,1c2.8,0.6,5.8,0.9,8.8,0.9c5.3,0,9.2-1.1,12.4-3.3
			c2.8-2,4.5-5.2,4.5-8.6c0-5.8-5.2-9.6-13.4-9.6c-5.5,0-11,1.6-14.4,4.3c-0.6,0.4-0.9,0.8-1.6,1.5l-0.1-0.1
			c0.1-0.4,0.2-0.6,0.2-1.1c0.1-1.2,0.2-1.5,1.4-8.8c0.4-2.8,0.7-4,1.1-5.5L2214,415.3"/>
		<path class="st1" d="M2231.7,467.1c-2.8,1-5.9,1.6-10.2,2.2v-4.8c0-2.3,0.1-3.2,0.2-4.6h-3.7c0.2,1.5,0.2,2.8,0.2,4.8v4.9
			c-1.5,0.1-3.4,0.1-4.8,0.1c-2.2,0-3.6-0.1-5.1-0.3v3.3c0.4,0,0.7,0,0.9,0c0.1,0,0.6,0,1.1,0c0.6,0.1,1.9,0.1,2.7,0.1
			c1.4,0,2.3,0,3.2-0.1c1.6-0.1,1.6-0.1,2-0.1v9.4c-3.1,1.4-5.2,2.6-7.1,4.1c-2.7,2.3-3.9,4.4-3.9,6.6c0,1.8,0.8,3.4,2.3,4.7
			c2.2,2,5.4,3.2,8.2,3.2c2.4,0,3.6-1.3,3.6-4v-12.5c4.2-1.4,7.4-2,10.6-2c6.6,0,10.7,3.1,10.7,8c0,4.1-2.8,7-6.7,7
			c-3.7,0-5.2-2.1-5.2-7.3c0-0.6,0-1.1,0.1-1.9c-1.2,0.7-1.8,0.9-3.3,1.3c-0.1,2.5,0.2,4,0.6,5.7c0.9,3.6,3.8,5.6,7.7,5.6
			c5.8,0,10.2-4.5,10.2-10.3c0-3.7-1.8-6.9-5.1-8.9c-2.3-1.4-5.3-2.1-8.9-2.1c-3.3,0-6.4,0.5-10.8,1.8v-8.6c2.4-0.2,4.8-0.7,8.9-1.5
			c0.7-0.2,0.9-0.2,1.5-0.3L2231.7,467.1 M2218.3,494.7c0,2.1-0.1,2.4-1.1,2.4c-1.3,0-3.1-0.6-4.5-1.4c-1.4-0.9-2.1-1.9-2.1-3
			c0-2.4,2.8-5.1,7.8-7.5V494.7 M2248.3,473.6c-3-3.9-5.5-6.2-10.1-9.5l-2.6,1.9c3.9,2.6,7.4,6.1,10.1,9.8L2248.3,473.6"/>
		<path class="st1" d="M962.9,788.3c0,2.7,2.2,5,5,5s5-2.2,5-5s-2.2-5-5-5S962.9,785.6,962.9,788.3"/>
		<path class="st1" d="M1879.9,788.3c0,2.7,2.2,5,5,5c2.7,0,5-2.2,5-5s-2.2-5-5-5C1882.1,783.3,1879.9,785.6,1879.9,788.3"/>
		<path class="st1" d="M2256.3,813.1c0,2.7,2.2,5,5,5s5-2.2,5-5s-2.2-5-5-5S2256.3,810.4,2256.3,813.1"/>
		<path class="st1" d="M962.9,676.7c0,2.7,2.2,5,5,5s5-2.2,5-5s-2.2-5-5-5S962.9,673.9,962.9,676.7"/>
		<path class="st1" d="M1879.9,676.7c0,2.7,2.2,5,5,5c2.7,0,5-2.2,5-5s-2.2-5-5-5C1882.1,671.7,1879.9,673.9,1879.9,676.7"/>
		<path class="st1" d="M2256.3,701.5c0,2.7,2.2,5,5,5s5-2.2,5-5s-2.2-5-5-5S2256.3,698.8,2256.3,701.5"/>
		<path class="st1" d="M962.9,198.3c0,2.7,2.2,5,5,5s5-2.2,5-5s-2.2-5-5-5S962.9,195.6,962.9,198.3"/>
		<path class="st1" d="M1879.9,198.3c0,2.7,2.2,5,5,5c2.7,0,5-2.2,5-5s-2.2-5-5-5C1882.1,193.4,1879.9,195.6,1879.9,198.3"/>
		<path class="st1" d="M2256.3,198.3c0,2.7,2.2,5,5,5s5-2.2,5-5s-2.2-5-5-5S2256.3,195.6,2256.3,198.3"/>
		<line class="st5" x1="92.7" y1="93.7" x2="92.7" y2="917.8"/>
		<path class="st1" d="M135.3,71.6c-0.2-0.1-0.5-0.2-0.7-0.2c-0.4,0-0.9,0.1-1.1,0.5c-0.2,0.3-10.1,15.6-29.1,15.6H88.7
			c-0.8,0-1.4,0.5-1.4,1.3v8.9v1.4h12.1c30.6,0,36.4-25.5,36.5-25.8c0-0.1,0.1-0.3,0.1-0.5C136,72.3,135.7,71.9,135.3,71.6"/>
		<path class="st1" d="M135.3,939.8c0.4-0.3,0.7-0.7,0.7-1.2c0-0.2-0.1-0.4-0.1-0.5c-0.1-0.3-6-25.8-36.5-25.8H87.3v1.4v8.9
			c0,0.8,0.6,1.3,1.4,1.3h15.8c18.9,0,28.9,15.3,29.1,15.6c0.2,0.4,0.7,0.5,1.1,0.5C134.8,940,135.1,939.9,135.3,939.8"/>
	</g>
</g>
</svg>
