<?xml version="1.0" encoding="utf-8"?>
<!-- Generator: Adobe Illustrator 26.5.0, SVG Export Plug-In . SVG Version: 6.00 Build 0)  -->
<svg version="1.1" id="レイヤー_1" xmlns="http://www.w3.org/2000/svg" xmlns:xlink="http://www.w3.org/1999/xlink" x="0px"
	 y="0px" viewBox="0 0 2590 920" style="enable-background:new 0 0 2590 920;" xml:space="preserve">
<style type="text/css">
	.st0{fill:none;stroke:#FFFFFF;stroke-width:2.73;stroke-linejoin:bevel;}
	.st1{fill:#FFFFFF;}
	.st2{fill:none;stroke:#FFFFFF;stroke-width:4.46;stroke-linejoin:bevel;}
	.st3{fill:none;stroke:#FFFFFF;stroke-width:3.97;stroke-linejoin:bevel;}
	.st4{fill-rule:evenodd;clip-rule:evenodd;fill:#FFFFFF;}
	.st5{fill:none;stroke:#FFFFFF;stroke-width:3.72;stroke-linejoin:bevel;}
	.st6{fill:none;stroke:#FFFFFF;stroke-width:10.91;stroke-linejoin:bevel;}
	.st7{fill:none;stroke:#FFFFFF;stroke-width:13.64;stroke-linejoin:bevel;}
</style>
<g>
	<g>
		
			<image style="overflow:visible;" width="2624" height="811" xlink:href="80EB4E7970AFA33D.png"  transform="matrix(1 0 0 1 -17.0795 145.9358)">
		</image>
	</g>
	<g>
		<line class="st0" x1="106.1" y1="222.4" x2="2570.6" y2="222.4"/>
		<line class="st0" x1="106.1" y1="247.2" x2="2570.6" y2="247.2"/>
		<line class="st0" x1="106.1" y1="272" x2="2570.6" y2="272"/>
		<line class="st0" x1="106.1" y1="296.8" x2="2570.6" y2="296.8"/>
		<line class="st0" x1="106.1" y1="321.6" x2="2570.6" y2="321.6"/>
		<line class="st0" x1="106.1" y1="570.6" x2="2570.6" y2="570.6"/>
		<line class="st0" x1="106.1" y1="595.4" x2="2570.6" y2="595.4"/>
		<line class="st0" x1="106.1" y1="620.2" x2="2570.6" y2="620.2"/>
		<line class="st0" x1="106.1" y1="645" x2="2570.6" y2="645"/>
		<line class="st0" x1="106.1" y1="669.8" x2="2570.6" y2="669.8"/>
		<line class="st0" x1="106.1" y1="780.7" x2="2570.6" y2="780.7"/>
		<line class="st0" x1="106.1" y1="805.5" x2="2570.6" y2="805.5"/>
		<line class="st0" x1="106.1" y1="830.3" x2="2570.6" y2="830.3"/>
		<line class="st0" x1="106.1" y1="855.1" x2="2570.6" y2="855.1"/>
		<line class="st0" x1="106.1" y1="879.9" x2="2570.6" y2="879.9"/>
		<path class="st1" d="M54.2,811.9h-30l-0.8,13.9h2.2c0.3-2.5,0.8-4.4,1.3-6c1.3-3.7,3.7-5.6,7.1-5.6c1.6,0,2.4,0.6,2.4,1.8v25.8
			c0,2.6,0,2.7-0.3,3.1c-0.4,0.5-1.4,0.7-4.2,0.7h-1.3v2.4h17.1v-2.4h-1.3c-2.8,0-3.8-0.2-4.1-0.7c-0.3-0.4-0.3-0.6-0.3-3.1v-25.8
			c0-1.2,0.7-1.8,2.4-1.8c3.1,0,5.5,1.7,6.8,4.7c0.8,1.9,1.2,4,1.6,6.9H55L54.2,811.9 M59.1,842.5c-1.8,0-3.1,1.4-3.1,3.1
			c0,1.8,1.4,3.1,3.1,3.1c1.8,0,3.1-1.4,3.1-3.1C62.2,843.9,60.8,842.5,59.1,842.5"/>
		<path class="st1" d="M38.7,601.5h-2.1l-11.5,29.1c-1.4,3.9-2.6,5.1-5.5,5.3h-0.2v2.4h13.2v-2.4h-1c-2.7,0-4.1-0.9-4.1-2.8
			c0-0.7,0.1-1.2,0.4-2.1l1.7-4.4H43l2.7,6.7c0.3,0.8,0.4,1.1,0.4,1.3c0,0.8-1.2,1.3-3.1,1.3h-2.1v2.4h15.5v-2.4h-0.7
			c-2.6-0.1-3.1-0.3-4.2-3.2L38.7,601.5 M36.3,609.7l5.7,14.2H30.7L36.3,609.7 M63.3,632.7c-1.8,0-3.2,1.4-3.2,3.1
			c0,1.8,1.4,3.1,3.1,3.1c1.8,0,3.2-1.4,3.2-3.1C66.4,634.1,65,632.7,63.3,632.7"/>
		<path class="st1" d="M51.7,253.7h-1.8l-2,3c-2.4-2.2-5.6-3.4-9.1-3.4c-6.6,0-10.9,4.1-10.9,10.4c0,5.4,2.7,8.2,10.1,10.1l4.8,1.2
			c3.7,0.9,4,1.1,5.1,1.9c1.5,1.1,2.3,2.8,2.3,4.8c0,2-0.8,3.6-2.2,5.1c-1.6,1.4-3.3,1.9-6.1,1.9c-3.7,0-6.3-1.2-8.7-3.8
			c-2.1-2.3-3.1-4.7-3.9-8.6h-2.2l0.2,14.2h2l2.2-3.4c3.3,2.8,6.1,3.8,10.5,3.8c7.3,0,12-4.3,12-11c0-3.2-1-5.8-3-7.7
			c-1.3-1.3-3.3-2.1-7.3-3.1l-5.4-1.4c-4.4-1.1-6.6-3.1-6.6-6.1c0-3.5,2.9-5.9,7.1-5.9c3.5,0,6.3,1.5,8.3,4.4c1.5,2.1,2.4,4.1,3,6.7
			h2.2L51.7,253.7 M62.7,284.5c-1.8,0-3.1,1.4-3.1,3.1c0,1.8,1.4,3.2,3.1,3.2c1.8,0,3.1-1.4,3.1-3.2
			C65.8,285.9,64.4,284.5,62.7,284.5"/>
		<line class="st2" x1="108.4" y1="779.3" x2="108.4" y2="881.3"/>
		<line class="st2" x1="939.9" y1="779.3" x2="939.9" y2="881.3"/>
		<line class="st2" x1="1424" y1="779.3" x2="1424" y2="881.3"/>
		<line class="st2" x1="2064.7" y1="779.3" x2="2064.7" y2="881.3"/>
		<line class="st2" x1="2546.4" y1="779.3" x2="2546.4" y2="881.3"/>
		<line class="st7" x1="2563.8" y1="779.3" x2="2563.8" y2="881.3"/>
		<line class="st2" x1="108.4" y1="569.2" x2="108.4" y2="780.7"/>
		<line class="st2" x1="939.9" y1="569.2" x2="939.9" y2="671.2"/>
		<line class="st2" x1="1424" y1="569.2" x2="1424" y2="671.2"/>
		<line class="st2" x1="2064.7" y1="569.2" x2="2064.7" y2="671.2"/>
		<line class="st2" x1="2546.4" y1="569.2" x2="2546.4" y2="671.2"/>
		<line class="st7" x1="2563.8" y1="569.2" x2="2563.8" y2="671.2"/>
		<line class="st2" x1="108.4" y1="221.1" x2="108.4" y2="570.6"/>
		<line class="st2" x1="939.9" y1="221.1" x2="939.9" y2="323"/>
		<line class="st2" x1="1424" y1="221.1" x2="1424" y2="323"/>
		<line class="st2" x1="2064.7" y1="221.1" x2="2064.7" y2="323"/>
		<line class="st2" x1="2546.4" y1="221.1" x2="2546.4" y2="323"/>
		<line class="st7" x1="2563.8" y1="221.1" x2="2563.8" y2="323"/>
		<line class="st3" x1="1773.3" y1="755.9" x2="1822.9" y2="755.9"/>
		<line class="st3" x1="974.4" y1="694.6" x2="1024" y2="694.6"/>
		<line class="st3" x1="1193.7" y1="694.6" x2="1243.3" y2="694.6"/>
		<line class="st3" x1="1597.9" y1="694.6" x2="1647.5" y2="694.6"/>
		<line class="st3" x1="2099.2" y1="694.6" x2="2148.8" y2="694.6"/>
		<line class="st3" x1="1193.7" y1="346.4" x2="1243.3" y2="346.4"/>
		<line class="st0" x1="304.6" y1="808.8" x2="304.6" y2="889.2"/>
		<line class="st0" x1="453.9" y1="808.8" x2="453.9" y2="879.9"/>
		<line class="st0" x1="547.2" y1="808.8" x2="547.2" y2="879.9"/>
		<line class="st0" x1="640.5" y1="808.8" x2="640.5" y2="889.2"/>
		<line class="st0" x1="819.3" y1="839.5" x2="819.3" y2="762.1"/>
		<line class="st0" x1="984.4" y1="784" x2="984.4" y2="867.5"/>
		<line class="st0" x1="1203.8" y1="808.8" x2="1203.8" y2="889.2"/>
		<line class="st0" x1="1467.7" y1="771.6" x2="1467.7" y2="855.1"/>
		<line class="st0" x1="1608" y1="784" x2="1608" y2="855.1"/>
		<line class="st0" x1="1695.7" y1="771.6" x2="1695.7" y2="848.9"/>
		<line class="st0" x1="1783.3" y1="759.2" x2="1783.3" y2="842.7"/>
		<line class="st0" x1="1923.6" y1="771.6" x2="1923.6" y2="855.1"/>
		<line class="st0" x1="2109.2" y1="784" x2="2109.2" y2="867.5"/>
		<line class="st0" x1="334.1" y1="629.4" x2="334.1" y2="552"/>
		<line class="st0" x1="483.4" y1="617" x2="483.4" y2="545.8"/>
		<line class="st0" x1="576.7" y1="629.4" x2="576.7" y2="552"/>
		<line class="st0" x1="670" y1="654.2" x2="670" y2="570.6"/>
		<line class="st0" x1="819.3" y1="666.6" x2="819.3" y2="583"/>
		<line class="st0" x1="1013.9" y1="691.5" x2="1013.9" y2="607.8"/>
		<line class="st0" x1="1233.3" y1="691.5" x2="1233.3" y2="607.8"/>
		<line class="st0" x1="1497.2" y1="679" x2="1497.2" y2="595.4"/>
		<line class="st0" x1="1637.5" y1="691.5" x2="1637.5" y2="620.2"/>
		<line class="st0" x1="1725.2" y1="679" x2="1725.2" y2="614"/>
		<line class="st0" x1="1812.8" y1="654.2" x2="1812.8" y2="570.6"/>
		<line class="st0" x1="1953.1" y1="666.6" x2="1953.1" y2="583"/>
		<line class="st0" x1="2138.7" y1="691.5" x2="2138.7" y2="607.8"/>
		<line class="st0" x1="304.6" y1="263" x2="304.6" y2="340.2"/>
		<line class="st0" x1="453.9" y1="250.6" x2="453.9" y2="321.6"/>
		<line class="st0" x1="547.2" y1="263" x2="547.2" y2="327.8"/>
		<line class="st0" x1="670" y1="281.3" x2="670" y2="203.8"/>
		<line class="st0" x1="819.3" y1="293.7" x2="819.3" y2="213.1"/>
		<line class="st0" x1="1013.9" y1="306.1" x2="1013.9" y2="222.4"/>
		<line class="st0" x1="1233.3" y1="343.3" x2="1233.3" y2="259.6"/>
		<line class="st0" x1="1497.2" y1="306.1" x2="1497.2" y2="222.4"/>
		<line class="st0" x1="1637.5" y1="318.5" x2="1637.5" y2="247.2"/>
		<line class="st0" x1="1725.2" y1="306.1" x2="1725.2" y2="241"/>
		<line class="st0" x1="1812.8" y1="281.3" x2="1812.8" y2="203.8"/>
		<line class="st0" x1="1953.1" y1="293.7" x2="1953.1" y2="213.1"/>
		<line class="st0" x1="2138.7" y1="306.1" x2="2138.7" y2="222.4"/>
		<path class="st1" d="M334.5,797.5c-1.8-3.3-5.6-5.1-10.1-5.1c-3.4,0-7,1-10.6,2.9c-6.5,3.5-10.5,9.3-10.5,14.4
			c0,1.4,0.3,2.8,1,4.1c1.8,3.3,5.6,5,10.1,5c3.4,0,7-0.9,10.6-2.8c6.5-3.5,10.5-9.3,10.5-14.4C335.5,800.2,335.2,798.8,334.5,797.5
			"/>
		<path class="st1" d="M483.8,797.5c-1.8-3.3-5.6-5.1-10.1-5.1c-3.4,0-7,1-10.6,2.9c-6.5,3.5-10.5,9.3-10.5,14.4
			c0,1.4,0.3,2.8,1,4.1c1.8,3.3,5.6,5,10.1,5c3.4,0,7-0.9,10.6-2.8c6.5-3.5,10.5-9.3,10.5-14.4C484.8,800.2,484.5,798.8,483.8,797.5
			"/>
		<path class="st1" d="M577.1,797.5c-1.8-3.3-5.6-5.1-10.1-5.1c-3.4,0-7,1-10.6,2.9c-6.5,3.5-10.5,9.3-10.5,14.4
			c0,1.4,0.3,2.8,1,4.1c1.8,3.3,5.6,5,10.1,5c3.4,0,7-0.9,10.6-2.8c6.5-3.5,10.5-9.3,10.5-14.4C578.1,800.2,577.8,798.8,577.1,797.5
			"/>
		<path class="st1" d="M670.4,797.5c-1.8-3.3-5.6-5.1-10.1-5.1c-3.4,0-7,1-10.6,2.9c-6.5,3.5-10.5,9.3-10.5,14.4
			c0,1.4,0.3,2.8,1,4.1c1.8,3.3,5.6,5,10.1,5c3.4,0,7-0.9,10.6-2.8c6.5-3.5,10.5-9.3,10.5-14.4C671.4,800.2,671.1,798.8,670.4,797.5
			"/>
		<path class="st1" d="M819.6,834.7c-1.8-3.3-5.6-5.1-10.1-5.1c-3.4,0-7,1-10.6,2.9c-6.5,3.5-10.5,9.3-10.5,14.4
			c0,1.4,0.3,2.8,1,4.1c1.8,3.3,5.6,5,10.1,5c3.4,0,7-0.9,10.6-2.8c6.5-3.5,10.5-9.3,10.5-14.4C820.6,837.4,820.3,836,819.6,834.7"
			/>
		<path class="st1" d="M1014.3,772.7c-1.8-3.3-5.6-5.1-10.1-5.1c-3.4,0-7,1-10.6,2.9c-6.5,3.5-10.5,9.3-10.5,14.4
			c0,1.4,0.3,2.8,1,4.1c1.8,3.3,5.6,5,10.1,5c3.4,0,7-0.9,10.6-2.8c6.5-3.5,10.5-9.3,10.5-14.4C1015.3,775.4,1015,774,1014.3,772.7
			 M1010,779.4c-1.7,1.7-5.1,3.8-8.6,5.8s-7.1,3.5-9.5,4c-0.5,0.1-1,0.2-1.5,0.2c-1.6,0-2.8-0.6-3.5-1.9c-0.3-0.5-0.5-1.1-0.5-1.7
			c0-1.1,0.7-2.4,1.8-3.5c1.7-1.7,5-3.8,8.5-5.8s7.1-3.5,9.5-4c0.5-0.1,1-0.2,1.5-0.2c1.6,0,2.9,0.6,3.6,1.9
			c0.3,0.5,0.4,1.1,0.4,1.7C1011.7,777,1011.1,778.2,1010,779.4"/>
		<path class="st1" d="M1233.7,797.5c-1.8-3.3-5.6-5.1-10.1-5.1c-3.4,0-7,1-10.6,2.9c-6.5,3.5-10.5,9.3-10.5,14.4
			c0,1.4,0.3,2.8,1,4.1c1.8,3.3,5.6,5,10.1,5c3.4,0,7-0.9,10.6-2.8c6.5-3.5,10.5-9.3,10.5-14.4
			C1234.7,800.2,1234.4,798.8,1233.7,797.5 M1229.4,804.2c-1.7,1.7-5.1,3.8-8.6,5.8s-7.1,3.5-9.5,4c-0.5,0.1-1,0.2-1.5,0.2
			c-1.6,0-2.8-0.6-3.5-1.9c-0.3-0.5-0.5-1.1-0.5-1.7c0-1.1,0.7-2.4,1.8-3.5c1.7-1.7,5-3.8,8.5-5.8s7.1-3.5,9.5-4
			c0.5-0.1,1-0.2,1.5-0.2c1.6,0,2.9,0.6,3.6,1.9c0.3,0.5,0.4,1.1,0.4,1.7C1231.1,801.8,1230.5,803,1229.4,804.2"/>
		<path class="st1" d="M1497.6,760.3c-1.8-3.3-5.6-5.1-10.1-5.1c-3.4,0-7,1-10.6,2.9c-6.5,3.5-10.5,9.3-10.5,14.4
			c0,1.4,0.3,2.8,1,4.1c1.8,3.3,5.6,5,10.1,5c3.4,0,7-0.9,10.6-2.8c6.5-3.5,10.5-9.3,10.5-14.4
			C1498.6,762.9,1498.3,761.6,1497.6,760.3"/>
		<path class="st1" d="M1637.9,772.7c-1.8-3.3-5.6-5.1-10.1-5.1c-3.4,0-7,1-10.6,2.9c-6.5,3.5-10.5,9.3-10.5,14.4
			c0,1.4,0.3,2.8,1,4.1c1.8,3.3,5.6,5,10.1,5c3.4,0,7-0.9,10.6-2.8c6.5-3.5,10.5-9.3,10.5-14.4
			C1638.9,775.4,1638.6,774,1637.9,772.7"/>
		<path class="st1" d="M1725.5,760.3c-1.8-3.3-5.6-5.1-10.1-5.1c-3.4,0-7,1-10.6,2.9c-6.5,3.5-10.5,9.3-10.5,14.4
			c0,1.4,0.3,2.8,1,4.1c1.8,3.3,5.6,5,10.1,5c3.4,0,7-0.9,10.6-2.8c6.5-3.5,10.5-9.3,10.5-14.4
			C1726.5,762.9,1726.2,761.6,1725.5,760.3"/>
		<path class="st1" d="M1813.2,747.9c-1.8-3.3-5.6-5.1-10.1-5.1c-3.4,0-7,1-10.6,2.9c-6.5,3.5-10.5,9.3-10.5,14.4
			c0,1.4,0.3,2.8,1,4.1c1.8,3.3,5.6,5,10.1,5c3.4,0,7-0.9,10.6-2.8c6.5-3.5,10.5-9.3,10.5-14.4
			C1814.2,750.5,1813.9,749.2,1813.2,747.9"/>
		<path class="st1" d="M1953.5,760.3c-1.8-3.3-5.6-5.1-10.1-5.1c-3.4,0-7,1-10.6,2.9c-6.5,3.5-10.5,9.3-10.5,14.4
			c0,1.4,0.3,2.8,1,4.1c1.8,3.3,5.6,5,10.1,5c3.4,0,7-0.9,10.6-2.8c6.5-3.5,10.5-9.3,10.5-14.4
			C1954.4,762.9,1954.2,761.6,1953.5,760.3"/>
		<path class="st1" d="M2139.1,772.7c-1.8-3.3-5.6-5.1-10.1-5.1c-3.4,0-7,1-10.6,2.9c-6.5,3.5-10.5,9.3-10.5,14.4
			c0,1.4,0.3,2.8,1,4.1c1.8,3.3,5.6,5,10.1,5c3.4,0,7-0.9,10.6-2.8c6.5-3.5,10.5-9.3,10.5-14.4
			C2140.1,775.4,2139.8,774,2139.1,772.7 M2134.8,779.4c-1.7,1.7-5.1,3.8-8.6,5.8c-3.6,2-7.1,3.5-9.5,4c-0.5,0.1-1,0.2-1.5,0.2
			c-1.6,0-2.8-0.6-3.5-1.9c-0.3-0.5-0.5-1.1-0.5-1.7c0-1.1,0.7-2.4,1.8-3.5c1.7-1.7,5-3.8,8.5-5.8c3.6-2,7.1-3.5,9.5-4
			c0.5-0.1,1-0.2,1.5-0.2c1.6,0,2.9,0.6,3.6,1.9c0.3,0.5,0.4,1.1,0.4,1.7C2136.5,777,2135.9,778.2,2134.8,779.4"/>
		<path class="st1" d="M334.5,624.6c-1.8-3.3-5.6-5.1-10.1-5.1c-3.4,0-7,1-10.6,2.9c-6.5,3.5-10.5,9.3-10.5,14.4
			c0,1.4,0.3,2.8,1,4.1c1.8,3.3,5.6,5,10.1,5c3.4,0,7-0.9,10.6-2.8c6.5-3.5,10.5-9.3,10.5-14.4C335.5,627.3,335.2,625.9,334.5,624.6
			"/>
		<path class="st1" d="M483.8,612.2c-1.8-3.3-5.6-5.1-10.1-5.1c-3.4,0-7,1-10.6,2.9c-6.5,3.5-10.5,9.3-10.5,14.4
			c0,1.4,0.3,2.8,1,4.1c1.8,3.3,5.6,5,10.1,5c3.4,0,7-0.9,10.6-2.8c6.5-3.5,10.5-9.3,10.5-14.4C484.8,614.9,484.5,613.5,483.8,612.2
			"/>
		<path class="st1" d="M577.1,624.6c-1.8-3.3-5.6-5.1-10.1-5.1c-3.4,0-7,1-10.6,2.9c-6.5,3.5-10.5,9.3-10.5,14.4
			c0,1.4,0.3,2.8,1,4.1c1.8,3.3,5.6,5,10.1,5c3.4,0,7-0.9,10.6-2.8c6.5-3.5,10.5-9.3,10.5-14.4C578.1,627.3,577.8,625.9,577.1,624.6
			"/>
		<path class="st1" d="M670.4,649.4c-1.8-3.3-5.6-5.1-10.1-5.1c-3.4,0-7,1-10.6,2.9c-6.5,3.5-10.5,9.3-10.5,14.4
			c0,1.4,0.3,2.8,1,4.1c1.8,3.3,5.6,5,10.1,5c3.4,0,7-0.9,10.6-2.8c6.5-3.5,10.5-9.3,10.5-14.4C671.4,652.1,671.1,650.7,670.4,649.4
			"/>
		<path class="st1" d="M819.6,661.8c-1.8-3.3-5.6-5.1-10.1-5.1c-3.4,0-7,1-10.6,2.9c-6.5,3.5-10.5,9.3-10.5,14.4
			c0,1.4,0.3,2.8,1,4.1c1.8,3.3,5.6,5,10.1,5c3.4,0,7-0.9,10.6-2.8c6.5-3.5,10.5-9.3,10.5-14.4C820.6,664.5,820.3,663.1,819.6,661.8
			"/>
		<path class="st1" d="M1014.3,686.6c-1.8-3.3-5.6-5.1-10.1-5.1c-3.4,0-7,1-10.6,2.9c-6.5,3.5-10.5,9.3-10.5,14.4
			c0,1.4,0.3,2.8,1,4.1c1.8,3.3,5.6,5,10.1,5c3.4,0,7-0.9,10.6-2.8c6.5-3.5,10.5-9.3,10.5-14.4
			C1015.3,689.3,1015,687.9,1014.3,686.6 M1010,693.3c-1.7,1.7-5.1,3.8-8.6,5.8s-7.1,3.5-9.5,4c-0.5,0.1-1,0.2-1.5,0.2
			c-1.6,0-2.8-0.6-3.5-1.9c-0.3-0.5-0.5-1.1-0.5-1.7c0-1.1,0.7-2.4,1.8-3.5c1.7-1.7,5-3.8,8.5-5.8s7.1-3.5,9.5-4
			c0.5-0.1,1-0.2,1.5-0.2c1.6,0,2.9,0.6,3.6,1.9c0.3,0.5,0.4,1.1,0.4,1.7C1011.7,691,1011.1,692.1,1010,693.3"/>
		<path class="st1" d="M1233.7,686.6c-1.8-3.3-5.6-5.1-10.1-5.1c-3.4,0-7,1-10.6,2.9c-6.5,3.5-10.5,9.3-10.5,14.4
			c0,1.4,0.3,2.8,1,4.1c1.8,3.3,5.6,5,10.1,5c3.4,0,7-0.9,10.6-2.8c6.5-3.5,10.5-9.3,10.5-14.4
			C1234.7,689.3,1234.4,687.9,1233.7,686.6 M1229.4,693.3c-1.7,1.7-5.1,3.8-8.6,5.8s-7.1,3.5-9.5,4c-0.5,0.1-1,0.2-1.5,0.2
			c-1.6,0-2.8-0.6-3.5-1.9c-0.3-0.5-0.5-1.1-0.5-1.7c0-1.1,0.7-2.4,1.8-3.5c1.7-1.7,5-3.8,8.5-5.8s7.1-3.5,9.5-4
			c0.5-0.1,1-0.2,1.5-0.2c1.6,0,2.9,0.6,3.6,1.9c0.3,0.5,0.4,1.1,0.4,1.7C1231.1,691,1230.5,692.1,1229.4,693.3"/>
		<path class="st1" d="M1497.6,674.2c-1.8-3.3-5.6-5.1-10.1-5.1c-3.4,0-7,1-10.6,2.9c-6.5,3.5-10.5,9.3-10.5,14.4
			c0,1.4,0.3,2.8,1,4.1c1.8,3.3,5.6,5,10.1,5c3.4,0,7-0.9,10.6-2.8c6.5-3.5,10.5-9.3,10.5-14.4
			C1498.6,676.9,1498.3,675.5,1497.6,674.2"/>
		<path class="st1" d="M1637.9,686.6c-1.8-3.3-5.6-5.1-10.1-5.1c-3.4,0-7,1-10.6,2.9c-6.5,3.5-10.5,9.3-10.5,14.4
			c0,1.4,0.3,2.8,1,4.1c1.8,3.3,5.6,5,10.1,5c3.4,0,7-0.9,10.6-2.8c6.5-3.5,10.5-9.3,10.5-14.4
			C1638.9,689.3,1638.6,687.9,1637.9,686.6"/>
		<path class="st1" d="M1725.5,674.2c-1.8-3.3-5.6-5.1-10.1-5.1c-3.4,0-7,1-10.6,2.9c-6.5,3.5-10.5,9.3-10.5,14.4
			c0,1.4,0.3,2.8,1,4.1c1.8,3.3,5.6,5,10.1,5c3.4,0,7-0.9,10.6-2.8c6.5-3.5,10.5-9.3,10.5-14.4
			C1726.5,676.9,1726.2,675.5,1725.5,674.2"/>
		<path class="st1" d="M1813.2,649.4c-1.8-3.3-5.6-5.1-10.1-5.1c-3.4,0-7,1-10.6,2.9c-6.5,3.5-10.5,9.3-10.5,14.4
			c0,1.4,0.3,2.8,1,4.1c1.8,3.3,5.6,5,10.1,5c3.4,0,7-0.9,10.6-2.8c6.5-3.5,10.5-9.3,10.5-14.4
			C1814.2,652.1,1813.9,650.7,1813.2,649.4"/>
		<path class="st1" d="M1953.5,661.8c-1.8-3.3-5.6-5.1-10.1-5.1c-3.4,0-7,1-10.6,2.9c-6.5,3.5-10.5,9.3-10.5,14.4
			c0,1.4,0.3,2.8,1,4.1c1.8,3.3,5.6,5,10.1,5c3.4,0,7-0.9,10.6-2.8c6.5-3.5,10.5-9.3,10.5-14.4
			C1954.4,664.5,1954.2,663.1,1953.5,661.8"/>
		<path class="st1" d="M2139.1,686.6c-1.8-3.3-5.6-5.1-10.1-5.1c-3.4,0-7,1-10.6,2.9c-6.5,3.5-10.5,9.3-10.5,14.4
			c0,1.4,0.3,2.8,1,4.1c1.8,3.3,5.6,5,10.1,5c3.4,0,7-0.9,10.6-2.8c6.5-3.5,10.5-9.3,10.5-14.4
			C2140.1,689.3,2139.8,687.9,2139.1,686.6 M2134.8,693.3c-1.7,1.7-5.1,3.8-8.6,5.8c-3.6,2-7.1,3.5-9.5,4c-0.5,0.1-1,0.2-1.5,0.2
			c-1.6,0-2.8-0.6-3.5-1.9c-0.3-0.5-0.5-1.1-0.5-1.7c0-1.1,0.7-2.4,1.8-3.5c1.7-1.7,5-3.8,8.5-5.8c3.6-2,7.1-3.5,9.5-4
			c0.5-0.1,1-0.2,1.5-0.2c1.6,0,2.9,0.6,3.6,1.9c0.3,0.5,0.4,1.1,0.4,1.7C2136.5,691,2135.9,692.1,2134.8,693.3"/>
		<path class="st1" d="M334.5,251.6c-1.8-3.3-5.6-5.1-10.1-5.1c-3.4,0-7,1-10.6,2.9c-6.5,3.5-10.5,9.3-10.5,14.4
			c0,1.4,0.3,2.8,1,4.1c1.8,3.3,5.6,5,10.1,5c3.4,0,7-0.9,10.6-2.8c6.5-3.5,10.5-9.3,10.5-14.4C335.5,254.3,335.2,252.9,334.5,251.6
			"/>
		<path class="st1" d="M483.8,239.2c-1.8-3.3-5.6-5.1-10.1-5.1c-3.4,0-7,1-10.6,2.9c-6.5,3.5-10.5,9.3-10.5,14.4
			c0,1.4,0.3,2.8,1,4.1c1.8,3.3,5.6,5,10.1,5c3.4,0,7-0.9,10.6-2.8c6.5-3.5,10.5-9.3,10.5-14.4C484.8,241.9,484.5,240.5,483.8,239.2
			"/>
		<path class="st1" d="M577.1,251.6c-1.8-3.3-5.6-5.1-10.1-5.1c-3.4,0-7,1-10.6,2.9c-6.5,3.5-10.5,9.3-10.5,14.4
			c0,1.4,0.3,2.8,1,4.1c1.8,3.3,5.6,5,10.1,5c3.4,0,7-0.9,10.6-2.8c6.5-3.5,10.5-9.3,10.5-14.4C578.1,254.3,577.8,252.9,577.1,251.6
			"/>
		<path class="st1" d="M670.4,276.4c-1.8-3.3-5.6-5.1-10.1-5.1c-3.4,0-7,1-10.6,2.9c-6.5,3.5-10.5,9.3-10.5,14.4
			c0,1.4,0.3,2.8,1,4.1c1.8,3.3,5.6,5,10.1,5c3.4,0,7-0.9,10.6-2.8c6.5-3.5,10.5-9.3,10.5-14.4C671.4,279.1,671.1,277.7,670.4,276.4
			"/>
		<path class="st1" d="M819.6,288.8c-1.8-3.3-5.6-5.1-10.1-5.1c-3.4,0-7,1-10.6,2.9c-6.5,3.5-10.5,9.3-10.5,14.4
			c0,1.4,0.3,2.8,1,4.1c1.8,3.3,5.6,5,10.1,5c3.4,0,7-0.9,10.6-2.8c6.5-3.5,10.5-9.3,10.5-14.4C820.6,291.5,820.3,290.1,819.6,288.8
			"/>
		<path class="st1" d="M1014.3,301.2c-1.8-3.3-5.6-5.1-10.1-5.1c-3.4,0-7,1-10.6,2.9c-6.5,3.5-10.5,9.3-10.5,14.4
			c0,1.4,0.3,2.8,1,4.1c1.8,3.3,5.6,5,10.1,5c3.4,0,7-0.9,10.6-2.8c6.5-3.5,10.5-9.3,10.5-14.4
			C1015.3,303.9,1015,302.5,1014.3,301.2 M1010,307.9c-1.7,1.7-5.1,3.8-8.6,5.8s-7.1,3.5-9.5,4c-0.5,0.1-1,0.2-1.5,0.2
			c-1.6,0-2.8-0.6-3.5-1.9c-0.3-0.5-0.5-1.1-0.5-1.7c0-1.1,0.7-2.4,1.8-3.5c1.7-1.7,5-3.8,8.5-5.8c3.6-2,7.1-3.5,9.5-4
			c0.5-0.1,1-0.2,1.5-0.2c1.6,0,2.9,0.6,3.6,1.9c0.3,0.5,0.4,1.1,0.4,1.7C1011.7,305.6,1011.1,306.8,1010,307.9"/>
		<path class="st1" d="M1233.7,338.4c-1.8-3.3-5.6-5.1-10.1-5.1c-3.4,0-7,1-10.6,2.9c-6.5,3.5-10.5,9.3-10.5,14.4
			c0,1.4,0.3,2.8,1,4.1c1.8,3.3,5.6,5,10.1,5c3.4,0,7-0.9,10.6-2.8c6.5-3.5,10.5-9.3,10.5-14.4
			C1234.7,341.1,1234.4,339.7,1233.7,338.4 M1229.4,345.1c-1.7,1.7-5.1,3.8-8.6,5.8s-7.1,3.5-9.5,4c-0.5,0.1-1,0.2-1.5,0.2
			c-1.6,0-2.8-0.6-3.5-1.9c-0.3-0.5-0.5-1.1-0.5-1.7c0-1.1,0.7-2.4,1.8-3.5c1.7-1.7,5-3.8,8.5-5.8c3.6-2,7.1-3.5,9.5-4
			c0.5-0.1,1-0.2,1.5-0.2c1.6,0,2.9,0.6,3.6,1.9c0.3,0.5,0.4,1.1,0.4,1.7C1231.1,342.8,1230.5,344,1229.4,345.1"/>
		<path class="st1" d="M1497.6,301.2c-1.8-3.3-5.6-5.1-10.1-5.1c-3.4,0-7,1-10.6,2.9c-6.5,3.5-10.5,9.3-10.5,14.4
			c0,1.4,0.3,2.8,1,4.1c1.8,3.3,5.6,5,10.1,5c3.4,0,7-0.9,10.6-2.8c6.5-3.5,10.5-9.3,10.5-14.4
			C1498.6,303.9,1498.3,302.5,1497.6,301.2"/>
		<path class="st1" d="M1637.9,313.6c-1.8-3.3-5.6-5.1-10.1-5.1c-3.4,0-7,1-10.6,2.9c-6.5,3.5-10.5,9.3-10.5,14.4
			c0,1.4,0.3,2.8,1,4.1c1.8,3.3,5.6,5,10.1,5c3.4,0,7-0.9,10.6-2.8c6.5-3.5,10.5-9.3,10.5-14.4
			C1638.9,316.3,1638.6,314.9,1637.9,313.6"/>
		<path class="st1" d="M1725.5,301.2c-1.8-3.3-5.6-5.1-10.1-5.1c-3.4,0-7,1-10.6,2.9c-6.5,3.5-10.5,9.3-10.5,14.4
			c0,1.4,0.3,2.8,1,4.1c1.8,3.3,5.6,5,10.1,5c3.4,0,7-0.9,10.6-2.8c6.5-3.5,10.5-9.3,10.5-14.4
			C1726.5,303.9,1726.2,302.5,1725.5,301.2"/>
		<path class="st1" d="M1813.2,276.4c-1.8-3.3-5.6-5.1-10.1-5.1c-3.4,0-7,1-10.6,2.9c-6.5,3.5-10.5,9.3-10.5,14.4
			c0,1.4,0.3,2.8,1,4.1c1.8,3.3,5.6,5,10.1,5c3.4,0,7-0.9,10.6-2.8c6.5-3.5,10.5-9.3,10.5-14.4
			C1814.2,279.1,1813.9,277.7,1813.2,276.4"/>
		<path class="st1" d="M1953.5,288.8c-1.8-3.3-5.6-5.1-10.1-5.1c-3.4,0-7,1-10.6,2.9c-6.5,3.5-10.5,9.3-10.5,14.4
			c0,1.4,0.3,2.8,1,4.1c1.8,3.3,5.6,5,10.1,5c3.4,0,7-0.9,10.6-2.8c6.5-3.5,10.5-9.3,10.5-14.4
			C1954.4,291.5,1954.2,290.1,1953.5,288.8"/>
		<path class="st1" d="M2139.1,301.2c-1.8-3.3-5.6-5.1-10.1-5.1c-3.4,0-7,1-10.6,2.9c-6.5,3.5-10.5,9.3-10.5,14.4
			c0,1.4,0.3,2.8,1,4.1c1.8,3.3,5.6,5,10.1,5c3.4,0,7-0.9,10.6-2.8c6.5-3.5,10.5-9.3,10.5-14.4
			C2140.1,303.9,2139.8,302.5,2139.1,301.2 M2134.8,307.9c-1.7,1.7-5.1,3.8-8.6,5.8c-3.6,2-7.1,3.5-9.5,4c-0.5,0.1-1,0.2-1.5,0.2
			c-1.6,0-2.8-0.6-3.5-1.9c-0.3-0.5-0.5-1.1-0.5-1.7c0-1.1,0.7-2.4,1.8-3.5c1.7-1.7,5-3.8,8.5-5.8c3.6-2,7.1-3.5,9.5-4
			c0.5-0.1,1-0.2,1.5-0.2c1.6,0,2.9,0.6,3.6,1.9c0.3,0.5,0.4,1.1,0.4,1.7C2136.5,305.6,2135.9,306.8,2134.8,307.9"/>
		<path class="st1" d="M155.6,780.6c-7.5,0-13.6,4.4-13.7,4.4c-5.8,4.3-8,9.3-8.9,12.8c-0.5,1.8-0.7,3.6-0.7,5.3
			c0,2.4,0.4,4.6,1.3,6.4c1.2,2.7,3.5,4.6,6.4,5.6c1.2,0.4,2.5,0.6,3.8,0.6c2.2,0,4.5-0.6,6.3-1.7c3.1-1.7,5-5.3,5-9.1
			c0-3.5-1.8-6.6-4.8-8.5c-2.1-1.4-4.1-1.8-5.8-1.8c-1.2,0-2.3,0.2-3.2,0.5c-1,0.4-2.7,1.4-3.5,2.1c0.3-1.9,1.5-4.8,2.6-6.3
			s3.3-3.6,5-4.5c2.5-1.4,5.7-2,9.1-2c10.1,0,15.1,8.1,15.1,24.8c0,9.2-3.5,18.1-6.4,23.9c-3.3,6.5-7.6,12.8-11.5,16.3
			c-10.3,9.4-20,13.9-20.1,13.9c0,0-1.5,0.9-1.1,2.4c0.3,1,1.2,1.2,1.8,1.2c0.1,0,0.4-0.1,0.5-0.1s11.4-4.7,20.4-11.7
			c5.1-3.7,9.6-7.6,13.6-11.9c3.6-3.9,6.6-8,9.1-12.2c4.4-7.4,6.8-15.2,6.8-21.8c0-8.2-2.2-15.1-6.3-19.9
			C171.9,783.5,164.9,780.6,155.6,780.6 M186.8,793.2c0,2.8,2.2,5,4.8,5c2.6,0,4.8-2.2,4.8-5s-2.2-5.1-4.8-5.1
			C189,788.1,186.8,790.4,186.8,793.2 M186.8,817.7c0,2.8,2.2,5.1,4.8,5.1c2.6,0,4.8-2.3,4.8-5.1s-2.2-5.1-4.8-5.1
			C189,812.7,186.8,814.9,186.8,817.7"/>
		<path class="st1" d="M193.3,639.2c-1.2-5.4-3.8-9.2-4.6-10.2c-3.2-4.2-7.1-7.1-11.8-8.4c-3.1-0.9-6.1-1-8.5-0.8
			c-1-6-2-11.8-2.9-17.2c5.4-6.1,9-11.9,11.3-16.1c3.4-6.5,4.6-11.1,4.6-11.3c1.7-5.2,2.1-12.8,1-21c-1-7.5-3.1-14.1-5.4-17.4
			c-1-1.4-2.1-2.1-3.1-2.1c-1.2,0-3.7,1.2-6.6,4c-2.3,2.2-5.5,6-8.1,12c-3,7-3.2,16.4-2.8,23.1c0.4,7.2,1.5,12.9,1.5,12.9
			c0,0.1,0.3,1.6,0.7,4.1c-0.2,0.2-0.5,0.4-0.7,0.7c-1,1-2.2,2.1-3.6,3.5c-0.9,0.9-1.8,1.8-2.8,2.7c-8.4,8.1-21.1,20.3-21.1,39.3
			c0,4.7,0.9,9,2.7,13c1.6,3.6,3.9,6.8,6.8,9.7c7.7,7.5,18.2,10.7,25.2,10.5c2.9-0.1,5.5-0.3,7.9-0.8c1.8,9.5,2.9,16.5,3,21.8
			c0,6.5-1.6,10.4-5.5,13.1c-2.4,1.7-5.2,2.7-8.3,2.8c-2.6,0.1-4.8-0.3-6.2-0.8h0c0,0-0.3-0.1-0.3-0.3c0-0.2,0.3-0.2,0.3-0.2h0
			c1.9-0.4,5.4-1.7,7.8-4.9c1.8-2.5,2.6-7.1,0.8-11c-1.1-2.4-3.6-5.3-9.2-5.7c-2.5-0.2-4.7,0.3-6.7,1.5c-1.8,1.1-3.3,2.7-4.3,4.7
			c-2.4,4.7-2,10.3,1.1,14.2c2.9,3.6,7.5,5.9,12.9,6.5c0.8,0.1,1.7,0.1,2.5,0.1c4.4,0,8.8-1.2,12.3-3.4c3.6-2.5,5.7-6.5,6.4-12.1
			c0.6-4.6,0.2-10.5-1.2-18.5c-0.4-2.1-0.9-5.1-1.5-8.8c5.7-1.9,9.8-5.4,13.6-11.3C193.8,651.5,194.7,645.5,193.3,639.2
			 M159.3,665.2c-4.6-1.2-9-3.7-12.7-7.2c-1.3-1.2-3.2-3.4-4.6-6.7c-1.4-3.1-2-6.5-2-10.1c0.1-4.7,1.4-9.4,3.9-14.2
			c2.9-5.5,7.4-11,13.4-16.3c1.4-1.3,2.8-2.5,4.1-3.8c0.8,4.2,1.6,8.9,2.5,13.7c-3.8,1.3-8.5,4.4-11.6,10c-3.5,6.5-3.4,12-2.6,15.4
			c0.9,4.4,3.4,8.2,6.9,10.2c0.9,0.6,5,2.7,6.8,2.1c0.4-0.1,0.6-0.3,0.8-0.7c0.5-1.2-0.5-1.8-2.1-2.7c-0.6-0.4-1.3-0.8-2-1.3
			c-3.3-2.5-4.7-6.9-3.7-11.2c0.6-2.4,1.8-4.5,3.7-6.2c1.7-1.5,3.7-2.6,6-3.3c2,11.2,4.1,22.2,5.7,30.5c0.1,0.7,0.3,1.3,0.4,2
			C167.8,666.4,163.5,666.3,159.3,665.2 M170.6,632.3c10.3-0.5,14.5,6.9,15.4,11.7c0.5,2.5,0.5,6.9-1.1,11.1
			c-1.2,3.2-3.6,7.2-8.7,9.2c-0.1-0.4-0.1-0.8-0.2-1.3C174.4,654.3,172.5,643.4,170.6,632.3 M163.3,561.9c1.8-5.7,4.5-8.9,6.5-10.6
			c1.7-1.5,3.4-2.2,4.3-2.2c0.1,0,0.3,0,0.4,0c0.5,0.1,1,0.7,1.4,1.6c2.3,4.3,1.6,10.9,0.2,15.3c-1.6,5.4-4.5,10.9-13.2,20.5
			c-0.2-1.1-0.3-2.1-0.5-3.1C161.1,575.1,161.4,567.9,163.3,561.9"/>
		<path class="st1" d="M193.3,291c-1.2-5.4-3.8-9.2-4.6-10.2c-3.2-4.2-7.1-7.1-11.8-8.4c-3.1-0.9-6.1-1-8.5-0.8
			c-1-6-2-11.8-2.9-17.2c5.4-6.1,9-11.9,11.3-16.1c3.4-6.5,4.6-11.1,4.6-11.3c1.7-5.2,2.1-12.8,1-21c-1-7.5-3.1-14.1-5.4-17.4
			c-1-1.4-2.1-2.1-3.1-2.1c-1.2,0-3.7,1.2-6.6,4c-2.3,2.2-5.5,6-8.1,12c-3,7-3.2,16.4-2.8,23.1c0.4,7.2,1.5,12.9,1.5,12.9
			c0,0.1,0.3,1.6,0.7,4.1c-0.2,0.2-0.5,0.4-0.7,0.7c-1,1-2.2,2.1-3.6,3.5c-0.9,0.9-1.8,1.8-2.8,2.7c-8.4,8.1-21.1,20.3-21.1,39.3
			c0,4.7,0.9,9,2.7,13c1.6,3.6,3.9,6.8,6.8,9.7c7.7,7.5,18.2,10.7,25.2,10.5c2.9-0.1,5.5-0.3,7.9-0.8c1.8,9.5,2.9,16.5,3,21.8
			c0,6.5-1.6,10.4-5.5,13.1c-2.4,1.7-5.2,2.7-8.3,2.8c-2.6,0.1-4.8-0.3-6.2-0.8h0c0,0-0.3-0.1-0.3-0.3c0-0.2,0.3-0.2,0.3-0.2h0
			c1.9-0.4,5.4-1.7,7.8-4.9c1.8-2.5,2.6-7.1,0.8-11c-1.1-2.4-3.6-5.3-9.2-5.7c-2.5-0.2-4.7,0.3-6.7,1.5c-1.8,1.1-3.3,2.7-4.3,4.7
			c-2.4,4.7-2,10.3,1.1,14.2c2.9,3.6,7.5,5.9,12.9,6.5c0.8,0.1,1.7,0.1,2.5,0.1c4.4,0,8.8-1.2,12.3-3.4c3.6-2.5,5.7-6.5,6.4-12.1
			c0.6-4.6,0.2-10.5-1.2-18.5c-0.4-2.1-0.9-5.1-1.5-8.8c5.7-1.9,9.8-5.4,13.6-11.3C193.8,303.3,194.7,297.3,193.3,291 M159.3,317
			c-4.6-1.2-9-3.7-12.7-7.2c-1.3-1.2-3.2-3.4-4.6-6.7c-1.4-3.1-2-6.5-2-10.1c0.1-4.7,1.4-9.4,3.9-14.2c2.9-5.5,7.4-11,13.4-16.3
			c1.4-1.3,2.8-2.5,4.1-3.8c0.8,4.2,1.6,8.9,2.5,13.7c-3.8,1.3-8.5,4.4-11.6,10c-3.5,6.5-3.4,12-2.6,15.4c0.9,4.4,3.4,8.2,6.9,10.2
			c0.9,0.6,5,2.7,6.8,2.1c0.4-0.1,0.6-0.3,0.8-0.7c0.5-1.2-0.5-1.8-2.1-2.7c-0.6-0.4-1.3-0.8-2-1.3c-3.3-2.5-4.7-6.9-3.7-11.2
			c0.6-2.4,1.8-4.5,3.7-6.2c1.7-1.5,3.7-2.6,6-3.3c2,11.2,4.1,22.2,5.7,30.5c0.1,0.7,0.3,1.3,0.4,2
			C167.8,318.2,163.5,318.1,159.3,317 M170.6,284.1c10.3-0.5,14.5,6.9,15.4,11.7c0.5,2.5,0.5,6.9-1.1,11.1c-1.2,3.2-3.6,7.2-8.7,9.2
			c-0.1-0.4-0.1-0.8-0.2-1.3C174.4,306.1,172.5,295.2,170.6,284.1 M163.3,213.7c1.8-5.7,4.5-8.9,6.5-10.6c1.7-1.5,3.4-2.2,4.3-2.2
			c0.1,0,0.3,0,0.4,0c0.5,0.1,1,0.7,1.4,1.6c2.3,4.3,1.6,10.9,0.2,15.3c-1.6,5.4-4.5,10.9-13.2,20.5c-0.2-1.1-0.3-2.1-0.5-3.1
			C161.1,226.9,161.4,219.7,163.3,213.7"/>
		<path class="st1" d="M241,847.3c-0.6-3.9-3-7.5-8-7.5c-5,0-7.8,3.1-8.3,3.7l0.4-31.8c0-0.8-0.6-1.4-1.4-1.4h-1.2
			c-0.8,0-1.4,0.6-1.4,1.4l0.5,59.6c0,0.8,0.6,1.4,1.4,1.4c0.2,0,0.6-0.1,0.8-0.2c0.4-0.2,6.8-3.4,12.2-9.4
			c3.8-4.3,5.3-9.1,5.3-13.2C241.2,848.9,241.1,848.1,241,847.3 M234.2,851.2c0,1.5-0.4,6.1-2.9,9.8c-1.7,2.6-5.1,5.3-6.9,6.7
			l0.3-19.3c0.2-0.9,1.7-3.8,5.7-3.8c3.6,0,3.9,3.4,3.9,5.5V851.2"/>
		<path class="st1" d="M241,612.4c-0.6-3.9-3-7.5-8-7.5c-5,0-7.8,3.1-8.3,3.7l0.4-31.8c0-0.8-0.6-1.4-1.4-1.4h-1.2
			c-0.8,0-1.4,0.6-1.4,1.4l0.5,59.6c0,0.8,0.6,1.4,1.4,1.4c0.2,0,0.6-0.1,0.8-0.2c0.4-0.2,6.8-3.4,12.2-9.4
			c3.8-4.3,5.3-9.1,5.3-13.2C241.2,614,241.1,613.2,241,612.4 M234.2,616.3c0,1.5-0.4,6.1-2.9,9.8c-1.7,2.6-5.1,5.3-6.9,6.7
			l0.3-19.3c0.2-0.9,1.7-3.8,5.7-3.8c3.6,0,3.9,3.4,3.9,5.5V616.3"/>
		<path class="st1" d="M241,264.2c-0.6-3.9-3-7.5-8-7.5c-5,0-7.8,3.1-8.3,3.7l0.4-31.8c0-0.8-0.6-1.4-1.4-1.4h-1.2
			c-0.8,0-1.4,0.6-1.4,1.4l0.5,59.6c0,0.8,0.6,1.4,1.4,1.4c0.2,0,0.6-0.1,0.8-0.2c0.4-0.2,6.8-3.4,12.2-9.4
			c3.8-4.3,5.3-9.1,5.3-13.2C241.2,265.8,241.1,265,241,264.2 M234.2,268.1c0,1.5-0.4,6.1-2.9,9.8c-1.7,2.6-5.1,5.3-6.9,6.7
			l0.3-19.3c0.2-0.9,1.7-3.8,5.7-3.8c3.6,0,3.9,3.4,3.9,5.5V268.1"/>
		<path class="st1" d="M2419.3,847.1l-0.2-0.3c-0.1-0.1-0.3-0.3-0.6-0.7l-11.4-14.1c-0.3-0.3-0.2-1.1,0-1.5l10.1-15.3
			c0.1-0.2,0.2-0.5,0.2-0.7v-0.9c0-0.3-0.1-0.6-0.3-0.8l-16.1-21.7c0,0-0.8-1.2-1.8-0.3c-1,0.8-0.2,2.1-0.2,2.1l7.5,10.3
			c0.4,0.6,0.4,1.8,0,2.4l-10,15.3c-0.1,0.2-0.2,0.6-0.2,0.8v0.9c0,0.3,0.1,0.6,0.3,0.8l11.1,13.8c-0.4-0.1-1.3-0.3-2.5-0.3
			c-1.7,0-3.9,0.4-5.7,2c-2.2,2-3.4,4.8-3.4,7.2c0,1.4,0.3,2.8,1.1,3.9c2.1,3.2,9.5,12.6,9.5,12.6s0.9,1.1,1.8,0.4
			c0.9-0.7,0.7-1.6,0.4-2.1c-0.3-0.5-3.5-6.3-3.5-6.3s-0.7-1.4-0.7-3.2c0-1.3,0.4-2.9,1.7-4.2c1.2-1.2,2.6-1.6,3.9-1.6
			s2.4,0.4,3.2,0.9l3.9,2.5c0,0,1.2,0.6,1.8-0.3C2419.8,848,2419.6,847.6,2419.3,847.1"/>
		<path class="st1" d="M2419.3,637l-0.2-0.3c-0.1-0.1-0.3-0.3-0.6-0.7l-11.4-14.1c-0.3-0.3-0.2-1.1,0-1.5l10.1-15.3
			c0.1-0.2,0.2-0.5,0.2-0.7v-0.9c0-0.3-0.1-0.6-0.3-0.8l-16.1-21.7c0,0-0.8-1.2-1.8-0.3c-1,0.8-0.2,2.1-0.2,2.1l7.5,10.3
			c0.4,0.6,0.4,1.8,0,2.4l-10,15.3c-0.1,0.2-0.2,0.6-0.2,0.8v0.9c0,0.3,0.1,0.6,0.3,0.8l11.1,13.8c-0.4-0.1-1.3-0.3-2.5-0.3
			c-1.7,0-3.9,0.4-5.7,2c-2.2,2-3.4,4.8-3.4,7.2c0,1.4,0.3,2.8,1.1,3.9c2.1,3.2,9.5,12.6,9.5,12.6s0.9,1.1,1.8,0.4
			c0.9-0.7,0.7-1.6,0.4-2.1c-0.3-0.5-3.5-6.3-3.5-6.3s-0.7-1.4-0.7-3.2c0-1.3,0.4-2.9,1.7-4.2c1.2-1.2,2.6-1.6,3.9-1.6
			s2.4,0.4,3.2,0.9l3.9,2.5c0,0,1.2,0.6,1.8-0.3C2419.8,637.9,2419.6,637.5,2419.3,637"/>
		<path class="st1" d="M2419.3,288.8l-0.2-0.3c-0.1-0.1-0.3-0.3-0.6-0.7l-11.4-14.1c-0.3-0.3-0.2-1.1,0-1.5l10.1-15.3
			c0.1-0.2,0.2-0.5,0.2-0.7v-0.9c0-0.3-0.1-0.6-0.3-0.8l-16.1-21.7c0,0-0.8-1.2-1.8-0.3c-1,0.8-0.2,2.1-0.2,2.1l7.5,10.3
			c0.4,0.6,0.4,1.8,0,2.4l-10,15.3c-0.1,0.2-0.2,0.6-0.2,0.8v0.9c0,0.3,0.1,0.6,0.3,0.8l11.1,13.8c-0.4-0.1-1.3-0.3-2.5-0.3
			c-1.7,0-3.9,0.4-5.7,2c-2.2,2-3.4,4.8-3.4,7.2c0,1.4,0.3,2.8,1.1,3.9c2.1,3.2,9.5,12.6,9.5,12.6s0.9,1.1,1.8,0.4s0.7-1.6,0.4-2.1
			c-0.3-0.5-3.5-6.3-3.5-6.3s-0.7-1.4-0.7-3.2c0-1.3,0.4-2.9,1.7-4.2c1.2-1.2,2.6-1.6,3.9-1.6s2.4,0.4,3.2,0.9l3.9,2.5
			c0,0,1.2,0.6,1.8-0.3C2419.8,289.7,2419.6,289.3,2419.3,288.8"/>
		<path class="st4" d="M452.5,873.7h96v12.4h-96V873.7"/>
		<path class="st4" d="M1606.6,848.9l90.4-6.4v12.4l-90.4,6.4V848.9"/>
		<path class="st4" d="M482,539.4l96,6.4v12.4l-96-6.4V539.4"/>
		<path class="st4" d="M1636.1,614.2l90.4-6.4v12.4l-90.4,6.4V614.2"/>
		<path class="st4" d="M452.5,315.4l96,6.4v12.4l-96-6.4V315.4"/>
		<path class="st4" d="M1636.1,241.2l90.4-6.4v12.4l-90.4,6.4V241.2"/>
		<path class="st1" d="M304.7,383.7c1,1.6,2.1,4.5,3.6,9.5c-0.8,0.2-1.3,0.4-2.5,0.8c-6,2.1-6,2.1-7.4,2.4l1.3,3.5
			c1.4-0.8,4-1.8,6.9-2.8c2.2-0.7,2.2-0.7,2.7-0.9c3.2,10.9,6,22.9,6.3,27l4-0.9c-0.3-0.9-0.4-1.1-0.6-2.2
			c-2.1-9.4-3.9-16.4-6.5-24.9c7.2-2.4,12.7-3.6,16.3-3.6c5,0,8,2.2,8,6.1c0,2.1-0.8,3.9-2.4,5.1c-1.7,1.2-3.9,1.9-6,1.9
			c-2.9,0-5.8-0.8-8.4-2.3c0.2,1.9,0.3,2.2,0.3,2.9c0,0.1,0,0.5,0,0.9c3,1.2,5.7,1.9,8.5,1.9c6.8,0,11.8-4.3,11.8-10.3
			c0-5.6-4.3-9.2-11-9.2c-1.2,0-2.4,0.1-3.8,0.3c0-0.6,0-1.5,0-1.6c0-3.9,0-5.4,0.2-6.8h-3.8c0.1,1.2,0.2,1.7,0.2,8.8
			c-3.7,0.8-3.7,0.8-10.7,2.8c-0.7-2.2-1.2-3.6-2.2-6.6c-0.5-1.5-0.7-2-1-3.1L304.7,383.7"/>
		<path class="st1" d="M303.6,440.9c1.2-0.2,1.7-0.2,3.7-0.2c4.8-0.2,5.5-0.2,9.4-0.5c-1.8,5.8-2.4,7.7-4,12.6
			c-3.9,0.1-6.4,0.6-9,2.2c-3.8,2.1-5.9,5.8-5.9,9.9c0,4.6,2.8,8.2,6.6,8.2c2.4,0,4.2-1.5,6.1-4.9c1.2-2.4,3.1-7.2,4.7-12.1
			c5.1,0.6,9.3,1.8,13.8,4.2c-0.7,2.9-2.3,5.8-4.6,8.4c-2.2,2.5-4.3,4-8.1,5.8c1.1,0.9,1.5,1.2,2.6,2.6c3-1.6,5.7-3.6,8-6.1
			c2.5-2.8,4-5.4,5.2-9.1c3.7,2.1,6.2,3.7,7.8,4.9l1.3-3.8c-0.7-0.3-1-0.5-1.5-0.8c-2.4-1.4-4.1-2.4-6.8-3.8
			c0.5-3.1,0.8-5.8,0.9-10.9c0-1.8,0-2.2,0.2-3.1l-3.8-0.1c0.2,0.9,0.2,1.3,0.2,2.4c0,5.2-0.1,7.4-0.6,10.1
			c-5.2-2.4-8.9-3.4-13.7-3.9c0.9-2.6,1.2-3.6,2.4-7c2-6.1,2.1-6.3,2.8-7.2l-2.7-2.1c-0.5,0.3-1,0.5-1.9,0.6
			c-1.6,0.2-5.6,0.4-8.4,0.4c-2.5,0-3.5-0.1-4.9-0.3L303.6,440.9 M311.7,455.7c-3.6,10.7-5.4,13.8-7.4,13.8c-1.8,0-3.2-2.1-3.2-4.8
			c0-2.1,0.9-4.2,2.4-5.8C305.4,457,307.9,456,311.7,455.7"/>
		<path class="st1" d="M486.9,416.7c-0.7-0.4-0.9-0.6-1.7-1.1c-5.2-3.8-9.6-6.1-14-7.3c-0.2-4.9-0.2-4.9-0.3-7.7
			c3.7-0.2,7.7-0.6,11.1-1.2c1.8-0.2,2.2-0.3,2.9-0.3l-0.2-3.5c-2.8,1-7,1.6-13.8,2.1c0-2.6,0-2.6-0.1-6.8c5.6-0.3,6.9-0.5,11.6-1.2
			c2.6-0.4,2.6-0.4,3.5-0.4l-0.2-3.4c-2.8,0.9-7.9,1.6-14.8,2.1c0.1-3.6,0.2-6,0.4-7.1h-3.9c0.2,1.1,0.2,1.1,0.2,7.2
			c-1.6,0-3.3,0.1-4.3,0.1c-5.5,0-10.7-0.4-12.8-1l0,3.4c0.3-0.1,0.5-0.1,0.7-0.1c0.2,0,0.6,0,0.9,0.1c4.5,0.3,8.5,0.5,12.2,0.5
			c1.1,0,2,0,3.4-0.1l0.1,6.8c-1.4,0.1-3.2,0.1-4.5,0.1c-5,0-9.2-0.3-11.5-0.8l0,3.3c0.2,0,0.3,0,0.4,0c0.3,0,0.7,0,1.2,0.1
			c3.1,0.2,5.4,0.4,8.4,0.4c1.6,0,4.1-0.1,5.9-0.1c0,1.3,0,2.2,0.1,2.9c0.1,1.5,0.1,2.5,0.1,3c0,0.3,0,0.5,0,0.5c0,0.5,0,0.5,0,0.6
			c-2.1-0.4-2.8-0.4-4.5-0.4c-2.2,0-3.7,0.1-5.2,0.5c-4.4,1-7,3.6-7,6.9c0,2.1,1,4,2.7,5.2c1.7,1.3,4.5,2,7.8,2c4,0,7-1.1,8.5-3.1
			c0.9-1.2,1.2-2.8,1.2-5.5c0-0.6,0-0.6-0.1-1.8c1.3,0.5,2.5,1,3.3,1.5c4.2,2.2,7.9,4.8,10.2,7.1L486.9,416.7 M468.1,412.7
			c0,2.4-0.3,3.8-1,4.5c-0.9,1.1-2.8,1.7-5.5,1.7c-4.3,0-6.8-1.5-6.8-4.2c0-2.6,3.2-4.4,8.2-4.4c2.2,0,3.2,0.1,5.1,0.6L468.1,412.7"
			/>
		<path class="st1" d="M469.3,441.5c-2.6,0.1-7,0.2-12.1,0.4c-8,0.3-8,0.3-9.5,0.3c-0.8,0-1.1,0-2-0.1l0.1,3.7
			c1.6-0.4,15.6-1.2,23.5-1.2v1.3c0,0.4,0,0.8,0,1.2c0,0.7,0.1,1.1,0.1,1.3c0,1.8,0,1.9,0,2.8c-1.3-1.4-3.4-2.2-5.8-2.2
			c-5.2,0-8.9,3.5-8.9,8.2c0,4.6,3.5,7.9,8.2,7.9c2.6,0,4.8-0.9,6.3-2.7c0.6-0.7,0.9-1.2,1.4-2.4c-0.2,7-4.6,11.6-13.7,14.3
			c1,1.1,1.4,1.6,2.2,3.1c3.6-1.4,5.8-2.5,7.9-4c4.3-3.2,6.7-7.9,6.7-13.1c0-2.2-0.3-3.8-1.2-5.9v-9.9c4-0.1,4.6-0.1,5.4-0.1
			c5.9,0,7.7,0.1,9.5,0.2v-3.5c-1.2,0.1-1.8,0.2-3.3,0.2l-8.8,0c-0.8,0-0.9,0-2.8,0.1v-0.6c0-3.9,0-4.6,0.2-6.2H469
			c0.2,1,0.2,1.5,0.2,2.9l0.1,3.5V441.5 M463.7,451.8c1.2,0,2.5,0.3,3.3,0.8c1.5,0.8,2.1,1.9,2.1,3.6c0,3.5-2.4,5.9-5.9,5.9
			c-3,0-5.2-2.1-5.2-4.9C458.1,454.1,460.5,451.8,463.7,451.8 M476.9,433.1c1.5,1.6,3.2,3.9,5,6.9l2.4-1.6c-1-1.9-2.8-4.2-5-6.8
			L476.9,433.1 M484,432.1c1.9,2.2,3.4,4.3,5.2,7.4l2.5-1.4c-1.1-2.1-3.2-5-5.2-7.4L484,432.1"/>
		<path class="st1" d="M564.6,387.6c2.5,0.1,4,0.4,5.8,1.2c5.1,2.2,8,6.8,8,12.5c0,6.2-3.3,11.5-8.8,14c-2.4,1.1-4.7,1.8-8.4,2.4
			c1,1.2,1.2,1.7,1.8,3.4c3.5-0.8,5.4-1.4,7.6-2.3c7.2-3.1,11.5-9.5,11.5-17.2c0-4.8-1.7-9.2-4.9-12.2c-3.2-3.2-8.1-5-13.8-5
			c-6.7,0-12.1,2.2-16.1,6.7c-3.4,3.8-5.2,8.7-5.2,13.8c0,7,3.5,12.2,8.3,12.2c3.6,0,6.5-3,9.5-9.6
			C561.9,402.2,563.8,394.5,564.6,387.6 M561,387.6c-0.7,6.4-2.5,13.8-4.5,18.5c-2.2,4.9-4.2,7.2-6.2,7.2c-2.7,0-4.8-3.7-4.8-8.5
			c0-6.2,3.1-11.8,8.2-14.9C555.8,388.6,558,387.9,561,387.6"/>
		<path class="st1" d="M564.6,441.5c2.5,0.1,4,0.4,5.8,1.2c5.1,2.2,8,6.9,8,12.6c0,6.1-3.3,11.5-8.8,14c-2.4,1.1-4.7,1.8-8.4,2.3
			c1,1.2,1.2,1.7,1.8,3.4c3.5-0.8,5.4-1.4,7.6-2.3c7.2-3.1,11.5-9.5,11.5-17.2c0-4.8-1.7-9.1-4.9-12.2c-3.2-3.2-8.1-4.9-13.8-4.9
			c-6.7,0-12.1,2.2-16.1,6.6c-3.4,3.8-5.2,8.7-5.2,13.8c0,7,3.5,12.2,8.3,12.2c3.6,0,6.5-3,9.5-9.6
			C561.9,456.1,563.8,448.5,564.6,441.5 M561,441.6c-0.7,6.4-2.5,13.8-4.5,18.5c-2.2,4.9-4.2,7.2-6.2,7.2c-2.7,0-4.8-3.7-4.8-8.5
			c0-6.2,3.1-11.9,8.2-14.9C555.8,442.5,558,441.8,561,441.6"/>
		<path class="st1" d="M644.3,384.9c0.7,0.2,0.9,0.2,1.7,0.6c4.8,1.9,9,2.9,12.9,3.2c-1.1,0.5-2,1-3.2,1.9c-3.2,2.4-5,5-5,7.6
			c0,2.1,0.8,3.9,2.8,6.1c3.3,3.7,3.3,3.7,4.2,4.9c1,1.5,1.5,2.9,1.5,4.2c0,2.8-2.4,4.8-5.5,4.8c-2.9,0-5.8-1.4-8.6-4.3
			c-0.4,1.9-0.5,2.4-1,3.5c3.4,3,6.4,4.2,9.9,4.2c5.2,0,9-3.5,9-8.1c0-2.9-1.3-5.5-4.6-8.9c-3.4-3.6-3.4-3.6-4-4.6
			c-0.3-0.6-0.5-1.4-0.5-1.9c0-2.3,2.1-4.8,6-7.1c1.6-0.9,2.5-1.3,3.8-1.5l0-3.6c-0.3,0.1-0.6,0.1-0.8,0.1c-2.7,0-8.3-0.9-11.5-1.9
			c-2.5-0.8-4.5-1.6-5.6-2.4L644.3,384.9 M640.2,401.3c-1.1,5.8-3.8,12.1-6.9,16.1c1.5,0.8,2,1.1,3.1,2.1c0.3-0.5,0.3-0.6,0.5-0.9
			c1-1.6,1-1.6,1.5-2.3c1.8-3.4,3.4-7.4,4.6-11.6c0.4-1.3,0.5-1.5,0.7-2.2L640.2,401.3 M665.7,402.3c3,3.2,7.1,11.2,8.3,16.3
			l3.2-1.7c-1.2-3.5-2-5.3-3.3-8c-1.6-3.1-2-3.8-5.2-8L665.7,402.3"/>
		<path class="st1" d="M644.8,438.7c6.7,1.9,12.9,2.9,21,3.3l0.5-3.6c-8.2-0.1-15.4-1.2-20.3-3.1L644.8,438.7 M639.6,454.9
			c3.9-1.6,13.9-3.3,19.1-3.3c2.6,0,4.9,0.4,6.1,1.1c2,1.1,3.2,3.1,3.2,5.6c0,2.3-0.8,4.6-2.5,6.8c-1.2,1.6-2.3,2.4-4.3,3.6
			c-4.2,2.4-8.8,3.7-14.1,4c0.8,1.2,1,1.7,1.6,3.7c7.5-1.4,10.7-2.4,14.5-4.8c5.5-3.4,8.6-8.2,8.6-13.5c0-3.4-1.5-6.2-4.2-7.9
			c-2-1.3-4.8-1.9-8.6-1.9c-4,0-8.6,0.6-15.2,1.8c-3.9,0.8-3.9,0.8-5,0.9L639.6,454.9"/>
		<path class="st1" d="M786.4,404c0.6,0.1,0.8,0.1,1.6,0.3c2.2,0.6,4.5,0.9,7.5,1.2c0,0.4,0,0.4-0.1,1.2c-0.1,1.2-0.2,2.2-0.2,3.3
			c0,2.8,0.5,5.2,1.5,6.9c2,3.2,6,5,11.2,5c8.8,0,14.6-4.8,14.6-11.8c0-3.6-1.1-6.1-4.7-9.9c-1.5,0.7-2,0.8-3.7,1
			c3.2,2.8,4.8,5.6,4.8,8.7c0,5.3-4.3,8.8-11,8.8c-3,0-5.4-0.8-7-2.1c-1.5-1.4-2.3-3.2-2.3-6c0-0.9,0.1-2.5,0.2-3.7c0-0.7,0-0.7,0-1
			c2.2,0.1,3,0.1,4.3,0.1c2.4,0,4.5-0.1,7-0.4c0.7-0.1,0.8-0.1,1.3-0.1l0.1-3.3c-2,0.5-5.6,0.8-9.2,0.8c-0.7,0-1.4,0-3.3-0.1
			c0.3-2.8,0.4-3.3,1.2-9.1c2.8,0.1,3.6,0.1,4.4,0.1c1.4,0,2.9-0.1,4.5-0.2c2.5-0.2,2.5-0.2,3.5-0.3l0.1-3.5
			c-2.2,0.6-5.4,0.9-9.1,0.9c-0.8,0-1.5,0-2.9-0.1c0.2-1.4,0.3-1.9,0.5-3c0.5-2.8,0.5-2.8,0.5-3.2c0.3-1.8,0.5-2.4,0.8-3.4l-4-0.4
			c0,0.2,0,0.3,0,0.4c0,1.3-0.4,4.6-1.2,9.4c-3.5-0.3-6.8-1.1-9-1.9l-0.4,3.3c0.7,0.1,0.9,0.2,1.5,0.3c3,0.7,5.1,1.1,7.5,1.4
			c-0.4,2.6-0.9,6.6-1.2,9c-3.8-0.4-7-1.1-9-2L786.4,404"/>
		<path class="st1" d="M793.3,438.1c6,1.9,9.6,2.6,18.7,3.4l0.7-3.3c-6.6-0.2-12.8-1.2-18.1-3.1L793.3,438.1 M789,451
			c1.3-0.1,2.3-0.2,4.8-0.4c8.5-0.6,11.8-0.9,14.9-1.6c-3.6,3.4-6.2,5.9-7.6,7.4c-4,4-8.2,8-11.8,11.3c-3,2.9-3.7,3.4-5.4,4.6
			l2.8,3.1c1.8-2,5-5.4,7.5-7.6c4.2-3.9,6.6-5.2,9.2-5.2c1,0,2,0.4,2.3,1.2c0.3,0.6,0.4,1.2,0.5,3.4c0.2,3.3,0.5,4.4,1.1,5.5
			c1.1,2,3.2,2.9,7,2.9c2.2,0,4.1-0.2,6.9-0.6c3.5-0.6,3.5-0.6,4-0.6l-0.5-3.9c-2.7,1.2-6.5,1.9-10.1,1.9c-2.3,0-3.4-0.4-4.1-1.4
			c-0.5-0.8-0.7-1.5-0.9-4.7c-0.2-2.8-0.5-4-1.5-5c-0.8-0.8-2-1.3-3.4-1.3c-1.4,0-2.2,0.3-5,1.7c2.5-1.9,5.7-4.8,9.9-9
			c2.9-2.9,3.4-3.4,4.5-4.2l-2.2-2.8c-0.7,0.2-1.2,0.4-2.4,0.6c-4.3,0.6-13.2,1.2-17.6,1.2c-1.1,0-1.8,0-3-0.1L789,451"/>
		<path class="st1" d="M989.7,381.5c0.3,0.8,0.4,1.1,0.8,3.1c1.3,6.4,2.2,9.9,3.7,14c-3.1,1.6-4.7,2.5-6.5,4.1
			c-3,2.4-4.5,5.3-4.5,8.5c0,3.9,2.1,6.7,6.2,8.2c2.4,0.9,6.1,1.4,11.1,1.4c3.5,0,5.9-0.1,11-0.6c2.8-0.3,2.8-0.3,3.7-0.3l-0.4-4.2
			c-2.9,1.1-8.6,1.7-14.3,1.7c-9.8,0-13.6-1.8-13.6-6.3c0-4.2,3.7-7.4,12.2-10.9c4.4-1.8,11.5-4.1,15-4.8l-1.5-3.8
			c-1,0.5-1.4,0.6-3.2,1.3c-7.8,2.7-9.2,3.2-12.1,4.4c-1.7-5-3.6-13.2-3.8-16.6L989.7,381.5"/>
		<path class="st1" d="M983.4,435.7c-0.1,1.2-0.2,1.7-0.7,4c-1.7,7.4-2.2,12.7-2.2,19.8c0,5.2,0.3,8.9,1.3,14.2
			c0.2,0.9,0.2,1.2,0.3,2l3.6-0.3c0-0.4,0-0.6,0-0.8c0-2.8,1.8-8.8,4-13.8l-2.4-1.2c-1.6,3.7-2.5,6.4-3.2,9.8
			c-0.2-2.6-0.3-5.6-0.3-9.5c0-6,0.4-10.4,1.5-15.6c0.8-3.4,1.3-5.9,2.1-8L983.4,435.7 M993.7,445.1c3.2,0.3,5.2,0.5,8,0.5
			c3.8,0,7.8-0.2,10.8-0.7c2.2-0.3,3.3-0.4,3.5-0.4l-0.2-3.6c-3.4,0.9-7.9,1.4-13.4,1.4c-3.9,0-6.3-0.2-8.5-0.8L993.7,445.1
			 M997.3,454.9c-3.1,3.5-4.3,6.2-4.3,9.3c0,1.9,0.5,3.4,1.5,4.6c2.2,2.6,5.8,3.8,11.4,3.8c3.4,0,6.8-0.3,10.2-1
			c1-0.2,1.1-0.2,1.8-0.2l-0.5-3.9c-2.7,1.1-6.9,1.8-11.5,1.8c-6.4,0-9.6-1.8-9.6-5.5c0-2.2,1.2-4.6,3.8-7.3L997.3,454.9"/>
		<path class="st1" d="M1221.2,387.6c2.5,0.1,3.9,0.4,5.8,1.2c5,2.2,7.9,6.8,7.9,12.5c0,6.2-3.3,11.5-8.8,14
			c-2.3,1.1-4.7,1.8-8.3,2.4c0.9,1.2,1.2,1.7,1.8,3.4c3.4-0.8,5.3-1.4,7.6-2.3c7.2-3.1,11.4-9.5,11.4-17.2c0-4.8-1.7-9.2-4.8-12.2
			c-3.2-3.2-8.2-5-13.8-5c-6.7,0-12.2,2.2-16.2,6.7c-3.3,3.8-5.2,8.7-5.2,13.8c0,7,3.6,12.2,8.3,12.2c3.6,0,6.5-3,9.4-9.6
			C1218.5,402.2,1220.4,394.5,1221.2,387.6 M1217.6,387.6c-0.7,6.4-2.5,13.8-4.6,18.5c-2.2,4.9-4.2,7.2-6.2,7.2
			c-2.7,0-4.8-3.7-4.8-8.5c0-6.2,3.1-11.8,8.1-14.9C1212.4,388.6,1214.6,387.9,1217.6,387.6"/>
		<path class="st1" d="M1200.5,457.9c0.6,0.1,0.8,0.1,1.5,0.3c2.2,0.6,4.6,0.9,7.6,1.2c-0.1,0.4-0.1,0.4-0.1,1.2
			c-0.2,1.2-0.2,2.2-0.2,3.3c0,2.9,0.6,5.2,1.6,6.9c1.9,3.2,5.9,5,11.2,5c8.8,0,14.7-4.8,14.7-11.8c0-3.7-1.2-6.1-4.7-9.9
			c-1.5,0.6-2,0.8-3.7,1c3.2,2.8,4.8,5.5,4.8,8.7c0,5.3-4.3,8.8-11.1,8.8c-3,0-5.4-0.8-7-2.2c-1.6-1.3-2.3-3.2-2.3-6
			c0-0.8,0.1-2.5,0.2-3.7c0-0.6,0-0.6,0-1c2.2,0.1,3.1,0.1,4.3,0.1c2.3,0,4.5-0.1,7-0.4c0.7,0,0.9,0,1.4-0.1l0.1-3.4
			c-2,0.5-5.6,0.8-9.2,0.8c-0.7,0-1.4,0-3.3-0.1c0.3-2.8,0.3-3.3,1.2-9.1c2.8,0.1,3.6,0.1,4.4,0.1c1.5,0,3-0.1,4.5-0.2
			c2.5-0.2,2.5-0.2,3.5-0.3l0.2-3.4c-2.2,0.6-5.4,0.8-9.2,0.8c-0.8,0-1.5,0-2.9,0c0.2-1.4,0.3-1.9,0.5-3c0.4-2.8,0.4-2.8,0.5-3.2
			c0.3-1.8,0.5-2.4,0.8-3.3l-4-0.4c0,0.2,0,0.3,0,0.4c0,1.3-0.4,4.6-1.2,9.4c-3.5-0.3-6.8-1-9-1.9l-0.5,3.3c0.7,0.1,0.9,0.2,1.6,0.4
			c2.9,0.7,5.1,1,7.4,1.3c-0.4,2.7-0.9,6.6-1.1,9c-3.8-0.4-7-1.1-9-2L1200.5,457.9"/>
		<path class="st1" d="M1485.2,387.4c-3.4,0.1-7.3,0.2-12.1,0.4c-8.1,0.3-8.1,0.3-9.5,0.3c-0.8,0-1.1,0-2,0l0.1,3.6
			c3.4-0.6,13.5-1.1,23.5-1.2c0,1.9,0,1.9,0,2.6c0,0.6,0.1,1.1,0.1,1.3c0,1.9,0,2.1,0.1,2.8c-1.3-1.4-3.4-2.2-5.8-2.2
			c-5.1,0-8.8,3.5-8.8,8.2c0,4.6,3.4,7.9,8.2,7.9c2.7,0,4.8-0.9,6.3-2.7c0.6-0.7,0.9-1.2,1.3-2.5c-0.2,4.6-1.9,7.8-5.6,10.6
			c-2,1.5-4.2,2.5-8.1,3.8c1,1.1,1.3,1.6,2.2,3.2c3.7-1.4,5.8-2.6,7.9-4.1c4.3-3.2,6.7-7.9,6.7-13.1c0-2.2-0.3-3.8-1.2-5.9v-9.9
			c4-0.1,4.6-0.1,5.3-0.1c5.9,0,7.7,0,9.6,0.2V387c-1.7,0.2-5.5,0.3-15,0.3v-0.5c0-3.9,0.1-4.7,0.2-6.2h-3.8c0.2,1,0.2,1.6,0.2,2.9
			L1485.2,387.4 M1485.1,402c0,3.5-2.4,5.9-5.8,5.9c-3.1,0-5.2-2.1-5.2-4.9c0-3,2.4-5.2,5.6-5.2c1.3,0,2.4,0.2,3.3,0.8
			C1484.4,399.3,1485.1,400.4,1485.1,402"/>
		<path class="st1" d="M1486.4,441.7c-2.8,0.9-5.9,1.6-10.2,2.2v-4.8c0-2.3,0.1-3.2,0.2-4.7h-3.7c0.2,1.5,0.2,2.8,0.2,4.8v5
			c-1.5,0.1-3.5,0.1-4.8,0.1c-2.2,0-3.7-0.1-5.1-0.4v3.3c0.4,0,0.7,0,0.9,0c0.1,0,0.5,0,1.1,0c0.6,0.1,1.9,0.1,2.7,0.1
			c1.5,0,2.3,0,3.2-0.1c1.5-0.1,1.5-0.1,2-0.1v9.4c-3.2,1.4-5.2,2.6-7.1,4.1c-2.7,2.3-3.9,4.4-3.9,6.6c0,1.8,0.8,3.4,2.3,4.7
			c2.2,1.9,5.5,3.2,8.2,3.2c2.5,0,3.7-1.3,3.7-4v-12.5c4.2-1.3,7.4-1.9,10.6-1.9c6.6,0,10.7,3.1,10.7,7.9c0,4.1-2.8,7.1-6.7,7.1
			c-3.7,0-5.2-2.1-5.2-7.3c0-0.6,0-1.1,0.1-2c-1.2,0.7-1.8,0.9-3.3,1.3c-0.1,2.5,0.2,4,0.6,5.7c1,3.6,3.8,5.6,7.7,5.6
			c5.8,0,10.2-4.5,10.2-10.4c0-3.7-1.8-6.9-5.2-8.8c-2.3-1.4-5.3-2.1-8.8-2.1c-3.3,0-6.4,0.5-10.8,1.8v-8.6c2.3-0.2,4.8-0.7,8.8-1.5
			c0.7-0.2,0.9-0.2,1.5-0.3L1486.4,441.7 M1473,469.3c0,2.1-0.2,2.4-1.2,2.4c-1.3,0-3.1-0.6-4.5-1.4c-1.4-0.9-2.1-1.9-2.1-3
			c0-2.4,2.8-5.1,7.8-7.5V469.3 M1503,448.2c-3-3.8-5.5-6.2-10.1-9.5l-2.6,2c3.9,2.6,7.4,6.1,10.1,9.8L1503,448.2"/>
		<path class="st1" d="M1615.2,387c1-0.1,1.2-0.1,3.1-0.2c7.3-0.2,12.8-0.7,15.7-1.2c-0.7,0.5-0.9,0.7-1.7,1.4
			c-5,4.8-11.7,9.9-16.6,12.9c-3.5,0.6-7.2,1-8.8,1c-0.1,0-0.2,0-0.4,0l0.4,3.8c1.8-0.6,6.8-1.3,14.8-2.2c2.8-0.4,7.3-0.9,8.2-1.1
			c2.1-0.3,2.1-0.3,2.8-0.4c-7.2,3.1-10.9,7.1-10.9,11.6c0,2.4,1.1,4.7,3,6.3c2.4,2,6.8,3.1,12.6,3.2c2.5,0,2.5,0,3.4,0.1l-0.2-3.8
			c-1.1,0.2-2.1,0.3-3.4,0.3c-7.6,0-11.9-2.3-11.9-6.4c0-1.5,0.5-2.6,1.6-4.1c1.4-1.8,3.7-3.6,6.2-4.8c3.7-1.8,8.7-2.7,13.8-2.7
			c0.2,0,0.6,0,1.1,0l-0.4-3.5c-0.6,0.1-0.8,0.1-1.4,0.2c-1,0.1-2.5,0.2-4.6,0.4c-3.8,0.4-6.8,0.7-8.9,0.8c-7.6,0.6-9.6,0.9-12,1.4
			c5-3,11.5-8,16.4-12.8c1.3-1.2,1.7-1.6,2.5-2.1l-2.1-2.6c-0.7,0.3-1.7,0.5-2.8,0.6c-3.6,0.4-10.8,0.7-15.2,0.7
			c-2.1,0-2.9,0-4.5-0.2L1615.2,387"/>
		<path class="st1" d="M1613,441.2c1.1-0.1,1.6-0.2,2.7-0.2c7.6-0.2,13.6-0.6,15.2-0.9c0.3-0.1,0.3-0.1,0.5-0.1l0.1,0.1l-0.2,0.2
			c-0.1,0.1-0.2,0.2-0.2,0.2c-0.4,0.4-0.4,0.4-0.7,0.7c-3.5,3.4-11.3,10.4-16.7,14.6c-3.4,2.8-5.2,4.1-7,5.1l2.2,3.2
			c5.8-5.4,13.7-8.6,21.1-8.6c6.8,0,10.8,2.9,10.8,7.6c0,4.2-2.8,7.3-8,8.8c-0.7-2.2-1.2-3.4-2.3-4.8c-2-2.7-4.9-4.1-8.2-4.1
			c-4.1,0-7.2,2.5-7.2,5.9c0,4.6,4.1,7.2,11.1,7.2c11.1,0,18.3-5.2,18.3-12.9c0-6.4-5.3-10.5-13.7-10.5c-4.4,0-8.4,1-12.2,3.1
			l-0.1-0.1c3.5-2.2,9.6-7.4,16.5-14.2c1.6-1.6,1.8-1.8,2.5-2.1l-2.1-2.8c-0.7,0.4-1.1,0.4-2.4,0.6c-4.5,0.3-11.2,0.6-15.3,0.6
			c-2.4,0-3.3-0.1-4.7-0.3L1613,441.2 M1629.4,472.8c-1.8,0.3-2.4,0.3-3.6,0.3c-2.2,0-4.3-0.4-5.6-1.1c-1.3-0.8-2-1.8-2-3.1
			c0-1.9,1.6-3.1,4.1-3.1C1625.8,465.9,1628.3,468.3,1629.4,472.8"/>
		<path class="st1" d="M1780,404c0.6,0.1,0.8,0.1,1.5,0.3c2.2,0.6,4.6,0.9,7.6,1.2c-0.1,0.4-0.1,0.4-0.1,1.2
			c-0.2,1.2-0.2,2.2-0.2,3.3c0,2.8,0.6,5.2,1.6,6.9c1.9,3.2,5.9,5,11.2,5c8.8,0,14.7-4.8,14.7-11.8c0-3.6-1.2-6.1-4.7-9.9
			c-1.5,0.7-2,0.8-3.7,1c3.2,2.8,4.8,5.6,4.8,8.7c0,5.3-4.3,8.8-11.1,8.8c-3,0-5.4-0.8-7-2.1c-1.6-1.4-2.3-3.2-2.3-6
			c0-0.9,0.1-2.5,0.2-3.7c0-0.7,0-0.7,0-1c2.2,0.1,3.1,0.1,4.3,0.1c2.3,0,4.5-0.1,7-0.4c0.7-0.1,0.9-0.1,1.4-0.1l0.1-3.3
			c-2,0.5-5.6,0.8-9.2,0.8c-0.7,0-1.4,0-3.3-0.1c0.3-2.8,0.3-3.3,1.2-9.1c2.8,0.1,3.6,0.1,4.4,0.1c1.5,0,3-0.1,4.5-0.2
			c2.5-0.2,2.5-0.2,3.5-0.3l0.2-3.5c-2.2,0.6-5.4,0.9-9.2,0.9c-0.8,0-1.5,0-2.9-0.1c0.2-1.4,0.3-1.9,0.5-3c0.4-2.8,0.4-2.8,0.5-3.2
			c0.3-1.8,0.5-2.4,0.8-3.4l-4-0.4c0,0.2,0,0.3,0,0.4c0,1.3-0.4,4.6-1.2,9.4c-3.5-0.3-6.8-1.1-9-1.9l-0.5,3.3
			c0.7,0.1,0.9,0.2,1.6,0.3c2.9,0.7,5.1,1.1,7.4,1.4c-0.4,2.6-0.9,6.6-1.1,9c-3.8-0.4-7-1.1-9-2L1780,404"/>
		<path class="st1" d="M1782.3,435.7c-0.1,1.2-0.2,1.7-0.7,4c-1.7,7.4-2.2,12.7-2.2,19.8c0,5.2,0.3,8.9,1.3,14.2
			c0.1,0.9,0.2,1.2,0.3,2l3.6-0.3c0-0.4,0-0.6,0-0.8c0-2.8,1.8-8.8,4.1-13.8l-2.4-1.2c-1.6,3.7-2.5,6.4-3.2,9.8
			c-0.2-2.6-0.3-5.6-0.3-9.5c0-6,0.4-10.4,1.5-15.6c0.8-3.4,1.3-5.9,2.1-8L1782.3,435.7 M1792.6,445.1c3.2,0.3,5.2,0.5,8,0.5
			c3.8,0,7.8-0.2,10.8-0.7c2.2-0.3,3.3-0.4,3.4-0.4l-0.2-3.6c-3.3,0.9-7.8,1.4-13.4,1.4c-3.9,0-6.4-0.2-8.5-0.8L1792.6,445.1
			 M1796.2,454.9c-3.1,3.5-4.3,6.2-4.3,9.3c0,1.9,0.5,3.4,1.5,4.6c2.1,2.6,5.8,3.8,11.4,3.8c3.4,0,6.8-0.3,10.2-1
			c1-0.2,1.1-0.2,1.8-0.2l-0.5-3.9c-2.7,1.1-6.9,1.8-11.5,1.8c-6.4,0-9.6-1.8-9.6-5.5c0-2.2,1.2-4.6,3.8-7.3L1796.2,454.9"/>
		<path class="st1" d="M1936.1,380.4c0.2,1.2,0.2,1.6,0.2,4.1c0.1,7.1,0.4,16.8,0.8,22.6c0,0.1,0,0.2,0,0.3c0,0.2,0,0.2,0,0.4
			c-0.1-0.1-0.1-0.1-0.2-0.1c-0.2,0-0.2-0.1-0.4-0.1c-1.1-0.2-2.8-0.5-4.3-0.5c-7.1,0-11.8,3.1-11.8,7.9c0,4.6,3.9,7.4,10.4,7.4
			c4.1,0,7.4-1.2,8.9-3.4c0.8-1.1,1.2-2.9,1.2-5.1c0-0.6-0.1-1.6-0.2-2.1c0.4,0.2,0.5,0.2,1.2,0.6c1.7,0.8,4.5,2.3,6.8,3.8
			c2.7,1.8,4.2,3.1,5.2,4.4l2.3-3.5c-1.2-0.8-1.2-0.8-2.3-1.6c-5.2-3.8-9.3-5.9-13.3-7.1c-0.2-3.2-0.5-8-0.7-12.9
			c4.2-0.1,7.6-0.4,12.1-1.1c2.2-0.3,2.2-0.3,3-0.3l-0.4-3.7c-2.8,1.1-9.1,1.9-14.6,1.9c-0.1-3.6-0.1-4.1-0.1-5.2
			c0-3.9,0.1-5.4,0.3-6.6H1936.1 M1937.3,411c0.1,0,0.2,2,0.2,2.8c0,1.9-0.4,2.9-1.2,3.8c-1.2,1.1-3.1,1.6-5.5,1.6c-2.7,0-5-0.8-6-2
			c-0.5-0.5-0.8-1.3-0.8-2.1c0-2.9,3.1-4.7,8.2-4.7C1934.1,410.3,1935.2,410.4,1937.3,411"/>
		<path class="st1" d="M1922.7,435.7c0.2,1,0.2,1.6,0.2,2.7c0,0.8,0,1.8-0.1,3.2c-0.4,15.8-0.4,17-0.4,20.3c0,5.2,0.7,7.9,2.8,10.2
			c2,2.3,5.1,3.5,9.4,3.5c5.9,0,10.6-2,14.1-6.2c2.2-2.5,3.6-5.5,5.5-11.3c-1.6-0.8-2.2-1.2-3.6-2.4c-0.7,3.5-1.3,5.5-2.4,7.9
			c-2.9,5.7-7.5,8.7-13.4,8.7c-2.6,0-4.8-0.7-6.2-1.9c-1.5-1.4-2.1-3-2.3-6c-0.1-1.1-0.1-2.4-0.1-3c0-2.2,0.1-9.1,0.4-15.1
			c0.1-6.3,0.3-8.8,0.6-10.6H1922.7"/>
		<path class="st1" d="M2113.6,384.7c6.7,1.9,12.9,2.9,21,3.3l0.6-3.6c-8.2-0.1-15.4-1.2-20.4-3.1L2113.6,384.7 M2108.4,401
			c3.9-1.6,13.9-3.4,19.1-3.4c2.6,0,4.9,0.4,6.1,1.1c2.1,1.1,3.2,3.1,3.2,5.6c0,2.3-0.8,4.5-2.6,6.8c-1.2,1.6-2.3,2.5-4.3,3.6
			c-4.2,2.4-8.8,3.7-14.1,4.1c0.8,1.2,0.9,1.6,1.6,3.6c7.5-1.4,10.7-2.4,14.5-4.8c5.6-3.4,8.6-8.1,8.6-13.5c0-3.4-1.4-6.2-4.2-7.9
			c-2.1-1.3-4.9-1.9-8.6-1.9c-3.9,0-8.6,0.6-15.2,1.8c-3.9,0.8-3.9,0.8-5,0.8L2108.4,401"/>
		<path class="st1" d="M2106.8,445.6c0.9-0.1,1-0.1,3.1-0.2c5.7-0.1,9.7-0.3,13.5-0.9c1.2,2.7,1.6,3.2,2.9,5.7
			c-4.1,0.8-10.6,1.2-15.8,1.2c-2,0-2.9-0.1-4-0.1l0.1,3.3c0.9-0.1,1.1-0.1,3.5-0.2c9.3-0.3,12.6-0.5,17.5-1.4
			c1.8,3.1,3.8,6.1,5.4,7.7c-3.3-1-5.9-1.4-10.1-1.4c-9.5,0-15.2,3.2-15.2,8.7c0,2.6,1.4,4.8,3.8,6.2c2.6,1.4,5.7,2.1,10.3,2.1
			c4.4,0,8.7-0.6,12.8-1.8c2.3-0.7,2.3-0.7,3-0.9l-0.7-3.9c-3,1.8-9.6,3.3-14.8,3.3c-6.9,0-10.6-1.8-10.6-5.1
			c0-3.4,4.6-5.7,11.8-5.7c2.2,0,4.8,0.2,6.6,0.4c2.4,0.4,3.6,0.8,5.5,1.9l2.9-2.1c-3.8-4.5-4.4-5.2-7.3-10c1.8-0.3,4.3-0.9,7.8-1.8
			c1.7-0.5,1.9-0.5,2.7-0.7l-0.4-3.3c-2.1,1-4.9,1.8-11.4,3.1c-0.8-1.3-2.1-4-2.9-5.6c2.8-0.4,8.2-1.6,12.6-2.8l-0.3-3.2
			c-2.8,1.2-7.5,2.4-13.4,3.3c-1.2-2.7-2.2-5.2-2.6-7.1l-3.8,0.6c0.4,0.7,1.4,3,3,6.9c-4.6,0.5-7.6,0.7-11.9,0.7
			c-1.7,0-2.5-0.1-3.8-0.1L2106.8,445.6"/>
		<line class="st5" x1="1704.1" y1="408.2" x2="1723.9" y2="408.2"/>
		<line class="st5" x1="1701.9" y1="462.1" x2="1721.7" y2="462.1"/>
		<path class="st1" d="M2152.5,768.3c0,2.7,2.2,5,5,5s5-2.2,5-5s-2.2-5-5-5S2152.5,765.6,2152.5,768.3"/>
		<path class="st1" d="M2152.5,682.2c0,2.7,2.2,5,5,5s5-2.2,5-5s-2.2-5-5-5S2152.5,679.5,2152.5,682.2"/>
		<path class="st1" d="M2152.5,309.2c0,2.7,2.2,5,5,5s5-2.2,5-5c0-2.7-2.2-5-5-5S2152.5,306.5,2152.5,309.2"/>
		<line class="st6" x1="92.7" y1="204.6" x2="92.7" y2="897.8"/>
		<path class="st1" d="M135.3,182.5c-0.2-0.1-0.5-0.2-0.7-0.2c-0.4,0-0.9,0.1-1.1,0.5c-0.2,0.3-10.1,15.6-29.1,15.6H88.7
			c-0.8,0-1.4,0.5-1.4,1.3v8.9v1.4h12.1c30.6,0,36.4-25.5,36.5-25.8c0-0.1,0.1-0.3,0.1-0.5C136,183.2,135.7,182.8,135.3,182.5"/>
		<path class="st1" d="M135.3,919.8c0.4-0.3,0.7-0.7,0.7-1.2c0-0.2-0.1-0.4-0.1-0.5c-0.1-0.3-6-25.8-36.5-25.8H87.3v1.4v8.9
			c0,0.8,0.6,1.3,1.4,1.3h15.8c18.9,0,28.9,15.3,29.1,15.6c0.2,0.4,0.7,0.5,1.1,0.5C134.8,920,135.1,919.9,135.3,919.8"/>
	</g>
</g>
</svg>
