<?xml version="1.0" encoding="UTF-8"?><svg id="_レイヤー_1" xmlns="http://www.w3.org/2000/svg" xmlns:xlink="http://www.w3.org/1999/xlink" viewBox="0 0 2650.39 1247.24"><defs><style>.cls-1{stroke-width:4.46px;}.cls-1,.cls-2,.cls-3,.cls-4{fill:none;stroke:#fff;stroke-linejoin:bevel;}.cls-5{fill:#fff;}.cls-6{isolation:isolate;}.cls-2{stroke-width:3.97px;}.cls-3{stroke-width:10.91px;}.cls-4{stroke-width:2.73px;}</style></defs><image class="cls-6" width="2624" height="1117" transform="translate(13.2 130.24)" xlink:href="../Documents/2年_アーカイブ/_卒制/イラスト保存用/五線譜/hurusato/404535A8683AEBCA.png"/><g><line class="cls-4" x1="276.5" y1="273.99" x2="2601" y2="273.99"/><line class="cls-4" x1="276.5" y1="298.79" x2="2601" y2="298.79"/><line class="cls-4" x1="276.5" y1="323.59" x2="2601" y2="323.59"/><line class="cls-4" x1="276.5" y1="348.39" x2="2601" y2="348.39"/><line class="cls-4" x1="276.5" y1="373.19" x2="2601" y2="373.19"/><line class="cls-4" x1="276.5" y1="657.79" x2="2601" y2="657.79"/><line class="cls-4" x1="276.5" y1="682.59" x2="2601" y2="682.59"/><line class="cls-4" x1="276.5" y1="707.39" x2="2601" y2="707.39"/><line class="cls-4" x1="276.5" y1="732.19" x2="2601" y2="732.19"/><line class="cls-4" x1="276.5" y1="756.99" x2="2601" y2="756.99"/><line class="cls-4" x1="276.5" y1="864.69" x2="2601" y2="864.69"/><line class="cls-4" x1="276.5" y1="889.49" x2="2601" y2="889.49"/><line class="cls-4" x1="276.5" y1="914.29" x2="2601" y2="914.29"/><line class="cls-4" x1="276.5" y1="939.09" x2="2601" y2="939.09"/><line class="cls-4" x1="276.5" y1="963.89" x2="2601" y2="963.89"/><line class="cls-4" x1="276.5" y1="1071.49" x2="2601" y2="1071.49"/><line class="cls-4" x1="276.5" y1="1096.29" x2="2601" y2="1096.29"/><line class="cls-4" x1="276.5" y1="1121.09" x2="2601" y2="1121.09"/><line class="cls-4" x1="276.5" y1="1145.89" x2="2601" y2="1145.89"/><line class="cls-4" x1="276.5" y1="1170.69" x2="2601" y2="1170.69"/><path class="cls-5" d="M129.7,1102.69v2.3h.9c2.9,.1,3.8,.2,4.2,.7,.3,.4,.3,.5,.3,3.1v23.8c0,2.6,0,2.7-.3,3.1-.4,.5-1.4,.7-4.2,.7h-.9v2.3h18.1c8.7,0,13.9-3.7,13.9-9.8,0-5-3.1-7.9-10-9.1,2.4-.5,3.5-.9,4.8-1.9,2-1.5,3.3-4,3.3-6.5,0-3.2-2-6.4-4.9-7.7-1.8-.8-4.3-1.2-7.2-1.2h-18m11,16.4v-11.4c0-1.9,.6-2.4,3.3-2.5h2c2.3,0,4.2,.4,5.2,1.1,1.8,1.1,2.8,3.2,2.8,6,0,4.9-2.4,6.8-8.9,6.8h-4.4m0,2.4h4.4c7.7,0,10.5,2.1,10.5,7.6,0,3.2-1.1,5.5-3,6.4-1.6,.8-3.7,1.2-6.8,1.2h-2.1c-2.5,0-3-.5-2.9-3.2v-12m46.1,1.4c0-3.2-.5-4.8-2-5.9-1.6-1.4-4.1-2-7.3-2-5.6,0-9.8,2.6-9.8,6.3,0,1.8,1.1,3.1,2.9,3.1,1.6,0,2.7-1.1,2.7-2.6,0-.7-.2-1.3-.8-2-.3-.4-.4-.5-.4-.7,0-1,2-1.9,4.4-1.9,1.6,0,3.4,.5,4.1,1.2,1,.8,1.3,2,1.3,4.2v2c-5.2,.9-6.9,1.3-9.3,2.2-4.4,1.6-6.4,3.9-6.4,7.1,0,3.6,2.8,5.8,7.2,5.8,3.5,0,6.5-1.4,8.7-3.9,.8,2.5,2,3.5,4.4,3.5,2.2,0,4.6-1.4,4.6-2.9,0-.4-.2-.6-.5-.6-.2,0-.4,.1-.8,.2-.7,.3-1,.3-1.4,.3-1.4,0-1.9-.9-1.9-3.4v-10m-4.4,6.1c0,3-.2,3.7-1,5-1.2,1.8-3.5,3.1-5.7,3.1s-4-1.6-4-3.9c0-2.1,1.1-3.6,3.2-4.7,1.6-.7,3.5-1.2,7.4-1.8v2.3m29.5-13.9h-1.8l-1.5,1.8c-1.8-1.4-3.6-2-6.1-2-4.4,0-7.3,2.8-7.3,7.2,0,1.9,.6,3.6,1.8,4.6,1.1,1,2.3,1.5,5.3,2.2l2.6,.6c4,.9,5.4,1.9,5.4,3.9,0,2.4-2,4-4.9,4-4.2,0-7.2-2.7-8.5-7.7h-2v9.4h1.8l1.8-2c2,1.7,4.3,2.4,6.9,2.4,4.9,0,8.1-3,8.1-7.7,0-2.2-.7-3.9-2.1-5.1-1.2-1-2.2-1.4-5.2-2.1l-2.5-.6q-2.8-.6-3.6-1.1c-1.1-.5-1.8-1.5-1.8-2.7,0-2,1.9-3.4,4.6-3.4,1.9,0,3.5,.7,4.9,2,1.1,1.1,1.6,2.1,2.5,4.4h1.8v-8.1m22.7,0h-1.8l-1.4,1.8c-1.8-1.4-3.6-2-6.1-2-4.4,0-7.3,2.8-7.3,7.2,0,1.9,.7,3.6,1.8,4.6,1.2,1,2.3,1.5,5.3,2.2l2.6,.6c4,.9,5.4,1.9,5.4,3.9,0,2.4-2.1,4-5,4-4.2,0-7.2-2.7-8.4-7.7h-2v9.4h1.8l1.8-2c2,1.7,4.3,2.4,6.8,2.4,4.9,0,8.2-3,8.2-7.7,0-2.2-.7-3.9-2.1-5.1-1.2-1-2.2-1.4-5.2-2.1l-2.5-.6q-2.8-.6-3.6-1.1c-1.1-.5-1.8-1.5-1.8-2.7,0-2,1.9-3.4,4.6-3.4,1.9,0,3.4,.7,4.9,2,1.1,1.1,1.6,2.1,2.4,4.4h1.8v-8.1"/><path class="cls-5" d="M132.3,895.79h-29.9l-.8,13.9h2.1c.4-2.5,.8-4.4,1.4-6,1.3-3.7,3.7-5.5,7.1-5.5,1.7,0,2.4,.5,2.4,1.8v25.8c0,2.6,0,2.7-.3,3.1-.4,.5-1.4,.7-4.2,.7h-1.3v2.3h17.1v-2.3h-1.3c-2.8,0-3.8-.2-4.2-.7-.3-.4-.3-.5-.3-3.1v-25.8c0-1.2,.7-1.8,2.4-1.8,3,0,5.5,1.7,6.8,4.7,.8,1.8,1.2,4,1.6,6.8h2.1l-.7-13.9m23.5,24.9c0-7.5-4.2-12.8-10.3-12.8-6.4,0-11.2,5.5-11.2,13,0,7,4.5,11.8,11.3,11.8,4.8,0,8.1-2.3,10.2-7.1l-1.8-1c-2.1,3.8-4.2,5.3-7.5,5.3-2.6,0-4.4-1-5.7-3.3-.9-1.5-1.3-3.2-1.2-6h16.2m-16.1-2.1c0-1.6,.2-2.7,.7-4.1,1-3,2.6-4.4,5.1-4.4,3,0,5,2.7,5,6.7,0,1.4-.5,1.8-2.1,1.8h-8.7m27.9-9.9l-8.7,.5v2.1h1.8c1.9,.1,2.1,.4,2.1,2.5v14.3c0,.8-.1,1.1-.3,1.3-.4,.4-1.3,.7-3.5,.7h-.2v1.8h12.7v-1.8h-.2c-3.4-.1-3.8-.3-3.8-2.2v-7.4c0-2.5,.3-4.7,.9-5.9,1-2.2,3.3-3.8,5.4-3.8,1.3,0,2.8,.7,3.6,1.8,.8,1.1,1.1,2.6,1.1,5v10.4c-.1,.8-.1,1.1-.3,1.3-.4,.4-1.4,.7-3.5,.7h-.2v1.8h12.7v-1.8h-.2c-3.3-.1-3.8-.3-3.8-2.2v-10c0-3.6-.1-4.5-1-6.2-1.2-2.4-3.8-3.8-6.8-3.8-3.2,0-5.7,1.5-7.9,4.8v-3.9m33.2-.7c-6.1,0-10.9,5.5-10.9,12.5s4.8,12.3,10.8,12.3,10.8-5.5,10.8-12.4c0-6.9-4.8-12.4-10.7-12.4m0,2.1c3.5,0,5.5,3.7,5.5,10.2s-2,10.2-5.5,10.2-5.6-3.6-5.6-10.2,1.9-10.2,5.6-10.2m22.3-1.4l-8.9,.5v2.1h2c1.9,.1,2.2,.4,2.2,2.5v14.2c-.1,.8-.1,1.1-.3,1.3-.4,.4-1.4,.7-3.5,.7h-.2v1.8h13.3v-1.8h-.9c-3.4-.1-3.8-.3-3.8-2.2v-2.7c0-8.4,3-14.8,6.9-15-.7,.8-.9,1.3-.9,2.2,0,1.6,1.1,2.8,2.8,2.8,1.9,0,3.1-1.3,3.1-3.3,0-2.5-1.7-4-4.4-4-3.1,0-5.9,2.5-7.5,7v-6.1"/><path class="cls-5" d="M160.6,688.69h-2.1l-11.5,29.1c-1.4,3.9-2.6,5.1-5.5,5.3h-.2v2.3h13.2v-2.3h-1c-2.7,0-4-1-4-2.8,0-.7,.1-1.2,.5-2.1l1.6-4.4h13.2l2.7,6.7c.3,.8,.4,1.1,.4,1.4,0,.8-1.2,1.3-3.1,1.3h-2.1v2.3h15.5v-2.3h-.7c-2.6,0-3-.3-4.2-3.2l-12.7-31.3m-2.5,8.2l5.6,14.2h-11.2l5.6-14.2m29.9-8.3l-9.2,.5v2.2h2.5c1.9,0,2.1,.3,2.1,2.5v27.8c-.1,.8-.1,1-.3,1.3-.3,.5-1.3,.7-3.4,.7h-.5v1.8h13v-1.8h-.4c-3.4-.1-3.8-.3-3.8-2.1v-32.9m15.2,13.6v-9.9h-2c-.5,6.5-2.7,9.8-6.8,10.1v2h4.1v12.8c0,3.5,.1,4.8,.6,5.9,.8,2.1,2.8,3.2,5.7,3.2,4.5,0,7.4-3.4,7.4-8.7v-1.2h-2.1c-.1,4.5-1.4,6.8-3.9,6.8-1.1,0-2.1-.6-2.5-1.5-.3-.7-.5-1.9-.5-3.8v-13.6h7.4v-2.2h-7.4m22.7-.7c-6.1,0-10.9,5.5-10.9,12.5s4.8,12.3,10.8,12.3,10.8-5.5,10.8-12.4-4.8-12.4-10.7-12.4m0,2.2c3.5,0,5.5,3.6,5.5,10.2s-2,10.2-5.6,10.2-5.5-3.6-5.5-10.2c-.1-6.7,1.8-10.2,5.6-10.2"/><path class="cls-5" d="M74.6,300.59h-1.9l-2,3c-2.4-2.2-5.6-3.5-9.1-3.5-6.6,0-10.9,4.2-10.9,10.5,0,5.5,2.7,8.1,10.1,10l4.8,1.2c3.7,1,4.1,1,5.1,1.9,1.5,1.1,2.3,2.8,2.3,4.8s-.8,3.6-2.2,5c-1.6,1.4-3.3,2-6,2-3.7,0-6.4-1.1-8.7-3.8-2.1-2.3-3.1-4.7-3.9-8.6h-2.1l.2,14.2h1.9l2.2-3.4c3.4,2.8,6.1,3.8,10.5,3.8,7.4,0,12.1-4.3,12.1-11,0-3.1-1-5.8-3-7.6-1.4-1.3-3.3-2.1-7.3-3.1l-5.4-1.4c-4.4-1.1-6.5-3.1-6.5-6.1,0-3.5,2.8-5.9,7.1-5.9,3.5,0,6.4,1.5,8.4,4.3,1.4,2.1,2.4,4.2,3,6.7h2.1l-.8-13m17.3,12.4c-6.1,0-10.9,5.4-10.9,12.4s4.8,12.4,10.8,12.4,10.8-5.5,10.8-12.4-4.8-12.4-10.7-12.4m0,2.1c3.5,0,5.4,3.6,5.4,10.2s-1.9,10.2-5.5,10.2-5.6-3.6-5.6-10.2,1.9-10.2,5.7-10.2m22.4-1.4l-8.6,.5v2.1h1.8c1.9,.1,2.1,.4,2.1,2.5v24.5c-.1,.7-.1,1-.3,1.2-.3,.5-1.3,.6-3.4,.7h-.2v1.8h13v-1.8h-.5c-3.4-.1-3.8-.4-3.8-2.2v-9.4c1.7,2.9,3.5,4,6.6,4s5.6-1.3,7.4-3.8c1.8-2.4,2.8-5.5,2.8-8.8s-1-6.3-2.9-8.7c-1.9-2.4-4.1-3.6-6.9-3.6-3.1,0-5.2,1.3-6.9,4.3v-3.3m5.8,2c3.5,0,5.5,3.5,5.5,9.3,0,6.4-2,10.1-5.6,10.1s-5.9-3.7-5.9-9.5c0-6.2,2.2-9.9,6-9.9m22.5-2l-8.9,.5v2.1h2c1.9,.1,2.2,.4,2.2,2.5v14.4c-.1,.8-.1,1-.3,1.3-.4,.5-1.4,.6-3.5,.7h-.1v1.8h13.3v-1.8h-.9c-3.4-.1-3.8-.4-3.8-2.1v-2.7c0-8.4,3-14.8,6.9-15-.7,.8-.9,1.3-.9,2.2,0,1.6,1.1,2.8,2.8,2.8,1.9,0,3.1-1.4,3.1-3.4,0-2.4-1.7-4-4.4-4-3.1,0-5.9,2.5-7.5,6.9v-6.2m34.5,7.2c0-3.1-.5-4.8-2-5.9-1.6-1.4-4.1-2-7.3-2-5.6,0-9.8,2.6-9.8,6.3,0,1.9,1.1,3.1,2.9,3.1,1.6,0,2.7-1.1,2.7-2.6,0-.6-.2-1.4-.8-2-.3-.4-.4-.5-.4-.7,0-1,2-1.9,4.4-1.9,1.6,0,3.4,.5,4.1,1.2,1,.8,1.3,2,1.3,4.2v2c-5.2,.9-6.9,1.3-9.3,2.2-4.4,1.6-6.4,3.9-6.4,7.1,0,3.6,2.8,5.9,7.2,5.9,3.5,0,6.5-1.4,8.7-3.9,.8,2.5,2,3.5,4.4,3.5,2.2,0,4.6-1.5,4.6-2.9,0-.4-.2-.6-.5-.6-.2,0-.4,0-.8,.2-.7,.3-1,.3-1.4,.3-1.4,0-1.9-.9-1.9-3.4v-10.1m-4.4,6.1c0,3-.2,3.7-1,5-1.2,1.9-3.5,3.1-5.7,3.1s-4-1.6-4-3.9c0-2.1,1.1-3.6,3.2-4.6,1.6-.7,3.5-1.2,7.4-1.9v2.3m20-13.3l-8.6,.5v2.1h1.8c1.9,.1,2.1,.4,2.1,2.5v14.3c-.1,.8-.1,1-.3,1.3-.3,.5-1.3,.6-3.4,.7h-.2v1.8h12.6v-1.8h-.2c-3.4-.1-3.8-.4-3.8-2.1v-7.4c0-2.4,.4-4.7,.9-5.8,1-2.2,3.3-3.8,5.4-3.8,1.3,0,2.8,.7,3.6,1.8,.8,1.1,1.1,2.6,1.1,5v10.5c0,.8-.1,1-.3,1.3-.4,.5-1.4,.6-3.5,.7h-.2v1.8h12.7v-1.8h-.2c-3.3-.1-3.8-.4-3.8-2.1v-10.1c0-3.6-.1-4.5-1-6.2-1.2-2.4-3.8-3.9-6.8-3.9-3.2,0-5.7,1.5-7.9,4.8v-4.1m33.2-.7c-6.1,0-10.9,5.4-10.9,12.4s4.8,12.4,10.8,12.4,10.8-5.5,10.8-12.4c0-6.9-4.8-12.4-10.7-12.4m0,2.1c3.5,0,5.5,3.6,5.5,10.2s-2,10.2-5.5,10.2-5.6-3.6-5.6-10.2c-.1-6.7,1.8-10.2,5.6-10.2"/><line class="cls-1" x1="278.8" y1="1070.09" x2="278.8" y2="1172.09"/><line class="cls-1" x1="1029.7" y1="1070.09" x2="1029.7" y2="1172.09"/><line class="cls-1" x1="1635.1" y1="1070.09" x2="1635.1" y2="1172.09"/><line class="cls-1" x1="2198.7" y1="1070.09" x2="2198.7" y2="1172.09"/><line class="cls-1" x1="2598.8" y1="1070.09" x2="2598.8" y2="1172.09"/><line class="cls-1" x1="278.8" y1="863.29" x2="278.8" y2="1071.49"/><line class="cls-1" x1="1029.7" y1="863.29" x2="1029.7" y2="965.19"/><line class="cls-1" x1="1635.1" y1="863.29" x2="1635.1" y2="965.19"/><line class="cls-1" x1="2198.7" y1="863.29" x2="2198.7" y2="965.19"/><line class="cls-1" x1="2598.8" y1="863.29" x2="2598.8" y2="965.19"/><line class="cls-1" x1="278.8" y1="656.49" x2="278.8" y2="864.69"/><line class="cls-1" x1="1029.7" y1="656.49" x2="1029.7" y2="758.39"/><line class="cls-1" x1="1635.1" y1="656.49" x2="1635.1" y2="758.39"/><line class="cls-1" x1="2198.7" y1="656.49" x2="2198.7" y2="758.39"/><line class="cls-1" x1="2598.8" y1="656.49" x2="2598.8" y2="758.39"/><line class="cls-1" x1="278.8" y1="272.69" x2="278.8" y2="657.79"/><line class="cls-1" x1="1635.1" y1="272.69" x2="1635.1" y2="374.59"/><line class="cls-1" x1="2198.7" y1="272.69" x2="2198.7" y2="374.59"/><line class="cls-1" x1="2598.8" y1="272.69" x2="2598.8" y2="374.59"/><line class="cls-1" x1="1029.7" y1="272.69" x2="1029.7" y2="374.59"/><line class="cls-2" x1="2233.2" y1="839.89" x2="2282.8" y2="839.89"/><line class="cls-4" x1="529.9" y1="1099.59" x2="529.9" y2="1179.99"/><line class="cls-4" x1="696.2" y1="1099.59" x2="696.2" y2="1179.99"/><line class="cls-4" x1="862.6" y1="1099.59" x2="862.6" y2="1179.99"/><line class="cls-4" x1="1103.6" y1="1130.29" x2="1103.6" y2="1052.89"/><line class="cls-4" x1="1343.7" y1="1130.29" x2="1343.7" y2="1052.89"/><line class="cls-4" x1="1466.8" y1="1130.29" x2="1466.8" y2="1052.89"/><line class="cls-4" x1="1679.7" y1="1099.59" x2="1679.7" y2="1179.99"/><line class="cls-4" x1="1852.4" y1="1099.59" x2="1852.4" y2="1179.99"/><line class="cls-4" x1="2025.1" y1="1099.59" x2="2025.1" y2="1179.99"/><line class="cls-4" x1="2243.3" y1="1099.59" x2="2243.3" y2="1179.99"/><line class="cls-4" x1="529.9" y1="892.79" x2="529.9" y2="973.19"/><line class="cls-4" x1="696.2" y1="892.79" x2="696.2" y2="973.19"/><line class="cls-4" x1="862.6" y1="892.79" x2="862.6" y2="973.19"/><line class="cls-4" x1="1074.1" y1="880.39" x2="1074.1" y2="963.89"/><line class="cls-4" x1="1314.2" y1="867.99" x2="1314.2" y2="951.49"/><line class="cls-4" x1="1437.3" y1="880.39" x2="1437.3" y2="963.89"/><line class="cls-4" x1="1679.7" y1="867.99" x2="1679.7" y2="951.49"/><line class="cls-4" x1="1852.4" y1="867.99" x2="1852.4" y2="951.49"/><line class="cls-4" x1="2025.1" y1="855.59" x2="2025.1" y2="939.09"/><line class="cls-4" x1="2243.3" y1="843.19" x2="2243.3" y2="926.69"/><line class="cls-4" x1="559.4" y1="741.49" x2="559.4" y2="657.79"/><line class="cls-4" x1="725.7" y1="741.49" x2="725.7" y2="657.79"/><line class="cls-4" x1="892.1" y1="741.49" x2="892.1" y2="657.79"/><line class="cls-4" x1="1103.6" y1="753.89" x2="1103.6" y2="670.19"/><line class="cls-4" x1="1343.7" y1="741.49" x2="1343.7" y2="657.79"/><line class="cls-4" x1="1466.8" y1="753.89" x2="1466.8" y2="670.19"/><line class="cls-4" x1="1709.2" y1="741.49" x2="1709.2" y2="657.79"/><line class="cls-4" x1="1881.9" y1="741.49" x2="1881.9" y2="657.79"/><line class="cls-4" x1="2054.7" y1="729.09" x2="2054.7" y2="648.49"/><line class="cls-4" x1="2272.8" y1="716.69" x2="2272.8" y2="639.19"/><line class="cls-4" x1="559.4" y1="357.69" x2="559.4" y2="273.99"/><line class="cls-4" x1="725.7" y1="357.69" x2="725.7" y2="273.99"/><line class="cls-4" x1="892.1" y1="357.69" x2="892.1" y2="273.99"/><line class="cls-4" x1="1103.6" y1="345.29" x2="1103.6" y2="264.69"/><line class="cls-4" x1="1343.7" y1="332.89" x2="1343.7" y2="255.39"/><line class="cls-4" x1="1466.8" y1="345.29" x2="1466.8" y2="264.69"/><line class="cls-4" x1="1709.2" y1="332.89" x2="1709.2" y2="255.39"/><line class="cls-4" x1="1881.9" y1="332.89" x2="1881.9" y2="255.39"/><line class="cls-4" x1="2025.1" y1="326.99" x2="2025.1" y2="401.09"/><line class="cls-4" x1="2243.3" y1="314.59" x2="2243.3" y2="391.79"/><path class="cls-5" d="M559.8,1088.29c-1.8-3.3-5.6-5.1-10.1-5.1-3.4,0-7,1-10.6,2.9-6.5,3.5-10.5,9.3-10.5,14.4,0,1.4,.3,2.8,1,4.1,1.8,3.3,5.6,5,10.1,5,3.4,0,7-.9,10.6-2.8,6.5-3.5,10.5-9.3,10.5-14.4,0-1.4-.3-2.8-1-4.1"/><path class="cls-5" d="M726.1,1088.29c-1.8-3.3-5.6-5.1-10.1-5.1-3.4,0-7,1-10.6,2.9-6.5,3.5-10.5,9.3-10.5,14.4,0,1.4,.3,2.8,1,4.1,1.8,3.3,5.6,5,10.1,5,3.4,0,7-.9,10.6-2.8,6.5-3.5,10.5-9.3,10.5-14.4,0-1.4-.3-2.8-1-4.1"/><path class="cls-5" d="M892.4,1088.29c-1.8-3.3-5.6-5.1-10.1-5.1-3.4,0-7,1-10.6,2.9-6.5,3.5-10.5,9.3-10.5,14.4,0,1.4,.3,2.8,1,4.1,1.8,3.3,5.6,5,10.1,5,3.4,0,7-.9,10.6-2.8,6.5-3.5,10.5-9.3,10.5-14.4,0-1.4-.3-2.8-1-4.1"/><path class="cls-5" d="M1104,1125.49c-1.8-3.3-5.6-5.1-10.1-5.1-3.4,0-7,1-10.6,2.9-6.5,3.5-10.5,9.3-10.5,14.4,0,1.4,.3,2.8,1,4.1,1.8,3.3,5.6,5,10.1,5,3.4,0,7-.9,10.6-2.8,6.5-3.5,10.5-9.3,10.5-14.4,0-1.4-.3-2.8-1-4.1"/><path class="cls-5" d="M1344.1,1125.49c-1.8-3.3-5.6-5.1-10.1-5.1-3.4,0-7,1-10.6,2.9-6.5,3.5-10.5,9.3-10.5,14.4,0,1.4,.3,2.8,1,4.1,1.8,3.3,5.6,5,10.1,5,3.4,0,7-.9,10.6-2.8,6.5-3.5,10.5-9.3,10.5-14.4,0-1.4-.3-2.8-1-4.1"/><path class="cls-5" d="M1467.2,1125.49c-1.8-3.3-5.6-5.1-10.1-5.1-3.4,0-7,1-10.6,2.9-6.5,3.5-10.5,9.3-10.5,14.4,0,1.4,.3,2.8,1,4.1,1.8,3.3,5.6,5,10.1,5,3.4,0,7-.9,10.6-2.8,6.5-3.5,10.5-9.3,10.5-14.4,0-1.4-.3-2.8-1-4.1"/><path class="cls-5" d="M1709.6,1088.29c-1.8-3.3-5.6-5.1-10.1-5.1-3.4,0-7,1-10.6,2.9-6.5,3.5-10.5,9.3-10.5,14.4,0,1.4,.3,2.8,1,4.1,1.8,3.3,5.6,5,10.1,5,3.4,0,7-.9,10.6-2.8,6.5-3.5,10.5-9.3,10.5-14.4,0-1.4-.3-2.8-1-4.1"/><path class="cls-5" d="M1882.3,1088.29c-1.8-3.3-5.6-5.1-10.1-5.1-3.4,0-7,1-10.6,2.9-6.5,3.5-10.5,9.3-10.5,14.4,0,1.4,.3,2.8,1,4.1,1.8,3.3,5.6,5,10.1,5,3.4,0,7-.9,10.6-2.8,6.5-3.5,10.5-9.3,10.5-14.4,0-1.4-.3-2.8-1-4.1"/><path class="cls-5" d="M2055,1088.29c-1.8-3.3-5.6-5.1-10.1-5.1-3.4,0-7,1-10.6,2.9-6.5,3.5-10.5,9.3-10.5,14.4,0,1.4,.3,2.8,1,4.1,1.8,3.3,5.6,5,10.1,5,3.4,0,7-.9,10.6-2.8,6.5-3.5,10.5-9.3,10.5-14.4,0-1.4-.3-2.8-1-4.1"/><path class="cls-5" d="M2273.2,1088.29c-1.8-3.3-5.6-5.1-10.1-5.1-3.4,0-7,1-10.6,2.9-6.5,3.5-10.5,9.3-10.5,14.4,0,1.4,.3,2.8,1,4.1,1.8,3.3,5.6,5,10.1,5,3.4,0,7-.9,10.6-2.8,6.5-3.5,10.5-9.3,10.5-14.4-.1-1.4-.4-2.8-1-4.1m-4.3,6.7c-1.7,1.7-5.1,3.8-8.6,5.8-3.6,2-7.1,3.5-9.5,4-.5,.1-1,.2-1.5,.2-1.6,0-2.8-.6-3.5-1.9-.3-.5-.5-1.1-.5-1.7,0-1.1,.7-2.4,1.8-3.5,1.7-1.7,5-3.8,8.5-5.8,3.6-2,7.1-3.5,9.5-4,.5-.1,1-.2,1.5-.2,1.6,0,2.9,.6,3.6,1.9,.3,.5,.4,1.1,.4,1.7,0,1.1-.6,2.3-1.7,3.5"/><path class="cls-5" d="M559.8,881.39c-1.8-3.3-5.6-5.1-10.1-5.1-3.4,0-7,1-10.6,2.9-6.5,3.5-10.5,9.3-10.5,14.4,0,1.4,.3,2.8,1,4.1,1.8,3.3,5.6,5,10.1,5,3.4,0,7-.9,10.6-2.8,6.5-3.5,10.5-9.3,10.5-14.4,0-1.4-.3-2.8-1-4.1"/><path class="cls-5" d="M726.1,881.39c-1.8-3.3-5.6-5.1-10.1-5.1-3.4,0-7,1-10.6,2.9-6.5,3.5-10.5,9.3-10.5,14.4,0,1.4,.3,2.8,1,4.1,1.8,3.3,5.6,5,10.1,5,3.4,0,7-.9,10.6-2.8,6.5-3.5,10.5-9.3,10.5-14.4,0-1.4-.3-2.8-1-4.1"/><path class="cls-5" d="M892.4,881.39c-1.8-3.3-5.6-5.1-10.1-5.1-3.4,0-7,1-10.6,2.9-6.5,3.5-10.5,9.3-10.5,14.4,0,1.4,.3,2.8,1,4.1,1.8,3.3,5.6,5,10.1,5,3.4,0,7-.9,10.6-2.8,6.5-3.5,10.5-9.3,10.5-14.4,0-1.4-.3-2.8-1-4.1"/><path class="cls-5" d="M1104,868.99c-1.8-3.3-5.6-5.1-10.1-5.1-3.4,0-7,1-10.6,2.9-6.5,3.5-10.5,9.3-10.5,14.4,0,1.4,.3,2.8,1,4.1,1.8,3.3,5.6,5,10.1,5,3.4,0,7-.9,10.6-2.8,6.5-3.5,10.5-9.3,10.5-14.4,0-1.4-.3-2.8-1-4.1"/><path class="cls-5" d="M1344.1,856.59c-1.8-3.3-5.6-5.1-10.1-5.1-3.4,0-7,1-10.6,2.9-6.5,3.5-10.5,9.3-10.5,14.4,0,1.4,.3,2.8,1,4.1,1.8,3.3,5.6,5,10.1,5,3.4,0,7-.9,10.6-2.8,6.5-3.5,10.5-9.3,10.5-14.4,0-1.4-.3-2.8-1-4.1"/><path class="cls-5" d="M1467.2,868.99c-1.8-3.3-5.6-5.1-10.1-5.1-3.4,0-7,1-10.6,2.9-6.5,3.5-10.5,9.3-10.5,14.4,0,1.4,.3,2.8,1,4.1,1.8,3.3,5.6,5,10.1,5,3.4,0,7-.9,10.6-2.8,6.5-3.5,10.5-9.3,10.5-14.4,0-1.4-.3-2.8-1-4.1"/><path class="cls-5" d="M1709.6,856.59c-1.8-3.3-5.6-5.1-10.1-5.1-3.4,0-7,1-10.6,2.9-6.5,3.5-10.5,9.3-10.5,14.4,0,1.4,.3,2.8,1,4.1,1.8,3.3,5.6,5,10.1,5,3.4,0,7-.9,10.6-2.8,6.5-3.5,10.5-9.3,10.5-14.4,0-1.4-.3-2.8-1-4.1"/><path class="cls-5" d="M1882.3,856.59c-1.8-3.3-5.6-5.1-10.1-5.1-3.4,0-7,1-10.6,2.9-6.5,3.5-10.5,9.3-10.5,14.4,0,1.4,.3,2.8,1,4.1,1.8,3.3,5.6,5,10.1,5,3.4,0,7-.9,10.6-2.8,6.5-3.5,10.5-9.3,10.5-14.4,0-1.4-.3-2.8-1-4.1"/><path class="cls-5" d="M2055,844.19c-1.8-3.3-5.6-5.1-10.1-5.1-3.4,0-7,1-10.6,2.9-6.5,3.5-10.5,9.3-10.5,14.4,0,1.4,.3,2.8,1,4.1,1.8,3.3,5.6,5,10.1,5,3.4,0,7-.9,10.6-2.8,6.5-3.5,10.5-9.3,10.5-14.4,0-1.4-.3-2.8-1-4.1"/><path class="cls-5" d="M2273.2,831.79c-1.8-3.3-5.6-5.1-10.1-5.1-3.4,0-7,1-10.6,2.9-6.5,3.5-10.5,9.3-10.5,14.4,0,1.4,.3,2.8,1,4.1,1.8,3.3,5.6,5,10.1,5,3.4,0,7-.9,10.6-2.8,6.5-3.5,10.5-9.3,10.5-14.4-.1-1.4-.4-2.8-1-4.1m-4.3,6.8c-1.7,1.7-5.1,3.8-8.6,5.8-3.6,2-7.1,3.5-9.5,4-.5,.1-1,.2-1.5,.2-1.6,0-2.8-.6-3.5-1.9-.3-.5-.5-1.1-.5-1.7,0-1.1,.7-2.4,1.8-3.5,1.7-1.7,5-3.8,8.5-5.8,3.6-2,7.1-3.5,9.5-4,.5-.1,1-.2,1.5-.2,1.6,0,2.9,.6,3.6,1.9,.3,.5,.4,1.1,.4,1.7,0,1.1-.6,2.3-1.7,3.5"/><path class="cls-5" d="M559.8,736.59c-1.8-3.3-5.6-5.1-10.1-5.1-3.4,0-7,1-10.6,2.9-6.5,3.5-10.5,9.3-10.5,14.4,0,1.4,.3,2.8,1,4.1,1.8,3.3,5.6,5,10.1,5,3.4,0,7-.9,10.6-2.8,6.5-3.5,10.5-9.3,10.5-14.4,0-1.4-.3-2.8-1-4.1"/><path class="cls-5" d="M726.1,736.59c-1.8-3.3-5.6-5.1-10.1-5.1-3.4,0-7,1-10.6,2.9-6.5,3.5-10.5,9.3-10.5,14.4,0,1.4,.3,2.8,1,4.1,1.8,3.3,5.6,5,10.1,5,3.4,0,7-.9,10.6-2.8,6.5-3.5,10.5-9.3,10.5-14.4,0-1.4-.3-2.8-1-4.1"/><path class="cls-5" d="M892.4,736.59c-1.8-3.3-5.6-5.1-10.1-5.1-3.4,0-7,1-10.6,2.9-6.5,3.5-10.5,9.3-10.5,14.4,0,1.4,.3,2.8,1,4.1,1.8,3.3,5.6,5,10.1,5,3.4,0,7-.9,10.6-2.8,6.5-3.5,10.5-9.3,10.5-14.4,0-1.4-.3-2.8-1-4.1"/><path class="cls-5" d="M1104,748.99c-1.8-3.3-5.6-5.1-10.1-5.1-3.4,0-7,1-10.6,2.9-6.5,3.5-10.5,9.3-10.5,14.4,0,1.4,.3,2.8,1,4.1,1.8,3.3,5.6,5,10.1,5,3.4,0,7-.9,10.6-2.8,6.5-3.5,10.5-9.3,10.5-14.4,0-1.4-.3-2.8-1-4.1"/><path class="cls-5" d="M1344.1,736.59c-1.8-3.3-5.6-5.1-10.1-5.1-3.4,0-7,1-10.6,2.9-6.5,3.5-10.5,9.3-10.5,14.4,0,1.4,.3,2.8,1,4.1,1.8,3.3,5.6,5,10.1,5,3.4,0,7-.9,10.6-2.8,6.5-3.5,10.5-9.3,10.5-14.4,0-1.4-.3-2.8-1-4.1"/><path class="cls-5" d="M1467.2,748.99c-1.8-3.3-5.6-5.1-10.1-5.1-3.4,0-7,1-10.6,2.9-6.5,3.5-10.5,9.3-10.5,14.4,0,1.4,.3,2.8,1,4.1,1.8,3.3,5.6,5,10.1,5,3.4,0,7-.9,10.6-2.8,6.5-3.5,10.5-9.3,10.5-14.4,0-1.4-.3-2.8-1-4.1"/><path class="cls-5" d="M1709.6,736.59c-1.8-3.3-5.6-5.1-10.1-5.1-3.4,0-7,1-10.6,2.9-6.5,3.5-10.5,9.3-10.5,14.4,0,1.4,.3,2.8,1,4.1,1.8,3.3,5.6,5,10.1,5,3.4,0,7-.9,10.6-2.8,6.5-3.5,10.5-9.3,10.5-14.4,0-1.4-.3-2.8-1-4.1"/><path class="cls-5" d="M1882.3,736.59c-1.8-3.3-5.6-5.1-10.1-5.1-3.4,0-7,1-10.6,2.9-6.5,3.5-10.5,9.3-10.5,14.4,0,1.4,.3,2.8,1,4.1,1.8,3.3,5.6,5,10.1,5,3.4,0,7-.9,10.6-2.8,6.5-3.5,10.5-9.3,10.5-14.4,0-1.4-.3-2.8-1-4.1"/><path class="cls-5" d="M2055,724.19c-1.8-3.3-5.6-5.1-10.1-5.1-3.4,0-7,1-10.6,2.9-6.5,3.5-10.5,9.3-10.5,14.4,0,1.4,.3,2.8,1,4.1,1.8,3.3,5.6,5,10.1,5,3.4,0,7-.9,10.6-2.8,6.5-3.5,10.5-9.3,10.5-14.4,0-1.4-.3-2.8-1-4.1"/><path class="cls-5" d="M2273.2,711.79c-1.8-3.3-5.6-5.1-10.1-5.1-3.4,0-7,1-10.6,2.9-6.5,3.5-10.5,9.3-10.5,14.4,0,1.4,.3,2.8,1,4.1,1.8,3.3,5.6,5,10.1,5,3.4,0,7-.9,10.6-2.8,6.5-3.5,10.5-9.3,10.5-14.4-.1-1.4-.4-2.8-1-4.1m-4.3,6.7c-1.7,1.7-5.1,3.8-8.6,5.8-3.6,2-7.1,3.5-9.5,4-.5,.1-1,.2-1.5,.2-1.6,0-2.8-.6-3.5-1.9-.3-.5-.5-1.1-.5-1.7,0-1.1,.7-2.4,1.8-3.5,1.7-1.7,5-3.8,8.5-5.8,3.6-2,7.1-3.5,9.5-4,.5-.1,1-.2,1.5-.2,1.6,0,2.9,.6,3.6,1.9,.3,.5,.4,1.1,.4,1.7,0,1.2-.6,2.4-1.7,3.5"/><path class="cls-5" d="M559.8,352.79c-1.8-3.3-5.6-5.1-10.1-5.1-3.4,0-7,1-10.6,2.9-6.5,3.5-10.5,9.3-10.5,14.4,0,1.4,.3,2.8,1,4.1,1.8,3.3,5.6,5,10.1,5,3.4,0,7-.9,10.6-2.8,6.5-3.5,10.5-9.3,10.5-14.4,0-1.4-.3-2.8-1-4.1"/><path class="cls-5" d="M726.1,352.79c-1.8-3.3-5.6-5.1-10.1-5.1-3.4,0-7,1-10.6,2.9-6.5,3.5-10.5,9.3-10.5,14.4,0,1.4,.3,2.8,1,4.1,1.8,3.3,5.6,5,10.1,5,3.4,0,7-.9,10.6-2.8,6.5-3.5,10.5-9.3,10.5-14.4,0-1.4-.3-2.8-1-4.1"/><path class="cls-5" d="M892.4,352.79c-1.8-3.3-5.6-5.1-10.1-5.1-3.4,0-7,1-10.6,2.9-6.5,3.5-10.5,9.3-10.5,14.4,0,1.4,.3,2.8,1,4.1,1.8,3.3,5.6,5,10.1,5,3.4,0,7-.9,10.6-2.8,6.5-3.5,10.5-9.3,10.5-14.4,0-1.4-.3-2.8-1-4.1"/><path class="cls-5" d="M1104,340.39c-1.8-3.3-5.6-5.1-10.1-5.1-3.4,0-7,1-10.6,2.9-6.5,3.5-10.5,9.3-10.5,14.4,0,1.4,.3,2.8,1,4.1,1.8,3.3,5.6,5,10.1,5,3.4,0,7-.9,10.6-2.8,6.5-3.5,10.5-9.3,10.5-14.4,0-1.4-.3-2.8-1-4.1"/><path class="cls-5" d="M1344.1,327.99c-1.8-3.3-5.6-5.1-10.1-5.1-3.4,0-7,1-10.6,2.9-6.5,3.5-10.5,9.3-10.5,14.4,0,1.4,.3,2.8,1,4.1,1.8,3.3,5.6,5,10.1,5,3.4,0,7-.9,10.6-2.8,6.5-3.5,10.5-9.3,10.5-14.4,0-1.4-.3-2.8-1-4.1"/><path class="cls-5" d="M1467.2,340.39c-1.8-3.3-5.6-5.1-10.1-5.1-3.4,0-7,1-10.6,2.9-6.5,3.5-10.5,9.3-10.5,14.4,0,1.4,.3,2.8,1,4.1,1.8,3.3,5.6,5,10.1,5,3.4,0,7-.9,10.6-2.8,6.5-3.5,10.5-9.3,10.5-14.4,0-1.4-.3-2.8-1-4.1"/><path class="cls-5" d="M1709.6,327.99c-1.8-3.3-5.6-5.1-10.1-5.1-3.4,0-7,1-10.6,2.9-6.5,3.5-10.5,9.3-10.5,14.4,0,1.4,.3,2.8,1,4.1,1.8,3.3,5.6,5,10.1,5,3.4,0,7-.9,10.6-2.8,6.5-3.5,10.5-9.3,10.5-14.4,0-1.4-.3-2.8-1-4.1"/><path class="cls-5" d="M1882.3,327.99c-1.8-3.3-5.6-5.1-10.1-5.1-3.4,0-7,1-10.6,2.9-6.5,3.5-10.5,9.3-10.5,14.4,0,1.4,.3,2.8,1,4.1,1.8,3.3,5.6,5,10.1,5,3.4,0,7-.9,10.6-2.8,6.5-3.5,10.5-9.3,10.5-14.4,0-1.4-.3-2.8-1-4.1"/><path class="cls-5" d="M2055,315.59c-1.8-3.3-5.6-5.1-10.1-5.1-3.4,0-7,1-10.6,2.9-6.5,3.5-10.5,9.3-10.5,14.4,0,1.4,.3,2.8,1,4.1,1.8,3.3,5.6,5,10.1,5,3.4,0,7-.9,10.6-2.8,6.5-3.5,10.5-9.3,10.5-14.4,0-1.4-.3-2.8-1-4.1"/><path class="cls-5" d="M2273.2,303.19c-1.8-3.3-5.6-5.1-10.1-5.1-3.4,0-7,1-10.6,2.9-6.5,3.5-10.5,9.3-10.5,14.4,0,1.4,.3,2.8,1,4.1,1.8,3.3,5.6,5,10.1,5,3.4,0,7-.9,10.6-2.8,6.5-3.5,10.5-9.3,10.5-14.4-.1-1.4-.4-2.8-1-4.1m-4.3,6.7c-1.7,1.7-5.1,3.8-8.6,5.8-3.6,2-7.1,3.5-9.5,4-.5,.1-1,.2-1.5,.2-1.6,0-2.8-.6-3.5-1.9-.3-.5-.5-1.1-.5-1.7,0-1.1,.7-2.4,1.8-3.5,1.7-1.7,5-3.8,8.5-5.8,3.6-2,7.1-3.5,9.5-4,.5-.1,1-.2,1.5-.2,1.6,0,2.9,.6,3.6,1.9,.3,.5,.4,1.1,.4,1.7,0,1.2-.6,2.3-1.7,3.5"/><path class="cls-5" d="M326,1071.39c-7.5,0-13.6,4.4-13.7,4.4-5.8,4.3-8,9.3-8.9,12.8-.5,1.8-.7,3.6-.7,5.3,0,2.4,.4,4.6,1.3,6.4,1.2,2.7,3.5,4.6,6.4,5.6,1.2,.4,2.5,.6,3.8,.6,2.2,0,4.5-.6,6.3-1.7,3.1-1.7,5-5.3,5-9.1,0-3.5-1.8-6.6-4.8-8.5-2.1-1.4-4.1-1.8-5.8-1.8-1.2,0-2.3,.2-3.2,.5-1,.4-2.7,1.4-3.5,2.1,.3-1.9,1.5-4.8,2.6-6.3s3.3-3.6,5-4.5c2.5-1.4,5.7-2,9.1-2,10.1,0,15.1,8.1,15.1,24.8,0,9.2-3.5,18.1-6.4,23.9-3.3,6.5-7.6,12.8-11.5,16.3-10.3,9.4-20,13.9-20.1,13.9,0,0-1.5,.9-1.1,2.4,.3,1,1.2,1.2,1.8,1.2,.1,0,.4-.1,.5-.1s11.4-4.7,20.4-11.7c5.1-3.7,9.6-7.6,13.6-11.9,3.6-3.9,6.6-8,9.1-12.2,4.4-7.4,6.8-15.2,6.8-21.8,0-8.2-2.2-15.1-6.3-19.9-4.5-5.8-11.5-8.7-20.8-8.7m31.2,12.6c0,2.8,2.2,5,4.8,5s4.8-2.2,4.8-5-2.2-5.1-4.8-5.1-4.8,2.3-4.8,5.1m0,24.5c0,2.8,2.2,5.1,4.8,5.1s4.8-2.3,4.8-5.1-2.2-5.1-4.8-5.1-4.8,2.3-4.8,5.1"/><path class="cls-5" d="M326,864.59c-7.5,0-13.6,4.4-13.7,4.4-5.8,4.3-8,9.3-8.9,12.8-.5,1.8-.7,3.6-.7,5.3,0,2.4,.4,4.6,1.3,6.4,1.2,2.7,3.5,4.6,6.4,5.6,1.2,.4,2.5,.6,3.8,.6,2.2,0,4.5-.6,6.3-1.7,3.1-1.7,5-5.3,5-9.1,0-3.5-1.8-6.6-4.8-8.5-2.1-1.4-4.1-1.8-5.8-1.8-1.2,0-2.3,.2-3.2,.5-1,.4-2.7,1.4-3.5,2.1,.3-1.9,1.5-4.8,2.6-6.3s3.3-3.6,5-4.5c2.5-1.4,5.7-2,9.1-2,10.1,0,15.1,8.1,15.1,24.8,0,9.2-3.5,18.1-6.4,23.9-3.3,6.5-7.6,12.8-11.5,16.3-10.3,9.4-20,13.9-20.1,13.9,0,0-1.5,.9-1.1,2.4,.3,1,1.2,1.2,1.8,1.2,.1,0,.4-.1,.5-.1s11.4-4.7,20.4-11.7c5.1-3.7,9.6-7.6,13.6-11.9,3.6-3.9,6.6-8,9.1-12.2,4.4-7.4,6.8-15.2,6.8-21.8,0-8.2-2.2-15.1-6.3-19.9-4.5-5.9-11.5-8.7-20.8-8.7m31.2,12.6c0,2.8,2.2,5,4.8,5s4.8-2.2,4.8-5-2.2-5.1-4.8-5.1-4.8,2.3-4.8,5.1m0,24.5c0,2.8,2.2,5.1,4.8,5.1s4.8-2.3,4.8-5.1-2.2-5.1-4.8-5.1-4.8,2.3-4.8,5.1"/><path class="cls-5" d="M363.7,726.39c-1.2-5.4-3.8-9.2-4.6-10.2-3.2-4.2-7.1-7.1-11.8-8.4-3.1-.9-6.1-1-8.5-.8-1-6-2-11.8-2.9-17.2,5.4-6.1,9-11.9,11.3-16.1,3.4-6.5,4.6-11.1,4.6-11.3,1.7-5.2,2.1-12.8,1-21-1-7.5-3.1-14.1-5.4-17.4-1-1.4-2.1-2.1-3.1-2.1-1.2,0-3.7,1.2-6.6,4-2.3,2.2-5.5,6-8.1,12-3,7-3.2,16.4-2.8,23.1,.4,7.2,1.5,12.9,1.5,12.9,0,.1,.3,1.6,.7,4.1-.2,.2-.5,.4-.7,.7-1,1-2.2,2.1-3.6,3.5-.9,.9-1.8,1.8-2.8,2.7-8.4,8.1-21.1,20.3-21.1,39.3,0,4.7,.9,9,2.7,13,1.6,3.6,3.9,6.8,6.8,9.7,7.7,7.5,18.2,10.7,25.2,10.5,2.9-.1,5.5-.3,7.9-.8,1.8,9.5,2.9,16.5,3,21.8,0,6.5-1.6,10.4-5.5,13.1-2.4,1.7-5.2,2.7-8.3,2.8-2.6,.1-4.8-.3-6.2-.8h0s-.3-.1-.3-.3,.3-.2,.3-.2h0c1.9-.4,5.4-1.7,7.8-4.9,1.8-2.5,2.6-7.1,.8-11-1.1-2.4-3.6-5.3-9.2-5.7-2.5-.2-4.7,.3-6.7,1.5-1.8,1.1-3.3,2.7-4.3,4.7-2.4,4.7-2,10.3,1.1,14.2,2.9,3.6,7.5,5.9,12.9,6.5,.8,.1,1.7,.1,2.5,.1,4.4,0,8.8-1.2,12.3-3.4,3.6-2.5,5.7-6.5,6.4-12.1,.6-4.6,.2-10.5-1.2-18.5-.4-2.1-.9-5.1-1.5-8.8,5.7-1.9,9.8-5.4,13.6-11.3,3.3-5.6,4.2-11.6,2.8-17.9m-33.9,26c-4.6-1.2-9-3.7-12.7-7.2-1.3-1.2-3.2-3.4-4.6-6.7-1.4-3.1-2-6.5-2-10.1,.1-4.7,1.4-9.4,3.9-14.2,2.9-5.5,7.4-11,13.4-16.3,1.4-1.3,2.8-2.5,4.1-3.8,.8,4.2,1.6,8.9,2.5,13.7-3.8,1.3-8.5,4.4-11.6,10-3.5,6.5-3.4,12-2.6,15.4,.9,4.4,3.4,8.2,6.9,10.2,.9,.6,5,2.7,6.8,2.1,.4-.1,.6-.3,.8-.7,.5-1.2-.5-1.8-2.1-2.7-.6-.4-1.3-.8-2-1.3-3.3-2.5-4.7-6.9-3.7-11.2,.6-2.4,1.8-4.5,3.7-6.2,1.7-1.5,3.7-2.6,6-3.3,2,11.2,4.1,22.2,5.7,30.5,.1,.7,.3,1.3,.4,2-4.5,1-8.8,.9-12.9-.2m11.2-32.9c10.3-.5,14.5,6.9,15.4,11.7,.5,2.5,.5,6.9-1.1,11.1-1.2,3.2-3.6,7.2-8.7,9.2-.1-.4-.1-.8-.2-1.3-1.5-8.7-3.5-19.6-5.4-30.7m-7.3-70.4c1.8-5.7,4.5-8.9,6.5-10.6,1.7-1.5,3.4-2.2,4.3-2.2h.4c.5,.1,1,.7,1.4,1.6,2.3,4.3,1.6,10.9,.2,15.3-1.6,5.4-4.5,10.9-13.2,20.5-.2-1.1-.3-2.1-.5-3.1-1.3-8.3-.9-15.5,.9-21.5"/><path class="cls-5" d="M363.7,342.59c-1.2-5.4-3.8-9.2-4.6-10.2-3.2-4.2-7.1-7.1-11.8-8.4-3.1-.9-6.1-1-8.5-.8-1-6-2-11.8-2.9-17.2,5.4-6.1,9-11.9,11.3-16.1,3.4-6.5,4.6-11.1,4.6-11.3,1.7-5.2,2.1-12.8,1-21-1-7.5-3.1-14.1-5.4-17.4-1-1.4-2.1-2.1-3.1-2.1-1.2,0-3.7,1.2-6.6,4-2.3,2.2-5.5,6-8.1,12-3,7-3.2,16.4-2.8,23.1,.4,7.2,1.5,12.9,1.5,12.9,0,.1,.3,1.6,.7,4.1-.2,.2-.5,.4-.7,.7-1,1-2.2,2.1-3.6,3.5-.9,.9-1.8,1.8-2.8,2.7-8.4,8.1-21.1,20.3-21.1,39.3,0,4.7,.9,9,2.7,13,1.6,3.6,3.9,6.8,6.8,9.7,7.7,7.5,18.2,10.7,25.2,10.5,2.9-.1,5.5-.3,7.9-.8,1.8,9.5,2.9,16.5,3,21.8,0,6.5-1.6,10.4-5.5,13.1-2.4,1.7-5.2,2.7-8.3,2.8-2.6,.1-4.8-.3-6.2-.8h0s-.3-.1-.3-.3,.3-.2,.3-.2h0c1.9-.4,5.4-1.7,7.8-4.9,1.8-2.5,2.6-7.1,.8-11-1.1-2.4-3.6-5.3-9.2-5.7-2.5-.2-4.7,.3-6.7,1.5-1.8,1.1-3.3,2.7-4.3,4.7-2.4,4.7-2,10.3,1.1,14.2,2.9,3.6,7.5,5.9,12.9,6.5,.8,.1,1.7,.1,2.5,.1,4.4,0,8.8-1.2,12.3-3.4,3.6-2.5,5.7-6.5,6.4-12.1,.6-4.6,.2-10.5-1.2-18.5-.4-2.1-.9-5.1-1.5-8.8,5.7-1.9,9.8-5.4,13.6-11.3,3.3-5.6,4.2-11.6,2.8-17.9m-33.9,26c-4.6-1.2-9-3.7-12.7-7.2-1.3-1.2-3.2-3.4-4.6-6.7-1.4-3.1-2-6.5-2-10.1,.1-4.7,1.4-9.4,3.9-14.2,2.9-5.5,7.4-11,13.4-16.3,1.4-1.3,2.8-2.5,4.1-3.8,.8,4.2,1.6,8.9,2.5,13.7-3.8,1.3-8.5,4.4-11.6,10-3.5,6.5-3.4,12-2.6,15.4,.9,4.4,3.4,8.2,6.9,10.2,.9,.6,5,2.7,6.8,2.1,.4-.1,.6-.3,.8-.7,.5-1.2-.5-1.8-2.1-2.7-.6-.4-1.3-.8-2-1.3-3.3-2.5-4.7-6.9-3.7-11.2,.6-2.4,1.8-4.5,3.7-6.2,1.7-1.5,3.7-2.6,6-3.3,2,11.2,4.1,22.2,5.7,30.5,.1,.7,.3,1.3,.4,2-4.5,1-8.8,.9-12.9-.2m11.2-32.9c10.3-.5,14.5,6.9,15.4,11.7,.5,2.5,.5,6.9-1.1,11.1-1.2,3.2-3.6,7.2-8.7,9.2-.1-.4-.1-.8-.2-1.3-1.5-8.7-3.5-19.6-5.4-30.7m-7.3-70.4c1.8-5.7,4.5-8.9,6.5-10.6,1.7-1.5,3.4-2.2,4.3-2.2h.4c.5,.1,1,.7,1.4,1.6,2.3,4.3,1.6,10.9,.2,15.3-1.6,5.4-4.5,10.9-13.2,20.5-.2-1.1-.3-2.1-.5-3.1-1.3-8.3-.9-15.5,.9-21.5"/><path class="cls-5" d="M411.5,1138.09c-.6-3.9-3-7.5-8-7.5s-7.8,3.1-8.3,3.7l.4-31.8c0-.8-.6-1.4-1.4-1.4h-1.2c-.8,0-1.4,.6-1.4,1.4l.5,59.6c0,.8,.6,1.4,1.4,1.4,.2,0,.6-.1,.8-.2,.4-.2,6.8-3.4,12.2-9.4,3.8-4.3,5.3-9.1,5.3-13.2-.1-1-.2-1.8-.3-2.6m-6.9,3.8c0,1.5-.4,6.1-2.9,9.8-1.7,2.6-5.1,5.3-6.9,6.7l.3-19.3c.2-.9,1.7-3.8,5.7-3.8,3.6,0,3.9,3.4,3.9,5.5v1.1"/><path class="cls-5" d="M411.5,931.19c-.6-3.9-3-7.5-8-7.5s-7.8,3.1-8.3,3.7l.4-31.8c0-.8-.6-1.4-1.4-1.4h-1.2c-.8,0-1.4,.6-1.4,1.4l.5,59.6c0,.8,.6,1.4,1.4,1.4,.2,0,.6-.1,.8-.2,.4-.2,6.8-3.4,12.2-9.4,3.8-4.3,5.3-9.1,5.3-13.2-.1-1-.2-1.8-.3-2.6m-6.9,3.9c0,1.5-.4,6.1-2.9,9.8-1.7,2.6-5.1,5.3-6.9,6.7l.3-19.3c.2-.9,1.7-3.8,5.7-3.8,3.6,0,3.9,3.4,3.9,5.5v1.1"/><path class="cls-5" d="M411.5,699.59c-.6-3.9-3-7.5-8-7.5s-7.8,3.1-8.3,3.7l.4-31.8c0-.8-.6-1.4-1.4-1.4h-1.2c-.8,0-1.4,.6-1.4,1.4l.5,59.6c0,.8,.6,1.4,1.4,1.4,.2,0,.6-.1,.8-.2,.4-.2,6.8-3.4,12.2-9.4,3.8-4.3,5.3-9.1,5.3-13.2-.1-1-.2-1.8-.3-2.6m-6.9,3.9c0,1.5-.4,6.1-2.9,9.8-1.7,2.6-5.1,5.3-6.9,6.7l.3-19.3c.2-.9,1.7-3.8,5.7-3.8,3.6,0,3.9,3.4,3.9,5.5v1.1"/><path class="cls-5" d="M411.5,315.79c-.6-3.9-3-7.5-8-7.5s-7.8,3.1-8.3,3.7l.4-31.8c0-.8-.6-1.4-1.4-1.4h-1.2c-.8,0-1.4,.6-1.4,1.4l.5,59.6c0,.8,.6,1.4,1.4,1.4,.2,0,.6-.1,.8-.2,.4-.2,6.8-3.4,12.2-9.4,3.8-4.3,5.3-9.1,5.3-13.2-.1-1-.2-1.8-.3-2.6m-6.9,3.9c0,1.5-.4,6.1-2.9,9.8-1.7,2.6-5.1,5.3-6.9,6.7l.3-19.3c.2-.9,1.7-3.8,5.7-3.8,3.6,0,3.9,3.4,3.9,5.5v1.1"/><path class="cls-5" d="M465.8,1095.19h.2c7.9-3.1,8.4-8.2,8.4-10v-.5c0-.9-.3-12.1-17.4-12.1s-16.6,12.1-16.6,12.1h.1l-.1,.2c0,3.6,2.9,6.3,6.4,6.3s6.3-2.8,6.3-6.3c0-2.9-2.2-5.7-5-6.3l.3-.3c1.4-1,3.3-1.5,5.2-1.5,4.2,0,8.6,2.5,8.6,7.8,0,6.3-4.7,7.1-5.9,7.3-1.2,.2-6.7,.6-7.9,.6s-1.3,1.4-1.3,1.4v2s.2,1.1,1.3,1.2c1.7,.1,4,.1,7.1,.6,4.4,.6,6.6,3.6,6.6,10.5s-4.5,8.4-8.6,8.4c-2.8,0-5.4-.8-6.4-1.6,3.3-.2,6-3.1,6-6.3,0-3.6-2.8-6.4-6.3-6.4s-6.4,2.9-6.4,6.4c0,0-.5,4.5,3.9,8.5,3.9,3.6,8.7,3.7,10.9,3.7,9.5,0,19.8-3.3,19.8-14.1,.1-7.1-4.8-10.2-9.2-11.6"/><path class="cls-5" d="M438.7,1158.29h17v7.4h-8.2c-.8,0-1.4,.6-1.4,1.4v1.9c0,.8,.6,1.4,1.4,1.4h30c.8,0,1.4-.6,1.4-1.4v-1.9c0-.8-.6-1.4-1.4-1.4h-8.9v-7.4h8.9c.8,0,1.4-.6,1.4-1.4v-1.9c0-.8-.6-1.4-1.4-1.4h-8.9v-15.8c0-.5-.3-1-.8-1.2l-1.2-.6c-.5-.3-1.2-.2-1.6,.2l-9,8.3c-.3,.3-.5,.6-.5,1v8.2h-11.4s11-11.9,22.8-27.6c.9-1.1,.4-2.2,.2-2.4l-2.2-2.2c-.3-.3-.6-.4-1-.4h-14.8c-.7,0-1.3,.6-1.3,1.2,0,0-.5,7.3-3.1,15.4s-5.5,13-8.1,16.6c0,0-.5,1-.2,1.7s1,1.8,1,1.8c0,0,.4,.5,1.3,.5"/><path class="cls-5" d="M465.8,888.39h.2c7.9-3.1,8.4-8.2,8.4-10v-.5c0-.9-.3-12.1-17.4-12.1s-16.6,12.1-16.6,12.1h.1l-.1,.2c0,3.6,2.9,6.3,6.4,6.3s6.3-2.8,6.3-6.3c0-2.9-2.2-5.7-5-6.3l.3-.3c1.4-1,3.3-1.5,5.2-1.5,4.2,0,8.6,2.5,8.6,7.8,0,6.3-4.7,7.1-5.9,7.3s-6.7,.6-7.9,.6-1.3,1.4-1.3,1.4v2s.2,1.1,1.3,1.2c1.7,.1,4,.1,7.1,.6,4.4,.6,6.6,3.6,6.6,10.5s-4.5,8.4-8.6,8.4c-2.8,0-5.4-.8-6.4-1.6,3.3-.2,6-3.1,6-6.3,0-3.6-2.8-6.4-6.3-6.4s-6.4,2.9-6.4,6.4c0,0-.5,4.5,3.9,8.5,3.9,3.6,8.7,3.7,10.9,3.7,9.5,0,19.8-3.3,19.8-14.1,.1-7.2-4.8-10.2-9.2-11.6"/><path class="cls-5" d="M438.7,951.49h17v7.4h-8.2c-.8,0-1.4,.6-1.4,1.4v1.9c0,.8,.6,1.4,1.4,1.4h30c.8,0,1.4-.6,1.4-1.4v-1.9c0-.8-.6-1.4-1.4-1.4h-8.9v-7.4h8.9c.8,0,1.4-.6,1.4-1.4v-1.9c0-.8-.6-1.4-1.4-1.4h-8.9v-15.8c0-.5-.3-1-.8-1.2l-1.2-.6c-.5-.3-1.2-.2-1.6,.2l-9,8.3c-.3,.3-.5,.6-.5,1v8.2h-11.4s11-11.9,22.8-27.6c.9-1.1,.4-2.2,.2-2.4l-2.2-2.2c-.3-.3-.6-.4-1-.4h-14.8c-.7,0-1.3,.6-1.3,1.2,0,0-.5,7.3-3.1,15.4s-5.5,13-8.1,16.6c0,0-.5,1-.2,1.7s1,1.8,1,1.8c0,0,.4,.5,1.3,.5"/><path class="cls-5" d="M465.8,681.49h.2c7.9-3.1,8.4-8.2,8.4-10v-.5c0-.9-.3-12.1-17.4-12.1s-16.6,12.1-16.6,12.1h.1l-.1,.2c0,3.6,2.9,6.3,6.4,6.3s6.3-2.8,6.3-6.3c0-2.9-2.2-5.7-5-6.3l.3-.3c1.4-1,3.3-1.5,5.2-1.5,4.2,0,8.6,2.5,8.6,7.8,0,6.3-4.7,7.1-5.9,7.3s-6.7,.6-7.9,.6-1.3,1.4-1.3,1.4v2s.2,1.1,1.3,1.2c1.7,.1,4,.1,7.1,.6,4.4,.6,6.6,3.6,6.6,10.5s-4.5,8.4-8.6,8.4c-2.8,0-5.4-.8-6.4-1.6,3.3-.2,6-3.1,6-6.3,0-3.6-2.8-6.4-6.3-6.4s-6.4,2.9-6.4,6.4c0,0-.5,4.5,3.9,8.5,3.9,3.6,8.7,3.7,10.9,3.7,9.5,0,19.8-3.3,19.8-14.1,.1-7.1-4.8-10.2-9.2-11.6"/><path class="cls-5" d="M438.7,744.69h17v7.4h-8.2c-.8,0-1.4,.6-1.4,1.4v1.9c0,.8,.6,1.4,1.4,1.4h30c.8,0,1.4-.6,1.4-1.4v-1.9c0-.8-.6-1.4-1.4-1.4h-8.9v-7.4h8.9c.8,0,1.4-.6,1.4-1.4v-1.9c0-.8-.6-1.4-1.4-1.4h-8.9v-15.8c0-.5-.3-1-.8-1.3l-1.2-.6c-.5-.3-1.2-.2-1.6,.2l-9,8.3c-.3,.3-.5,.6-.5,1v8.2h-11.4s11-11.9,22.8-27.6c.9-1.1,.4-2.2,.2-2.4l-2.2-2.2c-.3-.3-.6-.4-1-.4h-14.8c-.7,0-1.3,.6-1.3,1.2,0,0-.5,7.3-3.1,15.4-2.6,8.1-5.5,13-8.1,16.6,0,0-.5,1-.2,1.7s1,1.8,1,1.8c0,0,.4,.6,1.3,.6"/><path class="cls-5" d="M465.8,297.69h.2c7.9-3.1,8.4-8.2,8.4-10v-.5c0-.9-.3-12.1-17.4-12.1s-16.6,12.1-16.6,12.1h.1l-.1,.2c0,3.6,2.9,6.3,6.4,6.3s6.3-2.8,6.3-6.3c0-2.9-2.2-5.7-5-6.3l.3-.3c1.4-1,3.3-1.5,5.2-1.5,4.2,0,8.6,2.5,8.6,7.8,0,6.3-4.7,7.1-5.9,7.3s-6.7,.6-7.9,.6-1.3,1.4-1.3,1.4v2s.2,1.1,1.3,1.2c1.7,.1,4,.1,7.1,.6,4.4,.6,6.6,3.6,6.6,10.5s-4.5,8.4-8.6,8.4c-2.8,0-5.4-.8-6.4-1.6,3.3-.2,6-3.1,6-6.3,0-3.6-2.8-6.4-6.3-6.4s-6.4,2.9-6.4,6.4c0,0-.5,4.5,3.9,8.5,3.9,3.6,8.7,3.7,10.9,3.7,9.5,0,19.8-3.3,19.8-14.1,.1-7.1-4.8-10.2-9.2-11.6"/><path class="cls-5" d="M438.7,360.79h17v7.4h-8.2c-.8,0-1.4,.6-1.4,1.4v1.9c0,.8,.6,1.4,1.4,1.4h30c.8,0,1.4-.6,1.4-1.4v-1.9c0-.8-.6-1.4-1.4-1.4h-8.9v-7.4h8.9c.8,0,1.4-.6,1.4-1.4v-1.9c0-.8-.6-1.4-1.4-1.4h-8.9v-15.8c0-.5-.3-1-.8-1.3l-1.2-.6c-.5-.3-1.2-.2-1.6,.2l-9,8.3c-.3,.3-.5,.6-.5,1v8.2h-11.4s11-11.9,22.8-27.6c.9-1.1,.4-2.2,.2-2.4l-2.2-2.2c-.3-.3-.6-.4-1-.4h-14.8c-.7,0-1.3,.6-1.3,1.2,0,0-.5,7.3-3.1,15.4s-5.5,13-8.1,16.6c0,0-.5,1-.2,1.7s1,1.8,1,1.8c0,0,.4,.6,1.3,.6"/><path class="cls-5" d="M2483.1,1137.89l-.2-.3c-.1-.1-.3-.3-.6-.7l-11.4-14.1c-.3-.3-.2-1.1,0-1.5l10.1-15.3c.1-.2,.2-.5,.2-.7v-.9c0-.3-.1-.6-.3-.8l-16.1-21.7s-.8-1.2-1.8-.3c-1,.8-.2,2.1-.2,2.1l7.5,10.3c.4,.6,.4,1.8,0,2.4l-10,15.3c-.1,.2-.2,.6-.2,.8v.9c0,.3,.1,.6,.3,.8l11.1,13.8c-.4-.1-1.3-.3-2.5-.3-1.7,0-3.9,.4-5.7,2-2.2,2-3.4,4.8-3.4,7.2,0,1.4,.3,2.8,1.1,3.9,2.1,3.2,9.5,12.6,9.5,12.6,0,0,.9,1.1,1.8,.4,.9-.7,.7-1.6,.4-2.1s-3.5-6.3-3.5-6.3c0,0-.7-1.4-.7-3.2,0-1.3,.4-2.9,1.7-4.2,1.2-1.2,2.6-1.6,3.9-1.6s2.4,.4,3.2,.9l3.9,2.5s1.2,.6,1.8-.3c.6-.7,.4-1.1,.1-1.6"/><path class="cls-5" d="M2483.1,930.99l-.2-.3c-.1-.1-.3-.3-.6-.7l-11.4-14.1c-.3-.3-.2-1.1,0-1.5l10.1-15.3c.1-.2,.2-.5,.2-.7v-.9c0-.3-.1-.6-.3-.8l-16.1-21.7s-.8-1.2-1.8-.3c-1,.8-.2,2.1-.2,2.1l7.5,10.3c.4,.6,.4,1.8,0,2.4l-10,15.3c-.1,.2-.2,.6-.2,.8v.9c0,.3,.1,.6,.3,.8l11.1,13.8c-.4-.1-1.3-.3-2.5-.3-1.7,0-3.9,.4-5.7,2-2.2,2-3.4,4.8-3.4,7.2,0,1.4,.3,2.8,1.1,3.9,2.1,3.2,9.5,12.6,9.5,12.6,0,0,.9,1.1,1.8,.4,.9-.7,.7-1.6,.4-2.1s-3.5-6.3-3.5-6.3c0,0-.7-1.4-.7-3.2,0-1.3,.4-2.9,1.7-4.2,1.2-1.2,2.6-1.6,3.9-1.6s2.4,.4,3.2,.9l3.9,2.5s1.2,.6,1.8-.3c.6-.7,.4-1.1,.1-1.6"/><path class="cls-5" d="M2483.1,724.19l-.2-.3c-.1-.1-.3-.3-.6-.7l-11.4-14.1c-.3-.3-.2-1.1,0-1.5l10.1-15.3c.1-.2,.2-.5,.2-.7v-.8c0-.3-.1-.6-.3-.8l-16.1-21.7s-.8-1.2-1.8-.3c-1,.8-.2,2.1-.2,2.1l7.5,10.3c.4,.6,.4,1.8,0,2.4l-10,15.3c-.1,.2-.2,.6-.2,.8v.9c0,.3,.1,.6,.3,.8l11.1,13.8c-.4-.1-1.3-.3-2.5-.3-1.7,0-3.9,.4-5.7,2-2.2,2-3.4,4.8-3.4,7.2,0,1.4,.3,2.8,1.1,3.9,2.1,3.2,9.5,12.6,9.5,12.6,0,0,.9,1.1,1.8,.4,.9-.7,.7-1.6,.4-2.1s-3.5-6.3-3.5-6.3c0,0-.7-1.4-.7-3.2,0-1.3,.4-2.9,1.7-4.2,1.2-1.2,2.6-1.6,3.9-1.6s2.4,.4,3.2,.9l3.9,2.5s1.2,.6,1.8-.3c.6-.8,.4-1.2,.1-1.7"/><path class="cls-5" d="M2483.1,340.39l-.2-.3c-.1-.1-.3-.3-.6-.7l-11.4-14.1c-.3-.3-.2-1.1,0-1.5l10.1-15.3c.1-.2,.2-.5,.2-.7v-.9c0-.3-.1-.6-.3-.8l-16.1-21.7s-.8-1.2-1.8-.3c-1,.8-.2,2.1-.2,2.1l7.5,10.3c.4,.6,.4,1.8,0,2.4l-10,15.3c-.1,.2-.2,.6-.2,.8v.9c0,.3,.1,.6,.3,.8l11.1,13.8c-.4-.1-1.3-.3-2.5-.3-1.7,0-3.9,.4-5.7,2-2.2,2-3.4,4.8-3.4,7.2,0,1.4,.3,2.8,1.1,3.9,2.1,3.2,9.5,12.6,9.5,12.6,0,0,.9,1.1,1.8,.4,.9-.7,.7-1.6,.4-2.1s-3.5-6.3-3.5-6.3c0,0-.7-1.4-.7-3.2,0-1.3,.4-2.9,1.7-4.2,1.2-1.2,2.6-1.6,3.9-1.6s2.4,.4,3.2,.9l3.9,2.5s1.2,.6,1.8-.3c.6-.7,.4-1.1,.1-1.6"/><path class="cls-5" d="M1345.8,1056.39c-.1-.3-1-3.8-1-4-.1-.4-.7-.7-1.2-.7-.7,0-1.3,.6-1.3,1.3v22.5c0,.5,.4,.9,.8,1.1,4.2,1.3,12.8,6.7,19.2,17.8,1.8,3.1,4.7,7.2,4.7,15.6,0,7.1-1.1,14.7-2.9,21.6-.3,1.1-.6,2.1,.5,2.5s1.5-.4,1.9-1.4c3.6-8.7,4.5-17.9,4.5-24v-1.9c-.5-12.8-7.8-22.2-7.8-22.2,.3,0-9.1-12.2-11.8-16.4-3.7-5.8-5.5-11.4-5.6-11.8"/><path class="cls-5" d="M1315.3,951.89c0-.2,.9-3.6,1-3.9,.1-.4,1.9-6.1,5.6-11.7,2.7-4.2,12.1-16.4,11.8-16.4,0,0,7.3-9.4,7.8-22.2v-2.3c0-6.1-.8-14.6-4.3-23.2-.4-1-.8-2-1.9-1.6s-.8,1.6-.5,2.7c1.8,6.9,2.8,14.1,2.8,21.2,0,8.3-3,12.5-4.8,15.6-6.5,11-15.1,16.4-19.2,17.8-.5,.2-.8,.6-.8,1.1v22.5c0,.7,.6,1.3,1.3,1.3,.5-.1,1.1-.5,1.2-.9"/><path class="cls-5" d="M1345.8,661.29c-.1-.3-1-3.8-1-4-.1-.4-.7-.7-1.2-.7-.7,0-1.3,.6-1.3,1.3v22.5c0,.5,.4,.9,.8,1.1,4.2,1.3,12.8,6.7,19.2,17.8,1.8,3.1,4.7,7.2,4.7,15.6,0,7.1-1.1,14.7-2.9,21.6-.3,1.1-.6,2.1,.5,2.5s1.5-.4,1.9-1.4c3.6-8.7,4.5-17.9,4.5-24v-1.9c-.5-12.8-7.8-22.2-7.8-22.2,.3,0-9.1-12.2-11.8-16.4-3.7-5.8-5.5-11.4-5.6-11.8"/><path class="cls-5" d="M1345.8,258.89c-.1-.3-1-3.8-1-4-.1-.4-.7-.7-1.2-.7-.7,0-1.3,.6-1.3,1.3v22.5c0,.5,.4,.9,.8,1.1,4.2,1.3,12.8,6.7,19.2,17.8,1.8,3.1,4.7,7.2,4.7,15.6,0,7.1-1.1,14.7-2.9,21.6-.3,1.1-.6,2.1,.5,2.5s1.5-.4,1.9-1.4c3.6-8.7,4.5-17.9,4.5-24v-1.9c-.5-12.8-7.8-22.2-7.8-22.2,.3,0-9.1-12.2-11.8-16.4-3.7-5.8-5.5-11.4-5.6-11.8"/><path class="cls-5" d="M534.3,431.49c6.7,1.9,12.9,2.9,21,3.3l.6-3.6c-8.2-.1-15.5-1.2-20.4-3.1l-1.2,3.4m-5.2,16.2c3.9-1.6,13.9-3.3,19-3.3,2.6,0,4.9,.4,6.1,1.1,2.1,1.1,3.2,3.1,3.2,5.6,0,2.3-.8,4.5-2.5,6.8-1.2,1.5-2.3,2.5-4.3,3.5-4.2,2.4-8.8,3.7-14,4,.8,1.2,.9,1.7,1.6,3.7,7.5-1.4,10.7-2.5,14.5-4.8,5.5-3.4,8.6-8.2,8.6-13.5,0-3.5-1.4-6.2-4.2-8-2-1.3-4.8-1.9-8.6-1.9-4,0-8.6,.5-15.2,1.8q-3.9,.8-5,.8l.8,4.2"/><path class="cls-5" d="M525,485.89c.1,.9,.1,1,.2,3,.2,12.3,1,18.7,2.7,23.4,1.7,4.8,4.3,7.6,7.1,7.6,3.5,0,5.8-3.4,8.3-12.1-1.4-1.1-1.8-1.5-3-2.8-.6,3.4-1.4,6-2.6,8.5-.8,1.7-1.6,2.5-2.5,2.5-1.9,0-4-3.5-5-8.5-.8-3.2-1.3-10-1.3-15.5,0-2.8,.1-4.4,.3-6l-4.2-.1m25.3,4.3c5.9,6.8,9.5,15.3,10.4,24.6l3.5-1.4c-.9-5.6-1.8-9.2-3.8-13.4-1.8-4.2-3.9-7.5-7.1-11.4l-3,1.6"/><path class="cls-5" d="M531.2,542.89c.7,0,.8,0,1.7,.2,3.2,.4,7.5,.6,11,.6,2.8,0,4.5-.1,7.5-.6-.5,.3-.6,.3-1,.5-.6,.3-.7,.3-1.2,.6-2.2,1.2-3.5,2-6.7,4.2l2.6,2c4.9-3.5,9.5-6.3,12.6-7.6l-.2-3.3c-2.8,.7-6.8,1.1-12.7,1.1s-9.6-.4-13.3-1.2l-.3,3.5m3,12.8c-3.8,3.2-5.8,6.4-5.8,9.7,0,3.5,2,6,5.7,7.5,2.5,1,6.7,1.5,11.5,1.5,4.4,0,9.1-.4,13.5-1.1,.8-.2,1-.2,1.7-.2l-.5-4.1c-2.8,1.2-8.8,1.9-15,1.9-4,0-7.2-.4-9.2-1-2.8-1-4.2-2.6-4.2-4.9s1.5-4.6,4.8-7.3l-2.5-2"/><path class="cls-5" d="M693.8,440.99c.8-.1,1-.2,2-.2,6.6-.1,12.9-.6,17.8-1.3,.3,.5,.3,.6,.9,1.6,2.1,4.2,3.4,6.2,6,9.8-2.1-1.1-6-1.8-10.4-1.8-4,0-7,.6-9.7,1.9-3.5,1.7-5.7,4.8-5.7,8.1,0,2,.8,4,2.2,5.5,2.3,2.4,6.9,3.8,13,3.8,5,0,9.7-.8,14.7-2.7l-.5-3.9c-3.8,2-9.2,3.2-14.2,3.2-4.3,0-7.9-.8-9.8-2.3-1.2-1-1.9-2.4-1.9-3.9,0-1.8,1-3.6,2.7-4.6,2.2-1.4,5.3-2.1,9.5-2.1,3.4,0,6.2,.5,8.8,1.3,1.4,.5,2.1,1,3.5,2.1l3.3-1.9c-3.5-4.7-7.2-10.7-9-14.5q.5-.1,1.7-.4c3.2-.6,3.8-.8,6.8-1.5,1.5-.4,1.9-.5,3-.7l-.5-3.5c-2.7,1.2-7.2,2.4-12.1,3.2-.4-1-.6-1.2-1.8-4.4s-1.2-3.2-1.5-4.5l-3.9,.5c.4,.9,.8,1.6,1.3,2.9,.9,2.2,1.7,4.2,2.5,6-4.7,.6-10.4,1-14.9,1-1.7,0-2.5,0-3.8-.2v3.5"/><path class="cls-5" d="M689.9,497.29c1.4-.3,1.8-.4,2.9-.6,.5-.1,2.8-.5,7.2-1.2-1.7,6.5-3.2,10.9-5.5,15.9-1.8,3.8-3.7,7.1-5.2,9l3.4,2c1.6-2.8,2.6-4.8,3.2-6,3.4-6.9,5.7-13.3,7.6-21.2,1.8-.2,2.5-.2,3.6-.2,4.7,0,6.2,1.7,6.2,7,0,5.6-.8,10.7-2.1,13.9-.6,1.6-1.6,2.4-2.8,2.4-1.8,0-4.6-.8-7.5-2.3,.2,.9,.2,1.2,.2,2,0,.7,0,1-.1,1.8,3.3,1.4,5.4,2,7.5,2,2.4,0,3.7-.7,4.9-2.4,2-2.9,3.3-9.5,3.3-17.2,0-4.1-.7-6.4-2.4-8.1-1.6-1.5-3.7-2.1-7.2-2.1-1.2,0-1.8,0-3,.2,.5-2.4,.8-4.2,1-5.7,.5-2.9,.6-3.7,1-4.8l-4-.5v.6c0,2.1-.7,6.9-1.5,10.6-4,.6-9.2,1.2-11,1.3l.3,3.6m29.5-6.6c4.9,5,8.3,11,10.2,18l3.2-1.9c-2.3-7-5.3-12.2-10.5-17.7l-2.9,1.6"/><path class="cls-5" d="M697.6,542.89c.7,0,.8,0,1.7,.2,3.2,.4,7.5,.6,11,.6,2.8,0,4.5-.1,7.5-.6-.5,.3-.6,.3-1,.5-.6,.3-.7,.3-1.2,.6-2.2,1.2-3.5,2-6.6,4.2l2.5,2c4.9-3.5,9.5-6.3,12.6-7.6l-.2-3.3c-2.8,.7-6.8,1.1-12.6,1.1s-9.7-.4-13.3-1.2l-.4,3.5m3,12.8c-3.8,3.2-5.8,6.4-5.8,9.7,0,3.5,2,6,5.7,7.5,2.5,1,6.7,1.5,11.5,1.5,4.4,0,9.2-.4,13.5-1.1,.8-.2,1-.2,1.7-.2l-.5-4.1c-2.8,1.2-8.8,1.9-15,1.9-4,0-7.2-.4-9.2-1-2.8-1-4.2-2.6-4.2-4.9s1.5-4.6,4.8-7.3l-2.5-2"/><path class="cls-5" d="M856.2,438.49c.9-.1,1-.1,3.1-.1,5.6-.1,9.9-.4,13.5-.9,1.2,2.5,1.6,3.3,2.8,5.7-4.1,.8-10.6,1.2-15.8,1.2-2,0-2.9,0-4-.2l.1,3.3c.9-.1,1.1-.1,3.5-.2,8.6-.2,12.8-.6,17.6-1.5,1.6,2.8,3.9,6.2,5.3,7.7-3.3-1.1-5.9-1.5-10.1-1.5-4.8,0-8.6,.8-11.3,2.4-2.5,1.5-4,3.8-4,6.2,0,2.6,1.4,4.9,3.8,6.3,2.5,1.5,5.7,2.1,10.3,2.1s8.7-.6,12.8-1.8c1.1-.4,1.7-.5,1.8-.6,.5-.1,.6-.1,1.2-.2l-.7-3.9c-3,1.9-9.6,3.4-14.8,3.4-6.9,0-10.7-1.8-10.7-5.1,0-3.5,4.6-5.7,11.9-5.7,2.3,0,4.8,.2,6.6,.5,2.4,.4,3.6,.8,5.5,1.9l2.9-2.1c-3.5-4.1-4.6-5.5-7.3-10,1.6-.3,4-.8,7.8-1.8,1.6-.5,1.9-.5,2.7-.7l-.4-3.4c-1.6,.8-5.5,2-11.4,3.1-.6-1-2.2-4.4-2.9-5.7,1.8-.2,4.9-.9,9.6-1.9l-.4-3.1c-2,.8-5.6,1.5-10.2,2.3-1.2-2.5-2.4-5.8-2.7-7l-3.8,.6c.4,.8,.5,.8,3,6.8-4.6,.6-7.7,.8-11.8,.8-1.7,0-2.6,0-3.8-.1l.3,3.2m29.2-10.4c1.5,1.5,3.9,5.3,5.1,8l2.5-1.5c-1.5-3-2.9-5.1-5.2-7.8l-2.4,1.3m5.7-2.7c1.9,2.2,4,5.5,5.1,7.9l2.5-1.5c-1.7-3.2-2.9-5-5.2-7.8l-2.4,1.4"/><path class="cls-5" d="M861.5,482.39c-.1,1.1-.2,1.6-.7,4-1.6,7.4-2.2,12.7-2.2,19.8,0,5.2,.4,8.8,1.3,14.1,.2,1,.2,1.2,.3,2l3.6-.3v-.8c0-2.8,1.8-8.8,4-13.8l-2.4-1.1c-1.6,3.6-2.5,6.4-3.2,9.8-.2-2.7-.3-5.6-.3-9.5,0-6,.4-10.4,1.5-15.7,.8-3.4,1.3-5.8,2.1-8l-4-.5m10.3,9.4c3.2,.4,5.2,.5,8,.5,3.8,0,7.8-.2,10.8-.6,2.2-.3,3.3-.5,3.5-.5l-.2-3.5c-3.4,.9-7.9,1.3-13.4,1.3-3.9,0-6.3-.2-8.5-.8l-.2,3.6m3.7,9.8c-3.1,3.6-4.3,6.2-4.3,9.3,0,1.8,.5,3.3,1.5,4.6,2.2,2.6,5.8,3.8,11.4,3.8,3.4,0,6.8-.3,10.2-1,1-.1,1.1-.2,1.8-.2l-.5-3.8c-2.7,1.1-6.9,1.8-11.5,1.8-6.4,0-9.6-1.8-9.6-5.5,0-2.2,1.2-4.6,3.8-7.4l-2.8-1.6"/><path class="cls-5" d="M864.6,542.09c.8-.2,2-.2,3.6-.2,5.6-.2,12.1-.5,14.2-.9,.2,0,.4-.1,.7-.1h.1q-.2,.2-.4,.4t-.4,.5c-4.6,4.8-11.4,11.2-16.6,15.8-3,2.5-4.6,3.8-6.5,5l2.5,3.1c1.1-1,2.2-2,3.9-3.2,5-3.4,11-5.5,16.1-5.5,6.2,0,9.9,2.7,9.9,7,0,5.2-5.3,8.7-13,8.7-4.3,0-9.2-1.1-12.8-3.1,.2,1.5,.3,2.3,.3,3.1,0,.2,0,.5-.1,.9,4.7,1.7,8.3,2.3,12.1,2.3,4,0,8-.8,10.7-2.1,4-2,6.5-5.8,6.5-9.9,0-6.1-5.1-9.9-13-9.9-4.6,0-7.7,1-12.7,3.9l-.2-.1c4.1-2.9,6.4-4.9,13.7-12.2q4.7-4.7,5.4-5.2l-2.1-2.9c-.6,.2-1,.3-2.1,.4-3.4,.4-9.8,.7-14.4,.7-3.1,0-4,0-5.6-.3l.2,3.8"/><path class="cls-5" d="M1092.7,434.49c-2.8,.9-5.9,1.6-10.2,2.1v-4.8c0-2.3,.1-3.2,.2-4.7h-3.7c.2,1.5,.2,2.8,.2,4.8v5c-1.5,.1-3.5,.2-4.8,.2-2.2,0-3.7-.1-5.1-.4v3.3h7.9q1.5-.1,2-.2v9.5c-3.2,1.3-5.2,2.5-7.1,4.1-2.7,2.3-3.9,4.5-3.9,6.7,0,1.8,.8,3.3,2.3,4.7,2.2,1.9,5.5,3.2,8.2,3.2,2.5,0,3.7-1.3,3.7-4v-12.5c4.2-1.3,7.4-1.9,10.6-1.9,6.6,0,10.7,3,10.7,7.9,0,4.1-2.8,7.1-6.7,7.1-3.6,0-5.1-2.2-5.1-7.4,0-.6,0-1,.1-2-1.2,.7-1.8,.9-3.3,1.3,0,2.5,.2,4,.6,5.6,1,3.6,3.8,5.7,7.7,5.7,5.8,0,10.2-4.5,10.2-10.4,0-3.7-1.8-6.9-5.2-8.8-2.3-1.4-5.3-2.1-8.8-2.1-3.3,0-6.4,.5-10.8,1.8v-8.7c2.3-.2,4.8-.6,8.8-1.5,.7-.1,.9-.2,1.5-.3v-3.3m-13.4,27.6c0,2.2-.2,2.5-1.2,2.5-1.3,0-3.1-.6-4.4-1.5-1.5-1-2.2-2-2.2-3,0-2.4,2.8-5.1,7.8-7.5v9.5m30.1-21.1c-3-3.8-5.5-6.2-10.1-9.5l-2.6,2c3.9,2.7,7.4,6.1,10.1,9.8l2.6-2.3"/><path class="cls-5" d="M1069.2,485.89c.1,.9,.1,1,.2,3,.2,12.3,.9,18.7,2.7,23.4,1.7,4.8,4.3,7.6,7.1,7.6,3.6,0,5.8-3.4,8.3-12.1-1.4-1.1-1.8-1.5-3-2.8-.6,3.4-1.4,6-2.6,8.5-.8,1.7-1.6,2.5-2.5,2.5-1.9,0-3.9-3.5-5-8.5-.8-3.2-1.3-10-1.3-15.5,0-2.8,.1-4.4,.3-6l-4.2-.1m25.3,4.3c5.9,6.8,9.5,15.3,10.4,24.6l3.6-1.4c-.9-5.6-1.8-9.2-3.8-13.4-1.8-4.2-3.9-7.5-7.2-11.4l-3,1.6"/><path class="cls-5" d="M1067.5,549.19c.8-.1,.9-.1,2-.1,6.6-.1,12.5-.6,17.8-1.3l.2,.5c.1,.1,.3,.6,.6,1.2,2.2,4.2,3.8,6.9,6,9.8-2.1-1.1-6-1.8-10.3-1.8-4,0-7,.5-9.7,1.8-3.5,1.7-5.7,4.9-5.7,8.2,0,2,.8,4,2.2,5.5,2.3,2.4,6.9,3.8,13,3.8,4.9,0,9.7-.8,14.7-2.7l-.5-3.8c-3.8,2-9.2,3.2-14.2,3.2-4.3,0-7.9-.9-9.8-2.3-1.2-1-1.9-2.3-1.9-3.9,0-1.8,1-3.6,2.7-4.7,2.2-1.4,5.3-2.1,9.5-2.1,3.4,0,6.2,.5,8.8,1.3,1.4,.5,2.1,1,3.4,2.1l3.4-1.9c-3.2-4.1-7-10.3-9-14.6h.3c.2,0,.5-.1,1.1-.2,.9-.2,2.3-.4,4.3-.8,.3-.1,.8-.2,1.2-.3,.6-.2,1-.2,1.1-.3,.1,0,.3-.1,.6-.1l-.5-3.5c-1.1,.5-5.1,1.5-9.4,2.4-.4-.9-.6-1.2-1.8-4.5-1.2-3-1.2-3.2-1.5-4.5l-3.9,.6c.4,.8,.7,1.5,1.3,2.9,.9,2.1,1.7,4,2.5,5.9-4.7,.7-10.3,1.1-14.9,1.1-1.7,0-2.6-.1-3.8-.2l.2,3.3m29.4-13.4c1.5,1.5,4,5.1,5.3,7.8l2.5-1.5c-1.6-2.9-3-5-5.4-7.6l-2.4,1.3m5.6-2.9c2,2.2,4.2,5.4,5.3,7.7l2.5-1.5c-1.8-3.1-3.1-5-5.4-7.7l-2.4,1.5"/><path class="cls-5" d="M1309.4,431.99c.1,.9,.1,1,.2,2.9,.2,12.3,.9,18.7,2.7,23.5,1.7,4.8,4.3,7.6,7.1,7.6,3.6,0,5.8-3.4,8.3-12.1-1.4-1.1-1.8-1.5-3-2.8-.6,3.4-1.4,6-2.6,8.5-.8,1.7-1.6,2.5-2.5,2.5-1.9,0-3.9-3.5-5-8.5-.8-3.2-1.3-10-1.3-15.5,0-2.8,.1-4.4,.3-6l-4.2-.1m25.2,4.3c5.9,6.8,9.5,15.3,10.4,24.6l3.6-1.5c-.9-5.6-1.8-9.1-3.8-13.3-1.8-4.2-3.9-7.5-7.2-11.4l-3,1.6"/><path class="cls-5" d="M1347.3,517.39c-.6-.4-.9-.6-1.7-1.2-5.2-3.8-9.6-6.1-13.9-7.3q-.2-4.9-.3-7.7c3.7-.2,7.7-.6,11.1-1.2,1.8-.2,2.2-.3,2.9-.3l-.2-3.5c-2.8,1-7.1,1.5-13.9,2q0-2.6-.1-6.8c5.6-.3,6.9-.5,11.6-1.2q2.6-.4,3.5-.4l-.2-3.4c-2.8,.9-7.9,1.6-14.8,2.1,.1-3.6,.2-6,.3-7.1h-3.8q.2,1.1,.2,7.2h-4.3c-5.4,0-10.7-.4-12.8-1v3.4h1.6c4.5,.3,8.6,.5,12.2,.5h3.4l.1,6.8h-4.4c-5.1,0-9.2-.3-11.4-.8l-.1,3.3h.4c.3,0,.7,0,1.2,.1,3.1,.2,5.4,.3,8.4,.3,1.6,0,4.1,0,5.9-.1,.1,1.3,.1,2.2,.1,2.9,.1,1.5,.1,2.5,.1,3,0,.3,.1,.5,.1,.5q0,.5,.1,.6c-2.2-.4-2.9-.4-4.5-.4-2.2,0-3.7,.2-5.2,.5-4.4,1-7,3.6-7,6.9,0,2,1,4,2.7,5.2,1.7,1.3,4.4,2,7.8,2,3.9,0,7-1.1,8.4-3.2,.9-1.2,1.2-2.8,1.2-5.5q0-.6-.1-1.8c1.3,.5,2.5,1,3.3,1.5,4.2,2.2,7.9,4.8,10.2,7.2l1.9-3.1m-18.9-4.1c0,2.4-.3,3.8-1,4.5-.9,1.1-2.8,1.7-5.5,1.7-4.3,0-6.8-1.5-6.8-4.2s3.2-4.4,8.2-4.4c2.2,0,3.2,.1,5.1,.5v1.9"/><path class="cls-5" d="M1313.4,536.29c.2,1,.2,1.6,.2,2.6,0,.8,0,1.8-.1,3.2-.4,15.8-.4,17-.4,20.4,0,5.2,.7,7.9,2.8,10.2,2,2.3,5.2,3.5,9.4,3.5,5.8,0,10.5-2.1,14.1-6.2,2.2-2.6,3.7-5.5,5.5-11.4-1.6-.8-2.2-1.2-3.6-2.4-.7,3.5-1.3,5.4-2.4,7.8-2.8,5.7-7.5,8.7-13.4,8.7-2.6,0-4.8-.7-6.2-2-1.5-1.3-2.2-3-2.3-6-.1-1.2-.1-2.4-.1-3,0-2.2,.1-9,.3-15,.2-6.3,.3-8.9,.7-10.5h-4.5"/><path class="cls-5" d="M1436.5,428.49c.2,1,.2,1.6,.2,2.7v3.2c-.4,15.8-.5,17-.5,20.3,0,5.2,.7,7.9,2.8,10.2,2,2.3,5.2,3.5,9.4,3.5,5.8,0,10.6-2,14.1-6.2,2.2-2.5,3.7-5.5,5.6-11.3-1.6-.8-2.2-1.2-3.6-2.4-.7,3.5-1.3,5.5-2.5,7.9-2.8,5.7-7.4,8.7-13.4,8.7-2.6,0-4.8-.7-6.2-2-1.5-1.4-2.1-3-2.3-6,0-1.2-.1-2.4-.1-3,0-2.2,.2-9,.3-15,.2-6.3,.3-8.9,.7-10.6h-4.5"/><path class="cls-5" d="M1454.8,488.09c-3.4,.1-7.3,.2-12.1,.4q-8,.3-9.5,.3h-2l.2,3.7c3.3-.6,13.4-1.1,23.5-1.2v2.6c0,.6,.1,1.1,.1,1.3v2.8c-1.3-1.5-3.4-2.2-5.8-2.2-5.1,0-8.9,3.5-8.9,8.2s3.4,7.9,8.2,7.9c2.7,0,4.8-.9,6.3-2.7,.6-.7,.9-1.2,1.4-2.5-.2,4.5-2,7.8-5.6,10.5-2,1.5-4.2,2.5-8.1,3.8,1.1,1.1,1.3,1.6,2.2,3.2,3.6-1.4,5.8-2.5,7.9-4,4.3-3.2,6.7-7.9,6.7-13,0-2.2-.3-3.8-1.2-5.9v-9.9c4.1-.1,4.6-.1,5.4-.1,5.9,0,7.7,0,9.5,.2v-3.5c-1.7,.2-5.5,.3-14.9,.3v-.5c0-3.9,0-4.7,.2-6.2h-3.8c.2,1,.2,1.6,.2,2.9l.1,3.6m-.2,14.6c0,3.5-2.4,5.9-5.9,5.9-3,0-5.1-2-5.1-4.9s2.4-5.2,5.5-5.2c1.3,0,2.4,.2,3.3,.8,1.6,.7,2.2,1.7,2.2,3.4"/><path class="cls-5" d="M1445,541.69c-5.1,0-8.9-.2-10.7-.5l-.1,3.5c.6-.1,.7-.1,1.1-.1h.8c1.8,.1,6.6,.2,7.3,.2,.2,0,.8,0,1-.1q-.3,.5-.5,.8c-3.6,6.4-7.8,11.6-11.2,14.3l2.8,2.8c.8-1.3,1.9-2.5,3.8-4.2,4-3.4,8-5.3,11.2-5.3,2.3,0,3.5,1.2,3.9,4-3.3,1.5-5.8,2.8-7.4,4-3.4,2.5-5.1,5.2-5.1,7.9,0,5.1,4.4,7.7,13.3,7.7,3.8,0,8.2-.3,12.2-1,1-.1,1.2-.2,2-.2l-.5-3.8c-2.8,1.2-8.4,2-13.3,2-7,0-10.2-1.5-10.2-4.8,0-3,2.6-5.4,9.4-8.5,.1,.6,.1,.7,.1,1.5,0,3-.2,6.1-.3,7.2h3.4c-.1-.7-.1-1.1-.1-1.8v-2.2c.1-1,.1-2.1,.1-2.8,0-1.2,0-1.8-.1-3,6.2-2.5,10.8-4,13.3-4.4l-1.6-3.5c-.8,.5-1,.6-3.4,1.5-2.2,.8-5.1,1.8-8.7,3.3-.7-3.7-2.9-5.5-6.6-5.5-2.6,0-5.2,.8-7.5,2.5q-.5,.3-2.3,1.8l-.1-.2h.1s.3-.2,.6-.5c.2-.2,1.2-1.3,1.7-1.9,1.8-2.1,3-4.1,4.5-7.1,6-.2,11.3-.6,16.5-1.3,.9-.2,1.2-.2,2-.2l-.3-3.4c-2.8,.9-7.8,1.5-15.8,1.9h-1c.2-.5,.9-1.8,1.5-3.4q.8-2,1.3-2.7l-4-.7c-.2,1.6-.8,3.3-2.4,6.8h-.7"/><path class="cls-5" d="M1673.4,443.39c1.3-.3,1.8-.5,2.9-.6,.4-.1,2.8-.5,7.1-1.2-1.6,6.5-3.1,10.8-5.5,15.8-1.8,3.8-3.6,7.1-5.2,9.1l3.4,2c1.5-2.8,2.6-4.8,3.2-6,3.4-6.9,5.7-13.3,7.5-21.2,1.9-.2,2.5-.2,3.6-.2,4.6,0,6.1,1.7,6.1,7,0,5.6-.8,10.7-2.1,13.9-.7,1.6-1.6,2.4-2.8,2.4-1.8,0-4.6-.8-7.4-2.3,.1,.9,.1,1.2,.1,2,0,.6,0,1-.1,1.8,3.3,1.4,5.4,2,7.6,2s3.7-.7,4.9-2.4c2-2.9,3.3-9.5,3.3-17.2,0-4.1-.7-6.4-2.5-8-1.5-1.5-3.6-2.1-7.2-2.1-1.2,0-1.8,0-2.9,.1,.4-2.4,.8-4.2,1-5.7,.5-2.9,.6-3.7,1-4.8l-4-.4v.6c0,2.1-.7,6.9-1.5,10.6-4.1,.6-9.2,1.2-11.1,1.3l.6,3.5m29.5-6.6c4.8,5,8.3,11,10.2,18l3.2-1.9c-2.4-7-5.4-12.2-10.5-17.7l-2.9,1.6"/><path class="cls-5" d="M1676.4,492.49h1.8c2.9,.2,5.1,.3,8.3,.4-1.7,5.9-4.5,12.9-6.7,16.3l3.6,1.5c1-1.3,2.2-2.2,4.2-3.2,3.4-1.7,7.8-2.7,11.6-2.7,6,0,9.6,2.3,9.6,6.1,0,4.8-5.2,8-13.1,8-4.6,0-8.6-.8-12.5-2.5,.2,1.6,.2,2.5,.2,2.8v.3c0,.2,0,.5-.1,.8,4,1.3,7.9,1.9,12.3,1.9,10.1,0,16.8-4.4,16.8-11.2,0-5.6-5-9.2-12.9-9.2-5.4,0-11.1,1.6-14.6,4.2v-.1c1.4-2.3,3.6-8,5-12.8,7.5-.2,11.5-.6,18.5-1.5,1.1-.2,1.4-.2,2.2-.2l-.2-3.6c-3.2,1.1-9.9,1.8-19.7,2.2,.5-1.8,.7-2.4,1.4-5.3q.5-2.5,.8-3.2l-4-.4c0,2.2-.5,5.1-1.6,9-5.2,0-8.4-.2-10.8-.8l-.1,3.2"/><path class="cls-5" d="M1686.5,549.49h.2c.1,0,.2,0,.5,.1h.8c.2,0,.8,0,1.6,.1,1.8,.1,3.6,.2,5.7,.2,1.9,0,3.4,0,5.7-.2,.2,7.3,.3,12,.5,13-1.2-.6-3.5-1-5.5-1-5.6,0-9.5,3-9.5,7.1s3.6,7.1,9.4,7.1c4.1,0,7.2-1.5,8.3-4.2,.4-.9,.6-2.1,.6-3.4q0-.5-.1-1.3,.2,.1,.5,.3t.5,.3c3.5,2,5.5,3.5,7.1,5.2l1.5-3.5c-.5-.4-.6-.5-1.2-.9-3.3-2.4-4.7-3.2-8.3-4.9-.4-6.7-.5-9.2-.5-14.2,2.6-.3,4-.5,5.3-.8q3.4-.7,3.5-.7l-.2-3.4c-1.9,.8-4.8,1.4-8.6,1.8-.1-1.1-.1-1.9-.1-2.5,0-4.1,.1-6.5,.3-7.8h-3.8c.1,.5,.2,1.2,.2,2q0,3.8,.1,8.5c-2.1,.1-3.4,.2-5.4,.2-4.4,0-6.5-.2-9-.8l-.1,3.7m15.1,16.3v1.5c0,1.9-.3,3.1-.9,3.9-.9,1.1-2.9,1.8-5.1,1.8-3.5,0-5.8-1.6-5.8-4s2.6-4.2,6.5-4.2c1.9,0,3.2,.2,5.3,1m-23.9-29.7c-.1,.6-.1,.9-.6,3.1-1.9,8.7-2.6,13.9-2.6,20.5,0,5.1,.5,10.2,1.4,14.9,.2,1.1,.2,1.4,.3,1.8l3.5-.3c-.1-.7-.1-.8-.1-1,0-3,1.9-9.3,4.3-14.2l-2.5-1.2c-.1,.4-.2,.6-.4,1-1.7,4.1-2,5.1-2.9,8.8l-.2-.1v-.9c-.1-.9-.1-1-.1-1.4-.1-2.3-.2-5.2-.2-7,0-8.2,1.7-18.5,3.8-23.5l-3.7-.5"/><path class="cls-5" d="M1869.8,434.29c2.5,.1,3.9,.5,5.8,1.2,5,2.2,7.9,6.8,7.9,12.5,0,6.2-3.3,11.5-8.8,14-2.3,1.1-4.7,1.8-8.3,2.3,.9,1.2,1.2,1.7,1.8,3.4,3.4-.8,5.3-1.4,7.6-2.3,7.2-3.1,11.4-9.5,11.4-17.2,0-4.8-1.7-9.2-4.8-12.2-3.2-3.2-8.2-5-13.8-5-6.7,0-12.2,2.2-16.2,6.7-3.3,3.8-5.2,8.7-5.2,13.8,0,7,3.6,12.2,8.3,12.2,3.6,0,6.5-3,9.4-9.6,2.3-5.2,4.2-12.8,4.9-19.8m-3.6,.1c-.7,6.4-2.5,13.8-4.6,18.5-2.2,4.9-4.2,7.2-6.2,7.2-2.7,0-4.8-3.7-4.8-8.5,0-6.2,3.1-11.8,8.1-14.9,2.4-1.4,4.5-2.1,7.5-2.3"/><path class="cls-5" d="M1849.1,492.49h1.8c2.9,.2,5.1,.3,8.3,.4-1.7,5.9-4.6,12.9-6.7,16.3l3.6,1.5c1-1.3,2.2-2.2,4.2-3.2,3.4-1.7,7.8-2.7,11.6-2.7,6,0,9.6,2.3,9.6,6.1,0,4.8-5.2,8-13.1,8-4.6,0-8.6-.8-12.5-2.5,.2,1.6,.2,2.5,.2,2.8v.3c0,.2,0,.5-.1,.8,4,1.3,7.9,1.9,12.4,1.9,10.1,0,16.8-4.4,16.8-11.2,0-5.6-5.1-9.2-13-9.2-5.4,0-11,1.6-14.5,4.2l-.1-.1c1.4-2.3,3.6-8,5-12.8,7.6-.2,11.6-.6,18.6-1.5,1-.2,1.3-.2,2.2-.2l-.2-3.6c-3.2,1.1-9.9,1.8-19.7,2.2,.5-1.8,.6-2.4,1.3-5.3q.5-2.5,.8-3.2l-4-.4c0,2.2-.5,5.1-1.6,9-5.2,0-8.4-.2-10.8-.8l-.1,3.2"/><path class="cls-5" d="M1847.7,547.39h1c1.9,.1,2.4,.1,4.2,.1h3.4c-1.8,9.8-5.7,21.2-9.4,27.7l3.7,1.5c2.7-6.1,4.1-9.9,5.8-15.2,1.3-4.5,2.8-10.2,3.5-14.2,2.4-.2,5.9-.6,8.4-1.2q1-.2,1.4-.2l-.2-3.4c-2.4,.8-5.1,1.3-9,1.7,.2-1.5,.4-2.2,.7-3.8q.6-3.5,.9-4.8l-4-.4c0,2.2-.1,3-1.1,9.2-1.4,.1-2,.1-3,.1-2.7,0-4.7-.2-6.2-.5v3.4m37.6,2.5c-3.8-.2-4.5-.2-5.4-.2-4.2,0-7.5,.4-13.2,1.7l.3,3.4c4.6-1.2,8.1-1.7,12.5-1.7,2.1,0,3.5,.1,5.9,.3l-.1-3.5m-18.2,10.8c-2.7,3.4-3.3,5-3.3,7.2,0,5,4.2,7.5,12.4,7.5,2.7,0,5.6-.2,8.9-.9q1.6-.2,2.2-.3l-.4-3.8c-2.8,1-7.3,1.7-11,1.7-5.7,0-8.8-1.6-8.8-4.6,0-1.2,.5-2.5,1.2-3.5,.4-.5,.5-.7,1.5-1.9l-2.7-1.4"/><path class="cls-5" d="M2025.2,430.39c.9,1.6,2.1,4.5,3.6,9.5-.8,.2-1.3,.4-2.6,.8q-5.9,2.1-7.4,2.4l1.3,3.5c1.4-.8,4-1.8,6.9-2.8q2.2-.7,2.7-.9c3.2,10.9,6.1,22.9,6.3,27l4-.9c-.3-.9-.4-1.1-.6-2.2-2.1-9.4-3.9-16.5-6.4-25,7.2-2.3,12.6-3.5,16.3-3.5,5,0,8,2.2,8,6,0,2.2-.8,3.9-2.4,5.1-1.6,1.2-3.8,2-6,2-2.9,0-5.8-.8-8.4-2.3,.2,2,.3,2.2,.3,2.9,0,.1,0,.5-.1,.9,2.9,1.2,5.6,1.9,8.4,1.9,6.9,0,11.8-4.3,11.8-10.3,0-5.6-4.3-9.2-11-9.2-1.2,0-2.4,.1-3.8,.3-.1-.6-.1-1.5-.1-1.6,0-3.9,.1-5.5,.2-6.8h-3.8c.2,1.2,.2,1.7,.2,8.8q-3.8,.8-10.8,2.8c-.7-2.2-1.2-3.6-2.2-6.6-.6-1.5-.7-2-.9-3l-3.5,1.2"/><path class="cls-5" d="M2032,495.59h.2c.1,0,.2,0,.5,.1h.9c.2,0,.8,0,1.6,.1,1.8,.1,3.6,.2,5.7,.2,1.9,0,3.4,0,5.7-.2,.1,7.3,.3,12,.5,13-1.2-.6-3.5-1-5.6-1-5.6,0-9.5,3-9.5,7.1s3.6,7.1,9.4,7.1c4.1,0,7.2-1.5,8.4-4.2,.4-.9,.6-2.1,.6-3.4q0-.5-.1-1.3,.2,.1,.4,.3t.5,.3c3.6,2,5.6,3.5,7.1,5.2l1.5-3.5c-.5-.4-.6-.5-1.2-.9-3.3-2.4-4.7-3.2-8.3-4.9-.4-6.7-.5-9.2-.6-14.2,2.6-.3,4-.5,5.3-.8q3.4-.7,3.5-.7l-.2-3.4c-1.9,.8-4.8,1.4-8.6,1.8-.1-1.1-.1-1.9-.1-2.5,0-4.1,.1-6.5,.4-7.8h-3.8c.1,.5,.1,1.2,.1,2q0,3.8,.1,8.5c-2.1,.1-3.4,.2-5.4,.2-4.4,0-6.5-.2-9-.8v3.7m15,16.3v1.5c0,1.9-.3,3.1-.9,3.9-.9,1.1-2.9,1.8-5.1,1.8-3.5,0-5.8-1.6-5.8-4s2.6-4.2,6.4-4.2c2.1-.1,3.4,.2,5.4,1m-23.9-29.8c-.1,.6-.1,.9-.6,3.1-1.9,8.7-2.6,13.9-2.6,20.5,0,5.1,.5,10.2,1.4,14.9,.2,1.1,.2,1.4,.3,1.8l3.6-.3c-.1-.7-.1-.8-.1-1,0-3,1.9-9.3,4.3-14.2l-2.4-1.2c-.1,.4-.2,.6-.4,1-1.7,4.1-2,5.1-2.9,8.8l-.2-.1v-.9c-.1-.9-.1-1-.1-1.4-.1-2.3-.2-5.2-.2-7,0-8.2,1.7-18.5,3.9-23.5l-4-.5"/><path class="cls-5" d="M2024.3,536.29c.1,1,.2,1.6,.2,2.6,0,.8,0,1.8-.1,3.2-.4,15.8-.4,17-.4,20.4,0,5.2,.7,7.9,2.8,10.2,2,2.3,5.1,3.5,9.4,3.5,5.9,0,10.6-2.1,14.1-6.2,2.2-2.6,3.6-5.5,5.6-11.4-1.6-.8-2.2-1.2-3.6-2.4-.7,3.5-1.3,5.4-2.4,7.8-2.9,5.7-7.4,8.7-13.4,8.7-2.6,0-4.8-.7-6.2-2-1.5-1.3-2.1-3-2.3-6-.1-1.2-.1-2.4-.1-3,0-2.2,.2-9,.4-15,.1-6.3,.3-8.9,.6-10.5h-4.6"/><path class="cls-5" d="M2276.3,463.49c-.7-.4-.9-.5-1.7-1.1-5.2-3.8-9.6-6.1-13.9-7.3q-.2-4.9-.3-7.7c3.7-.2,7.7-.7,11.1-1.2,1.8-.2,2.2-.3,2.9-.3l-.2-3.5c-2.8,1-7.1,1.5-13.8,2q-.1-2.6-.1-6.8c5.6-.3,6.9-.5,11.6-1.2q2.6-.3,3.4-.4l-.2-3.4c-2.8,.9-7.9,1.6-14.8,2,.1-3.6,.1-6,.4-7h-3.9q.2,1.1,.2,7.2h-4.4c-5.4,0-10.6-.4-12.8-1l-.1,3.4h1.6c4.5,.3,8.6,.5,12.2,.5h3.4l.1,6.8h-4.5c-5,0-9.2-.3-11.4-.8l-.1,3.3h1.6c3.1,.2,5.4,.4,8.4,.4,1.6,0,4.1,0,5.9-.1,.1,1.3,.1,2.2,.1,2.9,.1,1.5,.1,2.5,.1,3v.5q0,.5,.1,.6c-2.1-.3-2.8-.4-4.5-.4-2.2,0-3.7,.1-5.2,.5-4.4,1-7,3.6-7,6.9,0,2.1,1,4,2.7,5.2,1.7,1.3,4.4,2,7.8,2,3.9,0,7-1.1,8.4-3.1,.9-1.2,1.2-2.8,1.2-5.5q0-.7-.1-1.8c1.3,.5,2.5,1,3.3,1.5,4.2,2.2,7.9,4.8,10.2,7.1l2.3-3.2m-18.8-4.1c0,2.4-.3,3.8-1,4.5-.9,1.1-2.9,1.7-5.5,1.7-4.4,0-6.9-1.5-6.9-4.2s3.2-4.5,8.2-4.5c2.2,0,3.2,.1,5.1,.6l.1,1.9"/><path class="cls-5" d="M2250.1,495.59h.2c.1,0,.2,0,.5,.1h.8c.2,0,.8,0,1.6,.1,1.8,.1,3.6,.2,5.6,.2s3.4,0,5.7-.2c.2,7.3,.4,12,.5,13-1.1-.6-3.5-1-5.5-1-5.6,0-9.5,3-9.5,7.1s3.6,7.1,9.4,7.1c4.1,0,7.1-1.5,8.3-4.2,.4-.9,.6-2.1,.6-3.4q0-.5-.1-1.3,.2,.1,.5,.3t.5,.3c3.5,2,5.5,3.5,7.1,5.2l1.6-3.5c-.6-.4-.6-.5-1.2-.9-3.3-2.4-4.7-3.2-8.4-4.9-.4-6.7-.5-9.2-.5-14.2,2.6-.3,4-.5,5.3-.8q3.4-.7,3.5-.7l-.1-3.4c-1.9,.8-4.8,1.4-8.6,1.8-.1-1.1-.1-1.9-.1-2.5,0-4.1,.1-6.5,.3-7.8h-3.8c.1,.5,.2,1.2,.2,2q0,3.8,.1,8.5c-2.1,.1-3.4,.2-5.4,.2-4.4,0-6.6-.2-9-.8l-.1,3.7m15,16.3s.1,1.1,.1,1.5c0,1.9-.3,3.1-.9,3.9-.9,1.1-2.9,1.8-5.1,1.8-3.5,0-5.8-1.6-5.8-4s2.6-4.2,6.5-4.2c1.9-.1,3.2,.2,5.2,1m-23.8-29.8c-.1,.6-.1,.9-.6,3.1-1.9,8.7-2.6,13.9-2.6,20.5,0,5.1,.5,10.2,1.4,14.9,.2,1.1,.2,1.4,.3,1.8l3.5-.3c-.1-.7-.1-.8-.1-1,0-3,1.9-9.3,4.3-14.2l-2.5-1.2c-.1,.4-.2,.6-.4,1-1.7,4.1-2.1,5.1-2.9,8.8l-.2-.1v-.9c-.1-.9-.1-1-.1-1.4-.1-2.3-.2-5.2-.2-7,0-8.2,1.7-18.5,3.8-23.5l-3.7-.5"/><path class="cls-5" d="M2238.6,546.29c2.4-.5,6.9-.9,17.2-1.6,5.6-.4,8.1-.6,11-1.1-1.9,.9-3.2,1.6-4.8,2.7-5.9,4-9.3,9.5-9.3,15.3,0,4.1,2,7.8,5.5,10.2,2.9,2,5.9,3,10.8,3.9,.8,.1,1,.2,1.6,.3l.6-4h-.5c-1.9,0-5-.7-7.5-1.6-4.4-1.7-7-5-7-9.2s2.2-8.2,6.2-11.5c2.8-2.3,6.2-4.2,9.6-5,1.9-.5,3.6-.7,5.6-.7l-.3-3.8c-.8,.2-3.1,.5-5.9,.5-6.4,.3-22.4,1.2-28.4,1.7-1.6,.1-2.2,.2-2.9,.2h-1.8l.3,3.7"/><path class="cls-5" d="M461,166.59h-3.3v45c-1.1-.7-2.5-1.1-4.1-1.3-.4,0-.9-.1-1.3-.1-2.7,0-5.7,.8-8.4,2.3-3.2,1.7-5.7,4.2-7.2,6.9-1.4,2.8-1.6,5.5-.4,7.6,1.4,2.6,4.4,3.9,8,3.9,2.6,0,5.6-.7,8.4-2.2,5.1-2.8,8.4-7.4,8.4-11.4v-50.7"/><path class="cls-5" d="M483.3,218.89h30.2v-6.9h-30.2v6.9m0-12.4h30.2v-6.9h-30.2v6.9m74.7-6.7c1.7-.7,2.6-1.1,3.4-1.7,2.3-1.6,3.7-4.1,3.7-6.9,0-5.5-5.2-9.2-13-9.2-9.3,0-15.3,5-15.3,12.8,0,4.7,2.2,8.2,7,10.7-1.9,.6-2.6,.8-3.7,1.4-3,1.6-4.6,4.3-4.6,7.8,0,6.5,5.8,10.6,14.9,10.6,9.7,0,16.2-5.5,16.2-13.7,0-5.7-2.8-9.4-8.6-11.8m-3.4-1.3c-2.5-.6-4.4-1.1-5.5-1.6-2.8-1-4.6-3.5-4.6-6.1,0-3.3,2.8-5.8,6.5-5.8,4,0,6.5,2.6,6.5,6.8,.1,2.8-1,5.1-2.9,6.7m-7.7,8.6c2.5,.7,5.5,1.6,7,2,3.8,1.3,5.2,2.9,5.2,6,0,4.1-3.4,7-8.1,7s-7.8-2.9-7.8-7.7c0-3.1,1-5.2,3.7-7.3m26.3-5.5c-1.4,1.4-1.6,1.7-1.6,2.7,0,1.3,1,2.2,2.2,2.2,1.3,0,2.5-1.1,2.5-2.4,0-.2-.1-.6-.1-1,1.9-1.5,4.1-2.3,6.7-2.3,4.5,0,6.8,3.3,6.8,9.8,0,7.3-2.6,11.2-7.4,11.2-2.7,0-5.3-1.3-5.3-2.5,0-.4,.2-.5,.7-.8,2.4-1.1,3.2-2.3,3.2-4.3,0-3-2-4.9-5.1-4.9-3.5,0-5.8,2.4-5.8,6.1,0,6,5.4,9.9,13.7,9.9,9.8,0,16.6-6,16.6-14.9,0-7.8-6.3-13.6-14.9-13.6-2.8,0-4.6,.5-8.6,2.3l.9-7.7c2.9,.6,5.2,.9,7.6,.9,5,0,9.1-1.7,11.3-4.6,1.1-1.5,2-3.7,2-5,0-.4-.2-.7-.5-.7-.2,0-.6,.1-1,.2-2.2,.5-6.1,.8-10.9,.8s-8-.2-11.7-1c-.3,5-.3,5.5-1,15.4l-.3,4.2"/><path class="cls-5" d="M1117.4,1133.49c0,2.7,2.2,5,5,5s5-2.2,5-5-2.2-5-5-5-5,2.3-5,5"/><path class="cls-5" d="M1117.4,877.09c0,2.7,2.2,5,5,5s5-2.2,5-5-2.2-5-5-5-5,2.2-5,5"/><path class="cls-5" d="M1117.4,744.59c0,2.7,2.2,5,5,5s5-2.2,5-5-2.2-5-5-5c-2.8,.1-5,2.3-5,5"/><path class="cls-5" d="M1117.4,335.99c0,2.7,2.2,5,5,5s5-2.2,5-5-2.2-5-5-5c-2.8,.1-5,2.3-5,5"/><line class="cls-3" x1="263.1" y1="256.19" x2="263.1" y2="1188.59"/><path class="cls-5" d="M305.7,234.09c-.2-.1-.5-.2-.7-.2-.4,0-.9,.1-1.1,.5-.2,.3-10.1,15.6-29.1,15.6h-15.8c-.8,0-1.4,.5-1.4,1.3v10.3h12.1c30.6,0,36.4-25.5,36.5-25.8,0-.1,.1-.3,.1-.5,.1-.5-.2-.9-.6-1.2"/><path class="cls-5" d="M305.7,1210.59c.4-.3,.7-.7,.7-1.2,0-.2-.1-.4-.1-.5-.1-.3-6-25.8-36.5-25.8h-12.1v10.3c0,.8,.6,1.3,1.4,1.3h15.8c18.9,0,28.9,15.3,29.1,15.6,.2,.4,.7,.5,1.1,.5,.1,0,.4-.1,.6-.2"/></g></svg>