<?xml version="1.0" encoding="utf-8"?>
<!-- Generator: Adobe Illustrator 26.5.0, SVG Export Plug-In . SVG Version: 6.00 Build 0)  -->
<svg version="1.1" id="レイヤー_1" xmlns="http://www.w3.org/2000/svg" xmlns:xlink="http://www.w3.org/1999/xlink" x="0px"
	 y="0px" viewBox="0 0 2560 920" style="enable-background:new 0 0 2560 920;" xml:space="preserve">
<style type="text/css">
	.st0{fill:none;stroke:#FFFFFF;stroke-width:2.73;stroke-linejoin:bevel;}
	.st1{fill:#FFFFFF;}
	.st2{fill:none;stroke:#FFFFFF;stroke-width:4.46;stroke-linejoin:bevel;}
	.st3{fill:none;stroke:#FFFFFF;stroke-width:13.64;stroke-linejoin:bevel;}
	.st4{fill:none;stroke:#FFFFFF;stroke-width:3.97;stroke-linejoin:bevel;}
	.st5{fill-rule:evenodd;clip-rule:evenodd;fill:#FFFFFF;}
	.st6{fill:none;stroke:#FFFFFF;stroke-width:10.91;stroke-linejoin:bevel;}
</style>
<g>
	<g>
		
			<image style="overflow:visible;" width="2624" height="900" xlink:href="E5E20A63C41FB741.png"  transform="matrix(1 0 0 1 -32.1845 56.5042)">
		</image>
	</g>
	<g>
		<line class="st0" x1="91.1" y1="132.8" x2="2555.6" y2="132.8"/>
		<line class="st0" x1="91.1" y1="157.6" x2="2555.6" y2="157.6"/>
		<line class="st0" x1="91.1" y1="182.4" x2="2555.6" y2="182.4"/>
		<line class="st0" x1="91.1" y1="207.2" x2="2555.6" y2="207.2"/>
		<line class="st0" x1="91.1" y1="232" x2="2555.6" y2="232"/>
		<line class="st0" x1="91.1" y1="507.9" x2="2555.6" y2="507.9"/>
		<line class="st0" x1="91.1" y1="532.7" x2="2555.6" y2="532.7"/>
		<line class="st0" x1="91.1" y1="557.5" x2="2555.6" y2="557.5"/>
		<line class="st0" x1="91.1" y1="582.3" x2="2555.6" y2="582.3"/>
		<line class="st0" x1="91.1" y1="607.1" x2="2555.6" y2="607.1"/>
		<line class="st0" x1="91.1" y1="780.7" x2="2555.6" y2="780.7"/>
		<line class="st0" x1="91.1" y1="805.5" x2="2555.6" y2="805.5"/>
		<line class="st0" x1="91.1" y1="830.3" x2="2555.6" y2="830.3"/>
		<line class="st0" x1="91.1" y1="855.1" x2="2555.6" y2="855.1"/>
		<line class="st0" x1="91.1" y1="879.9" x2="2555.6" y2="879.9"/>
		<path class="st1" d="M39.2,811.9h-30l-0.8,13.9h2.2c0.3-2.5,0.8-4.4,1.3-6c1.3-3.7,3.7-5.6,7.1-5.6c1.6,0,2.4,0.6,2.4,1.8v25.8
			c0,2.6,0,2.6-0.3,3.1c-0.4,0.5-1.4,0.7-4.2,0.7h-1.3v2.3h17.1v-2.3h-1.3c-2.8,0-3.8-0.2-4.1-0.7c-0.3-0.5-0.3-0.6-0.3-3.1v-25.8
			c0-1.2,0.7-1.8,2.4-1.8c3.1,0,5.5,1.7,6.8,4.7c0.8,1.8,1.2,4,1.6,6.8H40L39.2,811.9 M44.1,842.5c-1.8,0-3.1,1.4-3.1,3.1
			c0,1.8,1.4,3.2,3.1,3.2c1.8,0,3.1-1.4,3.1-3.2C47.2,843.9,45.8,842.5,44.1,842.5"/>
		<path class="st1" d="M23.7,538.7h-2.1l-11.5,29.1c-1.4,3.9-2.6,5.1-5.5,5.3H4.4v2.3h13.2v-2.3h-1c-2.7,0-4.1-0.9-4.1-2.9
			c0-0.6,0.1-1.2,0.4-2.1l1.7-4.4H28l2.7,6.7c0.3,0.8,0.4,1.1,0.4,1.4c0,0.8-1.2,1.3-3.1,1.3h-2.1v2.3h15.5v-2.3h-0.7
			c-2.6-0.1-3.1-0.4-4.2-3.2L23.7,538.7 M21.3,546.9l5.7,14.2H15.7L21.3,546.9 M48.3,570c-1.8,0-3.2,1.4-3.2,3.1
			c0,1.8,1.4,3.2,3.1,3.2c1.8,0,3.2-1.4,3.2-3.2C51.4,571.4,50,570,48.3,570"/>
		<path class="st1" d="M36.7,164.1h-1.8l-2,3c-2.4-2.2-5.6-3.4-9.1-3.4c-6.6,0-10.9,4.1-10.9,10.4c0,5.4,2.7,8.2,10.1,10.1l4.8,1.2
			c3.7,0.9,4,1.1,5.1,1.9c1.5,1.1,2.3,2.8,2.3,4.8c0,2-0.8,3.6-2.2,5.1c-1.6,1.4-3.3,1.9-6.1,1.9c-3.7,0-6.3-1.2-8.7-3.8
			c-2.1-2.3-3.1-4.7-3.9-8.6h-2.2l0.2,14.2h2l2.2-3.4c3.3,2.8,6.1,3.8,10.5,3.8c7.3,0,12-4.3,12-11c0-3.2-1-5.8-3-7.7
			c-1.3-1.3-3.3-2.1-7.3-3.1l-5.4-1.4c-4.4-1.1-6.6-3.1-6.6-6.1c0-3.5,2.9-5.9,7.1-5.9c3.5,0,6.3,1.5,8.3,4.4c1.5,2.1,2.4,4.1,3,6.7
			h2.2L36.7,164.1 M47.7,194.9c-1.8,0-3.1,1.4-3.1,3.1c0,1.8,1.4,3.2,3.1,3.2c1.8,0,3.1-1.4,3.1-3.2
			C50.8,196.3,49.4,194.9,47.7,194.9"/>
		<line class="st2" x1="93.4" y1="779.3" x2="93.4" y2="881.3"/>
		<line class="st2" x1="835.7" y1="779.3" x2="835.7" y2="881.3"/>
		<line class="st2" x1="1457.3" y1="779.3" x2="1457.3" y2="881.3"/>
		<line class="st2" x1="2063.3" y1="779.3" x2="2063.3" y2="881.3"/>
		<path class="st1" d="M2519.2,817.9c0-2.9-2.3-5.3-5.2-5.3s-5.2,2.4-5.2,5.3c0,2.9,2.3,5.3,5.2,5.3S2519.2,820.8,2519.2,817.9"/>
		<path class="st1" d="M2519.2,842.7c0-2.9-2.3-5.3-5.2-5.3s-5.2,2.4-5.2,5.3c0,2.9,2.3,5.3,5.2,5.3S2519.2,845.6,2519.2,842.7"/>
		<line class="st2" x1="2531.4" y1="779.3" x2="2531.4" y2="881.3"/>
		<line class="st3" x1="2548.7" y1="779.3" x2="2548.7" y2="881.3"/>
		<line class="st2" x1="93.4" y1="506.5" x2="93.4" y2="780.7"/>
		<line class="st2" x1="835.7" y1="506.5" x2="835.7" y2="608.4"/>
		<line class="st2" x1="1457.3" y1="506.5" x2="1457.3" y2="608.4"/>
		<line class="st2" x1="2063.3" y1="506.5" x2="2063.3" y2="608.4"/>
		<path class="st1" d="M2519.2,545.1c0-2.9-2.3-5.3-5.2-5.3s-5.2,2.4-5.2,5.3c0,2.9,2.3,5.3,5.2,5.3S2519.2,547.9,2519.2,545.1"/>
		<path class="st1" d="M2519.2,569.9c0-2.9-2.3-5.3-5.2-5.3s-5.2,2.4-5.2,5.3c0,2.9,2.3,5.3,5.2,5.3S2519.2,572.8,2519.2,569.9"/>
		<line class="st2" x1="2531.4" y1="506.5" x2="2531.4" y2="608.4"/>
		<line class="st3" x1="2548.7" y1="506.5" x2="2548.7" y2="608.4"/>
		<line class="st2" x1="93.4" y1="131.4" x2="93.4" y2="507.9"/>
		<line class="st2" x1="835.7" y1="131.4" x2="835.7" y2="233.4"/>
		<line class="st2" x1="1457.3" y1="131.4" x2="1457.3" y2="233.4"/>
		<line class="st2" x1="2063.3" y1="131.4" x2="2063.3" y2="233.4"/>
		<path class="st1" d="M2519.2,170c0-2.9-2.3-5.3-5.2-5.3s-5.2,2.4-5.2,5.3s2.3,5.3,5.2,5.3S2519.2,172.9,2519.2,170"/>
		<path class="st1" d="M2519.2,194.8c0-2.9-2.3-5.3-5.2-5.3s-5.2,2.4-5.2,5.3s2.3,5.3,5.2,5.3S2519.2,197.7,2519.2,194.8"/>
		<line class="st2" x1="2531.4" y1="131.4" x2="2531.4" y2="233.4"/>
		<line class="st3" x1="2548.7" y1="131.4" x2="2548.7" y2="233.4"/>
		<line class="st4" x1="2097.8" y1="755.9" x2="2147.4" y2="755.9"/>
		<line class="st4" x1="547.1" y1="631.9" x2="596.7" y2="631.9"/>
		<line class="st0" x1="244.7" y1="796.4" x2="244.7" y2="879.9"/>
		<line class="st0" x1="383.5" y1="784" x2="383.5" y2="855.1"/>
		<line class="st0" x1="470.3" y1="796.4" x2="470.3" y2="861.3"/>
		<line class="st0" x1="557.1" y1="821.2" x2="557.1" y2="898.5"/>
		<line class="st0" x1="725.5" y1="839.5" x2="725.5" y2="762.1"/>
		<line class="st0" x1="876" y1="808.8" x2="876" y2="889.2"/>
		<line class="st0" x1="1012.5" y1="808.8" x2="1012.5" y2="879.9"/>
		<line class="st0" x1="1097.9" y1="808.8" x2="1097.9" y2="879.9"/>
		<line class="st0" x1="1183.3" y1="784" x2="1183.3" y2="867.5"/>
		<line class="st0" x1="1319.8" y1="784" x2="1319.8" y2="867.5"/>
		<line class="st0" x1="1500.1" y1="796.4" x2="1500.1" y2="879.9"/>
		<line class="st0" x1="1644.3" y1="796.4" x2="1644.3" y2="879.9"/>
		<line class="st0" x1="1788.5" y1="771.6" x2="1788.5" y2="855.1"/>
		<line class="st0" x1="1964.4" y1="771.6" x2="1964.4" y2="855.1"/>
		<line class="st0" x1="2107.9" y1="759.2" x2="2107.9" y2="842.7"/>
		<line class="st0" x1="274.2" y1="603.9" x2="274.2" y2="520.3"/>
		<line class="st0" x1="413.1" y1="591.5" x2="413.1" y2="526.5"/>
		<line class="st0" x1="499.8" y1="603.9" x2="499.8" y2="532.7"/>
		<line class="st0" x1="586.6" y1="628.7" x2="586.6" y2="545.1"/>
		<line class="st0" x1="725.5" y1="603.9" x2="725.5" y2="520.3"/>
		<line class="st0" x1="905.5" y1="566.7" x2="905.5" y2="489.3"/>
		<line class="st0" x1="1042" y1="566.7" x2="1042" y2="501.7"/>
		<line class="st0" x1="1127.4" y1="566.7" x2="1127.4" y2="501.7"/>
		<line class="st0" x1="1212.8" y1="591.5" x2="1212.8" y2="507.9"/>
		<line class="st0" x1="1349.3" y1="566.7" x2="1349.3" y2="489.3"/>
		<line class="st0" x1="1529.6" y1="579.1" x2="1529.6" y2="498.6"/>
		<line class="st0" x1="1673.8" y1="579.1" x2="1673.8" y2="498.6"/>
		<line class="st0" x1="1818" y1="591.5" x2="1818" y2="507.9"/>
		<line class="st0" x1="1993.9" y1="591.5" x2="1993.9" y2="507.9"/>
		<line class="st0" x1="2137.4" y1="603.9" x2="2137.4" y2="520.3"/>
		<line class="st0" x1="274.2" y1="204" x2="274.2" y2="123.5"/>
		<line class="st0" x1="413.1" y1="191.6" x2="413.1" y2="126.6"/>
		<line class="st0" x1="499.8" y1="204" x2="499.8" y2="132.8"/>
		<line class="st0" x1="586.6" y1="228.8" x2="586.6" y2="145.2"/>
		<line class="st0" x1="725.5" y1="204" x2="725.5" y2="123.5"/>
		<line class="st0" x1="876" y1="173.3" x2="876" y2="250.6"/>
		<line class="st0" x1="1012.5" y1="160.9" x2="1012.5" y2="232"/>
		<line class="st0" x1="1097.9" y1="173.3" x2="1097.9" y2="238.2"/>
		<line class="st0" x1="1212.8" y1="191.6" x2="1212.8" y2="114.2"/>
		<line class="st0" x1="1319.8" y1="173.3" x2="1319.8" y2="250.6"/>
		<line class="st0" x1="1529.6" y1="204" x2="1529.6" y2="123.5"/>
		<line class="st0" x1="1644.3" y1="148.5" x2="1644.3" y2="232"/>
		<line class="st0" x1="1788.5" y1="160.9" x2="1788.5" y2="241.3"/>
		<line class="st0" x1="1993.9" y1="204" x2="1993.9" y2="123.5"/>
		<line class="st0" x1="2107.9" y1="173.3" x2="2107.9" y2="250.6"/>
		<path class="st1" d="M274.6,785.1c-1.8-3.3-5.6-5.1-10.1-5.1c-3.4,0-7,1-10.6,2.9c-6.5,3.5-10.5,9.3-10.5,14.4
			c0,1.4,0.3,2.8,1,4.1c1.8,3.3,5.6,5,10.1,5c3.4,0,7-0.9,10.6-2.8c6.5-3.5,10.5-9.3,10.5-14.4C275.6,787.8,275.3,786.4,274.6,785.1
			"/>
		<path class="st1" d="M413.4,772.7c-1.8-3.3-5.6-5.1-10.1-5.1c-3.4,0-7,1-10.6,2.9c-6.5,3.5-10.5,9.3-10.5,14.4
			c0,1.4,0.3,2.8,1,4.1c1.8,3.3,5.6,5,10.1,5c3.4,0,7-0.9,10.6-2.8c6.5-3.5,10.5-9.3,10.5-14.4C414.4,775.3,414.1,774,413.4,772.7"
			/>
		<path class="st1" d="M500.2,785.1c-1.8-3.3-5.6-5.1-10.1-5.1c-3.4,0-7,1-10.6,2.9c-6.5,3.5-10.5,9.3-10.5,14.4
			c0,1.4,0.3,2.8,1,4.1c1.8,3.3,5.6,5,10.1,5c3.4,0,7-0.9,10.6-2.8c6.5-3.5,10.5-9.3,10.5-14.4C501.2,787.8,500.9,786.4,500.2,785.1
			"/>
		<path class="st1" d="M587,809.9c-1.8-3.3-5.6-5.1-10.1-5.1c-3.4,0-7,1-10.6,2.9c-6.5,3.5-10.5,9.3-10.5,14.4c0,1.4,0.3,2.8,1,4.1
			c1.8,3.3,5.6,5,10.1,5c3.4,0,7-0.9,10.6-2.8c6.5-3.5,10.5-9.3,10.5-14.4C588,812.6,587.7,811.2,587,809.9"/>
		<path class="st1" d="M725.9,834.7c-1.8-3.3-5.6-5.1-10.1-5.1c-3.4,0-7,1-10.6,2.9c-6.5,3.5-10.5,9.3-10.5,14.4
			c0,1.4,0.3,2.8,1,4.1c1.8,3.3,5.6,5,10.1,5c3.4,0,7-0.9,10.6-2.8c6.5-3.5,10.5-9.3,10.5-14.4C726.9,837.4,726.6,836,725.9,834.7"
			/>
		<path class="st1" d="M905.8,797.5c-1.8-3.3-5.6-5.1-10.1-5.1c-3.4,0-7,1-10.6,2.9c-6.5,3.5-10.5,9.3-10.5,14.4
			c0,1.4,0.3,2.8,1,4.1c1.8,3.3,5.6,5,10.1,5c3.4,0,7-0.9,10.6-2.8c6.5-3.5,10.5-9.3,10.5-14.4C906.8,800.2,906.5,798.8,905.8,797.5
			"/>
		<path class="st1" d="M1042.4,797.5c-1.8-3.3-5.6-5.1-10.1-5.1c-3.4,0-7,1-10.6,2.9c-6.5,3.5-10.5,9.3-10.5,14.4
			c0,1.4,0.3,2.8,1,4.1c1.8,3.3,5.6,5,10.1,5c3.4,0,7-0.9,10.6-2.8c6.5-3.5,10.5-9.3,10.5-14.4
			C1043.4,800.2,1043.1,798.8,1042.4,797.5"/>
		<path class="st1" d="M1127.8,797.5c-1.8-3.3-5.6-5.1-10.1-5.1c-3.4,0-7,1-10.6,2.9c-6.5,3.5-10.5,9.3-10.5,14.4
			c0,1.4,0.3,2.8,1,4.1c1.8,3.3,5.6,5,10.1,5c3.4,0,7-0.9,10.6-2.8c6.5-3.5,10.5-9.3,10.5-14.4
			C1128.8,800.2,1128.5,798.8,1127.8,797.5"/>
		<path class="st1" d="M1213.1,772.7c-1.8-3.3-5.6-5.1-10.1-5.1c-3.4,0-7,1-10.6,2.9c-6.5,3.5-10.5,9.3-10.5,14.4
			c0,1.4,0.3,2.8,1,4.1c1.8,3.3,5.6,5,10.1,5c3.4,0,7-0.9,10.6-2.8c6.5-3.5,10.5-9.3,10.5-14.4
			C1214.1,775.3,1213.8,774,1213.1,772.7"/>
		<path class="st1" d="M1349.7,772.7c-1.8-3.3-5.6-5.1-10.1-5.1c-3.4,0-7,1-10.6,2.9c-6.5,3.5-10.5,9.3-10.5,14.4
			c0,1.4,0.3,2.8,1,4.1c1.8,3.3,5.6,5,10.1,5c3.4,0,7-0.9,10.6-2.8c6.5-3.5,10.5-9.3,10.5-14.4
			C1350.7,775.3,1350.4,774,1349.7,772.7"/>
		<path class="st1" d="M1530,785.1c-1.8-3.3-5.6-5.1-10.1-5.1c-3.4,0-7,1-10.6,2.9c-6.5,3.5-10.5,9.3-10.5,14.4c0,1.4,0.3,2.8,1,4.1
			c1.8,3.3,5.6,5,10.1,5c3.4,0,7-0.9,10.6-2.8c6.5-3.5,10.5-9.3,10.5-14.4C1531,787.8,1530.7,786.4,1530,785.1"/>
		<path class="st1" d="M1674.2,785.1c-1.8-3.3-5.6-5.1-10.1-5.1c-3.4,0-7,1-10.6,2.9c-6.5,3.5-10.5,9.3-10.5,14.4
			c0,1.4,0.3,2.8,1,4.1c1.8,3.3,5.6,5,10.1,5c3.4,0,7-0.9,10.6-2.8c6.5-3.5,10.5-9.3,10.5-14.4
			C1675.2,787.8,1674.9,786.4,1674.2,785.1"/>
		<path class="st1" d="M1818.4,760.3c-1.8-3.3-5.6-5.1-10.1-5.1c-3.4,0-7,1-10.6,2.9c-6.5,3.5-10.5,9.3-10.5,14.4
			c0,1.4,0.3,2.8,1,4.1c1.8,3.3,5.6,5,10.1,5c3.4,0,7-0.9,10.6-2.8c6.5-3.5,10.5-9.3,10.5-14.4
			C1819.4,762.9,1819.1,761.6,1818.4,760.3"/>
		<path class="st1" d="M1994.2,760.3c-1.8-3.3-5.6-5.1-10.1-5.1c-3.4,0-7,1-10.6,2.9c-6.5,3.5-10.5,9.3-10.5,14.4
			c0,1.4,0.3,2.8,1,4.1c1.8,3.3,5.6,5,10.1,5c3.4,0,7-0.9,10.6-2.8c6.5-3.5,10.5-9.3,10.5-14.4
			C1995.2,762.9,1994.9,761.6,1994.2,760.3"/>
		<path class="st1" d="M2137.7,747.9c-1.8-3.3-5.6-5.1-10.1-5.1c-3.4,0-7,1-10.6,2.9c-6.5,3.5-10.5,9.3-10.5,14.4
			c0,1.4,0.3,2.8,1,4.1c1.8,3.3,5.6,5,10.1,5c3.4,0,7-0.9,10.6-2.8c6.5-3.5,10.5-9.3,10.5-14.4
			C2138.7,750.5,2138.4,749.2,2137.7,747.9 M2133.5,754.6c-1.7,1.7-5.1,3.8-8.6,5.8c-3.6,2-7.1,3.5-9.5,4c-0.5,0.1-1,0.2-1.5,0.2
			c-1.6,0-2.8-0.6-3.5-1.9c-0.3-0.5-0.5-1.1-0.5-1.7c0-1.1,0.7-2.4,1.8-3.5c1.7-1.7,5-3.8,8.5-5.8c3.6-2,7.1-3.5,9.5-4
			c0.5-0.1,1-0.2,1.5-0.2c1.6,0,2.9,0.6,3.6,1.9c0.3,0.5,0.4,1.1,0.4,1.7C2135.2,752.2,2134.6,753.4,2133.5,754.6"/>
		<path class="st1" d="M274.6,599c-1.8-3.3-5.6-5.1-10.1-5.1c-3.4,0-7,1-10.6,2.9c-6.5,3.5-10.5,9.3-10.5,14.4c0,1.4,0.3,2.8,1,4.1
			c1.8,3.3,5.6,5,10.1,5c3.4,0,7-0.9,10.6-2.8c6.5-3.5,10.5-9.3,10.5-14.4C275.6,601.7,275.3,600.3,274.6,599"/>
		<path class="st1" d="M413.4,586.6c-1.8-3.3-5.6-5.1-10.1-5.1c-3.4,0-7,1-10.6,2.9c-6.5,3.5-10.5,9.3-10.5,14.4
			c0,1.4,0.3,2.8,1,4.1c1.8,3.3,5.6,5,10.1,5c3.4,0,7-0.9,10.6-2.8c6.5-3.5,10.5-9.3,10.5-14.4C414.4,589.3,414.1,587.9,413.4,586.6
			"/>
		<path class="st1" d="M500.2,599c-1.8-3.3-5.6-5.1-10.1-5.1c-3.4,0-7,1-10.6,2.9c-6.5,3.5-10.5,9.3-10.5,14.4c0,1.4,0.3,2.8,1,4.1
			c1.8,3.3,5.6,5,10.1,5c3.4,0,7-0.9,10.6-2.8c6.5-3.5,10.5-9.3,10.5-14.4C501.2,601.7,500.9,600.3,500.2,599"/>
		<path class="st1" d="M587,623.9c-1.8-3.3-5.6-5.1-10.1-5.1c-3.4,0-7,1-10.6,2.9c-6.5,3.5-10.5,9.3-10.5,14.4c0,1.4,0.3,2.8,1,4.1
			c1.8,3.3,5.6,5,10.1,5c3.4,0,7-0.9,10.6-2.8c6.5-3.5,10.5-9.3,10.5-14.4C588,626.5,587.7,625.1,587,623.9"/>
		<path class="st1" d="M725.9,599c-1.8-3.3-5.6-5.1-10.1-5.1c-3.4,0-7,1-10.6,2.9c-6.5,3.5-10.5,9.3-10.5,14.4c0,1.4,0.3,2.8,1,4.1
			c1.8,3.3,5.6,5,10.1,5c3.4,0,7-0.9,10.6-2.8c6.5-3.5,10.5-9.3,10.5-14.4C726.9,601.7,726.6,600.3,725.9,599"/>
		<path class="st1" d="M905.8,561.8c-1.8-3.3-5.6-5.1-10.1-5.1c-3.4,0-7,1-10.6,2.9c-6.5,3.5-10.5,9.3-10.5,14.4
			c0,1.4,0.3,2.8,1,4.1c1.8,3.3,5.6,5,10.1,5c3.4,0,7-0.9,10.6-2.8c6.5-3.5,10.5-9.3,10.5-14.4C906.8,564.5,906.5,563.1,905.8,561.8
			"/>
		<path class="st1" d="M1042.4,561.8c-1.8-3.3-5.6-5.1-10.1-5.1c-3.4,0-7,1-10.6,2.9c-6.5,3.5-10.5,9.3-10.5,14.4
			c0,1.4,0.3,2.8,1,4.1c1.8,3.3,5.6,5,10.1,5c3.4,0,7-0.9,10.6-2.8c6.5-3.5,10.5-9.3,10.5-14.4
			C1043.4,564.5,1043.1,563.1,1042.4,561.8"/>
		<path class="st1" d="M1127.8,561.8c-1.8-3.3-5.6-5.1-10.1-5.1c-3.4,0-7,1-10.6,2.9c-6.5,3.5-10.5,9.3-10.5,14.4
			c0,1.4,0.3,2.8,1,4.1c1.8,3.3,5.6,5,10.1,5c3.4,0,7-0.9,10.6-2.8c6.5-3.5,10.5-9.3,10.5-14.4
			C1128.8,564.5,1128.5,563.1,1127.8,561.8"/>
		<path class="st1" d="M1213.1,586.6c-1.8-3.3-5.6-5.1-10.1-5.1c-3.4,0-7,1-10.6,2.9c-6.5,3.5-10.5,9.3-10.5,14.4
			c0,1.4,0.3,2.8,1,4.1c1.8,3.3,5.6,5,10.1,5c3.4,0,7-0.9,10.6-2.8c6.5-3.5,10.5-9.3,10.5-14.4
			C1214.1,589.3,1213.8,587.9,1213.1,586.6"/>
		<path class="st1" d="M1349.7,561.8c-1.8-3.3-5.6-5.1-10.1-5.1c-3.4,0-7,1-10.6,2.9c-6.5,3.5-10.5,9.3-10.5,14.4
			c0,1.4,0.3,2.8,1,4.1c1.8,3.3,5.6,5,10.1,5c3.4,0,7-0.9,10.6-2.8c6.5-3.5,10.5-9.3,10.5-14.4
			C1350.7,564.5,1350.4,563.1,1349.7,561.8"/>
		<path class="st1" d="M1530,574.2c-1.8-3.3-5.6-5.1-10.1-5.1c-3.4,0-7,1-10.6,2.9c-6.5,3.5-10.5,9.3-10.5,14.4c0,1.4,0.3,2.8,1,4.1
			c1.8,3.3,5.6,5,10.1,5c3.4,0,7-0.9,10.6-2.8c6.5-3.5,10.5-9.3,10.5-14.4C1531,576.9,1530.7,575.5,1530,574.2"/>
		<path class="st1" d="M1674.2,574.2c-1.8-3.3-5.6-5.1-10.1-5.1c-3.4,0-7,1-10.6,2.9c-6.5,3.5-10.5,9.3-10.5,14.4
			c0,1.4,0.3,2.8,1,4.1c1.8,3.3,5.6,5,10.1,5c3.4,0,7-0.9,10.6-2.8c6.5-3.5,10.5-9.3,10.5-14.4
			C1675.2,576.9,1674.9,575.5,1674.2,574.2"/>
		<path class="st1" d="M1818.4,586.6c-1.8-3.3-5.6-5.1-10.1-5.1c-3.4,0-7,1-10.6,2.9c-6.5,3.5-10.5,9.3-10.5,14.4
			c0,1.4,0.3,2.8,1,4.1c1.8,3.3,5.6,5,10.1,5c3.4,0,7-0.9,10.6-2.8c6.5-3.5,10.5-9.3,10.5-14.4
			C1819.4,589.3,1819.1,587.9,1818.4,586.6"/>
		<path class="st1" d="M1994.2,586.6c-1.8-3.3-5.6-5.1-10.1-5.1c-3.4,0-7,1-10.6,2.9c-6.5,3.5-10.5,9.3-10.5,14.4
			c0,1.4,0.3,2.8,1,4.1c1.8,3.3,5.6,5,10.1,5c3.4,0,7-0.9,10.6-2.8c6.5-3.5,10.5-9.3,10.5-14.4
			C1995.2,589.3,1994.9,587.9,1994.2,586.6"/>
		<path class="st1" d="M2137.7,599c-1.8-3.3-5.6-5.1-10.1-5.1c-3.4,0-7,1-10.6,2.9c-6.5,3.5-10.5,9.3-10.5,14.4c0,1.4,0.3,2.8,1,4.1
			c1.8,3.3,5.6,5,10.1,5c3.4,0,7-0.9,10.6-2.8c6.5-3.5,10.5-9.3,10.5-14.4C2138.7,601.7,2138.4,600.3,2137.7,599 M2133.5,605.8
			c-1.7,1.7-5.1,3.8-8.6,5.8c-3.6,2-7.1,3.5-9.5,4c-0.5,0.1-1,0.2-1.5,0.2c-1.6,0-2.8-0.6-3.5-1.9c-0.3-0.5-0.5-1.1-0.5-1.7
			c0-1.1,0.7-2.4,1.8-3.5c1.7-1.7,5-3.8,8.5-5.8c3.6-2,7.1-3.5,9.5-4c0.5-0.1,1-0.2,1.5-0.2c1.6,0,2.9,0.6,3.6,1.9
			c0.3,0.5,0.4,1.1,0.4,1.7C2135.2,603.4,2134.6,604.6,2133.5,605.8"/>
		<path class="st1" d="M274.6,199.2c-1.8-3.3-5.6-5.1-10.1-5.1c-3.4,0-7,1-10.6,2.9c-6.5,3.5-10.5,9.3-10.5,14.4
			c0,1.4,0.3,2.8,1,4.1c1.8,3.3,5.6,5,10.1,5c3.4,0,7-0.9,10.6-2.8c6.5-3.5,10.5-9.3,10.5-14.4C275.6,201.9,275.3,200.5,274.6,199.2
			"/>
		<path class="st1" d="M413.4,186.8c-1.8-3.3-5.6-5.1-10.1-5.1c-3.4,0-7,1-10.6,2.9c-6.5,3.5-10.5,9.3-10.5,14.4
			c0,1.4,0.3,2.8,1,4.1c1.8,3.3,5.6,5,10.1,5c3.4,0,7-0.9,10.6-2.8c6.5-3.5,10.5-9.3,10.5-14.4C414.4,189.5,414.1,188.1,413.4,186.8
			"/>
		<path class="st1" d="M500.2,199.2c-1.8-3.3-5.6-5.1-10.1-5.1c-3.4,0-7,1-10.6,2.9c-6.5,3.5-10.5,9.3-10.5,14.4
			c0,1.4,0.3,2.8,1,4.1c1.8,3.3,5.6,5,10.1,5c3.4,0,7-0.9,10.6-2.8c6.5-3.5,10.5-9.3,10.5-14.4C501.2,201.9,500.9,200.5,500.2,199.2
			"/>
		<path class="st1" d="M587,224c-1.8-3.3-5.6-5.1-10.1-5.1c-3.4,0-7,1-10.6,2.9c-6.5,3.5-10.5,9.3-10.5,14.4c0,1.4,0.3,2.8,1,4.1
			c1.8,3.3,5.6,5,10.1,5c3.4,0,7-0.9,10.6-2.8c6.5-3.5,10.5-9.3,10.5-14.4C588,226.7,587.7,225.3,587,224"/>
		<path class="st1" d="M725.9,199.2c-1.8-3.3-5.6-5.1-10.1-5.1c-3.4,0-7,1-10.6,2.9c-6.5,3.5-10.5,9.3-10.5,14.4
			c0,1.4,0.3,2.8,1,4.1c1.8,3.3,5.6,5,10.1,5c3.4,0,7-0.9,10.6-2.8c6.5-3.5,10.5-9.3,10.5-14.4C726.9,201.9,726.6,200.5,725.9,199.2
			"/>
		<path class="st1" d="M905.8,162c-1.8-3.3-5.6-5.1-10.1-5.1c-3.4,0-7,1-10.6,2.9c-6.5,3.5-10.5,9.3-10.5,14.4c0,1.4,0.3,2.8,1,4.1
			c1.8,3.3,5.6,5,10.1,5c3.4,0,7-0.9,10.6-2.8c6.5-3.5,10.5-9.3,10.5-14.4C906.8,164.7,906.5,163.3,905.8,162"/>
		<path class="st1" d="M1042.4,149.6c-1.8-3.3-5.6-5.1-10.1-5.1c-3.4,0-7,1-10.6,2.9c-6.5,3.5-10.5,9.3-10.5,14.4
			c0,1.4,0.3,2.8,1,4.1c1.8,3.3,5.6,5,10.1,5c3.4,0,7-0.9,10.6-2.8c6.5-3.5,10.5-9.3,10.5-14.4
			C1043.4,152.3,1043.1,150.9,1042.4,149.6"/>
		<path class="st1" d="M1127.8,162c-1.8-3.3-5.6-5.1-10.1-5.1c-3.4,0-7,1-10.6,2.9c-6.5,3.5-10.5,9.3-10.5,14.4c0,1.4,0.3,2.8,1,4.1
			c1.8,3.3,5.6,5,10.1,5c3.4,0,7-0.9,10.6-2.8c6.5-3.5,10.5-9.3,10.5-14.4C1128.8,164.7,1128.5,163.3,1127.8,162"/>
		<path class="st1" d="M1213.1,186.8c-1.8-3.3-5.6-5.1-10.1-5.1c-3.4,0-7,1-10.6,2.9c-6.5,3.5-10.5,9.3-10.5,14.4
			c0,1.4,0.3,2.8,1,4.1c1.8,3.3,5.6,5,10.1,5c3.4,0,7-0.9,10.6-2.8c6.5-3.5,10.5-9.3,10.5-14.4
			C1214.1,189.5,1213.8,188.1,1213.1,186.8"/>
		<path class="st1" d="M1349.7,162c-1.8-3.3-5.6-5.1-10.1-5.1c-3.4,0-7,1-10.6,2.9c-6.5,3.5-10.5,9.3-10.5,14.4c0,1.4,0.3,2.8,1,4.1
			c1.8,3.3,5.6,5,10.1,5c3.4,0,7-0.9,10.6-2.8c6.5-3.5,10.5-9.3,10.5-14.4C1350.7,164.7,1350.4,163.3,1349.7,162"/>
		<path class="st1" d="M1530,199.2c-1.8-3.3-5.6-5.1-10.1-5.1c-3.4,0-7,1-10.6,2.9c-6.5,3.5-10.5,9.3-10.5,14.4c0,1.4,0.3,2.8,1,4.1
			c1.8,3.3,5.6,5,10.1,5c3.4,0,7-0.9,10.6-2.8c6.5-3.5,10.5-9.3,10.5-14.4C1531,201.9,1530.7,200.5,1530,199.2"/>
		<path class="st1" d="M1674.2,137.2c-1.8-3.3-5.6-5.1-10.1-5.1c-3.4,0-7,1-10.6,2.9c-6.5,3.5-10.5,9.3-10.5,14.4
			c0,1.4,0.3,2.8,1,4.1c1.8,3.3,5.6,5,10.1,5c3.4,0,7-0.9,10.6-2.8c6.5-3.5,10.5-9.3,10.5-14.4
			C1675.2,139.9,1674.9,138.5,1674.2,137.2"/>
		<path class="st1" d="M1818.4,149.6c-1.8-3.3-5.6-5.1-10.1-5.1c-3.4,0-7,1-10.6,2.9c-6.5,3.5-10.5,9.3-10.5,14.4
			c0,1.4,0.3,2.8,1,4.1c1.8,3.3,5.6,5,10.1,5c3.4,0,7-0.9,10.6-2.8c6.5-3.5,10.5-9.3,10.5-14.4
			C1819.4,152.3,1819.1,150.9,1818.4,149.6"/>
		<path class="st1" d="M1994.2,199.2c-1.8-3.3-5.6-5.1-10.1-5.1c-3.4,0-7,1-10.6,2.9c-6.5,3.5-10.5,9.3-10.5,14.4
			c0,1.4,0.3,2.8,1,4.1c1.8,3.3,5.6,5,10.1,5c3.4,0,7-0.9,10.6-2.8c6.5-3.5,10.5-9.3,10.5-14.4
			C1995.2,201.9,1994.9,200.5,1994.2,199.2"/>
		<path class="st1" d="M2137.7,162c-1.8-3.3-5.6-5.1-10.1-5.1c-3.4,0-7,1-10.6,2.9c-6.5,3.5-10.5,9.3-10.5,14.4c0,1.4,0.3,2.8,1,4.1
			c1.8,3.3,5.6,5,10.1,5c3.4,0,7-0.9,10.6-2.8c6.5-3.5,10.5-9.3,10.5-14.4C2138.7,164.7,2138.4,163.3,2137.7,162 M2133.5,168.7
			c-1.7,1.7-5.1,3.8-8.6,5.8c-3.6,2-7.1,3.5-9.5,4c-0.5,0.1-1,0.2-1.5,0.2c-1.6,0-2.8-0.6-3.5-1.9c-0.3-0.5-0.5-1.1-0.5-1.7
			c0-1.1,0.7-2.4,1.8-3.5c1.7-1.7,5-3.8,8.5-5.8c3.6-2,7.1-3.5,9.5-4c0.5-0.1,1-0.2,1.5-0.2c1.6,0,2.9,0.6,3.6,1.9
			c0.3,0.5,0.4,1.1,0.4,1.7C2135.2,166.3,2134.6,167.5,2133.5,168.7"/>
		<path class="st1" d="M140.6,780.6c-7.5,0-13.6,4.4-13.7,4.4c-5.8,4.3-8,9.3-8.9,12.8c-0.5,1.8-0.7,3.6-0.7,5.3
			c0,2.4,0.4,4.6,1.3,6.4c1.2,2.7,3.5,4.6,6.4,5.6c1.2,0.4,2.5,0.6,3.8,0.6c2.2,0,4.5-0.6,6.3-1.7c3.1-1.7,5-5.3,5-9.1
			c0-3.5-1.8-6.6-4.8-8.5c-2.1-1.4-4.1-1.8-5.8-1.8c-1.2,0-2.3,0.2-3.2,0.5c-1,0.4-2.7,1.4-3.5,2.1c0.3-1.9,1.5-4.8,2.6-6.3
			s3.3-3.6,5-4.5c2.5-1.4,5.7-2,9.1-2c10.1,0,15.1,8.1,15.1,24.8c0,9.2-3.5,18.1-6.4,23.9c-3.3,6.5-7.6,12.8-11.5,16.3
			c-10.3,9.4-20,13.9-20.1,13.9c0,0-1.5,0.9-1.1,2.4c0.3,1,1.2,1.2,1.8,1.2c0.1,0,0.4-0.1,0.5-0.1s11.4-4.7,20.4-11.7
			c5.1-3.7,9.6-7.6,13.6-11.9c3.6-3.9,6.6-8,9.1-12.2c4.4-7.4,6.8-15.2,6.8-21.8c0-8.2-2.2-15.1-6.3-19.9
			C156.9,783.5,149.9,780.6,140.6,780.6 M171.8,793.2c0,2.8,2.2,5,4.8,5c2.6,0,4.8-2.2,4.8-5s-2.2-5.1-4.8-5.1
			C174,788.1,171.8,790.4,171.8,793.2 M171.8,817.7c0,2.8,2.2,5.1,4.8,5.1c2.6,0,4.8-2.3,4.8-5.1s-2.2-5.1-4.8-5.1
			C174,812.7,171.8,814.9,171.8,817.7"/>
		<path class="st1" d="M178.3,576.5c-1.2-5.4-3.8-9.2-4.6-10.2c-3.2-4.2-7.1-7.1-11.8-8.4c-3.1-0.9-6.1-1-8.5-0.8
			c-1-6-2-11.8-2.9-17.2c5.4-6.1,9-11.9,11.3-16.1c3.4-6.5,4.6-11.1,4.6-11.3c1.7-5.2,2.1-12.8,1-21c-1-7.5-3.1-14.1-5.4-17.4
			c-1-1.4-2.1-2.1-3.1-2.1c-1.2,0-3.7,1.2-6.6,4c-2.3,2.2-5.5,6-8.1,12c-3,7-3.2,16.4-2.8,23.1c0.4,7.2,1.5,12.9,1.5,12.9
			c0,0.1,0.3,1.6,0.7,4.1c-0.2,0.2-0.5,0.4-0.7,0.7c-1,1-2.2,2.1-3.6,3.5c-0.9,0.9-1.8,1.8-2.8,2.7c-8.4,8.1-21.1,20.3-21.1,39.3
			c0,4.7,0.9,9,2.7,13c1.6,3.6,3.9,6.8,6.8,9.7c7.7,7.5,18.2,10.7,25.2,10.5c2.9-0.1,5.5-0.3,7.9-0.8c1.8,9.5,2.9,16.5,3,21.8
			c0,6.5-1.6,10.4-5.5,13.1c-2.4,1.7-5.2,2.7-8.3,2.8c-2.6,0.1-4.8-0.3-6.2-0.8h0c0,0-0.3-0.1-0.3-0.3c0-0.2,0.3-0.2,0.3-0.2h0
			c1.9-0.4,5.4-1.7,7.8-4.9c1.8-2.5,2.6-7.1,0.8-11c-1.1-2.4-3.6-5.3-9.2-5.7c-2.5-0.2-4.7,0.3-6.7,1.5c-1.8,1.1-3.3,2.7-4.3,4.7
			c-2.4,4.7-2,10.3,1.1,14.2c2.9,3.6,7.5,5.9,12.9,6.5c0.8,0.1,1.7,0.1,2.5,0.1c4.4,0,8.8-1.2,12.3-3.4c3.6-2.5,5.7-6.5,6.4-12.1
			c0.6-4.6,0.2-10.5-1.2-18.5c-0.4-2.1-0.9-5.1-1.5-8.8c5.7-1.9,9.8-5.4,13.6-11.3C178.8,588.8,179.7,582.7,178.3,576.5
			 M144.3,602.4c-4.6-1.2-9-3.7-12.7-7.2c-1.3-1.2-3.2-3.4-4.6-6.7c-1.4-3.1-2-6.5-2-10.1c0.1-4.7,1.4-9.4,3.9-14.2
			c2.9-5.5,7.4-11,13.4-16.3c1.4-1.3,2.8-2.5,4.1-3.8c0.8,4.2,1.6,8.9,2.5,13.7c-3.8,1.3-8.5,4.4-11.6,10c-3.5,6.5-3.4,12-2.6,15.4
			c0.9,4.4,3.4,8.2,6.9,10.2c0.9,0.6,5,2.7,6.8,2.1c0.4-0.1,0.6-0.3,0.8-0.7c0.5-1.2-0.5-1.8-2.1-2.7c-0.6-0.4-1.3-0.8-2-1.3
			c-3.3-2.5-4.7-6.9-3.7-11.2c0.6-2.4,1.8-4.5,3.7-6.2c1.7-1.5,3.7-2.6,6-3.3c2,11.2,4.1,22.2,5.7,30.5c0.1,0.7,0.3,1.3,0.4,2
			C152.8,603.6,148.5,603.5,144.3,602.4 M155.6,569.5c10.3-0.5,14.5,6.9,15.4,11.7c0.5,2.5,0.5,6.9-1.1,11.1
			c-1.2,3.2-3.6,7.2-8.7,9.2c-0.1-0.4-0.1-0.8-0.2-1.3C159.4,591.6,157.5,580.7,155.6,569.5 M148.3,499.1c1.8-5.7,4.5-8.9,6.5-10.6
			c1.7-1.5,3.4-2.2,4.3-2.2c0.1,0,0.3,0,0.4,0c0.5,0.1,1,0.7,1.4,1.6c2.3,4.3,1.6,10.9,0.2,15.3c-1.6,5.4-4.5,10.9-13.2,20.5
			c-0.2-1.1-0.3-2.1-0.5-3.1C146.1,512.4,146.4,505.1,148.3,499.1"/>
		<path class="st1" d="M178.3,201.4c-1.2-5.4-3.8-9.2-4.6-10.2c-3.2-4.2-7.1-7.1-11.8-8.4c-3.1-0.9-6.1-1-8.5-0.8
			c-1-6-2-11.8-2.9-17.2c5.4-6.1,9-11.9,11.3-16.1c3.4-6.5,4.6-11.1,4.6-11.3c1.7-5.2,2.1-12.8,1-21c-1-7.5-3.1-14.1-5.4-17.4
			c-1-1.4-2.1-2.1-3.1-2.1c-1.2,0-3.7,1.2-6.6,4c-2.3,2.2-5.5,6-8.1,12c-3,7-3.2,16.4-2.8,23.1c0.4,7.2,1.5,12.9,1.5,12.9
			c0,0.1,0.3,1.6,0.7,4.1c-0.2,0.2-0.5,0.4-0.7,0.7c-1,1-2.2,2.1-3.6,3.5c-0.9,0.9-1.8,1.8-2.8,2.7c-8.4,8.1-21.1,20.3-21.1,39.3
			c0,4.7,0.9,9,2.7,13c1.6,3.6,3.9,6.8,6.8,9.7c7.7,7.5,18.2,10.7,25.2,10.5c2.9-0.1,5.5-0.3,7.9-0.8c1.8,9.5,2.9,16.5,3,21.8
			c0,6.5-1.6,10.4-5.5,13.1c-2.4,1.7-5.2,2.7-8.3,2.8c-2.6,0.1-4.8-0.3-6.2-0.8h0c0,0-0.3-0.1-0.3-0.3c0-0.2,0.3-0.2,0.3-0.2h0
			c1.9-0.4,5.4-1.7,7.8-4.9c1.8-2.5,2.6-7.1,0.8-11c-1.1-2.4-3.6-5.3-9.2-5.7c-2.5-0.2-4.7,0.3-6.7,1.5c-1.8,1.1-3.3,2.7-4.3,4.7
			c-2.4,4.7-2,10.3,1.1,14.2c2.9,3.6,7.5,5.9,12.9,6.5c0.8,0.1,1.7,0.1,2.5,0.1c4.4,0,8.8-1.2,12.3-3.4c3.6-2.5,5.7-6.5,6.4-12.1
			c0.6-4.6,0.2-10.5-1.2-18.5c-0.4-2.1-0.9-5.1-1.5-8.8c5.7-1.9,9.8-5.4,13.6-11.3C178.8,213.7,179.7,207.6,178.3,201.4
			 M144.3,227.4c-4.6-1.2-9-3.7-12.7-7.2c-1.3-1.2-3.2-3.4-4.6-6.7c-1.4-3.1-2-6.5-2-10.1c0.1-4.7,1.4-9.4,3.9-14.2
			c2.9-5.5,7.4-11,13.4-16.3c1.4-1.3,2.8-2.5,4.1-3.8c0.8,4.2,1.6,8.9,2.5,13.7c-3.8,1.3-8.5,4.4-11.6,10c-3.5,6.5-3.4,12-2.6,15.4
			c0.9,4.4,3.4,8.2,6.9,10.2c0.9,0.6,5,2.7,6.8,2.1c0.4-0.1,0.6-0.3,0.8-0.7c0.5-1.2-0.5-1.8-2.1-2.7c-0.6-0.4-1.3-0.8-2-1.3
			c-3.3-2.5-4.7-6.9-3.7-11.2c0.6-2.4,1.8-4.5,3.7-6.2c1.7-1.5,3.7-2.6,6-3.3c2,11.2,4.1,22.2,5.7,30.5c0.1,0.7,0.3,1.3,0.4,2
			C152.8,228.6,148.5,228.5,144.3,227.4 M155.6,194.5c10.3-0.5,14.5,6.9,15.4,11.7c0.5,2.5,0.5,6.9-1.1,11.1
			c-1.2,3.2-3.6,7.2-8.7,9.2c-0.1-0.4-0.1-0.8-0.2-1.3C159.4,216.5,157.5,205.6,155.6,194.5 M148.3,124.1c1.8-5.7,4.5-8.9,6.5-10.6
			c1.7-1.5,3.4-2.2,4.3-2.2c0.1,0,0.3,0,0.4,0c0.5,0.1,1,0.7,1.4,1.6c2.3,4.3,1.6,10.9,0.2,15.3c-1.6,5.4-4.5,10.9-13.2,20.5
			c-0.2-1.1-0.3-2.1-0.5-3.1C146.1,137.3,146.4,130.1,148.3,124.1"/>
		<path class="st1" d="M2395.5,847.1l-0.2-0.3c-0.1-0.1-0.3-0.3-0.6-0.7l-11.4-14.1c-0.3-0.3-0.2-1.1,0-1.5l10.1-15.3
			c0.1-0.2,0.2-0.5,0.2-0.7v-0.9c0-0.3-0.1-0.6-0.3-0.8l-16.1-21.7c0,0-0.8-1.2-1.8-0.3c-1,0.8-0.2,2.1-0.2,2.1l7.5,10.3
			c0.4,0.6,0.4,1.8,0,2.4l-10,15.3c-0.1,0.2-0.2,0.6-0.2,0.8v0.9c0,0.3,0.1,0.6,0.3,0.8l11.1,13.8c-0.4-0.1-1.3-0.3-2.5-0.3
			c-1.7,0-3.9,0.4-5.7,2c-2.2,2-3.4,4.8-3.4,7.2c0,1.4,0.3,2.8,1.1,3.9c2.1,3.2,9.5,12.6,9.5,12.6s0.9,1.1,1.8,0.4
			c0.9-0.7,0.7-1.6,0.4-2.1c-0.3-0.5-3.5-6.3-3.5-6.3s-0.7-1.4-0.7-3.2c0-1.3,0.4-2.9,1.7-4.2c1.2-1.2,2.6-1.6,3.9-1.6
			s2.4,0.4,3.2,0.9l3.9,2.5c0,0,1.2,0.6,1.8-0.3C2396,848,2395.8,847.6,2395.5,847.1"/>
		<path class="st1" d="M2395.5,574.2l-0.2-0.3c-0.1-0.1-0.3-0.3-0.6-0.7l-11.4-14.1c-0.3-0.3-0.2-1.1,0-1.5l10.1-15.3
			c0.1-0.2,0.2-0.5,0.2-0.7v-0.9c0-0.3-0.1-0.6-0.3-0.8l-16.1-21.7c0,0-0.8-1.2-1.8-0.3c-1,0.8-0.2,2.1-0.2,2.1l7.5,10.3
			c0.4,0.6,0.4,1.8,0,2.4l-10,15.3c-0.1,0.2-0.2,0.6-0.2,0.8v0.9c0,0.3,0.1,0.6,0.3,0.8l11.1,13.8c-0.4-0.1-1.3-0.3-2.5-0.3
			c-1.7,0-3.9,0.4-5.7,2c-2.2,2-3.4,4.8-3.4,7.2c0,1.4,0.3,2.8,1.1,3.9c2.1,3.2,9.5,12.6,9.5,12.6s0.9,1.1,1.8,0.4
			c0.9-0.7,0.7-1.6,0.4-2.1c-0.3-0.5-3.5-6.3-3.5-6.3s-0.7-1.4-0.7-3.2c0-1.3,0.4-2.9,1.7-4.2c1.2-1.2,2.6-1.6,3.9-1.6
			s2.4,0.4,3.2,0.9l3.9,2.5c0,0,1.2,0.6,1.8-0.3C2396,575.1,2395.8,574.7,2395.5,574.2"/>
		<path class="st1" d="M2395.5,199.2l-0.2-0.3c-0.1-0.1-0.3-0.3-0.6-0.7l-11.4-14.1c-0.3-0.3-0.2-1.1,0-1.5l10.1-15.3
			c0.1-0.2,0.2-0.5,0.2-0.7v-0.9c0-0.3-0.1-0.6-0.3-0.8l-16.1-21.7c0,0-0.8-1.2-1.8-0.3c-1,0.8-0.2,2.1-0.2,2.1l7.5,10.3
			c0.4,0.6,0.4,1.8,0,2.4l-10,15.3c-0.1,0.2-0.2,0.6-0.2,0.8v0.9c0,0.3,0.1,0.6,0.3,0.8l11.1,13.8c-0.4-0.1-1.3-0.3-2.5-0.3
			c-1.7,0-3.9,0.4-5.7,2c-2.2,2-3.4,4.8-3.4,7.2c0,1.4,0.3,2.8,1.1,3.9c2.1,3.2,9.5,12.6,9.5,12.6s0.9,1.1,1.8,0.4s0.7-1.6,0.4-2.1
			c-0.3-0.5-3.5-6.3-3.5-6.3s-0.7-1.4-0.7-3.2c0-1.3,0.4-2.9,1.7-4.2c1.2-1.2,2.6-1.6,3.9-1.6s2.4,0.4,3.2,0.9l3.9,2.5
			c0,0,1.2,0.6,1.8-0.3C2396,200.1,2395.8,199.7,2395.5,199.2"/>
		<path class="st5" d="M382.2,848.9l89.5,6.4v12.4l-89.5-6.4V848.9"/>
		<path class="st5" d="M1011.2,873.7h88.1v12.4h-88.1V873.7"/>
		<path class="st5" d="M411.7,520.1l89.5,6.4v12.4l-89.5-6.4V520.1"/>
		<path class="st5" d="M1040.7,495.5h88.1v12.4h-88.1V495.5"/>
		<path class="st5" d="M411.7,120.2l89.5,6.4V139l-89.5-6.4V120.2"/>
		<path class="st5" d="M1011.2,225.8l88.1,6.4v12.4l-88.1-6.4V225.8"/>
		<path class="st1" d="M1965.5,855.5c0-0.2,0.9-3.6,1-3.9c0.1-0.4,1.9-6.1,5.6-11.7c2.7-4.2,12.1-16.4,11.8-16.4
			c0,0,7.3-9.4,7.8-22.2v-2.3c0-6.1-0.8-14.6-4.3-23.2c-0.4-1-0.8-2-1.9-1.6c-1.1,0.4-0.8,1.6-0.5,2.7c1.8,6.9,2.8,14.1,2.8,21.2
			c0,8.3-3,12.5-4.8,15.6c-6.5,11-15.1,16.4-19.2,17.8c-0.5,0.2-0.8,0.6-0.8,1.1v6.2V855c0,0.7,0.6,1.3,1.3,1.3
			C1964.8,856.3,1965.4,855.9,1965.5,855.5"/>
		<path class="st1" d="M1996,511.3c-0.1-0.3-1-3.8-1-4c-0.1-0.4-0.7-0.7-1.2-0.7c-0.7,0-1.3,0.6-1.3,1.3v16.3v6.2
			c0,0.5,0.4,0.9,0.8,1.1c4.2,1.3,12.8,6.7,19.2,17.8c1.8,3.1,4.7,7.2,4.7,15.6c0,7.1-1.1,14.7-2.9,21.6c-0.3,1.1-0.6,2.1,0.5,2.5
			s1.5-0.4,1.9-1.4c3.6-8.7,4.5-17.9,4.5-24v-1.9c-0.5-12.8-7.8-22.2-7.8-22.2c0.3,0-9.1-12.2-11.8-16.4
			C1997.9,517.4,1996.1,511.7,1996,511.3"/>
		<path class="st1" d="M1996,127c-0.1-0.3-1-3.8-1-4c-0.1-0.4-0.7-0.7-1.2-0.7c-0.7,0-1.3,0.6-1.3,1.3v16.3v6.2
			c0,0.5,0.4,0.9,0.8,1.1c4.2,1.3,12.8,6.7,19.2,17.8c1.8,3.1,4.7,7.2,4.7,15.6c0,7.1-1.1,14.7-2.9,21.6c-0.3,1.1-0.6,2.1,0.5,2.5
			c1.1,0.4,1.5-0.4,1.9-1.4c3.6-8.7,4.5-17.9,4.5-24v-1.9c-0.5-12.8-7.8-22.2-7.8-22.2c0.3,0-9.1-12.2-11.8-16.4
			C1997.9,133,1996.1,127.4,1996,127"/>
		<path class="st1" d="M244.7,280c0.9,1.6,2,4.5,3.6,9.5c-0.8,0.2-1.3,0.4-2.5,0.8c-6,2.1-6,2.1-7.4,2.4l1.3,3.6
			c1.3-0.8,4-1.8,6.8-2.8c2.2-0.7,2.2-0.7,2.7-0.9c3.2,10.9,6,22.9,6.3,27l4.1-0.9c-0.3-0.9-0.4-1.1-0.6-2.2
			c-2.1-9.4-3.9-16.4-6.5-24.9c7.2-2.3,12.6-3.6,16.3-3.6c5.1,0,8,2.2,8,6.1c0,2.2-0.8,3.9-2.4,5.1c-1.6,1.2-3.9,1.9-6,1.9
			c-2.9,0-5.8-0.8-8.4-2.3c0.2,1.9,0.3,2.2,0.3,2.9c0,0.1,0,0.5,0,0.9c3,1.2,5.6,1.9,8.5,1.9c6.8,0,11.8-4.3,11.8-10.3
			c0-5.6-4.3-9.2-11-9.2c-1.2,0-2.4,0.1-3.8,0.3c-0.1-0.6-0.1-1.6-0.1-1.6c0-3.9,0.1-5.4,0.2-6.8h-3.8c0.1,1.2,0.2,1.7,0.2,8.9
			c-3.8,0.8-3.8,0.8-10.8,2.8c-0.7-2.2-1.2-3.6-2.2-6.6c-0.5-1.5-0.7-1.9-0.9-3.1L244.7,280"/>
		<path class="st1" d="M244.7,333.9c0.9,1.6,2,4.5,3.6,9.5c-0.8,0.2-1.3,0.3-2.5,0.8c-6,2-6,2-7.4,2.3l1.3,3.6
			c1.3-0.8,4-1.8,6.8-2.8c2.2-0.7,2.2-0.7,2.7-0.9c3.2,10.8,6,22.9,6.3,27l4.1-0.9c-0.3-0.8-0.4-1.1-0.6-2.1
			c-2.1-9.4-3.9-16.4-6.5-24.9c7.2-2.4,12.6-3.6,16.3-3.6c5.1,0,8,2.2,8,6.1c0,2.1-0.8,3.9-2.4,5.1c-1.6,1.2-3.9,1.9-6,1.9
			c-2.9,0-5.8-0.8-8.4-2.3c0.2,1.9,0.3,2.2,0.3,2.8c0,0.2,0,0.5,0,0.9c3,1.2,5.6,1.8,8.5,1.8c6.8,0,11.8-4.3,11.8-10.3
			c0-5.6-4.3-9.2-11-9.2c-1.2,0-2.4,0.1-3.8,0.3c-0.1-0.6-0.1-1.6-0.1-1.6c0-3.9,0.1-5.4,0.2-6.8h-3.8c0.1,1.2,0.2,1.7,0.2,8.9
			c-3.8,0.8-3.8,0.8-10.8,2.8c-0.7-2.2-1.2-3.7-2.2-6.6c-0.5-1.5-0.7-1.9-0.9-3.1L244.7,333.9"/>
		<path class="st1" d="M244.7,387.8c0.9,1.6,2,4.5,3.6,9.5c-0.8,0.2-1.3,0.4-2.5,0.8c-6,2.1-6,2.1-7.4,2.4l1.3,3.5
			c1.3-0.8,4-1.8,6.8-2.8c2.2-0.7,2.2-0.7,2.7-0.9c3.2,10.9,6,22.9,6.3,27l4.1-0.9c-0.3-0.9-0.4-1.1-0.6-2.2
			c-2.1-9.4-3.9-16.4-6.5-24.9c7.2-2.4,12.6-3.6,16.3-3.6c5.1,0,8,2.2,8,6.1c0,2.1-0.8,3.9-2.4,5.1c-1.6,1.2-3.9,1.9-6,1.9
			c-2.9,0-5.8-0.8-8.4-2.3c0.2,1.9,0.3,2.2,0.3,2.9c0,0.1,0,0.5,0,0.9c3,1.2,5.6,1.9,8.5,1.9c6.8,0,11.8-4.3,11.8-10.3
			c0-5.6-4.3-9.2-11-9.2c-1.2,0-2.4,0.1-3.8,0.3c-0.1-0.6-0.1-1.5-0.1-1.6c0-3.9,0.1-5.4,0.2-6.8h-3.8c0.1,1.2,0.2,1.7,0.2,8.8
			c-3.8,0.8-3.8,0.8-10.8,2.8c-0.7-2.2-1.2-3.6-2.2-6.6c-0.5-1.5-0.7-2-0.9-3.1L244.7,387.8"/>
		<path class="st1" d="M416.6,313.1c-0.6-0.4-0.9-0.6-1.7-1.1c-5.2-3.8-9.6-6.1-13.9-7.3c-0.2-4.9-0.2-4.9-0.3-7.6
			c3.7-0.2,7.7-0.7,11.1-1.2c1.8-0.2,2.2-0.3,2.9-0.3l-0.2-3.4c-2.8,0.9-7.1,1.5-13.9,2c0-2.6,0-2.6-0.1-6.8
			c5.5-0.3,6.9-0.5,11.6-1.2c2.6-0.3,2.6-0.3,3.5-0.4l-0.2-3.4c-2.8,0.9-7.9,1.6-14.8,2.1c0-3.6,0.1-6,0.3-7.1H397
			c0.2,1.1,0.2,1.1,0.2,7.2c-1.7,0-3.4,0-4.4,0c-5.4,0-10.6-0.4-12.8-1l0,3.4c0.3-0.1,0.5-0.1,0.7-0.1c0.2,0,0.5,0,0.9,0.1
			c4.5,0.3,8.6,0.5,12.2,0.5c1.2,0,2,0,3.4-0.1l0.1,6.9c-1.4,0-3.1,0-4.5,0c-5,0-9.2-0.3-11.4-0.8l-0.1,3.3c0.2,0,0.4,0,0.4,0
			c0.3,0,0.7,0,1.2,0.1c3.1,0.2,5.5,0.4,8.5,0.4c1.6,0,4.1-0.1,5.9-0.1c0.1,1.3,0.1,2.2,0.1,2.9c0,1.4,0,2.5,0.1,2.9
			c0,0.3,0,0.5,0,0.6c0,0.4,0,0.4,0.1,0.6c-2.2-0.3-2.9-0.4-4.5-0.4c-2.2,0-3.7,0.1-5.2,0.5c-4.4,1-7,3.6-7,6.9c0,2.1,1,4,2.7,5.2
			c1.7,1.3,4.4,2,7.8,2c3.9,0,7-1.1,8.4-3.1c0.9-1.2,1.2-2.8,1.2-5.4c0-0.7,0-0.7-0.1-1.8c1.3,0.6,2.5,1.1,3.3,1.5
			c4.2,2.2,7.9,4.8,10.2,7.1L416.6,313.1 M397.7,309c0,2.4-0.3,3.8-1,4.5c-1,1.1-2.9,1.7-5.5,1.7c-4.4,0-6.9-1.5-6.9-4.2
			c0-2.6,3.2-4.4,8.2-4.4c2.2,0,3.2,0.1,5.1,0.6L397.7,309"/>
		<path class="st1" d="M416.6,367c-0.6-0.4-0.9-0.6-1.7-1.2c-5.2-3.8-9.6-6.1-13.9-7.3c-0.2-4.8-0.2-4.8-0.3-7.6
			c3.7-0.2,7.7-0.6,11.1-1.2c1.8-0.2,2.2-0.3,2.9-0.4l-0.2-3.4c-2.8,0.9-7.1,1.6-13.9,2.1c0-2.7,0-2.7-0.1-6.8
			c5.5-0.4,6.9-0.5,11.6-1.2c2.6-0.4,2.6-0.4,3.5-0.4l-0.2-3.4c-2.8,0.9-7.9,1.6-14.8,2.1c0-3.6,0.1-6,0.3-7.1H397
			c0.2,1.1,0.2,1.1,0.2,7.2c-1.7,0-3.4,0.1-4.4,0.1c-5.4,0-10.6-0.4-12.8-1l0,3.4c0.3-0.1,0.5-0.1,0.7-0.1c0.2,0,0.5,0,0.9,0.1
			c4.5,0.4,8.6,0.5,12.2,0.5c1.2,0,2,0,3.4-0.1l0.1,6.9c-1.4,0.1-3.1,0.1-4.5,0.1c-5,0-9.2-0.3-11.4-0.8l-0.1,3.3c0.2,0,0.4,0,0.4,0
			c0.3,0,0.7,0,1.2,0.1c3.1,0.2,5.5,0.3,8.5,0.3c1.6,0,4.1-0.1,5.9-0.1c0.1,1.3,0.1,2.2,0.1,2.9c0,1.4,0,2.5,0.1,2.9
			c0,0.3,0,0.5,0,0.6c0,0.4,0,0.4,0.1,0.6c-2.2-0.4-2.9-0.4-4.5-0.4c-2.2,0-3.7,0.2-5.2,0.5c-4.4,1-7,3.6-7,6.9c0,2,1,4,2.7,5.2
			c1.7,1.3,4.4,2,7.8,2c3.9,0,7-1.1,8.4-3.2c0.9-1.2,1.2-2.8,1.2-5.4c0-0.6,0-0.6-0.1-1.8c1.3,0.6,2.5,1.1,3.3,1.5
			c4.2,2.2,7.9,4.8,10.2,7.2L416.6,367 M397.7,362.9c0,2.4-0.3,3.8-1,4.5c-1,1.1-2.9,1.6-5.5,1.6c-4.4,0-6.9-1.5-6.9-4.1
			c0-2.7,3.2-4.4,8.2-4.4c2.2,0,3.2,0.1,5.1,0.5L397.7,362.9"/>
		<path class="st1" d="M416.6,420.9c-0.6-0.4-0.9-0.6-1.7-1.1c-5.2-3.8-9.6-6.1-13.9-7.3c-0.2-4.9-0.2-4.9-0.3-7.7
			c3.7-0.2,7.7-0.6,11.1-1.2c1.8-0.2,2.2-0.3,2.9-0.3l-0.2-3.5c-2.8,1-7.1,1.6-13.9,2.1c0-2.6,0-2.6-0.1-6.8
			c5.5-0.3,6.9-0.5,11.6-1.2c2.6-0.4,2.6-0.4,3.5-0.4l-0.2-3.4c-2.8,0.9-7.9,1.6-14.8,2.1c0-3.6,0.1-6,0.3-7.1H397
			c0.2,1.1,0.2,1.1,0.2,7.2c-1.7,0-3.4,0.1-4.4,0.1c-5.4,0-10.6-0.4-12.8-1l0,3.4c0.3-0.1,0.5-0.1,0.7-0.1c0.2,0,0.5,0,0.9,0.1
			c4.5,0.3,8.6,0.5,12.2,0.5c1.2,0,2,0,3.4-0.1l0.1,6.8c-1.4,0.1-3.1,0.1-4.5,0.1c-5,0-9.2-0.3-11.4-0.8l-0.1,3.3c0.2,0,0.4,0,0.4,0
			c0.3,0,0.7,0,1.2,0.1c3.1,0.2,5.5,0.4,8.5,0.4c1.6,0,4.1-0.1,5.9-0.1c0.1,1.3,0.1,2.2,0.1,2.9c0,1.5,0,2.5,0.1,3
			c0,0.3,0,0.5,0,0.5c0,0.5,0,0.5,0.1,0.6c-2.2-0.4-2.9-0.4-4.5-0.4c-2.2,0-3.7,0.1-5.2,0.5c-4.4,1-7,3.6-7,6.9c0,2.1,1,4,2.7,5.2
			c1.7,1.3,4.4,2,7.8,2c3.9,0,7-1.1,8.4-3.1c0.9-1.2,1.2-2.8,1.2-5.5c0-0.6,0-0.6-0.1-1.8c1.3,0.5,2.5,1,3.3,1.5
			c4.2,2.2,7.9,4.8,10.2,7.1L416.6,420.9 M397.7,416.8c0,2.4-0.3,3.8-1,4.5c-1,1.1-2.9,1.7-5.5,1.7c-4.4,0-6.9-1.5-6.9-4.2
			c0-2.6,3.2-4.4,8.2-4.4c2.2,0,3.2,0.1,5.1,0.6L397.7,416.8"/>
		<path class="st1" d="M469.3,278.1c-0.1,1.2-0.2,1.7-0.7,4c-1.7,7.4-2.2,12.7-2.2,19.8c0,5.2,0.3,8.9,1.3,14.1c0.2,1,0.2,1.2,0.3,2
			l3.6-0.3c0-0.4,0-0.6,0-0.8c0-2.8,1.8-8.8,4-13.8l-2.4-1.2c-1.6,3.7-2.5,6.4-3.2,9.8c-0.2-2.6-0.3-5.6-0.3-9.5
			c0-6,0.5-10.4,1.5-15.6c0.8-3.4,1.4-5.9,2.1-8L469.3,278.1 M479.6,287.5c3.2,0.4,5.2,0.5,8,0.5c3.8,0,7.8-0.2,10.8-0.6
			c2.2-0.3,3.3-0.4,3.5-0.4l-0.2-3.6c-3.4,0.9-7.9,1.4-13.4,1.4c-3.9,0-6.3-0.2-8.5-0.8L479.6,287.5 M483.2,297.3
			c-3.1,3.6-4.4,6.2-4.4,9.3c0,1.9,0.5,3.4,1.5,4.6c2.2,2.6,5.8,3.8,11.5,3.8c3.4,0,6.8-0.3,10.2-1c1-0.2,1.1-0.2,1.8-0.2l-0.5-3.9
			c-2.7,1.1-7,1.8-11.5,1.8c-6.5,0-9.6-1.8-9.6-5.5c0-2.2,1.2-4.6,3.8-7.4L483.2,297.3"/>
		<path class="st1" d="M469.3,332c-0.1,1.1-0.2,1.6-0.7,4c-1.7,7.4-2.2,12.7-2.2,19.8c0,5.2,0.3,8.9,1.3,14.2c0.2,0.9,0.2,1.2,0.3,2
			l3.6-0.3c0-0.4,0-0.6,0-0.8c0-2.8,1.8-8.8,4-13.8l-2.4-1.1c-1.6,3.6-2.5,6.4-3.2,9.8c-0.2-2.7-0.3-5.6-0.3-9.5
			c0-6,0.5-10.4,1.5-15.7c0.8-3.4,1.4-5.8,2.1-8L469.3,332 M479.6,341.4c3.2,0.3,5.2,0.5,8,0.5c3.8,0,7.8-0.2,10.8-0.7
			c2.2-0.3,3.3-0.4,3.5-0.4l-0.2-3.6c-3.4,0.9-7.9,1.4-13.4,1.4c-3.9,0-6.3-0.2-8.5-0.8L479.6,341.4 M483.2,351.2
			c-3.1,3.6-4.4,6.2-4.4,9.3c0,1.8,0.5,3.3,1.5,4.6c2.2,2.6,5.8,3.8,11.5,3.8c3.4,0,6.8-0.3,10.2-1c1-0.1,1.1-0.2,1.8-0.2l-0.5-3.9
			c-2.7,1.1-7,1.8-11.5,1.8c-6.5,0-9.6-1.8-9.6-5.5c0-2.2,1.2-4.6,3.8-7.3L483.2,351.2"/>
		<path class="st1" d="M463.2,395.7c1.8-0.5,7.3-1,17.2-1.7c5.2-0.3,8.2-0.6,11-1.1c-1.9,0.9-3.2,1.6-4.8,2.6
			c-6,4.1-9.3,9.6-9.3,15.4c0,4.1,2,7.8,5.5,10.2c2.8,1.9,5.8,3,10.8,3.8c0.9,0.2,1,0.2,1.5,0.3l0.7-4.1c-0.2,0-0.4,0-0.5,0
			c-1.9,0-5-0.7-7.5-1.6c-4.5-1.7-7-5.1-7-9.2c0-4.2,2.1-8.2,6.1-11.6c2.8-2.4,6.2-4.1,9.6-5c1.9-0.5,3.6-0.7,5.6-0.7l-0.3-3.7
			c-0.7,0.2-1.7,0.3-6,0.5l-2.8,0.1c-1.7,0.1-2.3,0.1-8.5,0.4l-7.8,0.5c-6.2,0.4-6.5,0.4-9.2,0.6c-1.6,0.1-2.2,0.1-2.9,0.1
			c-0.3,0-0.8,0-1.8-0.1L463.2,395.7 M493.9,400.5c1.5,1.6,3.9,5.3,5.1,8l2.5-1.5c-1.5-3-2.9-5.1-5.1-7.8L493.9,400.5 M499.6,397.8
			c1.9,2.3,4,5.5,5.1,7.9l2.5-1.4c-1.7-3.1-2.9-5-5.2-7.8L499.6,397.8"/>
		<path class="st1" d="M554.8,288c0.9-0.1,1-0.1,3.1-0.2c5.7-0.1,9.7-0.3,13.5-0.9c1.2,2.7,1.5,3.2,2.9,5.7
			c-4.1,0.8-10.6,1.2-15.8,1.2c-2,0-2.9-0.1-4-0.1l0.1,3.3c0.9-0.1,1.1-0.1,3.5-0.2c9.3-0.3,12.6-0.6,17.5-1.4
			c1.8,3.1,3.8,6.1,5.4,7.7c-3.3-1.1-6-1.4-10.1-1.4c-9.5,0-15.2,3.2-15.2,8.6c0,2.6,1.4,4.9,3.8,6.2c2.5,1.4,5.7,2.1,10.3,2.1
			c4.5,0,8.7-0.6,12.8-1.8c2.3-0.7,2.3-0.7,3-0.9l-0.7-3.9c-3,1.8-9.6,3.3-14.8,3.3c-6.9,0-10.7-1.8-10.7-5.1
			c0-3.5,4.7-5.7,11.8-5.7c2.2,0,4.8,0.2,6.6,0.5c2.4,0.4,3.6,0.8,5.5,1.9l2.9-2.1c-3.8-4.5-4.4-5.2-7.3-9.9
			c1.8-0.3,4.3-0.9,7.8-1.8c1.7-0.4,1.9-0.4,2.7-0.6L589,289c-2.1,1-4.9,1.8-11.5,3.1c-0.8-1.4-2.1-4-2.9-5.6
			c2.8-0.5,8.2-1.6,12.6-2.8l-0.3-3.2c-2.8,1.2-7.5,2.3-13.4,3.3c-1.2-2.7-2.2-5.2-2.6-7.1l-3.8,0.6c0.4,0.7,1.4,3,3,6.9
			c-4.6,0.5-7.7,0.7-11.9,0.7c-1.7,0-2.5-0.1-3.8-0.1L554.8,288"/>
		<path class="st1" d="M554.7,344.5c0.8-0.1,1-0.1,2-0.1c6.6-0.1,12.8-0.6,17.8-1.3c0.3,0.5,0.3,0.6,0.8,1.7c2.2,4.2,3.4,6.2,6,9.8
			c-2.1-1.1-6-1.8-10.3-1.8c-4,0-7,0.5-9.7,1.8c-3.5,1.7-5.7,4.9-5.7,8.2c0,2,0.8,3.9,2.2,5.5c2.3,2.4,6.9,3.8,13,3.8
			c5,0,9.7-0.9,14.7-2.7l-0.5-3.8c-3.8,1.9-9.2,3.2-14.2,3.2c-4.3,0-7.9-0.9-9.8-2.3c-1.2-1-1.9-2.3-1.9-3.9c0-1.8,1-3.6,2.7-4.7
			c2.2-1.4,5.3-2.1,9.5-2.1c3.4,0,6.2,0.4,8.8,1.3c1.4,0.5,2.1,0.9,3.5,2l3.4-1.9c-3.5-4.6-7.2-10.6-9-14.6c0.5-0.1,0.5-0.1,1.7-0.3
			c3.2-0.6,3.8-0.8,6.8-1.6c1.5-0.4,1.9-0.5,3-0.7l-0.5-3.6c-2.7,1.1-7.2,2.3-12.1,3.1c-0.5-0.9-0.6-1.2-1.8-4.4
			c-1.2-3.2-1.2-3.2-1.5-4.5l-4,0.6c0.5,0.9,0.8,1.6,1.3,2.9c0.9,2.2,1.7,4.2,2.5,5.9c-4.7,0.7-10.3,1.1-14.9,1.1
			c-1.7,0-2.5-0.1-3.8-0.2L554.7,344.5"/>
		<path class="st1" d="M563.4,384.3c-0.1,2.3-0.9,6.6-1.7,9.4c-1,0-2.6,0-3.6,0c-2.8,0-4.2-0.1-5.9-0.4l-0.1,3.4c0.3,0,0.6,0,0.7,0
			c0.2,0,0.5,0,1.1,0.1c0.8,0,2.5,0.1,3.3,0.1c0.8,0,2.4-0.1,3.7-0.1c-1.4,4.8-2.9,8.4-5.2,12.9c-1.9,3.6-3.2,5.8-4.8,7.8l3.4,2
			c0.2-0.4,0.5-1,1-1.7c1.9-3.3,2.3-4.1,3.5-6.6c2.2-4.6,4-9.2,5.5-14.6c3.1-0.2,6.2-0.6,8.2-1.1c1.2-0.2,1.2-0.2,1.8-0.3l-0.1-3.4
			c-2.3,0.8-5.5,1.4-9,1.6c0.7-2.5,1-3.8,1.3-5.4c0.4-2.1,0.5-2.2,0.8-3.2L563.4,384.3 M592.9,398.1c-4-2.6-7.4-4.3-13.2-6.6
			l-1.9,2.8c5.2,1.9,9,3.9,13.2,6.8L592.9,398.1 M593,420.3c-0.4-0.2-0.4-0.2-0.9-0.8c-2.7-2.4-5.8-4.3-9.8-6.1
			c-0.3-1.9-0.5-5.4-0.5-7.6c0-1.8,0.1-2.8,0.6-4.6l-3.4-0.4c-0.4,1.9-0.5,3.1-0.5,4.9c0,1.2,0.1,3.6,0.3,6.8c-2-0.5-3.2-0.8-5-0.8
			c-2.2,0-4.2,0.4-5.9,1.1c-2.8,1.1-4.6,3.6-4.6,6.4c0,4.4,3.8,7.2,9.8,7.2c6.1,0,9.5-2.9,9.5-8c0-0.5,0-0.8-0.1-1.6
			c3.7,1.9,6.8,4.4,8.8,6.8L593,420.3 M579.1,415.7c0,0,0.1,1.5,0.1,2.1c0,3.8-2,5.4-6.2,5.4c-4,0-6.4-1.6-6.4-4.1
			c0-2.8,2.7-4.5,7-4.5C575.5,414.7,577,415,579.1,415.7"/>
		<path class="st1" d="M691.3,289.2c0.5-0.1,0.8-0.1,0.9-0.1c0,0,0.1,0,0.2,0c2,0.1,2.4,0.1,4.2,0.1c1.8,0,2.5,0,3.5-0.1
			c-1.9,9.8-5.7,21.2-9.4,27.6l3.7,1.6c2.6-6.1,4.1-9.9,5.8-15.2c1.3-4.6,2.8-10.2,3.5-14.1c2.5-0.2,5.9-0.7,8.5-1.2
			c1-0.2,1-0.2,1.4-0.2l-0.2-3.4c-2.4,0.8-5.1,1.3-9,1.7c0.2-1.5,0.4-2.2,0.7-3.8c0.6-3.6,0.6-3.6,0.9-4.8l-3.9-0.4
			c0,2.2-0.1,3.1-1.1,9.2c-1.5,0.1-2,0.1-3,0.1c-2.6,0-4.6-0.1-6.2-0.4V289.2 M729,291.6c-3.8-0.1-4.5-0.1-5.5-0.1
			c-4.2,0-7.4,0.4-13.2,1.6l0.4,3.4c4.5-1.2,8-1.7,12.5-1.7c2.1,0,3.5,0.1,5.9,0.4L729,291.6 M710.8,302.4c-2.6,3.4-3.3,4.9-3.3,7.2
			c0,4.9,4.2,7.5,12.5,7.5c2.6,0,5.5-0.2,8.9-0.9c1.7-0.2,1.7-0.2,2.2-0.3l-0.3-3.8c-2.9,1-7.3,1.7-11,1.7c-5.7,0-8.8-1.6-8.8-4.6
			c0-1.2,0.4-2.5,1.2-3.5c0.3-0.6,0.5-0.7,1.5-1.9L710.8,302.4"/>
		<path class="st1" d="M718.2,330.7c-1.8,2.8-8,8.6-14.7,13.7c-3.7,2.8-3.7,2.8-4.2,3.4c-1,1-1.5,2.2-1.5,3.4c0,1.7,0.8,2.8,3.6,5
			c7.3,5.7,9.3,7.4,12.6,10.4c3.3,3.1,5.2,5.2,6.5,6.9l3.2-3.1c-0.6-0.4-0.7-0.5-1.4-1.2c-7.3-6.9-8.8-8.1-16-13.6
			c-4-3.2-4.5-3.5-4.5-4.4c0-0.7,0.4-1.1,2.2-2.5c6.3-4.8,9-7.1,11.5-9.4c5.2-5,5.6-5.3,6.2-5.8L718.2,330.7"/>
		<path class="st1" d="M718.2,384.6c-1.8,2.8-8,8.6-14.7,13.7c-3.7,2.8-3.7,2.8-4.2,3.4c-1,1-1.5,2.1-1.5,3.3c0,1.7,0.8,2.8,3.6,5
			c7.3,5.7,9.3,7.4,12.6,10.5c3.3,3,5.2,5.1,6.5,6.8l3.2-3.1c-0.6-0.5-0.7-0.5-1.4-1.2c-7.3-7-8.8-8.1-16-13.7
			c-4-3.1-4.5-3.5-4.5-4.4c0-0.7,0.4-1.1,2.2-2.5c6.3-4.9,9-7.1,11.5-9.4c5.2-5,5.6-5.4,6.2-5.8L718.2,384.6"/>
		<path class="st1" d="M873.5,290.6c0.8-0.1,1-0.1,2-0.1c6.6-0.1,12.8-0.6,17.8-1.3c0.3,0.5,0.3,0.6,0.9,1.6c2.1,4.2,3.4,6.2,6,9.8
			c-2.1-1.1-6.1-1.8-10.4-1.8c-4,0-7,0.6-9.7,1.9c-3.5,1.7-5.7,4.8-5.7,8.1c0,2,0.8,3.9,2.2,5.5c2.3,2.4,6.9,3.8,13,3.8
			c5,0,9.7-0.8,14.7-2.7l-0.6-3.9c-3.8,2-9.2,3.2-14.2,3.2c-4.3,0-7.9-0.9-9.8-2.3c-1.2-1-1.9-2.4-1.9-3.9c0-1.8,1-3.6,2.7-4.6
			c2.2-1.4,5.3-2.1,9.5-2.1c3.4,0,6.2,0.5,8.8,1.3c1.4,0.5,2.1,0.9,3.5,2.1l3.3-1.9c-3.5-4.7-7.2-10.7-9-14.6
			c0.5-0.1,0.5-0.1,1.7-0.4c3.2-0.6,3.8-0.8,6.8-1.6c1.5-0.4,1.9-0.5,3-0.7l-0.5-3.6c-2.7,1.2-7.2,2.4-12.1,3.2
			c-0.4-0.9-0.6-1.2-1.8-4.4c-1.2-3.2-1.2-3.2-1.5-4.5l-3.9,0.6c0.4,0.9,0.8,1.6,1.3,2.9c0.9,2.2,1.7,4.2,2.4,5.9
			c-4.7,0.6-10.3,1.1-14.9,1.1c-1.7,0-2.5-0.1-3.8-0.2L873.5,290.6"/>
		<path class="st1" d="M873.5,344.5c0.8-0.1,1-0.1,2-0.1c6.6-0.1,12.8-0.6,17.8-1.3c0.3,0.5,0.3,0.6,0.9,1.7c2.1,4.2,3.4,6.2,6,9.8
			c-2.1-1.1-6.1-1.8-10.4-1.8c-4,0-7,0.5-9.7,1.8c-3.5,1.7-5.7,4.9-5.7,8.2c0,2,0.8,3.9,2.2,5.5c2.3,2.4,6.9,3.8,13,3.8
			c5,0,9.7-0.9,14.7-2.7l-0.6-3.8c-3.8,1.9-9.2,3.2-14.2,3.2c-4.3,0-7.9-0.9-9.8-2.3c-1.2-1-1.9-2.3-1.9-3.9c0-1.8,1-3.6,2.7-4.7
			c2.2-1.4,5.3-2.1,9.5-2.1c3.4,0,6.2,0.4,8.8,1.3c1.4,0.5,2.1,0.9,3.5,2l3.3-1.9c-3.5-4.6-7.2-10.6-9-14.6c0.5-0.1,0.5-0.1,1.7-0.3
			c3.2-0.6,3.8-0.8,6.8-1.6c1.5-0.4,1.9-0.5,3-0.7l-0.5-3.6c-2.7,1.1-7.2,2.3-12.1,3.1c-0.4-0.9-0.6-1.2-1.8-4.4
			c-1.2-3.2-1.2-3.2-1.5-4.5l-3.9,0.6c0.4,0.9,0.8,1.6,1.3,2.9c0.9,2.2,1.7,4.2,2.4,5.9c-4.7,0.7-10.3,1.1-14.9,1.1
			c-1.7,0-2.5-0.1-3.8-0.2L873.5,344.5"/>
		<path class="st1" d="M873.5,398.4c0.8-0.1,1-0.2,2-0.2c6.6-0.1,12.8-0.6,17.8-1.3c0.3,0.5,0.3,0.6,0.9,1.6c2.1,4.2,3.4,6.2,6,9.8
			c-2.1-1.1-6.1-1.8-10.4-1.8c-4,0-7,0.6-9.7,1.9c-3.5,1.7-5.7,4.8-5.7,8.1c0,2,0.8,3.9,2.2,5.5c2.3,2.4,6.9,3.8,13,3.8
			c5,0,9.7-0.9,14.7-2.7l-0.6-3.9c-3.8,1.9-9.2,3.2-14.2,3.2c-4.3,0-7.9-0.8-9.8-2.3c-1.2-1-1.9-2.4-1.9-3.9c0-1.8,1-3.6,2.7-4.6
			c2.2-1.4,5.3-2.1,9.5-2.1c3.4,0,6.2,0.4,8.8,1.3c1.4,0.5,2.1,0.9,3.5,2.1l3.3-1.9c-3.5-4.6-7.2-10.6-9-14.5
			c0.5-0.1,0.5-0.1,1.7-0.4c3.2-0.6,3.8-0.8,6.8-1.6c1.5-0.4,1.9-0.5,3-0.7l-0.5-3.6c-2.7,1.2-7.2,2.4-12.1,3.2
			c-0.4-1-0.6-1.2-1.8-4.4c-1.2-3.2-1.2-3.2-1.5-4.5l-3.9,0.6c0.4,0.9,0.8,1.6,1.3,2.9c0.9,2.2,1.7,4.2,2.4,6
			c-4.7,0.6-10.3,1-14.9,1c-1.7,0-2.5,0-3.8-0.2L873.5,398.4"/>
		<path class="st1" d="M1017.8,277.8c0.3,0.8,0.4,1.1,0.9,3.2c1.3,6.4,2.2,9.9,3.6,14c-3.1,1.5-4.6,2.5-6.5,4
			c-3,2.4-4.5,5.3-4.5,8.5c0,4,2.1,6.7,6.2,8.2c2.4,0.9,6.2,1.3,11.1,1.3c3.5,0,5.9-0.1,11.1-0.6c2.8-0.3,2.8-0.3,3.7-0.3l-0.4-4.1
			c-2.9,1-8.5,1.7-14.3,1.7c-9.8,0-13.6-1.8-13.6-6.3c0-4.1,3.7-7.4,12.2-10.9c4.4-1.8,11.5-4.1,15-4.8l-1.5-3.8
			c-1,0.5-1.4,0.6-3.2,1.3c-7.8,2.7-9.2,3.2-12.1,4.4c-1.7-5-3.5-13.2-3.7-16.6L1017.8,277.8"/>
		<path class="st1" d="M1017.8,331.7c0.3,0.8,0.4,1,0.9,3.1c1.3,6.4,2.2,9.9,3.6,14c-3.1,1.6-4.6,2.5-6.5,4.1
			c-3,2.4-4.5,5.3-4.5,8.5c0,3.9,2.1,6.7,6.2,8.2c2.4,0.9,6.2,1.4,11.1,1.4c3.5,0,5.9-0.2,11.1-0.7c2.8-0.3,2.8-0.3,3.7-0.3
			l-0.4-4.1c-2.9,1.1-8.5,1.7-14.3,1.7c-9.8,0-13.6-1.8-13.6-6.3c0-4.1,3.7-7.4,12.2-10.8c4.4-1.8,11.5-4.1,15-4.9l-1.5-3.8
			c-1,0.5-1.4,0.7-3.2,1.3c-7.8,2.7-9.2,3.2-12.1,4.4c-1.7-5-3.5-13.2-3.7-16.5L1017.8,331.7"/>
		<path class="st1" d="M1017.8,385.6c0.3,0.8,0.4,1.1,0.9,3.1c1.3,6.4,2.2,9.9,3.6,14c-3.1,1.6-4.6,2.5-6.5,4.1
			c-3,2.4-4.5,5.3-4.5,8.5c0,3.9,2.1,6.7,6.2,8.2c2.4,0.9,6.2,1.4,11.1,1.4c3.5,0,5.9-0.1,11.1-0.6c2.8-0.3,2.8-0.3,3.7-0.3
			l-0.4-4.2c-2.9,1.1-8.5,1.7-14.3,1.7c-9.8,0-13.6-1.8-13.6-6.3c0-4.2,3.7-7.4,12.2-10.9c4.4-1.8,11.5-4.1,15-4.8l-1.5-3.8
			c-1,0.5-1.4,0.6-3.2,1.3c-7.8,2.7-9.2,3.2-12.1,4.4c-1.7-5-3.5-13.2-3.7-16.6L1017.8,385.6"/>
		<path class="st1" d="M1096.8,278.1c-0.1,1.2-0.2,1.7-0.7,4c-1.6,7.4-2.2,12.7-2.2,19.8c0,5.2,0.4,8.9,1.3,14.1
			c0.2,1,0.2,1.2,0.3,2l3.6-0.3c0-0.4,0-0.6,0-0.8c0-2.8,1.8-8.8,4-13.8l-2.4-1.2c-1.6,3.7-2.6,6.4-3.2,9.8
			c-0.2-2.6-0.3-5.6-0.3-9.5c0-6,0.4-10.4,1.5-15.6c0.8-3.4,1.3-5.9,2.1-8L1096.8,278.1 M1107.1,287.5c3.2,0.4,5.2,0.5,8,0.5
			c3.9,0,7.9-0.2,10.8-0.6c2.2-0.3,3.4-0.4,3.5-0.4l-0.2-3.6c-3.3,0.9-7.8,1.4-13.4,1.4c-3.9,0-6.3-0.2-8.5-0.8L1107.1,287.5
			 M1110.8,297.3c-3.1,3.6-4.3,6.2-4.3,9.3c0,1.9,0.5,3.4,1.5,4.6c2.2,2.6,5.8,3.8,11.4,3.8c3.4,0,6.8-0.3,10.2-1
			c1-0.2,1.1-0.2,1.8-0.2l-0.5-3.9c-2.7,1.1-6.9,1.8-11.5,1.8c-6.4,0-9.6-1.8-9.6-5.5c0-2.2,1.2-4.6,3.8-7.4L1110.8,297.3"/>
		<path class="st1" d="M1096.8,332c-0.1,1.1-0.2,1.6-0.7,4c-1.6,7.4-2.2,12.7-2.2,19.8c0,5.2,0.4,8.9,1.3,14.2
			c0.2,0.9,0.2,1.2,0.3,2l3.6-0.3c0-0.4,0-0.6,0-0.8c0-2.8,1.8-8.8,4-13.8l-2.4-1.1c-1.6,3.6-2.6,6.4-3.2,9.8
			c-0.2-2.7-0.3-5.6-0.3-9.5c0-6,0.4-10.4,1.5-15.7c0.8-3.4,1.3-5.8,2.1-8L1096.8,332 M1107.1,341.4c3.2,0.3,5.2,0.5,8,0.5
			c3.9,0,7.9-0.2,10.8-0.7c2.2-0.3,3.4-0.4,3.5-0.4l-0.2-3.6c-3.3,0.9-7.8,1.4-13.4,1.4c-3.9,0-6.3-0.2-8.5-0.8L1107.1,341.4
			 M1110.8,351.2c-3.1,3.6-4.3,6.2-4.3,9.3c0,1.8,0.5,3.3,1.5,4.6c2.2,2.6,5.8,3.8,11.4,3.8c3.4,0,6.8-0.3,10.2-1
			c1-0.1,1.1-0.2,1.8-0.2l-0.5-3.9c-2.7,1.1-6.9,1.8-11.5,1.8c-6.4,0-9.6-1.8-9.6-5.5c0-2.2,1.2-4.6,3.8-7.3L1110.8,351.2"/>
		<path class="st1" d="M1090.8,395.7c1.8-0.5,7.3-1,17.2-1.7c5.2-0.3,8.2-0.6,11-1.1c-1.9,0.9-3.2,1.6-4.8,2.6
			c-5.9,4.1-9.3,9.6-9.3,15.4c0,4.1,2,7.8,5.6,10.2c2.8,1.9,5.8,3,10.8,3.8c0.9,0.2,1,0.2,1.6,0.3l0.7-4.1c-0.2,0-0.4,0-0.5,0
			c-1.9,0-5.1-0.7-7.5-1.6c-4.5-1.7-7-5.1-7-9.2c0-4.2,2.2-8.2,6.2-11.6c2.8-2.4,6.2-4.1,9.6-5c1.9-0.5,3.6-0.7,5.6-0.7l-0.3-3.7
			c-0.7,0.2-1.6,0.3-5.9,0.5l-2.8,0.1c-1.7,0.1-2.3,0.1-8.5,0.4l-7.8,0.5c-6.2,0.4-6.4,0.4-9.2,0.6c-1.5,0.1-2.2,0.1-2.8,0.1
			c-0.3,0-0.8,0-1.8-0.1L1090.8,395.7 M1121.5,400.5c1.5,1.6,3.9,5.3,5.1,8l2.6-1.5c-1.5-3-2.9-5.1-5.2-7.8L1121.5,400.5
			 M1127.2,397.8c2,2.3,4,5.5,5.1,7.9l2.5-1.4c-1.6-3.1-2.9-5-5.1-7.8L1127.2,397.8"/>
		<path class="st1" d="M1180.9,288c0.9-0.1,1-0.1,3.1-0.2c5.6-0.1,9.6-0.3,13.5-0.9c1.2,2.7,1.5,3.2,2.8,5.7
			c-4.1,0.8-10.6,1.2-15.8,1.2c-2,0-2.9-0.1-4-0.1l0.1,3.3c0.9-0.1,1.1-0.1,3.5-0.2c9.3-0.3,12.6-0.6,17.6-1.4
			c1.8,3.1,3.8,6.1,5.3,7.7c-3.3-1.1-6-1.4-10.1-1.4c-9.5,0-15.2,3.2-15.2,8.6c0,2.6,1.3,4.9,3.8,6.2c2.5,1.4,5.7,2.1,10.3,2.1
			c4.5,0,8.7-0.6,12.8-1.8c2.3-0.7,2.3-0.7,3-0.9l-0.7-3.9c-3,1.8-9.6,3.3-14.8,3.3c-6.8,0-10.7-1.8-10.7-5.1
			c0-3.5,4.7-5.7,11.8-5.7c2.2,0,4.8,0.2,6.6,0.5c2.4,0.4,3.6,0.8,5.5,1.9l2.9-2.1c-3.8-4.5-4.4-5.2-7.3-9.9
			c1.8-0.3,4.3-0.9,7.8-1.8c1.7-0.4,1.8-0.4,2.7-0.6l-0.4-3.4c-2.1,1-4.8,1.8-11.5,3.1c-0.8-1.4-2.1-4-2.8-5.6
			c2.8-0.5,8.2-1.6,12.6-2.8l-0.3-3.2c-2.8,1.2-7.5,2.3-13.3,3.3c-1.2-2.7-2.2-5.2-2.7-7.1l-3.8,0.6c0.4,0.7,1.4,3,3,6.9
			c-4.6,0.5-7.7,0.7-11.8,0.7c-1.7,0-2.6-0.1-3.8-0.1L1180.9,288"/>
		<path class="st1" d="M1180.8,344.5c0.8-0.1,1-0.1,1.9-0.1c6.6-0.1,12.9-0.6,17.8-1.3c0.3,0.5,0.3,0.6,0.8,1.7
			c2.2,4.2,3.4,6.2,6,9.8c-2.1-1.1-6-1.8-10.3-1.8c-4.1,0-7.1,0.5-9.7,1.8c-3.5,1.7-5.7,4.9-5.7,8.2c0,2,0.8,3.9,2.2,5.5
			c2.3,2.4,6.9,3.8,13,3.8c4.9,0,9.7-0.9,14.7-2.7l-0.5-3.8c-3.8,1.9-9.2,3.2-14.2,3.2c-4.3,0-7.9-0.9-9.8-2.3
			c-1.2-1-1.9-2.3-1.9-3.9c0-1.8,1.1-3.6,2.7-4.7c2.2-1.4,5.3-2.1,9.5-2.1c3.4,0,6.2,0.4,8.8,1.3c1.4,0.5,2.1,0.9,3.4,2l3.3-1.9
			c-3.5-4.6-7.2-10.6-9-14.6c0.5-0.1,0.5-0.1,1.7-0.3c3.2-0.6,3.8-0.8,6.8-1.6c1.5-0.4,1.9-0.5,2.9-0.7l-0.5-3.6
			c-2.7,1.1-7.2,2.3-12.1,3.1c-0.4-0.9-0.6-1.2-1.8-4.4c-1.2-3.2-1.2-3.2-1.4-4.5l-3.9,0.6c0.4,0.9,0.8,1.6,1.3,2.9
			c0.9,2.2,1.7,4.2,2.5,5.9c-4.7,0.7-10.4,1.1-14.9,1.1c-1.7,0-2.6-0.1-3.8-0.2L1180.8,344.5"/>
		<path class="st1" d="M1189.5,384.3c-0.1,2.3-0.9,6.6-1.7,9.4c-0.9,0-2.6,0-3.6,0c-2.8,0-4.2-0.1-6-0.4l0,3.4c0.3,0,0.5,0,0.7,0
			c0.1,0,0.5,0,1.1,0.1c0.8,0,2.4,0.1,3.3,0.1c0.8,0,2.5-0.1,3.7-0.1c-1.5,4.8-2.9,8.4-5.2,12.9c-1.8,3.6-3.2,5.8-4.8,7.8l3.4,2
			c0.2-0.4,0.5-1,1-1.7c1.9-3.3,2.3-4.1,3.5-6.6c2.2-4.6,4-9.2,5.6-14.6c3-0.2,6.2-0.6,8.2-1.1c1.2-0.2,1.2-0.2,1.8-0.3l-0.2-3.4
			c-2.3,0.8-5.4,1.4-8.9,1.6c0.7-2.5,1-3.8,1.3-5.4c0.4-2.1,0.5-2.2,0.8-3.2L1189.5,384.3 M1219,398.1c-4.1-2.6-7.4-4.3-13.2-6.6
			l-1.8,2.8c5.2,1.9,9.1,3.9,13.2,6.8L1219,398.1 M1219.1,420.3c-0.3-0.2-0.3-0.2-0.9-0.8c-2.7-2.4-5.8-4.3-9.8-6.1
			c-0.3-1.9-0.6-5.4-0.6-7.6c0-1.8,0.2-2.8,0.7-4.6l-3.4-0.4c-0.4,1.9-0.5,3.1-0.5,4.9c0,1.2,0.1,3.6,0.3,6.8
			c-1.9-0.5-3.2-0.8-5-0.8c-2.2,0-4.2,0.4-5.9,1.1c-2.8,1.1-4.7,3.6-4.7,6.4c0,4.4,3.8,7.2,9.8,7.2c6.1,0,9.5-2.9,9.5-8
			c0-0.5,0-0.8-0.1-1.6c3.7,1.9,6.8,4.4,8.8,6.8L1219.1,420.3 M1205.2,415.7c0,0,0.1,1.5,0.1,2.1c0,3.8-1.9,5.4-6.2,5.4
			c-3.9,0-6.3-1.6-6.3-4.1c0-2.8,2.7-4.5,7-4.5C1201.6,414.7,1203.1,415,1205.2,415.7"/>
		<path class="st1" d="M1315.1,289.2c0.4-0.1,0.8-0.1,0.8-0.1c0,0,0.1,0,0.2,0c2,0.1,2.4,0.1,4.2,0.1c1.8,0,2.5,0,3.5-0.1
			c-1.9,9.8-5.7,21.2-9.4,27.6l3.7,1.6c2.6-6.1,4.1-9.9,5.8-15.2c1.3-4.6,2.8-10.2,3.5-14.1c2.4-0.2,5.9-0.7,8.4-1.2
			c1-0.2,1-0.2,1.4-0.2l-0.2-3.4c-2.4,0.8-5.1,1.3-9,1.7c0.2-1.5,0.4-2.2,0.7-3.8c0.6-3.6,0.6-3.6,0.9-4.8l-3.9-0.4
			c0,2.2-0.1,3.1-1.1,9.2c-1.5,0.1-2,0.1-3,0.1c-2.7,0-4.7-0.1-6.2-0.4V289.2 M1352.8,291.6c-3.8-0.1-4.5-0.1-5.5-0.1
			c-4.2,0-7.4,0.4-13.2,1.6l0.4,3.4c4.5-1.2,8-1.7,12.5-1.7c2.1,0,3.5,0.1,5.9,0.4L1352.8,291.6 M1334.6,302.4
			c-2.6,3.4-3.3,4.9-3.3,7.2c0,4.9,4.2,7.5,12.5,7.5c2.6,0,5.5-0.2,8.9-0.9c1.7-0.2,1.7-0.2,2.2-0.3l-0.3-3.8
			c-2.9,1-7.3,1.7-11.1,1.7c-5.7,0-8.8-1.6-8.8-4.6c0-1.2,0.4-2.5,1.2-3.5c0.3-0.6,0.5-0.7,1.5-1.9L1334.6,302.4"/>
		<path class="st1" d="M1342,330.7c-1.8,2.8-8,8.6-14.6,13.7c-3.7,2.8-3.7,2.8-4.2,3.4c-1,1-1.5,2.2-1.5,3.4c0,1.7,0.8,2.8,3.6,5
			c7.3,5.7,9.3,7.4,12.7,10.4c3.3,3.1,5.2,5.2,6.5,6.9l3.1-3.1c-0.5-0.4-0.6-0.5-1.4-1.2c-7.4-6.9-8.8-8.1-16-13.6
			c-4.1-3.2-4.5-3.5-4.5-4.4c0-0.7,0.3-1.1,2.2-2.5c6.3-4.8,9-7.1,11.5-9.4c5.2-5,5.6-5.3,6.1-5.8L1342,330.7"/>
		<path class="st1" d="M1342,384.6c-1.8,2.8-8,8.6-14.6,13.7c-3.7,2.8-3.7,2.8-4.2,3.4c-1,1-1.5,2.1-1.5,3.3c0,1.7,0.8,2.8,3.6,5
			c7.3,5.7,9.3,7.4,12.7,10.5c3.3,3,5.2,5.1,6.5,6.8l3.1-3.1c-0.5-0.5-0.6-0.5-1.4-1.2c-7.4-7-8.8-8.1-16-13.7
			c-4.1-3.1-4.5-3.5-4.5-4.4c0-0.7,0.3-1.1,2.2-2.5c6.3-4.9,9-7.1,11.5-9.4c5.2-5,5.6-5.4,6.1-5.8L1342,384.6"/>
		<path class="st1" d="M1517.5,283.9c2.5,0.1,4,0.4,5.8,1.2c5.1,2.2,7.9,6.8,7.9,12.6c0,6.1-3.3,11.5-8.8,14
			c-2.3,1.1-4.7,1.8-8.3,2.3c0.9,1.2,1.2,1.7,1.8,3.4c3.4-0.8,5.3-1.4,7.6-2.3c7.2-3.1,11.5-9.5,11.5-17.2c0-4.8-1.7-9.1-4.9-12.2
			c-3.2-3.2-8.1-4.9-13.8-4.9c-6.7,0-12.1,2.2-16.1,6.6c-3.4,3.8-5.2,8.7-5.2,13.8c0,7,3.5,12.2,8.3,12.2c3.6,0,6.6-3,9.5-9.6
			C1514.9,298.5,1516.8,290.9,1517.5,283.9 M1513.9,284c-0.7,6.4-2.5,13.8-4.5,18.5c-2.2,4.9-4.2,7.2-6.2,7.2
			c-2.7,0-4.8-3.7-4.8-8.5c0-6.2,3.1-11.9,8.2-14.9C1508.8,284.9,1510.9,284.2,1513.9,284"/>
		<path class="st1" d="M1517.5,337.8c2.5,0.1,4,0.4,5.8,1.2c5.1,2.2,7.9,6.9,7.9,12.6c0,6.1-3.3,11.5-8.8,14
			c-2.3,1.1-4.7,1.8-8.3,2.4c0.9,1.2,1.2,1.7,1.8,3.3c3.4-0.8,5.3-1.3,7.6-2.3c7.2-3.1,11.5-9.5,11.5-17.2c0-4.8-1.7-9.1-4.9-12.2
			c-3.2-3.2-8.1-4.9-13.8-4.9c-6.7,0-12.1,2.2-16.1,6.6c-3.4,3.8-5.2,8.7-5.2,13.8c0,7,3.5,12.2,8.3,12.2c3.6,0,6.6-3,9.5-9.6
			C1514.9,352.4,1516.8,344.8,1517.5,337.8 M1513.9,337.9c-0.7,6.4-2.5,13.8-4.5,18.5c-2.2,4.9-4.2,7.2-6.2,7.2
			c-2.7,0-4.8-3.7-4.8-8.5c0-6.2,3.1-11.9,8.2-14.9C1508.8,338.8,1510.9,338.1,1513.9,337.9"/>
		<path class="st1" d="M1517.5,391.7c2.5,0.1,4,0.4,5.8,1.2c5.1,2.2,7.9,6.8,7.9,12.5c0,6.2-3.3,11.5-8.8,14
			c-2.3,1.1-4.7,1.8-8.3,2.4c0.9,1.2,1.2,1.7,1.8,3.4c3.4-0.8,5.3-1.4,7.6-2.3c7.2-3.1,11.5-9.5,11.5-17.2c0-4.8-1.7-9.2-4.9-12.2
			c-3.2-3.2-8.1-5-13.8-5c-6.7,0-12.1,2.2-16.1,6.7c-3.4,3.8-5.2,8.7-5.2,13.8c0,7,3.5,12.2,8.3,12.2c3.6,0,6.6-3,9.5-9.6
			C1514.9,406.3,1516.8,398.7,1517.5,391.7 M1513.9,391.8c-0.7,6.4-2.5,13.8-4.5,18.5c-2.2,4.9-4.2,7.2-6.2,7.2
			c-2.7,0-4.8-3.7-4.8-8.5c0-6.2,3.1-11.8,8.2-14.9C1508.8,392.7,1510.9,392,1513.9,391.8"/>
		<path class="st1" d="M1643.3,278.1c-0.1,1.2-0.2,1.7-0.7,4c-1.7,7.4-2.2,12.7-2.2,19.8c0,5.2,0.3,8.9,1.3,14.1
			c0.1,1,0.2,1.2,0.3,2l3.6-0.3c0-0.4,0-0.6,0-0.8c0-2.8,1.8-8.8,4.1-13.8l-2.4-1.2c-1.6,3.7-2.5,6.4-3.2,9.8
			c-0.2-2.6-0.3-5.6-0.3-9.5c0-6,0.4-10.4,1.5-15.6c0.8-3.4,1.3-5.9,2.1-8L1643.3,278.1 M1653.6,287.5c3.2,0.4,5.2,0.5,8,0.5
			c3.8,0,7.8-0.2,10.8-0.6c2.2-0.3,3.3-0.4,3.4-0.4l-0.2-3.6c-3.3,0.9-7.8,1.4-13.4,1.4c-3.9,0-6.4-0.2-8.5-0.8L1653.6,287.5
			 M1657.2,297.3c-3.1,3.6-4.3,6.2-4.3,9.3c0,1.9,0.5,3.4,1.5,4.6c2.1,2.6,5.8,3.8,11.4,3.8c3.4,0,6.8-0.3,10.2-1
			c1-0.2,1.1-0.2,1.8-0.2l-0.5-3.9c-2.7,1.1-6.9,1.8-11.5,1.8c-6.4,0-9.6-1.8-9.6-5.5c0-2.2,1.2-4.6,3.8-7.4L1657.2,297.3"/>
		<path class="st1" d="M1643.3,332c-0.1,1.1-0.2,1.6-0.7,4c-1.7,7.4-2.2,12.7-2.2,19.8c0,5.2,0.3,8.9,1.3,14.2
			c0.1,0.9,0.2,1.2,0.3,2l3.6-0.3c0-0.4,0-0.6,0-0.8c0-2.8,1.8-8.8,4.1-13.8l-2.4-1.1c-1.6,3.6-2.5,6.4-3.2,9.8
			c-0.2-2.7-0.3-5.6-0.3-9.5c0-6,0.4-10.4,1.5-15.7c0.8-3.4,1.3-5.8,2.1-8L1643.3,332 M1653.6,341.4c3.2,0.3,5.2,0.5,8,0.5
			c3.8,0,7.8-0.2,10.8-0.7c2.2-0.3,3.3-0.4,3.4-0.4l-0.2-3.6c-3.3,0.9-7.8,1.4-13.4,1.4c-3.9,0-6.4-0.2-8.5-0.8L1653.6,341.4
			 M1657.2,351.2c-3.1,3.6-4.3,6.2-4.3,9.3c0,1.8,0.5,3.3,1.5,4.6c2.1,2.6,5.8,3.8,11.4,3.8c3.4,0,6.8-0.3,10.2-1
			c1-0.1,1.1-0.2,1.8-0.2l-0.5-3.9c-2.7,1.1-6.9,1.8-11.5,1.8c-6.4,0-9.6-1.8-9.6-5.5c0-2.2,1.2-4.6,3.8-7.3L1657.2,351.2"/>
		<path class="st1" d="M1637.2,395.7c1.8-0.5,7.3-1,17.2-1.7c5.2-0.3,8.2-0.6,11-1.1c-1.9,0.9-3.2,1.6-4.8,2.6
			c-5.9,4.1-9.3,9.6-9.3,15.4c0,4.1,2,7.8,5.5,10.2c2.9,1.9,5.9,3,10.8,3.8c0.9,0.2,1,0.2,1.6,0.3l0.6-4.1c-0.2,0-0.4,0-0.5,0
			c-1.9,0-5-0.7-7.5-1.6c-4.4-1.7-7-5.1-7-9.2c0-4.2,2.2-8.2,6.2-11.6c2.8-2.4,6.2-4.1,9.6-5c1.9-0.5,3.6-0.7,5.6-0.7l-0.3-3.7
			c-0.7,0.2-1.7,0.3-5.9,0.5l-2.9,0.1c-1.6,0.1-2.3,0.1-8.4,0.4l-7.8,0.5c-6.2,0.4-6.5,0.4-9.2,0.6c-1.6,0.1-2.2,0.1-2.8,0.1
			c-0.4,0-0.9,0-1.8-0.1L1637.2,395.7 M1667.9,400.5c1.5,1.6,3.9,5.3,5.1,8l2.5-1.5c-1.5-3-2.9-5.1-5.2-7.8L1667.9,400.5
			 M1673.6,397.8c1.9,2.3,4,5.5,5.1,7.9l2.5-1.4c-1.7-3.1-2.9-5-5.2-7.8L1673.6,397.8"/>
		<path class="st1" d="M1785.2,300.3c0.6,0.1,0.8,0.1,1.6,0.3c2.2,0.6,4.5,0.9,7.5,1.2c0,0.4,0,0.4-0.1,1.2
			c-0.2,1.2-0.2,2.2-0.2,3.3c0,2.9,0.5,5.2,1.5,6.9c2,3.2,6,5,11.2,5c8.8,0,14.7-4.8,14.7-11.8c0-3.7-1.2-6.1-4.7-10
			c-1.4,0.7-2,0.8-3.7,1c3.2,2.8,4.8,5.6,4.8,8.7c0,5.3-4.3,8.8-11,8.8c-3.1,0-5.5-0.8-7.1-2.2c-1.5-1.3-2.3-3.2-2.3-6
			c0-0.8,0.1-2.5,0.2-3.7c0.1-0.6,0.1-0.6,0.1-1c2.2,0.1,3,0.1,4.3,0.1c2.3,0,4.5-0.1,7.1-0.4c0.7-0.1,0.8-0.1,1.3-0.1l0.1-3.4
			c-1.9,0.5-5.6,0.8-9.2,0.8c-0.7,0-1.4,0-3.3-0.1c0.3-2.8,0.3-3.3,1.2-9.1c2.8,0.1,3.6,0.1,4.4,0.1c1.4,0,2.9-0.1,4.5-0.2
			c2.5-0.2,2.5-0.2,3.5-0.3l0.2-3.4c-2.2,0.5-5.4,0.8-9.2,0.8c-0.8,0-1.5,0-2.9-0.1c0.2-1.4,0.3-1.9,0.5-3c0.4-2.8,0.4-2.8,0.5-3.2
			c0.3-1.8,0.5-2.4,0.8-3.3l-4-0.5c0,0.2,0,0.3,0,0.4c0,1.3-0.4,4.6-1.2,9.4c-3.5-0.3-6.8-1.1-9-1.9l-0.4,3.3
			c0.7,0.1,0.9,0.2,1.5,0.3c3,0.7,5.1,1.1,7.5,1.4c-0.4,2.6-0.9,6.6-1.2,9c-3.8-0.4-6.9-1.1-8.9-2L1785.2,300.3"/>
		<path class="st1" d="M1785.2,354.2c0.6,0,0.8,0,1.6,0.3c2.2,0.6,4.5,1,7.5,1.2c0,0.5,0,0.5-0.1,1.2c-0.2,1.2-0.2,2.2-0.2,3.3
			c0,2.9,0.5,5.2,1.5,6.9c2,3.2,6,5,11.2,5c8.8,0,14.7-4.8,14.7-11.8c0-3.6-1.2-6.1-4.7-9.9c-1.4,0.6-2,0.8-3.7,1
			c3.2,2.8,4.8,5.6,4.8,8.7c0,5.3-4.3,8.8-11,8.8c-3.1,0-5.5-0.8-7.1-2.1c-1.5-1.4-2.3-3.2-2.3-6c0-0.9,0.1-2.5,0.2-3.7
			c0.1-0.6,0.1-0.6,0.1-1c2.2,0.1,3,0.1,4.3,0.1c2.3,0,4.5-0.1,7.1-0.4c0.7-0.1,0.8-0.1,1.3-0.1l0.1-3.4c-1.9,0.5-5.6,0.8-9.2,0.8
			c-0.7,0-1.4,0-3.3-0.1c0.3-2.8,0.3-3.3,1.2-9c2.8,0.1,3.6,0.1,4.4,0.1c1.4,0,2.9-0.1,4.5-0.2c2.5-0.2,2.5-0.2,3.5-0.3l0.2-3.4
			c-2.2,0.6-5.4,0.9-9.2,0.9c-0.8,0-1.5,0-2.9-0.1c0.2-1.4,0.3-1.9,0.5-3c0.4-2.8,0.4-2.8,0.5-3.2c0.3-1.8,0.5-2.4,0.8-3.4l-4-0.4
			c0,0.2,0,0.3,0,0.4c0,1.3-0.4,4.6-1.2,9.4c-3.5-0.3-6.8-1.1-9-2l-0.4,3.3c0.7,0.2,0.9,0.2,1.5,0.4c3,0.7,5.1,1.1,7.5,1.3
			c-0.4,2.7-0.9,6.6-1.2,9c-3.8-0.4-6.9-1.1-8.9-2L1785.2,354.2"/>
		<path class="st1" d="M1785.2,408.1c0.6,0.1,0.8,0.1,1.6,0.3c2.2,0.6,4.5,0.9,7.5,1.2c0,0.4,0,0.4-0.1,1.2
			c-0.2,1.2-0.2,2.2-0.2,3.3c0,2.8,0.5,5.2,1.5,6.9c2,3.2,6,5,11.2,5c8.8,0,14.7-4.8,14.7-11.8c0-3.6-1.2-6.1-4.7-9.9
			c-1.4,0.7-2,0.8-3.7,1c3.2,2.8,4.8,5.6,4.8,8.7c0,5.3-4.3,8.8-11,8.8c-3.1,0-5.5-0.8-7.1-2.1c-1.5-1.4-2.3-3.2-2.3-6
			c0-0.9,0.1-2.5,0.2-3.7c0.1-0.7,0.1-0.7,0.1-1c2.2,0.1,3,0.1,4.3,0.1c2.3,0,4.5-0.1,7.1-0.4c0.7-0.1,0.8-0.1,1.3-0.1l0.1-3.3
			c-1.9,0.5-5.6,0.8-9.2,0.8c-0.7,0-1.4,0-3.3-0.1c0.3-2.8,0.3-3.3,1.2-9.1c2.8,0.1,3.6,0.1,4.4,0.1c1.4,0,2.9-0.1,4.5-0.2
			c2.5-0.2,2.5-0.2,3.5-0.3l0.2-3.5c-2.2,0.6-5.4,0.9-9.2,0.9c-0.8,0-1.5,0-2.9-0.1c0.2-1.4,0.3-1.9,0.5-3c0.4-2.8,0.4-2.8,0.5-3.2
			c0.3-1.8,0.5-2.4,0.8-3.4l-4-0.4c0,0.2,0,0.3,0,0.4c0,1.3-0.4,4.6-1.2,9.4c-3.5-0.3-6.8-1.1-9-1.9l-0.4,3.3
			c0.7,0.1,0.9,0.2,1.5,0.3c3,0.7,5.1,1.1,7.5,1.4c-0.4,2.6-0.9,6.6-1.2,9c-3.8-0.4-6.9-1.1-8.9-2L1785.2,408.1"/>
		<path class="st1" d="M1962,288c0.9-0.1,1-0.1,3.1-0.2c5.6-0.1,9.6-0.3,13.5-0.9c1.2,2.7,1.6,3.2,2.9,5.7
			c-4.1,0.8-10.6,1.2-15.8,1.2c-2,0-2.9-0.1-4-0.1l0.1,3.3c0.9-0.1,1.1-0.1,3.5-0.2c9.4-0.3,12.6-0.6,17.6-1.4
			c1.8,3.1,3.8,6.1,5.4,7.7c-3.3-1.1-6-1.4-10.1-1.4c-9.5,0-15.2,3.2-15.2,8.6c0,2.6,1.4,4.9,3.8,6.2c2.6,1.4,5.7,2.1,10.3,2.1
			c4.4,0,8.7-0.6,12.8-1.8c2.3-0.7,2.3-0.7,3-0.9l-0.7-3.9c-3,1.8-9.6,3.3-14.8,3.3c-6.9,0-10.7-1.8-10.7-5.1
			c0-3.5,4.7-5.7,11.9-5.7c2.2,0,4.8,0.2,6.6,0.5c2.4,0.4,3.6,0.8,5.5,1.9l2.9-2.1c-3.9-4.5-4.4-5.2-7.4-9.9
			c1.9-0.3,4.4-0.9,7.9-1.8c1.6-0.4,1.8-0.4,2.7-0.6l-0.4-3.4c-2.1,1-4.9,1.8-11.5,3.1c-0.8-1.4-2.1-4-2.8-5.6
			c2.8-0.5,8.1-1.6,12.6-2.8l-0.3-3.2c-2.8,1.2-7.5,2.3-13.4,3.3c-1.2-2.7-2.2-5.2-2.6-7.1l-3.8,0.6c0.4,0.7,1.4,3,3,6.9
			c-4.6,0.5-7.7,0.7-11.9,0.7c-1.7,0-2.6-0.1-3.8-0.1L1962,288"/>
		<path class="st1" d="M1961.9,344.5c0.8-0.1,1-0.1,1.9-0.1c6.6-0.1,12.8-0.6,17.8-1.3c0.3,0.5,0.3,0.6,0.8,1.7
			c2.2,4.2,3.4,6.2,6,9.8c-2.1-1.1-6.1-1.8-10.3-1.8c-4.1,0-7.1,0.5-9.7,1.8c-3.5,1.7-5.6,4.9-5.6,8.2c0,2,0.8,3.9,2.2,5.5
			c2.3,2.4,6.9,3.8,13,3.8c4.9,0,9.7-0.9,14.7-2.7l-0.6-3.8c-3.8,1.9-9.2,3.2-14.2,3.2c-4.3,0-7.9-0.9-9.8-2.3
			c-1.2-1-1.9-2.3-1.9-3.9c0-1.8,1.1-3.6,2.7-4.7c2.2-1.4,5.3-2.1,9.5-2.1c3.4,0,6.2,0.4,8.8,1.3c1.4,0.5,2.1,0.9,3.4,2l3.4-1.9
			c-3.5-4.6-7.2-10.6-9-14.6c0.5-0.1,0.5-0.1,1.7-0.3c3.1-0.6,3.8-0.8,6.8-1.6c1.5-0.4,1.9-0.5,2.9-0.7l-0.5-3.6
			c-2.7,1.1-7.2,2.3-12.1,3.1c-0.5-0.9-0.6-1.2-1.8-4.4c-1.2-3.2-1.2-3.2-1.4-4.5l-4,0.6c0.5,0.9,0.8,1.6,1.3,2.9
			c0.9,2.2,1.7,4.2,2.4,5.9c-4.7,0.7-10.3,1.1-14.9,1.1c-1.7,0-2.6-0.1-3.9-0.2L1961.9,344.5"/>
		<path class="st1" d="M1970.6,384.3c-0.1,2.3-0.9,6.6-1.7,9.4c-1,0-2.6,0-3.6,0c-2.8,0-4.2-0.1-5.9-0.4l-0.1,3.4c0.3,0,0.6,0,0.6,0
			c0.2,0,0.6,0,1.1,0.1c0.8,0,2.4,0.1,3.3,0.1c0.8,0,2.4-0.1,3.7-0.1c-1.4,4.8-2.9,8.4-5.2,12.9c-1.9,3.6-3.2,5.8-4.8,7.8l3.4,2
			c0.2-0.4,0.6-1,1-1.7c1.9-3.3,2.4-4.1,3.6-6.6c2.2-4.6,4-9.2,5.6-14.6c3.1-0.2,6.1-0.6,8.2-1.1c1.2-0.2,1.2-0.2,1.8-0.3l-0.1-3.4
			c-2.3,0.8-5.4,1.4-8.9,1.6c0.7-2.5,1-3.8,1.3-5.4c0.4-2.1,0.4-2.2,0.8-3.2L1970.6,384.3 M2000.1,398.1c-4.1-2.6-7.4-4.3-13.2-6.6
			l-1.9,2.8c5.2,1.9,9.1,3.9,13.2,6.8L2000.1,398.1 M2000.2,420.3c-0.4-0.2-0.4-0.2-0.9-0.8c-2.7-2.4-5.8-4.3-9.8-6.1
			c-0.3-1.9-0.5-5.4-0.5-7.6c0-1.8,0.1-2.8,0.6-4.6l-3.4-0.4c-0.4,1.9-0.5,3.1-0.5,4.9c0,1.2,0.1,3.6,0.3,6.8
			c-1.9-0.5-3.2-0.8-5.1-0.8c-2.2,0-4.1,0.4-5.9,1.1c-2.8,1.1-4.6,3.6-4.6,6.4c0,4.4,3.8,7.2,9.8,7.2c6.1,0,9.5-2.9,9.5-8
			c0-0.5,0-0.8-0.1-1.6c3.6,1.9,6.8,4.4,8.8,6.8L2000.2,420.3 M1986.3,415.7c0,0,0.1,1.5,0.1,2.1c0,3.8-1.9,5.4-6.2,5.4
			c-3.9,0-6.4-1.6-6.4-4.1c0-2.8,2.7-4.5,6.9-4.5C1982.7,414.7,1984.2,415,1986.3,415.7"/>
		<path class="st1" d="M2103.1,289.2c0.4-0.1,0.8-0.1,0.8-0.1c0,0,0.1,0,0.2,0c1.9,0.1,2.4,0.1,4.1,0.1c1.9,0,2.4,0,3.4-0.1
			c-1.8,9.8-5.7,21.2-9.4,27.6l3.6,1.6c2.7-6.1,4.1-9.9,5.8-15.2c1.4-4.6,2.8-10.2,3.5-14.1c2.4-0.2,5.9-0.7,8.4-1.2
			c1-0.2,1-0.2,1.4-0.2l-0.2-3.4c-2.4,0.8-5.1,1.3-9,1.7c0.2-1.5,0.4-2.2,0.6-3.8c0.6-3.6,0.6-3.6,0.9-4.8l-4-0.4
			c0,2.2-0.1,3.1-1.1,9.2c-1.4,0.1-2,0.1-3,0.1c-2.7,0-4.7-0.1-6.2-0.4V289.2 M2140.9,291.6c-3.8-0.1-4.5-0.1-5.4-0.1
			c-4.2,0-7.5,0.4-13.2,1.6l0.3,3.4c4.6-1.2,8.1-1.7,12.5-1.7c2.1,0,3.5,0.1,5.9,0.4L2140.9,291.6 M2122.7,302.4
			c-2.7,3.4-3.4,4.9-3.4,7.2c0,4.9,4.2,7.5,12.4,7.5c2.7,0,5.6-0.2,8.9-0.9c1.6-0.2,1.6-0.2,2.2-0.3l-0.4-3.8
			c-2.8,1-7.3,1.7-11.1,1.7c-5.7,0-8.8-1.6-8.8-4.6c0-1.2,0.5-2.5,1.2-3.5c0.4-0.6,0.5-0.7,1.5-1.9L2122.7,302.4"/>
		<path class="st1" d="M2130,330.7c-1.8,2.8-8,8.6-14.6,13.7c-3.7,2.8-3.7,2.8-4.2,3.4c-1,1-1.5,2.2-1.5,3.4c0,1.7,0.8,2.8,3.6,5
			c7.3,5.7,9.3,7.4,12.6,10.4c3.3,3.1,5.2,5.2,6.5,6.9l3.1-3.1c-0.6-0.4-0.6-0.5-1.4-1.2c-7.4-6.9-8.8-8.1-16-13.6
			c-4.1-3.2-4.5-3.5-4.5-4.4c0-0.7,0.4-1.1,2.2-2.5c6.3-4.8,9-7.1,11.5-9.4c5.2-5,5.6-5.3,6.1-5.8L2130,330.7"/>
		<path class="st1" d="M2130,384.6c-1.8,2.8-8,8.6-14.6,13.7c-3.7,2.8-3.7,2.8-4.2,3.4c-1,1-1.5,2.1-1.5,3.3c0,1.7,0.8,2.8,3.6,5
			c7.3,5.7,9.3,7.4,12.6,10.5c3.3,3,5.2,5.1,6.5,6.8l3.1-3.1c-0.6-0.5-0.6-0.5-1.4-1.2c-7.4-7-8.8-8.1-16-13.7
			c-4.1-3.1-4.5-3.5-4.5-4.4c0-0.7,0.4-1.1,2.2-2.5c6.3-4.9,9-7.1,11.5-9.4c5.2-5,5.6-5.4,6.1-5.8L2130,384.6"/>
		<path class="st1" d="M1831.8,768.3c0,2.7,2.2,5,5,5c2.7,0,5-2.2,5-5s-2.2-5-5-5C1834,763.3,1831.8,765.6,1831.8,768.3"/>
		<path class="st1" d="M2151.1,743.5c0,2.7,2.2,5,5,5s5-2.2,5-5s-2.2-5-5-5S2151.1,740.8,2151.1,743.5"/>
		<path class="st1" d="M1831.8,594.7c0,2.7,2.2,5,5,5c2.7,0,5-2.2,5-5s-2.2-5-5-5C1834,589.7,1831.8,591.9,1831.8,594.7"/>
		<path class="st1" d="M2151.1,594.7c0,2.7,2.2,5,5,5s5-2.2,5-5s-2.2-5-5-5S2151.1,591.9,2151.1,594.7"/>
		<path class="st1" d="M1831.8,145.2c0,2.7,2.2,5,5,5c2.7,0,5-2.2,5-5s-2.2-5-5-5C1834,140.2,1831.8,142.5,1831.8,145.2"/>
		<path class="st1" d="M2151.1,170c0,2.7,2.2,5,5,5s5-2.2,5-5s-2.2-5-5-5S2151.1,167.3,2151.1,170"/>
		<line class="st6" x1="77.7" y1="114.9" x2="77.7" y2="897.8"/>
		<path class="st1" d="M120.3,92.9c-0.2-0.1-0.5-0.2-0.7-0.2c-0.4,0-0.9,0.1-1.1,0.5c-0.2,0.3-10.1,15.6-29.1,15.6H73.7
			c-0.8,0-1.4,0.5-1.4,1.3v8.9v1.4h12.1c30.6,0,36.4-25.5,36.5-25.8c0-0.1,0.1-0.3,0.1-0.5C121,93.6,120.7,93.2,120.3,92.9"/>
		<path class="st1" d="M120.3,919.8c0.4-0.3,0.7-0.7,0.7-1.2c0-0.2-0.1-0.4-0.1-0.5c-0.1-0.3-6-25.8-36.5-25.8H72.3v1.4v8.9
			c0,0.8,0.6,1.3,1.4,1.3h15.8c18.9,0,28.9,15.3,29.1,15.6c0.2,0.4,0.7,0.5,1.1,0.5C119.8,920,120.1,919.9,120.3,919.8"/>
	</g>
</g>
</svg>
