<?xml version="1.0" encoding="utf-8"?>
<!-- Generator: Adobe Illustrator 26.5.0, SVG Export Plug-In . SVG Version: 6.00 Build 0)  -->
<svg version="1.1" id="レイヤー_1" xmlns="http://www.w3.org/2000/svg" xmlns:xlink="http://www.w3.org/1999/xlink" x="0px"
	 y="0px" viewBox="0 0 2590 920" style="enable-background:new 0 0 2590 920;" xml:space="preserve">
<style type="text/css">
	.st0{fill:none;stroke:#FFFFFF;stroke-width:2.73;stroke-linejoin:bevel;}
	.st1{fill:#FFFFFF;}
	.st2{fill:none;stroke:#FFFFFF;stroke-width:4.46;stroke-linejoin:bevel;}
	.st3{fill:none;stroke:#FFFFFF;stroke-width:3.97;stroke-linejoin:bevel;}
	.st4{fill-rule:evenodd;clip-rule:evenodd;fill:#FFFFFF;}
	.st5{fill:none;stroke:#FFFFFF;stroke-width:3.72;stroke-linejoin:bevel;}
	.st6{fill:none;stroke:#FFFFFF;stroke-width:10.91;stroke-linejoin:bevel;}
	.st7{fill:none;stroke:#FFFFFF;stroke-width:13.64;stroke-linejoin:bevel;}
</style>
<g>
	<g>
		
			<image style="overflow:visible;" width="2624" height="887" xlink:href="80E2E36CB6A14EF2.png"  transform="matrix(1 0 0 1 -17.0795 69.8556)">
		</image>
	</g>
	<g>
		<line class="st0" x1="106.1" y1="146.1" x2="2570.6" y2="146.1"/>
		<line class="st0" x1="106.1" y1="170.9" x2="2570.6" y2="170.9"/>
		<line class="st0" x1="106.1" y1="195.7" x2="2570.6" y2="195.7"/>
		<line class="st0" x1="106.1" y1="220.5" x2="2570.6" y2="220.5"/>
		<line class="st0" x1="106.1" y1="245.3" x2="2570.6" y2="245.3"/>
		<line class="st0" x1="106.1" y1="481" x2="2570.6" y2="481"/>
		<line class="st0" x1="106.1" y1="505.8" x2="2570.6" y2="505.8"/>
		<line class="st0" x1="106.1" y1="530.6" x2="2570.6" y2="530.6"/>
		<line class="st0" x1="106.1" y1="555.4" x2="2570.6" y2="555.4"/>
		<line class="st0" x1="106.1" y1="580.2" x2="2570.6" y2="580.2"/>
		<line class="st0" x1="106.1" y1="691.1" x2="2570.6" y2="691.1"/>
		<line class="st0" x1="106.1" y1="715.9" x2="2570.6" y2="715.9"/>
		<line class="st0" x1="106.1" y1="740.7" x2="2570.6" y2="740.7"/>
		<line class="st0" x1="106.1" y1="765.5" x2="2570.6" y2="765.5"/>
		<line class="st0" x1="106.1" y1="790.3" x2="2570.6" y2="790.3"/>
		<path class="st1" d="M54.2,722.3h-30l-0.8,13.9h2.2c0.3-2.5,0.8-4.4,1.3-6c1.3-3.7,3.7-5.5,7.1-5.5c1.6,0,2.4,0.5,2.4,1.8v25.8
			c0,2.6,0,2.7-0.3,3.1c-0.4,0.5-1.4,0.7-4.2,0.7h-1.3v2.4h17.1v-2.4h-1.3c-2.8,0-3.8-0.2-4.1-0.7c-0.3-0.4-0.3-0.6-0.3-3.1v-25.8
			c0-1.2,0.7-1.8,2.4-1.8c3.1,0,5.5,1.7,6.8,4.7c0.8,1.8,1.2,4,1.6,6.8H55L54.2,722.3 M59.1,752.9c-1.8,0-3.1,1.4-3.1,3.1
			c0,1.8,1.4,3.2,3.1,3.2c1.8,0,3.1-1.4,3.1-3.2C62.2,754.3,60.8,752.9,59.1,752.9"/>
		<path class="st1" d="M38.7,511.9h-2.1L25.1,541c-1.4,3.9-2.6,5.1-5.5,5.3h-0.2v2.4h13.2v-2.4h-1c-2.7,0-4.1-0.9-4.1-2.9
			c0-0.6,0.1-1.2,0.4-2.1l1.7-4.4H43l2.7,6.7c0.3,0.8,0.4,1.1,0.4,1.3c0,0.8-1.2,1.3-3.1,1.3h-2.1v2.4h15.5v-2.4h-0.7
			c-2.6-0.1-3.1-0.4-4.2-3.2L38.7,511.9 M36.3,520.1l5.7,14.2H30.7L36.3,520.1 M63.3,543.1c-1.8,0-3.2,1.4-3.2,3.1
			c0,1.8,1.4,3.2,3.1,3.2c1.8,0,3.2-1.4,3.2-3.2C66.4,544.5,65,543.1,63.3,543.1"/>
		<path class="st1" d="M51.7,177.3h-1.8l-2,3c-2.4-2.2-5.6-3.4-9.1-3.4c-6.6,0-10.9,4.1-10.9,10.4c0,5.4,2.7,8.1,10.1,10.1l4.8,1.2
			c3.7,0.9,4,1.1,5.1,1.9c1.5,1.1,2.3,2.8,2.3,4.8c0,2-0.8,3.6-2.2,5c-1.6,1.4-3.3,2-6.1,2c-3.7,0-6.3-1.2-8.7-3.8
			c-2.1-2.3-3.1-4.7-3.9-8.6h-2.2l0.2,14.2h2l2.2-3.4c3.3,2.8,6.1,3.8,10.5,3.8c7.3,0,12-4.3,12-11c0-3.1-1-5.8-3-7.6
			c-1.3-1.3-3.3-2.1-7.3-3.1l-5.4-1.4c-4.4-1.1-6.6-3.1-6.6-6.1c0-3.5,2.9-5.9,7.1-5.9c3.5,0,6.3,1.5,8.3,4.4c1.5,2.1,2.4,4.1,3,6.7
			h2.2L51.7,177.3 M62.7,208.2c-1.8,0-3.1,1.4-3.1,3.1c0,1.8,1.4,3.2,3.1,3.2c1.8,0,3.1-1.4,3.1-3.2
			C65.8,209.6,64.4,208.2,62.7,208.2"/>
		<line class="st2" x1="108.4" y1="689.8" x2="108.4" y2="791.7"/>
		<line class="st2" x1="971.3" y1="689.8" x2="971.3" y2="791.7"/>
		<line class="st2" x1="1319.7" y1="689.8" x2="1319.7" y2="791.7"/>
		<line class="st2" x1="2025.2" y1="689.8" x2="2025.2" y2="791.7"/>
		<line class="st2" x1="2568.4" y1="689.8" x2="2568.4" y2="791.7"/>
		<line class="st2" x1="108.4" y1="479.7" x2="108.4" y2="691.1"/>
		<line class="st2" x1="971.3" y1="479.7" x2="971.3" y2="581.6"/>
		<line class="st2" x1="1319.7" y1="479.7" x2="1319.7" y2="581.6"/>
		<line class="st2" x1="2025.2" y1="479.7" x2="2025.2" y2="581.6"/>
		<line class="st2" x1="2568.4" y1="479.7" x2="2568.4" y2="581.6"/>
		<line class="st2" x1="108.4" y1="144.7" x2="108.4" y2="481"/>
		<line class="st2" x1="971.3" y1="144.7" x2="971.3" y2="246.7"/>
		<line class="st2" x1="1319.7" y1="144.7" x2="1319.7" y2="246.7"/>
		<line class="st2" x1="2025.2" y1="144.7" x2="2025.2" y2="246.7"/>
		<line class="st2" x1="2568.4" y1="144.7" x2="2568.4" y2="246.7"/>
		<line class="st3" x1="451.2" y1="605.1" x2="500.8" y2="605.1"/>
		<line class="st3" x1="2059.7" y1="605.1" x2="2109.3" y2="605.1"/>
		<line class="st0" x1="304.6" y1="694.5" x2="304.6" y2="777.9"/>
		<line class="st0" x1="461.3" y1="719.3" x2="461.3" y2="790.3"/>
		<line class="st0" x1="559.2" y1="706.9" x2="559.2" y2="784.1"/>
		<line class="st0" x1="657.1" y1="694.5" x2="657.1" y2="777.9"/>
		<line class="st0" x1="813.8" y1="682.1" x2="813.8" y2="765.5"/>
		<line class="st0" x1="1013.2" y1="719.3" x2="1013.2" y2="799.6"/>
		<line class="st0" x1="1166" y1="719.3" x2="1166" y2="799.6"/>
		<line class="st0" x1="1399.7" y1="750" x2="1399.7" y2="672.5"/>
		<line class="st0" x1="1697.3" y1="719.3" x2="1697.3" y2="799.6"/>
		<line class="st0" x1="2069.7" y1="706.9" x2="2069.7" y2="790.3"/>
		<line class="st0" x1="2194.2" y1="694.5" x2="2194.2" y2="777.9"/>
		<line class="st0" x1="2318.6" y1="706.9" x2="2318.6" y2="790.3"/>
		<line class="st0" x1="334.1" y1="564.7" x2="334.1" y2="481"/>
		<line class="st0" x1="490.8" y1="601.9" x2="490.8" y2="530.6"/>
		<line class="st0" x1="588.7" y1="589.5" x2="588.7" y2="524.4"/>
		<line class="st0" x1="686.6" y1="564.7" x2="686.6" y2="481"/>
		<line class="st0" x1="843.3" y1="564.7" x2="843.3" y2="481"/>
		<line class="st0" x1="1042.7" y1="539.9" x2="1042.7" y2="462.4"/>
		<line class="st0" x1="1195.5" y1="564.7" x2="1195.5" y2="481"/>
		<line class="st0" x1="1399.7" y1="539.9" x2="1399.7" y2="462.4"/>
		<line class="st0" x1="1545.1" y1="527.5" x2="1545.1" y2="456.2"/>
		<line class="st0" x1="1635.9" y1="539.9" x2="1635.9" y2="462.4"/>
		<line class="st0" x1="1726.8" y1="564.7" x2="1726.8" y2="481"/>
		<line class="st0" x1="1872.1" y1="552.3" x2="1872.1" y2="481"/>
		<line class="st0" x1="1963" y1="564.7" x2="1963" y2="487.2"/>
		<line class="st0" x1="2099.2" y1="601.9" x2="2099.2" y2="518.2"/>
		<line class="st0" x1="304.6" y1="186.6" x2="304.6" y2="263.9"/>
		<line class="st0" x1="490.8" y1="204.9" x2="490.8" y2="127.5"/>
		<line class="st0" x1="588.7" y1="192.5" x2="588.7" y2="121.3"/>
		<line class="st0" x1="657.1" y1="186.6" x2="657.1" y2="263.9"/>
		<line class="st0" x1="813.8" y1="174.2" x2="813.8" y2="254.6"/>
		<line class="st0" x1="1013.2" y1="186.6" x2="1013.2" y2="263.9"/>
		<line class="st0" x1="1195.5" y1="204.9" x2="1195.5" y2="127.5"/>
		<line class="st0" x1="1370.2" y1="186.6" x2="1370.2" y2="263.9"/>
		<line class="st0" x1="1515.6" y1="174.2" x2="1515.6" y2="245.3"/>
		<line class="st0" x1="1606.4" y1="186.6" x2="1606.4" y2="251.5"/>
		<line class="st0" x1="1726.8" y1="204.9" x2="1726.8" y2="127.5"/>
		<line class="st0" x1="1872.1" y1="242.1" x2="1872.1" y2="170.9"/>
		<line class="st0" x1="1963" y1="229.7" x2="1963" y2="164.7"/>
		<line class="st0" x1="2099.2" y1="217.3" x2="2099.2" y2="136.8"/>
		<path class="st1" d="M334.5,683.1c-1.8-3.3-5.6-5.1-10.1-5.1c-3.4,0-7,1-10.6,2.9c-6.5,3.5-10.5,9.3-10.5,14.4
			c0,1.4,0.3,2.8,1,4.1c1.8,3.3,5.6,5,10.1,5c3.4,0,7-0.9,10.6-2.8c6.5-3.5,10.5-9.3,10.5-14.4C335.5,685.8,335.2,684.4,334.5,683.1
			"/>
		<path class="st1" d="M491.2,707.9c-1.8-3.3-5.6-5.1-10.1-5.1c-3.4,0-7,1-10.6,2.9c-6.5,3.5-10.5,9.3-10.5,14.4
			c0,1.4,0.3,2.8,1,4.1c1.8,3.3,5.6,5,10.1,5c3.4,0,7-0.9,10.6-2.8c6.5-3.5,10.5-9.3,10.5-14.4C492.2,710.6,491.9,709.2,491.2,707.9
			"/>
		<path class="st1" d="M589.1,695.5c-1.8-3.3-5.6-5.1-10.1-5.1c-3.4,0-7,1-10.6,2.9c-6.5,3.5-10.5,9.3-10.5,14.4
			c0,1.4,0.3,2.8,1,4.1c1.8,3.3,5.6,5,10.1,5c3.4,0,7-0.9,10.6-2.8c6.5-3.5,10.5-9.3,10.5-14.4C590.1,698.2,589.8,696.8,589.1,695.5
			"/>
		<path class="st1" d="M687,683.1c-1.8-3.3-5.6-5.1-10.1-5.1c-3.4,0-7,1-10.6,2.9c-6.5,3.5-10.5,9.3-10.5,14.4c0,1.4,0.3,2.8,1,4.1
			c1.8,3.3,5.6,5,10.1,5c3.4,0,7-0.9,10.6-2.8c6.5-3.5,10.5-9.3,10.5-14.4C688,685.8,687.7,684.4,687,683.1"/>
		<path class="st1" d="M843.7,670.7c-1.8-3.3-5.6-5.1-10.1-5.1c-3.4,0-7,1-10.6,2.9c-6.5,3.5-10.5,9.3-10.5,14.4
			c0,1.4,0.3,2.8,1,4.1c1.8,3.3,5.6,5,10.1,5c3.4,0,7-0.9,10.6-2.8c6.5-3.5,10.5-9.3,10.5-14.4C844.6,673.4,844.4,672,843.7,670.7"
			/>
		<path class="st1" d="M1043.1,707.9c-1.8-3.3-5.6-5.1-10.1-5.1c-3.4,0-7,1-10.6,2.9c-6.5,3.5-10.5,9.3-10.5,14.4
			c0,1.4,0.3,2.8,1,4.1c1.8,3.3,5.6,5,10.1,5c3.4,0,7-0.9,10.6-2.8c6.5-3.5,10.5-9.3,10.5-14.4
			C1044.1,710.6,1043.8,709.2,1043.1,707.9 M1038.8,714.6c-1.7,1.7-5.1,3.8-8.6,5.8s-7.1,3.5-9.5,4c-0.5,0.1-1,0.2-1.5,0.2
			c-1.6,0-2.8-0.6-3.5-1.9c-0.3-0.5-0.5-1.1-0.5-1.7c0-1.1,0.7-2.4,1.8-3.5c1.7-1.7,5-3.8,8.5-5.8s7.1-3.5,9.5-4
			c0.5-0.1,1-0.2,1.5-0.2c1.6,0,2.9,0.6,3.6,1.9c0.3,0.5,0.4,1.1,0.4,1.7C1040.5,712.2,1039.9,713.4,1038.8,714.6"/>
		<path class="st1" d="M1195.9,707.9c-1.8-3.3-5.6-5.1-10.1-5.1c-3.4,0-7,1-10.6,2.9c-6.5,3.5-10.5,9.3-10.5,14.4
			c0,1.4,0.3,2.8,1,4.1c1.8,3.3,5.6,5,10.1,5c3.4,0,7-0.9,10.6-2.8c6.5-3.5,10.5-9.3,10.5-14.4
			C1196.9,710.6,1196.6,709.2,1195.9,707.9 M1191.7,714.6c-1.7,1.7-5.1,3.8-8.6,5.8s-7.1,3.5-9.5,4c-0.5,0.1-1,0.2-1.5,0.2
			c-1.6,0-2.8-0.6-3.5-1.9c-0.3-0.5-0.5-1.1-0.5-1.7c0-1.1,0.7-2.4,1.8-3.5c1.7-1.7,5-3.8,8.5-5.8s7.1-3.5,9.5-4
			c0.5-0.1,1-0.2,1.5-0.2c1.6,0,2.9,0.6,3.6,1.9c0.3,0.5,0.4,1.1,0.4,1.7C1193.3,712.2,1192.7,713.4,1191.7,714.6"/>
		<path class="st1" d="M1400.1,745.1c-1.8-3.3-5.6-5.1-10.1-5.1c-3.4,0-7,1-10.6,2.9c-6.5,3.5-10.5,9.3-10.5,14.4
			c0,1.4,0.3,2.8,1,4.1c1.8,3.3,5.6,5,10.1,5c3.4,0,7-0.9,10.6-2.8c6.5-3.5,10.5-9.3,10.5-14.4
			C1401.1,747.8,1400.8,746.4,1400.1,745.1 M1395.8,751.8c-1.7,1.7-5.1,3.8-8.6,5.8s-7.1,3.5-9.5,4c-0.5,0.1-1,0.2-1.5,0.2
			c-1.6,0-2.8-0.6-3.5-1.9c-0.3-0.5-0.5-1.1-0.5-1.7c0-1.1,0.7-2.4,1.8-3.5c1.7-1.7,5-3.8,8.5-5.8s7.1-3.5,9.5-4
			c0.5-0.1,1-0.2,1.5-0.2c1.6,0,2.9,0.6,3.6,1.9c0.3,0.5,0.4,1.1,0.4,1.7C1397.5,749.5,1396.9,750.6,1395.8,751.8"/>
		<path class="st1" d="M1727.1,707.9c-1.8-3.3-5.6-5.1-10.1-5.1c-3.4,0-7,1-10.6,2.9c-6.5,3.5-10.5,9.3-10.5,14.4
			c0,1.4,0.3,2.8,1,4.1c1.8,3.3,5.6,5,10.1,5c3.4,0,7-0.9,10.6-2.8c6.5-3.5,10.5-9.3,10.5-14.4
			C1728.1,710.6,1727.8,709.2,1727.1,707.9 M1722.9,714.6c-1.7,1.7-5.1,3.8-8.6,5.8s-7.1,3.5-9.5,4c-0.5,0.1-1,0.2-1.5,0.2
			c-1.6,0-2.8-0.6-3.5-1.9c-0.3-0.5-0.5-1.1-0.5-1.7c0-1.1,0.7-2.4,1.8-3.5c1.7-1.7,5-3.8,8.5-5.8s7.1-3.5,9.5-4
			c0.5-0.1,1-0.2,1.5-0.2c1.6,0,2.9,0.6,3.6,1.9c0.3,0.5,0.4,1.1,0.4,1.7C1724.6,712.2,1724,713.4,1722.9,714.6"/>
		<path class="st1" d="M2099.6,695.5c-1.8-3.3-5.6-5.1-10.1-5.1c-3.4,0-7,1-10.6,2.9c-6.5,3.5-10.5,9.3-10.5,14.4
			c0,1.4,0.3,2.8,1,4.1c1.8,3.3,5.6,5,10.1,5c3.4,0,7-0.9,10.6-2.8c6.5-3.5,10.5-9.3,10.5-14.4
			C2100.6,698.2,2100.3,696.8,2099.6,695.5"/>
		<path class="st1" d="M2224,683.1c-1.8-3.3-5.6-5.1-10.1-5.1c-3.4,0-7,1-10.6,2.9c-6.5,3.5-10.5,9.3-10.5,14.4c0,1.4,0.3,2.8,1,4.1
			c1.8,3.3,5.6,5,10.1,5c3.4,0,7-0.9,10.6-2.8c6.5-3.5,10.5-9.3,10.5-14.4C2225,685.8,2224.7,684.4,2224,683.1"/>
		<path class="st1" d="M2348.5,695.5c-1.8-3.3-5.6-5.1-10.1-5.1c-3.4,0-7,1-10.6,2.9c-6.5,3.5-10.5,9.3-10.5,14.4
			c0,1.4,0.3,2.8,1,4.1c1.8,3.3,5.6,5,10.1,5c3.4,0,7-0.9,10.6-2.8c6.5-3.5,10.5-9.3,10.5-14.4
			C2349.5,698.2,2349.2,696.8,2348.5,695.5"/>
		<path class="st1" d="M334.5,559.8c-1.8-3.3-5.6-5.1-10.1-5.1c-3.4,0-7,1-10.6,2.9c-6.5,3.5-10.5,9.3-10.5,14.4
			c0,1.4,0.3,2.8,1,4.1c1.8,3.3,5.6,5,10.1,5c3.4,0,7-0.9,10.6-2.8c6.5-3.5,10.5-9.3,10.5-14.4C335.5,562.5,335.2,561.1,334.5,559.8
			"/>
		<path class="st1" d="M491.2,597c-1.8-3.3-5.6-5.1-10.1-5.1c-3.4,0-7,1-10.6,2.9c-6.5,3.5-10.5,9.3-10.5,14.4c0,1.4,0.3,2.8,1,4.1
			c1.8,3.3,5.6,5,10.1,5c3.4,0,7-0.9,10.6-2.8c6.5-3.5,10.5-9.3,10.5-14.4C492.2,599.7,491.9,598.3,491.2,597"/>
		<path class="st1" d="M589.1,584.6c-1.8-3.3-5.6-5.1-10.1-5.1c-3.4,0-7,1-10.6,2.9c-6.5,3.5-10.5,9.3-10.5,14.4
			c0,1.4,0.3,2.8,1,4.1c1.8,3.3,5.6,5,10.1,5c3.4,0,7-0.9,10.6-2.8c6.5-3.5,10.5-9.3,10.5-14.4C590.1,587.3,589.8,585.9,589.1,584.6
			"/>
		<path class="st1" d="M687,559.8c-1.8-3.3-5.6-5.1-10.1-5.1c-3.4,0-7,1-10.6,2.9c-6.5,3.5-10.5,9.3-10.5,14.4c0,1.4,0.3,2.8,1,4.1
			c1.8,3.3,5.6,5,10.1,5c3.4,0,7-0.9,10.6-2.8c6.5-3.5,10.5-9.3,10.5-14.4C688,562.5,687.7,561.1,687,559.8"/>
		<path class="st1" d="M843.7,559.8c-1.8-3.3-5.6-5.1-10.1-5.1c-3.4,0-7,1-10.6,2.9c-6.5,3.5-10.5,9.3-10.5,14.4
			c0,1.4,0.3,2.8,1,4.1c1.8,3.3,5.6,5,10.1,5c3.4,0,7-0.9,10.6-2.8c6.5-3.5,10.5-9.3,10.5-14.4C844.6,562.5,844.4,561.1,843.7,559.8
			"/>
		<path class="st1" d="M1043.1,535c-1.8-3.3-5.6-5.1-10.1-5.1c-3.4,0-7,1-10.6,2.9c-6.5,3.5-10.5,9.3-10.5,14.4c0,1.4,0.3,2.8,1,4.1
			c1.8,3.3,5.6,5,10.1,5c3.4,0,7-0.9,10.6-2.8c6.5-3.5,10.5-9.3,10.5-14.4C1044.1,537.7,1043.8,536.3,1043.1,535 M1038.8,541.8
			c-1.7,1.7-5.1,3.8-8.6,5.8s-7.1,3.5-9.5,4c-0.5,0.1-1,0.2-1.5,0.2c-1.6,0-2.8-0.6-3.5-1.9c-0.3-0.5-0.5-1.1-0.5-1.7
			c0-1.1,0.7-2.4,1.8-3.5c1.7-1.7,5-3.8,8.5-5.8s7.1-3.5,9.5-4c0.5-0.1,1-0.2,1.5-0.2c1.6,0,2.9,0.6,3.6,1.9
			c0.3,0.5,0.4,1.1,0.4,1.7C1040.5,539.4,1039.9,540.6,1038.8,541.8"/>
		<path class="st1" d="M1195.9,559.8c-1.8-3.3-5.6-5.1-10.1-5.1c-3.4,0-7,1-10.6,2.9c-6.5,3.5-10.5,9.3-10.5,14.4
			c0,1.4,0.3,2.8,1,4.1c1.8,3.3,5.6,5,10.1,5c3.4,0,7-0.9,10.6-2.8c6.5-3.5,10.5-9.3,10.5-14.4
			C1196.9,562.5,1196.6,561.1,1195.9,559.8 M1191.7,566.6c-1.7,1.7-5.1,3.8-8.6,5.8s-7.1,3.5-9.5,4c-0.5,0.1-1,0.2-1.5,0.2
			c-1.6,0-2.8-0.6-3.5-1.9c-0.3-0.5-0.5-1.1-0.5-1.7c0-1.1,0.7-2.4,1.8-3.5c1.7-1.7,5-3.8,8.5-5.8s7.1-3.5,9.5-4
			c0.5-0.1,1-0.2,1.5-0.2c1.6,0,2.9,0.6,3.6,1.9c0.3,0.5,0.4,1.1,0.4,1.7C1193.3,564.2,1192.7,565.4,1191.7,566.6"/>
		<path class="st1" d="M1400.1,535c-1.8-3.3-5.6-5.1-10.1-5.1c-3.4,0-7,1-10.6,2.9c-6.5,3.5-10.5,9.3-10.5,14.4c0,1.4,0.3,2.8,1,4.1
			c1.8,3.3,5.6,5,10.1,5c3.4,0,7-0.9,10.6-2.8c6.5-3.5,10.5-9.3,10.5-14.4C1401.1,537.7,1400.8,536.3,1400.1,535"/>
		<path class="st1" d="M1545.4,522.6c-1.8-3.3-5.6-5.1-10.1-5.1c-3.4,0-7,1-10.6,2.9c-6.5,3.5-10.5,9.3-10.5,14.4
			c0,1.4,0.3,2.8,1,4.1c1.8,3.3,5.6,5,10.1,5c3.4,0,7-0.9,10.6-2.8c6.5-3.5,10.5-9.3,10.5-14.4
			C1546.4,525.3,1546.1,523.9,1545.4,522.6"/>
		<path class="st1" d="M1636.3,535c-1.8-3.3-5.6-5.1-10.1-5.1c-3.4,0-7,1-10.6,2.9c-6.5,3.5-10.5,9.3-10.5,14.4c0,1.4,0.3,2.8,1,4.1
			c1.8,3.3,5.6,5,10.1,5c3.4,0,7-0.9,10.6-2.8c6.5-3.5,10.5-9.3,10.5-14.4C1637.3,537.7,1637,536.3,1636.3,535"/>
		<path class="st1" d="M1727.1,559.8c-1.8-3.3-5.6-5.1-10.1-5.1c-3.4,0-7,1-10.6,2.9c-6.5,3.5-10.5,9.3-10.5,14.4
			c0,1.4,0.3,2.8,1,4.1c1.8,3.3,5.6,5,10.1,5c3.4,0,7-0.9,10.6-2.8c6.5-3.5,10.5-9.3,10.5-14.4
			C1728.1,562.5,1727.8,561.1,1727.1,559.8"/>
		<path class="st1" d="M1872.5,547.4c-1.8-3.3-5.6-5.1-10.1-5.1c-3.4,0-7,1-10.6,2.9c-6.5,3.5-10.5,9.3-10.5,14.4
			c0,1.4,0.3,2.8,1,4.1c1.8,3.3,5.6,5,10.1,5c3.4,0,7-0.9,10.6-2.8c6.5-3.5,10.5-9.3,10.5-14.4
			C1873.5,550.1,1873.2,548.7,1872.5,547.4"/>
		<path class="st1" d="M1963.4,559.8c-1.8-3.3-5.6-5.1-10.1-5.1c-3.4,0-7,1-10.6,2.9c-6.5,3.5-10.5,9.3-10.5,14.4
			c0,1.4,0.3,2.8,1,4.1c1.8,3.3,5.6,5,10.1,5c3.4,0,7-0.9,10.6-2.8c6.5-3.5,10.5-9.3,10.5-14.4
			C1964.4,562.5,1964.1,561.1,1963.4,559.8"/>
		<path class="st1" d="M2099.6,597c-1.8-3.3-5.6-5.1-10.1-5.1c-3.4,0-7,1-10.6,2.9c-6.5,3.5-10.5,9.3-10.5,14.4c0,1.4,0.3,2.8,1,4.1
			c1.8,3.3,5.6,5,10.1,5c3.4,0,7-0.9,10.6-2.8c6.5-3.5,10.5-9.3,10.5-14.4C2100.6,599.7,2100.3,598.3,2099.6,597 M2095.3,603.8
			c-1.7,1.7-5.1,3.8-8.6,5.8c-3.6,2-7.1,3.5-9.5,4c-0.5,0.1-1,0.2-1.5,0.2c-1.6,0-2.8-0.6-3.5-1.9c-0.3-0.5-0.5-1.1-0.5-1.7
			c0-1.1,0.7-2.4,1.8-3.5c1.7-1.7,5-3.8,8.5-5.8c3.6-2,7.1-3.5,9.5-4c0.5-0.1,1-0.2,1.5-0.2c1.6,0,2.9,0.6,3.6,1.9
			c0.3,0.5,0.4,1.1,0.4,1.7C2097,601.4,2096.4,602.6,2095.3,603.8"/>
		<path class="st1" d="M334.5,175.3c-1.8-3.3-5.6-5.1-10.1-5.1c-3.4,0-7,1-10.6,2.9c-6.5,3.5-10.5,9.3-10.5,14.4
			c0,1.4,0.3,2.8,1,4.1c1.8,3.3,5.6,5,10.1,5c3.4,0,7-0.9,10.6-2.8c6.5-3.5,10.5-9.3,10.5-14.4C335.5,177.9,335.2,176.5,334.5,175.3
			"/>
		<path class="st1" d="M491.2,200.1c-1.8-3.3-5.6-5.1-10.1-5.1c-3.4,0-7,1-10.6,2.9c-6.5,3.5-10.5,9.3-10.5,14.4
			c0,1.4,0.3,2.8,1,4.1c1.8,3.3,5.6,5,10.1,5c3.4,0,7-0.9,10.6-2.8c6.5-3.5,10.5-9.3,10.5-14.4C492.2,202.7,491.9,201.3,491.2,200.1
			"/>
		<path class="st1" d="M589.1,187.7c-1.8-3.3-5.6-5.1-10.1-5.1c-3.4,0-7,1-10.6,2.9c-6.5,3.5-10.5,9.3-10.5,14.4
			c0,1.4,0.3,2.8,1,4.1c1.8,3.3,5.6,5,10.1,5c3.4,0,7-0.9,10.6-2.8c6.5-3.5,10.5-9.3,10.5-14.4C590.1,190.3,589.8,188.9,589.1,187.7
			"/>
		<path class="st1" d="M687,175.3c-1.8-3.3-5.6-5.1-10.1-5.1c-3.4,0-7,1-10.6,2.9c-6.5,3.5-10.5,9.3-10.5,14.4c0,1.4,0.3,2.8,1,4.1
			c1.8,3.3,5.6,5,10.1,5c3.4,0,7-0.9,10.6-2.8c6.5-3.5,10.5-9.3,10.5-14.4C688,177.9,687.7,176.5,687,175.3"/>
		<path class="st1" d="M843.7,162.9c-1.8-3.3-5.6-5.1-10.1-5.1c-3.4,0-7,1-10.6,2.9c-6.5,3.5-10.5,9.3-10.5,14.4
			c0,1.4,0.3,2.8,1,4.1c1.8,3.3,5.6,5,10.1,5c3.4,0,7-0.9,10.6-2.8c6.5-3.5,10.5-9.3,10.5-14.4C844.6,165.5,844.4,164.1,843.7,162.9
			"/>
		<path class="st1" d="M1043.1,175.3c-1.8-3.3-5.6-5.1-10.1-5.1c-3.4,0-7,1-10.6,2.9c-6.5,3.5-10.5,9.3-10.5,14.4
			c0,1.4,0.3,2.8,1,4.1c1.8,3.3,5.6,5,10.1,5c3.4,0,7-0.9,10.6-2.8c6.5-3.5,10.5-9.3,10.5-14.4
			C1044.1,177.9,1043.8,176.5,1043.1,175.3 M1038.8,182c-1.7,1.7-5.1,3.8-8.6,5.8s-7.1,3.5-9.5,4c-0.5,0.1-1,0.2-1.5,0.2
			c-1.6,0-2.8-0.6-3.5-1.9c-0.3-0.5-0.5-1.1-0.5-1.7c0-1.1,0.7-2.4,1.8-3.5c1.7-1.7,5-3.8,8.5-5.8s7.1-3.5,9.5-4
			c0.5-0.1,1-0.2,1.5-0.2c1.6,0,2.9,0.6,3.6,1.9c0.3,0.5,0.4,1.1,0.4,1.7C1040.5,179.6,1039.9,180.8,1038.8,182"/>
		<path class="st1" d="M1195.9,200.1c-1.8-3.3-5.6-5.1-10.1-5.1c-3.4,0-7,1-10.6,2.9c-6.5,3.5-10.5,9.3-10.5,14.4
			c0,1.4,0.3,2.8,1,4.1c1.8,3.3,5.6,5,10.1,5c3.4,0,7-0.9,10.6-2.8c6.5-3.5,10.5-9.3,10.5-14.4
			C1196.9,202.7,1196.6,201.3,1195.9,200.1 M1191.7,206.8c-1.7,1.7-5.1,3.8-8.6,5.8s-7.1,3.5-9.5,4c-0.5,0.1-1,0.2-1.5,0.2
			c-1.6,0-2.8-0.6-3.5-1.9c-0.3-0.5-0.5-1.1-0.5-1.7c0-1.1,0.7-2.4,1.8-3.5c1.7-1.7,5-3.8,8.5-5.8s7.1-3.5,9.5-4
			c0.5-0.1,1-0.2,1.5-0.2c1.6,0,2.9,0.6,3.6,1.9c0.3,0.5,0.4,1.1,0.4,1.7C1193.3,204.4,1192.7,205.6,1191.7,206.8"/>
		<path class="st1" d="M1400.1,175.3c-1.8-3.3-5.6-5.1-10.1-5.1c-3.4,0-7,1-10.6,2.9c-6.5,3.5-10.5,9.3-10.5,14.4
			c0,1.4,0.3,2.8,1,4.1c1.8,3.3,5.6,5,10.1,5c3.4,0,7-0.9,10.6-2.8c6.5-3.5,10.5-9.3,10.5-14.4
			C1401.1,177.9,1400.8,176.5,1400.1,175.3"/>
		<path class="st1" d="M1545.4,162.9c-1.8-3.3-5.6-5.1-10.1-5.1c-3.4,0-7,1-10.6,2.9c-6.5,3.5-10.5,9.3-10.5,14.4
			c0,1.4,0.3,2.8,1,4.1c1.8,3.3,5.6,5,10.1,5c3.4,0,7-0.9,10.6-2.8c6.5-3.5,10.5-9.3,10.5-14.4
			C1546.4,165.5,1546.1,164.1,1545.4,162.9"/>
		<path class="st1" d="M1636.3,175.3c-1.8-3.3-5.6-5.1-10.1-5.1c-3.4,0-7,1-10.6,2.9c-6.5,3.5-10.5,9.3-10.5,14.4
			c0,1.4,0.3,2.8,1,4.1c1.8,3.3,5.6,5,10.1,5c3.4,0,7-0.9,10.6-2.8c6.5-3.5,10.5-9.3,10.5-14.4
			C1637.3,177.9,1637,176.5,1636.3,175.3"/>
		<path class="st1" d="M1727.1,200.1c-1.8-3.3-5.6-5.1-10.1-5.1c-3.4,0-7,1-10.6,2.9c-6.5,3.5-10.5,9.3-10.5,14.4
			c0,1.4,0.3,2.8,1,4.1c1.8,3.3,5.6,5,10.1,5c3.4,0,7-0.9,10.6-2.8c6.5-3.5,10.5-9.3,10.5-14.4
			C1728.1,202.7,1727.8,201.3,1727.1,200.1"/>
		<path class="st1" d="M1872.5,237.3c-1.8-3.3-5.6-5.1-10.1-5.1c-3.4,0-7,1-10.6,2.9c-6.5,3.5-10.5,9.3-10.5,14.4
			c0,1.4,0.3,2.8,1,4.1c1.8,3.3,5.6,5,10.1,5c3.4,0,7-0.9,10.6-2.8c6.5-3.5,10.5-9.3,10.5-14.4
			C1873.5,239.9,1873.2,238.6,1872.5,237.3"/>
		<path class="st1" d="M1963.4,224.9c-1.8-3.3-5.6-5.1-10.1-5.1c-3.4,0-7,1-10.6,2.9c-6.5,3.5-10.5,9.3-10.5,14.4
			c0,1.4,0.3,2.8,1,4.1c1.8,3.3,5.6,5,10.1,5c3.4,0,7-0.9,10.6-2.8c6.5-3.5,10.5-9.3,10.5-14.4
			C1964.4,227.5,1964.1,226.2,1963.4,224.9"/>
		<path class="st1" d="M2099.6,212.5c-1.8-3.3-5.6-5.1-10.1-5.1c-3.4,0-7,1-10.6,2.9c-6.5,3.5-10.5,9.3-10.5,14.4
			c0,1.4,0.3,2.8,1,4.1c1.8,3.3,5.6,5,10.1,5c3.4,0,7-0.9,10.6-2.8c6.5-3.5,10.5-9.3,10.5-14.4
			C2100.6,215.1,2100.3,213.7,2099.6,212.5 M2095.3,219.2c-1.7,1.7-5.1,3.8-8.6,5.8c-3.6,2-7.1,3.5-9.5,4c-0.5,0.1-1,0.2-1.5,0.2
			c-1.6,0-2.8-0.6-3.5-1.9c-0.3-0.5-0.5-1.1-0.5-1.7c0-1.1,0.7-2.4,1.8-3.5c1.7-1.7,5-3.8,8.5-5.8c3.6-2,7.1-3.5,9.5-4
			c0.5-0.1,1-0.2,1.5-0.2c1.6,0,2.9,0.6,3.6,1.9c0.3,0.5,0.4,1.1,0.4,1.7C2097,216.8,2096.4,218,2095.3,219.2"/>
		<path class="st1" d="M155.6,691c-7.5,0-13.6,4.4-13.7,4.4c-5.8,4.3-8,9.3-8.9,12.8c-0.5,1.8-0.7,3.6-0.7,5.3
			c0,2.4,0.4,4.6,1.3,6.4c1.2,2.7,3.5,4.6,6.4,5.6c1.2,0.4,2.5,0.6,3.8,0.6c2.2,0,4.5-0.6,6.3-1.7c3.1-1.7,5-5.3,5-9.1
			c0-3.5-1.8-6.6-4.8-8.5c-2.1-1.4-4.1-1.8-5.8-1.8c-1.2,0-2.3,0.2-3.2,0.5c-1,0.4-2.7,1.4-3.5,2.1c0.3-1.9,1.5-4.8,2.6-6.3
			s3.3-3.6,5-4.5c2.5-1.4,5.7-2,9.1-2c10.1,0,15.1,8.1,15.1,24.8c0,9.2-3.5,18.1-6.4,23.9c-3.3,6.5-7.6,12.8-11.5,16.3
			c-10.3,9.4-20,13.9-20.1,13.9c0,0-1.5,0.9-1.1,2.4c0.3,1,1.2,1.2,1.8,1.2c0.1,0,0.4-0.1,0.5-0.1s11.4-4.7,20.4-11.7
			c5.1-3.7,9.6-7.6,13.6-11.9c3.6-3.9,6.6-8,9.1-12.2c4.4-7.4,6.8-15.2,6.8-21.8c0-8.2-2.2-15.1-6.3-19.9
			C171.9,693.9,164.9,691,155.6,691 M186.8,703.6c0,2.8,2.2,5,4.8,5c2.6,0,4.8-2.2,4.8-5s-2.2-5.1-4.8-5.1
			C189,698.6,186.8,700.8,186.8,703.6 M186.8,728.1c0,2.8,2.2,5.1,4.8,5.1c2.6,0,4.8-2.3,4.8-5.1s-2.2-5.1-4.8-5.1
			C189,723.1,186.8,725.3,186.8,728.1"/>
		<path class="st1" d="M193.3,549.6c-1.2-5.4-3.8-9.2-4.6-10.2c-3.2-4.2-7.1-7.1-11.8-8.4c-3.1-0.9-6.1-1-8.5-0.8
			c-1-6-2-11.8-2.9-17.2c5.4-6.1,9-11.9,11.3-16.1c3.4-6.5,4.6-11.1,4.6-11.3c1.7-5.2,2.1-12.8,1-21c-1-7.5-3.1-14.1-5.4-17.4
			c-1-1.4-2.1-2.1-3.1-2.1c-1.2,0-3.7,1.2-6.6,4c-2.3,2.2-5.5,6-8.1,12c-3,7-3.2,16.4-2.8,23.1c0.4,7.2,1.5,12.9,1.5,12.9
			c0,0.1,0.3,1.6,0.7,4.1c-0.2,0.2-0.5,0.4-0.7,0.7c-1,1-2.2,2.1-3.6,3.5c-0.9,0.9-1.8,1.8-2.8,2.7c-8.4,8.1-21.1,20.3-21.1,39.3
			c0,4.7,0.9,9,2.7,13c1.6,3.6,3.9,6.8,6.8,9.7c7.7,7.5,18.2,10.7,25.2,10.5c2.9-0.1,5.5-0.3,7.9-0.8c1.8,9.5,2.9,16.5,3,21.8
			c0,6.5-1.6,10.4-5.5,13.1c-2.4,1.7-5.2,2.7-8.3,2.8c-2.6,0.1-4.8-0.3-6.2-0.8h0c0,0-0.3-0.1-0.3-0.3c0-0.2,0.3-0.2,0.3-0.2h0
			c1.9-0.4,5.4-1.7,7.8-4.9c1.8-2.5,2.6-7.1,0.8-11c-1.1-2.4-3.6-5.3-9.2-5.7c-2.5-0.2-4.7,0.3-6.7,1.5c-1.8,1.1-3.3,2.7-4.3,4.7
			c-2.4,4.7-2,10.3,1.1,14.2c2.9,3.6,7.5,5.9,12.9,6.5c0.8,0.1,1.7,0.1,2.5,0.1c4.4,0,8.8-1.2,12.3-3.4c3.6-2.5,5.7-6.5,6.4-12.1
			c0.6-4.6,0.2-10.5-1.2-18.5c-0.4-2.1-0.9-5.1-1.5-8.8c5.7-1.9,9.8-5.4,13.6-11.3C193.8,561.9,194.7,555.9,193.3,549.6
			 M159.3,575.6c-4.6-1.2-9-3.7-12.7-7.2c-1.3-1.2-3.2-3.4-4.6-6.7c-1.4-3.1-2-6.5-2-10.1c0.1-4.7,1.4-9.4,3.9-14.2
			c2.9-5.5,7.4-11,13.4-16.3c1.4-1.3,2.8-2.5,4.1-3.8c0.8,4.2,1.6,8.9,2.5,13.7c-3.8,1.3-8.5,4.4-11.6,10c-3.5,6.5-3.4,12-2.6,15.4
			c0.9,4.4,3.4,8.2,6.9,10.2c0.9,0.6,5,2.7,6.8,2.1c0.4-0.1,0.6-0.3,0.8-0.7c0.5-1.2-0.5-1.8-2.1-2.7c-0.6-0.4-1.3-0.8-2-1.3
			c-3.3-2.5-4.7-6.9-3.7-11.2c0.6-2.4,1.8-4.5,3.7-6.2c1.7-1.5,3.7-2.6,6-3.3c2,11.2,4.1,22.2,5.7,30.5c0.1,0.7,0.3,1.3,0.4,2
			C167.8,576.8,163.5,576.7,159.3,575.6 M170.6,542.7c10.3-0.5,14.5,6.9,15.4,11.7c0.5,2.5,0.5,6.9-1.1,11.1
			c-1.2,3.2-3.6,7.2-8.7,9.2c-0.1-0.4-0.1-0.8-0.2-1.3C174.4,564.7,172.5,553.8,170.6,542.7 M163.3,472.3c1.8-5.7,4.5-8.9,6.5-10.6
			c1.7-1.5,3.4-2.2,4.3-2.2c0.1,0,0.3,0,0.4,0c0.5,0.1,1,0.7,1.4,1.6c2.3,4.3,1.6,10.9,0.2,15.3c-1.6,5.4-4.5,10.9-13.2,20.5
			c-0.2-1.1-0.3-2.1-0.5-3.1C161.1,485.5,161.4,478.3,163.3,472.3"/>
		<path class="st1" d="M193.3,214.7c-1.2-5.4-3.8-9.2-4.6-10.2c-3.2-4.2-7.1-7.1-11.8-8.4c-3.1-0.9-6.1-1-8.5-0.8
			c-1-6-2-11.8-2.9-17.2c5.4-6.1,9-11.9,11.3-16.1c3.4-6.5,4.6-11.1,4.6-11.3c1.7-5.2,2.1-12.8,1-21c-1-7.5-3.1-14.1-5.4-17.4
			c-1-1.4-2.1-2.1-3.1-2.1c-1.2,0-3.7,1.2-6.6,4c-2.3,2.2-5.5,6-8.1,12c-3,7-3.2,16.4-2.8,23.1c0.4,7.2,1.5,12.9,1.5,12.9
			c0,0.1,0.3,1.6,0.7,4.1c-0.2,0.2-0.5,0.4-0.7,0.7c-1,1-2.2,2.1-3.6,3.5c-0.9,0.9-1.8,1.8-2.8,2.7c-8.4,8.1-21.1,20.3-21.1,39.3
			c0,4.7,0.9,9,2.7,13c1.6,3.6,3.9,6.8,6.8,9.7c7.7,7.5,18.2,10.7,25.2,10.5c2.9-0.1,5.5-0.3,7.9-0.8c1.8,9.5,2.9,16.5,3,21.8
			c0,6.5-1.6,10.4-5.5,13.1c-2.4,1.7-5.2,2.7-8.3,2.8c-2.6,0.1-4.8-0.3-6.2-0.8h0c0,0-0.3-0.1-0.3-0.3c0-0.2,0.3-0.2,0.3-0.2h0
			c1.9-0.4,5.4-1.7,7.8-4.9c1.8-2.5,2.6-7.1,0.8-11c-1.1-2.4-3.6-5.3-9.2-5.7c-2.5-0.2-4.7,0.3-6.7,1.5c-1.8,1.1-3.3,2.7-4.3,4.7
			c-2.4,4.7-2,10.3,1.1,14.2c2.9,3.6,7.5,5.9,12.9,6.5c0.8,0.1,1.7,0.1,2.5,0.1c4.4,0,8.8-1.2,12.3-3.4c3.6-2.5,5.7-6.5,6.4-12.1
			c0.6-4.6,0.2-10.5-1.2-18.5c-0.4-2.1-0.9-5.1-1.5-8.8c5.7-1.9,9.8-5.4,13.6-11.3C193.8,227,194.7,220.9,193.3,214.7 M159.3,240.6
			c-4.6-1.2-9-3.7-12.7-7.2c-1.3-1.2-3.2-3.4-4.6-6.7c-1.4-3.1-2-6.5-2-10.1c0.1-4.7,1.4-9.4,3.9-14.2c2.9-5.5,7.4-11,13.4-16.3
			c1.4-1.3,2.8-2.5,4.1-3.8c0.8,4.2,1.6,8.9,2.5,13.7c-3.8,1.3-8.5,4.4-11.6,10c-3.5,6.5-3.4,12-2.6,15.4c0.9,4.4,3.4,8.2,6.9,10.2
			c0.9,0.6,5,2.7,6.8,2.1c0.4-0.1,0.6-0.3,0.8-0.7c0.5-1.2-0.5-1.8-2.1-2.7c-0.6-0.4-1.3-0.8-2-1.3c-3.3-2.5-4.7-6.9-3.7-11.2
			c0.6-2.4,1.8-4.5,3.7-6.2c1.7-1.5,3.7-2.6,6-3.3c2,11.2,4.1,22.2,5.7,30.5c0.1,0.7,0.3,1.3,0.4,2
			C167.8,241.8,163.5,241.8,159.3,240.6 M170.6,207.7c10.3-0.5,14.5,6.9,15.4,11.7c0.5,2.5,0.5,6.9-1.1,11.1
			c-1.2,3.2-3.6,7.2-8.7,9.2c-0.1-0.4-0.1-0.8-0.2-1.3C174.4,229.8,172.5,218.9,170.6,207.7 M163.3,137.3c1.8-5.7,4.5-8.9,6.5-10.6
			c1.7-1.5,3.4-2.2,4.3-2.2c0.1,0,0.3,0,0.4,0c0.5,0.1,1,0.7,1.4,1.6c2.3,4.3,1.6,10.9,0.2,15.3c-1.6,5.4-4.5,10.9-13.2,20.5
			c-0.2-1.1-0.3-2.1-0.5-3.1C161.1,150.6,161.4,143.4,163.3,137.3"/>
		<path class="st1" d="M241,757.7c-0.6-3.9-3-7.5-8-7.5c-5,0-7.8,3.1-8.3,3.7l0.4-31.8c0-0.8-0.6-1.4-1.4-1.4h-1.2
			c-0.8,0-1.4,0.6-1.4,1.4l0.5,59.6c0,0.8,0.6,1.4,1.4,1.4c0.2,0,0.6-0.1,0.8-0.2c0.4-0.2,6.8-3.4,12.2-9.4
			c3.8-4.3,5.3-9.1,5.3-13.2C241.2,759.3,241.1,758.5,241,757.7 M234.2,761.6c0,1.5-0.4,6.1-2.9,9.8c-1.7,2.6-5.1,5.3-6.9,6.7
			l0.3-19.3c0.2-0.9,1.7-3.8,5.7-3.8c3.6,0,3.9,3.4,3.9,5.5V761.6"/>
		<path class="st1" d="M241,522.8c-0.6-3.9-3-7.5-8-7.5c-5,0-7.8,3.1-8.3,3.7l0.4-31.8c0-0.8-0.6-1.4-1.4-1.4h-1.2
			c-0.8,0-1.4,0.6-1.4,1.4l0.5,59.6c0,0.8,0.6,1.4,1.4,1.4c0.2,0,0.6-0.1,0.8-0.2c0.4-0.2,6.8-3.4,12.2-9.4
			c3.8-4.3,5.3-9.1,5.3-13.2C241.2,524.4,241.1,523.6,241,522.8 M234.2,526.7c0,1.5-0.4,6.1-2.9,9.8c-1.7,2.6-5.1,5.3-6.9,6.7
			l0.3-19.3c0.2-0.9,1.7-3.8,5.7-3.8c3.6,0,3.9,3.4,3.9,5.5V526.7"/>
		<path class="st1" d="M241,187.9c-0.6-3.9-3-7.5-8-7.5c-5,0-7.8,3.1-8.3,3.7l0.4-31.8c0-0.8-0.6-1.4-1.4-1.4h-1.2
			c-0.8,0-1.4,0.6-1.4,1.4l0.5,59.6c0,0.8,0.6,1.4,1.4,1.4c0.2,0,0.6-0.1,0.8-0.2c0.4-0.2,6.8-3.4,12.2-9.4
			c3.8-4.3,5.3-9.1,5.3-13.2C241.2,189.4,241.1,188.6,241,187.9 M234.2,191.7c0,1.5-0.4,6.1-2.9,9.8c-1.7,2.6-5.1,5.3-6.9,6.7
			l0.3-19.3c0.2-0.9,1.7-3.8,5.7-3.8c3.6,0,3.9,3.4,3.9,5.5V191.7"/>
		<path class="st1" d="M2464.7,757.5l-0.2-0.3c-0.1-0.1-0.3-0.3-0.6-0.7l-11.4-14.1c-0.3-0.3-0.2-1.1,0-1.5l10.1-15.3
			c0.1-0.2,0.2-0.5,0.2-0.7v-0.9c0-0.3-0.1-0.6-0.3-0.8l-16.1-21.7c0,0-0.8-1.2-1.8-0.3c-1,0.8-0.2,2.1-0.2,2.1l7.5,10.3
			c0.4,0.6,0.4,1.8,0,2.4l-10,15.3c-0.1,0.2-0.2,0.6-0.2,0.8v0.9c0,0.3,0.1,0.6,0.3,0.8l11.1,13.8c-0.4-0.1-1.3-0.3-2.5-0.3
			c-1.7,0-3.9,0.4-5.7,2c-2.2,2-3.4,4.8-3.4,7.2c0,1.4,0.3,2.8,1.1,3.9c2.1,3.2,9.5,12.6,9.5,12.6s0.9,1.1,1.8,0.4
			c0.9-0.7,0.7-1.6,0.4-2.1c-0.3-0.5-3.5-6.3-3.5-6.3s-0.7-1.4-0.7-3.2c0-1.3,0.4-2.9,1.7-4.2c1.2-1.2,2.6-1.6,3.9-1.6
			s2.4,0.4,3.2,0.9l3.9,2.5c0,0,1.2,0.6,1.8-0.3C2465.2,758.4,2465,758,2464.7,757.5"/>
		<path class="st1" d="M2464.7,547.4l-0.2-0.3c-0.1-0.1-0.3-0.3-0.6-0.7l-11.4-14.1c-0.3-0.3-0.2-1.1,0-1.5l10.1-15.3
			c0.1-0.2,0.2-0.5,0.2-0.7V514c0-0.3-0.1-0.6-0.3-0.8l-16.1-21.7c0,0-0.8-1.2-1.8-0.3c-1,0.8-0.2,2.1-0.2,2.1l7.5,10.3
			c0.4,0.6,0.4,1.8,0,2.4l-10,15.3c-0.1,0.2-0.2,0.6-0.2,0.8v0.9c0,0.3,0.1,0.6,0.3,0.8l11.1,13.8c-0.4-0.1-1.3-0.3-2.5-0.3
			c-1.7,0-3.9,0.4-5.7,2c-2.2,2-3.4,4.8-3.4,7.2c0,1.4,0.3,2.8,1.1,3.9c2.1,3.2,9.5,12.6,9.5,12.6s0.9,1.1,1.8,0.4
			c0.9-0.7,0.7-1.6,0.4-2.1c-0.3-0.5-3.5-6.3-3.5-6.3s-0.7-1.4-0.7-3.2c0-1.3,0.4-2.9,1.7-4.2c1.2-1.2,2.6-1.6,3.9-1.6
			s2.4,0.4,3.2,0.9l3.9,2.5c0,0,1.2,0.6,1.8-0.3C2465.2,548.3,2465,547.9,2464.7,547.4"/>
		<path class="st1" d="M2464.7,212.5l-0.2-0.3c-0.1-0.1-0.3-0.3-0.6-0.7l-11.4-14.1c-0.3-0.3-0.2-1.1,0-1.5l10.1-15.3
			c0.1-0.2,0.2-0.5,0.2-0.7V179c0-0.3-0.1-0.6-0.3-0.8l-16.1-21.7c0,0-0.8-1.2-1.8-0.3c-1,0.8-0.2,2.1-0.2,2.1l7.5,10.3
			c0.4,0.6,0.4,1.8,0,2.4l-10,15.3c-0.1,0.2-0.2,0.6-0.2,0.8v0.9c0,0.3,0.1,0.6,0.3,0.8l11.1,13.8c-0.4-0.1-1.3-0.3-2.5-0.3
			c-1.7,0-3.9,0.4-5.7,2c-2.2,2-3.4,4.8-3.4,7.2c0,1.4,0.3,2.8,1.1,3.9c2.1,3.2,9.5,12.6,9.5,12.6s0.9,1.1,1.8,0.4s0.7-1.6,0.4-2.1
			c-0.3-0.5-3.5-6.3-3.5-6.3s-0.7-1.4-0.7-3.2c0-1.3,0.4-2.9,1.7-4.2c1.2-1.2,2.6-1.6,3.9-1.6s2.4,0.4,3.2,0.9l3.9,2.5
			c0,0,1.2,0.6,1.8-0.3C2465.2,213.4,2465,213,2464.7,212.5"/>
		<path class="st4" d="M459.9,784.1l100.6-6.4v12.4l-100.6,6.4V784.1"/>
		<path class="st4" d="M489.4,524.6l100.6-6.4v12.4L489.4,537V524.6"/>
		<path class="st4" d="M1543.7,449.8l93.6,6.4v12.4l-93.6-6.4V449.8"/>
		<path class="st4" d="M1870.8,474.6l93.6,6.4v12.4l-93.6-6.4V474.6"/>
		<path class="st4" d="M489.4,121.4l100.6-6.4v12.4l-100.6,6.4V121.4"/>
		<path class="st4" d="M1514.2,239.1l93.6,6.4v12.4l-93.6-6.4V239.1"/>
		<path class="st4" d="M1870.8,164.9l93.6-6.4v12.4l-93.6,6.4V164.9"/>
		<path class="st1" d="M1377.7,848.6c0-3.2-0.6-4.8-2-5.9c-1.7-1.4-4.1-2-7.3-2c-5.7,0-9.8,2.6-9.8,6.3c0,1.9,1.2,3.1,2.9,3.1
			c1.6,0,2.7-1.1,2.7-2.6c0-0.6-0.2-1.3-0.8-2c-0.3-0.4-0.3-0.5-0.3-0.7c0-1,2-1.9,4.4-1.9c1.6,0,3.3,0.5,4.2,1.2
			c0.9,0.8,1.3,2,1.3,4.2v1.9c-5.2,0.9-6.8,1.3-9.3,2.2c-4.3,1.6-6.4,3.9-6.4,7.1c0,3.6,2.8,5.8,7.2,5.8c3.4,0,6.6-1.4,8.7-3.9
			c0.8,2.6,2.1,3.6,4.4,3.6c2.2,0,4.6-1.4,4.6-2.9c0-0.4-0.2-0.6-0.5-0.6c-0.2,0-0.4,0.1-0.8,0.2c-0.7,0.3-1,0.4-1.4,0.4
			c-1.4,0-1.9-0.9-1.9-3.4V848.6 M1373,854.7c0,3-0.1,3.7-1,5c-1.2,1.9-3.5,3.1-5.7,3.1c-2.3,0-3.9-1.6-3.9-3.9c0-2.1,1-3.6,3.2-4.7
			c1.5-0.7,3.5-1.2,7.4-1.8V854.7 M1392.9,827.9l-9.2,0.6v2.1h2.4c1.9,0.1,2.2,0.4,2.2,2.5v25.5v1.2v1.2c-0.1,0.7-0.1,1-0.3,1.2
			c-0.3,0.5-1.3,0.7-3.4,0.7h-0.2v1.8h12.7v-1.8h-0.2c-3.3-0.1-3.8-0.4-3.8-2.2v-2.2v-5.2c0-2.4,0.3-4.7,0.9-5.9
			c1.1-2.2,3.3-3.8,5.4-3.8c1.3,0,2.8,0.8,3.5,1.8c0.8,1.1,1.2,2.6,1.2,5.1v8.1v2.4c0,0.7-0.1,1-0.3,1.2c-0.4,0.5-1.4,0.7-3.5,0.7
			h-0.2v1.8h12.7v-1.8h-0.2c-3.3-0.1-3.8-0.4-3.8-2.2v-2.2v-7.9c0-3.6-0.2-4.5-1.1-6.2c-1.2-2.4-3.8-3.8-6.8-3.8
			c-3.2,0-5.7,1.4-7.9,4.8V827.9"/>
		<path class="st1" d="M1704.8,848.6c0-3.2-0.5-4.8-2-5.9c-1.7-1.4-4.1-2-7.3-2c-5.7,0-9.8,2.6-9.8,6.3c0,1.9,1.1,3.1,2.9,3.1
			c1.6,0,2.7-1.1,2.7-2.6c0-0.6-0.2-1.3-0.8-2c-0.3-0.4-0.3-0.5-0.3-0.7c0-1,2-1.9,4.4-1.9c1.6,0,3.4,0.5,4.2,1.2
			c1,0.8,1.3,2,1.3,4.2v1.9c-5.2,0.9-6.8,1.3-9.3,2.2c-4.3,1.6-6.4,3.9-6.4,7.1c0,3.6,2.8,5.8,7.2,5.8c3.5,0,6.6-1.4,8.7-3.9
			c0.8,2.6,2,3.6,4.4,3.6c2.2,0,4.6-1.4,4.6-2.9c0-0.4-0.2-0.6-0.5-0.6c-0.2,0-0.4,0.1-0.8,0.2c-0.7,0.3-1,0.4-1.4,0.4
			c-1.4,0-1.9-0.9-1.9-3.4V848.6 M1700.1,854.7c0,3-0.2,3.7-1,5c-1.2,1.9-3.5,3.1-5.7,3.1c-2.3,0-3.9-1.6-3.9-3.9
			c0-2.1,1.1-3.6,3.2-4.7c1.6-0.7,3.5-1.2,7.4-1.8V854.7 M1720,827.9l-9.2,0.6v2.1h2.4c1.9,0.1,2.2,0.4,2.2,2.5v25.5v1.2v1.2
			c0,0.7-0.1,1-0.3,1.2c-0.4,0.5-1.3,0.7-3.5,0.7h-0.2v1.8h12.7v-1.8h-0.2c-3.3-0.1-3.8-0.4-3.8-2.2v-2.2v-5.2
			c0-2.4,0.3-4.7,0.9-5.9c1.1-2.2,3.3-3.8,5.5-3.8c1.3,0,2.8,0.8,3.5,1.8c0.8,1.1,1.2,2.6,1.2,5.1v8.1v2.4c-0.1,0.7-0.1,1-0.3,1.2
			c-0.3,0.5-1.3,0.7-3.5,0.7h-0.2v1.8h12.6v-1.8h-0.2c-3.3-0.1-3.8-0.4-3.8-2.2v-2.2v-7.9c0-3.6-0.2-4.5-1.1-6.2
			c-1.2-2.4-3.8-3.8-6.8-3.8c-3.2,0-5.6,1.4-7.9,4.8V827.9"/>
		<path class="st1" d="M2065.6,840.2c0.9-0.4,1.5-0.6,3.6-1.2c8.6-2.4,15.2-3.5,20.4-3.5c6.8,0,10.9,3.4,10.9,9
			c0,5.6-3.8,10.1-10.7,12.6c-3.8,1.4-8.3,2.1-13.9,2.3c0.9,1.4,1.1,1.9,1.5,3.7c7.8-0.6,12-1.6,16.6-3.8
			c6.7-3.2,10.4-8.5,10.4-14.8c0-7.6-5.8-12.5-15-12.5c-4.1,0-8.9,0.6-14.5,1.9c-8.9,2-8.9,2-10.4,2.1L2065.6,840.2"/>
		<path class="st1" d="M2063.2,892.6c0.8-0.1,0.9-0.1,1.9-0.1c6.6-0.1,12.6-0.6,17.8-1.3l0.2,0.5c0,0.1,0.3,0.6,0.6,1.1
			c2.2,4.2,3.8,6.9,6,9.8c-2.1-1.1-6.1-1.8-10.3-1.8c-4.1,0-7.1,0.6-9.7,1.9c-3.5,1.7-5.6,4.9-5.6,8.1c0,2,0.8,4,2.2,5.5
			c2.3,2.4,6.9,3.8,13,3.8c4.9,0,9.7-0.8,14.7-2.6l-0.6-3.9c-3.8,2-9.2,3.2-14.2,3.2c-4.3,0-7.9-0.9-9.8-2.3c-1.2-1-1.9-2.4-1.9-3.9
			c0-1.8,1.1-3.6,2.7-4.7c2.2-1.4,5.3-2.1,9.5-2.1c3.4,0,6.2,0.4,8.8,1.3c1.4,0.5,2.1,1,3.4,2.1l3.4-1.9c-3.2-4.1-7-10.3-9-14.6h0.3
			c0.2-0.1,0.5-0.1,1.1-0.2c0.9-0.2,2.3-0.4,4.3-0.9c0.3-0.1,0.8-0.2,1.2-0.3c0.6-0.2,1-0.2,1.1-0.3c0.1,0,0.4-0.1,0.6-0.1l-0.5-3.5
			c-1.1,0.6-5.1,1.6-9.4,2.4c-0.5-0.9-0.6-1.2-1.8-4.4c-1.2-3.1-1.2-3.2-1.4-4.5l-4,0.6c0.4,0.8,0.7,1.4,1.3,2.9
			c0.9,2.1,1.7,4,2.4,5.9c-4.7,0.6-10.3,1.1-14.9,1.1c-1.7,0-2.6-0.1-3.9-0.2L2063.2,892.6 M2092.6,879.1c1.5,1.4,4,5.1,5.4,7.8
			l2.5-1.6c-1.6-2.9-3.1-4.9-5.4-7.6L2092.6,879.1 M2098.2,876.2c2,2.2,4.2,5.4,5.3,7.7l2.5-1.5c-1.8-3.1-3.1-5-5.4-7.7
			L2098.2,876.2"/>
		<path class="st1" d="M2189.4,836.8c0.4-0.1,0.8-0.1,0.8-0.1c0,0,0.1,0,0.2,0c2,0.1,2.4,0.1,4.2,0.1c1.8,0,2.4,0,3.4-0.1
			c-1.9,9.8-5.7,21.2-9.4,27.6l3.6,1.6c2.6-6.1,4.1-9.9,5.8-15.2c1.4-4.6,2.8-10.2,3.5-14.1c2.4-0.2,5.9-0.7,8.4-1.2
			c1-0.2,1-0.2,1.4-0.2l-0.2-3.5c-2.4,0.8-5.1,1.3-9,1.7c0.2-1.5,0.4-2.2,0.6-3.8c0.6-3.6,0.6-3.6,0.9-4.8l-3.9-0.4
			c0,2.2-0.1,3.1-1.1,9.2c-1.5,0.1-2,0.1-3,0.1c-2.7,0-4.7-0.1-6.2-0.4V836.8 M2227.2,839.3c-3.8-0.1-4.5-0.1-5.5-0.1
			c-4.2,0-7.4,0.4-13.2,1.6l0.4,3.4c4.6-1.2,8.1-1.7,12.5-1.7c2.1,0,3.5,0.1,5.9,0.4L2227.2,839.3 M2209,850.1
			c-2.6,3.4-3.3,4.9-3.3,7.2c0,4.9,4.2,7.5,12.4,7.5c2.6,0,5.6-0.2,8.9-0.8c1.7-0.2,1.7-0.2,2.2-0.4l-0.4-3.8
			c-2.9,1-7.3,1.7-11.1,1.7c-5.7,0-8.8-1.6-8.8-4.6c0-1.2,0.4-2.5,1.2-3.6c0.4-0.6,0.5-0.7,1.5-1.9L2209,850.1"/>
		<path class="st1" d="M2227.2,914.7c-0.6-0.4-0.9-0.6-1.7-1.2c-5.2-3.8-9.6-6.1-13.9-7.3c-0.2-4.9-0.2-4.9-0.3-7.7
			c3.7-0.2,7.7-0.6,11.1-1.2c1.8-0.2,2.2-0.3,2.9-0.4l-0.2-3.4c-2.8,0.9-7.1,1.6-13.9,2.1c0-2.6,0-2.6-0.1-6.8
			c5.6-0.4,6.9-0.5,11.6-1.2c2.6-0.4,2.6-0.4,3.5-0.4l-0.2-3.4c-2.8,0.9-7.9,1.6-14.8,2.1c0.1-3.6,0.1-6,0.3-7.1h-3.8
			c0.2,1.1,0.2,1.1,0.2,7.2c-1.7,0-3.4,0.1-4.4,0.1c-5.4,0-10.6-0.4-12.8-1l0,3.4c0.3,0,0.5,0,0.7,0c0.2,0,0.6,0,0.9,0
			c4.5,0.4,8.6,0.5,12.2,0.5c1.2,0,2,0,3.4,0l0.1,6.8c-1.4,0.1-3.1,0.1-4.4,0.1c-5.1,0-9.2-0.3-11.4-0.8l-0.1,3.3c0.2,0,0.4,0,0.4,0
			c0.3,0,0.7,0,1.2,0.1c3.1,0.2,5.4,0.3,8.4,0.3c1.6,0,4.1,0,5.9-0.1c0.1,1.3,0.1,2.2,0.1,2.9c0.1,1.4,0.1,2.5,0.1,2.9
			c0,0.3,0.1,0.5,0.1,0.6c0,0.4,0,0.4,0.1,0.6c-2.1-0.4-2.9-0.4-4.5-0.4c-2.2,0-3.7,0.2-5.2,0.5c-4.4,1-7,3.6-7,6.9
			c0,2.1,1,4,2.7,5.2c1.7,1.3,4.4,2,7.8,2c3.9,0,7-1.1,8.4-3.2c0.9-1.2,1.2-2.8,1.2-5.4c0-0.6,0-0.6-0.1-1.8
			c1.3,0.6,2.5,1.1,3.3,1.5c4.2,2.2,7.9,4.8,10.2,7.2L2227.2,914.7 M2208.4,910.6c0,2.4-0.3,3.8-1,4.5c-0.9,1.1-2.9,1.6-5.5,1.6
			c-4.4,0-6.9-1.5-6.9-4.1s3.2-4.4,8.2-4.4c2.2,0,3.2,0.1,5.1,0.6L2208.4,910.6"/>
		<path class="st1" d="M2325.4,838.9c0.1,0,0.2,0,0.2,0c0.1,0,0.2,0,0.5,0c0.1,0,0.4,0,0.8,0.1c0.2,0,0.8,0,1.6,0.1
			c1.8,0.1,3.6,0.1,5.6,0.1c1.9,0,3.4-0.1,5.7-0.1c0.2,7.3,0.4,12,0.5,13.1c-1.1-0.6-3.5-1-5.5-1c-5.6,0-9.5,2.9-9.5,7.1
			c0,4.4,3.6,7.1,9.4,7.1c4.1,0,7.1-1.6,8.3-4.2c0.4-0.9,0.6-2.1,0.6-3.4c0-0.4,0-0.6-0.1-1.3c0.2,0.2,0.2,0.2,0.5,0.3
			c0.3,0.2,0.3,0.2,0.5,0.3c3.5,2.1,5.5,3.4,7.1,5.2l1.6-3.5c-0.6-0.3-0.6-0.4-1.2-0.8c-3.3-2.5-4.7-3.2-8.4-4.9
			c-0.4-6.6-0.5-9.2-0.5-14.1c2.6-0.3,4-0.5,5.3-0.8c3.4-0.7,3.4-0.7,3.5-0.7l-0.1-3.4c-1.9,0.8-4.8,1.4-8.6,1.9
			c-0.1-1.1-0.1-1.9-0.1-2.4c0-4.2,0.1-6.5,0.3-7.9h-3.8c0.1,0.5,0.2,1.2,0.2,2.1c0,3.8,0,3.8,0.1,8.5c-2.1,0.1-3.4,0.1-5.4,0.1
			c-4.4,0-6.6-0.2-9-0.8L2325.4,838.9 M2340.5,855.2c0,0,0.1,1.2,0.1,1.5c0,2-0.3,3.2-0.9,3.9c-0.9,1.1-2.9,1.8-5.1,1.8
			c-3.5,0-5.8-1.6-5.8-4.1c0-2.5,2.6-4.1,6.5-4.1C2337.1,854.2,2338.4,854.4,2340.5,855.2 M2316.6,825.5c-0.1,0.7-0.1,1-0.6,3.2
			c-1.9,8.6-2.6,13.9-2.6,20.6c0,5,0.5,10.2,1.4,14.8c0.2,1.2,0.2,1.4,0.3,1.9l3.5-0.4c-0.1-0.7-0.1-0.8-0.1-1
			c0-2.9,1.9-9.3,4.3-14.2l-2.5-1.1c-0.1,0.3-0.2,0.5-0.4,1c-1.7,4.1-2.1,5-2.9,8.8l-0.2,0c0-0.5,0-0.5,0-1c-0.1-0.9-0.1-1-0.1-1.4
			c-0.1-2.3-0.2-5.2-0.2-7c0-8.2,1.7-18.4,3.8-23.4L2316.6,825.5"/>
		<path class="st1" d="M2317.6,879.7c-0.1,1.1-0.2,1.6-0.7,4c-1.7,7.4-2.2,12.7-2.2,19.8c0,5.2,0.3,8.8,1.3,14.1
			c0.1,0.9,0.2,1.2,0.3,2l3.6-0.3c0-0.3,0-0.6,0-0.8c0-2.8,1.8-8.8,4.1-13.8l-2.4-1.1c-1.6,3.6-2.5,6.4-3.2,9.8
			c-0.2-2.7-0.3-5.6-0.3-9.5c0-6,0.4-10.4,1.5-15.7c0.8-3.4,1.3-5.8,2.1-8L2317.6,879.7 M2327.9,889.1c3.2,0.4,5.2,0.5,8,0.5
			c3.8,0,7.8-0.2,10.8-0.6c2.2-0.3,3.3-0.5,3.4-0.5l-0.2-3.5c-3.4,0.9-7.9,1.3-13.4,1.3c-3.9,0-6.4-0.2-8.5-0.8L2327.9,889.1
			 M2331.5,898.9c-3.1,3.6-4.3,6.2-4.3,9.3c0,1.8,0.5,3.3,1.5,4.6c2.1,2.6,5.8,3.8,11.4,3.8c3.4,0,6.8-0.3,10.2-1
			c1-0.1,1.1-0.2,1.8-0.2l-0.5-3.8c-2.7,1.1-6.9,1.8-11.5,1.8c-6.4,0-9.6-1.8-9.6-5.5c0-2.2,1.2-4.6,3.8-7.4L2331.5,898.9"/>
		<path class="st1" d="M337.7,329.2c-0.6-0.4-0.9-0.5-1.7-1.1c-5.2-3.8-9.6-6.1-14-7.3c-0.2-4.8-0.2-4.8-0.3-7.6
			c3.7-0.2,7.6-0.7,11.1-1.2c1.8-0.2,2.2-0.3,2.9-0.4l-0.2-3.4c-2.8,0.9-7,1.6-13.9,2.1c0-2.7,0-2.7-0.1-6.8
			c5.5-0.4,6.9-0.5,11.6-1.2c2.6-0.3,2.6-0.3,3.5-0.4l-0.2-3.4c-2.8,0.9-7.9,1.6-14.8,2c0-3.6,0.2-6,0.3-7h-3.8
			c0.2,1.1,0.2,1.1,0.2,7.2c-1.6,0-3.4,0.1-4.4,0.1c-5.4,0-10.6-0.4-12.8-1l-0.1,3.4c0.3-0.1,0.6-0.1,0.7-0.1c0.2,0,0.5,0,0.9,0.1
			c4.5,0.4,8.6,0.5,12.2,0.5c1.1,0,1.9,0,3.4-0.1l0.1,6.9c-1.4,0.1-3.1,0.1-4.5,0.1c-5,0-9.2-0.3-11.4-0.8l-0.1,3.3
			c0.1,0,0.4,0,0.4,0c0.3,0,0.7,0,1.2,0c3.1,0.2,5.5,0.4,8.5,0.4c1.6,0,4.1-0.1,5.9-0.1c0.1,1.3,0.1,2.2,0.1,2.9
			c0,1.4,0,2.5,0.1,2.9c0,0.3,0,0.5,0,0.6c0,0.4,0,0.4,0.1,0.6c-2.2-0.3-2.9-0.4-4.5-0.4c-2.2,0-3.7,0.1-5.2,0.5c-4.4,1-7,3.6-7,6.9
			c0,2.1,1,4,2.7,5.2c1.7,1.3,4.4,2,7.8,2c3.9,0,7-1.1,8.5-3.1c0.9-1.2,1.2-2.8,1.2-5.4c0-0.7,0-0.7-0.1-1.8
			c1.4,0.6,2.5,1.1,3.4,1.5c4.2,2.2,7.9,4.8,10.2,7.1L337.7,329.2 M318.8,325.2c0,2.4-0.3,3.8-1,4.5c-1,1.1-2.9,1.6-5.5,1.6
			c-4.4,0-6.9-1.5-6.9-4.1c0-2.7,3.2-4.5,8.2-4.5c2.2,0,3.2,0.1,5.1,0.6L318.8,325.2"/>
		<path class="st1" d="M301.4,356.5c0.4-0.1,0.6-0.1,0.8-0.1c0.1,0,0.5,0,0.9,0.1c4,0.2,6.2,0.2,6.8,0.2h2c-0.2,3.7-0.2,3.9-0.3,7.6
			c-7.2,3.1-11.6,8.8-11.6,14.9c0,4.5,2.7,7.6,6.5,7.6c3.5,0,7.3-2.1,11.1-6.1c3.9-3.9,6.6-8.2,9.5-15c5.4,1.4,8.2,4.4,8.2,8.7
			c0,4.5-3.2,8.1-8.6,10c-2.4,0.9-4.5,1.2-7.5,1.4c0.9,1.4,1.2,1.9,1.6,3.4c4.5-0.6,7.3-1.4,10.2-2.9c5.2-2.7,7.9-6.6,7.9-11.6
			c0-5.8-3.9-10.1-10.8-11.7c0.8-2.4,1.4-3.7,1.5-4l-3.5-1.1c-0.2,1.5-0.6,3-1.2,4.5c-1.2-0.1-1.8-0.1-2.9-0.1c-2.7,0-4.9,0.3-7.4,1
			c0.1-2.4,0.1-2.4,0.4-6.7c4.6-0.2,12.3-1,17.7-2c1-0.2,1.1-0.2,1.8-0.2l-0.2-3.5c-3.8,1.3-10.9,2.4-19.1,2.8c0.4-3.9,0.6-5.6,1-7
			l-3.9-0.2c0,0.4,0,0.7,0,0.8c0,0.4-0.1,2.3-0.1,2.9c-0.2,2.6-0.2,2.6-0.2,3.8c-0.9,0.1-1.1,0.1-1.2,0.1c-4.6,0-7.2-0.2-9.4-0.8
			L301.4,356.5 M311.5,367.5c0,6.1,0.3,9.7,1,13.6c-2.2,1.8-3.9,2.6-5.8,2.6c-2.1,0-3.6-1.8-3.6-4.6c0-2.5,1.1-5.1,3.1-7.4
			C307.6,370,309.1,368.8,311.5,367.5 M315.2,378.9c0-0.2,0-0.5,0-0.6c0-0.3,0-0.4-0.1-0.7c-0.4-4.2-0.5-5-0.5-11.5
			c2.3-0.8,4.7-1.1,7-1.1c0.5,0,0.8,0,2.4,0.1c-2.3,5.2-4.4,8.8-7.6,12.5c-0.4,0.4-0.5,0.5-1,1.3L315.2,378.9"/>
		<path class="st1" d="M457.1,308.7c0.8-0.4,1.5-0.6,3.6-1.2c8.7-2.4,15.2-3.5,20.4-3.5c6.8,0,11,3.4,11,9c0,5.6-3.9,10.1-10.7,12.6
			c-3.8,1.4-8.3,2.1-13.9,2.3c0.9,1.4,1.2,1.9,1.5,3.7c7.8-0.6,12-1.6,16.6-3.8c6.7-3.2,10.4-8.5,10.4-14.8c0-7.6-5.8-12.5-15-12.5
			c-4.1,0-8.9,0.6-14.5,1.9c-8.9,2-8.9,2-10.4,2.1L457.1,308.7"/>
		<path class="st1" d="M454.9,363.1c1.3-0.4,1.8-0.4,2.9-0.6c0.4-0.1,2.8-0.5,7.1-1.2c-1.6,6.4-3.1,10.9-5.5,15.9
			c-1.8,3.8-3.6,7.1-5.2,9.1l3.4,2c1.5-2.8,2.6-4.8,3.2-6c3.4-6.9,5.7-13.3,7.5-21.2c1.9-0.2,2.5-0.2,3.6-0.2c4.6,0,6.1,1.7,6.1,7
			c0,5.6-0.8,10.7-2.1,13.9c-0.7,1.6-1.6,2.4-2.9,2.4c-1.8,0-4.6-0.8-7.4-2.3c0.1,0.9,0.1,1.2,0.1,2c0,0.7,0,1-0.1,1.8
			c3.3,1.4,5.4,2,7.5,2c2.3,0,3.7-0.7,4.9-2.4c2-2.9,3.3-9.6,3.3-17.2c0-4.1-0.7-6.4-2.5-8.1c-1.5-1.5-3.6-2.1-7.2-2.1
			c-1.1,0-1.8,0.1-2.9,0.2c0.4-2.4,0.8-4.2,1-5.7c0.5-2.9,0.6-3.7,1-4.8l-4-0.4c0,0.3,0,0.5,0,0.6c0,2.1-0.7,6.9-1.5,10.6
			c-4.1,0.6-9.2,1.2-11.1,1.3L454.9,363.1 M484.4,356.5c4.8,5,8.3,11.1,10.2,18l3.2-1.9c-2.4-7.1-5.4-12.2-10.5-17.7L484.4,356.5"/>
		<path class="st1" d="M566.9,299.6c-5.1,0-8.9-0.2-10.7-0.6l0,3.4c0.5,0,0.6,0,1.1,0c0.2,0,0.5,0,0.8,0c1.9,0,6.6,0.1,7.4,0.1
			c0.2,0,0.8-0.1,1-0.1c-0.3,0.5-0.3,0.5-0.5,0.8c-3.6,6.4-7.8,11.7-11.2,14.3l2.8,2.8c0.8-1.4,1.9-2.5,3.9-4.1
			c4-3.5,8-5.3,11.1-5.3c2.4,0,3.5,1.2,4,3.9c-3.3,1.4-5.8,2.8-7.5,4c-3.4,2.6-5.1,5.1-5.1,7.9c0,5.2,4.3,7.7,13.3,7.7
			c3.8,0,8.2-0.4,12.2-1c1-0.2,1.2-0.2,2-0.2l-0.5-3.9c-2.9,1.1-8.4,1.9-13.4,1.9c-7,0-10.1-1.4-10.1-4.8c0-3,2.6-5.3,9.4-8.6
			c0.1,0.6,0.1,0.7,0.1,1.5c0,3.1-0.2,6.1-0.3,7.2l3.4-0.1c-0.1-0.7-0.1-1.1-0.1-1.8c0-0.4,0-1.1,0-2.2c0-1,0-2.1,0-2.8
			c0-1.2,0-1.8-0.1-3.1c6.2-2.4,10.8-3.9,13.3-4.4l-1.6-3.5c-0.8,0.6-1,0.6-3.4,1.4c-2.2,0.8-5,1.9-8.7,3.3
			c-0.6-3.7-2.9-5.6-6.6-5.6c-2.6,0-5.2,0.9-7.5,2.4c-0.5,0.4-0.5,0.4-2.3,1.8c0-0.1,0-0.1-0.1-0.1c0,0,0,0,0-0.1c0,0,0,0,0-0.1
			c0-0.1,0.3-0.2,0.7-0.5c0.2-0.1,1.2-1.3,1.7-1.9c1.8-2.2,3-4.2,4.5-7.1c6-0.2,11.3-0.6,16.5-1.3c0.9-0.1,1.2-0.2,2-0.2l-0.3-3.4
			c-2.8,0.9-7.8,1.5-15.8,1.9c-0.4,0-0.4,0-1,0.1c0.2-0.4,0.9-1.8,1.5-3.4c0.9-2.1,0.9-2.1,1.3-2.7l-4-0.7c-0.2,1.6-0.8,3.4-2.4,6.9
			H566.9"/>
		<path class="st1" d="M559.2,350.1c1,1.6,2,4.5,3.6,9.5c-0.8,0.2-1.3,0.4-2.5,0.8c-6,2.1-6,2.1-7.3,2.3l1.3,3.6
			c1.3-0.8,4-1.8,6.8-2.8c2.2-0.7,2.2-0.7,2.7-0.9c3.2,10.8,6,22.9,6.3,27l4-0.9c-0.3-0.8-0.4-1.1-0.6-2.1
			c-2.1-9.4-3.9-16.4-6.5-24.9c7.2-2.4,12.7-3.6,16.3-3.6c5,0,8,2.2,8,6.1c0,2.1-0.8,3.9-2.4,5.1c-1.7,1.2-3.9,2-6,2
			c-2.9,0-5.8-0.8-8.4-2.3c0.2,1.9,0.3,2.2,0.3,2.8c0,0.2,0,0.5,0,0.9c3,1.2,5.7,1.8,8.5,1.8c6.8,0,11.8-4.3,11.8-10.3
			c0-5.6-4.3-9.2-11-9.2c-1.2,0-2.4,0.1-3.8,0.3c0-0.6,0-1.6,0-1.6c0-3.9,0-5.5,0.2-6.8h-3.8c0.1,1.2,0.2,1.7,0.2,8.8
			c-3.8,0.8-3.8,0.8-10.8,2.8c-0.7-2.2-1.2-3.6-2.2-6.6c-0.6-1.5-0.7-1.9-1-3L559.2,350.1"/>
		<path class="st1" d="M652.2,297.8c0.1,0.9,0.1,1.1,0.1,2.9c0.2,12.3,1,18.7,2.7,23.5c1.7,4.8,4.3,7.6,7.1,7.6
			c3.6,0,5.9-3.3,8.3-12.1c-1.4-1.1-1.9-1.6-3-2.9c-0.7,3.4-1.5,6.1-2.6,8.6c-0.8,1.6-1.6,2.5-2.5,2.5c-1.9,0-3.9-3.4-5-8.6
			c-0.8-3.2-1.3-10.1-1.3-15.6c0-2.8,0.1-4.4,0.3-5.9L652.2,297.8 M677.5,302c5.8,6.8,9.5,15.4,10.4,24.7l3.6-1.5
			c-0.9-5.6-1.9-9.1-3.8-13.3c-1.9-4.2-3.9-7.6-7.2-11.4L677.5,302"/>
		<path class="st1" d="M654.7,358c0.9-0.1,1-0.1,3.1-0.1c5.7-0.1,9.7-0.4,13.5-0.9c1.2,2.7,1.5,3.2,2.8,5.7
			c-4.1,0.8-10.5,1.2-15.8,1.2c-2,0-2.9-0.1-4-0.2l0.1,3.3c0.9-0.1,1.1-0.1,3.5-0.2c9.3-0.3,12.6-0.6,17.5-1.4c1.8,3,3.8,6,5.3,7.7
			c-3.3-1.1-5.9-1.4-10.1-1.4c-9.5,0-15.2,3.2-15.2,8.6c0,2.6,1.3,4.9,3.8,6.2c2.5,1.4,5.7,2.1,10.3,2.1c4.5,0,8.7-0.6,12.8-1.9
			c2.3-0.7,2.3-0.7,3-0.8l-0.7-3.9c-3,1.9-9.6,3.4-14.8,3.4c-6.8,0-10.6-1.8-10.6-5.1c0-3.4,4.6-5.7,11.8-5.7c2.2,0,4.8,0.2,6.5,0.4
			c2.5,0.4,3.6,0.8,5.5,1.9l3-2.1c-3.8-4.5-4.4-5.2-7.3-9.9c1.8-0.4,4.3-0.9,7.8-1.8c1.7-0.4,1.9-0.4,2.7-0.6l-0.4-3.4
			c-2,1-4.8,1.8-11.4,3.1c-0.8-1.4-2.1-4-2.9-5.7c2.8-0.4,8.2-1.6,12.6-2.8l-0.3-3.2c-2.8,1.2-7.5,2.4-13.3,3.3
			c-1.2-2.6-2.2-5.2-2.7-7.1l-3.8,0.7c0.5,0.7,1.5,3,3,6.8c-4.6,0.5-7.6,0.7-11.8,0.7c-1.7,0-2.5-0.1-3.8-0.2L654.7,358"/>
		<path class="st1" d="M815.8,300c0.8-0.1,2-0.2,3.6-0.2c5.6-0.1,12.1-0.6,14.2-0.9c0.2-0.1,0.4-0.1,0.7-0.1l0.1,0.1
			c-0.2,0.2-0.2,0.2-0.4,0.4c-0.2,0.2-0.2,0.2-0.4,0.5c-4.6,4.8-11.4,11.2-16.6,15.8c-3,2.6-4.6,3.9-6.5,4.9l2.5,3.1
			c1-1.1,2.2-2,3.9-3.1c5-3.5,11-5.5,16-5.5c6.2,0,9.9,2.6,9.9,7c0,5.1-5.3,8.7-13,8.7c-4.3,0-9.2-1.2-12.8-3.1
			c0.2,1.6,0.3,2.3,0.3,3.2c0,0.2,0,0.5,0,0.9c4.6,1.6,8.3,2.4,12,2.4c4.1,0,8-0.8,10.7-2.1c4-2.1,6.5-5.8,6.5-9.9
			c0-6.1-5.1-10-13-10c-4.6,0-7.7,1-12.7,4l-0.2-0.2c4-2.8,6.4-4.9,13.6-12.2c4.7-4.6,4.7-4.6,5.4-5.1l-2.1-2.9
			c-0.6,0.2-1,0.4-2.1,0.5c-3.4,0.3-9.8,0.6-14.4,0.6c-3,0-4-0.1-5.5-0.3L815.8,300"/>
		<path class="st1" d="M808.9,351.7c0.1,0.9,0.1,1,0.1,2.9c0.2,12.3,1,18.7,2.7,23.4c1.7,4.8,4.3,7.6,7.1,7.6
			c3.5,0,5.8-3.4,8.3-12.1c-1.4-1.1-1.9-1.6-3-2.9c-0.7,3.4-1.5,6.1-2.6,8.6c-0.8,1.7-1.6,2.5-2.5,2.5c-1.9,0-4-3.4-5.1-8.6
			c-0.8-3.2-1.3-10-1.3-15.5c0-2.8,0.1-4.4,0.4-6L808.9,351.7 M834.2,355.9c5.8,6.8,9.5,15.3,10.4,24.6l3.5-1.4
			c-0.9-5.6-1.8-9.2-3.8-13.4c-1.8-4.2-3.9-7.6-7.1-11.4L834.2,355.9"/>
		<path class="st1" d="M1015.4,294.3c0.3,0.8,0.4,1.1,0.9,3.2c1.3,6.5,2.3,10.3,3.6,14c-3.1,1.5-4.6,2.5-6.5,4.1
			c-3,2.4-4.5,5.3-4.5,8.5c0,3.9,2.1,6.7,6.2,8.2c2.4,0.9,6.2,1.4,11.1,1.4c3.5,0,5.9-0.1,11.1-0.6l1.7-0.2l0.5,0
			c0.6-0.1,0.8-0.1,1.5-0.1l-0.4-4.2c-2.9,1.1-8.5,1.7-14.3,1.7c-9.8,0-13.6-1.8-13.6-6.3c0-4.2,3.7-7.4,12.2-10.9
			c4.4-1.8,11.5-4,15-4.8l-1.5-3.8c-0.9,0.5-1.4,0.7-3.2,1.4c-7.7,2.6-9.3,3.3-12.1,4.4c-1.3-3.6-3.8-14.2-3.8-16.6L1015.4,294.3
			 M1033.7,294.1c1.4,1.6,3.8,5.3,5.1,7.9l2.5-1.5c-1.5-2.9-2.9-5.1-5.1-7.8L1033.7,294.1 M1039.4,291.4c1.9,2.3,4,5.5,5.1,7.8
			l2.5-1.4c-1.7-3.2-2.9-5-5.2-7.8L1039.4,291.4"/>
		<path class="st1" d="M1015.3,353.9c0.8-0.2,2-0.2,3.6-0.2c5.6-0.2,12.1-0.6,14.2-0.9c0.2-0.1,0.4-0.1,0.6-0.1l0.1,0
			c-0.2,0.2-0.2,0.2-0.4,0.4c-0.2,0.2-0.2,0.2-0.5,0.5c-4.6,4.8-11.4,11.2-16.6,15.8c-3,2.5-4.7,3.8-6.5,4.9l2.5,3.1
			c1.1-1,2.2-2,3.9-3.1c5-3.4,10.9-5.5,16-5.5c6.1,0,9.9,2.6,9.9,7c0,5.1-5.3,8.7-13.1,8.7c-4.3,0-9.1-1.1-12.7-3.1
			c0.2,1.5,0.4,2.3,0.4,3.1c0,0.2,0,0.5-0.1,0.9c4.7,1.7,8.3,2.4,12,2.4c4,0,8-0.8,10.6-2.1c4.1-2,6.5-5.8,6.5-9.9
			c0-6.1-5-9.9-13-9.9c-4.5,0-7.7,1-12.7,3.9l-0.2-0.1c4-2.9,6.3-4.9,13.6-12.2c4.7-4.7,4.7-4.7,5.4-5.2l-2.1-2.9
			c-0.6,0.2-1,0.3-2.1,0.4c-3.4,0.4-9.8,0.6-14.4,0.6c-3.1,0-4,0-5.6-0.3L1015.3,353.9"/>
		<path class="st1" d="M1168.3,299.7c1.1-0.1,1.6-0.2,2.7-0.2c7.6-0.2,13.6-0.6,15.2-0.9c0.3-0.1,0.3-0.1,0.4-0.1l0.1,0.1l-0.2,0.2
			c-0.1,0.1-0.2,0.2-0.2,0.2c-0.4,0.4-0.4,0.4-0.7,0.7c-3.4,3.4-11.3,10.4-16.7,14.6c-3.4,2.8-5.2,4.1-7,5.1l2.2,3.2
			c5.8-5.4,13.7-8.6,21-8.6c6.8,0,10.8,2.9,10.8,7.6c0,4.2-2.8,7.3-8,8.8c-0.7-2.2-1.2-3.4-2.3-4.8c-2-2.7-4.9-4.1-8.2-4.1
			c-4.2,0-7.2,2.5-7.2,5.9c0,4.6,4,7.2,11.1,7.2c11.1,0,18.3-5.2,18.3-12.9c0-6.4-5.3-10.5-13.7-10.5c-4.4,0-8.5,1-12.2,3.1
			l-0.1-0.1c3.5-2.2,9.5-7.4,16.4-14.2c1.6-1.6,1.8-1.8,2.6-2.1l-2.1-2.8c-0.6,0.4-1.1,0.4-2.4,0.6c-4.5,0.3-11.2,0.6-15.3,0.6
			c-2.4,0-3.3-0.1-4.7-0.3L1168.3,299.7 M1184.7,331.4c-1.8,0.3-2.4,0.3-3.7,0.3c-2.2,0-4.3-0.4-5.6-1.1c-1.3-0.8-2-1.8-2-3.1
			c0-1.9,1.5-3.1,4-3.1C1181.1,324.4,1183.6,326.8,1184.7,331.4"/>
		<path class="st1" d="M1183.4,354c2.5,0.1,3.9,0.5,5.8,1.2c5,2.2,7.9,6.9,7.9,12.6c0,6.2-3.3,11.5-8.8,14c-2.3,1.1-4.7,1.8-8.3,2.4
			c0.9,1.2,1.2,1.7,1.8,3.3c3.4-0.8,5.3-1.3,7.6-2.3c7.2-3.1,11.4-9.5,11.4-17.2c0-4.8-1.7-9.2-4.8-12.2c-3.2-3.2-8.2-4.9-13.8-4.9
			c-6.7,0-12.2,2.2-16.2,6.7c-3.3,3.8-5.2,8.7-5.2,13.8c0,7,3.6,12.2,8.3,12.2c3.6,0,6.5-3,9.4-9.6
			C1180.8,368.6,1182.7,360.9,1183.4,354 M1179.8,354c-0.7,6.4-2.5,13.8-4.6,18.5c-2.2,4.9-4.2,7.2-6.2,7.2c-2.7,0-4.8-3.7-4.8-8.5
			c0-6.2,3.1-11.8,8.1-14.9C1174.7,355,1176.8,354.3,1179.8,354"/>
		<path class="st1" d="M1363.8,309.2c1.3-0.4,1.8-0.5,2.9-0.7c0.4-0.1,2.8-0.5,7.1-1.1c-1.6,6.4-3.1,10.8-5.5,15.8
			c-1.8,3.8-3.6,7.1-5.2,9.1l3.4,2c1.5-2.8,2.6-4.8,3.2-6c3.4-6.9,5.7-13.3,7.5-21.2c1.9-0.2,2.5-0.2,3.6-0.2c4.6,0,6.1,1.7,6.1,7
			c0,5.6-0.8,10.7-2.1,13.9c-0.7,1.6-1.6,2.4-2.8,2.4c-1.8,0-4.6-0.9-7.4-2.3c0.1,0.9,0.1,1.2,0.1,2c0,0.6,0,1-0.1,1.8
			c3.3,1.4,5.4,1.9,7.6,1.9c2.3,0,3.7-0.6,4.9-2.3c2-2.9,3.3-9.6,3.3-17.2c0-4.1-0.7-6.4-2.5-8c-1.5-1.5-3.6-2.1-7.2-2.1
			c-1.2,0-1.8,0.1-2.9,0.1c0.4-2.4,0.8-4.2,1-5.7c0.5-2.8,0.6-3.7,1-4.8l-4-0.4c0,0.3,0,0.6,0,0.7c0,2.1-0.7,6.9-1.5,10.6
			c-4.1,0.7-9.2,1.2-11.1,1.3L1363.8,309.2 M1393.3,302.6c4.8,4.9,8.3,11.1,10.2,17.9l3.2-1.8c-2.4-7.1-5.4-12.2-10.5-17.7
			L1393.3,302.6"/>
		<path class="st1" d="M1365.3,351.7c0.1,0.9,0.1,1,0.2,2.9c0.2,12.3,0.9,18.7,2.7,23.4c1.7,4.8,4.3,7.6,7.1,7.6
			c3.6,0,5.9-3.4,8.3-12.1c-1.4-1.1-1.8-1.6-2.9-2.9c-0.7,3.4-1.5,6.1-2.6,8.6c-0.8,1.7-1.6,2.5-2.5,2.5c-1.9,0-3.9-3.4-5-8.6
			c-0.8-3.2-1.3-10-1.3-15.5c0-2.8,0.1-4.4,0.3-6L1365.3,351.7 M1390.6,355.9c5.8,6.8,9.5,15.3,10.4,24.6l3.6-1.4
			c-0.9-5.6-1.8-9.2-3.8-13.4c-1.8-4.2-3.9-7.6-7.2-11.4L1390.6,355.9"/>
		<path class="st1" d="M1523.6,296.6c6,1.9,9.7,2.6,18.7,3.4l0.7-3.3c-6.6-0.2-12.8-1.2-18.1-3.1L1523.6,296.6 M1519.3,309.5
			c1.3-0.1,2.3-0.2,4.8-0.4c8.5-0.6,11.8-0.9,14.9-1.6c-3.6,3.4-6.2,5.9-7.6,7.4c-4,4-8.2,8-11.8,11.3c-3,2.9-3.7,3.4-5.4,4.6
			l2.8,3.1c1.8-2,5-5.4,7.5-7.6c4.1-3.9,6.6-5.2,9.2-5.2c1.1,0,1.9,0.4,2.3,1.2c0.3,0.6,0.4,1.2,0.5,3.4c0.2,3.3,0.5,4.4,1.1,5.5
			c1.1,2,3.2,2.9,7,2.9c2.2,0,4.1-0.2,6.9-0.6c3.5-0.6,3.5-0.6,4-0.6l-0.5-3.9c-2.7,1.2-6.5,1.9-10.1,1.9c-2.3,0-3.4-0.4-4.1-1.4
			c-0.6-0.8-0.7-1.5-0.9-4.7c-0.2-2.8-0.6-4-1.6-5c-0.8-0.8-2-1.3-3.4-1.3c-1.3,0-2.2,0.3-5,1.7c2.5-1.9,5.7-4.8,9.9-9
			c2.9-2.9,3.4-3.4,4.5-4.2l-2.2-2.8c-0.7,0.2-1.2,0.4-2.4,0.6c-4.3,0.6-13.1,1.2-17.5,1.2c-1.1,0-1.8,0-3-0.1L1519.3,309.5"/>
		<path class="st1" d="M1519.5,353.9c0.8-0.2,2-0.2,3.6-0.2c5.6-0.2,12.1-0.6,14.2-0.9c0.2-0.1,0.4-0.1,0.7-0.1l0.1,0
			c-0.2,0.2-0.2,0.2-0.4,0.4c-0.2,0.2-0.2,0.2-0.5,0.5c-4.6,4.8-11.4,11.2-16.6,15.8c-3,2.5-4.7,3.8-6.5,4.9l2.5,3.1
			c1.1-1,2.2-2,3.9-3.1c5-3.4,10.9-5.5,16-5.5c6.2,0,10,2.6,10,7c0,5.1-5.3,8.7-13.1,8.7c-4.3,0-9.2-1.1-12.8-3.1
			c0.2,1.5,0.3,2.3,0.3,3.1c0,0.2,0,0.5,0,0.9c4.7,1.7,8.3,2.4,12,2.4c4.1,0,8-0.8,10.7-2.1c4.1-2,6.5-5.8,6.5-9.9
			c0-6.1-5-9.9-13-9.9c-4.5,0-7.7,1-12.7,3.9l-0.2-0.1c4.1-2.9,6.3-4.9,13.7-12.2c4.7-4.7,4.7-4.7,5.4-5.2l-2.1-2.9
			c-0.6,0.2-1,0.3-2,0.4c-3.5,0.4-9.8,0.6-14.5,0.6c-3,0-4,0-5.5-0.3L1519.5,353.9"/>
		<path class="st1" d="M1690.1,304.1c1.8-0.4,7.3-0.9,17.2-1.6c5.2-0.4,8.2-0.6,11-1.1c-1.9,0.9-3.2,1.6-4.8,2.6
			c-5.9,4.1-9.3,9.6-9.3,15.4c0,4.1,2,7.8,5.6,10.2c2.8,1.9,5.8,3,10.8,3.9c0.9,0.1,1,0.2,1.6,0.3l0.7-4.1c-0.2,0-0.4,0-0.5,0
			c-1.9,0-5.1-0.7-7.5-1.6c-4.5-1.7-7-5.1-7-9.2c0-4.1,2.2-8.2,6.2-11.6c2.8-2.3,6.2-4.1,9.6-5c1.9-0.5,3.6-0.7,5.6-0.7l-0.3-3.7
			c-0.7,0.2-1.6,0.3-5.9,0.6l-2.8,0.1c-1.7,0.1-2.3,0.1-8.5,0.5l-7.8,0.5c-6.2,0.3-6.4,0.4-9.2,0.6c-1.5,0.1-2.2,0.2-2.8,0.2
			c-0.3,0-0.8,0-1.8-0.1L1690.1,304.1 M1720.8,308.9c1.5,1.6,3.9,5.3,5.1,7.9l2.6-1.5c-1.5-2.9-2.9-5.1-5.2-7.8L1720.8,308.9
			 M1726.5,306.2c2,2.3,4,5.5,5.1,7.8l2.5-1.4c-1.6-3.2-2.9-5.1-5.1-7.8L1726.5,306.2"/>
		<path class="st1" d="M1694.8,360.7c0.8-0.1,1-0.2,1.9-0.2c6.6-0.1,12.9-0.6,17.8-1.3c0.3,0.5,0.3,0.6,0.8,1.7
			c2.2,4.2,3.4,6.2,6,9.8c-2.1-1.1-6-1.8-10.3-1.8c-4.1,0-7.1,0.6-9.7,1.8c-3.5,1.7-5.7,4.9-5.7,8.2c0,2,0.8,3.9,2.2,5.5
			c2.3,2.4,6.9,3.8,13,3.8c4.9,0,9.7-0.9,14.7-2.7l-0.5-3.9c-3.8,1.9-9.2,3.2-14.2,3.2c-4.3,0-7.9-0.8-9.8-2.3
			c-1.2-1-1.9-2.3-1.9-3.9c0-1.8,1.1-3.6,2.7-4.6c2.2-1.4,5.3-2.1,9.5-2.1c3.4,0,6.2,0.4,8.8,1.3c1.4,0.5,2.1,0.9,3.4,2.1l3.3-1.9
			c-3.5-4.6-7.2-10.6-9-14.6c0.5-0.1,0.5-0.1,1.7-0.3c3.2-0.6,3.8-0.8,6.8-1.6c1.5-0.4,1.9-0.5,2.9-0.7l-0.5-3.6
			c-2.7,1.1-7.2,2.4-12.1,3.1c-0.4-0.9-0.6-1.2-1.8-4.4c-1.2-3.2-1.2-3.2-1.4-4.5l-3.9,0.6c0.4,0.9,0.8,1.6,1.3,2.9
			c0.9,2.2,1.7,4.2,2.5,5.9c-4.7,0.7-10.4,1.1-14.9,1.1c-1.7,0-2.6-0.1-3.8-0.2L1694.8,360.7"/>
		<path class="st1" d="M1847.6,296.2c0.9,1.6,2.1,4.5,3.6,9.5c-0.8,0.2-1.3,0.3-2.5,0.8c-6,2.1-6,2.1-7.4,2.4l1.3,3.6
			c1.3-0.8,4-1.8,6.8-2.8c2.2-0.7,2.2-0.7,2.7-0.9c3.2,10.9,6.1,22.9,6.3,27l4-0.9c-0.3-0.9-0.4-1.1-0.6-2.1
			c-2.1-9.4-3.9-16.5-6.4-25c7.2-2.3,12.6-3.5,16.3-3.5c5,0,8,2.2,8,6c0,2.2-0.8,3.9-2.4,5.1c-1.6,1.2-3.8,1.9-6,1.9
			c-2.9,0-5.8-0.8-8.4-2.3c0.2,2,0.3,2.2,0.3,2.9c0,0.1,0,0.5-0.1,0.9c2.9,1.2,5.6,1.9,8.4,1.9c6.9,0,11.8-4.3,11.8-10.3
			c0-5.6-4.3-9.2-11-9.2c-1.2,0-2.4,0.1-3.8,0.3c-0.1-0.6-0.1-1.6-0.1-1.6c0-3.9,0.1-5.4,0.2-6.8h-3.8c0.2,1.2,0.2,1.7,0.2,8.9
			c-3.8,0.8-3.8,0.8-10.7,2.8c-0.7-2.2-1.2-3.7-2.2-6.6c-0.5-1.5-0.7-1.9-0.9-3.1L1847.6,296.2"/>
		<path class="st1" d="M1877.8,383.1c-0.6-0.4-0.9-0.6-1.7-1.2c-5.2-3.8-9.6-6.1-13.9-7.3c-0.2-4.9-0.2-4.9-0.3-7.7
			c3.7-0.2,7.6-0.6,11.1-1.2c1.8-0.2,2.2-0.3,2.9-0.4l-0.2-3.4c-2.8,0.9-7.1,1.6-13.9,2.1c-0.1-2.6-0.1-2.6-0.1-6.8
			c5.6-0.4,6.9-0.5,11.6-1.2c2.6-0.4,2.6-0.4,3.4-0.4l-0.2-3.4c-2.8,0.9-7.9,1.6-14.8,2.1c0.1-3.6,0.2-6,0.4-7.1h-3.9
			c0.2,1.1,0.2,1.1,0.2,7.2c-1.6,0-3.3,0.1-4.3,0.1c-5.5,0-10.7-0.4-12.8-1l-0.1,3.4c0.3,0,0.6,0,0.7,0c0.2,0,0.5,0,0.9,0
			c4.5,0.4,8.5,0.5,12.2,0.5c1.1,0,1.9,0,3.4,0l0.1,6.8c-1.4,0.1-3.1,0.1-4.4,0.1c-5.1,0-9.2-0.3-11.5-0.8l0,3.3c0.1,0,0.3,0,0.4,0
			c0.3,0,0.7,0,1.2,0.1c3.1,0.2,5.5,0.3,8.5,0.3c1.6,0,4.1,0,5.9-0.1c0.1,1.3,0.1,2.2,0.1,2.9c0.1,1.4,0.1,2.5,0.1,2.9
			c0,0.3,0.1,0.5,0.1,0.6c0,0.4,0,0.4,0.1,0.6c-2.2-0.4-2.9-0.4-4.5-0.4c-2.2,0-3.7,0.2-5.2,0.5c-4.4,1-7,3.6-7,6.9
			c0,2.1,1,4,2.7,5.2c1.7,1.3,4.5,2,7.8,2c4,0,7-1.1,8.5-3.2c0.9-1.2,1.2-2.8,1.2-5.4c0-0.6,0-0.6-0.1-1.8c1.4,0.6,2.5,1.1,3.4,1.5
			c4.2,2.2,7.9,4.8,10.2,7.2L1877.8,383.1 M1859,379.1c0,2.4-0.3,3.8-1,4.5c-0.9,1.1-2.8,1.6-5.5,1.6c-4.3,0-6.8-1.5-6.8-4.1
			s3.2-4.4,8.2-4.4c2.2,0,3.2,0.1,5.1,0.6L1859,379.1"/>
		<path class="st1" d="M2088.8,317.1c0-3.2-0.6-4.8-2-5.9c-1.6-1.4-4.1-2-7.3-2c-5.6,0-9.8,2.6-9.8,6.3c0,1.9,1.2,3.1,2.9,3.1
			c1.6,0,2.7-1.1,2.7-2.6c0-0.6-0.2-1.3-0.8-2c-0.3-0.4-0.4-0.5-0.4-0.7c0-1,2-1.9,4.4-1.9c1.6,0,3.3,0.5,4.1,1.2
			c0.9,0.8,1.3,2,1.3,4.2v1.9c-5.2,0.9-6.9,1.3-9.3,2.2c-4.3,1.6-6.4,3.9-6.4,7.1c0,3.6,2.8,5.8,7.2,5.8c3.4,0,6.6-1.4,8.7-3.9
			c0.8,2.6,2.1,3.6,4.4,3.6c2.2,0,4.6-1.4,4.6-2.9c0-0.4-0.2-0.6-0.5-0.6c-0.2,0-0.4,0.1-0.8,0.2c-0.7,0.3-1,0.4-1.4,0.4
			c-1.4,0-1.9-0.9-1.9-3.4V317.1 M2084.1,323.2c0,3-0.1,3.7-1,5c-1.2,1.9-3.5,3.1-5.7,3.1c-2.3,0-3.9-1.6-3.9-3.9
			c0-2.1,1-3.6,3.2-4.7c1.5-0.7,3.5-1.2,7.4-1.8V323.2 M2104,296.4l-9.2,0.6v2.1h2.4c1.9,0.1,2.1,0.4,2.1,2.5v25.5v1.2v1.2
			c-0.1,0.7-0.1,1-0.3,1.2c-0.3,0.5-1.3,0.7-3.4,0.7h-0.2v1.8h12.6v-1.8h-0.2c-3.3-0.1-3.8-0.4-3.8-2.2v-2.2v-5.2
			c0-2.4,0.4-4.7,0.9-5.9c1.1-2.2,3.3-3.8,5.4-3.8c1.3,0,2.8,0.8,3.5,1.8c0.8,1.1,1.1,2.6,1.1,5.1v8.1v2.4c0,0.7-0.1,1-0.3,1.2
			c-0.4,0.5-1.4,0.7-3.5,0.7h-0.2v1.8h12.7v-1.8h-0.2c-3.3-0.1-3.8-0.4-3.8-2.2v-2.2v-7.9c0-3.6-0.2-4.5-1.1-6.2
			c-1.2-2.4-3.8-3.8-6.8-3.8c-3.2,0-5.7,1.4-7.9,4.8V296.4"/>
		<path class="st1" d="M2088.8,371c0-3.1-0.6-4.8-2-5.9c-1.6-1.4-4.1-2-7.3-2c-5.6,0-9.8,2.6-9.8,6.3c0,1.8,1.2,3.1,2.9,3.1
			c1.6,0,2.7-1.1,2.7-2.6c0-0.7-0.2-1.4-0.8-2.1c-0.3-0.4-0.4-0.4-0.4-0.7c0-1,2-1.9,4.4-1.9c1.6,0,3.3,0.5,4.1,1.2
			c0.9,0.8,1.3,2,1.3,4.2v2c-5.2,0.9-6.9,1.3-9.3,2.2c-4.3,1.6-6.4,3.9-6.4,7.1c0,3.6,2.8,5.9,7.2,5.9c3.4,0,6.6-1.4,8.7-3.9
			c0.8,2.5,2.1,3.5,4.4,3.5c2.2,0,4.6-1.4,4.6-2.9c0-0.4-0.2-0.6-0.5-0.6c-0.2,0-0.4,0.1-0.8,0.2c-0.7,0.3-1,0.3-1.4,0.3
			c-1.4,0-1.9-0.9-1.9-3.4V371 M2084.1,377.1c0,3-0.1,3.7-1,5c-1.2,1.8-3.5,3.1-5.7,3.1c-2.3,0-3.9-1.6-3.9-3.9c0-2.1,1-3.6,3.2-4.6
			c1.5-0.7,3.5-1.2,7.4-1.9V377.1 M2104,350.3l-9.2,0.6v2.1h2.4c1.9,0.1,2.1,0.4,2.1,2.5V381v1.2v1.2c-0.1,0.7-0.1,1-0.3,1.2
			c-0.3,0.4-1.3,0.6-3.4,0.7h-0.2v1.8h12.6v-1.8h-0.2c-3.3-0.1-3.8-0.4-3.8-2.1V381v-5.2c0-2.4,0.4-4.7,0.9-5.8
			c1.1-2.2,3.3-3.8,5.4-3.8c1.3,0,2.8,0.8,3.5,1.8c0.8,1.1,1.1,2.6,1.1,5.1v8v2.4c0,0.7-0.1,1-0.3,1.2c-0.4,0.4-1.4,0.6-3.5,0.7
			h-0.2v1.8h12.7v-1.8h-0.2c-3.3-0.1-3.8-0.4-3.8-2.1V381v-7.8c0-3.6-0.2-4.5-1.1-6.2c-1.2-2.5-3.8-3.9-6.8-3.9
			c-3.2,0-5.7,1.4-7.9,4.8V350.3"/>
		<line class="st5" x1="1538.6" y1="852.2" x2="1558.4" y2="852.2"/>
		<line class="st5" x1="1892.2" y1="852.2" x2="1912" y2="852.2"/>
		<line class="st5" x1="1612.8" y1="320.7" x2="1632.6" y2="320.7"/>
		<line class="st5" x1="1612.5" y1="374.6" x2="1632.4" y2="374.6"/>
		<line class="st5" x1="1965.9" y1="320.7" x2="1985.8" y2="320.7"/>
		<line class="st5" x1="1963.2" y1="374.6" x2="1983" y2="374.6"/>
		<line class="st5" x1="2335.6" y1="320.7" x2="2355.4" y2="320.7"/>
		<line class="st5" x1="2335.6" y1="374.6" x2="2355.4" y2="374.6"/>
		<path class="st1" d="M2113,592.6c0,2.7,2.2,5,5,5s5-2.2,5-5s-2.2-5-5-5S2113,589.9,2113,592.6"/>
		<path class="st1" d="M2113,208.1c0,2.7,2.2,5,5,5s5-2.2,5-5s-2.2-5-5-5S2113,205.3,2113,208.1"/>
		<line class="st6" x1="92.7" y1="128.2" x2="92.7" y2="808.2"/>
		<path class="st1" d="M135.3,106.2c-0.2-0.1-0.5-0.2-0.7-0.2c-0.4,0-0.9,0.1-1.1,0.5c-0.2,0.3-10.1,15.6-29.1,15.6H88.7
			c-0.8,0-1.4,0.5-1.4,1.3v8.9v1.4h12.1c30.6,0,36.4-25.5,36.5-25.8c0-0.1,0.1-0.3,0.1-0.5C136,106.9,135.7,106.5,135.3,106.2"/>
		<path class="st1" d="M135.3,830.2c0.4-0.3,0.7-0.7,0.7-1.2c0-0.2-0.1-0.4-0.1-0.5c-0.1-0.3-6-25.8-36.5-25.8H87.3v1.4v8.9
			c0,0.8,0.6,1.3,1.4,1.3h15.8c18.9,0,28.9,15.3,29.1,15.6c0.2,0.4,0.7,0.5,1.1,0.5C134.8,830.4,135.1,830.3,135.3,830.2"/>
	</g>
</g>
</svg>
