<?xml version="1.0" encoding="utf-8"?>
<!-- Generator: Adobe Illustrator 26.5.0, SVG Export Plug-In . SVG Version: 6.00 Build 0)  -->
<svg version="1.1" xmlns="http://www.w3.org/2000/svg" xmlns:xlink="http://www.w3.org/1999/xlink" x="0px" y="0px"
	 viewBox="0 0 2560 830" style="enable-background:new 0 0 2560 830;" xml:space="preserve">
<style type="text/css">
	.st0{fill:none;stroke:#FFFFFF;stroke-width:2.73;stroke-linejoin:bevel;}
	.st1{fill:#FFFFFF;}
	.st2{fill:none;stroke:#FFFFFF;stroke-width:4.46;stroke-linejoin:bevel;}
	.st3{fill:none;stroke:#FFFFFF;stroke-width:3.97;stroke-linejoin:bevel;}
	.st4{fill:none;stroke:#FFFFFF;stroke-width:3.72;stroke-linejoin:bevel;}
	.st5{fill:none;stroke:#FFFFFF;stroke-width:10.91;stroke-linejoin:bevel;}
	.st6{fill:none;stroke:#FFFFFF;stroke-width:13.64;stroke-linejoin:bevel;}
</style>
<g id="レイヤー_1">
	<g>
		<g>
			
				<image style="overflow:visible;" width="2624" height="779" xlink:href="A89C2726DBF2C9A9.png"  transform="matrix(1 0 0 1 -32.191 87.6524)">
			</image>
		</g>
		<g>
			<line class="st0" x1="91.1" y1="163.8" x2="2555.6" y2="163.8"/>
			<line class="st0" x1="91.1" y1="188.6" x2="2555.6" y2="188.6"/>
			<line class="st0" x1="91.1" y1="213.4" x2="2555.6" y2="213.4"/>
			<line class="st0" x1="91.1" y1="238.3" x2="2555.6" y2="238.3"/>
			<line class="st0" x1="91.1" y1="263.1" x2="2555.6" y2="263.1"/>
			<line class="st0" x1="91.1" y1="473.5" x2="2555.6" y2="473.5"/>
			<line class="st0" x1="91.1" y1="498.3" x2="2555.6" y2="498.3"/>
			<line class="st0" x1="91.1" y1="523.1" x2="2555.6" y2="523.1"/>
			<line class="st0" x1="91.1" y1="547.9" x2="2555.6" y2="547.9"/>
			<line class="st0" x1="91.1" y1="572.7" x2="2555.6" y2="572.7"/>
			<line class="st0" x1="91.1" y1="690.7" x2="2555.6" y2="690.7"/>
			<line class="st0" x1="91.1" y1="715.5" x2="2555.6" y2="715.5"/>
			<line class="st0" x1="91.1" y1="740.3" x2="2555.6" y2="740.3"/>
			<line class="st0" x1="91.1" y1="765.1" x2="2555.6" y2="765.1"/>
			<line class="st0" x1="91.1" y1="789.9" x2="2555.6" y2="789.9"/>
			<path class="st1" d="M39.2,721.9h-30l-0.8,13.9h2.2c0.3-2.5,0.8-4.4,1.3-6c1.3-3.7,3.7-5.6,7.1-5.6c1.6,0,2.4,0.6,2.4,1.8v25.8
				c0,2.5,0,2.6-0.3,3.1c-0.4,0.5-1.4,0.7-4.2,0.7h-1.3v2.4h17.1v-2.4h-1.3c-2.8,0-3.8-0.2-4.1-0.7c-0.3-0.4-0.3-0.6-0.3-3.1v-25.8
				c0-1.2,0.7-1.8,2.4-1.8c3.1,0,5.5,1.7,6.8,4.7c0.8,1.9,1.2,4,1.6,6.9H40L39.2,721.9 M44.1,752.5c-1.8,0-3.1,1.4-3.1,3.1
				c0,1.8,1.4,3.1,3.1,3.1c1.8,0,3.1-1.4,3.1-3.1C47.2,753.9,45.8,752.5,44.1,752.5"/>
			<path class="st1" d="M23.7,504.3h-2.1l-11.5,29.1c-1.4,3.9-2.6,5.1-5.5,5.3H4.4v2.4h13.2v-2.4h-1c-2.7,0-4.1-0.9-4.1-2.9
				c0-0.6,0.1-1.2,0.4-2.1l1.7-4.4H28l2.7,6.7c0.3,0.8,0.4,1.1,0.4,1.3c0,0.8-1.2,1.3-3.1,1.3h-2.1v2.4h15.5v-2.4h-0.7
				c-2.6-0.1-3.1-0.4-4.2-3.2L23.7,504.3 M21.3,512.5l5.7,14.2H15.7L21.3,512.5 M48.3,535.6c-1.8,0-3.2,1.4-3.2,3.1
				c0,1.8,1.4,3.2,3.1,3.2c1.8,0,3.2-1.4,3.2-3.2C51.4,537,50,535.6,48.3,535.6"/>
			<path class="st1" d="M36.7,195.1h-1.8l-2,3c-2.4-2.2-5.6-3.5-9.1-3.5c-6.6,0-10.9,4.2-10.9,10.5c0,5.4,2.7,8.1,10.1,10l4.8,1.2
				c3.7,0.9,4,1,5.1,1.8c1.5,1.2,2.3,2.8,2.3,4.8c0,2-0.8,3.7-2.2,5.1c-1.6,1.4-3.3,1.9-6.1,1.9c-3.7,0-6.3-1.1-8.7-3.8
				c-2.1-2.3-3.1-4.7-3.9-8.6h-2.2l0.2,14.2h2l2.2-3.4c3.3,2.8,6.1,3.8,10.5,3.8c7.3,0,12-4.3,12-11c0-3.1-1-5.8-3-7.6
				c-1.3-1.3-3.3-2.2-7.3-3.2l-5.4-1.3c-4.4-1.2-6.6-3.1-6.6-6.2c0-3.5,2.9-5.9,7.1-5.9c3.5,0,6.3,1.5,8.3,4.3
				c1.5,2.1,2.4,4.2,3,6.7h2.2L36.7,195.1 M47.7,225.9c-1.8,0-3.1,1.4-3.1,3.1c0,1.8,1.4,3.1,3.1,3.1c1.8,0,3.1-1.4,3.1-3.1
				C50.8,227.3,49.4,225.9,47.7,225.9"/>
			<line class="st2" x1="93.4" y1="689.3" x2="93.4" y2="791.3"/>
			<line class="st2" x1="895.4" y1="689.3" x2="895.4" y2="791.3"/>
			<line class="st2" x1="1533.5" y1="689.3" x2="1533.5" y2="791.3"/>
			<line class="st2" x1="2160.8" y1="689.3" x2="2160.8" y2="791.3"/>
			<line class="st2" x1="2531.4" y1="689.3" x2="2531.4" y2="791.3"/>
			<line class="st6" x1="2548.8" y1="689.3" x2="2548.8" y2="791.3"/>
			<line class="st2" x1="93.4" y1="472.1" x2="93.4" y2="690.7"/>
			<line class="st2" x1="895.4" y1="472.1" x2="895.4" y2="574"/>
			<line class="st2" x1="1533.5" y1="472.1" x2="1533.5" y2="574"/>
			<line class="st2" x1="2160.8" y1="472.1" x2="2160.8" y2="574"/>
			<line class="st2" x1="2531.4" y1="472.1" x2="2531.4" y2="574"/>
			<line class="st6" x1="2548.8" y1="472.1" x2="2548.8" y2="574"/>
			<line class="st2" x1="93.4" y1="162.5" x2="93.4" y2="473.5"/>
			<line class="st2" x1="895.4" y1="162.5" x2="895.4" y2="264.4"/>
			<line class="st2" x1="1533.5" y1="162.5" x2="1533.5" y2="264.4"/>
			<line class="st2" x1="2160.8" y1="162.5" x2="2160.8" y2="264.4"/>
			<line class="st2" x1="2531.4" y1="162.5" x2="2531.4" y2="264.4"/>
			<line class="st6" x1="2548.8" y1="162.5" x2="2548.8" y2="264.4"/>
			<line class="st3" x1="471.4" y1="597.5" x2="521" y2="597.5"/>
			<line class="st3" x1="569.8" y1="597.5" x2="619.4" y2="597.5"/>
			<line class="st3" x1="727.1" y1="597.5" x2="776.7" y2="597.5"/>
			<line class="st3" x1="1568.1" y1="597.5" x2="1617.7" y2="597.5"/>
			<line class="st3" x1="1752.6" y1="597.5" x2="1802.2" y2="597.5"/>
			<line class="st3" x1="1998.5" y1="597.5" x2="2048.1" y2="597.5"/>
			<line class="st3" x1="2195.3" y1="597.5" x2="2244.9" y2="597.5"/>
			<line class="st3" x1="1998.5" y1="287.9" x2="2048.1" y2="287.9"/>
			<line class="st0" x1="289.6" y1="694" x2="289.6" y2="777.5"/>
			<line class="st0" x1="481.5" y1="718.8" x2="481.5" y2="802.3"/>
			<line class="st0" x1="579.8" y1="718.8" x2="579.8" y2="799.2"/>
			<line class="st0" x1="737.2" y1="694" x2="737.2" y2="777.5"/>
			<line class="st0" x1="963.8" y1="749.5" x2="963.8" y2="672.1"/>
			<line class="st0" x1="1153.6" y1="749.5" x2="1153.6" y2="672.1"/>
			<line class="st0" x1="1250.9" y1="749.5" x2="1250.9" y2="672.1"/>
			<line class="st0" x1="1406.5" y1="749.5" x2="1406.5" y2="672.1"/>
			<line class="st0" x1="1578.1" y1="743.6" x2="1578.1" y2="817.8"/>
			<line class="st0" x1="1762.7" y1="743.6" x2="1762.7" y2="827.1"/>
			<line class="st0" x1="1857.3" y1="731.2" x2="1857.3" y2="808.5"/>
			<line class="st0" x1="2008.6" y1="731.2" x2="2008.6" y2="808.5"/>
			<line class="st0" x1="2205.3" y1="718.8" x2="2205.3" y2="799.2"/>
			<line class="st0" x1="319.1" y1="557.1" x2="319.1" y2="473.5"/>
			<line class="st0" x1="511" y1="594.3" x2="511" y2="510.7"/>
			<line class="st0" x1="609.3" y1="594.3" x2="609.3" y2="510.7"/>
			<line class="st0" x1="766.7" y1="594.3" x2="766.7" y2="510.7"/>
			<line class="st0" x1="963.8" y1="569.5" x2="963.8" y2="485.9"/>
			<line class="st0" x1="1153.6" y1="581.9" x2="1153.6" y2="498.3"/>
			<line class="st0" x1="1250.9" y1="569.5" x2="1250.9" y2="485.9"/>
			<line class="st0" x1="1406.5" y1="569.5" x2="1406.5" y2="485.9"/>
			<line class="st0" x1="1607.7" y1="606.7" x2="1607.7" y2="523.1"/>
			<line class="st0" x1="1792.2" y1="606.7" x2="1792.2" y2="523.1"/>
			<line class="st0" x1="1886.8" y1="581.9" x2="1886.8" y2="498.3"/>
			<line class="st0" x1="2038.1" y1="594.3" x2="2038.1" y2="510.7"/>
			<line class="st0" x1="2234.8" y1="594.3" x2="2234.8" y2="510.7"/>
			<line class="st0" x1="289.6" y1="204.4" x2="289.6" y2="281.7"/>
			<line class="st0" x1="511" y1="222.7" x2="511" y2="145.2"/>
			<line class="st0" x1="609.3" y1="222.7" x2="609.3" y2="145.2"/>
			<line class="st0" x1="766.7" y1="247.5" x2="766.7" y2="163.8"/>
			<line class="st0" x1="963.8" y1="235.1" x2="963.8" y2="154.5"/>
			<line class="st0" x1="1153.6" y1="247.5" x2="1153.6" y2="163.8"/>
			<line class="st0" x1="1250.9" y1="235.1" x2="1250.9" y2="154.5"/>
			<line class="st0" x1="1406.5" y1="222.7" x2="1406.5" y2="145.2"/>
			<line class="st0" x1="1607.7" y1="247.5" x2="1607.7" y2="163.8"/>
			<line class="st0" x1="1792.2" y1="272.3" x2="1792.2" y2="188.6"/>
			<line class="st0" x1="1886.8" y1="272.3" x2="1886.8" y2="188.6"/>
			<line class="st0" x1="2038.1" y1="284.7" x2="2038.1" y2="201"/>
			<line class="st0" x1="2234.8" y1="247.5" x2="2234.8" y2="163.8"/>
			<path class="st1" d="M319.5,682.7c-1.8-3.3-5.6-5.1-10.1-5.1c-3.4,0-7,1-10.6,2.9c-6.5,3.5-10.5,9.3-10.5,14.4
				c0,1.4,0.3,2.8,1,4.1c1.8,3.3,5.6,5,10.1,5c3.4,0,7-0.9,10.6-2.8c6.5-3.5,10.5-9.3,10.5-14.4C320.5,685.4,320.2,684,319.5,682.7"
				/>
			<path class="st1" d="M511.4,707.5c-1.8-3.3-5.6-5.1-10.1-5.1c-3.4,0-7,1-10.6,2.9c-6.5,3.5-10.5,9.3-10.5,14.4
				c0,1.4,0.3,2.8,1,4.1c1.8,3.3,5.6,5,10.1,5c3.4,0,7-0.9,10.6-2.8c6.5-3.5,10.5-9.3,10.5-14.4
				C512.4,710.2,512.1,708.8,511.4,707.5"/>
			<path class="st1" d="M609.7,707.5c-1.8-3.3-5.6-5.1-10.1-5.1c-3.4,0-7,1-10.6,2.9c-6.5,3.5-10.5,9.3-10.5,14.4
				c0,1.4,0.3,2.8,1,4.1c1.8,3.3,5.6,5,10.1,5c3.4,0,7-0.9,10.6-2.8c6.5-3.5,10.5-9.3,10.5-14.4
				C610.7,710.2,610.4,708.8,609.7,707.5"/>
			<path class="st1" d="M767,682.7c-1.8-3.3-5.6-5.1-10.1-5.1c-3.4,0-7,1-10.6,2.9c-6.5,3.5-10.5,9.3-10.5,14.4c0,1.4,0.3,2.8,1,4.1
				c1.8,3.3,5.6,5,10.1,5c3.4,0,7-0.9,10.6-2.8c6.5-3.5,10.5-9.3,10.5-14.4C768,685.4,767.7,684,767,682.7"/>
			<path class="st1" d="M964.2,744.7c-1.8-3.3-5.6-5.1-10.1-5.1c-3.4,0-7,1-10.6,2.9c-6.5,3.5-10.5,9.3-10.5,14.4
				c0,1.4,0.3,2.8,1,4.1c1.8,3.3,5.6,5,10.1,5c3.4,0,7-0.9,10.6-2.8c6.5-3.5,10.5-9.3,10.5-14.4C965.2,747.4,964.9,746,964.2,744.7"
				/>
			<path class="st1" d="M1154,744.7c-1.8-3.3-5.6-5.1-10.1-5.1c-3.4,0-7,1-10.6,2.9c-6.5,3.5-10.5,9.3-10.5,14.4
				c0,1.4,0.3,2.8,1,4.1c1.8,3.3,5.6,5,10.1,5c3.4,0,7-0.9,10.6-2.8c6.5-3.5,10.5-9.3,10.5-14.4C1155,747.4,1154.7,746,1154,744.7"
				/>
			<path class="st1" d="M1251.3,744.7c-1.8-3.3-5.6-5.1-10.1-5.1c-3.4,0-7,1-10.6,2.9c-6.5,3.5-10.5,9.3-10.5,14.4
				c0,1.4,0.3,2.8,1,4.1c1.8,3.3,5.6,5,10.1,5c3.4,0,7-0.9,10.6-2.8c6.5-3.5,10.5-9.3,10.5-14.4C1252.3,747.4,1252,746,1251.3,744.7
				"/>
			<path class="st1" d="M1406.9,744.7c-1.8-3.3-5.6-5.1-10.1-5.1c-3.4,0-7,1-10.6,2.9c-6.5,3.5-10.5,9.3-10.5,14.4
				c0,1.4,0.3,2.8,1,4.1c1.8,3.3,5.6,5,10.1,5c3.4,0,7-0.9,10.6-2.8c6.5-3.5,10.5-9.3,10.5-14.4
				C1407.9,747.4,1407.6,746,1406.9,744.7"/>
			<path class="st1" d="M1608,732.3c-1.8-3.3-5.6-5.1-10.1-5.1c-3.4,0-7,1-10.6,2.9c-6.5,3.5-10.5,9.3-10.5,14.4
				c0,1.4,0.3,2.8,1,4.1c1.8,3.3,5.6,5,10.1,5c3.4,0,7-0.9,10.6-2.8c6.5-3.5,10.5-9.3,10.5-14.4C1609,735,1608.7,733.6,1608,732.3"
				/>
			<path class="st1" d="M1792.6,732.3c-1.8-3.3-5.6-5.1-10.1-5.1c-3.4,0-7,1-10.6,2.9c-6.5,3.5-10.5,9.3-10.5,14.4
				c0,1.4,0.3,2.8,1,4.1c1.8,3.3,5.6,5,10.1,5c3.4,0,7-0.9,10.6-2.8c6.5-3.5,10.5-9.3,10.5-14.4
				C1793.6,735,1793.3,733.6,1792.6,732.3"/>
			<path class="st1" d="M1887.1,719.9c-1.8-3.3-5.6-5.1-10.1-5.1c-3.4,0-7,1-10.6,2.9c-6.5,3.5-10.5,9.3-10.5,14.4
				c0,1.4,0.3,2.8,1,4.1c1.8,3.3,5.6,5,10.1,5c3.4,0,7-0.9,10.6-2.8c6.5-3.5,10.5-9.3,10.5-14.4
				C1888.1,722.6,1887.8,721.2,1887.1,719.9"/>
			<path class="st1" d="M2038.5,719.9c-1.8-3.3-5.6-5.1-10.1-5.1c-3.4,0-7,1-10.6,2.9c-6.5,3.5-10.5,9.3-10.5,14.4
				c0,1.4,0.3,2.8,1,4.1c1.8,3.3,5.6,5,10.1,5c3.4,0,7-0.9,10.6-2.8c6.5-3.5,10.5-9.3,10.5-14.4
				C2039.5,722.6,2039.2,721.2,2038.5,719.9"/>
			<path class="st1" d="M2235.2,707.5c-1.8-3.3-5.6-5.1-10.1-5.1c-3.4,0-7,1-10.6,2.9c-6.5,3.5-10.5,9.3-10.5,14.4
				c0,1.4,0.3,2.8,1,4.1c1.8,3.3,5.6,5,10.1,5c3.4,0,7-0.9,10.6-2.8c6.5-3.5,10.5-9.3,10.5-14.4
				C2236.2,710.2,2235.9,708.8,2235.2,707.5 M2230.9,714.2c-1.7,1.7-5.1,3.8-8.6,5.8c-3.6,2-7.1,3.5-9.5,4c-0.5,0.1-1,0.2-1.5,0.2
				c-1.6,0-2.8-0.6-3.5-1.9c-0.3-0.5-0.5-1.1-0.5-1.7c0-1.1,0.7-2.4,1.8-3.5c1.7-1.7,5-3.8,8.5-5.8c3.6-2,7.1-3.5,9.5-4
				c0.5-0.1,1-0.2,1.5-0.2c1.6,0,2.9,0.6,3.6,1.9c0.3,0.5,0.4,1.1,0.4,1.7C2232.6,711.8,2232,713,2230.9,714.2"/>
			<path class="st1" d="M319.5,552.2c-1.8-3.3-5.6-5.1-10.1-5.1c-3.4,0-7,1-10.6,2.9c-6.5,3.5-10.5,9.3-10.5,14.4
				c0,1.4,0.3,2.8,1,4.1c1.8,3.3,5.6,5,10.1,5c3.4,0,7-0.9,10.6-2.8c6.5-3.5,10.5-9.3,10.5-14.4
				C320.5,554.9,320.2,553.5,319.5,552.2"/>
			<path class="st1" d="M511.4,589.4c-1.8-3.3-5.6-5.1-10.1-5.1c-3.4,0-7,1-10.6,2.9c-6.5,3.5-10.5,9.3-10.5,14.4
				c0,1.4,0.3,2.8,1,4.1c1.8,3.3,5.6,5,10.1,5c3.4,0,7-0.9,10.6-2.8c6.5-3.5,10.5-9.3,10.5-14.4
				C512.4,592.1,512.1,590.7,511.4,589.4"/>
			<path class="st1" d="M609.7,589.4c-1.8-3.3-5.6-5.1-10.1-5.1c-3.4,0-7,1-10.6,2.9c-6.5,3.5-10.5,9.3-10.5,14.4
				c0,1.4,0.3,2.8,1,4.1c1.8,3.3,5.6,5,10.1,5c3.4,0,7-0.9,10.6-2.8c6.5-3.5,10.5-9.3,10.5-14.4
				C610.7,592.1,610.4,590.7,609.7,589.4"/>
			<path class="st1" d="M767,589.4c-1.8-3.3-5.6-5.1-10.1-5.1c-3.4,0-7,1-10.6,2.9c-6.5,3.5-10.5,9.3-10.5,14.4c0,1.4,0.3,2.8,1,4.1
				c1.8,3.3,5.6,5,10.1,5c3.4,0,7-0.9,10.6-2.8c6.5-3.5,10.5-9.3,10.5-14.4C768,592.1,767.7,590.7,767,589.4"/>
			<path class="st1" d="M964.2,564.6c-1.8-3.3-5.6-5.1-10.1-5.1c-3.4,0-7,1-10.6,2.9c-6.5,3.5-10.5,9.3-10.5,14.4
				c0,1.4,0.3,2.8,1,4.1c1.8,3.3,5.6,5,10.1,5c3.4,0,7-0.9,10.6-2.8c6.5-3.5,10.5-9.3,10.5-14.4
				C965.2,567.3,964.9,565.9,964.2,564.6"/>
			<path class="st1" d="M1154,577c-1.8-3.3-5.6-5.1-10.1-5.1c-3.4,0-7,1-10.6,2.9c-6.5,3.5-10.5,9.3-10.5,14.4c0,1.4,0.3,2.8,1,4.1
				c1.8,3.3,5.6,5,10.1,5c3.4,0,7-0.9,10.6-2.8c6.5-3.5,10.5-9.3,10.5-14.4C1155,579.7,1154.7,578.3,1154,577"/>
			<path class="st1" d="M1251.3,564.6c-1.8-3.3-5.6-5.1-10.1-5.1c-3.4,0-7,1-10.6,2.9c-6.5,3.5-10.5,9.3-10.5,14.4
				c0,1.4,0.3,2.8,1,4.1c1.8,3.3,5.6,5,10.1,5c3.4,0,7-0.9,10.6-2.8c6.5-3.5,10.5-9.3,10.5-14.4
				C1252.3,567.3,1252,565.9,1251.3,564.6"/>
			<path class="st1" d="M1406.9,564.6c-1.8-3.3-5.6-5.1-10.1-5.1c-3.4,0-7,1-10.6,2.9c-6.5,3.5-10.5,9.3-10.5,14.4
				c0,1.4,0.3,2.8,1,4.1c1.8,3.3,5.6,5,10.1,5c3.4,0,7-0.9,10.6-2.8c6.5-3.5,10.5-9.3,10.5-14.4
				C1407.9,567.3,1407.6,565.9,1406.9,564.6"/>
			<path class="st1" d="M1608,601.8c-1.8-3.3-5.6-5.1-10.1-5.1c-3.4,0-7,1-10.6,2.9c-6.5,3.5-10.5,9.3-10.5,14.4
				c0,1.4,0.3,2.8,1,4.1c1.8,3.3,5.6,5,10.1,5c3.4,0,7-0.9,10.6-2.8c6.5-3.5,10.5-9.3,10.5-14.4C1609,604.5,1608.7,603.1,1608,601.8
				"/>
			<path class="st1" d="M1792.6,601.8c-1.8-3.3-5.6-5.1-10.1-5.1c-3.4,0-7,1-10.6,2.9c-6.5,3.5-10.5,9.3-10.5,14.4
				c0,1.4,0.3,2.8,1,4.1c1.8,3.3,5.6,5,10.1,5c3.4,0,7-0.9,10.6-2.8c6.5-3.5,10.5-9.3,10.5-14.4
				C1793.6,604.5,1793.3,603.1,1792.6,601.8"/>
			<path class="st1" d="M1887.1,577c-1.8-3.3-5.6-5.1-10.1-5.1c-3.4,0-7,1-10.6,2.9c-6.5,3.5-10.5,9.3-10.5,14.4
				c0,1.4,0.3,2.8,1,4.1c1.8,3.3,5.6,5,10.1,5c3.4,0,7-0.9,10.6-2.8c6.5-3.5,10.5-9.3,10.5-14.4
				C1888.1,579.7,1887.8,578.3,1887.1,577"/>
			<path class="st1" d="M2038.5,589.4c-1.8-3.3-5.6-5.1-10.1-5.1c-3.4,0-7,1-10.6,2.9c-6.5,3.5-10.5,9.3-10.5,14.4
				c0,1.4,0.3,2.8,1,4.1c1.8,3.3,5.6,5,10.1,5c3.4,0,7-0.9,10.6-2.8c6.5-3.5,10.5-9.3,10.5-14.4
				C2039.5,592.1,2039.2,590.7,2038.5,589.4"/>
			<path class="st1" d="M2235.2,589.4c-1.8-3.3-5.6-5.1-10.1-5.1c-3.4,0-7,1-10.6,2.9c-6.5,3.5-10.5,9.3-10.5,14.4
				c0,1.4,0.3,2.8,1,4.1c1.8,3.3,5.6,5,10.1,5c3.4,0,7-0.9,10.6-2.8c6.5-3.5,10.5-9.3,10.5-14.4
				C2236.2,592.1,2235.9,590.7,2235.2,589.4 M2230.9,596.2c-1.7,1.7-5.1,3.8-8.6,5.8c-3.6,2-7.1,3.5-9.5,4c-0.5,0.1-1,0.2-1.5,0.2
				c-1.6,0-2.8-0.6-3.5-1.9c-0.3-0.5-0.5-1.1-0.5-1.7c0-1.1,0.7-2.4,1.8-3.5c1.7-1.7,5-3.8,8.5-5.8c3.6-2,7.1-3.5,9.5-4
				c0.5-0.1,1-0.2,1.5-0.2c1.6,0,2.9,0.6,3.6,1.9c0.3,0.5,0.4,1.1,0.4,1.7C2232.6,593.8,2232,595,2230.9,596.2"/>
			<path class="st1" d="M319.5,193c-1.8-3.3-5.6-5.1-10.1-5.1c-3.4,0-7,1-10.6,2.9c-6.5,3.5-10.5,9.3-10.5,14.4c0,1.4,0.3,2.8,1,4.1
				c1.8,3.3,5.6,5,10.1,5c3.4,0,7-0.9,10.6-2.8c6.5-3.5,10.5-9.3,10.5-14.4C320.5,195.7,320.2,194.3,319.5,193"/>
			<path class="st1" d="M511.4,217.8c-1.8-3.3-5.6-5.1-10.1-5.1c-3.4,0-7,1-10.6,2.9c-6.5,3.5-10.5,9.3-10.5,14.4
				c0,1.4,0.3,2.8,1,4.1c1.8,3.3,5.6,5,10.1,5c3.4,0,7-0.9,10.6-2.8c6.5-3.5,10.5-9.3,10.5-14.4
				C512.4,220.5,512.1,219.1,511.4,217.8"/>
			<path class="st1" d="M609.7,217.8c-1.8-3.3-5.6-5.1-10.1-5.1c-3.4,0-7,1-10.6,2.9c-6.5,3.5-10.5,9.3-10.5,14.4
				c0,1.4,0.3,2.8,1,4.1c1.8,3.3,5.6,5,10.1,5c3.4,0,7-0.9,10.6-2.8c6.5-3.5,10.5-9.3,10.5-14.4
				C610.7,220.5,610.4,219.1,609.7,217.8"/>
			<path class="st1" d="M767,242.6c-1.8-3.3-5.6-5.1-10.1-5.1c-3.4,0-7,1-10.6,2.9c-6.5,3.5-10.5,9.3-10.5,14.4c0,1.4,0.3,2.8,1,4.1
				c1.8,3.3,5.6,5,10.1,5c3.4,0,7-0.9,10.6-2.8c6.5-3.5,10.5-9.3,10.5-14.4C768,245.3,767.7,243.9,767,242.6"/>
			<path class="st1" d="M964.2,230.2c-1.8-3.3-5.6-5.1-10.1-5.1c-3.4,0-7,1-10.6,2.9c-6.5,3.5-10.5,9.3-10.5,14.4
				c0,1.4,0.3,2.8,1,4.1c1.8,3.3,5.6,5,10.1,5c3.4,0,7-0.9,10.6-2.8c6.5-3.5,10.5-9.3,10.5-14.4
				C965.2,232.9,964.9,231.5,964.2,230.2"/>
			<path class="st1" d="M1154,242.6c-1.8-3.3-5.6-5.1-10.1-5.1c-3.4,0-7,1-10.6,2.9c-6.5,3.5-10.5,9.3-10.5,14.4
				c0,1.4,0.3,2.8,1,4.1c1.8,3.3,5.6,5,10.1,5c3.4,0,7-0.9,10.6-2.8c6.5-3.5,10.5-9.3,10.5-14.4C1155,245.3,1154.7,243.9,1154,242.6
				"/>
			<path class="st1" d="M1251.3,230.2c-1.8-3.3-5.6-5.1-10.1-5.1c-3.4,0-7,1-10.6,2.9c-6.5,3.5-10.5,9.3-10.5,14.4
				c0,1.4,0.3,2.8,1,4.1c1.8,3.3,5.6,5,10.1,5c3.4,0,7-0.9,10.6-2.8c6.5-3.5,10.5-9.3,10.5-14.4
				C1252.3,232.9,1252,231.5,1251.3,230.2"/>
			<path class="st1" d="M1406.9,217.8c-1.8-3.3-5.6-5.1-10.1-5.1c-3.4,0-7,1-10.6,2.9c-6.5,3.5-10.5,9.3-10.5,14.4
				c0,1.4,0.3,2.8,1,4.1c1.8,3.3,5.6,5,10.1,5c3.4,0,7-0.9,10.6-2.8c6.5-3.5,10.5-9.3,10.5-14.4
				C1407.9,220.5,1407.6,219.1,1406.9,217.8"/>
			<path class="st1" d="M1608,242.6c-1.8-3.3-5.6-5.1-10.1-5.1c-3.4,0-7,1-10.6,2.9c-6.5,3.5-10.5,9.3-10.5,14.4
				c0,1.4,0.3,2.8,1,4.1c1.8,3.3,5.6,5,10.1,5c3.4,0,7-0.9,10.6-2.8c6.5-3.5,10.5-9.3,10.5-14.4C1609,245.3,1608.7,243.9,1608,242.6
				"/>
			<path class="st1" d="M1792.6,267.4c-1.8-3.3-5.6-5.1-10.1-5.1c-3.4,0-7,1-10.6,2.9c-6.5,3.5-10.5,9.3-10.5,14.4
				c0,1.4,0.3,2.8,1,4.1c1.8,3.3,5.6,5,10.1,5c3.4,0,7-0.9,10.6-2.8c6.5-3.5,10.5-9.3,10.5-14.4
				C1793.6,270.1,1793.3,268.7,1792.6,267.4"/>
			<path class="st1" d="M1887.1,267.4c-1.8-3.3-5.6-5.1-10.1-5.1c-3.4,0-7,1-10.6,2.9c-6.5,3.5-10.5,9.3-10.5,14.4
				c0,1.4,0.3,2.8,1,4.1c1.8,3.3,5.6,5,10.1,5c3.4,0,7-0.9,10.6-2.8c6.5-3.5,10.5-9.3,10.5-14.4
				C1888.1,270.1,1887.8,268.7,1887.1,267.4"/>
			<path class="st1" d="M2038.5,279.8c-1.8-3.3-5.6-5.1-10.1-5.1c-3.4,0-7,1-10.6,2.9c-6.5,3.5-10.5,9.3-10.5,14.4
				c0,1.4,0.3,2.8,1,4.1c1.8,3.3,5.6,5,10.1,5c3.4,0,7-0.9,10.6-2.8c6.5-3.5,10.5-9.3,10.5-14.4
				C2039.5,282.5,2039.2,281.1,2038.5,279.8"/>
			<path class="st1" d="M2235.2,242.6c-1.8-3.3-5.6-5.1-10.1-5.1c-3.4,0-7,1-10.6,2.9c-6.5,3.5-10.5,9.3-10.5,14.4
				c0,1.4,0.3,2.8,1,4.1c1.8,3.3,5.6,5,10.1,5c3.4,0,7-0.9,10.6-2.8c6.5-3.5,10.5-9.3,10.5-14.4
				C2236.2,245.3,2235.9,243.9,2235.2,242.6 M2230.9,249.4c-1.7,1.7-5.1,3.8-8.6,5.8c-3.6,2-7.1,3.5-9.5,4c-0.5,0.1-1,0.2-1.5,0.2
				c-1.6,0-2.8-0.6-3.5-1.9c-0.3-0.5-0.5-1.1-0.5-1.7c0-1.1,0.7-2.4,1.8-3.5c1.7-1.7,5-3.8,8.5-5.8c3.6-2,7.1-3.5,9.5-4
				c0.5-0.1,1-0.2,1.5-0.2c1.6,0,2.9,0.6,3.6,1.9c0.3,0.5,0.4,1.1,0.4,1.7C2232.6,247,2232,248.2,2230.9,249.4"/>
			<path class="st1" d="M140.6,690.6c-7.5,0-13.6,4.4-13.7,4.4c-5.8,4.3-8,9.3-8.9,12.8c-0.5,1.8-0.7,3.6-0.7,5.3
				c0,2.4,0.4,4.6,1.3,6.4c1.2,2.7,3.5,4.6,6.4,5.6c1.2,0.4,2.5,0.6,3.8,0.6c2.2,0,4.5-0.6,6.3-1.7c3.1-1.7,5-5.3,5-9.1
				c0-3.5-1.8-6.6-4.8-8.5c-2.1-1.4-4.1-1.8-5.8-1.8c-1.2,0-2.3,0.2-3.2,0.5c-1,0.4-2.7,1.4-3.5,2.1c0.3-1.9,1.5-4.8,2.6-6.3
				s3.3-3.6,5-4.5c2.5-1.4,5.7-2,9.1-2c10.1,0,15.1,8.1,15.1,24.8c0,9.2-3.5,18.1-6.4,23.9c-3.3,6.5-7.6,12.8-11.5,16.3
				c-10.3,9.4-20,13.9-20.1,13.9c0,0-1.5,0.9-1.1,2.4c0.3,1,1.2,1.2,1.8,1.2c0.1,0,0.4-0.1,0.5-0.1s11.4-4.7,20.4-11.7
				c5.1-3.7,9.6-7.6,13.6-11.9c3.6-3.9,6.6-8,9.1-12.2c4.4-7.4,6.8-15.2,6.8-21.8c0-8.2-2.2-15.1-6.3-19.9
				C156.9,693.5,149.9,690.6,140.6,690.6 M171.8,703.2c0,2.8,2.2,5,4.8,5c2.6,0,4.8-2.2,4.8-5s-2.2-5.1-4.8-5.1
				C174,698.1,171.8,700.4,171.8,703.2 M171.8,727.7c0,2.8,2.2,5.1,4.8,5.1c2.6,0,4.8-2.3,4.8-5.1s-2.2-5.1-4.8-5.1
				C174,722.7,171.8,724.9,171.8,727.7"/>
			<path class="st1" d="M178.3,542.1c-1.2-5.4-3.8-9.2-4.6-10.2c-3.2-4.2-7.1-7.1-11.8-8.4c-3.1-0.9-6.1-1-8.5-0.8
				c-1-6-2-11.8-2.9-17.2c5.4-6.1,9-11.9,11.3-16.1c3.4-6.5,4.6-11.1,4.6-11.3c1.7-5.2,2.1-12.8,1-21c-1-7.5-3.1-14.1-5.4-17.4
				c-1-1.4-2.1-2.1-3.1-2.1c-1.2,0-3.7,1.2-6.6,4c-2.3,2.2-5.5,6-8.1,12c-3,7-3.2,16.4-2.8,23.1c0.4,7.2,1.5,12.9,1.5,12.9
				c0,0.1,0.3,1.6,0.7,4.1c-0.2,0.2-0.5,0.4-0.7,0.7c-1,1-2.2,2.1-3.6,3.5c-0.9,0.9-1.8,1.8-2.8,2.7c-8.4,8.1-21.1,20.3-21.1,39.3
				c0,4.7,0.9,9,2.7,13c1.6,3.6,3.9,6.8,6.8,9.7c7.7,7.5,18.2,10.7,25.2,10.5c2.9-0.1,5.5-0.3,7.9-0.8c1.8,9.5,2.9,16.5,3,21.8
				c0,6.5-1.6,10.4-5.5,13.1c-2.4,1.7-5.2,2.7-8.3,2.8c-2.6,0.1-4.8-0.3-6.2-0.8h0c0,0-0.3-0.1-0.3-0.3c0-0.2,0.3-0.2,0.3-0.2h0
				c1.9-0.4,5.4-1.7,7.8-4.9c1.8-2.5,2.6-7.1,0.8-11c-1.1-2.4-3.6-5.3-9.2-5.7c-2.5-0.2-4.7,0.3-6.7,1.5c-1.8,1.1-3.3,2.7-4.3,4.7
				c-2.4,4.7-2,10.3,1.1,14.2c2.9,3.6,7.5,5.9,12.9,6.5c0.8,0.1,1.7,0.1,2.5,0.1c4.4,0,8.8-1.2,12.3-3.4c3.6-2.5,5.7-6.5,6.4-12.1
				c0.6-4.6,0.2-10.5-1.2-18.5c-0.4-2.1-0.9-5.1-1.5-8.8c5.7-1.9,9.8-5.4,13.6-11.3C178.8,554.4,179.7,548.3,178.3,542.1 M144.3,568
				c-4.6-1.2-9-3.7-12.7-7.2c-1.3-1.2-3.2-3.4-4.6-6.7c-1.4-3.1-2-6.5-2-10.1c0.1-4.7,1.4-9.4,3.9-14.2c2.9-5.5,7.4-11,13.4-16.3
				c1.4-1.3,2.8-2.5,4.1-3.8c0.8,4.2,1.6,8.9,2.5,13.7c-3.8,1.3-8.5,4.4-11.6,10c-3.5,6.5-3.4,12-2.6,15.4c0.9,4.4,3.4,8.2,6.9,10.2
				c0.9,0.6,5,2.7,6.8,2.1c0.4-0.1,0.6-0.3,0.8-0.7c0.5-1.2-0.5-1.8-2.1-2.7c-0.6-0.4-1.3-0.8-2-1.3c-3.3-2.5-4.7-6.9-3.7-11.2
				c0.6-2.4,1.8-4.5,3.7-6.2c1.7-1.5,3.7-2.6,6-3.3c2,11.2,4.1,22.2,5.7,30.5c0.1,0.7,0.3,1.3,0.4,2
				C152.8,569.2,148.5,569.1,144.3,568 M155.6,535.1c10.3-0.5,14.5,6.9,15.4,11.7c0.5,2.5,0.5,6.9-1.1,11.1
				c-1.2,3.2-3.6,7.2-8.7,9.2c-0.1-0.4-0.1-0.8-0.2-1.3C159.4,557.2,157.5,546.3,155.6,535.1 M148.3,464.7c1.8-5.7,4.5-8.9,6.5-10.6
				c1.7-1.5,3.4-2.2,4.3-2.2c0.1,0,0.3,0,0.4,0c0.5,0.1,1,0.7,1.4,1.6c2.3,4.3,1.6,10.9,0.2,15.3c-1.6,5.4-4.5,10.9-13.2,20.5
				c-0.2-1.1-0.3-2.1-0.5-3.1C146.1,478,146.4,470.7,148.3,464.7"/>
			<path class="st1" d="M178.3,232.4c-1.2-5.4-3.8-9.2-4.6-10.2c-3.2-4.2-7.1-7.1-11.8-8.4c-3.1-0.9-6.1-1-8.5-0.8
				c-1-6-2-11.8-2.9-17.2c5.4-6.1,9-11.9,11.3-16.1c3.4-6.5,4.6-11.1,4.6-11.3c1.7-5.2,2.1-12.8,1-21c-1-7.5-3.1-14.1-5.4-17.4
				c-1-1.4-2.1-2.1-3.1-2.1c-1.2,0-3.7,1.2-6.6,4c-2.3,2.2-5.5,6-8.1,12c-3,7-3.2,16.4-2.8,23.1c0.4,7.2,1.5,12.9,1.5,12.9
				c0,0.1,0.3,1.6,0.7,4.1c-0.2,0.2-0.5,0.4-0.7,0.7c-1,1-2.2,2.1-3.6,3.5c-0.9,0.9-1.8,1.8-2.8,2.7c-8.4,8.1-21.1,20.3-21.1,39.3
				c0,4.7,0.9,9,2.7,13c1.6,3.6,3.9,6.8,6.8,9.7c7.7,7.5,18.2,10.7,25.2,10.5c2.9-0.1,5.5-0.3,7.9-0.8c1.8,9.5,2.9,16.5,3,21.8
				c0,6.5-1.6,10.4-5.5,13.1c-2.4,1.7-5.2,2.7-8.3,2.8c-2.6,0.1-4.8-0.3-6.2-0.8h0c0,0-0.3-0.1-0.3-0.3c0-0.2,0.3-0.2,0.3-0.2h0
				c1.9-0.4,5.4-1.7,7.8-4.9c1.8-2.5,2.6-7.1,0.8-11c-1.1-2.4-3.6-5.3-9.2-5.7c-2.5-0.2-4.7,0.3-6.7,1.5c-1.8,1.1-3.3,2.7-4.3,4.7
				c-2.4,4.7-2,10.3,1.1,14.2c2.9,3.6,7.5,5.9,12.9,6.5c0.8,0.1,1.7,0.1,2.5,0.1c4.4,0,8.8-1.2,12.3-3.4c3.6-2.5,5.7-6.5,6.4-12.1
				c0.6-4.6,0.2-10.5-1.2-18.5c-0.4-2.1-0.9-5.1-1.5-8.8c5.7-1.9,9.8-5.4,13.6-11.3C178.8,244.7,179.7,238.7,178.3,232.4
				 M144.3,258.4c-4.6-1.2-9-3.7-12.7-7.2c-1.3-1.2-3.2-3.4-4.6-6.7c-1.4-3.1-2-6.5-2-10.1c0.1-4.7,1.4-9.4,3.9-14.2
				c2.9-5.5,7.4-11,13.4-16.3c1.4-1.3,2.8-2.5,4.1-3.8c0.8,4.2,1.6,8.9,2.5,13.7c-3.8,1.3-8.5,4.4-11.6,10c-3.5,6.5-3.4,12-2.6,15.4
				c0.9,4.4,3.4,8.2,6.9,10.2c0.9,0.6,5,2.7,6.8,2.1c0.4-0.1,0.6-0.3,0.8-0.7c0.5-1.2-0.5-1.8-2.1-2.7c-0.6-0.4-1.3-0.8-2-1.3
				c-3.3-2.5-4.7-6.9-3.7-11.2c0.6-2.4,1.8-4.5,3.7-6.2c1.7-1.5,3.7-2.6,6-3.3c2,11.2,4.1,22.2,5.7,30.5c0.1,0.7,0.3,1.3,0.4,2
				C152.8,259.6,148.5,259.5,144.3,258.4 M155.6,225.5c10.3-0.5,14.5,6.9,15.4,11.7c0.5,2.5,0.5,6.9-1.1,11.1
				c-1.2,3.2-3.6,7.2-8.7,9.2c-0.1-0.4-0.1-0.8-0.2-1.3C159.4,247.6,157.5,236.7,155.6,225.5 M148.3,155.1c1.8-5.7,4.5-8.9,6.5-10.6
				c1.7-1.5,3.4-2.2,4.3-2.2c0.1,0,0.3,0,0.4,0c0.5,0.1,1,0.7,1.4,1.6c2.3,4.3,1.6,10.9,0.2,15.3c-1.6,5.4-4.5,10.9-13.2,20.5
				c-0.2-1.1-0.3-2.1-0.5-3.1C146.1,168.3,146.4,161.1,148.3,155.1"/>
			<path class="st1" d="M226,757.3c-0.6-3.9-3-7.5-8-7.5c-5,0-7.8,3.1-8.3,3.7l0.4-31.8c0-0.8-0.6-1.4-1.4-1.4h-1.2
				c-0.8,0-1.4,0.6-1.4,1.4l0.5,59.6c0,0.8,0.6,1.4,1.4,1.4c0.2,0,0.6-0.1,0.8-0.2c0.4-0.2,6.8-3.4,12.2-9.4
				c3.8-4.3,5.3-9.1,5.3-13.2C226.2,758.9,226.1,758.1,226,757.3 M219.2,761.2c0,1.5-0.4,6.1-2.9,9.8c-1.7,2.6-5.1,5.3-6.9,6.7
				l0.3-19.3c0.2-0.9,1.7-3.8,5.7-3.8c3.6,0,3.9,3.4,3.9,5.5V761.2"/>
			<path class="st1" d="M226,515.2c-0.6-3.9-3-7.5-8-7.5c-5,0-7.8,3.1-8.3,3.7l0.4-31.8c0-0.8-0.6-1.4-1.4-1.4h-1.2
				c-0.8,0-1.4,0.6-1.4,1.4l0.5,59.6c0,0.8,0.6,1.4,1.4,1.4c0.2,0,0.6-0.1,0.8-0.2c0.4-0.2,6.8-3.4,12.2-9.4
				c3.8-4.3,5.3-9.1,5.3-13.2C226.2,516.8,226.1,516,226,515.2 M219.2,519.1c0,1.5-0.4,6.1-2.9,9.8c-1.7,2.6-5.1,5.3-6.9,6.7
				l0.3-19.3c0.2-0.9,1.7-3.8,5.7-3.8c3.6,0,3.9,3.4,3.9,5.5V519.1"/>
			<path class="st1" d="M226,205.6c-0.6-3.9-3-7.5-8-7.5c-5,0-7.8,3.1-8.3,3.7l0.4-31.8c0-0.8-0.6-1.4-1.4-1.4h-1.2
				c-0.8,0-1.4,0.6-1.4,1.4l0.5,59.6c0,0.8,0.6,1.4,1.4,1.4c0.2,0,0.6-0.1,0.8-0.2c0.4-0.2,6.8-3.4,12.2-9.4
				c3.8-4.3,5.3-9.1,5.3-13.2C226.2,207.2,226.1,206.4,226,205.6 M219.2,209.5c0,1.5-0.4,6.1-2.9,9.8c-1.7,2.6-5.1,5.3-6.9,6.7
				l0.3-19.3c0.2-0.9,1.7-3.8,5.7-3.8c3.6,0,3.9,3.4,3.9,5.5V209.5"/>
			<path class="st1" d="M482.6,802.7c0-0.2,0.9-3.6,1-3.9c0.1-0.4,1.9-6.1,5.6-11.7c2.7-4.2,12.1-16.4,11.8-16.4
				c0,0,7.3-9.4,7.8-22.2v-2.3c0-6.1-0.8-14.6-4.3-23.2c-0.4-1-0.8-2-1.9-1.6s-0.8,1.6-0.5,2.7c1.8,6.9,2.8,14.1,2.8,21.2
				c0,8.3-3,12.5-4.8,15.6c-6.5,11-15.1,16.4-19.2,17.8c-0.5,0.2-0.8,0.6-0.8,1.1v6.2v16.3c0,0.7,0.6,1.3,1.3,1.3
				C481.9,803.5,482.5,803.1,482.6,802.7"/>
			<path class="st1" d="M1155.7,675.6c-0.1-0.3-1-3.8-1-4c-0.1-0.4-0.7-0.7-1.2-0.7c-0.7,0-1.3,0.6-1.3,1.3v16.3v6.2
				c0,0.5,0.4,0.9,0.8,1.1c4.2,1.3,12.8,6.7,19.2,17.8c1.8,3.1,4.7,7.2,4.7,15.6c0,7.1-1.1,14.7-2.9,21.6c-0.3,1.1-0.6,2.1,0.5,2.5
				s1.5-0.4,1.9-1.4c3.6-8.7,4.5-17.9,4.5-24v-1.9c-0.5-12.8-7.8-22.2-7.8-22.2c0.3,0-9.1-12.2-11.8-16.4
				C1157.6,681.6,1155.8,676,1155.7,675.6"/>
			<path class="st1" d="M1763.8,827.5c0-0.2,0.9-3.6,1-3.9c0.1-0.4,1.9-6.1,5.6-11.7c2.7-4.2,12.1-16.4,11.8-16.4
				c0,0,7.3-9.4,7.8-22.2v-2.3c0-6.1-0.8-14.6-4.3-23.2c-0.4-1-0.8-2-1.9-1.6c-1.1,0.4-0.8,1.6-0.5,2.7c1.8,6.9,2.8,14.1,2.8,21.2
				c0,8.3-3,12.5-4.8,15.6c-6.5,11-15.1,16.4-19.2,17.8c-0.5,0.2-0.8,0.6-0.8,1.1v6.2V827c0,0.7,0.6,1.3,1.3,1.3
				C1763.1,828.3,1763.7,827.9,1763.8,827.5"/>
			<path class="st1" d="M513.1,514.1c-0.1-0.3-1-3.8-1-4c-0.1-0.4-0.7-0.7-1.2-0.7c-0.7,0-1.3,0.6-1.3,1.3V527v6.2
				c0,0.5,0.4,0.9,0.8,1.1c4.2,1.3,12.8,6.7,19.2,17.8c1.8,3.1,4.7,7.2,4.7,15.6c0,7.1-1.1,14.7-2.9,21.6c-0.3,1.1-0.6,2.1,0.5,2.5
				c1.1,0.4,1.5-0.4,1.9-1.4c3.6-8.7,4.5-17.9,4.5-24v-1.9c-0.5-12.8-7.8-22.2-7.8-22.2c0.3,0-9.1-12.2-11.8-16.4
				C515,520.2,513.2,514.5,513.1,514.1"/>
			<path class="st1" d="M1155.7,501.7c-0.1-0.3-1-3.8-1-4c-0.1-0.4-0.7-0.7-1.2-0.7c-0.7,0-1.3,0.6-1.3,1.3v16.3v6.2
				c0,0.5,0.4,0.9,0.8,1.1c4.2,1.3,12.8,6.7,19.2,17.8c1.8,3.1,4.7,7.2,4.7,15.6c0,7.1-1.1,14.7-2.9,21.6c-0.3,1.1-0.6,2.1,0.5,2.5
				s1.5-0.4,1.9-1.4c3.6-8.7,4.5-17.9,4.5-24V552c-0.5-12.8-7.8-22.2-7.8-22.2c0.3,0-9.1-12.2-11.8-16.4
				C1157.6,507.8,1155.8,502.1,1155.7,501.7"/>
			<path class="st1" d="M1794.3,526.5c-0.1-0.3-1-3.8-1-4c-0.1-0.4-0.7-0.7-1.2-0.7c-0.7,0-1.3,0.6-1.3,1.3v16.3v6.2
				c0,0.5,0.4,0.9,0.8,1.1c4.2,1.3,12.8,6.7,19.2,17.8c1.8,3.1,4.7,7.2,4.7,15.6c0,7.1-1.1,14.7-2.9,21.6c-0.3,1.1-0.6,2.1,0.5,2.5
				s1.5-0.4,1.9-1.4c3.6-8.7,4.5-17.9,4.5-24v-1.9c-0.5-12.8-7.8-22.2-7.8-22.2c0.3,0-9.1-12.2-11.8-16.4
				C1796.2,532.6,1794.4,526.9,1794.3,526.5"/>
			<path class="st1" d="M513.1,148.7c-0.1-0.3-1-3.8-1-4c-0.1-0.4-0.7-0.7-1.2-0.7c-0.7,0-1.3,0.6-1.3,1.3v16.3v6.2
				c0,0.5,0.4,0.9,0.8,1.1c4.2,1.3,12.8,6.7,19.2,17.8c1.8,3.1,4.7,7.2,4.7,15.6c0,7.1-1.1,14.7-2.9,21.6c-0.3,1.1-0.6,2.1,0.5,2.5
				c1.1,0.4,1.5-0.4,1.9-1.4c3.6-8.7,4.5-17.9,4.5-24V199c-0.5-12.8-7.8-22.2-7.8-22.2c0.3,0-9.1-12.2-11.8-16.4
				C515,154.8,513.2,149.1,513.1,148.7"/>
			<path class="st1" d="M1155.7,167.3c-0.1-0.3-1-3.8-1-4c-0.1-0.4-0.7-0.7-1.2-0.7c-0.7,0-1.3,0.6-1.3,1.3v16.3v6.2
				c0,0.5,0.4,0.9,0.8,1.1c4.2,1.3,12.8,6.7,19.2,17.8c1.8,3.1,4.7,7.2,4.7,15.6c0,7.1-1.1,14.7-2.9,21.6c-0.3,1.1-0.6,2.1,0.5,2.5
				c1.1,0.4,1.5-0.4,1.9-1.4c3.6-8.7,4.5-17.9,4.5-24v-1.9c-0.5-12.8-7.8-22.2-7.8-22.2c0.3,0-9.1-12.2-11.8-16.4
				C1157.6,173.4,1155.8,167.7,1155.7,167.3"/>
			<path class="st1" d="M1794.3,192.1c-0.1-0.3-1-3.8-1-4c-0.1-0.4-0.7-0.7-1.2-0.7c-0.7,0-1.3,0.6-1.3,1.3V205v6.2
				c0,0.5,0.4,0.9,0.8,1.1c4.2,1.3,12.8,6.7,19.2,17.8c1.8,3.1,4.7,7.2,4.7,15.6c0,7.1-1.1,14.7-2.9,21.6c-0.3,1.1-0.6,2.1,0.5,2.5
				s1.5-0.4,1.9-1.4c3.6-8.7,4.5-17.9,4.5-24v-1.9c-0.5-12.8-7.8-22.2-7.8-22.2c0.3,0-9.1-12.2-11.8-16.4
				C1796.2,198.2,1794.4,192.5,1794.3,192.1"/>
			<path class="st1" d="M296.8,328.8c0.4-0.1,0.6-0.1,0.8-0.1c0.2,0,0.5,0,0.9,0.1c1.8,0.1,4.6,0.2,6,0.2c2.2,0,5.1-0.1,7.3-0.3
				c0.1,1.4,0.1,2.6,0.1,3.9c0,8-0.8,11.7-3.4,14.9c-1.8,2.3-4.1,4.1-7.6,5.8c1.3,1,1.7,1.4,2.7,2.7c3.9-2.2,6-4,7.9-6.4
				c3-4,3.8-8.1,3.8-17.6c0-1.4,0-2.2,0-3.6c2-0.2,3.5-0.6,5.5-1c1.5-0.4,1.6-0.4,2.6-0.6l-0.2-3.6c-1.8,0.9-4.1,1.6-7.9,2.1
				c-0.2-6.9-0.2-6.9-0.3-8.1c0-0.9,0-1.1,0-1.5c0-0.6,0-0.9,0.2-1.7l-3.9,0.1c0.2,1.5,0.4,2.9,0.6,11.6c-2.5,0.2-4.4,0.3-6.4,0.3
				c-3.7,0-6.6-0.2-8.5-0.6L296.8,328.8 M287.8,314.6c0,0.9-0.1,1.4-0.4,3.4c-1.6,9.2-2,13.3-2,19.2c0,5.2,0.6,10.1,1.9,14.8
				c0.2,0.9,0.3,1.1,0.4,1.8l3.4-0.3c0-1.7,0.4-3.4,1.4-6.4c1-2.7,2.2-5.8,3.7-8.8l-2.5-1.2c-2.9,6.1-3.2,7.1-4.2,10.6
				c0-0.6-0.1-1.6-0.3-2.7c-0.2-1.7-0.4-5.4-0.4-8.1c0-6.8,1.4-17.1,3-21.8L287.8,314.6"/>
			<path class="st1" d="M287.2,378.6c0.9-0.1,1-0.1,3.1-0.2c5.6-0.1,9.6-0.3,13.5-0.9c1.2,2.7,1.5,3.2,2.8,5.7
				c-4.1,0.8-10.5,1.2-15.8,1.2c-2,0-2.9-0.1-4-0.1l0.1,3.3c0.9-0.1,1.1-0.1,3.5-0.2c9.4-0.3,12.6-0.5,17.6-1.4
				c1.8,3.1,3.8,6.1,5.3,7.7c-3.3-1-6-1.4-10.1-1.4c-9.5,0-15.2,3.2-15.2,8.7c0,2.6,1.3,4.8,3.8,6.2c2.5,1.4,5.7,2.1,10.3,2.1
				c4.5,0,8.7-0.6,12.8-1.8c2.3-0.7,2.3-0.7,3-0.9l-0.7-3.9c-3,1.8-9.6,3.3-14.8,3.3c-6.8,0-10.6-1.8-10.6-5.1
				c0-3.4,4.6-5.7,11.9-5.7c2.2,0,4.8,0.2,6.5,0.4c2.5,0.4,3.6,0.8,5.5,1.9l3-2.1c-3.8-4.5-4.4-5.2-7.3-10c1.8-0.3,4.3-0.9,7.8-1.8
				c1.7-0.5,1.8-0.5,2.7-0.7l-0.4-3.3c-2,1-4.8,1.8-11.5,3.1c-0.8-1.3-2.1-4-2.8-5.6c2.8-0.4,8.2-1.6,12.6-2.8l-0.3-3.2
				c-2.8,1.2-7.5,2.4-13.3,3.3c-1.2-2.7-2.2-5.2-2.7-7.1l-3.8,0.6c0.5,0.7,1.5,3,3,6.9c-4.6,0.5-7.6,0.7-11.8,0.7
				c-1.7,0-2.6-0.1-3.8-0.1L287.2,378.6"/>
			<path class="st1" d="M476.8,324.7c2.5-0.6,6.9-0.9,17.2-1.6c5.5-0.4,8-0.6,11-1.1c-1.9,0.9-3.2,1.6-4.8,2.7
				c-6,4-9.3,9.5-9.3,15.3c0,4.1,2,7.8,5.5,10.2c2.8,2,5.8,3,10.8,3.9c0.8,0.1,1,0.2,1.5,0.3l0.7-4.1c-0.2,0-0.4,0-0.5,0
				c-1.9,0-5-0.7-7.5-1.6c-4.5-1.7-7-5-7-9.2c0-4.1,2.2-8.2,6.2-11.5c2.8-2.4,6.2-4.2,9.6-5.1c1.9-0.4,3.6-0.7,5.6-0.7l-0.3-3.8
				c-0.8,0.2-3.1,0.5-6,0.6c-6.4,0.3-22.4,1.2-28.4,1.7c-1.5,0.1-2.2,0.1-2.9,0.1c-0.3,0-0.8,0-1.8,0L476.8,324.7"/>
			<path class="st1" d="M503.7,367.4c-1.8,2.8-8,8.6-14.6,13.7c-3.7,2.8-3.7,2.8-4.2,3.4c-1,1-1.5,2.2-1.5,3.4c0,1.7,0.8,2.8,3.6,5
				c7.3,5.7,9.3,7.3,12.7,10.4c3.3,3.1,5.2,5.1,6.5,6.9l3.1-3.1c-0.5-0.4-0.6-0.5-1.4-1.2c-7.4-6.9-8.8-8.1-16-13.6
				c-4-3.2-4.5-3.5-4.5-4.4c0-0.7,0.3-1.1,2.2-2.5c6.3-4.8,9-7.1,11.5-9.4c5.2-5,5.6-5.4,6.1-5.8L503.7,367.4"/>
			<path class="st1" d="M580.1,320c0.9-0.1,1.2-0.1,3.1-0.2c7.2-0.2,13.6-0.8,15.7-1.2c-0.7,0.5-0.8,0.6-1.7,1.4
				c-4.7,4.5-12.5,10.6-16.6,12.9c-3.5,0.6-7.2,1-8.8,1c-0.1,0-0.2,0-0.4,0l0.4,3.8c1.5-0.5,8.3-1.6,14.7-2.2
				c5.5-0.6,6.5-0.8,8.8-1.2c0.7-0.1,1.4-0.2,2.1-0.3c-7.2,3.1-10.9,7.1-10.9,11.6c0,2.4,1,4.7,3,6.3c2.4,2,6.8,3.1,12.6,3.2
				c1.2,0,2,0,2.2,0c0.4,0,0.6,0.1,1.2,0.1l-0.2-3.8c-1.1,0.2-2.1,0.3-3.4,0.3c-7.6,0-11.9-2.3-11.9-6.4c0-1.5,0.5-2.6,1.6-4.1
				c1.4-1.8,3.7-3.6,6.2-4.8c3.7-1.8,8.7-2.7,13.8-2.7c0.2,0,0.6,0,1.1,0l-0.4-3.5c-0.6,0.1-0.8,0.1-1.5,0.2
				c-0.5,0.1-2.5,0.2-4.5,0.4c-4,0.4-7.6,0.7-8.9,0.8c-7.5,0.6-9.8,0.9-12,1.4c4.9-2.9,11.4-7.9,16.4-12.8c1.2-1.2,1.7-1.6,2.5-2.1
				l-2.1-2.6c-0.7,0.3-1.7,0.5-2.8,0.6c-3.5,0.4-10.8,0.7-15.2,0.7c-2,0-2.9,0-4.5-0.2L580.1,320 M604.7,320.4
				c1.2,1.4,3.5,5,4.7,7.6l2.5-1.5c-1.7-3.2-3.1-5.4-4.8-7.3L604.7,320.4 M609.9,317.3c2,2.2,4.1,5.4,5.2,7.8l2.5-1.5
				c-1.7-3.1-3-5-5.2-7.8L609.9,317.3"/>
			<path class="st1" d="M585,368.4c0.3,0.8,0.4,1.1,0.8,3.2c1.3,6.4,2.2,9.9,3.7,14c-3.1,1.6-4.7,2.5-6.5,4.1
				c-3,2.4-4.5,5.3-4.5,8.5c0,3.9,2.1,6.7,6.2,8.2c2.4,0.9,6.1,1.3,11.1,1.3c3.5,0,5.9-0.1,11-0.6c2.8-0.3,2.8-0.3,3.7-0.3l-0.4-4.1
				c-2.9,1.1-8.5,1.7-14.3,1.7c-9.8,0-13.6-1.8-13.6-6.3c0-4.1,3.7-7.4,12.2-10.8c4.4-1.8,11.5-4.1,15-4.9l-1.5-3.8
				c-1,0.5-1.5,0.7-3.2,1.3c-7.8,2.7-9.2,3.2-12.1,4.4c-1.7-5-3.6-13.2-3.8-16.6L585,368.4"/>
			<path class="st1" d="M744.4,328.8c0.4-0.1,0.6-0.1,0.8-0.1c0.2,0,0.5,0,0.9,0.1c1.8,0.1,4.6,0.2,6,0.2c2.2,0,5.1-0.1,7.3-0.3
				c0.1,1.4,0.1,2.6,0.1,3.9c0,8-0.8,11.7-3.4,14.9c-1.8,2.3-4.1,4.1-7.6,5.8c1.3,1,1.7,1.4,2.7,2.7c3.9-2.2,6-4,7.9-6.4
				c3-4,3.8-8.1,3.8-17.6c0-1.4,0-2.2,0-3.6c2-0.2,3.5-0.6,5.5-1c1.5-0.4,1.6-0.4,2.6-0.6l-0.2-3.6c-1.8,0.9-4.1,1.6-7.9,2.1
				c-0.2-6.9-0.2-6.9-0.3-8.1c0-0.9,0-1.1,0-1.5c0-0.6,0-0.9,0.2-1.7l-3.9,0.1c0.2,1.5,0.4,2.9,0.6,11.6c-2.5,0.2-4.4,0.3-6.4,0.3
				c-3.7,0-6.6-0.2-8.5-0.6L744.4,328.8 M735.4,314.6c0,0.9-0.1,1.4-0.5,3.4c-1.5,9.2-2,13.3-2,19.2c0,5.2,0.6,10.1,1.9,14.8
				c0.2,0.9,0.3,1.1,0.4,1.8l3.5-0.3c0-1.7,0.4-3.4,1.4-6.4c1-2.7,2.2-5.8,3.7-8.8l-2.6-1.2c-2.8,6.1-3.2,7.1-4.2,10.6
				c0-0.6-0.1-1.6-0.3-2.7c-0.2-1.7-0.4-5.4-0.4-8.1c0-6.8,1.5-17.1,3-21.8L735.4,314.6"/>
			<path class="st1" d="M733.1,368.7c0,0.7-0.1,1.1-0.5,3.2c-2,8.6-2.6,13.9-2.6,20.5c0,5,0.5,10.2,1.4,14.9
				c0.2,1.2,0.2,1.4,0.3,1.9l3.5-0.4c-0.1-0.6-0.1-0.8-0.1-1c0-2.9,2-9.2,4.3-14.1l-2.5-1.2c-0.1,0.4-0.2,0.5-0.4,1
				c-1.5,3.6-2.2,5.4-3,8.8h-0.2l0-2.4c-0.2-2.2-0.2-5.2-0.2-7c0-8.1,1.7-18.4,3.9-23.4L733.1,368.7 M756.4,379.3
				c-2,0.1-3.4,0.1-5.3,0.1c-4.4,0-6.5-0.2-9-0.8l-0.1,3.5c0.1,0,0.2,0,0.2,0c0.1,0,0.2,0,0.5,0c0.1,0,0.4,0,0.9,0.1
				c0.1,0,0.7,0,1.5,0.1c1.7,0.1,3.5,0.1,5.7,0.1c2,0,3.5-0.1,5.7-0.1c0.2,7.6,0.4,12.1,0.5,13.1c-1.1-0.6-3.5-1-5.5-1
				c-5.6,0-9.5,3-9.5,7.2c0,4.3,3.7,7,9.5,7c4.2,0,7.2-1.6,8.4-4.2c0.4-0.9,0.6-2.1,0.6-3.4c0-0.4,0-0.5-0.1-1.2
				c0.1,0.1,0.2,0.2,0.3,0.2l0.3,0.2c0,0,0.2,0.1,0.3,0.2c3.3,1.8,5.6,3.5,7.1,5.2l1.6-3.6c-0.6-0.3-0.7-0.4-1.2-0.8
				c-3.2-2.3-4.9-3.3-8.4-4.9c-0.3-6-0.5-9.8-0.5-14.1c2.4-0.3,4.2-0.6,5.2-0.8c1.9-0.4,2.9-0.6,3.2-0.6c0,0,0.2-0.1,0.3-0.1
				l-0.1-3.3c-3.8,1.1-4.4,1.2-8.7,1.8c0-1,0-1.9,0-2.4c0-4.2,0.1-6.5,0.3-7.9h-3.8c0.1,0.4,0.2,1.2,0.2,2.1v2.9c0,0.4,0,1.6,0,2.8
				L756.4,379.3 M757,398.4c0,0.1,0.1,1.1,0.1,1.5c0,2-0.2,3.2-1,3.9c-1,1.1-3,1.8-5.1,1.8c-3.5,0-5.9-1.6-5.9-4
				c0-2.6,2.5-4.2,6.5-4.2C753.6,397.4,754.9,397.7,757,398.4 M761.6,366.4c1.4,2.1,2.5,4.8,3.8,8.2l2.7-1c-1.2-3.4-2.5-6-3.8-8.1
				L761.6,366.4 M767.5,364.9c1.2,1.9,2.8,5.1,3.8,8.1l2.5-1c-0.9-2.8-2.2-5.4-3.8-8.1L767.5,364.9"/>
			<path class="st1" d="M933.1,327.3c0.8-0.1,1-0.2,2-0.2c6.6-0.1,12.8-0.6,17.8-1.3c0.3,0.5,0.3,0.6,0.9,1.6c2.1,4.2,3.4,6.2,6,9.8
				c-2.1-1.1-6.1-1.8-10.4-1.8c-4,0-7,0.6-9.7,1.9c-3.5,1.7-5.7,4.8-5.7,8.1c0,2,0.8,3.9,2.2,5.5c2.3,2.4,6.9,3.8,13,3.8
				c5,0,9.7-0.9,14.7-2.7l-0.6-3.9c-3.8,1.9-9.2,3.2-14.2,3.2c-4.3,0-7.9-0.8-9.8-2.3c-1.2-1-1.9-2.4-1.9-3.9c0-1.8,1-3.6,2.7-4.6
				c2.2-1.4,5.3-2.1,9.5-2.1c3.4,0,6.2,0.4,8.8,1.3c1.4,0.5,2.1,0.9,3.5,2.1l3.3-1.9c-3.5-4.6-7.2-10.6-9-14.5
				c0.5-0.1,0.5-0.1,1.7-0.4c3.2-0.6,3.8-0.8,6.8-1.6c1.5-0.4,1.9-0.5,3-0.7l-0.5-3.6c-2.7,1.2-7.2,2.4-12.1,3.2
				c-0.4-1-0.6-1.2-1.8-4.4c-1.2-3.2-1.2-3.2-1.5-4.5l-3.9,0.6c0.4,0.9,0.8,1.6,1.3,2.9c0.9,2.2,1.7,4.2,2.4,6
				c-4.7,0.6-10.3,1-14.9,1c-1.7,0-2.5,0-3.8-0.2L933.1,327.3"/>
			<path class="st1" d="M933.6,383.6c1.3-0.4,1.8-0.5,2.9-0.7c0.5-0.1,2.9-0.5,7.2-1.1c-1.7,6.4-3.2,10.8-5.5,15.8
				c-1.8,3.8-3.7,7.1-5.2,9.1l3.4,2c1.5-2.8,2.6-4.8,3.2-6c3.4-6.9,5.7-13.3,7.5-21.2c1.8-0.2,2.5-0.2,3.6-0.2c4.7,0,6.2,1.7,6.2,7
				c0,5.6-0.8,10.7-2.1,13.9c-0.7,1.6-1.6,2.4-2.8,2.4c-1.8,0-4.6-0.9-7.5-2.3c0.2,0.9,0.2,1.2,0.2,2c0,0.6,0,1-0.1,1.8
				c3.3,1.4,5.4,1.9,7.6,1.9c2.3,0,3.7-0.6,4.9-2.3c2.1-2.9,3.4-9.6,3.4-17.2c0-4.1-0.7-6.4-2.5-8c-1.5-1.5-3.7-2.1-7.2-2.1
				c-1.2,0-1.8,0.1-3,0.1c0.5-2.4,0.8-4.2,1.1-5.7c0.4-2.8,0.6-3.7,0.9-4.8l-4-0.4c0,0.3,0,0.6,0,0.7c0,2.1-0.6,6.9-1.5,10.6
				c-4,0.7-9.2,1.2-11,1.3L933.6,383.6 M963.1,377c4.8,4.9,8.3,11.1,10.2,17.9l3.2-1.8c-2.3-7.1-5.3-12.2-10.4-17.7L963.1,377"/>
			<path class="st1" d="M1228.2,327.9c0.1,0,0.2,0,0.2,0c0.1,0,0.2,0,0.5,0.1c0.1,0,0.4,0,0.8,0.1c0.2,0,0.8,0,1.6,0.1
				c1.8,0.1,3.6,0.2,5.6,0.2c1.9,0,3.5-0.1,5.7-0.2c0.2,7.3,0.3,12,0.5,13.1c-1.2-0.6-3.5-1-5.6-1c-5.5,0-9.5,2.9-9.5,7.1
				c0,4.3,3.7,7.1,9.5,7.1c4.1,0,7.1-1.5,8.3-4.2c0.4-0.9,0.6-2.1,0.6-3.4c0-0.4,0-0.6-0.1-1.3c0.2,0.1,0.2,0.1,0.4,0.3
				c0.3,0.2,0.3,0.2,0.5,0.3c3.6,2,5.6,3.4,7.1,5.2l1.6-3.5c-0.6-0.4-0.7-0.4-1.2-0.9c-3.3-2.4-4.7-3.2-8.3-4.9
				c-0.4-6.7-0.5-9.2-0.6-14.2c2.6-0.3,4-0.5,5.3-0.8c3.4-0.7,3.4-0.7,3.5-0.7l-0.2-3.4c-1.9,0.8-4.8,1.4-8.7,1.9c0-1.1,0-1.9,0-2.5
				c0-4.1,0.1-6.5,0.3-7.8h-3.8c0.1,0.5,0.2,1.2,0.2,2.1c0,3.8,0,3.8,0,8.5c-2,0.1-3.4,0.1-5.3,0.1c-4.4,0-6.6-0.2-9-0.8
				L1228.2,327.9 M1243.3,344.2c0,0,0.1,1.1,0.1,1.5c0,1.9-0.3,3.1-0.9,3.9c-1,1.1-2.9,1.8-5.1,1.8c-3.5,0-5.8-1.6-5.8-4
				c0-2.5,2.5-4.2,6.4-4.2C1239.9,343.2,1241.2,343.4,1243.3,344.2 M1219.4,314.5c-0.1,0.6-0.1,0.9-0.6,3.1
				c-1.9,8.7-2.6,13.9-2.6,20.6c0,5.1,0.5,10.2,1.4,14.9c0.2,1.1,0.2,1.4,0.3,1.8l3.6-0.3c-0.1-0.7-0.1-0.8-0.1-1
				c0-2.9,1.9-9.3,4.3-14.2l-2.4-1.2c-0.1,0.4-0.2,0.6-0.4,1c-1.7,4.1-2.1,5.1-2.9,8.8l-0.2-0.1c0-0.5,0-0.5,0-0.9c0-0.9,0-1,0-1.4
				c-0.1-2.3-0.2-5.2-0.2-7c0-8.2,1.7-18.5,3.8-23.5L1219.4,314.5"/>
			<path class="st1" d="M1224.2,367.2c0,0.6-0.1,0.9-0.2,1.6c-1.2,8.9-1.7,13.6-1.7,18.4c0,0.2,0,0.7,0,1.2l0.1,5.2l0,0.9
				c0,0.1,0,0.3,0,0.6l3.6-0.1c0-0.8,0-1,0-1.2c0-3.6,0.9-7.5,2.7-11.1c2.8-5.9,6.1-8.7,9.8-8.7c4.8,0,7.6,4.6,7.6,12.7
				c0,8-2.8,13.2-8.6,16.6c-2.9,1.6-5.5,2.4-10.1,3.1c1.1,1.4,1.4,1.9,2,3.4c3.5-0.8,6.5-1.8,8.9-2.9c7.5-3.8,11.6-10.6,11.6-19.6
				c0-5.4-0.9-9.1-3-12.2c-1.9-2.9-4.8-4.4-8-4.4c-3.9,0-7.2,2.2-10,6.4c-1.4,2.2-2.4,4.7-3.1,7.5c-0.2,1-0.2,1-0.3,1.4l-0.2-0.1
				c0.2-2.6,0.8-8,1.7-13.1c0.4-2.7,0.8-4.1,1.1-5.1L1224.2,367.2"/>
			<path class="st1" d="M1373,346.2c0.6-0.8,2.6-3,4.5-4.8c1.8-1.7,2.2-2.1,2.6-2.8h0.1c-0.1,1.2-0.1,1.6-0.2,7.7
				c0,7.9,0,7.9-0.2,9.5h4c-0.2-2.3-0.3-4.8-0.3-19.9c6.6-5.9,11.1-8.2,16-8.2c5.7,0,9.5,3.9,9.5,9.8c0,2.2-0.4,4.1-1.4,6
				c-1.8,3.5-5.7,5.6-10,5.6c-3,0-6-0.7-8.8-1.9c0.3,1.4,0.4,2,0.4,2.9c0,0.2,0,0.5-0.1,0.9c3.1,1.1,5.7,1.5,8.5,1.5
				c9.1,0,15.1-6,15.1-15.1c0-7.6-5.5-13-13.5-13c-4.4,0-8.3,1.5-12.7,4.9c-1.5,1.2-2.4,2-2.9,2.6l-0.2,0.2h-0.1
				c0-0.1,0.1-1.8,0.2-5.1c1.9-2.7,1.9-2.7,2.6-3.2l-1.3-1.7c-0.4,0.2-0.5,0.2-1.2,0.3c0.1-1.1,0.1-1.1,0.1-2.8
				c0.2-3.6,0.2-4.4,0.5-5.8h-3.9c0.2,0.8,0.2,1.2,0.2,1.9c0,1.9-0.1,3.9-0.2,6.9c-4.1,0.3-6.2,0.4-6.9,0.4c-0.4,0-0.7,0-1.4-0.1
				l0.2,3.4c1.2-0.2,2.2-0.4,5.5-0.6c1.8-0.1,1.8-0.1,2.6-0.1c-0.2,4.2-0.2,4.7-0.2,8.9c-0.7,0.5-0.7,0.5-1.5,1.3
				c-1.7,1.6-1.7,1.6-3.4,3.2c-2.4,2.2-3.3,3.1-4.3,3.7L1373,346.2"/>
			<path class="st1" d="M1381.4,371.7c6.7,1.9,12.9,2.9,21,3.3l0.6-3.6c-8.2-0.1-15.4-1.2-20.3-3.1L1381.4,371.7 M1376.2,387.9
				c3.9-1.6,13.9-3.3,19.1-3.3c2.6,0,4.9,0.4,6.1,1.1c2.1,1.1,3.2,3.1,3.2,5.6c0,2.3-0.8,4.6-2.6,6.8c-1.2,1.6-2.3,2.4-4.3,3.6
				c-4.2,2.4-8.8,3.7-14.1,4c0.8,1.2,0.9,1.7,1.6,3.7c7.5-1.4,10.7-2.4,14.5-4.8c5.6-3.4,8.6-8.2,8.6-13.5c0-3.4-1.4-6.2-4.2-7.9
				c-2-1.3-4.8-1.9-8.6-1.9c-3.9,0-8.6,0.6-15.2,1.8c-3.9,0.8-3.9,0.8-5,0.9L1376.2,387.9"/>
			<path class="st1" d="M1571.8,329.7c1.3-0.3,1.8-0.4,2.9-0.6c0.4-0.1,2.8-0.5,7.2-1.2c-1.7,6.5-3.2,10.9-5.5,15.9
				c-1.8,3.8-3.7,7.1-5.2,9.1l3.4,2c1.6-2.8,2.6-4.8,3.2-6c3.4-6.9,5.7-13.3,7.6-21.2c1.8-0.2,2.5-0.2,3.6-0.2c4.7,0,6.2,1.7,6.2,7
				c0,5.6-0.8,10.7-2.1,13.9c-0.7,1.6-1.6,2.4-2.9,2.4c-1.8,0-4.6-0.8-7.4-2.3c0.2,0.9,0.2,1.2,0.2,2c0,0.6,0,1-0.1,1.8
				c3.3,1.4,5.4,1.9,7.5,1.9c2.3,0,3.7-0.7,4.9-2.4c2.1-2.9,3.3-9.6,3.3-17.2c0-4.1-0.7-6.4-2.4-8.1c-1.6-1.5-3.7-2.1-7.2-2.1
				c-1.1,0-1.8,0-2.9,0.1c0.4-2.4,0.8-4.2,1.1-5.7c0.4-2.9,0.6-3.7,0.9-4.8l-4-0.4c0,0.3,0,0.6,0,0.6c0,2.1-0.7,6.9-1.5,10.6
				c-4.1,0.6-9.2,1.2-11.1,1.3L1571.8,329.7 M1601.3,323.1c4.8,4.9,8.3,11,10.2,17.9l3.2-1.9c-2.3-7.1-5.3-12.2-10.4-17.7
				L1601.3,323.1"/>
			<path class="st1" d="M1583.4,368.4c0.3,0.8,0.4,1.1,0.9,3.2c1.3,6.4,2.2,9.9,3.6,14c-3.1,1.6-4.6,2.5-6.5,4.1
				c-3,2.4-4.5,5.3-4.5,8.5c0,3.9,2.1,6.7,6.2,8.2c2.4,0.9,6.2,1.3,11.1,1.3c3.5,0,5.9-0.1,11.1-0.6c2.8-0.3,2.8-0.3,3.7-0.3
				l-0.4-4.1c-2.9,1.1-8.5,1.7-14.3,1.7c-9.8,0-13.7-1.8-13.7-6.3c0-4.1,3.7-7.4,12.2-10.8c4.4-1.8,11.5-4.1,15-4.9l-1.5-3.8
				c-1,0.5-1.4,0.7-3.2,1.3c-7.8,2.7-9.2,3.2-12.1,4.4c-1.7-5-3.6-13.2-3.8-16.6L1583.4,368.4"/>
			<path class="st1" d="M1757.1,347.5c0.3-0.6,0.5-0.7,1.3-1.6c0.8-0.9,1.5-1.8,2.1-2.3c1.7-1.9,1.7-1.9,2.4-2.8
				c0.6-0.7,0.7-0.8,0.9-1.2h0.1c-0.2,2.2-0.2,2.2-0.2,8.1c0,6.4,0,6.4-0.3,8.2h3.9c-0.2-1.5-0.2-1.9-0.2-8.3v-10.8
				c5.2-5,6.7-6.3,9.7-8.5c3.2-2.3,5.6-3.4,7.6-3.4c1.7,0,2.8,1.1,2.8,2.7c0,1.4-0.2,2.9-1.2,7.5c-1.8,8.6-1.9,9.1-1.9,11.7
				c0,2.8,0.7,4.5,2.3,5.7c0.9,0.6,2.2,1.1,3.5,1.1c2.7,0,4.9-1.2,6.9-3.6c1.2-1.4,1.7-2.3,3.1-4.9c-0.9-1.1-1.2-1.6-2.3-3.4
				c-0.6,2-1.6,4-2.8,5.8c-1.2,1.7-2.9,2.8-4.2,2.8c-1.9,0-3-1.2-3-3.5c0-2.1,0.3-3.8,2.2-11.9c0.8-3.8,1.2-5.6,1.2-7.3
				c0-3.6-2.2-5.8-5.8-5.8c-3,0-6.8,1.8-11.3,5.5c-3.9,3.1-5.6,4.8-6.3,5.8l-0.1-0.1c0-0.3,0-0.4,0-0.8c0.1-0.2,0.1-0.5,0.1-0.5
				c0-2.3,0-2.3,0.1-3.3c0.1-0.3,0.1-0.7,0.1-1.2c1.3-1.8,1.9-2.6,2.5-3.1l-1.3-1.6c-0.4,0.2-0.6,0.2-1,0.2c0.2-6.1,0.3-7.7,0.6-8.9
				l-4-0.1c0.1,1,0.2,1.4,0.2,2.5c0,0.7,0,2.9-0.2,6.7c-4.2,0.2-6.4,0.4-6.6,0.4c-0.4,0-0.8,0-1.5-0.1l0.2,3.4
				c1.2-0.2,1.2-0.2,7.8-0.7c-0.2,4.4-0.2,7.6-0.3,9.6c-3.8,4.1-7.4,7.6-8.8,8.4L1757.1,347.5"/>
			<path class="st1" d="M1767,371.7c6.7,1.9,12.9,2.9,21,3.3l0.6-3.6c-8.2-0.1-15.4-1.2-20.3-3.1L1767,371.7 M1761.8,387.9
				c3.9-1.6,13.9-3.3,19.1-3.3c2.6,0,4.9,0.4,6.1,1.1c2.1,1.1,3.2,3.1,3.2,5.6c0,2.3-0.8,4.6-2.6,6.8c-1.2,1.6-2.3,2.4-4.3,3.6
				c-4.2,2.4-8.8,3.7-14.1,4c0.8,1.2,0.9,1.7,1.6,3.7c7.5-1.4,10.7-2.4,14.5-4.8c5.6-3.4,8.6-8.2,8.6-13.5c0-3.4-1.4-6.2-4.2-7.9
				c-2-1.3-4.8-1.9-8.6-1.9c-3.9,0-8.6,0.6-15.2,1.8c-3.9,0.8-3.9,0.8-5,0.9L1761.8,387.9"/>
			<path class="st1" d="M1857.7,317.7c0,1.1,0,1.2-0.4,3.4c-0.9,4.9-1.4,10.4-1.4,15.3c0,2.6,0.1,5.1,0.3,8.4
				c0.1,0.8,0.1,1.1,0.1,1.7l3.6-0.3c-0.2-1-0.2-1.5-0.2-2.4c0-3.8,1.6-7.9,4.6-11.8c3.4-4.3,7.7-7,12.8-7.9
				c0.1,3.1,0.1,4.4,0.1,6.1c0,6.4-0.7,11.1-2.1,14c-3.9-1.4-6.2-3.8-8.4-8.4c-0.7,1.3-1.1,1.8-1.9,2.8c1.9,3.9,4.2,6.2,7.8,8
				c0.6,0.3,0.8,0.3,1.1,0.4c-0.1,0.1-0.1,0.2-0.3,0.4c-2,2.8-5,5.2-8.4,6.6c1.4,1.1,1.9,1.4,2.7,2.6c4.4-2.7,6.8-4.8,9.3-8.6
				c1.1,0.1,1.6,0.2,2.4,0.2c8.8,0,15.5-6.1,15.5-14c0-8-5.8-13.3-14.7-13.5c-0.1-1.4-0.2-4.8-0.3-5.5c0-0.3,0-0.6,0-0.8
				c0-0.1,0-0.3,0-0.8l-3.8,0.1c0.4,1.4,0.5,3.1,0.7,7.2c-5.2,0.8-9,2.8-12.9,6.9c-2.2,2.3-3.9,5.1-4.6,7.8
				c-0.2,0.8-0.2,0.8-0.4,1.3h-0.2c0.1-0.6,0.1-0.8,0.2-1.3c0.1-1,0.1-1,0.1-1.5c0.6-7.1,0.8-7.9,1.4-11.1c0.5-2.9,0.8-3.9,1.1-4.9
				L1857.7,317.7 M1880.3,323.9c2.6,0.1,4.1,0.5,5.9,1.4c3.3,1.6,5.2,4.8,5.2,8.6c0,4.5-2.4,8.1-6.7,10c-1.7,0.8-3.3,1.1-5.2,1.1
				c-0.2,0-0.7,0-0.9-0.1c-0.2,0-0.2,0-0.4,0c1.4-2.5,2.2-8.1,2.2-15.4C1880.5,327.3,1880.4,326.1,1880.3,323.9"/>
			<path class="st1" d="M1868.5,367.1c-0.1,2.3-0.9,6.5-1.7,9.4c-0.9,0-2.6,0.1-3.6,0.1c-2.8,0-4.2-0.1-6-0.4l0,3.5
				c0.3,0,0.5,0,0.6,0c0.1,0,0.6,0,1.1,0c0.8,0,2.4,0.1,3.3,0.1c0.8,0,2.5-0.1,3.7-0.1c-1.5,4.8-2.9,8.3-5.2,12.9
				c-1.8,3.6-3.2,5.8-4.8,7.8l3.4,2c0.2-0.4,0.6-1,1-1.7c1.9-3.3,2.4-4.2,3.6-6.6c2.2-4.6,4-9.2,5.6-14.6c3-0.2,6.1-0.6,8.2-1.1
				c1.2-0.2,1.2-0.2,1.8-0.3l-0.2-3.5c-2.3,0.8-5.4,1.4-8.9,1.7c0.7-2.6,1-3.8,1.4-5.4c0.4-2.1,0.4-2.2,0.8-3.2L1868.5,367.1
				 M1897.9,380.9c-4.1-2.6-7.4-4.3-13.2-6.6l-1.8,2.8c5.2,1.9,9.1,3.9,13.2,6.8L1897.9,380.9 M1898,403.1c-0.3-0.2-0.3-0.2-0.9-0.8
				c-2.7-2.4-5.8-4.3-9.8-6.1c-0.3-1.9-0.6-5.3-0.6-7.6c0-1.8,0.2-2.8,0.7-4.7l-3.4-0.3c-0.4,1.8-0.5,3-0.5,4.8
				c0,1.2,0.1,3.6,0.4,6.9c-1.9-0.6-3.2-0.8-5.1-0.8c-2.2,0-4.1,0.3-5.9,1.1c-2.8,1.2-4.7,3.7-4.7,6.4c0,4.4,3.8,7.2,9.8,7.2
				c6.1,0,9.5-2.9,9.5-8c0-0.5,0-0.8-0.1-1.6c3.6,1.9,6.8,4.4,8.8,6.8L1898,403.1 M1884.1,398.5c0,0,0.1,1.6,0.1,2.1
				c0,3.8-1.9,5.5-6.2,5.5c-3.9,0-6.3-1.6-6.3-4.1c0-2.8,2.7-4.5,6.9-4.5C1880.6,397.5,1882,397.8,1884.1,398.5"/>
			<path class="st1" d="M2227.5,313.4c-1.8,2.8-8,8.6-14.6,13.7c-3.7,2.8-3.7,2.8-4.2,3.4c-0.9,1-1.4,2.1-1.4,3.3
				c0,1.7,0.8,2.8,3.6,5c7.3,5.7,9.3,7.4,12.7,10.5c3.3,3,5.2,5.1,6.4,6.8l3.1-3.1c-0.6-0.5-0.6-0.5-1.4-1.2c-7.4-7-8.8-8.1-16-13.7
				c-4.1-3.1-4.4-3.5-4.4-4.4c0-0.7,0.3-1.1,2.2-2.5c6.3-4.9,9-7.1,11.5-9.4c5.2-5,5.6-5.4,6.1-5.8L2227.5,313.4"/>
			<path class="st1" d="M2208.2,367.2c0,0.6-0.1,0.9-0.2,1.6c-1.2,8.9-1.7,13.6-1.7,18.4c0,0.2,0,0.7,0,1.2l0.1,5.2l0,0.9
				c0,0.1,0,0.3,0,0.6l3.6-0.1c-0.1-0.8-0.1-1-0.1-1.2c0-3.6,0.9-7.5,2.7-11.1c2.9-5.9,6.1-8.7,9.9-8.7c4.8,0,7.6,4.6,7.6,12.7
				c0,8-2.8,13.2-8.6,16.6c-2.9,1.6-5.5,2.4-10.1,3.1c1.1,1.4,1.4,1.9,2,3.4c3.5-0.8,6.5-1.8,8.9-2.9c7.5-3.8,11.6-10.6,11.6-19.6
				c0-5.4-0.9-9.1-3-12.2c-1.9-2.9-4.8-4.4-8-4.4c-3.9,0-7.2,2.2-10,6.4c-1.4,2.2-2.4,4.7-3.1,7.5c-0.2,1-0.2,1-0.4,1.4l-0.2-0.1
				c0.2-2.6,0.9-8,1.7-13.1c0.4-2.7,0.8-4.1,1.1-5.1L2208.2,367.2"/>
			<line class="st4" x1="2042.2" y1="395.1" x2="2062.1" y2="395.1"/>
			<line class="st4" x1="1082.1" y1="341.2" x2="1101.9" y2="341.2"/>
			<line class="st4" x1="2041.1" y1="341.2" x2="2061" y2="341.2"/>
			<line class="st4" x1="1089.5" y1="395.1" x2="1109.3" y2="395.1"/>
			<path class="st1" d="M332.9,678.3c0,2.7,2.2,5,5,5s5-2.2,5-5s-2.2-5-5-5S332.9,675.6,332.9,678.3"/>
			<path class="st1" d="M977.6,752.7c0,2.7,2.2,5,5,5s5-2.2,5-5s-2.2-5-5-5S977.6,750,977.6,752.7"/>
			<path class="st1" d="M1621.4,727.9c0,2.7,2.2,5,5,5c2.7,0,5-2.2,5-5s-2.2-5-5-5C1623.6,722.9,1621.4,725.2,1621.4,727.9"/>
			<path class="st1" d="M2248.6,703.1c0,2.7,2.2,5,5,5s5-2.2,5-5s-2.2-5-5-5S2248.6,700.4,2248.6,703.1"/>
			<path class="st1" d="M332.9,560.3c0,2.7,2.2,5,5,5s5-2.2,5-5s-2.2-5-5-5S332.9,557.5,332.9,560.3"/>
			<path class="st1" d="M977.6,560.3c0,2.7,2.2,5,5,5s5-2.2,5-5s-2.2-5-5-5S977.6,557.5,977.6,560.3"/>
			<path class="st1" d="M1621.4,609.9c0,2.7,2.2,5,5,5c2.7,0,5-2.2,5-5s-2.2-5-5-5C1623.6,604.9,1621.4,607.1,1621.4,609.9"/>
			<path class="st1" d="M2248.6,585.1c0,2.7,2.2,5,5,5s5-2.2,5-5s-2.2-5-5-5S2248.6,582.3,2248.6,585.1"/>
			<path class="st1" d="M332.9,201c0,2.7,2.2,5,5,5s5-2.2,5-5s-2.2-5-5-5S332.9,198.3,332.9,201"/>
			<path class="st1" d="M977.6,225.8c0,2.7,2.2,5,5,5s5-2.2,5-5s-2.2-5-5-5S977.6,223.1,977.6,225.8"/>
			<path class="st1" d="M1621.4,250.7c0,2.7,2.2,5,5,5c2.7,0,5-2.2,5-5s-2.2-5-5-5C1623.6,245.7,1621.4,247.9,1621.4,250.7"/>
			<path class="st1" d="M2248.6,250.7c0,2.7,2.2,5,5,5s5-2.2,5-5s-2.2-5-5-5S2248.6,247.9,2248.6,250.7"/>
			<line class="st5" x1="77.7" y1="146" x2="77.7" y2="807.8"/>
			<path class="st1" d="M120.3,124c-0.2-0.1-0.5-0.2-0.7-0.2c-0.4,0-0.9,0.1-1.1,0.5c-0.2,0.3-10.1,15.6-29.1,15.6H73.7
				c-0.8,0-1.4,0.5-1.4,1.3v8.9v1.4h12.1c30.6,0,36.4-25.5,36.5-25.8c0-0.1,0.1-0.3,0.1-0.5C121,124.7,120.7,124.3,120.3,124"/>
			<path class="st1" d="M120.3,829.8c0.4-0.3,0.7-0.7,0.7-1.2c0-0.2-0.1-0.4-0.1-0.5c-0.1-0.3-6-25.8-36.5-25.8H72.3v1.4v8.9
				c0,0.8,0.6,1.3,1.4,1.3h15.8c18.9,0,28.9,15.3,29.1,15.6c0.2,0.4,0.7,0.5,1.1,0.5C119.8,830,120.1,829.9,120.3,829.8"/>
		</g>
	</g>
</g>
<g id="レイヤー_2">
</g>
</svg>
