<?xml version="1.0" encoding="utf-8"?>
<!-- Generator: Adobe Illustrator 26.5.0, SVG Export Plug-In . SVG Version: 6.00 Build 0)  -->
<svg version="1.1" id="レイヤー_1" xmlns="http://www.w3.org/2000/svg" xmlns:xlink="http://www.w3.org/1999/xlink" x="0px"
	 y="0px" viewBox="0 0 266.828 44.596" style="enable-background:new 0 0 266.828 44.596;" xml:space="preserve">
<style type="text/css">
	.st0{fill:#2990D0;}
	.st1{fill:#FFFFFF;}
</style>
<g>
	<path class="st1" d="M169.494,44.212l0.096,0.384c8.4-2.112,14.306-6.913,16.514-15.073c0.571-2.107,0.982-4.268,1.215-6.462
		h-2.805C183.777,31.228,180.699,39.027,169.494,44.212z"/>
	<path class="st1" d="M183.079,7.393c0.72-0.144,1.92-0.432,1.92-1.056c0-0.24-0.191-0.384-0.672-0.672l-3.648-2.4
		c-0.048,1.44-0.24,2.688-2.016,5.953c-2.929,5.329-7.489,11.425-10.273,14.545l0.192,0.336
		C174.103,20.546,179.527,14.209,183.079,7.393z"/>
	<path class="st1" d="M200.408,18.578c-0.239-0.24-0.384-0.384-0.624-0.384c-0.239,0-0.384,0.144-0.72,0.432l-1.105,1.008h-13.44
		c-0.912,0-4.369-0.048-7.969-0.336l1.104,2.064c1.824-0.336,4.513-0.576,6.192-0.576h0.816c0,0.002,0,0.004,0,0.007l0.001-0.007
		h2.832c0,0,0,0,0,0h10.753c0.097,0.816,0.097,0.912,0.097,1.68c0,3.504-0.433,12.817-1.633,15.985
		c-0.576,1.584-2.496,1.584-3.312,1.584c-0.337,0-0.912,0-1.585-0.096c-2.784-0.288-3.12-0.336-3.84-0.432v0.432
		c1.968,0.672,3.504,2.016,3.648,4.272c7.488-0.528,8.209-5.088,8.833-10.705c0.144-1.536,0.432-9.217,0.527-10.945
		c0.576-0.432,1.009-0.768,1.057-0.816c0.336-0.24,0.479-0.384,0.479-0.672c0-0.24-0.24-0.528-0.384-0.672L200.408,18.578z"/>
	<path class="st1" d="M196.328,5.568c1.872-0.192,3.217-0.384,3.217-1.296c0-0.336-0.192-0.528-0.385-0.72l-1.68-1.584
		c-0.145-0.192-0.48-0.48-0.816-0.48c-0.191,0-0.384,0-0.864,0.528l-1.104,1.2h-4.561c-0.72,0-2.544-0.096-3.408-0.144l0.479,1.584
		c0.769-0.192,1.873-0.288,2.641-0.288h5.137c0.137,0.404,0.284,0.803,0.432,1.2L196.328,5.568L196.328,5.568z"/>
	<path class="st1" d="M197.428,7.89h-1.056c2.837,6.335,7.225,11.507,13.205,14.192c1.009-1.152,2.112-2.497,4.561-3.072v-0.384
		C209.064,18.454,201.076,14.307,197.428,7.89z"/>
	<path class="st1" d="M266.348,30.579l-1.775-1.488c-0.097-0.048-0.576-0.48-0.864-0.48c-0.145,0-0.48,0.336-0.769,0.576
		l-1.584,1.488h-4.032c0-1.776-0.048-5.185-0.048-6.769h7.2c0.336,0,0.769-0.096,0.769-0.528c0-0.24-0.145-0.432-0.48-0.72
		l-1.44-1.248c-0.048-0.048-0.575-0.48-0.863-0.48s-0.48,0.24-0.769,0.576l-0.96,1.248h-3.456c0.048-2.832,0.048-3.168,0.048-4.032
		c1.008-0.384,1.536-0.576,1.536-1.056c0-0.576-0.528-0.72-0.768-0.768l-3.648-0.816c0.432,1.392,0.432,1.92,0.479,6.672h-2.011
		l-0.715,1.152h2.725c0,0.96,0.049,5.712,0.049,6.769h-2.209c-2.544,0-5.136-0.048-7.681-0.336l0.864,2.064
		c1.776-0.384,4.465-0.576,6.145-0.576h2.832c-0.048,3.36-0.048,4.417-0.048,4.608c-0.048,1.008-0.24,5.761-0.24,6.865
		c0,0.336,0,1.056,1.104,1.056c1.056,0,1.92-0.816,1.92-1.776c0-0.24-0.048-1.2-0.048-1.44c-0.192-3.312-0.24-6.673-0.288-9.313
		h8.785c0.287,0,0.72-0.048,0.72-0.48C266.828,31.059,266.636,30.819,266.348,30.579z"/>
	<path class="st1" d="M251.611,20.738c0.527-0.144,1.344-0.384,1.344-0.96c0-0.24-0.096-0.384-0.816-0.672l-3.168-1.296
		c0.048,0.576,0.096,0.96-0.144,2.112c-0.192,0.864-1.824,6.625-3.745,9.361l0.336,0.24c1.921-2.016,2.833-3.36,4.369-5.616
		l0.72-1.152C250.938,22.034,251.131,21.65,251.611,20.738z"/>
	<path class="st1" d="M264.14,4.128l-1.728-1.536c-0.192-0.144-0.288-0.24-0.433-0.24c-0.144,0-0.239,0-0.624,0.336l-1.104,0.864
		l0.191,1.152c-0.048,2.784-0.479,4.608-0.624,5.28c-0.479,2.016-1.008,2.16-1.824,2.16c-0.96,0-3.168-0.384-3.552-0.432v0.384
		c0.624,0.336,1.296,0.768,2.064,1.488c0.575,0.48,0.768,0.864,1.008,1.776c3.216-0.576,4.032-1.536,4.656-4.8
		c0.144-0.72,0.527-3.889,0.624-4.561c1.2-0.384,1.728-0.576,1.728-1.152C264.523,4.705,264.428,4.417,264.14,4.128z"/>
	<path class="st1" d="M244.746,17.569l0.192,0.336c5.04-2.97,7.76-6.109,8.515-11.987l-2.757-0.402
		C249.808,12.646,247.013,15.627,244.746,17.569z"/>
	<path class="st1" d="M252.091,3.552c-2.496,0-5.473-0.144-7.969-0.336l1.104,2.064c2.016-0.384,4.704-0.528,5.568-0.576h2.784h4.95
		V3.552H252.091z"/>
	<path class="st1" d="M73.018,33.891c0.96,0,1.44-0.864,1.44-1.68c0-2.016-2.353-3.457-5.089-4.993l-0.096,0.192
		c1.056,1.44,1.729,3.504,1.824,3.84C71.722,33.315,71.914,33.891,73.018,33.891z"/>
	<path class="st1" d="M61.4,12.433c1.104,2.16,1.536,2.832,2.448,2.832s1.488-1.008,1.488-1.968c0-1.344-1.008-2.112-2.016-2.88
		c1.392-1.776,2.16-2.833,4.464-6.097c1.632-0.432,1.969-0.624,1.969-1.104c0-0.336-0.192-0.528-0.48-0.672l-4.08-2.064
		c0.048,0.336,0.144,0.864,0.144,1.2c0,2.208-2.112,7.296-2.544,8.401c-2.4-1.44-3.792-1.632-4.465-1.729l-0.096,0.192
		C60.009,9.841,60.488,10.705,61.4,12.433z"/>
	<path class="st1" d="M63.465,27.41l-3.84-1.488c0.096,0.432,0.191,1.104,0.191,1.536c0,2.592-1.872,10.033-3.696,14.353
		l0.384,0.144c2.641-3.36,3.745-5.76,6.097-12.673c0.816-0.384,1.393-0.624,1.393-1.248C63.993,27.747,63.801,27.554,63.465,27.41z"
		/>
	<path class="st1" d="M67.594,22.13l4.08-0.96c0.624,2.016,0.912,2.976,2.112,2.976c0.815,0,1.439-0.912,1.439-1.92
		c0-2.736-4.272-4.993-5.328-5.569l-0.192,0.24c0.385,0.528,1.009,1.44,1.776,3.696c-1.2,0.096-5.952,0.432-6.624,0.48
		c0.336-0.384,6-7.008,8.544-10.849c1.488-0.192,1.969-0.336,1.969-0.864c0-0.24-0.048-0.48-0.433-0.72l-3.696-2.256
		c0.48,1.872-4.224,10.465-7.2,14.737c-2.544,0.096-5.377,0.192-7.537-0.576l0.816,3.696c0.096,0.432,0.48,0.576,0.672,0.576
		c0.433,0,0.624-0.24,1.057-1.008c1.488-0.144,3.36-0.48,6.288-1.152c-0.048,1.393-0.191,8.065-0.191,9.601s-0.24,8.977-0.24,10.705
		c0,0.336,0,1.104,1.056,1.104c0.769,0,1.872-0.48,1.872-2.304c0-0.48-0.239-9.601-0.288-11.329
		C67.545,29.139,67.497,26.882,67.594,22.13z"/>
	<path class="st1" d="M76.906,26.258c-0.721,0-2.544-0.096-3.408-0.192l0.479,1.584c0.769-0.144,1.872-0.24,2.641-0.24h0.872
		l0.326-1.152H76.906z"/>
	<path class="st1" d="M83.003,27.218l-2.16-1.824c-0.145-0.096-0.336-0.288-0.576-0.288c-0.192,0-0.384,0.144-0.528,0.384
		l-0.528,0.768l0.019,0.552l0.029,0.6c-1.199,4.705-4.416,10.465-8.305,13.585l0.049,0.336c4.128-1.92,7.2-5.185,10.704-12.433
		c0.673-0.048,1.633-0.192,1.633-1.056C83.339,27.603,83.242,27.41,83.003,27.218z"/>
	<path class="st1" d="M117.992,23.81h8.065c0.432,0,0.72-0.144,0.72-0.528c0-0.336-0.24-0.528-0.479-0.72l-1.297-1.056
		c-0.191-0.144-0.672-0.48-0.912-0.48c-0.336,0-0.672,0.528-0.815,0.672l-0.673,0.96h-4.32c-0.72,0-2.544-0.144-3.408-0.192
		l0.48,1.584C116.12,23.858,117.225,23.81,117.992,23.81z"/>
	<path class="st1" d="M124.569,14.449c-0.288,0-0.576,0.384-0.816,0.672l-0.96,1.2h-4.272c-0.72,0-2.544-0.096-3.408-0.192
		l0.48,1.584c0.768-0.144,1.872-0.24,2.64-0.24h8.257c0.433,0,0.72-0.144,0.72-0.528c0-0.288-0.144-0.432-0.479-0.768l-1.2-1.152
		C125.289,14.785,124.857,14.449,124.569,14.449z"/>
	<path class="st1" d="M138.25,6.96c1.345,0,1.536-1.248,1.536-1.584c0-0.624-0.527-1.68-1.536-2.64
		c-0.815-0.768-1.92-1.344-3.6-2.16l-0.288,0.24c1.728,2.064,2.112,3.408,2.208,3.984C136.811,6,137.002,6.96,138.25,6.96z"/>
	<path class="st1" d="M122.889,4.944h4.417c0.336,0,0.768-0.048,0.768-0.528c0-0.24-0.191-0.432-0.527-0.768l-1.2-1.104
		c-0.145-0.144-0.624-0.48-0.864-0.48c-0.192,0-0.288,0-0.769,0.576l-1.008,1.152c-1.296,0-4.704-0.096-8.112-0.384l1.151,2.064
		C118.521,5.136,121.209,4.944,122.889,4.944z"/>
	<path class="st1" d="M128.89,11.185c0.336,0,0.72-0.048,0.72-0.528c0-0.336-0.432-0.72-0.527-0.768l-1.393-1.296
		c-0.24-0.192-0.624-0.528-0.864-0.528c-0.336,0-0.624,0.432-0.815,0.672l-0.912,1.296h-3.841c-0.912,0-4.368-0.048-7.969-0.336
		l1.104,2.064c1.824-0.384,4.512-0.576,6.192-0.576H128.89z"/>
	<path class="st1" d="M134.314,19.874c1.392,0,1.439-1.44,1.439-1.68c0-0.192-0.144-3.936-4.416-6.432l-0.336,0.336
		c1.008,1.296,1.296,2.064,1.776,5.088C133.066,19.105,133.162,19.874,134.314,19.874z"/>
	<path class="st1" d="M148.859,20.21c1.392-1.392,3.216-3.792,4.32-5.521c1.296-0.288,1.729-0.432,1.729-1.008
		c0-0.336-0.24-0.528-0.528-0.672l-3.648-1.584c0.048,0.432,0.096,0.624,0.096,0.864c0,1.488-1.632,6-2.399,7.681L148.859,20.21z"/>
	<path class="st1" d="M128.17,29.187l-1.729-1.344c-0.096-0.048-0.48-0.288-0.576-0.288c-0.144,0-0.528,0.48-0.672,0.72l-0.72,0.912
		h-6.097l-3.169-1.296c0.385,1.68,0.385,4.368,0.385,7.2c0,1.2-0.288,7.249-0.288,8.593c0,0.336,0,0.816,0.912,0.816
		c0.96,0,1.632-0.576,1.824-1.248c0.048-0.288,0.048-1.92,0.048-2.88v-1.152v-8.881h1.391h5.425v8.881h-4.724v1.152h4.724v1.008
		c0,0.432,0,1.008,0.672,1.008c0.864,0,2.064-0.912,2.064-2.112c0-1.296-0.433-7.632-0.384-9.073
		c0.815-0.432,1.439-0.816,1.439-1.392C128.697,29.619,128.649,29.571,128.17,29.187z"/>
	<path class="st1" d="M152.699,28.035c0-0.288-0.287-0.528-0.527-0.72l-1.633-1.2c-0.527-0.384-0.624-0.432-0.72-0.432
		c-0.192,0-0.288,0.048-0.672,0.72l-0.672,1.104h-10.753l-3.072-1.488c0.432,2.208,0.479,3.072,0.479,6.049
		c0,3.024-0.048,6.721-0.144,9.121c0,0.288-0.097,1.584-0.097,1.872c0,1.104,0.48,1.248,1.057,1.248c1.824,0,1.68-1.632,1.584-2.4
		h9.788v-1.152h-9.836v-5.856h7.157v-1.152h-7.157v-5.088h11.329v3.062v2.026v1.152v5.856v1.152v0.036v1.115
		c0,0.384,0,0.912,0.768,0.912c0.576,0,1.152-0.384,1.297-0.48c0.815-0.528,0.863-0.912,0.863-1.728c0-0.336-0.096-1.824-0.144-2.16
		c-0.096-2.88-0.288-7.489-0.288-10.225C151.884,29.042,152.699,28.466,152.699,28.035z"/>
	<path class="st1" d="M156.828,22.274l-1.92-1.68c-0.192-0.144-0.673-0.48-0.912-0.48c-0.336,0-0.528,0.288-0.769,0.672
		l-1.056,1.584h-5.377V10.243h-2.4V22.37h-3.552V8.977h2.386h1.165h2.4h1.375h7.074c0.191,0,0.72,0,0.72-0.48
		c0-0.288-0.288-0.624-0.479-0.768l-1.585-1.44c-0.191-0.192-0.576-0.576-0.912-0.576c-0.288,0-0.479,0.288-0.768,0.72l-0.912,1.392
		h-5.904c0.576-0.528,2.256-2.208,3.36-3.744c1.584-0.192,2.016-0.336,2.016-0.816c0-0.336-0.288-0.432-0.576-0.576l-4.128-1.872
		c0.144,0.48,0.192,0.624,0.192,0.864c0,0.576-0.625,3.937-1.44,6.145h-6.961c-2.496,0-5.521-0.144-8.017-0.336l1.152,2.064
		c2.304-0.432,5.185-0.576,6.192-0.576h1.152V22.37h-1.969c-2.496,0-5.472-0.192-7.969-0.384l1.104,2.064
		c2.304-0.432,5.232-0.528,6.192-0.528h20.834c0.24,0,0.768,0,0.768-0.528C157.308,22.658,157.068,22.466,156.828,22.274z"/>
	<path class="st1" d="M21.65,7.296h18.77c0.192,0,0.72,0,0.72-0.528c0-0.336-0.288-0.528-0.48-0.72l-2.448-2.064
		c-0.576-0.48-0.672-0.528-0.864-0.528s-0.384,0.096-0.816,0.576l-2.016,2.112H10.369C7.873,6.145,4.849,6,2.4,5.76l1.104,2.112
		c2.304-0.48,5.232-0.576,6.192-0.576h9.169l-2.595,11.059h2.784L21.65,7.296z"/>
	<path class="st1" d="M42.964,39.027l-2.304-2.016c-0.576-0.48-0.72-0.528-0.864-0.528c-0.24,0-0.384,0.096-0.816,0.625
		l-1.776,2.016h-2.83h-2.306h-2.64h-1.438H14.113l4.368-18.53h10.945v16.52h2.64V21.746c1.728-1.056,1.824-1.104,1.824-1.488
		c0-0.24-0.144-0.336-0.672-0.816l-1.488-1.344c-0.384-0.384-0.528-0.432-0.768-0.432c-0.144,0-0.288,0-0.912,0.528l-1.488,1.249
		h-5.916H18.77h-2.784h-0.922h-2.534c-2.497,0-5.521-0.144-8.017-0.384l1.152,2.112c2.304-0.48,5.185-0.576,6.192-0.576h3.889
		l-4.369,18.53H7.969c-2.496,0-5.473-0.144-7.969-0.384l1.104,2.064c2.304-0.432,5.232-0.528,6.193-0.528h35.427
		c0.192,0,0.72,0,0.72-0.528C43.444,39.459,43.204,39.268,42.964,39.027z"/>
	<path class="st1" d="M80.122,19.349v-2.696v-2.3v-1.152v-1.82V7.249h9.923V6.097h-4.93c0.336-0.432,1.92-2.64,2.256-3.121
		c1.056-0.096,1.92-0.192,1.92-1.008c0-0.336-0.191-0.624-0.624-0.768L84.442,0c0.192,0.576,0.288,1.44,0.288,2.16
		c0,0.864-0.144,2.592-0.479,3.937h-3.793l-3.312-1.729c0.144,0.816,0.191,1.968,0.191,2.688c0,1.104,0.097,6.48,0.097,7.729
		c0,1.008-0.145,6-0.145,7.105c0,0.432,0.048,0.96,1.2,0.96c1.68,0,1.632-1.008,1.632-1.536v-1.152V19.349z"/>
	<path class="st1" d="M92.939,34.131c-1.536-1.44-2.353-2.736-2.736-3.408c1.824-0.912,3.696-1.872,5.521-2.88
		c1.104,0.096,1.872,0.048,1.872-0.576c0-0.384-0.096-0.624-0.479-0.864l-3.024-2.064c-0.721,2.4-3.312,5.329-4.129,6
		c-1.968-3.36-2.688-6.625-2.688-6.96c0.527-0.288,1.104-0.72,1.104-1.2c0-0.24-0.336-0.528-0.864-0.672l-0.815-0.192h6.624
		c-0.191,1.008,0.048,1.44,0.912,1.44c1.009,0,1.872-0.528,1.872-1.968c0-0.624-0.191-5.28-0.239-6.289
		c0-0.144-0.097-5.76-0.097-6.24c1.057-0.576,1.681-0.912,1.681-1.488c0-0.336-0.192-0.624-0.48-0.816l-1.968-1.44
		c-0.192-0.144-0.433-0.288-0.721-0.288s-0.624,0.24-0.815,0.432l-1.345,1.44L92.12,7.249h1.251v5.953h-9.202v1.152h9.202v5.809
		H81.569v1.152h3.401c0.048,0.384,0.048,0.576,0.048,2.304v15.361c0,1.008-0.576,1.008-2.063,1.008
		c-0.433,0-3.553-0.096-4.465-0.144l-0.096,0.192c3.888,1.632,4.32,2.688,4.896,3.984c1.392-0.24,2.304-0.864,2.928-1.393
		c0.528-0.384,1.393-1.152,1.393-3.168c0-0.144-0.192-8.161-0.24-9.697c0-0.816-0.048-1.728-0.048-2.544
		c1.968,6.289,5.232,10.417,10.272,14.498c0.528-0.912,1.248-2.112,4.608-2.592v-0.192C98.412,37.971,95.58,36.627,92.939,34.131z"
		/>
	<path class="st1" d="M244.986,13.537c0-0.24-0.096-0.336-0.432-0.624l-1.681-1.392c-0.144-0.096-0.384-0.24-0.576-0.24
		c-0.144,0-0.24,0-0.72,0.48l-0.912,0.864h-3.19h-2.523h-0.72h-0.48h-3.073l-0.983-0.573l-1.974,2.808
		c0.028,2.307,0.077,5.274,0.077,6.31c0,13.441-1.536,17.905-4.849,22.226l0.336,0.24c4.177-3.552,5.953-7.249,6.721-13.873h9.438
		V28.61h-2.621v-6.913h4.417v5.641v1.271v1.152v0.288l-0.096,7.008c-0.049,2.4,0,2.977-2.064,2.977
		c-0.576,0-2.496-0.096-4.608-0.336v0.384c3.264,1.344,4.225,2.304,4.656,3.84c4.561-1.2,4.561-3.552,4.561-5.568
		c0-1.776-0.145-9.505-0.145-11.089c-0.048-7.249,0-10.128,0.048-12.385C244.17,14.545,244.986,14.017,244.986,13.537z
		 M241.242,20.546h-4.417v-5.185h-2.111v5.185h-3.075v1.152h3.075v6.913h-4.561c0.144-1.632,0.144-2.976,0.144-4.608v-1.496v-0.809
		v-1.152v-0.634v-6.134h3.264h1.153h2.111h0.956h3.461V20.546z"/>
	<path class="st1" d="M231.065,6.433h5.76c-0.259,1.256-0.601,2.051-2.074,5.117h1.197c1.323-1.471,3.36-3.806,3.901-4.349
		c1.488-0.288,1.824-0.624,1.824-1.056c0-0.336-0.384-0.72-0.624-0.864l-1.536-1.152c-0.384-0.288-0.528-0.288-0.672-0.288
		s-0.192,0-0.816,0.48l-1.248,0.96h-5.136c0.432-0.864,0.432-0.864,0.815-1.68c1.104-0.192,1.488-0.24,1.488-0.912
		c0-0.288-0.24-0.48-0.624-0.672l-3.456-1.68c0.096,1.056,0.096,1.68-0.288,2.88c-2.017,6.048-5.137,12.241-7.057,15.025
		l0.384,0.288c0.871-0.959,1.984-2.161,4.12-5.21c0.584-0.833,1.006-1.477,1.38-2.085C229.354,9.665,230.257,8.049,231.065,6.433z"
		/>
</g>
</svg>
