<?xml version="1.0" encoding="UTF-8"?><svg id="_レイヤー_2" xmlns="http://www.w3.org/2000/svg" viewBox="0 0 100.08 44.26"><defs><style>.cls-1{fill:#fff;}</style></defs><g id="_レイヤー_1-2"><g><path class="cls-1" d="M1.1,43.88l.1,.38c8.4-2.11,14.31-6.91,16.51-15.07,.57-2.11,.98-4.27,1.21-6.46h-2.81c-.74,8.17-3.81,15.97-15.02,21.15Z"/><path class="cls-1" d="M14.69,7.06c.72-.14,1.92-.43,1.92-1.06,0-.24-.19-.38-.67-.67l-3.65-2.4c-.05,1.44-.24,2.69-2.02,5.95C7.34,14.21,2.78,20.31,0,23.43l.19,.34c5.52-3.55,10.94-9.89,14.5-16.71Z"/><path class="cls-1" d="M32.02,18.24c-.24-.24-.38-.38-.62-.38s-.38,.14-.72,.43l-1.1,1.01h-13.44c-.91,0-4.37-.05-7.97-.34l1.1,2.06c1.82-.34,4.51-.58,6.19-.58h.82s0,0,0,0h0s2.83,0,2.83,0h0s10.75,0,10.75,0c.1,.82,.1,.91,.1,1.68,0,3.5-.43,12.82-1.63,15.99-.58,1.58-2.5,1.58-3.31,1.58-.34,0-.91,0-1.58-.1-2.78-.29-3.12-.34-3.84-.43v.43c1.97,.67,3.5,2.02,3.65,4.27,7.49-.53,8.21-5.09,8.83-10.71,.14-1.54,.43-9.22,.53-10.94,.58-.43,1.01-.77,1.06-.82,.34-.24,.48-.38,.48-.67,0-.24-.24-.53-.38-.67l-1.73-1.82Z"/><path class="cls-1" d="M27.94,5.23c1.87-.19,3.22-.38,3.22-1.3,0-.34-.19-.53-.38-.72l-1.68-1.58c-.14-.19-.48-.48-.82-.48-.19,0-.38,0-.86,.53l-1.1,1.2h-4.56c-.72,0-2.54-.1-3.41-.14l.48,1.58c.77-.19,1.87-.29,2.64-.29h5.14c.14,.4,.28,.8,.43,1.2h.91Z"/><path class="cls-1" d="M29.04,7.55h-1.06c2.84,6.33,7.23,11.51,13.21,14.19,1.01-1.15,2.11-2.5,4.56-3.07v-.38c-5.07-.17-13.06-4.32-16.71-10.74Z"/><path class="cls-1" d="M99.6,30.24l-1.78-1.49c-.1-.05-.58-.48-.86-.48-.14,0-.48,.34-.77,.58l-1.58,1.49h-4.03c0-1.78-.05-5.18-.05-6.77h7.2c.34,0,.77-.1,.77-.53,0-.24-.14-.43-.48-.72l-1.44-1.25s-.58-.48-.86-.48-.48,.24-.77,.58l-.96,1.25h-3.46c.05-2.83,.05-3.17,.05-4.03,1.01-.38,1.54-.58,1.54-1.06,0-.58-.53-.72-.77-.77l-3.65-.82c.43,1.39,.43,1.92,.48,6.67h-2.01l-.71,1.15h2.73c0,.96,.05,5.71,.05,6.77h-2.21c-2.54,0-5.14-.05-7.68-.34l.86,2.06c1.78-.38,4.46-.58,6.14-.58h2.83c-.05,3.36-.05,4.42-.05,4.61-.05,1.01-.24,5.76-.24,6.86,0,.34,0,1.06,1.1,1.06s1.92-.82,1.92-1.78c0-.24-.05-1.2-.05-1.44-.19-3.31-.24-6.67-.29-9.31h8.79c.29,0,.72-.05,.72-.48,0-.29-.19-.53-.48-.77Z"/><path class="cls-1" d="M84.87,20.4c.53-.14,1.34-.38,1.34-.96,0-.24-.1-.38-.82-.67l-3.17-1.3c.05,.58,.1,.96-.14,2.11-.19,.86-1.82,6.62-3.75,9.36l.34,.24c1.92-2.02,2.83-3.36,4.37-5.62l.72-1.15c.43-.72,.62-1.1,1.1-2.02Z"/><path class="cls-1" d="M97.4,3.79l-1.73-1.54c-.19-.14-.29-.24-.43-.24s-.24,0-.62,.34l-1.1,.86,.19,1.15c-.05,2.78-.48,4.61-.62,5.28-.48,2.02-1.01,2.16-1.82,2.16-.96,0-3.17-.38-3.55-.43v.38c.62,.34,1.3,.77,2.06,1.49,.58,.48,.77,.86,1.01,1.78,3.22-.58,4.03-1.54,4.66-4.8,.14-.72,.53-3.89,.62-4.56,1.2-.38,1.73-.58,1.73-1.15,0-.14-.1-.43-.38-.72Z"/><path class="cls-1" d="M78,17.23l.19,.34c5.04-2.97,7.76-6.11,8.52-11.99l-2.76-.4c-.89,7.13-3.68,10.11-5.95,12.05Z"/><path class="cls-1" d="M85.35,3.22c-2.5,0-5.47-.14-7.97-.34l1.1,2.06c2.02-.38,4.7-.53,5.57-.58h7.73v-1.15h-6.44Z"/><path class="cls-1" d="M78.24,13.2c0-.24-.1-.34-.43-.62l-1.68-1.39c-.14-.1-.38-.24-.58-.24-.14,0-.24,0-.72,.48l-.91,.86h-9.99l-.98-.57-1.97,2.81c.03,2.31,.08,5.27,.08,6.31,0,13.44-1.54,17.91-4.85,22.23l.34,.24c4.18-3.55,5.95-7.25,6.72-13.87h9.44v-1.15h-2.62v-6.91h4.42v8.35l-.1,7.01c-.05,2.4,0,2.98-2.06,2.98-.58,0-2.5-.1-4.61-.34v.38c3.26,1.34,4.22,2.3,4.66,3.84,4.56-1.2,4.56-3.55,4.56-5.57,0-1.78-.14-9.5-.14-11.09-.05-7.25,0-10.13,.05-12.38,.58-.34,1.39-.86,1.39-1.34Zm-3.74,7.01h-4.42v-5.18h-2.11v5.18h-3.07v1.15h3.07v6.91h-4.56c.14-1.63,.14-2.98,.14-4.61V13.44h10.95v6.77Z"/><path class="cls-1" d="M64.32,6.1h5.76c-.26,1.26-.6,2.05-2.07,5.12h1.2c1.32-1.47,3.36-3.81,3.9-4.35,1.49-.29,1.82-.62,1.82-1.06,0-.34-.38-.72-.62-.86l-1.54-1.15c-.38-.29-.53-.29-.67-.29s-.19,0-.82,.48l-1.25,.96h-5.14q.43-.86,.82-1.68c1.1-.19,1.49-.24,1.49-.91,0-.29-.24-.48-.62-.67l-3.46-1.68c.1,1.06,.1,1.68-.29,2.88-2.02,6.05-5.14,12.24-7.06,15.03l.38,.29c.87-.96,1.98-2.16,4.12-5.21,.58-.83,1.01-1.48,1.38-2.08,.95-1.57,1.85-3.19,2.66-4.8Z"/></g></g></svg>