<?xml version="1.0" encoding="UTF-8"?><svg id="_レイヤー_1" xmlns="http://www.w3.org/2000/svg" viewBox="0 0 32 32"><defs><style>.cls-1{fill:#fff;}.cls-2{fill:#666;}.cls-3{fill:none;stroke:#231815;stroke-miterlimit:10;stroke-width:.06px;}</style></defs><rect class="cls-2" x="0" y="-.14" width="32" height="32"/><path class="cls-1" d="M23.69,21.37c-.21-.09-.47-.02-.69,.01-.25,.04-.47,.05-.71-.05-.2-.08-1.11-.8-1.8-1.34-.11-.31-.22-.61-.33-.88,.37-.2,.71-.44,1-.74,1.22-1.26,1.58-3.23,1.13-4.89-.56-2.04-2.2-3.01-4.06-3.41,.27-.79,1.74-5.1,2.16-6.71,.25-.94,.51-3.49-1.02-3.47-.84,.01-1.18,1.04-1.37,1.7-.49,1.77-1.05,7.08-1.15,8.28-.73-.06-1.46-.06-2.14-.02-.14,0-.27,.02-.41,.03-.11-1.31-.66-6.48-1.14-8.22-.18-.66-.53-1.69-1.37-1.7-1.53-.02-1.27,2.54-1.02,3.47,.42,1.6,1.88,5.89,2.16,6.7-1.4,.38-2.67,1.15-3.29,2.55-.34,.76-.52,1.59-.54,2.41-.01,.85,.14,1.72,.52,2.49,.41,.82,1.08,1.37,1.86,1.73-.16,.35-.3,.7-.43,1.05-.58,.46-1.18,.91-1.33,.97-.24,.1-.46,.09-.71,.05-.22-.04-.48-.11-.69-.01-.21,.09-.36,.3-.36,.54,0,.45,.39,.86,.85,.84,.51-.02,1.02-.28,1.44-.56,.05-.03,.14-.1,.25-.18-1.25,4.31-.76,8.06,1.29,8.12,.32,.01,.68,.06,.85,.39,.15,.29,.1,1.32,.67,1.32,.34,0,1.17,0,1.17,0,.33-.04,.31-.83,.44-1.12,.3-.64,.55-.59,1.1-.59,.5,0,.82,.1,.89,.7,.02,.14,0,1.01,.2,1.01,.25,0,.5,0,.76,.01,.13,0,.25,0,.38,0,.1,0,.24,.02,.31-.05,.28-.24,.11-.79,.24-1.1,.18-.45,.71-.41,1.09-.55,1.5-.54,1.83-1.99,1.83-3.42,0-1.52-.28-3.4-.72-5.12,.38,.28,.69,.51,.79,.58,.41,.29,.93,.54,1.44,.56,.46,.02,.85-.39,.85-.84,0-.23-.15-.44-.36-.54Z"/><rect class="cls-3" x="0" y="-.14" width="32" height="32"/></svg>